<svg width="68" height="65" viewBox="0 0 68 65" fill="none" xmlns="http://www.w3.org/2000/svg">
<path fill-rule="evenodd" clip-rule="evenodd" d="M33.8554 0C52.2733 0 67.2264 14.5405 67.2264 32.4502C67.2264 50.3599 52.2733 64.9003 33.8554 64.9003C15.4375 64.9003 0.484375 50.3599 0.484375 32.4502C0.484375 14.5405 15.4375 0 33.8554 0ZM53.8409 22.687C53.3611 20.9416 51.9478 19.5675 50.1531 19.101C46.8997 18.2532 33.8554 18.2532 33.8554 18.2532C33.8554 18.2532 20.8111 18.2532 17.5577 19.101C15.7634 19.5675 14.3496 20.9416 13.8699 22.687C12.9985 25.8502 12.9985 32.4504 12.9985 32.4504C12.9985 32.4504 12.9985 39.0504 13.8699 42.2134C14.3496 43.9587 15.7634 45.3334 17.5577 45.7997C20.8111 46.6471 33.8554 46.6471 33.8554 46.6471C33.8554 46.6471 46.8997 46.6471 50.1531 45.7997C51.9478 45.3334 53.3611 43.9587 53.8409 42.2134C54.7123 39.0504 54.7123 32.4504 54.7123 32.4504C54.7123 32.4504 54.7123 25.8502 53.8409 22.687ZM29.6839 38.535V26.3659L40.5213 32.4504L29.6839 38.535Z" fill="white"/>
</svg>
