<svg width="67" height="65" viewBox="0 0 67 65" fill="none" xmlns="http://www.w3.org/2000/svg">
<path d="M38.456 64.9003V39.9593H45.7658V32.2614H38.456V29.7981C38.456 27.7966 38.456 26.7189 39.4095 25.9491C39.8253 25.6104 40.306 25.3544 40.8241 25.1959C41.3422 25.0374 41.8875 24.9795 42.4287 25.0254C43.9045 24.8232 45.4024 24.8232 46.8782 25.0254L48.1494 18.2513C45.4922 17.3691 42.6942 16.952 39.8862 17.0196C37.5053 16.9099 35.1397 17.4429 33.0531 18.5592C31.4386 19.2805 30.1427 20.536 29.3982 22.1002C28.5891 24.3232 28.212 26.6722 28.2858 29.0283V31.6456H22.8829V39.3434H28.2858V64.2845C19.975 63.043 12.4542 58.8075 7.22791 52.425C2.00161 46.0425 -0.544941 37.9837 0.0976302 29.8605C0.740201 21.7373 4.52451 14.1485 10.6936 8.61215C16.8628 3.07579 24.9618 0 33.3709 0C41.78 0 49.8791 3.07579 56.0482 8.61215C62.2173 14.1485 66.0016 21.7373 66.6442 29.8605C67.2868 37.9837 64.7402 46.0425 59.5139 52.425C54.2876 58.8075 46.7669 63.043 38.456 64.2845V64.9003Z" fill="white"/>
</svg>
