<svg width="68" height="65" viewBox="0 0 68 65" fill="none" xmlns="http://www.w3.org/2000/svg">
<path fill-rule="evenodd" clip-rule="evenodd" d="M0.742188 32.4502C0.742188 14.5285 15.6829 0 34.1131 0C52.5433 0 67.484 14.5285 67.484 32.4502C67.484 50.3719 52.5433 64.9003 34.1131 64.9003C15.6829 64.9003 0.742188 50.3719 0.742188 32.4502ZM24.325 26.8766H16.7625V48.9722H24.325V26.8766ZM24.8232 20.0416C24.7741 17.8752 23.1809 16.2251 20.5937 16.2251C18.0066 16.2251 16.3153 17.8752 16.3153 20.0416C16.3153 22.1632 17.9567 23.8607 20.4956 23.8607H20.5439C23.1809 23.8607 24.8232 22.1632 24.8232 20.0416ZM51.5986 36.3032C51.5986 29.5165 47.8678 26.3578 42.8912 26.3578C38.876 26.3578 37.0784 28.5023 36.0746 30.0068V26.8773H28.5111C28.6108 28.9506 28.5111 48.9727 28.5111 48.9727H36.0746V36.6327C36.0746 35.9724 36.1237 35.3136 36.3237 34.8408C36.8702 33.5216 38.1147 32.1557 40.204 32.1557C42.9417 32.1557 44.0361 34.1818 44.0361 37.151V48.9722H51.5984L51.5986 36.3032Z" fill="white"/>
</svg>
