<svg width="14" height="14" viewBox="0 0 14 14" fill="none" xmlns="http://www.w3.org/2000/svg">
<g clip-path="url(#clip0)">
<path d="M7.38418 10.6209L13.8417 4.14552C14.0531 3.93336 14.0528 3.58987 13.8406 3.37807C13.6284 3.16643 13.2847 3.16698 13.0731 3.37916L6.99998 9.46914L0.926845 3.37894C0.715204 3.16678 0.371741 3.16624 0.159554 3.37785C0.0531874 3.48403 3.8147e-06 3.62312 3.8147e-06 3.76222C3.8147e-06 3.90096 0.0528316 4.03951 0.158461 4.1455L6.6158 10.6209C6.71746 10.7231 6.85582 10.7805 6.99998 10.7805C7.14413 10.7805 7.28233 10.723 7.38418 10.6209Z" fill="#363636"/>
</g>
<defs>
<clipPath id="clip0">
<rect width="14" height="14" fill="white" transform="translate(14) rotate(90)"/>
</clipPath>
</defs>
</svg>
