<svg xmlns="http://www.w3.org/2000/svg" width="44.22" height="11.04" viewBox="0 0 44.22 11.04" fill='#fff'><title>arrow right</title><g id="DESIGNED_BY_FREEPIK" data-name="DESIGNED BY FREEPIK"><path d="M31.43,10.05c.62-1.53,1.15-3.15.66-4.63a19.32,19.32,0,0,0-1-2.27c-.18-.39-.36-.79-.52-1.2a3.87,3.87,0,0,1-.23-.65L30.23,1l0-.18a.54.54,0,0,1,0-.17V.56a.5.5,0,0,1,0-.16.61.61,0,0,1,.19-.28A.6.6,0,0,1,31,.05a.64.64,0,0,1,.2.16h0l0,0,.05.08L31,.07a48.19,48.19,0,0,0,6.14,1.48,47.69,47.69,0,0,1,6.34,1.57,1.13,1.13,0,0,1,.21,2l-.07,0c-1.86,1.11-3.74,2.2-5.66,3.21a42.24,42.24,0,0,1-6,2.6.53.53,0,0,1-.67-.34.51.51,0,0,1,.16-.56,41.75,41.75,0,0,1,5.35-3.78c1.87-1.1,3.78-2.14,5.7-3.15l.15,2.08a58.66,58.66,0,0,0-5.91-2c-2-.64-4.12-1.22-6.13-2.06L30.27.89l0,0V1h0a.55.55,0,0,0,.2.15A.6.6,0,0,0,31.11,1a.61.61,0,0,0,.18-.26.49.49,0,0,0,0-.15v0h0l0,.13L31.4,1a3.5,3.5,0,0,0,.17.55c.14.39.3.77.46,1.16a20.68,20.68,0,0,1,1,2.42,5.58,5.58,0,0,1,.11,2.75,16.45,16.45,0,0,1-.72,2.54.52.52,0,0,1-1-.35v0Z"/><path d="M10.08,4.1a17.72,17.72,0,0,0,.24,2.41,22.25,22.25,0,0,0,.54,2.39l-1.5,0a14.51,14.51,0,0,1-.18-2.45,5.16,5.16,0,0,1,.14-1.23A3.89,3.89,0,0,1,9.82,4a.51.51,0,0,1,.7-.14.57.57,0,0,1,.15.16A3.67,3.67,0,0,1,11.1,5.3a5.09,5.09,0,0,1,.07,1.23A14.66,14.66,0,0,1,10.86,9l0,.23A.73.73,0,0,1,9.36,9a21.74,21.74,0,0,0,.08-2.42,16,16,0,0,0-.2-2.39v0A.42.42,0,1,1,10.07,4,.13.13,0,0,1,10.08,4.1Z"/><path d="M20.82,3.63a19.44,19.44,0,0,0,.37,2.62,26.13,26.13,0,0,0,.65,2.57.75.75,0,0,1-.5.92.76.76,0,0,1-.89-.41l-.09-.21a8.89,8.89,0,0,1-.7-2.71,5.92,5.92,0,0,1,0-1.33A4.86,4.86,0,0,1,20,3.74h0a.49.49,0,0,1,.64-.26.5.5,0,0,1,.2.15,4.09,4.09,0,0,1,.61,1.29,7.52,7.52,0,0,1,.22,1.3c.08.86.08,1.68.17,2.5L20.34,9c0-.89,0-1.78,0-2.66A21.08,21.08,0,0,0,20,3.74a.43.43,0,0,1,.33-.5.42.42,0,0,1,.5.33A.13.13,0,0,1,20.82,3.63Z"/><path d="M.85,3a10.37,10.37,0,0,0,.37,1.32,9.35,9.35,0,0,0,.53,1.28,4.24,4.24,0,0,1,.41,1.28,1.61,1.61,0,0,1-.37,1.37h0A.62.62,0,0,1,1,8.43,1.58,1.58,0,0,1,.19,7.19,4.66,4.66,0,0,1,.25,5.85a5.38,5.38,0,0,0,.1-1.32A3.47,3.47,0,0,0,.05,3.3a.43.43,0,0,1,.18-.58.44.44,0,0,1,.58.19A.56.56,0,0,1,.85,3Z"/></g></svg>