<svg fill='#fff' id="Шар_1" data-name="Шар 1" xmlns="http://www.w3.org/2000/svg" width="13.98" height="10.95" viewBox="0 0 13.98 10.95"><title>arrow button</title><path d="M1.21,10c.62-1.53,1.15-3.15.66-4.63a21.73,21.73,0,0,0-1-2.27C.69,2.75.51,2.35.35,1.94a2.78,2.78,0,0,1-.23-.65L0,1V.81A.48.48,0,0,1,0,.64V.55A.43.43,0,0,1,0,.39.64.64,0,0,1,.2.11.62.62,0,0,1,.78,0,1,1,0,0,1,1,.2H1L1,.28.78.06A46.13,46.13,0,0,0,6.92,1.54a49.74,49.74,0,0,1,6.34,1.57,1.13,1.13,0,0,1,.64,1.47,1.07,1.07,0,0,1-.43.53H13.4c-1.86,1.11-3.74,2.2-5.66,3.21a41.34,41.34,0,0,1-6,2.6.52.52,0,0,1-.67-.33h0A.5.5,0,0,1,1.23,10,42.64,42.64,0,0,1,6.58,6.24c1.87-1.1,3.78-2.14,5.7-3.15l.15,2.08a62.22,62.22,0,0,0-5.91-2C4.52,2.53,2.4,2,.39,1.11L.05.88h0V1h0a.43.43,0,0,0,.2.15A.58.58,0,0,0,.89,1,.55.55,0,0,0,1.07.73V.58h0V.71L1.18,1a3.2,3.2,0,0,0,.17.55c.14.39.3.77.46,1.16a24.17,24.17,0,0,1,1,2.42,5.69,5.69,0,0,1,.11,2.75,16.78,16.78,0,0,1-.72,2.54.53.53,0,1,1-1-.35h0Z"/></svg>