<svg xmlns="http://www.w3.org/2000/svg" width="44.22" height="11.04" viewBox="0 0 44.22 11.04" fill='#d4d4d4'><title>arrow left</title><g id="DESIGNED_BY_FREEPIK" data-name="DESIGNED BY FREEPIK"><path d="M12.79,1c-.62,1.53-1.15,3.16-.66,4.64a20.9,20.9,0,0,0,1,2.27c.19.39.36.79.53,1.19.08.19.17.46.23.66l.09.32,0,.19c0,.05,0,.05,0,.17v.06l0,.15a.65.65,0,0,1-.2.28.59.59,0,0,1-.6.07.52.52,0,0,1-.21-.15v0l0,0-.05-.08.31.27A49.11,49.11,0,0,0,7.1,9.49,44.32,44.32,0,0,1,.77,7.92a1.13,1.13,0,0,1-.22-2l.07,0c1.86-1.11,3.74-2.2,5.66-3.22A40.74,40.74,0,0,1,12.3,0a.52.52,0,0,1,.5.9A40.71,40.71,0,0,1,7.45,4.7C5.58,5.81,3.67,6.84,1.75,7.85L1.6,5.77A58.68,58.68,0,0,0,7.51,7.83c2,.64,4.12,1.22,6.14,2.05l.3.27,0,0,0,0h0a.58.58,0,0,0-.19-.15.62.62,0,0,0-.6.08.55.55,0,0,0-.18.26.4.4,0,0,0,0,.15h0v0h0l0-.12L12.82,10a3.62,3.62,0,0,0-.17-.56c-.14-.39-.3-.77-.46-1.15a23.65,23.65,0,0,1-1-2.43,5.78,5.78,0,0,1-.11-2.74A15.84,15.84,0,0,1,11.82.62a.52.52,0,0,1,.67-.31A.51.51,0,0,1,12.8,1V1Z"/><path d="M34.14,6.94a17.72,17.72,0,0,0-.24-2.41,22.75,22.75,0,0,0-.53-2.39l1.49,0A14.55,14.55,0,0,1,35,4.57a5,5,0,0,1-.14,1.22A3.58,3.58,0,0,1,34.4,7a.51.51,0,0,1-.85,0,3.67,3.67,0,0,1-.43-1.24,5.09,5.09,0,0,1-.07-1.23,14.55,14.55,0,0,1,.31-2.44l0-.23a.73.73,0,0,1,1.45.2,21.56,21.56,0,0,0-.08,2.41A17.38,17.38,0,0,0,35,6.84v0a.43.43,0,0,1-.35.49A.41.41,0,0,1,34.15,7,.17.17,0,0,1,34.14,6.94Z"/><path d="M23.4,7.41A20.74,20.74,0,0,0,23,4.8c-.17-.87-.41-1.72-.66-2.57a.74.74,0,0,1,1.39-.51l.09.2a9,9,0,0,1,.7,2.71,5.92,5.92,0,0,1,0,1.33,4.46,4.46,0,0,1-.33,1.34h0a.49.49,0,0,1-.64.26.53.53,0,0,1-.2-.16,3.68,3.68,0,0,1-.6-1.29,6,6,0,0,1-.22-1.3c-.09-.85-.09-1.68-.18-2.49L23.88,2a26,26,0,0,0,0,2.65,20.83,20.83,0,0,0,.32,2.62.42.42,0,0,1-.83.17S23.4,7.43,23.4,7.41Z"/><path d="M43.37,8a10.63,10.63,0,0,0-.9-2.61,4.44,4.44,0,0,1-.41-1.28,1.59,1.59,0,0,1,.37-1.36v0a.63.63,0,0,1,.83-.13A1.6,1.6,0,0,1,44,3.86,4.25,4.25,0,0,1,44,5.19a5,5,0,0,0-.09,1.32,3.05,3.05,0,0,0,.3,1.23.44.44,0,0,1-.19.58.43.43,0,0,1-.58-.19.49.49,0,0,1,0-.11Z"/></g></svg>