<svg id="Шар_1" data-name="Шар 1" xmlns="http://www.w3.org/2000/svg" width="18.96mm" height="11.99mm" viewBox="0 0 53.75 33.98"><defs><style>.cls-1{fill:#293202;}</style></defs><title>logo-2</title><path class="cls-1" d="M0,21.13.05,13l5.28,0-.22,1.2L2,14.25V16.4l2.72,0-.21,1.12L2,17.52l0,3.62Z"/><path class="cls-1" d="M8.18,15.32H9.8L10,17.05l.18-.32.17-.31.15-.24.09-.15a1.91,1.91,0,0,1,.24-.32,1.68,1.68,0,0,1,.29-.25,1.46,1.46,0,0,1,.36-.16,1.56,1.56,0,0,1,.44-.06,1.59,1.59,0,0,1,.36,0,1.51,1.51,0,0,1,.35.14l-.23,1.72-.13,0h-.5a2.29,2.29,0,0,0-1,.21,2.08,2.08,0,0,0-.71.55l0,3.34H8.14Z"/><path class="cls-1" d="M15.5,15.37h1.91l0,3.66a1.42,1.42,0,0,0,.06.42.8.8,0,0,0,.43.53.72.72,0,0,0,.33.07,1,1,0,0,0,.54-.15,2.48,2.48,0,0,0,.49-.38l0-4.14h1.91l0,5.86H19.53l-.23-1-.43.37a4.26,4.26,0,0,1-.49.34,3.32,3.32,0,0,1-.54.25,1.86,1.86,0,0,1-.58.1,2.21,2.21,0,0,1-.66-.13,1.7,1.7,0,0,1-.57-.39,1.86,1.86,0,0,1-.41-.63,2.44,2.44,0,0,1-.15-.89Zm.58-1.87a.85.85,0,0,1,.08-.35.86.86,0,0,1,.21-.29,1,1,0,0,1,.3-.21,1,1,0,0,1,.38-.07,1.16,1.16,0,0,1,.37.07,1,1,0,0,1,.29.2.92.92,0,0,1,.19.28.8.8,0,0,1,.07.34.81.81,0,0,1-.07.35.84.84,0,0,1-.2.29.79.79,0,0,1-.3.2.81.81,0,0,1-.38.07.94.94,0,0,1-.37-.07.81.81,0,0,1-.29-.19.83.83,0,0,1-.21-.28A.94.94,0,0,1,16.08,13.5Zm2.68,0a.84.84,0,0,1,.07-.35,1,1,0,0,1,.21-.3,1.1,1.1,0,0,1,.31-.2.78.78,0,0,1,.38-.07.86.86,0,0,1,.36.07,1,1,0,0,1,.3.19,1.12,1.12,0,0,1,.19.29.8.8,0,0,1,.07.34,1,1,0,0,1-.07.35,1,1,0,0,1-.2.29,1.21,1.21,0,0,1-.3.2,1,1,0,0,1-.39.07.94.94,0,0,1-.37-.07,1,1,0,0,1-.29-.19.9.9,0,0,1-.2-.28A.67.67,0,0,1,18.76,13.52Z"/><path class="cls-1" d="M29,20.69a2.93,2.93,0,0,1-1,.56,3.28,3.28,0,0,1-1,.16,3.41,3.41,0,0,1-1.19-.22,2.44,2.44,0,0,1-.88-.57,2.51,2.51,0,0,1-.54-.87,2.9,2.9,0,0,1-.18-1.12,3.09,3.09,0,0,1,.28-1.34,3.06,3.06,0,0,1,.75-1.05,3.41,3.41,0,0,1,1.12-.67,3.83,3.83,0,0,1,1.37-.24c.18,0,.39,0,.64.05a3.49,3.49,0,0,1,.76.18l-.28,1.24-.11.06-.2-.12a2.18,2.18,0,0,0-.27-.11l-.3-.08-.32,0a1.41,1.41,0,0,0-.59.12,1.23,1.23,0,0,0-.46.36,1.54,1.54,0,0,0-.3.57,2.52,2.52,0,0,0-.12.76,2.13,2.13,0,0,0,.13.8,1.45,1.45,0,0,0,.35.56,1.34,1.34,0,0,0,.54.32,2,2,0,0,0,.7.11,1.87,1.87,0,0,0,.52-.05,3.77,3.77,0,0,0,.62-.19Z"/><path class="cls-1" d="M32,12.48H34l0,3.93c.15-.13.31-.25.47-.37a3.08,3.08,0,0,1,.5-.33,3,3,0,0,1,.56-.24,1.56,1.56,0,0,1,.61-.09,1.89,1.89,0,0,1,.72.14,1.56,1.56,0,0,1,.56.42,1.67,1.67,0,0,1,.36.64,2.41,2.41,0,0,1,.13.83l0,3.94H35.89l0-3.67a1.35,1.35,0,0,0-.06-.43.91.91,0,0,0-.19-.32.67.67,0,0,0-.28-.19.77.77,0,0,0-.34-.07,1.34,1.34,0,0,0-.58.14,3.56,3.56,0,0,0-.54.38l0,4.15H32Z"/><path class="cls-1" d="M41.59,16.72H40.42l.12-.81a4.54,4.54,0,0,0,.51-.2,1.94,1.94,0,0,0,.38-.2,1.34,1.34,0,0,0,.29-.23A2,2,0,0,0,42,15c.07-.11.15-.24.23-.39l.27-.52h.95v1.47h2.07l-.28,1.19H43.51l0,2.5a.92.92,0,0,0,.28.77,1.36,1.36,0,0,0,.82.23,2,2,0,0,0,.42,0,2.09,2.09,0,0,0,.43-.11v.82a3,3,0,0,1-1,.46,3.67,3.67,0,0,1-1,.15,2.26,2.26,0,0,1-.87-.15A1.43,1.43,0,0,1,42,21a1.55,1.55,0,0,1-.32-.64,3.13,3.13,0,0,1-.11-.85Z"/><path class="cls-1" d="M53.44,20.84a3.42,3.42,0,0,1-.61.35,4.2,4.2,0,0,1-.62.22,3.41,3.41,0,0,1-.61.11,3.82,3.82,0,0,1-.58,0,3.89,3.89,0,0,1-1.27-.2,2.52,2.52,0,0,1-1-.55,2.32,2.32,0,0,1-.61-.89,3,3,0,0,1-.2-1.2,3.27,3.27,0,0,1,.27-1.36,3.14,3.14,0,0,1,.72-1,2.86,2.86,0,0,1,1-.63,3.39,3.39,0,0,1,1.23-.22,2.84,2.84,0,0,1,1,.18,2.11,2.11,0,0,1,.8.51,2.26,2.26,0,0,1,.52.83,3.33,3.33,0,0,1,.18,1.14c0,.14,0,.27,0,.39a1.92,1.92,0,0,1,0,.29L50,18.8a1.5,1.5,0,0,0,.13.66,1.3,1.3,0,0,0,.38.46,1.61,1.61,0,0,0,.61.26,3.1,3.1,0,0,0,.78.09h.35a2.85,2.85,0,0,0,.4,0l.42-.07a3.45,3.45,0,0,0,.43-.12ZM52,18.13a2.49,2.49,0,0,0-.07-.65,1.51,1.51,0,0,0-.2-.46.91.91,0,0,0-.32-.27,1,1,0,0,0-.39-.08.91.91,0,0,0-.44.09,1,1,0,0,0-.34.29,1.57,1.57,0,0,0-.22.45,2.33,2.33,0,0,0-.08.62Z"/><path class="cls-1" d="M9.27,32.62a2,2,0,0,0,.5-.06,1.33,1.33,0,0,0,.42-.18.92.92,0,0,0,.29-.3.84.84,0,0,0,.12-.45.92.92,0,0,0-.15-.53,1.51,1.51,0,0,0-.41-.38,3.94,3.94,0,0,0-.58-.3l-.67-.29a6.65,6.65,0,0,1-.66-.32,3.09,3.09,0,0,1-.57-.44,1.87,1.87,0,0,1-.41-.61A2.1,2.1,0,0,1,7,27.92a2.19,2.19,0,0,1,.22-1,2.08,2.08,0,0,1,.62-.76,2.71,2.71,0,0,1,1-.48,4.07,4.07,0,0,1,1.25-.17l.44,0,.54,0,.59.09.59.14-.29,1.3-.1,0a5.38,5.38,0,0,0-.51-.2c-.17-.05-.34-.1-.5-.13a4.3,4.3,0,0,0-.45-.08,2.49,2.49,0,0,0-.37,0,1.4,1.4,0,0,0-.85.22.76.76,0,0,0-.32.66.89.89,0,0,0,.15.52,1.67,1.67,0,0,0,.41.38,5.21,5.21,0,0,0,.58.31l.67.28c.22.11.45.21.66.33a2.53,2.53,0,0,1,.58.44,1.94,1.94,0,0,1,.41.6,2.09,2.09,0,0,1,.15.83,2.31,2.31,0,0,1-.87,1.83,2.91,2.91,0,0,1-1,.52,4.48,4.48,0,0,1-1.32.18,4,4,0,0,1-.58,0L8,33.69a5.48,5.48,0,0,1-.67-.17,4.12,4.12,0,0,1-.67-.24L7,32l.11-.06.6.28a5.72,5.72,0,0,0,.55.22,3.79,3.79,0,0,0,.53.14A2.73,2.73,0,0,0,9.27,32.62Z"/><path class="cls-1" d="M15.47,27.89h1.61l.23,1,.42-.35c.16-.12.33-.23.51-.34a3.11,3.11,0,0,1,.59-.26,2,2,0,0,1,.65-.1,1.78,1.78,0,0,1,.74.15,1.66,1.66,0,0,1,.57.41,1.92,1.92,0,0,1,.37.64,2.45,2.45,0,0,1,.13.83l0,3.94H19.34l0-3.67a1.4,1.4,0,0,0-.06-.43,1,1,0,0,0-.19-.32.77.77,0,0,0-.28-.19.94.94,0,0,0-.34-.07,1.22,1.22,0,0,0-.58.15,3.47,3.47,0,0,0-.54.37l0,4.15H15.43Z"/><path class="cls-1" d="M27.77,33l-.37.3a5.27,5.27,0,0,1-.46.31,4.41,4.41,0,0,1-.54.24,1.87,1.87,0,0,1-.59.09,1.41,1.41,0,0,1-.67-.15,1.38,1.38,0,0,1-.47-.39,1.52,1.52,0,0,1-.29-.53,2.08,2.08,0,0,1-.09-.6,1.6,1.6,0,0,1,.19-.77,1.7,1.7,0,0,1,.58-.62,3.07,3.07,0,0,1,1-.42,5.7,5.7,0,0,1,1.45-.14h.21V30a.81.81,0,0,0-.28-.68,1.07,1.07,0,0,0-.73-.24,1.63,1.63,0,0,0-.43.05,2.54,2.54,0,0,0-.45.13,3,3,0,0,0-.45.2,3.85,3.85,0,0,0-.4.24l-.1-.05-.32-1.17A6.54,6.54,0,0,1,25.92,28a6,6,0,0,1,1.25-.13,5,5,0,0,1,1,.11,2.35,2.35,0,0,1,.79.33,1.62,1.62,0,0,1,.52.58,1.86,1.86,0,0,1,.19.89v2.35a1.34,1.34,0,0,0,0,.2.49.49,0,0,0,.06.17.37.37,0,0,0,.12.13.39.39,0,0,0,.2,0h.15a.64.64,0,0,0,.17,0v.82a4.2,4.2,0,0,1-.72.38,1.82,1.82,0,0,1-.7.14,1.09,1.09,0,0,1-.72-.25A1.72,1.72,0,0,1,27.77,33Zm-.05-2h-.21a3.59,3.59,0,0,0-.72.06,1.17,1.17,0,0,0-.45.18.56.56,0,0,0-.24.27.9.9,0,0,0-.07.37,1,1,0,0,0,.06.36.6.6,0,0,0,.16.24.58.58,0,0,0,.24.14.87.87,0,0,0,.28,0,1.47,1.47,0,0,0,.44-.08,1.75,1.75,0,0,0,.5-.31Z"/><path class="cls-1" d="M37.57,33.27a3.05,3.05,0,0,1-1,.56,3.52,3.52,0,0,1-1,.15,3.19,3.19,0,0,1-1.19-.21,2.47,2.47,0,0,1-1.43-1.45,3.27,3.27,0,0,1,.85-3.5,3.43,3.43,0,0,1,1.12-.68,4.16,4.16,0,0,1,1.38-.23,5.75,5.75,0,0,1,.64.05,4.34,4.34,0,0,1,.76.17l-.28,1.25-.11.05-.21-.11-.26-.11-.31-.08a1.66,1.66,0,0,0-.32,0,1.37,1.37,0,0,0-.58.12,1.31,1.31,0,0,0-.46.35,1.74,1.74,0,0,0-.31.57,2.6,2.6,0,0,0-.11.77,2.45,2.45,0,0,0,.12.8,1.53,1.53,0,0,0,.35.55,1.47,1.47,0,0,0,.55.33,2.19,2.19,0,0,0,.7.11,2.94,2.94,0,0,0,.51-.05,3.94,3.94,0,0,0,.62-.2Z"/><path class="cls-1" d="M40.61,25.05l1.91,0-.05,8.84H40.55Zm3.83,8.87-1.73-3,2.12-2.78H46.6l-2.08,2.46,2.17,3.35Z"/><path class="cls-1" d="M33.24,7.25a3.69,3.69,0,0,0-.63-3.69c-.14,0,.09.81-.41,1.47s-1.11.51-1.78.88c-1.33.74-2,2.87-1.46,3.43s1.86.23,3-.56l.25-.19A3.4,3.4,0,0,0,33.24,7.25Zm-1.63.56a3.17,3.17,0,0,1-.54.36,3.67,3.67,0,0,1-1.2.43A5.59,5.59,0,0,0,31,8.06,4.91,4.91,0,0,0,32,7.25a4.62,4.62,0,0,0,.37-.5,3.6,3.6,0,0,0,.31-.54A5.21,5.21,0,0,0,33,5a3.78,3.78,0,0,1-1,2.34A4.94,4.94,0,0,1,31.61,7.81Z"/><path class="cls-1" d="M28.44,2.51C27.05.19,23.79-.21,23.63.08s1,.59,1.34,1.73-.35,1.72-.5,2.82c-.28,2.16,1.61,4.75,2.72,4.62.87-.11,1.86-1.95,1.91-3.94V4.85A5.12,5.12,0,0,0,28.44,2.51Zm-.76,2.37a4.83,4.83,0,0,1,0,.93,4.89,4.89,0,0,1-.54,1.75,7.21,7.21,0,0,0,.35-1.77A6.24,6.24,0,0,0,27.32,4a6.06,6.06,0,0,0-.24-.86,5.54,5.54,0,0,0-.37-.82,7.19,7.19,0,0,0-1-1.48A5.45,5.45,0,0,1,27.57,4,5.9,5.9,0,0,1,27.68,4.88Z"/><path class="cls-1" d="M24.13,9.62l.17,0c.72.09,1.45-.16,1.54-.47S25.12,8,24.32,7.93c-.4,0-.68.2-1,0s-.48-.61-.55-.58a1.93,1.93,0,0,0,.6,1.88A1.89,1.89,0,0,0,24.13,9.62ZM23.9,9a1.94,1.94,0,0,1-1-.86,2.56,2.56,0,0,0,.47.46,1.67,1.67,0,0,0,.28.18l.29.14a2.38,2.38,0,0,0,.64.15,2.44,2.44,0,0,0,.66,0,1.88,1.88,0,0,1-.67.1l-.33,0A1.39,1.39,0,0,1,23.9,9Z"/></svg>