<svg width="48" height="28" viewBox="0 0 48 28" fill="none" xmlns="http://www.w3.org/2000/svg">
<path d="M48.0001 13.9999C48.0001 21.7036 41.6001 27.9999 33.6001 27.9999C25.6763 27.9999 19.2001 21.7036 19.2001 13.9999C19.2001 6.29627 25.6001 0 33.5239 0C41.6001 0 48.0001 6.29627 48.0001 13.9999Z" fill="#FFB600"/>
<path d="M33.6001 0C41.5239 0 48.0001 6.29627 48.0001 13.9999C48.0001 21.7036 41.6001 27.9999 33.6001 27.9999C25.6763 27.9999 19.2001 21.7036 19.2001 13.9999" fill="#F7981D"/>
<path d="M33.6 0C41.5238 0 48 6.29627 48 13.9999C48 21.7036 41.6 27.9999 33.6 27.9999" fill="#FF8500"/>
<path d="M14.2476 0C6.4 0.0740737 0 6.29627 0 13.9999C0 21.7036 6.4 27.9999 14.4 27.9999C18.1333 27.9999 21.4857 26.5925 24.0762 24.3703C24.6095 23.9258 25.0667 23.4073 25.5238 22.8888H22.5524C22.1714 22.4443 21.7905 21.9258 21.4857 21.4814H26.5905C26.8952 21.0369 27.2 20.5184 27.4286 19.9999H20.6476C20.419 19.5555 20.1905 19.0369 20.0381 18.5184H27.9619C28.419 17.111 28.7238 15.6296 28.7238 14.074C28.7238 13.037 28.5714 12.074 28.419 11.1111H19.5809C19.6571 10.5925 19.8095 10.1481 19.9619 9.62958H27.8857C27.7333 9.11107 27.5047 8.59255 27.2762 8.14811H20.5714C20.8 7.62959 21.1047 7.18515 21.4095 6.66663H26.5143C26.2095 6.14812 25.8286 5.6296 25.3714 5.18516H22.5524C23.0095 4.66664 23.4667 4.2222 24 3.77776C21.4857 1.48147 18.0571 0.148147 14.3238 0.148147C14.3238 -1.43492e-07 14.3238 0 14.2476 0Z" fill="#FF5050"/>
<path d="M0 14C0 21.7037 6.4 28 14.4 28C18.1333 28 21.4857 26.5926 24.0762 24.3704C24.6095 23.9259 25.0667 23.4074 25.5238 22.8889H22.5524C22.1714 22.4444 21.7905 21.9259 21.4857 21.4815H26.5905C26.8952 21.037 27.2 20.5185 27.4286 20H20.6476C20.419 19.5556 20.1905 19.0371 20.0381 18.5185H27.9619C28.419 17.1111 28.7238 15.6297 28.7238 14.0741C28.7238 13.0371 28.5714 12.0741 28.419 11.1112H19.5809C19.6571 10.5926 19.8095 10.1482 19.9619 9.62969H27.8857C27.7333 9.11117 27.5047 8.59266 27.2762 8.14822H20.5714C20.8 7.6297 21.1047 7.18526 21.4095 6.66674H26.5143C26.2095 6.14823 25.8286 5.62971 25.3714 5.18527H22.5524C23.0095 4.66675 23.4667 4.22231 24 3.77787C21.4857 1.48158 18.0571 0.148254 14.3238 0.148254H14.2476" fill="#E52836"/>
<path d="M14.1957 27.9987C17.9043 27.9987 21.2345 26.5838 23.8078 24.3499C24.3376 23.9031 24.7917 23.3819 25.2458 22.8606H22.2941C21.9156 22.4138 21.5372 21.8926 21.2345 21.4458H26.3054C26.6082 20.999 26.9109 20.4778 27.138 19.9565H20.4019C20.1749 19.5097 19.9478 18.9885 19.7964 18.4672H27.6678C28.1219 17.0524 28.4246 15.5631 28.4246 13.9993C28.4246 12.9568 28.2733 11.9888 28.1219 11.0208H19.3423C19.418 10.4995 19.5694 10.0527 19.7208 9.53146H27.5921C27.4407 9.01021 27.2137 8.48896 26.9866 8.04217H20.3262C20.5533 7.52092 20.856 7.07413 21.1588 6.55288H26.2297C25.927 6.03163 25.5486 5.51038 25.0945 5.06359H22.2941C22.7482 4.54234 23.2023 4.09555 23.7321 3.64876C21.2345 1.34036 17.8286 0 14.12 0H14.0443" fill="#CB2026"/>
<path d="M19.5044 17.5556L19.733 16.2963C19.6568 16.2963 19.5044 16.3704 19.3521 16.3704C18.8187 16.3704 18.7425 16.0741 18.8187 15.926L19.2759 13.3334H20.114L20.3425 11.926H19.5806L19.733 11.0371H18.2092C18.2092 11.0371 17.2949 15.926 17.2949 16.5186C17.2949 17.4075 17.8283 17.7778 18.514 17.7778C18.9711 17.7778 19.3521 17.6297 19.5044 17.5556Z" fill="white"/>
<path d="M20.038 15.1845C20.038 17.2586 21.4856 17.7771 22.7046 17.7771C23.8475 17.7771 24.3046 17.5548 24.3046 17.5548L24.6094 16.1474C24.6094 16.1474 23.7713 16.5178 23.0094 16.5178C21.3332 16.5178 21.638 15.3326 21.638 15.3326H24.7618C24.7618 15.3326 24.9903 14.3697 24.9903 13.9993C24.9903 13.0364 24.457 11.8512 22.7808 11.8512C21.1808 11.703 20.038 13.3326 20.038 15.1845ZM22.7046 13.0364C23.5427 13.0364 23.3903 13.9993 23.3903 14.0734H21.7142C21.7142 13.9993 21.8665 13.0364 22.7046 13.0364Z" fill="white"/>
<path d="M32.3809 17.5553L32.6857 15.9256C32.6857 15.9256 31.9238 16.296 31.3904 16.296C30.3238 16.296 29.8666 15.4812 29.8666 14.5923C29.8666 12.8145 30.7809 11.8516 31.8476 11.8516C32.6095 11.8516 33.219 12.296 33.219 12.296L33.4476 10.7405C33.4476 10.7405 32.5333 10.3701 31.6952 10.3701C29.9428 10.3701 28.1904 11.8516 28.1904 14.6664C28.1904 16.5182 29.1047 17.7775 30.9333 17.7775C31.5428 17.7775 32.3809 17.5553 32.3809 17.5553Z" fill="white"/>
<path d="M11.1236 11.7031C10.057 11.7031 9.29506 11.9994 9.29506 11.9994L9.06649 13.2587C9.06649 13.2587 9.7522 12.9624 10.7427 12.9624C11.276 12.9624 11.7332 13.0365 11.7332 13.4809C11.7332 13.7772 11.657 13.8513 11.657 13.8513C11.657 13.8513 11.1998 13.8513 10.9712 13.8513C9.67601 13.8513 8.22839 14.3698 8.22839 16.0735C8.22839 17.4068 9.14268 17.7031 9.67601 17.7031C10.7427 17.7031 11.1998 17.0364 11.276 17.0364L11.1998 17.629H12.5712L13.1808 13.555C13.1808 11.7772 11.657 11.7031 11.1236 11.7031ZM11.4284 15.0364C11.4284 15.2587 11.276 16.4438 10.3617 16.4438C9.90458 16.4438 9.7522 16.0735 9.7522 15.8513C9.7522 15.4809 9.98077 14.9624 11.1236 14.9624C11.3522 15.0364 11.4284 15.0364 11.4284 15.0364Z" fill="white"/>
<path d="M14.6286 17.703C15.0096 17.703 16.9143 17.777 16.9143 15.777C16.9143 13.9252 15.0857 14.2956 15.0857 13.5548C15.0857 13.1845 15.3905 13.0363 15.9238 13.0363C16.1524 13.0363 16.9905 13.1104 16.9905 13.1104L17.2191 11.7771C17.2191 11.7771 16.6857 11.6289 15.7715 11.6289C14.6286 11.6289 13.4857 12.0733 13.4857 13.5548C13.4857 15.2585 15.3905 15.1104 15.3905 15.777C15.3905 16.2215 14.8572 16.2955 14.4762 16.2955C13.7905 16.2955 13.1048 16.0733 13.1048 16.0733L12.8762 17.4067C12.9524 17.5548 13.3334 17.703 14.6286 17.703Z" fill="white"/>
<path d="M45.0284 10.5186L44.7236 12.5185C44.7236 12.5185 44.1141 11.7778 43.276 11.7778C41.9046 11.7778 40.6855 13.4074 40.6855 15.3333C40.6855 16.5185 41.2951 17.7778 42.5903 17.7778C43.5046 17.7778 44.0379 17.1852 44.0379 17.1852L43.9617 17.7037H45.4855L46.6284 10.5926L45.0284 10.5186ZM44.3427 14.4445C44.3427 15.2593 43.9617 16.2963 43.1236 16.2963C42.5903 16.2963 42.2855 15.8519 42.2855 15.1111C42.2855 13.9259 42.8189 13.1852 43.5046 13.1852C44.0379 13.1852 44.3427 13.5556 44.3427 14.4445Z" fill="white"/>
<path d="M2.8192 17.6296L3.73349 12.2963L3.88587 17.6296H4.95253L6.93348 12.2963L6.09539 17.6296H7.69539L8.91443 10.5186H6.40015L4.87634 14.8889L4.80015 10.5186H2.59063L1.37158 17.6296H2.8192Z" fill="white"/>
<path d="M26.4382 17.6293C26.8953 15.1849 26.9715 13.1849 28.0382 13.5553C28.1905 12.5923 28.4191 12.2219 28.5715 11.8516C28.5715 11.8516 28.4953 11.8516 28.2667 11.8516C27.581 11.8516 27.0477 12.7404 27.0477 12.7404L27.2001 11.9256H25.7524L24.762 17.7034H26.4382V17.6293Z" fill="white"/>
<path d="M35.8856 11.7031C34.8189 11.7031 34.057 11.9994 34.057 11.9994L33.8285 13.2587C33.8285 13.2587 34.5142 12.9624 35.5046 12.9624C36.038 12.9624 36.4951 13.0365 36.4951 13.4809C36.4951 13.7772 36.4189 13.8513 36.4189 13.8513C36.4189 13.8513 35.9618 13.8513 35.7332 13.8513C34.438 13.8513 32.9904 14.3698 32.9904 16.0735C32.9904 17.4068 33.9046 17.7031 34.438 17.7031C35.5046 17.7031 35.9618 17.0364 36.038 17.0364L35.9618 17.629H37.3332L37.9427 13.555C38.0189 11.7772 36.4189 11.7031 35.8856 11.7031ZM36.2665 15.0364C36.2665 15.2587 36.1142 16.4438 35.1999 16.4438C34.7427 16.4438 34.5904 16.0735 34.5904 15.8513C34.5904 15.4809 34.8189 14.9624 35.9618 14.9624C36.1904 15.0364 36.1904 15.0364 36.2665 15.0364Z" fill="white"/>
<path d="M39.2382 17.6293C39.6953 15.1849 39.7715 13.1849 40.8382 13.5553C40.9906 12.5923 41.2192 12.2219 41.3715 11.8516C41.3715 11.8516 41.2953 11.8516 41.0668 11.8516C40.3811 11.8516 39.8477 12.7404 39.8477 12.7404L40.0001 11.9256H38.5525L37.562 17.7034H39.2382V17.6293Z" fill="white"/>
<path d="M17.1426 16.5186C17.1426 17.4075 17.6759 17.7778 18.3616 17.7778C18.895 17.7778 19.3521 17.6297 19.5045 17.5556L19.7331 16.2963C19.6569 16.2963 19.5045 16.3704 19.3521 16.3704C18.8188 16.3704 18.7426 16.0741 18.8188 15.926L19.2759 13.3334H20.114L20.3426 11.926H19.5807L19.7331 11.0371" fill="#DCE5E5"/>
<path d="M20.7999 15.1845C20.7999 17.2586 21.4856 17.7771 22.7047 17.7771C23.8475 17.7771 24.3047 17.5548 24.3047 17.5548L24.6094 16.1474C24.6094 16.1474 23.7714 16.5178 23.0094 16.5178C21.3333 16.5178 21.638 15.3326 21.638 15.3326H24.7618C24.7618 15.3326 24.9904 14.3697 24.9904 13.9993C24.9904 13.0364 24.4571 11.8512 22.7809 11.8512C21.1809 11.703 20.7999 13.3326 20.7999 15.1845ZM22.7047 13.0364C23.5428 13.0364 23.6952 13.9993 23.6952 14.0734H21.7142C21.7142 13.9993 21.8666 13.0364 22.7047 13.0364Z" fill="#DCE5E5"/>
<path d="M32.381 17.5553L32.6857 15.9256C32.6857 15.9256 31.9238 16.296 31.3905 16.296C30.3238 16.296 29.8667 15.4812 29.8667 14.5923C29.8667 12.8145 30.781 11.8516 31.8476 11.8516C32.6095 11.8516 33.2191 12.296 33.2191 12.296L33.4476 10.7405C33.4476 10.7405 32.5333 10.3701 31.6952 10.3701C29.9429 10.3701 28.9524 11.8516 28.9524 14.6664C28.9524 16.5182 29.1048 17.7775 30.9333 17.7775C31.5429 17.7775 32.381 17.5553 32.381 17.5553Z" fill="#DCE5E5"/>
<path d="M9.06649 13.333C9.06649 13.333 9.7522 13.0367 10.7427 13.0367C11.276 13.0367 11.7332 13.1108 11.7332 13.5553C11.7332 13.8516 11.657 13.9256 11.657 13.9256C11.657 13.9256 11.1998 13.9256 10.9712 13.9256C9.67601 13.9256 8.22839 14.4441 8.22839 16.1478C8.22839 17.4812 9.14268 17.7775 9.67601 17.7775C10.7427 17.7775 11.1998 17.1108 11.276 17.1108L11.1998 17.7034H12.5712L13.1808 13.6293C13.1808 11.9256 11.657 11.8516 11.0474 11.8516L9.06649 13.333ZM12.1903 15.0367C12.1903 15.259 11.276 16.4441 10.3617 16.4441C9.90458 16.4441 9.7522 16.0738 9.7522 15.8515C9.7522 15.4812 9.98077 14.9627 11.1236 14.9627C11.3522 15.0367 12.1903 15.0367 12.1903 15.0367Z" fill="#DCE5E5"/>
<path d="M12.9524 17.5548C12.9524 17.5548 13.4095 17.703 14.7048 17.703C15.0857 17.703 16.9905 17.777 16.9905 15.777C16.9905 13.9252 15.1619 14.2956 15.1619 13.5548C15.1619 13.1845 15.4667 13.0363 16 13.0363C16.2286 13.0363 17.0667 13.1104 17.0667 13.1104L17.2952 11.7771C17.2952 11.7771 16.7619 11.6289 15.8476 11.6289C14.7048 11.6289 14.3238 12.0733 14.3238 13.5548C14.3238 15.2585 15.4667 15.1104 15.4667 15.777C15.4667 16.2215 14.9333 16.2955 14.5524 16.2955" fill="#DCE5E5"/>
<path d="M44.7236 12.5177C44.7236 12.5177 44.1141 11.777 43.276 11.777C41.9046 11.777 41.4474 13.4066 41.4474 15.3325C41.4474 16.5177 41.295 17.7769 42.5903 17.7769C43.5046 17.7769 44.0379 17.1844 44.0379 17.1844L43.9617 17.7029H45.4855L46.6284 10.5918L44.7236 12.5177ZM44.6474 14.4436C44.6474 15.2584 43.9617 16.2955 43.1236 16.2955C42.5903 16.2955 42.2855 15.851 42.2855 15.1103C42.2855 13.9251 42.8188 13.1844 43.5046 13.1844C44.0379 13.1844 44.6474 13.5547 44.6474 14.4436Z" fill="#DCE5E5"/>
<path d="M2.8192 17.6296L3.73349 12.2963L3.88587 17.6296H4.95253L6.93348 12.2963L6.09539 17.6296H7.69539L8.91443 10.5186H7.00967L4.87634 14.8889L4.80015 10.5186H3.96206L1.37158 17.6296H2.8192Z" fill="#DCE5E5"/>
<path d="M24.8381 17.6293H26.4381C26.8953 15.1849 26.9715 13.1849 28.0381 13.5553C28.1905 12.5923 28.4191 12.2219 28.5715 11.8516C28.5715 11.8516 28.4953 11.8516 28.2667 11.8516C27.581 11.8516 27.0477 12.7404 27.0477 12.7404L27.2 11.9256" fill="#DCE5E5"/>
<path d="M33.8285 13.333C33.8285 13.333 34.5142 13.0367 35.5046 13.0367C36.038 13.0367 36.4951 13.1108 36.4951 13.5553C36.4951 13.8516 36.4189 13.9256 36.4189 13.9256C36.4189 13.9256 35.9618 13.9256 35.7332 13.9256C34.438 13.9256 32.9904 14.4441 32.9904 16.1478C32.9904 17.4812 33.9046 17.7775 34.438 17.7775C35.5046 17.7775 35.9618 17.1108 36.038 17.1108L35.9618 17.7034H37.3332L37.9427 13.6293C37.9427 11.9256 36.4189 11.8516 35.8094 11.8516L33.8285 13.333ZM36.9523 15.0367C36.9523 15.259 36.038 16.4441 35.1237 16.4441C34.6665 16.4441 34.5142 16.0738 34.5142 15.8515C34.5142 15.4812 34.7427 14.9627 35.8856 14.9627C36.1904 15.0367 36.9523 15.0367 36.9523 15.0367Z" fill="#DCE5E5"/>
<path d="M37.6382 17.6293H39.2382C39.6953 15.1849 39.7715 13.1849 40.8382 13.5553C40.9906 12.5923 41.2191 12.2219 41.3715 11.8516C41.3715 11.8516 41.2953 11.8516 41.0668 11.8516C40.381 11.8516 39.8477 12.7404 39.8477 12.7404L40.0001 11.9256" fill="#DCE5E5"/>
</svg>
