<svg id="Capa_1" fill='#fff' enable-background="new 0 0 524.235 524.235" height="512" viewBox="0 0 524.235 524.235" width="512" xmlns="http://www.w3.org/2000/svg"><path d="m262.118 0c-108.405 0-196.588 88.183-196.588 196.588 0 169.631 178.606 317.728 186.221 323.951 3.008 2.464 6.687 3.696 10.367 3.696s7.359-1.232 10.367-3.696c7.615-6.223 186.221-154.32 186.221-323.951 0-108.405-88.184-196.588-196.588-196.588zm-.016 486.11c-37.533-33.836-163.808-157.504-163.808-289.523 0-90.327 73.496-163.823 163.823-163.823s163.823 73.496 163.823 163.823c.001 131.811-126.322 255.67-163.838 289.523z"/><path d="m262.118 98.294c-54.203 0-98.294 44.091-98.294 98.294s44.091 98.294 98.294 98.294 98.294-44.091 98.294-98.294-44.092-98.294-98.294-98.294zm0 163.823c-36.14 0-65.529-29.389-65.529-65.529s29.389-65.529 65.529-65.529 65.529 29.389 65.529 65.529c0 36.141-29.389 65.529-65.529 65.529z"/></svg>