<svg width="125px" height="35px" id="Layer_1" data-name="Layer 1" xmlns="http://www.w3.org/2000/svg" xmlns:xlink="http://www.w3.org/1999/xlink" viewBox="0 0 687.97 195.33"><defs><style>.cls-1{fill:none;}.cls-2{fill:#791915;}.cls-3{fill:#a31d21;}.cls-4{fill:#b72325;}.cls-5{fill:#de2a26;}.cls-6{fill:#64170c;}.cls-7{clip-path:url(#clip-path);}.cls-8{fill:#ee2f24;}.cls-9{fill:#8f1b1c;}</style><clipPath id="clip-path"><rect class="cls-1" x="0.67" y="13.05" width="38.2" height="134.7"/></clipPath></defs><title>14</title><polygon id="_14" data-name="14" class="cls-2" points="77.42 89.88 84.92 89.13 81.17 193.88 78.92 192.25 77.42 90.38 77.42 89.88"/><polygon class="cls-2" points="38.89 13.03 38.86 13.04 38.84 13.08 38.82 13.15 38.89 13.2 38.89 13.03"/><path class="cls-2" d="M38.91,13.19l-.15.46s-4.44,13.53-4.44,13.4-8.65,20.39-8.65,20.39L14.33,69,10,70.67,25.33,33.1,38,14.31l.51-.76.32-.34Z"/><polygon class="cls-3" points="25.75 81.42 100.5 42.83 79.8 3.37 38.81 13.14 24.83 81.92 25.75 81.42"/><polygon class="cls-2" points="80.71 89.56 80.6 194.9 46.7 165.63 25.5 80.17 25.76 80.12 64.92 86.31 80.71 89.56"/><polygon class="cls-4" points="160.96 23.32 153.96 37.85 162.14 58.27 164.62 64.56 164.6 64.15 160.96 23.32"/><polygon class="cls-5" points="120.4 3.35 121.48 86.44 141.23 65.94 161.1 23.94 120.4 3.35"/><polygon class="cls-6" points="13.19 147.38 26.21 78.81 47.31 166.41 13.19 147.38"/><polygon class="cls-2" points="80.55 194.87 121.62 83.02 122.01 82.53 141.53 161.8 141.25 162.29 80.55 194.87"/><polyline id="_5" data-name="5" class="cls-6" points="26.08 80.3 24.84 86.72 23.48 93.79 13.22 147.46 13.21 147.53 13.26 147.74 13.3 147.66 13.63 146.2 21.29 108.13 26.1 80.39 26.08 80.29"/><g class="cls-7"><g class="cls-7"><polygon class="cls-2" points="38.87 13.05 13.26 147.75 0.67 93 38.87 13.05"/></g></g><polygon id="_1" data-name="1" class="cls-4" points="99.62 42.55 100.45 42.09 107.89 56.49 107.62 57 107.21 57.36 99.62 42.55"/><polygon id="_12" data-name="12" class="cls-4" points="120.29 3.58 101.83 15.17 121.29 25.79 120.71 3.92 120.29 3.58"/><polygon class="cls-8" points="120.82 24.61 121.95 83.7 100.18 42.97 79.75 3.33 120.82 24.61"/><polygon class="cls-4" points="120.41 3.33 120.82 24.61 102.11 14.94 120.41 3.33"/><polygon class="cls-5" points="141.26 64.92 121.95 83.7 120.41 3.33 161.08 23.35 141.26 64.92"/><polygon id="_2" data-name="2" class="cls-4" points="141.47 64.76 141.19 64.99 180.4 104.79 180.44 104.69 141.47 64.76"/><polygon class="cls-9" points="107.59 56.84 121.95 83.7 80.59 194.93 80.58 89.5 107.59 56.84"/><polygon class="cls-6" points="26.07 80.39 47.22 166.46 13.26 147.75 26.07 80.39"/><polygon id="_3" data-name="3" class="cls-9" points="80.6 90.13 80.6 88.81 107.65 56.88 121.99 83.68 121.95 83.85 80.6 90.13"/><polygon class="cls-4" points="26.07 80.39 99.89 42.41 107.65 56.94 80.59 89.67 26.07 80.39"/><polygon id="_13" data-name="13" class="cls-4" points="141.57 64.38 180.36 104.49 180.44 104.69 180.35 104.77 140.5 66.5 141.08 65.1 141.57 64.38"/><polygon id="_9" data-name="9" class="cls-8" points="180.45 104.71 154.19 37.79 141.26 64.92 180.45 104.71"/><polygon id="_10" data-name="10" class="cls-4" points="141.26 64.92 141.19 64.99 140.64 65.53 121.95 83.7 141.26 162.33 180.45 104.71 141.26 64.92"/><polygon id="_11" data-name="11" class="cls-2" points="80.59 194.93 141.26 162.33 121.95 83.7 80.59 194.93"/><polygon class="cls-4" points="161.08 23.35 164.63 64.4 154.19 37.79 161.08 23.35"/><polygon class="cls-9" points="8.49 78.39 0.67 38.89 38.88 13.03 8.49 78.39"/><polygon class="cls-2" points="26.07 80.39 80.59 89.67 80.59 194.93 47.22 166.46 26.07 80.39"/><polygon class="cls-3" points="79.75 3.33 38.88 13.03 26.07 80.39 99.89 42.42 79.75 3.33"/><path class="cls-2" d="M262.09,159.94h-9.66V118.35A16.25,16.25,0,0,0,236.09,102h-11.7v57.94h-9.65V34.6h21.35a26.07,26.07,0,0,1,26,26V76a26.19,26.19,0,0,1-11,21.17,26.44,26.44,0,0,1,11,21.17Zm-26-67.59A16.24,16.24,0,0,0,252.43,76V60.59a16.24,16.24,0,0,0-16.34-16.34h-11.7v48.1Z"/><path class="cls-2" d="M288.27,44.25v48.1h22.47v9.84H288.27v48.1h32v9.65h-41.6V34.6h40.11v9.65Z"/><path class="cls-2" d="M381.68,133.94a26.08,26.08,0,0,1-26,26H333.4V34.6h22.28a26.07,26.07,0,0,1,26,26ZM372,60.59a16.25,16.25,0,0,0-16.35-16.34H343.06v106h12.62A16.26,16.26,0,0,0,372,133.94Z"/><path class="cls-2" d="M401.55,80.83A26.82,26.82,0,0,1,396,65.24V56.88a24.14,24.14,0,1,1,48.28,0v15.6l-9.65,1.11V56.88a14.49,14.49,0,0,0-29,0v8.36A15.62,15.62,0,0,0,409,74.52l29.53,35.1s5.75,6.87,5.75,16v12.07a24.14,24.14,0,1,1-48.28,0V119.28l9.66-1.12v19.5a14.49,14.49,0,0,0,29,0V125.59a16.92,16.92,0,0,0-3.53-9.66Z"/><path class="cls-2" d="M498.67,44.25H481.4V159.94h-9.84V44.25H454.1V34.6h44.57Z"/><path class="cls-2" d="M510.56,56.88a24.14,24.14,0,1,1,48.28,0v80.78a24.14,24.14,0,1,1-48.28,0Zm9.65,80.78a14.49,14.49,0,0,0,29,0V56.88a14.49,14.49,0,0,0-29,0Z"/><path class="cls-2" d="M576.48,34.6h11.7l29.52,95.07h.37V34.6h9.66V159.94h-9.66L586.51,59.67h-.38V159.94h-9.65Z"/><path class="cls-2" d="M656,44.25v48.1h22.47v9.84H656v48.1H687.9v9.65H646.3V34.6h40.11v9.65Z"/></svg>