<svg width="97" height="97" viewBox="0 0 97 97" fill="none" xmlns="http://www.w3.org/2000/svg">
<g clip-path="url(#clip0)">
<path d="M95.56 35.0623C94.2791 33.4553 92.3575 32.5335 90.2875 32.5335H71.6067L64.4768 9.33814C63.8488 7.9 62.1736 7.24279 60.7353 7.8712C59.297 8.49924 58.6401 10.1746 59.2683 11.6129L65.4047 32.5336H31.5953L37.7317 11.6129C38.3597 10.1746 37.7031 8.49943 36.2647 7.8712C34.8266 7.24279 33.1513 7.89962 32.5232 9.33814L25.3934 32.5336H6.71253C4.64256 32.5336 2.72094 33.4553 1.44005 35.0625C0.182645 36.6402 -0.281326 38.6685 0.16711 40.6278L10.1431 84.202C10.8398 87.2447 13.5313 89.3696 16.6886 89.3696H80.3115C83.4687 89.3696 86.1603 87.2447 86.8569 84.202L96.8329 40.6276C97.2814 38.6683 96.8174 36.64 95.56 35.0623ZM80.3115 83.6858H16.6886C16.206 83.6858 15.7834 83.3694 15.6835 82.9333L5.70748 39.3594C5.62923 39.0175 5.76052 38.7602 5.8848 38.6047C5.99999 38.4599 6.26087 38.2172 6.71253 38.2172H22.9113L22.167 39.9217C21.5389 41.3601 22.1956 43.0352 23.6339 43.6634C24.0041 43.8252 24.3898 43.9018 24.7697 43.9018C25.8651 43.9018 26.909 43.2646 27.3754 42.1967L29.1133 38.2176H67.8871L69.625 42.1967C70.0914 43.2648 71.1353 43.9018 72.2307 43.9018C72.6104 43.9018 72.9963 43.8252 73.3665 43.6634C74.8048 43.0354 75.4617 41.3601 74.8334 39.9217L74.0891 38.2172H90.2879C90.7395 38.2172 91.0004 38.4599 91.1156 38.6047C91.2397 38.7604 91.3712 39.0177 91.2929 39.3593L81.3169 82.9335C81.2169 83.3694 80.794 83.6858 80.3115 83.6858Z" fill="#fff"/>
</g>
<defs>
<clipPath id="clip0">
<rect width="97" height="97" fill="white"/>
</clipPath>
</defs>
</svg>
