<svg width="52" height="17" viewBox="0 0 52 17" fill="none" xmlns="http://www.w3.org/2000/svg">
<path d="M21.2552 0L18.6454 16.4172H22.8168L25.4249 0H21.2552ZM33.8376 6.68746C32.3799 5.95976 31.4862 5.46862 31.4862 4.72435C31.5041 4.04764 32.2419 3.35436 33.8896 3.35436C35.2449 3.31995 36.241 3.64191 36.9966 3.96224L37.3752 4.13304L37.9423 0.698149C37.1184 0.37619 35.812 0.0214392 34.1983 0.0214392C30.079 0.0214392 27.1783 2.18651 27.1603 5.28305C27.1263 7.56811 29.237 8.83613 30.8166 9.5968C32.4303 10.3771 32.9796 10.883 32.9796 11.5763C32.9618 12.6407 31.6748 13.1319 30.4739 13.1319C28.81 13.1319 27.9162 12.8789 26.5594 12.2858L26.0101 12.0328L25.4267 15.6025C26.4066 16.0428 28.2087 16.4304 30.0791 16.4502C34.4569 16.4502 37.3055 14.3179 37.3413 11.0178C37.3556 9.20746 36.2426 7.82089 33.8376 6.68746ZM48.6364 0.0508068H45.4091C44.4146 0.0508068 43.6589 0.339976 43.2283 1.37162L37.0321 16.4172H41.4099L42.6156 13.1598H47.5134L48.139 16.4304H52.0001L48.6364 0.0508068ZM43.8297 9.87246C43.9141 9.88075 45.51 4.55499 45.51 4.55499L46.7807 9.87246C46.7807 9.87246 44.6536 9.87246 43.8297 9.87246ZM15.1598 0L11.0729 11.154L10.6277 8.95432C9.87204 6.4163 7.50287 3.6583 4.85889 2.28831L8.60128 16.4008H13.0149L19.5734 0.00180069H15.1598V0Z" fill="#2394BC"/>
<path d="M9.25279 2.11702C8.9343 0.865212 7.91859 0.0209464 6.53912 0.00292969H0.0666566L0 0.306692C5.04897 1.56498 9.28683 5.43678 10.6617 9.07869L9.25279 2.11702Z" fill="#EFC75E"/>
</svg>
