<svg width="50" height="50" viewBox="0 0 50 50" fill="none" xmlns="http://www.w3.org/2000/svg">
<path d="M10.625 34.3963C10.7291 37.6965 12.7185 44.2969 19.8436 44.2969M19.8436 48.4375C12.6165 48.4375 6.0382 43.1063 6.25522 34.3963C6.3787 29.4406 13.8928 15.8248 17.7477 8.34119C19.0198 5.81827 19.1932 5.3125 19.8438 5.3125C20.4943 5.3125 20.6677 5.81827 21.9398 8.34119C25.7947 15.8248 33.3088 29.4406 33.4323 34.3963C33.6493 43.1063 27.0708 48.4375 19.8436 48.4375ZM37.5781 22.0312C34.1306 22.0312 30.9927 19.4622 31.0962 15.265C31.1551 12.8769 34.7394 6.31571 36.5783 2.70948C37.1851 1.49372 37.2678 1.25 37.5781 1.25C37.8884 1.25 37.9712 1.49372 38.578 2.70948C40.4168 6.31571 44.0011 12.8769 44.06 15.265C44.1635 19.4622 41.0255 22.0312 37.5781 22.0312Z" stroke="white" stroke-width="1.5" stroke-linecap="round" stroke-linejoin="round"/>
</svg>
