<svg width="52" height="50" viewBox="0 0 52 50" fill="none" xmlns="http://www.w3.org/2000/svg">
<path d="M28.588 35.8854C27.5735 36.5552 26.627 36.9595 25.7598 37.1688C26.1133 37.7248 27.1739 38.75 28.588 38.75C30.4257 38.75 31.1808 37.1099 31.3286 36.2898C30.2527 36.333 29.2631 36.1313 28.588 35.8854Z" fill="white"/>
<path d="M20.1917 35.4514C20.9578 36.4693 22.9403 37.8494 25.7598 37.1688M20.1917 35.4514C20.015 35.625 19.7506 36.3195 19.7502 37.1875M20.1917 35.4514C20.3684 35.2778 20.9003 34.5833 21.5182 34.5833M25.7598 37.1688C26.627 36.9595 27.5735 36.5552 28.588 35.8854C29.2631 36.1313 30.2527 36.333 31.3286 36.2898M25.7598 37.1688C26.1133 37.7248 27.1739 38.75 28.588 38.75C30.4257 38.75 31.1808 37.1099 31.3286 36.2898M36.4548 32.934C35.2512 35.4297 33.1644 36.2161 31.3286 36.2898M36.4548 32.934C36.278 32.5 35.3942 32.5289 34.9523 32.5M36.4548 32.934C36.72 33.1366 37.2502 33.6979 37.2502 34.3229" stroke="white" stroke-linecap="round" stroke-linejoin="round"/>
<path d="M20.5494 20.4615C20.5494 20.9896 20.1233 21.4178 19.5978 21.4178C19.0722 21.4178 18.6462 20.9896 18.6462 20.4615C18.6462 19.9333 19.0722 19.5051 19.5978 19.5051C20.1233 19.5051 20.5494 19.9333 20.5494 20.4615Z" fill="white"/>
<path d="M18.3008 21.6786C18.3008 22.2068 17.8747 22.635 17.3492 22.635C16.8236 22.635 16.3976 22.2068 16.3976 21.6786C16.3976 21.1505 16.8236 20.7223 17.3492 20.7223C17.8747 20.7223 18.3008 21.1505 18.3008 21.6786Z" fill="white"/>
<path d="M16.7428 23.5913C16.7428 24.1195 16.3168 24.5476 15.7912 24.5476C15.2657 24.5476 14.8396 24.1195 14.8396 23.5913C14.8396 23.0631 15.2657 22.6349 15.7912 22.6349C16.3168 22.6349 16.7428 23.0631 16.7428 23.5913Z" fill="white"/>
<path d="M15.3595 25.8517C15.3595 26.3799 14.9335 26.8081 14.4079 26.8081C13.8824 26.8081 13.4563 26.3799 13.4563 25.8517C13.4563 25.3236 13.8824 24.8954 14.4079 24.8954C14.9335 24.8954 15.3595 25.3236 15.3595 25.8517Z" fill="white"/>
<path d="M14.6669 28.2861C14.6669 28.8142 14.2409 29.2424 13.7153 29.2424C13.1898 29.2424 12.7637 28.8142 12.7637 28.2861C12.7637 27.7579 13.1898 27.3297 13.7153 27.3297C14.2409 27.3297 14.6669 27.7579 14.6669 28.2861Z" fill="white"/>
<path d="M15.0122 30.8943C15.0122 31.4225 14.5862 31.8506 14.0606 31.8506C13.5351 31.8506 13.1091 31.4225 13.1091 30.8943C13.1091 30.3661 13.5351 29.938 14.0606 29.938C14.5862 29.938 15.0122 30.3661 15.0122 30.8943Z" fill="white"/>
<path d="M17.4355 31.5898C17.4355 32.118 17.0094 32.5461 16.4839 32.5461C15.9583 32.5461 15.5323 32.118 15.5323 31.5898C15.5323 31.0616 15.9583 30.6334 16.4839 30.6334C17.0094 30.6334 17.4355 31.0616 17.4355 31.5898Z" fill="white"/>
<path d="M19.8567 30.7204C19.8567 31.2486 19.4307 31.6768 18.9051 31.6768C18.3796 31.6768 17.9535 31.2486 17.9535 30.7204C17.9535 30.1922 18.3796 29.7641 18.9051 29.7641C19.4307 29.7641 19.8567 30.1922 19.8567 30.7204Z" fill="white"/>
<path d="M21.9326 29.3293C21.9326 29.8575 21.5066 30.2857 20.9811 30.2857C20.4555 30.2857 20.0295 29.8575 20.0295 29.3293C20.0295 28.8012 20.4555 28.373 20.9811 28.373C21.5066 28.373 21.9326 28.8012 21.9326 29.3293Z" fill="white"/>
<path d="M23.6632 27.2428C23.6632 27.771 23.2372 28.1991 22.7117 28.1991C22.1861 28.1991 21.7601 27.771 21.7601 27.2428C21.7601 26.7146 22.1861 26.2865 22.7117 26.2865C23.2372 26.2865 23.6632 26.7146 23.6632 27.2428Z" fill="white"/>
<path d="M24.7012 24.9824C24.7012 25.5105 24.2752 25.9387 23.7496 25.9387C23.2241 25.9387 22.798 25.5105 22.798 24.9824C22.798 24.4542 23.2241 24.026 23.7496 24.026C24.2752 24.026 24.7012 24.4542 24.7012 24.9824Z" fill="white"/>
<path d="M24.3559 22.7219C24.3559 23.2501 23.9298 23.6783 23.4043 23.6783C22.8787 23.6783 22.4527 23.2501 22.4527 22.7219C22.4527 22.1937 22.8787 21.7656 23.4043 21.7656C23.9298 21.7656 24.3559 22.1937 24.3559 22.7219Z" fill="white"/>
<path d="M22.9726 20.8093C22.9726 21.3374 22.5465 21.7656 22.021 21.7656C21.4954 21.7656 21.0694 21.3374 21.0694 20.8093C21.0694 20.2811 21.4954 19.8529 22.021 19.8529C22.5465 19.8529 22.9726 20.2811 22.9726 20.8093Z" fill="white"/>
<path d="M21.4151 25.0692C21.4151 25.9335 20.718 26.6342 19.858 26.6342C18.998 26.6342 18.3008 25.9335 18.3008 25.0692C18.3008 24.205 18.998 23.5043 19.858 23.5043C20.718 23.5043 21.4151 24.205 21.4151 25.0692Z" fill="white"/>
<path d="M33.3536 18.7228C33.3536 19.251 33.7796 19.6791 34.3052 19.6791C34.8307 19.6791 35.2568 19.251 35.2568 18.7228C35.2568 18.1946 34.8307 17.7665 34.3052 17.7665C33.7796 17.7665 33.3536 18.1946 33.3536 18.7228Z" fill="white"/>
<path d="M35.6022 19.9398C35.6022 20.468 36.0282 20.8962 36.5538 20.8962C37.0793 20.8962 37.5054 20.468 37.5054 19.9398C37.5054 19.4117 37.0793 18.9835 36.5538 18.9835C36.0282 18.9835 35.6022 19.4117 35.6022 19.9398Z" fill="white"/>
<path d="M37.3328 21.6787C37.3328 22.2069 37.7588 22.6351 38.2844 22.6351C38.8099 22.6351 39.236 22.2069 39.236 21.6787C39.236 21.1505 38.8099 20.7224 38.2844 20.7224C37.7588 20.7224 37.3328 21.1505 37.3328 21.6787Z" fill="white"/>
<path d="M38.718 23.9392C38.718 24.4673 39.1441 24.8955 39.6696 24.8955C40.1952 24.8955 40.6212 24.4673 40.6212 23.9392C40.6212 23.411 40.1952 22.9828 39.6696 22.9828C39.1441 22.9828 38.718 23.411 38.718 23.9392Z" fill="white"/>
<path d="M39.0634 26.3735C39.0634 26.9017 39.4894 27.3298 40.015 27.3298C40.5405 27.3298 40.9665 26.9017 40.9665 26.3735C40.9665 25.8453 40.5405 25.4172 40.015 25.4172C39.4894 25.4172 39.0634 25.8453 39.0634 26.3735Z" fill="white"/>
<path d="M37.3328 28.1122C37.3328 28.6404 37.7588 29.0686 38.2844 29.0686C38.8099 29.0686 39.236 28.6404 39.236 28.1122C39.236 27.5841 38.8099 27.1559 38.2844 27.1559C37.7588 27.1559 37.3328 27.5841 37.3328 28.1122Z" fill="white"/>
<path d="M34.9115 27.9383C34.9115 28.4665 35.3375 28.8947 35.8631 28.8947C36.3886 28.8947 36.8147 28.4665 36.8147 27.9383C36.8147 27.4102 36.3886 26.982 35.8631 26.982C35.3375 26.982 34.9115 27.4102 34.9115 27.9383Z" fill="white"/>
<path d="M32.4883 27.069C32.4883 27.5971 32.9143 28.0253 33.4399 28.0253C33.9654 28.0253 34.3915 27.5971 34.3915 27.069C34.3915 26.5408 33.9654 26.1126 33.4399 26.1126C32.9143 26.1126 32.4883 26.5408 32.4883 27.069Z" fill="white"/>
<path d="M30.2397 25.8518C30.2397 26.38 30.6657 26.8081 31.1913 26.8081C31.7168 26.8081 32.1429 26.38 32.1429 25.8518C32.1429 25.3236 31.7168 24.8955 31.1913 24.8955C30.6657 24.8955 30.2397 25.3236 30.2397 25.8518Z" fill="white"/>
<path d="M28.5091 23.9392C28.5091 24.4673 28.9351 24.8955 29.4607 24.8955C29.9862 24.8955 30.4123 24.4673 30.4123 23.9392C30.4123 23.411 29.9862 22.9828 29.4607 22.9828C28.9351 22.9828 28.5091 23.411 28.5091 23.9392Z" fill="white"/>
<path d="M27.8165 21.5048C27.8165 22.033 28.2425 22.4612 28.768 22.4612C29.2936 22.4612 29.7196 22.033 29.7196 21.5048C29.7196 20.9766 29.2936 20.5485 28.768 20.5485C28.2425 20.5485 27.8165 20.9766 27.8165 21.5048Z" fill="white"/>
<path d="M28.8564 19.2444C28.8564 19.7725 29.2824 20.2007 29.808 20.2007C30.3335 20.2007 30.7596 19.7725 30.7596 19.2444C30.7596 18.7162 30.3335 18.288 29.808 18.288C29.2824 18.288 28.8564 18.7162 28.8564 19.2444Z" fill="white"/>
<path d="M30.9323 18.2011C30.9323 18.7293 31.3584 19.1574 31.8839 19.1574C32.4095 19.1574 32.8355 18.7293 32.8355 18.2011C32.8355 17.6729 32.4095 17.2448 31.8839 17.2448C31.3584 17.2448 30.9323 17.6729 30.9323 18.2011Z" fill="white"/>
<path d="M31.2772 22.8089C31.2772 23.6731 31.9743 24.3738 32.8343 24.3738C33.6943 24.3738 34.3915 23.6731 34.3915 22.8089C34.3915 21.9446 33.6943 21.2439 32.8343 21.2439C31.9743 21.2439 31.2772 21.9446 31.2772 22.8089Z" fill="white"/>
<path d="M10.5165 11.0721C10.5165 11.6003 10.0904 12.0285 9.56488 12.0285C9.03934 12.0285 8.6133 11.6003 8.6133 11.0721C8.6133 10.544 9.03934 10.1158 9.56488 10.1158C10.0904 10.1158 10.5165 10.544 10.5165 11.0721Z" fill="white"/>
<path d="M12.5924 8.8117C12.5924 9.33987 12.1664 9.76804 11.6408 9.76804C11.1153 9.76804 10.6892 9.33987 10.6892 8.8117C10.6892 8.28353 11.1153 7.85536 11.6408 7.85536C12.1664 7.85536 12.5924 8.28353 12.5924 8.8117Z" fill="white"/>
<path d="M12.5924 12.637C12.5924 13.1652 12.1664 13.5933 11.6408 13.5933C11.1153 13.5933 10.6892 13.1652 10.6892 12.637C10.6892 12.1088 11.1153 11.6806 11.6408 11.6806C12.1664 11.6806 12.5924 12.1088 12.5924 12.637Z" fill="white"/>
<path d="M14.323 10.5504C14.323 11.0786 13.897 11.5068 13.3714 11.5068C12.8459 11.5068 12.4198 11.0786 12.4198 10.5504C12.4198 10.0223 12.8459 9.59411 13.3714 9.59411C13.897 9.59411 14.323 10.0223 14.323 10.5504Z" fill="white"/>
<path d="M13.803 15.0713C13.803 15.5995 13.377 16.0277 12.8514 16.0277C12.3259 16.0277 11.8999 15.5995 11.8999 15.0713C11.8999 14.5432 12.3259 14.115 12.8514 14.115C13.377 14.115 13.803 14.5432 13.803 15.0713Z" fill="white"/>
<path d="M13.4577 17.6796C13.4577 18.2077 13.0317 18.6359 12.5061 18.6359C11.9806 18.6359 11.5545 18.2077 11.5545 17.6796C11.5545 17.1514 11.9806 16.7232 12.5061 16.7232C13.0317 16.7232 13.4577 17.1514 13.4577 17.6796Z" fill="white"/>
<path d="M12.0724 19.94C12.0724 20.4682 11.6464 20.8963 11.1208 20.8963C10.5953 20.8963 10.1693 20.4682 10.1693 19.94C10.1693 19.4118 10.5953 18.9837 11.1208 18.9837C11.6464 18.9837 12.0724 19.4118 12.0724 19.94Z" fill="white"/>
<path d="M9.99651 21.8527C9.99651 22.3808 9.57047 22.809 9.04492 22.809C8.51937 22.809 8.09333 22.3808 8.09333 21.8527C8.09333 21.3245 8.51937 20.8963 9.04492 20.8963C9.57047 20.8963 9.99651 21.3245 9.99651 21.8527Z" fill="white"/>
<path d="M7.40258 21.6788C7.40258 22.2069 6.97654 22.6351 6.45099 22.6351C5.92544 22.6351 5.4994 22.2069 5.4994 21.6788C5.4994 21.1506 5.92544 20.7224 6.45099 20.7224C6.97654 20.7224 7.40258 21.1506 7.40258 21.6788Z" fill="white"/>
<path d="M6.18998 19.4183C6.18998 19.9465 5.76394 20.3747 5.23839 20.3747C4.71285 20.3747 4.28681 19.9465 4.28681 19.4183C4.28681 18.8901 4.71285 18.462 5.23839 18.462C5.76394 18.462 6.18998 18.8901 6.18998 19.4183Z" fill="white"/>
<path d="M4.28672 11.9415C4.28672 12.4697 3.86068 12.8979 3.33513 12.8979C2.80958 12.8979 2.38354 12.4697 2.38354 11.9415C2.38354 11.4133 2.80958 10.9852 3.33513 10.9852C3.86068 10.9852 4.28672 11.4133 4.28672 11.9415Z" fill="white"/>
<path d="M3.42338 14.3759C3.42338 14.904 2.99734 15.3322 2.4718 15.3322C1.94625 15.3322 1.52021 14.904 1.52021 14.3759C1.52021 13.8477 1.94625 13.4195 2.4718 13.4195C2.99734 13.4195 3.42338 13.8477 3.42338 14.3759Z" fill="white"/>
<path d="M2.90342 16.8101C2.90342 17.3382 2.47738 17.7664 1.95183 17.7664C1.42628 17.7664 1.00024 17.3382 1.00024 16.8101C1.00024 16.2819 1.42628 15.8537 1.95183 15.8537C2.47738 15.8537 2.90342 16.2819 2.90342 16.8101Z" fill="white"/>
<path d="M3.07609 19.4183C3.07609 19.9465 2.65005 20.3747 2.1245 20.3747C1.59895 20.3747 1.17291 19.9465 1.17291 19.4183C1.17291 18.8901 1.59895 18.462 2.1245 18.462C2.65005 18.462 3.07609 18.8901 3.07609 19.4183Z" fill="white"/>
<path d="M3.76872 21.6788C3.76872 22.2069 3.34268 22.6351 2.81713 22.6351C2.29158 22.6351 1.86554 22.2069 1.86554 21.6788C1.86554 21.1506 2.29158 20.7224 2.81713 20.7224C3.34268 20.7224 3.76872 21.1506 3.76872 21.6788Z" fill="white"/>
<path d="M5.49931 23.7653C5.49931 24.2935 5.07327 24.7216 4.54773 24.7216C4.02218 24.7216 3.59614 24.2935 3.59614 23.7653C3.59614 23.2371 4.02218 22.809 4.54773 22.809C5.07327 22.809 5.49931 23.2371 5.49931 23.7653Z" fill="white"/>
<path d="M7.74791 24.8086C7.74791 25.3367 7.32187 25.7649 6.79632 25.7649C6.27077 25.7649 5.84473 25.3367 5.84473 24.8086C5.84473 24.2804 6.27077 23.8522 6.79632 23.8522C7.32187 23.8522 7.74791 24.2804 7.74791 24.8086Z" fill="white"/>
<path d="M6.01731 16.6363C6.01731 17.1645 5.59127 17.5926 5.06573 17.5926C4.54018 17.5926 4.11414 17.1645 4.11414 16.6363C4.11414 16.1081 4.54018 15.68 5.06573 15.68C5.59127 15.68 6.01731 16.1081 6.01731 16.6363Z" fill="white"/>
<path d="M5.67198 9.68107C5.67198 10.2092 5.24594 10.6374 4.72039 10.6374C4.19484 10.6374 3.7688 10.2092 3.7688 9.68107C3.7688 9.1529 4.19484 8.72473 4.72039 8.72473C5.24594 8.72473 5.67198 9.1529 5.67198 9.68107Z" fill="white"/>
<path d="M6.53728 14.0281C6.53728 14.5562 6.11124 14.9844 5.58569 14.9844C5.06014 14.9844 4.6341 14.5562 4.6341 14.0281C4.6341 13.4999 5.06014 13.0717 5.58569 13.0717C6.11124 13.0717 6.53728 13.4999 6.53728 14.0281Z" fill="white"/>
<path d="M7.92058 8.29C7.92058 8.81818 7.49454 9.24634 6.96899 9.24634C6.44344 9.24634 6.0174 8.81818 6.0174 8.29C6.0174 7.76183 6.44344 7.33367 6.96899 7.33367C7.49454 7.33367 7.92058 7.76183 7.92058 8.29Z" fill="white"/>
<path d="M7.92058 11.7676C7.92058 12.2958 7.49454 12.724 6.96899 12.724C6.44344 12.724 6.0174 12.2958 6.0174 11.7676C6.0174 11.2394 6.44344 10.8113 6.96899 10.8113C7.49454 10.8113 7.92058 11.2394 7.92058 11.7676Z" fill="white"/>
<path d="M10.1711 7.94221C10.1711 8.47038 9.7451 8.89855 9.21955 8.89855C8.694 8.89855 8.26796 8.47038 8.26796 7.94221C8.26796 7.41403 8.694 6.98587 9.21955 6.98587C9.7451 6.98587 10.1711 7.41403 10.1711 7.94221Z" fill="white"/>
<path d="M36.7577 6.09067C37.0205 6.54808 37.6024 6.7048 38.0576 6.44072C38.5127 6.17663 38.6687 5.59174 38.4059 5.13434C38.1431 4.67692 37.5611 4.5202 37.106 4.78429C36.6508 5.04838 36.4949 5.63326 36.7577 6.09067Z" fill="white"/>
<path d="M33.8302 5.11901C34.093 5.57642 34.6749 5.73314 35.1301 5.46905C35.5852 5.20497 35.7412 4.62008 35.4784 4.16267C35.2156 3.70526 34.6336 3.54854 34.1785 3.81262C33.7234 4.07671 33.5674 4.6616 33.8302 5.11901Z" fill="white"/>
<path d="M35.3881 8.24882C35.6509 8.70623 36.2329 8.86295 36.688 8.59887C37.1431 8.33478 37.2991 7.74989 37.0363 7.29248C36.7735 6.83507 36.1916 6.67835 35.7364 6.94244C35.2813 7.20652 35.1253 7.79141 35.3881 8.24882Z" fill="white"/>
<path d="M32.9649 7.37945C33.2277 7.83686 33.8096 7.99358 34.2648 7.72949C34.7199 7.46541 34.8759 6.88052 34.6131 6.42311C34.3503 5.9657 33.7683 5.80898 33.3132 6.07307C32.8581 6.33715 32.7021 6.92204 32.9649 7.37945Z" fill="white"/>
<path d="M35.2155 11.0308C35.4782 11.4882 36.0602 11.645 36.5153 11.3809C36.9705 11.1168 37.1264 10.5319 36.8636 10.0745C36.6009 9.61709 36.0189 9.46037 35.5638 9.72445C35.1086 9.98854 34.9527 10.5734 35.2155 11.0308Z" fill="white"/>
<path d="M36.5987 13.2913C36.8615 13.7487 37.4435 13.9054 37.8986 13.6413C38.3538 13.3772 38.5097 12.7923 38.2469 12.3349C37.9842 11.8775 37.4022 11.7208 36.9471 11.9849C36.4919 12.249 36.336 12.8339 36.5987 13.2913Z" fill="white"/>
<path d="M38.6747 15.0301C38.9375 15.4876 39.5194 15.6443 39.9746 15.3802C40.4297 15.1161 40.5857 14.5312 40.3229 14.0738C40.0601 13.6164 39.4781 13.4597 39.023 13.7238C38.5678 13.9878 38.4119 14.5727 38.6747 15.0301Z" fill="white"/>
<path d="M41.2706 15.8995C41.5333 16.3569 42.1153 16.5136 42.5705 16.2496C43.0256 15.9855 43.1815 15.4006 42.9188 14.9432C42.656 14.4858 42.074 14.329 41.6189 14.5931C41.1637 14.8572 41.0078 15.4421 41.2706 15.8995Z" fill="white"/>
<path d="M43.5192 14.8562C43.7819 15.3137 44.3639 15.4704 44.8191 15.2063C45.2742 14.9422 45.4301 14.3573 45.1674 13.8999C44.9046 13.4425 44.3226 13.2858 43.8675 13.5499C43.4123 13.8139 43.2564 14.3988 43.5192 14.8562Z" fill="white"/>
<path d="M43.8665 12.248C44.1292 12.7054 44.7112 12.8621 45.1664 12.5981C45.6215 12.334 45.7774 11.7491 45.5147 11.2917C45.2519 10.8343 44.6699 10.6775 44.2148 10.9416C43.7596 11.2057 43.6037 11.7906 43.8665 12.248Z" fill="white"/>
<path d="M40.7526 3.38014C41.0153 3.83755 41.5973 3.99427 42.0525 3.73019C42.5076 3.4661 42.6635 2.88121 42.4008 2.4238C42.138 1.96639 41.556 1.80967 41.1009 2.07376C40.6457 2.33784 40.4898 2.92273 40.7526 3.38014Z" fill="white"/>
<path d="M42.6558 4.77121C42.9186 5.22862 43.5006 5.38534 43.9557 5.12125C44.4109 4.85717 44.5668 4.27228 44.304 3.81487C44.0413 3.35746 43.4593 3.20074 43.0041 3.46483C42.549 3.72891 42.3931 4.3138 42.6558 4.77121Z" fill="white"/>
<path d="M44.3845 6.68385C44.6472 7.14126 45.2292 7.29798 45.6844 7.0339C46.1395 6.76981 46.2954 6.18492 46.0327 5.72751C45.7699 5.2701 45.1879 5.11338 44.7328 5.37747C44.2776 5.64156 44.1217 6.22644 44.3845 6.68385Z" fill="white"/>
<path d="M45.7697 8.94429C46.0325 9.4017 46.6145 9.55842 47.0696 9.29434C47.5248 9.03025 47.6807 8.44537 47.4179 7.98796C47.1552 7.53055 46.5732 7.37382 46.118 7.63791C45.6629 7.902 45.507 8.48688 45.7697 8.94429Z" fill="white"/>
<path d="M46.6331 11.3786C46.8958 11.836 47.4778 11.9928 47.933 11.7287C48.3881 11.4646 48.544 10.8797 48.2813 10.4223C48.0185 9.96489 47.4365 9.80816 46.9814 10.0723C46.5262 10.3363 46.3703 10.9212 46.6331 11.3786Z" fill="white"/>
<path d="M46.8077 13.9869C47.0705 14.4443 47.6524 14.601 48.1076 14.3369C48.5627 14.0728 48.7187 13.4879 48.4559 13.0305C48.1931 12.5731 47.6111 12.4164 47.156 12.6805C46.7009 12.9446 46.5449 13.5295 46.8077 13.9869Z" fill="white"/>
<path d="M45.9424 16.2473C46.2052 16.7047 46.7872 16.8614 47.2423 16.5974C47.6974 16.3333 47.8534 15.7484 47.5906 15.291C47.3278 14.8336 46.7458 14.6768 46.2907 14.9409C45.8356 15.205 45.6796 15.7899 45.9424 16.2473Z" fill="white"/>
<path d="M43.0012 9.63989C43.2639 10.0973 43.8459 10.254 44.3011 9.98994C44.7562 9.72585 44.9121 9.14096 44.6494 8.68355C44.3866 8.22614 43.8046 8.06942 43.3495 8.33351C42.8943 8.59759 42.7384 9.18248 43.0012 9.63989Z" fill="white"/>
<path d="M44.2118 18.16C44.4746 18.6174 45.0566 18.7741 45.5117 18.51C45.9668 18.2459 46.1228 17.661 45.86 17.2036C45.5972 16.7462 45.0152 16.5895 44.5601 16.8536C44.105 17.1177 43.949 17.7026 44.2118 18.16Z" fill="white"/>
<path d="M41.6159 7.37945C41.8787 7.83686 42.4607 7.99358 42.9158 7.72949C43.3709 7.46541 43.5269 6.88052 43.2641 6.42311C43.0013 5.9657 42.4193 5.80898 41.9642 6.07307C41.5091 6.33715 41.3531 6.92204 41.6159 7.37945Z" fill="white"/>
<path d="M38.1567 2.68467C38.4194 3.14208 39.0014 3.2988 39.4566 3.03471C39.9117 2.77063 40.0676 2.18574 39.8049 1.72833C39.5421 1.27092 38.9601 1.1142 38.505 1.37828C38.0498 1.64237 37.8939 2.22726 38.1567 2.68467Z" fill="white"/>
<path d="M39.54 5.81448C39.8027 6.27189 40.3847 6.42861 40.8399 6.16453C41.295 5.90044 41.4509 5.31555 41.1882 4.85814C40.9254 4.40073 40.3434 4.24401 39.8883 4.5081C39.4331 4.77218 39.2772 5.35707 39.54 5.81448Z" fill="white"/>
<path d="M35.7334 3.20624C35.9962 3.66365 36.5782 3.82037 37.0333 3.55629C37.4885 3.2922 37.6444 2.70731 37.3816 2.2499C37.1189 1.79249 36.5369 1.63577 36.0818 1.89986C35.6266 2.16394 35.4707 2.74883 35.7334 3.20624Z" fill="white"/>
<path d="M6.53649 27.5908C6.53649 28.1189 6.11045 28.5471 5.58491 28.5471C5.05936 28.5471 4.63332 28.1189 4.63332 27.5908C4.63332 27.0626 5.05936 26.6344 5.58491 26.6344C6.11045 26.6344 6.53649 27.0626 6.53649 27.5908Z" fill="white"/>
<path d="M6.01653 30.199C6.01653 30.7272 5.59049 31.1553 5.06494 31.1553C4.53939 31.1553 4.11335 30.7272 4.11335 30.199C4.11335 29.6708 4.53939 29.2427 5.06494 29.2427C5.59049 29.2427 6.01653 29.6708 6.01653 30.199Z" fill="white"/>
<path d="M6.01653 32.8072C6.01653 33.3354 5.59049 33.7636 5.06494 33.7636C4.53939 33.7636 4.11335 33.3354 4.11335 32.8072C4.11335 32.2791 4.53939 31.8509 5.06494 31.8509C5.59049 31.8509 6.01653 32.2791 6.01653 32.8072Z" fill="white"/>
<path d="M6.1892 35.4154C6.1892 35.9435 5.76316 36.3717 5.23761 36.3717C4.71206 36.3717 4.28602 35.9435 4.28602 35.4154C4.28602 34.8872 4.71206 34.459 5.23761 34.459C5.76316 34.459 6.1892 34.8872 6.1892 35.4154Z" fill="white"/>
<path d="M7.05449 37.8497C7.05449 38.3779 6.62845 38.806 6.10291 38.806C5.57736 38.806 5.15132 38.3779 5.15132 37.8497C5.15132 37.3215 5.57736 36.8934 6.10291 36.8934C6.62845 36.8934 7.05449 37.3215 7.05449 37.8497Z" fill="white"/>
<path d="M8.43779 40.1101C8.43779 40.6383 8.01175 41.0665 7.48621 41.0665C6.96066 41.0665 6.53462 40.6383 6.53462 40.1101C6.53462 39.582 6.96066 39.1538 7.48621 39.1538C8.01175 39.1538 8.43779 39.582 8.43779 40.1101Z" fill="white"/>
<path d="M10.1684 42.0228C10.1684 42.5509 9.74235 42.9791 9.2168 42.9791C8.69125 42.9791 8.26521 42.5509 8.26521 42.0228C8.26521 41.4946 8.69125 41.0664 9.2168 41.0664C9.74235 41.0664 10.1684 41.4946 10.1684 42.0228Z" fill="white"/>
<path d="M12.2443 43.5877C12.2443 44.1159 11.8183 44.5441 11.2927 44.5441C10.7672 44.5441 10.3411 44.1159 10.3411 43.5877C10.3411 43.0596 10.7672 42.6314 11.2927 42.6314C11.8183 42.6314 12.2443 43.0596 12.2443 43.5877Z" fill="white"/>
<path d="M14.6675 44.631C14.6675 45.1592 14.2415 45.5874 13.716 45.5874C13.1904 45.5874 12.7644 45.1592 12.7644 44.631C12.7644 44.1028 13.1904 43.6747 13.716 43.6747C14.2415 43.6747 14.6675 44.1028 14.6675 44.631Z" fill="white"/>
<path d="M17.0888 45.5004C17.0888 46.0286 16.6628 46.4567 16.1372 46.4567C15.6117 46.4567 15.1856 46.0286 15.1856 45.5004C15.1856 44.9722 15.6117 44.544 16.1372 44.544C16.6628 44.544 17.0888 44.9722 17.0888 45.5004Z" fill="white"/>
<path d="M19.6847 46.0221C19.6847 46.5503 19.2587 46.9784 18.7331 46.9784C18.2076 46.9784 17.7815 46.5503 17.7815 46.0221C17.7815 45.4939 18.2076 45.0657 18.7331 45.0657C19.2587 45.0657 19.6847 45.4939 19.6847 46.0221Z" fill="white"/>
<path d="M22.2806 46.3699C22.2806 46.8981 21.8546 47.3262 21.329 47.3262C20.8035 47.3262 20.3774 46.8981 20.3774 46.3699C20.3774 45.8417 20.8035 45.4135 21.329 45.4135C21.8546 45.4135 22.2806 45.8417 22.2806 46.3699Z" fill="white"/>
<path d="M24.8745 46.5437C24.8745 47.0718 24.4485 47.5 23.9229 47.5C23.3974 47.5 22.9714 47.0718 22.9714 46.5437C22.9714 46.0155 23.3974 45.5873 23.9229 45.5873C24.4485 45.5873 24.8745 46.0155 24.8745 46.5437Z" fill="white"/>
<path d="M27.4704 46.5437C27.4704 47.0718 27.0444 47.5 26.5188 47.5C25.9933 47.5 25.5672 47.0718 25.5672 46.5437C25.5672 46.0155 25.9933 45.5873 26.5188 45.5873C27.0444 45.5873 27.4704 46.0155 27.4704 46.5437Z" fill="white"/>
<path d="M30.0663 46.196C30.0663 46.7242 29.6403 47.1523 29.1147 47.1523C28.5892 47.1523 28.1631 46.7242 28.1631 46.196C28.1631 45.6678 28.5892 45.2396 29.1147 45.2396C29.6403 45.2396 30.0663 45.6678 30.0663 46.196Z" fill="white"/>
<path d="M32.6602 45.6743C32.6602 46.2025 32.2342 46.6306 31.7087 46.6306C31.1831 46.6306 30.7571 46.2025 30.7571 45.6743C30.7571 45.1461 31.1831 44.7179 31.7087 44.7179C32.2342 44.7179 32.6602 45.1461 32.6602 45.6743Z" fill="white"/>
<path d="M35.0835 44.9788C35.0835 45.507 34.6574 45.9352 34.1319 45.9352C33.6063 45.9352 33.1803 45.507 33.1803 44.9788C33.1803 44.4506 33.6063 44.0225 34.1319 44.0225C34.6574 44.0225 35.0835 44.4506 35.0835 44.9788Z" fill="white"/>
<path d="M37.5047 44.1094C37.5047 44.6376 37.0787 45.0658 36.5532 45.0658C36.0276 45.0658 35.6016 44.6376 35.6016 44.1094C35.6016 43.5813 36.0276 43.1531 36.5532 43.1531C37.0787 43.1531 37.5047 43.5813 37.5047 44.1094Z" fill="white"/>
<path d="M39.928 43.066C39.928 43.5942 39.5019 44.0224 38.9764 44.0224C38.4508 44.0224 38.0248 43.5942 38.0248 43.066C38.0248 42.5379 38.4508 42.1097 38.9764 42.1097C39.5019 42.1097 39.928 42.5379 39.928 43.066Z" fill="white"/>
<path d="M42.1766 41.849C42.1766 42.3772 41.7505 42.8053 41.225 42.8053C40.6994 42.8053 40.2734 42.3772 40.2734 41.849C40.2734 41.3208 40.6994 40.8927 41.225 40.8927C41.7505 40.8927 42.1766 41.3208 42.1766 41.849Z" fill="white"/>
<path d="M44.4252 40.4579C44.4252 40.9861 43.9991 41.4143 43.4736 41.4143C42.948 41.4143 42.522 40.9861 42.522 40.4579C42.522 39.9298 42.948 39.5016 43.4736 39.5016C43.9991 39.5016 44.4252 39.9298 44.4252 40.4579Z" fill="white"/>
<path d="M46.503 38.893C46.503 39.4211 46.077 39.8493 45.5515 39.8493C45.0259 39.8493 44.5999 39.4211 44.5999 38.893C44.5999 38.3648 45.0259 37.9366 45.5515 37.9366C46.077 37.9366 46.503 38.3648 46.503 38.893Z" fill="white"/>
<path d="M48.2317 36.9803C48.2317 37.5085 47.8056 37.9367 47.2801 37.9367C46.7546 37.9367 46.3285 37.5085 46.3285 36.9803C46.3285 36.4521 46.7546 36.024 47.2801 36.024C47.8056 36.024 48.2317 36.4521 48.2317 36.9803Z" fill="white"/>
<path d="M49.6169 34.7199C49.6169 35.2481 49.1909 35.6762 48.6654 35.6762C48.1398 35.6762 47.7138 35.2481 47.7138 34.7199C47.7138 34.1917 48.1398 33.7635 48.6654 33.7635C49.1909 33.7635 49.6169 34.1917 49.6169 34.7199Z" fill="white"/>
<path d="M50.6549 32.2855C50.6549 32.8137 50.2289 33.2419 49.7033 33.2419C49.1778 33.2419 48.7517 32.8137 48.7517 32.2855C48.7517 31.7574 49.1778 31.3292 49.7033 31.3292C50.2289 31.3292 50.6549 31.7574 50.6549 32.2855Z" fill="white"/>
<path d="M51.0002 29.6773C51.0002 30.2055 50.5742 30.6336 50.0487 30.6336C49.5231 30.6336 49.0971 30.2055 49.0971 29.6773C49.0971 29.1491 49.5231 28.721 50.0487 28.721C50.5742 28.721 51.0002 29.1491 51.0002 29.6773Z" fill="white"/>
<path d="M51.0002 27.0692C51.0002 27.5974 50.5742 28.0255 50.0487 28.0255C49.5231 28.0255 49.0971 27.5974 49.0971 27.0692C49.0971 26.541 49.5231 26.1128 50.0487 26.1128C50.5742 26.1128 51.0002 26.541 51.0002 27.0692Z" fill="white"/>
<path d="M50.3096 24.6348C50.3096 25.163 49.8835 25.5912 49.358 25.5912C48.8324 25.5912 48.4064 25.163 48.4064 24.6348C48.4064 24.1067 48.8324 23.6785 49.358 23.6785C49.8835 23.6785 50.3096 24.1067 50.3096 24.6348Z" fill="white"/>
<path d="M49.4443 22.2005C49.4443 22.7287 49.0182 23.1568 48.4927 23.1568C47.9671 23.1568 47.5411 22.7287 47.5411 22.2005C47.5411 21.6723 47.9671 21.2442 48.4927 21.2442C49.0182 21.2442 49.4443 21.6723 49.4443 22.2005Z" fill="white"/>
<path d="M48.059 19.7662C48.059 20.2943 47.633 20.7225 47.1074 20.7225C46.5819 20.7225 46.1558 20.2943 46.1558 19.7662C46.1558 19.238 46.5819 18.8098 47.1074 18.8098C47.633 18.8098 48.059 19.238 48.059 19.7662Z" fill="white"/>
<path d="M16.0508 8.81175C16.0508 9.33992 15.6248 9.76809 15.0993 9.76809C14.5737 9.76809 14.1477 9.33992 14.1477 8.81175C14.1477 8.28358 14.5737 7.85541 15.0993 7.85541C15.6248 7.85541 16.0508 8.28358 16.0508 8.81175Z" fill="white"/>
<path d="M17.9541 7.07301C17.9541 7.60118 17.5281 8.02935 17.0025 8.02935C16.477 8.02935 16.0509 7.60118 16.0509 7.07301C16.0509 6.54484 16.477 6.11667 17.0025 6.11667C17.5281 6.11667 17.9541 6.54484 17.9541 7.07301Z" fill="white"/>
<path d="M20.2047 5.85584C20.2047 6.38401 19.7786 6.81218 19.2531 6.81218C18.7275 6.81218 18.3015 6.38401 18.3015 5.85584C18.3015 5.32767 18.7275 4.8995 19.2531 4.8995C19.7786 4.8995 20.2047 5.32767 20.2047 5.85584Z" fill="white"/>
<path d="M22.6259 4.98647C22.6259 5.51464 22.1999 5.9428 21.6743 5.9428C21.1488 5.9428 20.7228 5.51464 20.7228 4.98647C20.7228 4.45829 21.1488 4.03013 21.6743 4.03013C22.1999 4.03013 22.6259 4.45829 22.6259 4.98647Z" fill="white"/>
<path d="M25.0492 4.63867C25.0492 5.16684 24.6231 5.59501 24.0976 5.59501C23.572 5.59501 23.146 5.16684 23.146 4.63867C23.146 4.1105 23.572 3.68233 24.0976 3.68233C24.6231 3.68233 25.0492 4.1105 25.0492 4.63867Z" fill="white"/>
<path d="M27.4704 4.46477C27.4704 4.99294 27.0444 5.42111 26.5188 5.42111C25.9933 5.42111 25.5672 4.99294 25.5672 4.46477C25.5672 3.9366 25.9933 3.50843 26.5188 3.50843C27.0444 3.50843 27.4704 3.9366 27.4704 4.46477Z" fill="white"/>
<path d="M30.0663 4.98647C30.0663 5.51464 29.6403 5.9428 29.1147 5.9428C28.5892 5.9428 28.1631 5.51464 28.1631 4.98647C28.1631 4.45829 28.5892 4.03013 29.1147 4.03013C29.6403 4.03013 30.0663 4.45829 30.0663 4.98647Z" fill="white"/>
<path d="M32.4876 5.68194C32.4876 6.21011 32.0615 6.63828 31.536 6.63828C31.0104 6.63828 30.5844 6.21011 30.5844 5.68194C30.5844 5.15377 31.0104 4.7256 31.536 4.7256C32.0615 4.7256 32.4876 5.15377 32.4876 5.68194Z" fill="white"/>
<path d="M28.6997 33.5409C28.413 33.9221 27.9053 34.0589 27.4673 33.8728L25.7009 33.1222C24.7908 32.7355 24.882 31.4106 25.8364 31.1536L28.7593 30.3665C29.7137 30.1095 30.4519 31.2111 29.8561 32.0033L28.6997 33.5409Z" fill="white"/>
<path d="M20.5494 20.4615C20.5494 20.9896 20.1233 21.4178 19.5978 21.4178C19.0722 21.4178 18.6462 20.9896 18.6462 20.4615C18.6462 19.9333 19.0722 19.5051 19.5978 19.5051C20.1233 19.5051 20.5494 19.9333 20.5494 20.4615Z" stroke="white" stroke-width="0.25"/>
<path d="M18.3008 21.6786C18.3008 22.2068 17.8747 22.635 17.3492 22.635C16.8236 22.635 16.3976 22.2068 16.3976 21.6786C16.3976 21.1505 16.8236 20.7223 17.3492 20.7223C17.8747 20.7223 18.3008 21.1505 18.3008 21.6786Z" stroke="white" stroke-width="0.25"/>
<path d="M16.7428 23.5913C16.7428 24.1195 16.3168 24.5476 15.7912 24.5476C15.2657 24.5476 14.8396 24.1195 14.8396 23.5913C14.8396 23.0631 15.2657 22.6349 15.7912 22.6349C16.3168 22.6349 16.7428 23.0631 16.7428 23.5913Z" stroke="white" stroke-width="0.25"/>
<path d="M15.3595 25.8517C15.3595 26.3799 14.9335 26.8081 14.4079 26.8081C13.8824 26.8081 13.4563 26.3799 13.4563 25.8517C13.4563 25.3236 13.8824 24.8954 14.4079 24.8954C14.9335 24.8954 15.3595 25.3236 15.3595 25.8517Z" stroke="white" stroke-width="0.25"/>
<path d="M14.6669 28.2861C14.6669 28.8142 14.2409 29.2424 13.7153 29.2424C13.1898 29.2424 12.7637 28.8142 12.7637 28.2861C12.7637 27.7579 13.1898 27.3297 13.7153 27.3297C14.2409 27.3297 14.6669 27.7579 14.6669 28.2861Z" stroke="white" stroke-width="0.25"/>
<path d="M15.0122 30.8943C15.0122 31.4225 14.5862 31.8506 14.0606 31.8506C13.5351 31.8506 13.1091 31.4225 13.1091 30.8943C13.1091 30.3661 13.5351 29.938 14.0606 29.938C14.5862 29.938 15.0122 30.3661 15.0122 30.8943Z" stroke="white" stroke-width="0.25"/>
<path d="M17.4355 31.5898C17.4355 32.118 17.0094 32.5461 16.4839 32.5461C15.9583 32.5461 15.5323 32.118 15.5323 31.5898C15.5323 31.0616 15.9583 30.6334 16.4839 30.6334C17.0094 30.6334 17.4355 31.0616 17.4355 31.5898Z" stroke="white" stroke-width="0.25"/>
<path d="M19.8567 30.7204C19.8567 31.2486 19.4307 31.6768 18.9051 31.6768C18.3796 31.6768 17.9535 31.2486 17.9535 30.7204C17.9535 30.1922 18.3796 29.7641 18.9051 29.7641C19.4307 29.7641 19.8567 30.1922 19.8567 30.7204Z" stroke="white" stroke-width="0.25"/>
<path d="M21.9326 29.3293C21.9326 29.8575 21.5066 30.2857 20.9811 30.2857C20.4555 30.2857 20.0295 29.8575 20.0295 29.3293C20.0295 28.8012 20.4555 28.373 20.9811 28.373C21.5066 28.373 21.9326 28.8012 21.9326 29.3293Z" stroke="white" stroke-width="0.25"/>
<path d="M23.6632 27.2428C23.6632 27.771 23.2372 28.1991 22.7117 28.1991C22.1861 28.1991 21.7601 27.771 21.7601 27.2428C21.7601 26.7146 22.1861 26.2865 22.7117 26.2865C23.2372 26.2865 23.6632 26.7146 23.6632 27.2428Z" stroke="white" stroke-width="0.25"/>
<path d="M24.7012 24.9824C24.7012 25.5105 24.2752 25.9387 23.7496 25.9387C23.2241 25.9387 22.798 25.5105 22.798 24.9824C22.798 24.4542 23.2241 24.026 23.7496 24.026C24.2752 24.026 24.7012 24.4542 24.7012 24.9824Z" stroke="white" stroke-width="0.25"/>
<path d="M24.3559 22.7219C24.3559 23.2501 23.9298 23.6783 23.4043 23.6783C22.8787 23.6783 22.4527 23.2501 22.4527 22.7219C22.4527 22.1937 22.8787 21.7656 23.4043 21.7656C23.9298 21.7656 24.3559 22.1937 24.3559 22.7219Z" stroke="white" stroke-width="0.25"/>
<path d="M22.9726 20.8093C22.9726 21.3374 22.5465 21.7656 22.021 21.7656C21.4954 21.7656 21.0694 21.3374 21.0694 20.8093C21.0694 20.2811 21.4954 19.8529 22.021 19.8529C22.5465 19.8529 22.9726 20.2811 22.9726 20.8093Z" stroke="white" stroke-width="0.25"/>
<path d="M21.4151 25.0692C21.4151 25.9335 20.718 26.6342 19.858 26.6342C18.998 26.6342 18.3008 25.9335 18.3008 25.0692C18.3008 24.205 18.998 23.5043 19.858 23.5043C20.718 23.5043 21.4151 24.205 21.4151 25.0692Z" stroke="white" stroke-width="0.25"/>
<path d="M33.3536 18.7228C33.3536 19.251 33.7796 19.6791 34.3052 19.6791C34.8307 19.6791 35.2568 19.251 35.2568 18.7228C35.2568 18.1946 34.8307 17.7665 34.3052 17.7665C33.7796 17.7665 33.3536 18.1946 33.3536 18.7228Z" stroke="white" stroke-width="0.25"/>
<path d="M35.6022 19.9398C35.6022 20.468 36.0282 20.8962 36.5538 20.8962C37.0793 20.8962 37.5054 20.468 37.5054 19.9398C37.5054 19.4117 37.0793 18.9835 36.5538 18.9835C36.0282 18.9835 35.6022 19.4117 35.6022 19.9398Z" stroke="white" stroke-width="0.25"/>
<path d="M37.3328 21.6787C37.3328 22.2069 37.7588 22.6351 38.2844 22.6351C38.8099 22.6351 39.236 22.2069 39.236 21.6787C39.236 21.1505 38.8099 20.7224 38.2844 20.7224C37.7588 20.7224 37.3328 21.1505 37.3328 21.6787Z" stroke="white" stroke-width="0.25"/>
<path d="M38.718 23.9392C38.718 24.4673 39.1441 24.8955 39.6696 24.8955C40.1952 24.8955 40.6212 24.4673 40.6212 23.9392C40.6212 23.411 40.1952 22.9828 39.6696 22.9828C39.1441 22.9828 38.718 23.411 38.718 23.9392Z" stroke="white" stroke-width="0.25"/>
<path d="M39.0634 26.3735C39.0634 26.9017 39.4894 27.3298 40.015 27.3298C40.5405 27.3298 40.9665 26.9017 40.9665 26.3735C40.9665 25.8453 40.5405 25.4172 40.015 25.4172C39.4894 25.4172 39.0634 25.8453 39.0634 26.3735Z" stroke="white" stroke-width="0.25"/>
<path d="M37.3328 28.1122C37.3328 28.6404 37.7588 29.0686 38.2844 29.0686C38.8099 29.0686 39.236 28.6404 39.236 28.1122C39.236 27.5841 38.8099 27.1559 38.2844 27.1559C37.7588 27.1559 37.3328 27.5841 37.3328 28.1122Z" stroke="white" stroke-width="0.25"/>
<path d="M34.9115 27.9383C34.9115 28.4665 35.3375 28.8947 35.8631 28.8947C36.3886 28.8947 36.8147 28.4665 36.8147 27.9383C36.8147 27.4102 36.3886 26.982 35.8631 26.982C35.3375 26.982 34.9115 27.4102 34.9115 27.9383Z" stroke="white" stroke-width="0.25"/>
<path d="M32.4883 27.069C32.4883 27.5971 32.9143 28.0253 33.4399 28.0253C33.9654 28.0253 34.3915 27.5971 34.3915 27.069C34.3915 26.5408 33.9654 26.1126 33.4399 26.1126C32.9143 26.1126 32.4883 26.5408 32.4883 27.069Z" stroke="white" stroke-width="0.25"/>
<path d="M30.2397 25.8518C30.2397 26.38 30.6657 26.8081 31.1913 26.8081C31.7168 26.8081 32.1429 26.38 32.1429 25.8518C32.1429 25.3236 31.7168 24.8955 31.1913 24.8955C30.6657 24.8955 30.2397 25.3236 30.2397 25.8518Z" stroke="white" stroke-width="0.25"/>
<path d="M28.5091 23.9392C28.5091 24.4673 28.9351 24.8955 29.4607 24.8955C29.9862 24.8955 30.4123 24.4673 30.4123 23.9392C30.4123 23.411 29.9862 22.9828 29.4607 22.9828C28.9351 22.9828 28.5091 23.411 28.5091 23.9392Z" stroke="white" stroke-width="0.25"/>
<path d="M27.8165 21.5048C27.8165 22.033 28.2425 22.4612 28.768 22.4612C29.2936 22.4612 29.7196 22.033 29.7196 21.5048C29.7196 20.9766 29.2936 20.5485 28.768 20.5485C28.2425 20.5485 27.8165 20.9766 27.8165 21.5048Z" stroke="white" stroke-width="0.25"/>
<path d="M28.8564 19.2444C28.8564 19.7725 29.2824 20.2007 29.808 20.2007C30.3335 20.2007 30.7596 19.7725 30.7596 19.2444C30.7596 18.7162 30.3335 18.288 29.808 18.288C29.2824 18.288 28.8564 18.7162 28.8564 19.2444Z" stroke="white" stroke-width="0.25"/>
<path d="M30.9323 18.2011C30.9323 18.7293 31.3584 19.1574 31.8839 19.1574C32.4095 19.1574 32.8355 18.7293 32.8355 18.2011C32.8355 17.6729 32.4095 17.2448 31.8839 17.2448C31.3584 17.2448 30.9323 17.6729 30.9323 18.2011Z" stroke="white" stroke-width="0.25"/>
<path d="M31.2772 22.8089C31.2772 23.6731 31.9743 24.3738 32.8343 24.3738C33.6943 24.3738 34.3915 23.6731 34.3915 22.8089C34.3915 21.9446 33.6943 21.2439 32.8343 21.2439C31.9743 21.2439 31.2772 21.9446 31.2772 22.8089Z" stroke="white" stroke-width="0.25"/>
<path d="M10.5165 11.0721C10.5165 11.6003 10.0904 12.0285 9.56488 12.0285C9.03934 12.0285 8.6133 11.6003 8.6133 11.0721C8.6133 10.544 9.03934 10.1158 9.56488 10.1158C10.0904 10.1158 10.5165 10.544 10.5165 11.0721Z" stroke="white" stroke-width="0.25"/>
<path d="M12.5924 8.8117C12.5924 9.33987 12.1664 9.76804 11.6408 9.76804C11.1153 9.76804 10.6892 9.33987 10.6892 8.8117C10.6892 8.28353 11.1153 7.85536 11.6408 7.85536C12.1664 7.85536 12.5924 8.28353 12.5924 8.8117Z" stroke="white" stroke-width="0.25"/>
<path d="M12.5924 12.637C12.5924 13.1652 12.1664 13.5933 11.6408 13.5933C11.1153 13.5933 10.6892 13.1652 10.6892 12.637C10.6892 12.1088 11.1153 11.6806 11.6408 11.6806C12.1664 11.6806 12.5924 12.1088 12.5924 12.637Z" stroke="white" stroke-width="0.25"/>
<path d="M14.323 10.5504C14.323 11.0786 13.897 11.5068 13.3714 11.5068C12.8459 11.5068 12.4198 11.0786 12.4198 10.5504C12.4198 10.0223 12.8459 9.59411 13.3714 9.59411C13.897 9.59411 14.323 10.0223 14.323 10.5504Z" stroke="white" stroke-width="0.25"/>
<path d="M13.803 15.0713C13.803 15.5995 13.377 16.0277 12.8514 16.0277C12.3259 16.0277 11.8999 15.5995 11.8999 15.0713C11.8999 14.5432 12.3259 14.115 12.8514 14.115C13.377 14.115 13.803 14.5432 13.803 15.0713Z" stroke="white" stroke-width="0.25"/>
<path d="M13.4577 17.6796C13.4577 18.2077 13.0317 18.6359 12.5061 18.6359C11.9806 18.6359 11.5545 18.2077 11.5545 17.6796C11.5545 17.1514 11.9806 16.7232 12.5061 16.7232C13.0317 16.7232 13.4577 17.1514 13.4577 17.6796Z" stroke="white" stroke-width="0.25"/>
<path d="M12.0724 19.94C12.0724 20.4682 11.6464 20.8963 11.1208 20.8963C10.5953 20.8963 10.1693 20.4682 10.1693 19.94C10.1693 19.4118 10.5953 18.9837 11.1208 18.9837C11.6464 18.9837 12.0724 19.4118 12.0724 19.94Z" stroke="white" stroke-width="0.25"/>
<path d="M9.99651 21.8527C9.99651 22.3808 9.57047 22.809 9.04492 22.809C8.51937 22.809 8.09333 22.3808 8.09333 21.8527C8.09333 21.3245 8.51937 20.8963 9.04492 20.8963C9.57047 20.8963 9.99651 21.3245 9.99651 21.8527Z" stroke="white" stroke-width="0.25"/>
<path d="M7.40258 21.6788C7.40258 22.2069 6.97654 22.6351 6.45099 22.6351C5.92544 22.6351 5.4994 22.2069 5.4994 21.6788C5.4994 21.1506 5.92544 20.7224 6.45099 20.7224C6.97654 20.7224 7.40258 21.1506 7.40258 21.6788Z" stroke="white" stroke-width="0.25"/>
<path d="M6.18998 19.4183C6.18998 19.9465 5.76394 20.3747 5.23839 20.3747C4.71285 20.3747 4.28681 19.9465 4.28681 19.4183C4.28681 18.8901 4.71285 18.462 5.23839 18.462C5.76394 18.462 6.18998 18.8901 6.18998 19.4183Z" stroke="white" stroke-width="0.25"/>
<path d="M4.28672 11.9415C4.28672 12.4697 3.86068 12.8979 3.33513 12.8979C2.80958 12.8979 2.38354 12.4697 2.38354 11.9415C2.38354 11.4133 2.80958 10.9852 3.33513 10.9852C3.86068 10.9852 4.28672 11.4133 4.28672 11.9415Z" stroke="white" stroke-width="0.25"/>
<path d="M3.42338 14.3759C3.42338 14.904 2.99734 15.3322 2.4718 15.3322C1.94625 15.3322 1.52021 14.904 1.52021 14.3759C1.52021 13.8477 1.94625 13.4195 2.4718 13.4195C2.99734 13.4195 3.42338 13.8477 3.42338 14.3759Z" stroke="white" stroke-width="0.25"/>
<path d="M2.90342 16.8101C2.90342 17.3382 2.47738 17.7664 1.95183 17.7664C1.42628 17.7664 1.00024 17.3382 1.00024 16.8101C1.00024 16.2819 1.42628 15.8537 1.95183 15.8537C2.47738 15.8537 2.90342 16.2819 2.90342 16.8101Z" stroke="white" stroke-width="0.25"/>
<path d="M3.07609 19.4183C3.07609 19.9465 2.65005 20.3747 2.1245 20.3747C1.59895 20.3747 1.17291 19.9465 1.17291 19.4183C1.17291 18.8901 1.59895 18.462 2.1245 18.462C2.65005 18.462 3.07609 18.8901 3.07609 19.4183Z" stroke="white" stroke-width="0.25"/>
<path d="M3.76872 21.6788C3.76872 22.2069 3.34268 22.6351 2.81713 22.6351C2.29158 22.6351 1.86554 22.2069 1.86554 21.6788C1.86554 21.1506 2.29158 20.7224 2.81713 20.7224C3.34268 20.7224 3.76872 21.1506 3.76872 21.6788Z" stroke="white" stroke-width="0.25"/>
<path d="M5.49931 23.7653C5.49931 24.2935 5.07327 24.7216 4.54773 24.7216C4.02218 24.7216 3.59614 24.2935 3.59614 23.7653C3.59614 23.2371 4.02218 22.809 4.54773 22.809C5.07327 22.809 5.49931 23.2371 5.49931 23.7653Z" stroke="white" stroke-width="0.25"/>
<path d="M7.74791 24.8086C7.74791 25.3367 7.32187 25.7649 6.79632 25.7649C6.27077 25.7649 5.84473 25.3367 5.84473 24.8086C5.84473 24.2804 6.27077 23.8522 6.79632 23.8522C7.32187 23.8522 7.74791 24.2804 7.74791 24.8086Z" stroke="white" stroke-width="0.25"/>
<path d="M6.01731 16.6363C6.01731 17.1645 5.59127 17.5926 5.06573 17.5926C4.54018 17.5926 4.11414 17.1645 4.11414 16.6363C4.11414 16.1081 4.54018 15.68 5.06573 15.68C5.59127 15.68 6.01731 16.1081 6.01731 16.6363Z" stroke="white" stroke-width="0.25"/>
<path d="M5.67198 9.68107C5.67198 10.2092 5.24594 10.6374 4.72039 10.6374C4.19484 10.6374 3.7688 10.2092 3.7688 9.68107C3.7688 9.1529 4.19484 8.72473 4.72039 8.72473C5.24594 8.72473 5.67198 9.1529 5.67198 9.68107Z" stroke="white" stroke-width="0.25"/>
<path d="M6.53728 14.0281C6.53728 14.5562 6.11124 14.9844 5.58569 14.9844C5.06014 14.9844 4.6341 14.5562 4.6341 14.0281C4.6341 13.4999 5.06014 13.0717 5.58569 13.0717C6.11124 13.0717 6.53728 13.4999 6.53728 14.0281Z" stroke="white" stroke-width="0.25"/>
<path d="M7.92058 8.29C7.92058 8.81818 7.49454 9.24634 6.96899 9.24634C6.44344 9.24634 6.0174 8.81818 6.0174 8.29C6.0174 7.76183 6.44344 7.33367 6.96899 7.33367C7.49454 7.33367 7.92058 7.76183 7.92058 8.29Z" stroke="white" stroke-width="0.25"/>
<path d="M7.92058 11.7676C7.92058 12.2958 7.49454 12.724 6.96899 12.724C6.44344 12.724 6.0174 12.2958 6.0174 11.7676C6.0174 11.2394 6.44344 10.8113 6.96899 10.8113C7.49454 10.8113 7.92058 11.2394 7.92058 11.7676Z" stroke="white" stroke-width="0.25"/>
<path d="M10.1711 7.94221C10.1711 8.47038 9.7451 8.89855 9.21955 8.89855C8.694 8.89855 8.26796 8.47038 8.26796 7.94221C8.26796 7.41403 8.694 6.98587 9.21955 6.98587C9.7451 6.98587 10.1711 7.41403 10.1711 7.94221Z" stroke="white" stroke-width="0.25"/>
<path d="M36.7577 6.09067C37.0205 6.54808 37.6024 6.7048 38.0576 6.44072C38.5127 6.17663 38.6687 5.59174 38.4059 5.13434C38.1431 4.67692 37.5611 4.5202 37.106 4.78429C36.6508 5.04838 36.4949 5.63326 36.7577 6.09067Z" stroke="white" stroke-width="0.25"/>
<path d="M33.8302 5.11901C34.093 5.57642 34.6749 5.73314 35.1301 5.46905C35.5852 5.20497 35.7412 4.62008 35.4784 4.16267C35.2156 3.70526 34.6336 3.54854 34.1785 3.81262C33.7234 4.07671 33.5674 4.6616 33.8302 5.11901Z" stroke="white" stroke-width="0.25"/>
<path d="M35.3881 8.24882C35.6509 8.70623 36.2329 8.86295 36.688 8.59887C37.1431 8.33478 37.2991 7.74989 37.0363 7.29248C36.7735 6.83507 36.1916 6.67835 35.7364 6.94244C35.2813 7.20652 35.1253 7.79141 35.3881 8.24882Z" stroke="white" stroke-width="0.25"/>
<path d="M32.9649 7.37945C33.2277 7.83686 33.8096 7.99358 34.2648 7.72949C34.7199 7.46541 34.8759 6.88052 34.6131 6.42311C34.3503 5.9657 33.7683 5.80898 33.3132 6.07307C32.8581 6.33715 32.7021 6.92204 32.9649 7.37945Z" stroke="white" stroke-width="0.25"/>
<path d="M35.2155 11.0308C35.4782 11.4882 36.0602 11.645 36.5153 11.3809C36.9705 11.1168 37.1264 10.5319 36.8636 10.0745C36.6009 9.61709 36.0189 9.46037 35.5638 9.72445C35.1086 9.98854 34.9527 10.5734 35.2155 11.0308Z" stroke="white" stroke-width="0.25"/>
<path d="M36.5987 13.2913C36.8615 13.7487 37.4435 13.9054 37.8986 13.6413C38.3538 13.3772 38.5097 12.7923 38.2469 12.3349C37.9842 11.8775 37.4022 11.7208 36.9471 11.9849C36.4919 12.249 36.336 12.8339 36.5987 13.2913Z" stroke="white" stroke-width="0.25"/>
<path d="M38.6747 15.0301C38.9375 15.4876 39.5194 15.6443 39.9746 15.3802C40.4297 15.1161 40.5857 14.5312 40.3229 14.0738C40.0601 13.6164 39.4781 13.4597 39.023 13.7238C38.5678 13.9878 38.4119 14.5727 38.6747 15.0301Z" stroke="white" stroke-width="0.25"/>
<path d="M41.2706 15.8995C41.5333 16.3569 42.1153 16.5136 42.5705 16.2496C43.0256 15.9855 43.1815 15.4006 42.9188 14.9432C42.656 14.4858 42.074 14.329 41.6189 14.5931C41.1637 14.8572 41.0078 15.4421 41.2706 15.8995Z" stroke="white" stroke-width="0.25"/>
<path d="M43.5192 14.8562C43.7819 15.3137 44.3639 15.4704 44.8191 15.2063C45.2742 14.9422 45.4301 14.3573 45.1674 13.8999C44.9046 13.4425 44.3226 13.2858 43.8675 13.5499C43.4123 13.8139 43.2564 14.3988 43.5192 14.8562Z" stroke="white" stroke-width="0.25"/>
<path d="M43.8665 12.248C44.1292 12.7054 44.7112 12.8621 45.1664 12.5981C45.6215 12.334 45.7774 11.7491 45.5147 11.2917C45.2519 10.8343 44.6699 10.6775 44.2148 10.9416C43.7596 11.2057 43.6037 11.7906 43.8665 12.248Z" stroke="white" stroke-width="0.25"/>
<path d="M40.7526 3.38014C41.0153 3.83755 41.5973 3.99427 42.0525 3.73019C42.5076 3.4661 42.6635 2.88121 42.4008 2.4238C42.138 1.96639 41.556 1.80967 41.1009 2.07376C40.6457 2.33784 40.4898 2.92273 40.7526 3.38014Z" stroke="white" stroke-width="0.25"/>
<path d="M42.6558 4.77121C42.9186 5.22862 43.5006 5.38534 43.9557 5.12125C44.4109 4.85717 44.5668 4.27228 44.304 3.81487C44.0413 3.35746 43.4593 3.20074 43.0041 3.46483C42.549 3.72891 42.3931 4.3138 42.6558 4.77121Z" stroke="white" stroke-width="0.25"/>
<path d="M44.3845 6.68385C44.6472 7.14126 45.2292 7.29798 45.6844 7.0339C46.1395 6.76981 46.2954 6.18492 46.0327 5.72751C45.7699 5.2701 45.1879 5.11338 44.7328 5.37747C44.2776 5.64156 44.1217 6.22644 44.3845 6.68385Z" stroke="white" stroke-width="0.25"/>
<path d="M45.7697 8.94429C46.0325 9.4017 46.6145 9.55842 47.0696 9.29434C47.5248 9.03025 47.6807 8.44537 47.4179 7.98796C47.1552 7.53055 46.5732 7.37382 46.118 7.63791C45.6629 7.902 45.507 8.48688 45.7697 8.94429Z" stroke="white" stroke-width="0.25"/>
<path d="M46.6331 11.3786C46.8958 11.836 47.4778 11.9928 47.933 11.7287C48.3881 11.4646 48.544 10.8797 48.2813 10.4223C48.0185 9.96489 47.4365 9.80816 46.9814 10.0723C46.5262 10.3363 46.3703 10.9212 46.6331 11.3786Z" stroke="white" stroke-width="0.25"/>
<path d="M46.8077 13.9869C47.0705 14.4443 47.6524 14.601 48.1076 14.3369C48.5627 14.0728 48.7187 13.4879 48.4559 13.0305C48.1931 12.5731 47.6111 12.4164 47.156 12.6805C46.7009 12.9446 46.5449 13.5295 46.8077 13.9869Z" stroke="white" stroke-width="0.25"/>
<path d="M45.9424 16.2473C46.2052 16.7047 46.7872 16.8614 47.2423 16.5974C47.6974 16.3333 47.8534 15.7484 47.5906 15.291C47.3278 14.8336 46.7458 14.6768 46.2907 14.9409C45.8356 15.205 45.6796 15.7899 45.9424 16.2473Z" stroke="white" stroke-width="0.25"/>
<path d="M43.0012 9.63989C43.2639 10.0973 43.8459 10.254 44.3011 9.98994C44.7562 9.72585 44.9121 9.14096 44.6494 8.68355C44.3866 8.22614 43.8046 8.06942 43.3495 8.33351C42.8943 8.59759 42.7384 9.18248 43.0012 9.63989Z" stroke="white" stroke-width="0.25"/>
<path d="M44.2118 18.16C44.4746 18.6174 45.0566 18.7741 45.5117 18.51C45.9668 18.2459 46.1228 17.661 45.86 17.2036C45.5972 16.7462 45.0152 16.5895 44.5601 16.8536C44.105 17.1177 43.949 17.7026 44.2118 18.16Z" stroke="white" stroke-width="0.25"/>
<path d="M41.6159 7.37945C41.8787 7.83686 42.4607 7.99358 42.9158 7.72949C43.3709 7.46541 43.5269 6.88052 43.2641 6.42311C43.0013 5.9657 42.4193 5.80898 41.9642 6.07307C41.5091 6.33715 41.3531 6.92204 41.6159 7.37945Z" stroke="white" stroke-width="0.25"/>
<path d="M38.1567 2.68467C38.4194 3.14208 39.0014 3.2988 39.4566 3.03471C39.9117 2.77063 40.0676 2.18574 39.8049 1.72833C39.5421 1.27092 38.9601 1.1142 38.505 1.37828C38.0498 1.64237 37.8939 2.22726 38.1567 2.68467Z" stroke="white" stroke-width="0.25"/>
<path d="M39.54 5.81448C39.8027 6.27189 40.3847 6.42861 40.8399 6.16453C41.295 5.90044 41.4509 5.31555 41.1882 4.85814C40.9254 4.40073 40.3434 4.24401 39.8883 4.5081C39.4331 4.77218 39.2772 5.35707 39.54 5.81448Z" stroke="white" stroke-width="0.25"/>
<path d="M35.7334 3.20624C35.9962 3.66365 36.5782 3.82037 37.0333 3.55629C37.4885 3.2922 37.6444 2.70731 37.3816 2.2499C37.1189 1.79249 36.5369 1.63577 36.0818 1.89986C35.6266 2.16394 35.4707 2.74883 35.7334 3.20624Z" stroke="white" stroke-width="0.25"/>
<path d="M6.53649 27.5908C6.53649 28.1189 6.11045 28.5471 5.58491 28.5471C5.05936 28.5471 4.63332 28.1189 4.63332 27.5908C4.63332 27.0626 5.05936 26.6344 5.58491 26.6344C6.11045 26.6344 6.53649 27.0626 6.53649 27.5908Z" stroke="white" stroke-width="0.25"/>
<path d="M6.01653 30.199C6.01653 30.7272 5.59049 31.1553 5.06494 31.1553C4.53939 31.1553 4.11335 30.7272 4.11335 30.199C4.11335 29.6708 4.53939 29.2427 5.06494 29.2427C5.59049 29.2427 6.01653 29.6708 6.01653 30.199Z" stroke="white" stroke-width="0.25"/>
<path d="M6.01653 32.8072C6.01653 33.3354 5.59049 33.7636 5.06494 33.7636C4.53939 33.7636 4.11335 33.3354 4.11335 32.8072C4.11335 32.2791 4.53939 31.8509 5.06494 31.8509C5.59049 31.8509 6.01653 32.2791 6.01653 32.8072Z" stroke="white" stroke-width="0.25"/>
<path d="M6.1892 35.4154C6.1892 35.9435 5.76316 36.3717 5.23761 36.3717C4.71206 36.3717 4.28602 35.9435 4.28602 35.4154C4.28602 34.8872 4.71206 34.459 5.23761 34.459C5.76316 34.459 6.1892 34.8872 6.1892 35.4154Z" stroke="white" stroke-width="0.25"/>
<path d="M7.05449 37.8497C7.05449 38.3779 6.62845 38.806 6.10291 38.806C5.57736 38.806 5.15132 38.3779 5.15132 37.8497C5.15132 37.3215 5.57736 36.8934 6.10291 36.8934C6.62845 36.8934 7.05449 37.3215 7.05449 37.8497Z" stroke="white" stroke-width="0.25"/>
<path d="M8.43779 40.1101C8.43779 40.6383 8.01175 41.0665 7.48621 41.0665C6.96066 41.0665 6.53462 40.6383 6.53462 40.1101C6.53462 39.582 6.96066 39.1538 7.48621 39.1538C8.01175 39.1538 8.43779 39.582 8.43779 40.1101Z" stroke="white" stroke-width="0.25"/>
<path d="M10.1684 42.0228C10.1684 42.5509 9.74235 42.9791 9.2168 42.9791C8.69125 42.9791 8.26521 42.5509 8.26521 42.0228C8.26521 41.4946 8.69125 41.0664 9.2168 41.0664C9.74235 41.0664 10.1684 41.4946 10.1684 42.0228Z" stroke="white" stroke-width="0.25"/>
<path d="M12.2443 43.5877C12.2443 44.1159 11.8183 44.5441 11.2927 44.5441C10.7672 44.5441 10.3411 44.1159 10.3411 43.5877C10.3411 43.0596 10.7672 42.6314 11.2927 42.6314C11.8183 42.6314 12.2443 43.0596 12.2443 43.5877Z" stroke="white" stroke-width="0.25"/>
<path d="M14.6675 44.631C14.6675 45.1592 14.2415 45.5874 13.716 45.5874C13.1904 45.5874 12.7644 45.1592 12.7644 44.631C12.7644 44.1028 13.1904 43.6747 13.716 43.6747C14.2415 43.6747 14.6675 44.1028 14.6675 44.631Z" stroke="white" stroke-width="0.25"/>
<path d="M17.0888 45.5004C17.0888 46.0286 16.6628 46.4567 16.1372 46.4567C15.6117 46.4567 15.1856 46.0286 15.1856 45.5004C15.1856 44.9722 15.6117 44.544 16.1372 44.544C16.6628 44.544 17.0888 44.9722 17.0888 45.5004Z" stroke="white" stroke-width="0.25"/>
<path d="M19.6847 46.0221C19.6847 46.5503 19.2587 46.9784 18.7331 46.9784C18.2076 46.9784 17.7815 46.5503 17.7815 46.0221C17.7815 45.4939 18.2076 45.0657 18.7331 45.0657C19.2587 45.0657 19.6847 45.4939 19.6847 46.0221Z" stroke="white" stroke-width="0.25"/>
<path d="M22.2806 46.3699C22.2806 46.8981 21.8546 47.3262 21.329 47.3262C20.8035 47.3262 20.3774 46.8981 20.3774 46.3699C20.3774 45.8417 20.8035 45.4135 21.329 45.4135C21.8546 45.4135 22.2806 45.8417 22.2806 46.3699Z" stroke="white" stroke-width="0.25"/>
<path d="M24.8745 46.5437C24.8745 47.0718 24.4485 47.5 23.9229 47.5C23.3974 47.5 22.9714 47.0718 22.9714 46.5437C22.9714 46.0155 23.3974 45.5873 23.9229 45.5873C24.4485 45.5873 24.8745 46.0155 24.8745 46.5437Z" stroke="white" stroke-width="0.25"/>
<path d="M27.4704 46.5437C27.4704 47.0718 27.0444 47.5 26.5188 47.5C25.9933 47.5 25.5672 47.0718 25.5672 46.5437C25.5672 46.0155 25.9933 45.5873 26.5188 45.5873C27.0444 45.5873 27.4704 46.0155 27.4704 46.5437Z" stroke="white" stroke-width="0.25"/>
<path d="M30.0663 46.196C30.0663 46.7242 29.6403 47.1523 29.1147 47.1523C28.5892 47.1523 28.1631 46.7242 28.1631 46.196C28.1631 45.6678 28.5892 45.2396 29.1147 45.2396C29.6403 45.2396 30.0663 45.6678 30.0663 46.196Z" stroke="white" stroke-width="0.25"/>
<path d="M32.6602 45.6743C32.6602 46.2025 32.2342 46.6306 31.7087 46.6306C31.1831 46.6306 30.7571 46.2025 30.7571 45.6743C30.7571 45.1461 31.1831 44.7179 31.7087 44.7179C32.2342 44.7179 32.6602 45.1461 32.6602 45.6743Z" stroke="white" stroke-width="0.25"/>
<path d="M35.0835 44.9788C35.0835 45.507 34.6574 45.9352 34.1319 45.9352C33.6063 45.9352 33.1803 45.507 33.1803 44.9788C33.1803 44.4506 33.6063 44.0225 34.1319 44.0225C34.6574 44.0225 35.0835 44.4506 35.0835 44.9788Z" stroke="white" stroke-width="0.25"/>
<path d="M37.5047 44.1094C37.5047 44.6376 37.0787 45.0658 36.5532 45.0658C36.0276 45.0658 35.6016 44.6376 35.6016 44.1094C35.6016 43.5813 36.0276 43.1531 36.5532 43.1531C37.0787 43.1531 37.5047 43.5813 37.5047 44.1094Z" stroke="white" stroke-width="0.25"/>
<path d="M39.928 43.066C39.928 43.5942 39.5019 44.0224 38.9764 44.0224C38.4508 44.0224 38.0248 43.5942 38.0248 43.066C38.0248 42.5379 38.4508 42.1097 38.9764 42.1097C39.5019 42.1097 39.928 42.5379 39.928 43.066Z" stroke="white" stroke-width="0.25"/>
<path d="M42.1766 41.849C42.1766 42.3772 41.7505 42.8053 41.225 42.8053C40.6994 42.8053 40.2734 42.3772 40.2734 41.849C40.2734 41.3208 40.6994 40.8927 41.225 40.8927C41.7505 40.8927 42.1766 41.3208 42.1766 41.849Z" stroke="white" stroke-width="0.25"/>
<path d="M44.4252 40.4579C44.4252 40.9861 43.9991 41.4143 43.4736 41.4143C42.948 41.4143 42.522 40.9861 42.522 40.4579C42.522 39.9298 42.948 39.5016 43.4736 39.5016C43.9991 39.5016 44.4252 39.9298 44.4252 40.4579Z" stroke="white" stroke-width="0.25"/>
<path d="M46.503 38.893C46.503 39.4211 46.077 39.8493 45.5515 39.8493C45.0259 39.8493 44.5999 39.4211 44.5999 38.893C44.5999 38.3648 45.0259 37.9366 45.5515 37.9366C46.077 37.9366 46.503 38.3648 46.503 38.893Z" stroke="white" stroke-width="0.25"/>
<path d="M48.2317 36.9803C48.2317 37.5085 47.8056 37.9367 47.2801 37.9367C46.7546 37.9367 46.3285 37.5085 46.3285 36.9803C46.3285 36.4521 46.7546 36.024 47.2801 36.024C47.8056 36.024 48.2317 36.4521 48.2317 36.9803Z" stroke="white" stroke-width="0.25"/>
<path d="M49.6169 34.7199C49.6169 35.2481 49.1909 35.6762 48.6654 35.6762C48.1398 35.6762 47.7138 35.2481 47.7138 34.7199C47.7138 34.1917 48.1398 33.7635 48.6654 33.7635C49.1909 33.7635 49.6169 34.1917 49.6169 34.7199Z" stroke="white" stroke-width="0.25"/>
<path d="M50.6549 32.2855C50.6549 32.8137 50.2289 33.2419 49.7033 33.2419C49.1778 33.2419 48.7517 32.8137 48.7517 32.2855C48.7517 31.7574 49.1778 31.3292 49.7033 31.3292C50.2289 31.3292 50.6549 31.7574 50.6549 32.2855Z" stroke="white" stroke-width="0.25"/>
<path d="M51.0002 29.6773C51.0002 30.2055 50.5742 30.6336 50.0487 30.6336C49.5231 30.6336 49.0971 30.2055 49.0971 29.6773C49.0971 29.1491 49.5231 28.721 50.0487 28.721C50.5742 28.721 51.0002 29.1491 51.0002 29.6773Z" stroke="white" stroke-width="0.25"/>
<path d="M51.0002 27.0692C51.0002 27.5974 50.5742 28.0255 50.0487 28.0255C49.5231 28.0255 49.0971 27.5974 49.0971 27.0692C49.0971 26.541 49.5231 26.1128 50.0487 26.1128C50.5742 26.1128 51.0002 26.541 51.0002 27.0692Z" stroke="white" stroke-width="0.25"/>
<path d="M50.3096 24.6348C50.3096 25.163 49.8835 25.5912 49.358 25.5912C48.8324 25.5912 48.4064 25.163 48.4064 24.6348C48.4064 24.1067 48.8324 23.6785 49.358 23.6785C49.8835 23.6785 50.3096 24.1067 50.3096 24.6348Z" stroke="white" stroke-width="0.25"/>
<path d="M49.4443 22.2005C49.4443 22.7287 49.0182 23.1568 48.4927 23.1568C47.9671 23.1568 47.5411 22.7287 47.5411 22.2005C47.5411 21.6723 47.9671 21.2442 48.4927 21.2442C49.0182 21.2442 49.4443 21.6723 49.4443 22.2005Z" stroke="white" stroke-width="0.25"/>
<path d="M48.059 19.7662C48.059 20.2943 47.633 20.7225 47.1074 20.7225C46.5819 20.7225 46.1558 20.2943 46.1558 19.7662C46.1558 19.238 46.5819 18.8098 47.1074 18.8098C47.633 18.8098 48.059 19.238 48.059 19.7662Z" stroke="white" stroke-width="0.25"/>
<path d="M16.0508 8.81175C16.0508 9.33992 15.6248 9.76809 15.0993 9.76809C14.5737 9.76809 14.1477 9.33992 14.1477 8.81175C14.1477 8.28358 14.5737 7.85541 15.0993 7.85541C15.6248 7.85541 16.0508 8.28358 16.0508 8.81175Z" stroke="white" stroke-width="0.25"/>
<path d="M17.9541 7.07301C17.9541 7.60118 17.5281 8.02935 17.0025 8.02935C16.477 8.02935 16.0509 7.60118 16.0509 7.07301C16.0509 6.54484 16.477 6.11667 17.0025 6.11667C17.5281 6.11667 17.9541 6.54484 17.9541 7.07301Z" stroke="white" stroke-width="0.25"/>
<path d="M20.2047 5.85584C20.2047 6.38401 19.7786 6.81218 19.2531 6.81218C18.7275 6.81218 18.3015 6.38401 18.3015 5.85584C18.3015 5.32767 18.7275 4.8995 19.2531 4.8995C19.7786 4.8995 20.2047 5.32767 20.2047 5.85584Z" stroke="white" stroke-width="0.25"/>
<path d="M22.6259 4.98647C22.6259 5.51464 22.1999 5.9428 21.6743 5.9428C21.1488 5.9428 20.7228 5.51464 20.7228 4.98647C20.7228 4.45829 21.1488 4.03013 21.6743 4.03013C22.1999 4.03013 22.6259 4.45829 22.6259 4.98647Z" stroke="white" stroke-width="0.25"/>
<path d="M25.0492 4.63867C25.0492 5.16684 24.6231 5.59501 24.0976 5.59501C23.572 5.59501 23.146 5.16684 23.146 4.63867C23.146 4.1105 23.572 3.68233 24.0976 3.68233C24.6231 3.68233 25.0492 4.1105 25.0492 4.63867Z" stroke="white" stroke-width="0.25"/>
<path d="M27.4704 4.46477C27.4704 4.99294 27.0444 5.42111 26.5188 5.42111C25.9933 5.42111 25.5672 4.99294 25.5672 4.46477C25.5672 3.9366 25.9933 3.50843 26.5188 3.50843C27.0444 3.50843 27.4704 3.9366 27.4704 4.46477Z" stroke="white" stroke-width="0.25"/>
<path d="M30.0663 4.98647C30.0663 5.51464 29.6403 5.9428 29.1147 5.9428C28.5892 5.9428 28.1631 5.51464 28.1631 4.98647C28.1631 4.45829 28.5892 4.03013 29.1147 4.03013C29.6403 4.03013 30.0663 4.45829 30.0663 4.98647Z" stroke="white" stroke-width="0.25"/>
<path d="M32.4876 5.68194C32.4876 6.21011 32.0615 6.63828 31.536 6.63828C31.0104 6.63828 30.5844 6.21011 30.5844 5.68194C30.5844 5.15377 31.0104 4.7256 31.536 4.7256C32.0615 4.7256 32.4876 5.15377 32.4876 5.68194Z" stroke="white" stroke-width="0.25"/>
<path d="M28.6997 33.5409C28.413 33.9221 27.9053 34.0589 27.4673 33.8728L25.7009 33.1222C24.7908 32.7355 24.882 31.4106 25.8364 31.1536L28.7593 30.3665C29.7137 30.1095 30.4519 31.2111 29.8561 32.0033L28.6997 33.5409Z" stroke="white" stroke-width="0.25"/>
</svg>
