<svg width="50" height="50" viewBox="0 0 50 50" fill="none" xmlns="http://www.w3.org/2000/svg">
<path d="M19.4334 11.8081C20.3258 7.68245 22.8654 4.23941 25.1596 2.09326C27.4538 4.23941 29.9934 7.68245 30.8858 11.8081M19.4334 11.8081C18.6639 15.3659 19.1193 19.4314 22.0135 23.6105M19.4334 11.8081C24.8551 15.9514 25.1596 22.2976 25.1596 27.2495M19.4334 11.8081C16.9857 9.93758 13.495 8.51603 8.51849 7.87451C7.5811 20.5308 16.8004 26.7026 25.1596 27.2495M22.0135 23.6105C22.8491 24.8172 23.8881 26.0334 25.1596 27.2495M22.0135 23.6105L25.1596 27.2495M22.0135 23.6105L14.6904 15.1401M25.1596 27.2495V11.0776M25.1596 27.2495C26.4311 26.0334 27.47 24.8172 28.3057 23.6105M25.1596 27.2495L28.3057 23.6105M25.1596 27.2495C33.5188 26.7026 42.7381 20.5308 41.8007 7.87451C36.8242 8.51603 33.3335 9.93758 30.8858 11.8081M25.1596 27.2495C25.1596 22.2976 25.4641 15.9514 30.8858 11.8081M30.8858 11.8081C31.6553 15.3659 31.1999 19.4314 28.3057 23.6105M28.3057 23.6105L35.6288 15.1401M12.3437 33.9683V32.2496C12.3437 31.214 11.5043 30.3746 10.4687 30.3746H6.71875C5.68322 30.3746 4.84375 31.214 4.84375 32.2496V45.3746C4.84375 46.4101 5.68322 47.2496 6.71875 47.2496H10.4687C11.5043 47.2496 12.3437 46.4101 12.3437 45.3746V43.9683M12.3437 33.9683L18.0323 32.5282C18.349 32.448 18.6812 32.452 18.9959 32.5397L28.0469 35.0621M12.3437 33.9683V43.9683M28.0469 35.0621C30.0092 35.3891 33.5466 36.6009 32.8262 39.1623C32.7744 39.3468 32.6721 39.5134 32.5569 39.6666C31.506 41.0649 31.4687 41.6279 22.3438 40.2183M28.0469 35.0621C30.625 33.0308 34.0625 29.7496 36.0156 32.7964M36.0156 32.7964L33.4375 34.4371M36.0156 32.7964C37.5 31.8589 39.8594 30.5777 41.1719 32.9527M41.1719 32.9527L35.625 36.2339M41.1719 32.9527C41.875 32.4839 43.5312 31.9214 44.5312 33.4214C45.5312 34.9214 44.5833 36.3381 43.9844 36.8589L31.0156 45.4527C30.2083 46.0777 28.0469 47.2339 25.8594 46.8589C23.6719 46.4839 15.9375 44.7756 12.3437 43.9683" stroke="white" stroke-width="1.5" stroke-linecap="round" stroke-linejoin="round"/>
</svg>
