<svg width="40" height="40" viewBox="0 0 40 40" fill="none" xmlns="http://www.w3.org/2000/svg">
<path d="M0 20C0 8.95431 8.95431 0 20 0C31.0457 0 40 8.95431 40 20C40 31.0457 31.0457 40 20 40C8.95431 40 0 31.0457 0 20Z" fill="#30B0AB"/>
<path d="M19.9999 10.6899L25.6599 16.3499C26.7792 17.4686 27.5417 18.894 27.8508 20.446C28.1599 21.998 28.0018 23.6068 27.3964 25.0689C26.7911 26.531 25.7657 27.7808 24.45 28.66C23.1343 29.5393 21.5874 30.0086 20.0049 30.0086C18.4224 30.0086 16.8755 29.5393 15.5598 28.66C14.2441 27.7808 13.2187 26.531 12.6133 25.0689C12.008 23.6068 11.8499 21.998 12.159 20.446C12.4681 18.894 13.2305 17.4686 14.3499 16.3499L19.9999 10.6899Z" stroke="white" stroke-width="1.5" stroke-linecap="square"/>
</svg>
