<svg width="40" height="40" viewBox="0 0 40 40" fill="none" xmlns="http://www.w3.org/2000/svg">
<path d="M0 20C0 8.95431 8.95431 0 20 0V0C31.0457 0 40 8.95431 40 20V20C40 31.0457 31.0457 40 20 40V40C8.95431 40 0 31.0457 0 20V20Z" fill="#30B0AB"/>
<path d="M25.8857 16.3619C26.1627 16.0856 26.5036 15.8819 26.8781 15.7686C27.2525 15.6554 27.6492 15.6362 28.0329 15.7127C28.4166 15.7892 28.7755 15.9591 29.0779 16.2073C29.3803 16.4556 29.6169 16.7745 29.7667 17.1359C29.9165 17.4973 29.9749 17.8901 29.9368 18.2795C29.8987 18.6689 29.7653 19.0429 29.5482 19.3684C29.3312 19.6939 29.0373 19.961 28.6925 20.1459C28.3477 20.3308 27.9627 20.4279 27.5715 20.4286H10.9048M18.014 13.2416C18.5 13 18.6274 12.9845 18.9275 12.8927C19.2276 12.801 19.5458 12.7849 19.8536 12.8457C20.1615 12.9066 20.4495 13.0426 20.6922 13.2416C20.9348 13.4406 21.1245 13.6965 21.2444 13.9865C21.3643 14.2765 21.4107 14.5916 21.3795 14.9039C21.3483 15.2162 21.2404 15.5159 21.0654 15.7764C20.8904 16.0369 20.6538 16.2501 20.3766 16.3971C20.0993 16.5442 19.79 16.6204 19.4762 16.6191H10.9048L18.014 13.2416ZM20.5 27.5C20.5 27.5 21.4845 27.8727 21.7847 27.9645C22.0848 28.0562 22.4029 28.0723 22.7108 28.0115C23.0186 27.9506 23.3067 27.8146 23.5493 27.6156C23.792 27.4166 23.9817 27.1607 24.1016 26.8707C24.2215 26.5807 24.2679 26.2656 24.2367 25.9533C24.2054 25.641 24.0975 25.3413 23.9226 25.0808C23.7476 24.8203 23.5109 24.6071 23.2337 24.4601C22.9564 24.313 22.6472 24.2368 22.3334 24.2381H10.9048L20.5 27.5Z" stroke="white" stroke-width="1.5" stroke-linecap="square"/>
</svg>
