<svg width="40" height="40" viewBox="0 0 40 40" fill="none" xmlns="http://www.w3.org/2000/svg">
<path d="M0 20C0 8.95431 8.95431 0 20 0V0C31.0457 0 40 8.95431 40 20V20C40 31.0457 31.0457 40 20 40V40C8.95431 40 0 31.0457 0 20V20Z" fill="#30B0AB"/>
<path d="M20 10L10 15L20 20L30 15L20 10Z" stroke="white" stroke-width="1.5" stroke-linecap="square"/>
<path d="M10 22L20 27L30 22" stroke="white" stroke-width="1.5" stroke-linecap="square"/>
<path d="M10 25.5L20 30.5L30 25.5" stroke="white" stroke-width="1.5" stroke-linecap="square"/>
<path d="M10 18.5L20 23.5L30 18.5" stroke="white" stroke-width="1.5" stroke-linecap="square"/>
</svg>
