<svg width="24" height="24" viewBox="0 0 24 24" fill="none" xmlns="http://www.w3.org/2000/svg">
<path d="M21.2 10C21.2 17 12.2 23 12.2 23C12.2 23 3.20001 17 3.20001 10C3.20001 7.61305 4.14822 5.32387 5.83605 3.63604C7.52388 1.94821 9.81306 1 12.2 1C14.587 1 16.8761 1.94821 18.564 3.63604C20.2518 5.32387 21.2 7.61305 21.2 10Z" fill="#30B0AB"/>
<path d="M11.9999 13C13.6568 13 14.9999 11.6569 14.9999 10C14.9999 8.34315 13.6568 7 11.9999 7C10.3431 7 8.99994 8.34315 8.99994 10C8.99994 11.6569 10.3431 13 11.9999 13Z" stroke="white" stroke-width="1.5" stroke-linecap="square"/>
</svg>
