<svg width="48" height="48" viewBox="0 0 48 48" fill="none" xmlns="http://www.w3.org/2000/svg">
<path d="M14.1211 22.125H17.8711V25.875H14.1211V22.125Z" fill="#034EA2"/>
<path d="M22.125 22.125H25.875V25.875H22.125V22.125Z" fill="#034EA2"/>
<path d="M30.1289 22.125H33.8789V25.875H30.1289V22.125Z" fill="#034EA2"/>
<path d="M31.949 35.7184C29.6199 37.3004 26.8488 38.1584 24 38.1584C16.1752 38.1584 9.84155 31.8259 9.84155 24V22.5938H0V24C0 37.2638 10.734 48 24 48C29.4738 48 34.7435 46.1451 38.9817 42.7511L41.9048 45.6742L44.5056 30.5156L29.347 33.1165L31.949 35.7184ZM35.1775 34.9698L41.061 33.9602L40.0514 39.8434L39.1135 38.9055C38.6206 39.2186 33.42 45.1875 24 45.1875C12.6251 45.1875 3.56763 36.3109 2.85828 25.4062H7.08618C7.79517 34.1063 15.0787 40.9709 24 40.9709C31.4641 40.9709 35.5701 36.3018 36.1501 35.9421L35.1775 34.9698Z" fill="#034EA2"/>
<path d="M23.9999 0C18.5389 0 13.2791 1.84753 9.04565 5.22766L6.1438 2.32581L3.54297 17.4844L18.7015 14.8835L16.0773 12.2593C18.4071 10.6729 21.1174 9.84155 23.9999 9.84155C31.8247 9.84155 38.1583 16.1744 38.1583 24V25.4062H47.9999V24C47.9999 10.7362 37.2659 0 23.9999 0ZM40.9137 22.5938C40.2047 13.8937 32.9211 7.02905 23.9999 7.02905C16.5651 7.02905 12.4833 11.6561 11.8732 12.0326L12.8707 13.0305L6.98755 14.0398L7.99683 8.15662L8.91089 9.07068C9.40601 8.75684 14.6018 2.8125 23.9999 2.8125C35.3748 2.8125 44.4323 11.6891 45.142 22.5938H40.9137Z" fill="#034EA2"/>
</svg>
