<svg width="60" height="60" viewBox="0 0 60 60" fill="none" xmlns="http://www.w3.org/2000/svg">
<path d="M56.6721 51.7242H3.32793C1.48966 51.7242 0 50.2345 0 48.3962V11.6038C0 9.76553 1.48966 8.27588 3.32793 8.27588H56.6721C58.5103 8.27588 60 9.76553 60 11.6038V48.3962C60 50.2345 58.5103 51.7242 56.6721 51.7242Z" fill="#034EA2"/>
<path d="M60 13.4482H0V21.7241H60V13.4482Z" fill="#D8D8D8"/>
<path d="M15.5167 28.9655H6.20636C5.63532 28.9655 5.17188 28.502 5.17188 27.931C5.17188 27.3599 5.63532 26.8965 6.20636 26.8965H15.5167C16.0877 26.8965 16.5512 27.3599 16.5512 27.931C16.5512 28.502 16.0877 28.9655 15.5167 28.9655Z" fill="#F9EAB0"/>
<path d="M28.9659 28.9655H19.6556C19.0845 28.9655 18.6211 28.502 18.6211 27.931C18.6211 27.3599 19.0845 26.8965 19.6556 26.8965H28.9659C29.537 26.8965 30.0004 27.3599 30.0004 27.931C30.0004 28.502 29.537 28.9655 28.9659 28.9655Z" fill="#F9EAB0"/>
<path d="M7.24084 34.1378H6.20636C5.63532 34.1378 5.17188 33.6744 5.17188 33.1033C5.17188 32.5323 5.63532 32.0688 6.20636 32.0688H7.24084C7.81187 32.0688 8.27532 32.5323 8.27532 33.1033C8.27532 33.6744 7.81187 34.1378 7.24084 34.1378Z" fill="#F9EAB0"/>
<path d="M13.4472 34.1378H11.3782C10.8072 34.1378 10.3438 33.6744 10.3438 33.1033C10.3438 32.5323 10.8072 32.0688 11.3782 32.0688H13.4472C14.0182 32.0688 14.4817 32.5323 14.4817 33.1033C14.4817 33.6744 14.0182 34.1378 13.4472 34.1378Z" fill="#F9EAB0"/>
<path d="M18.6197 34.1378H17.5853C17.0142 34.1378 16.5508 33.6744 16.5508 33.1033C16.5508 32.5323 17.0142 32.0688 17.5853 32.0688H18.6197C19.1908 32.0688 19.6542 32.5323 19.6542 33.1033C19.6542 33.6744 19.1908 34.1378 18.6197 34.1378Z" fill="#F9EAB0"/>
<path d="M24.8261 34.1378H22.7571C22.1861 34.1378 21.7227 33.6744 21.7227 33.1033C21.7227 32.5323 22.1861 32.0688 22.7571 32.0688H24.8261C25.3971 32.0688 25.8606 32.5323 25.8606 33.1033C25.8606 33.6744 25.3971 34.1378 24.8261 34.1378Z" fill="#F9EAB0"/>
<path d="M28.9642 34.1381C28.6952 34.1381 28.4262 34.0243 28.2297 33.8381C28.0435 33.6415 27.9297 33.3829 27.9297 33.1036C27.9297 32.8346 28.0435 32.5657 28.2297 32.3691C28.6124 31.9863 29.3055 31.9863 29.6987 32.3691C29.8849 32.5657 29.9987 32.8346 29.9987 33.1036C29.9987 33.3725 29.8849 33.6415 29.6987 33.8381C29.5021 34.0243 29.2331 34.1381 28.9642 34.1381Z" fill="#F9EAB0"/>
<path d="M47.5857 40.3451C47.5857 43.7734 44.807 46.552 41.3788 46.552C37.9505 46.552 35.1719 43.7734 35.1719 40.3451C35.1719 36.9168 37.9505 34.1382 41.3788 34.1382C44.807 34.1382 47.5857 36.9168 47.5857 40.3451Z" fill="#DB2215"/>
<path d="M54.8279 40.3451C54.8279 43.7734 52.0492 46.552 48.621 46.552C45.1927 46.552 42.4141 43.7734 42.4141 40.3451C42.4141 36.9168 45.1927 34.1382 48.621 34.1382C52.0492 34.1382 54.8279 36.9168 54.8279 40.3451Z" fill="#E3A400"/>
</svg>
