<svg width="60" height="60" viewBox="0 0 60 60" fill="none" xmlns="http://www.w3.org/2000/svg">
<g clip-path="url(#clip0)">
<path d="M48.6229 34.6543H38.278V37.7578H4.14C3.56871 37.7578 3.10547 38.221 3.10547 38.7923V40.8612C3.10547 41.4325 3.56871 41.8958 4.14 41.8958H48.6227V34.6543H48.6229Z" fill="#625D6B"/>
<path d="M38.9742 11H1.02569C0.459281 11 0 11.5038 0 12.125V36.875C0 37.4962 0.459281 38 1.02569 38H38.9743C39.5407 38 40 37.4962 40 36.875V12.1249C39.9999 11.5036 39.5406 11 38.9742 11Z" fill="#034EA2"/>
<path d="M37.2427 35.6902H3.10484C2.53355 35.6902 2.07031 35.2269 2.07031 34.6556C2.07031 34.0843 2.53355 33.6211 3.10484 33.6211H37.2427C37.814 33.6211 38.2773 34.0843 38.2773 34.6556C38.2773 35.2269 37.814 35.6902 37.2427 35.6902Z" fill="#B5D1FF"/>
<path d="M37.2427 17.0691H3.10484C2.53355 17.0691 2.07031 16.6058 2.07031 16.0345C2.07031 15.4632 2.53355 15 3.10484 15H37.2427C37.814 15 38.2773 15.4632 38.2773 16.0345C38.2773 16.6059 37.814 17.0691 37.2427 17.0691Z" fill="#B5D1FF"/>
<path d="M52.3724 18.1035H43.4486C42.8773 18.1035 42.4141 18.5668 42.4141 19.138V34.6553C42.4141 35.2266 42.8773 35.6898 43.4486 35.6898H48.1037V40.8623H58.9659V33.4727C58.9659 32.2029 58.7321 30.9441 58.2763 29.7591L54.3036 19.4297C53.9962 18.6307 53.2286 18.1035 52.3724 18.1035Z" fill="#B5D1FF"/>
<path d="M58.9637 35.6895H48.1016V40.8619H58.9637V35.6895Z" fill="#00AADC"/>
<path d="M11.8937 46.1215C14.5124 46.1215 16.6352 43.9987 16.6352 41.3801C16.6352 38.7615 14.5124 36.6387 11.8937 36.6387C9.27514 36.6387 7.15234 38.7615 7.15234 41.3801C7.15234 43.9987 9.27514 46.1215 11.8937 46.1215Z" fill="#EDEDEE"/>
<path d="M11.8967 47.0688C8.75926 47.0688 6.20703 44.5166 6.20703 41.3791C6.20703 38.2417 8.75926 35.6895 11.8967 35.6895C15.0342 35.6895 17.5864 38.2417 17.5864 41.3791C17.5864 44.5166 15.0342 47.0688 11.8967 47.0688ZM11.8967 37.7585C9.89996 37.7585 8.27598 39.3824 8.27598 41.3793C8.27598 43.3761 9.89996 44.9999 11.8967 44.9999C13.8935 44.9999 15.5175 43.376 15.5175 41.3791C15.5175 39.3823 13.8936 37.7585 11.8967 37.7585Z" fill="#504B5A"/>
<path d="M11.8971 43.4484C13.0397 43.4484 13.966 42.5221 13.966 41.3795C13.966 40.2368 13.0397 39.3105 11.8971 39.3105C10.7544 39.3105 9.82812 40.2368 9.82812 41.3795C9.82812 42.5221 10.7544 43.4484 11.8971 43.4484Z" fill="#DCDBDE"/>
<path d="M48.1047 46.1215C50.7233 46.1215 52.8461 43.9987 52.8461 41.3801C52.8461 38.7615 50.7233 36.6387 48.1047 36.6387C45.4861 36.6387 43.3633 38.7615 43.3633 41.3801C43.3633 43.9987 45.4861 46.1215 48.1047 46.1215Z" fill="#EDEDEE"/>
<path d="M48.1038 47.0688C44.9663 47.0688 42.4141 44.5166 42.4141 41.3791C42.4141 38.2417 44.9663 35.6895 48.1038 35.6895C51.2412 35.6895 53.7934 38.2417 53.7934 41.3791C53.7933 44.5166 51.2412 47.0688 48.1038 47.0688ZM48.1038 37.7585C46.107 37.7585 44.483 39.3824 44.483 41.3793C44.483 43.3761 46.1069 44.9999 48.1038 44.9999C50.1006 44.9999 51.7245 43.376 51.7245 41.3791C51.7245 39.3823 50.1005 37.7585 48.1038 37.7585Z" fill="#504B5A"/>
<path d="M48.1041 43.4484C49.2468 43.4484 50.173 42.5221 50.173 41.3795C50.173 40.2368 49.2468 39.3105 48.1041 39.3105C46.9615 39.3105 46.0352 40.2368 46.0352 41.3795C46.0352 42.5221 46.9615 43.4484 48.1041 43.4484Z" fill="#DCDBDE"/>
<path d="M57.933 41.8968H58.9675C59.5388 41.8968 60.002 41.4336 60.002 40.8623V38.7933C60.002 38.222 59.5388 37.7588 58.9675 37.7588H57.933C57.3617 37.7588 56.8984 38.222 56.8984 38.7933V40.8623C56.8984 41.4337 57.3617 41.8968 57.933 41.8968Z" fill="#625D6B"/>
<path d="M57.933 33.6211H58.9675V36.7246H57.933C57.3617 36.7246 56.8984 36.2613 56.8984 35.69V34.6555C56.8984 34.0842 57.3617 33.6211 57.933 33.6211Z" fill="#EDEDEE"/>
<path d="M52.0573 20.1719H45.515C44.9437 20.1719 44.4805 20.6351 44.4805 21.2064V26.3788C44.4805 26.9501 44.9437 27.4134 45.515 27.4134H55.1752C55.6998 27.4134 56.0612 26.8872 55.8729 26.3976L53.9886 21.4981C53.6811 20.6991 52.9135 20.1719 52.0573 20.1719Z" fill="#034EA2"/>
</g>
<defs>
<clipPath id="clip0">
<rect width="60" height="60" fill="white"/>
</clipPath>
</defs>
</svg>
