<svg width="60" height="60" viewBox="0 0 60 60" fill="none" xmlns="http://www.w3.org/2000/svg">
<g clip-path="url(#clip0)">
<path d="M56.2385 32.7956H3.75652C1.68536 32.7956 0.0078125 31.118 0.0078125 29.0469V3.74871C0.0078125 1.67755 1.68536 0 3.75652 0H56.2385C58.3096 0 59.9872 1.67755 59.9872 3.74871V29.0488C59.9872 31.118 58.3096 32.7956 56.2385 32.7956Z" fill="#034EA2"/>
<path d="M52.4911 3.74707H7.50652C7.50652 5.81823 5.82898 7.49578 3.75781 7.49578V25.2984C5.82898 25.2984 7.50652 26.976 7.50652 29.0471H52.4911C52.4911 26.976 54.1705 25.2984 56.2398 25.2984V7.49578C54.1705 7.49578 52.4911 5.81823 52.4911 3.74707Z" fill="#F3F7FF"/>
<path d="M52.4886 3.74707H44.5957C43.6529 3.74707 42.7757 4.39185 42.6276 5.3234C42.4402 6.50237 43.3455 7.52015 44.4888 7.52015H46.9911C47.9114 7.52015 48.6555 8.27176 48.6443 9.19207V9.23143C48.6443 9.26705 48.6462 9.30266 48.648 9.34015C48.6968 10.2211 47.9995 10.9446 47.1167 10.9446H45.769C44.8262 10.9446 43.949 11.5894 43.801 12.5209C43.6135 13.6999 44.5188 14.7177 45.6622 14.7177H48.2413C49.1241 14.7177 49.8158 15.458 49.7708 16.3409C49.7689 16.3709 49.7689 16.4008 49.7689 16.4308C49.7689 16.4552 49.7689 16.4796 49.7708 16.5039C49.8064 17.3924 49.1298 18.1421 48.2413 18.1421H42.2115C41.2687 18.1421 40.3915 18.7869 40.2434 19.7166C40.056 20.8955 40.9613 21.9133 42.1047 21.9133H44.337C45.2348 21.9133 45.9658 22.6481 45.9621 23.5459V23.5665C45.9621 23.6021 45.964 23.6396 45.9658 23.6752C46.0146 24.5562 45.3173 25.2797 44.4345 25.2797H43.5873C42.6445 25.2797 41.7673 25.9244 41.6192 26.8541C41.4318 28.0331 42.3371 29.0509 43.4804 29.0509H52.4886C52.4886 26.9797 54.168 25.3022 56.2373 25.3022V7.49578C54.168 7.49578 52.4886 5.81823 52.4886 3.74707Z" fill="#B5D1FF"/>
<path d="M29.9972 25.6731C33.8076 25.6731 36.8967 21.5209 36.8967 16.3988C36.8967 11.2768 33.8076 7.12451 29.9972 7.12451C26.1867 7.12451 23.0977 11.2768 23.0977 16.3988C23.0977 21.5209 26.1867 25.6731 29.9972 25.6731Z" fill="#034EA2"/>
<path d="M16.8376 18.9627C18.2537 18.9627 19.4017 17.8147 19.4017 16.3986C19.4017 14.9825 18.2537 13.8345 16.8376 13.8345C15.4214 13.8345 14.2734 14.9825 14.2734 16.3986C14.2734 17.8147 15.4214 18.9627 16.8376 18.9627Z" fill="#034EA2"/>
<path d="M43.154 18.9627C44.5701 18.9627 45.7181 17.8147 45.7181 16.3986C45.7181 14.9825 44.5701 13.8345 43.154 13.8345C41.7378 13.8345 40.5898 14.9825 40.5898 16.3986C40.5898 17.8147 41.7378 18.9627 43.154 18.9627Z" fill="#034EA2"/>
<path d="M56.6519 50.4145C54.3221 49.2561 50.9407 48.5308 47.1751 48.5308C43.4245 48.5308 40.0451 49.2561 37.7134 50.4145H34.3789V54.2738C34.3789 57.4377 40.1051 60 47.1751 60C54.2602 60 59.9864 57.4377 59.9864 54.2738V50.4145H56.6519Z" fill="#EC9922"/>
<path d="M47.1825 56.1389C54.2558 56.1389 59.9899 53.5726 59.9899 50.4071C59.9899 47.2415 54.2558 44.6753 47.1825 44.6753C40.1091 44.6753 34.375 47.2415 34.375 50.4071C34.375 53.5726 40.1091 56.1389 47.1825 56.1389Z" fill="#FEE218"/>
<path d="M56.6519 44.6806C54.3221 43.5222 50.9407 42.7969 47.1751 42.7969C43.4245 42.7969 40.0451 43.5222 37.7134 44.6806H34.3789V48.5399C34.3789 51.7038 40.1051 54.2661 47.1751 54.2661C54.2602 54.2661 59.9864 51.7038 59.9864 48.5399V44.6806H56.6519Z" fill="#EC9922"/>
<path d="M47.1825 50.4087C54.2558 50.4087 59.9899 47.8417 59.9899 44.6751C59.9899 41.5085 54.2558 38.9414 47.1825 38.9414C40.1091 38.9414 34.375 41.5085 34.375 44.6751C34.375 47.8417 40.1091 50.4087 47.1825 50.4087Z" fill="#FEE218"/>
<path d="M56.6519 38.9492C54.3221 37.7908 50.9407 37.0654 47.1751 37.0654C43.4245 37.0654 40.0451 37.7908 37.7134 38.9492H34.3789V42.8085C34.3789 45.9724 40.1051 48.5346 47.1751 48.5346C54.2602 48.5346 59.9864 45.9724 59.9864 42.8085V38.9492H56.6519Z" fill="#EC9922"/>
<path d="M47.1825 44.6735C54.2558 44.6735 59.9899 42.1073 59.9899 38.9417C59.9899 35.7762 54.2558 33.21 47.1825 33.21C40.1091 33.21 34.375 35.7762 34.375 38.9417C34.375 42.1073 40.1091 44.6735 47.1825 44.6735Z" fill="#FEE218"/>
<path d="M56.6519 33.2153C54.3221 32.0569 50.9407 31.3315 47.1751 31.3315C43.4245 31.3315 40.0451 32.0569 37.7134 33.2153H34.3789V37.0746C34.3789 40.2385 40.1051 42.8007 47.1751 42.8007C54.2602 42.8007 59.9864 40.2385 59.9864 37.0746V33.2153H56.6519Z" fill="#EC9922"/>
<path d="M47.1825 38.9434C54.2558 38.9434 59.9899 36.3763 59.9899 33.2097C59.9899 30.0431 54.2558 27.4761 47.1825 27.4761C40.1091 27.4761 34.375 30.0431 34.375 33.2097C34.375 36.3763 40.1091 38.9434 47.1825 38.9434Z" fill="#FEE218"/>
<path d="M56.6519 27.4838C54.3221 26.3255 50.9407 25.6001 47.1751 25.6001C43.4245 25.6001 40.0451 26.3255 37.7134 27.4838H34.3789V31.3431C34.3789 34.507 40.1051 37.0693 47.1751 37.0693C54.2602 37.0693 59.9864 34.507 59.9864 31.3431V27.4838H56.6519Z" fill="#EC9922"/>
<path d="M47.1825 33.2077C54.2558 33.2077 59.9899 30.6415 59.9899 27.4759C59.9899 24.3103 54.2558 21.7441 47.1825 21.7441C40.1091 21.7441 34.375 24.3103 34.375 27.4759C34.375 30.6415 40.1091 33.2077 47.1825 33.2077Z" fill="#F99F3C"/>
<path d="M47.1792 31.3353C40.1054 31.3353 36.2461 28.7862 36.2461 27.476C36.2461 26.1677 40.1054 23.6167 47.1792 23.6167C54.253 23.6167 58.1123 26.1677 58.1123 27.4779C58.1123 28.7862 54.253 31.3353 47.1792 31.3353Z" fill="#FEE218"/>
<path d="M46.6981 29.1689V27.4838C45.7909 27.3339 45.1255 27.1071 44.7019 26.8016C44.2783 26.4979 44.0665 26.1287 44.0665 25.6938C44.0665 25.2533 44.3064 24.8841 44.7843 24.5861C45.2642 24.2862 45.9015 24.1156 46.6981 24.0687V23.6714H47.7046V24.0687C48.4412 24.1194 49.026 24.2656 49.4609 24.5055C49.8957 24.7454 50.1731 25.0659 50.2931 25.4689L48.5368 25.602C48.43 25.2852 48.1526 25.0715 47.7027 24.9591V26.5317C48.8142 26.706 49.5715 26.9328 49.9726 27.2102C50.3756 27.4876 50.5761 27.8437 50.5761 28.2786C50.5761 28.764 50.3231 29.1726 49.8151 29.5063C49.3072 29.8399 48.6024 30.0423 47.7008 30.1173V30.5428H46.6981V30.1379C45.8977 30.0817 45.2473 29.9092 44.7469 29.6187C44.2464 29.3282 43.9278 28.9196 43.7891 28.391L45.6016 28.2786C45.6765 28.4922 45.8152 28.6778 46.0177 28.8334C46.2201 28.9871 46.4469 29.0995 46.6981 29.1689ZM46.6981 24.9459C46.4244 25.0003 46.207 25.0903 46.0458 25.2196C45.8827 25.3489 45.8021 25.4895 45.8021 25.6451C45.8021 25.7875 45.8752 25.9187 46.0233 26.0406C46.1714 26.1624 46.3963 26.2617 46.6962 26.3367V24.9459H46.6981ZM47.7046 29.2251C48.0514 29.1876 48.3344 29.0939 48.5518 28.9458C48.7692 28.7978 48.8779 28.6216 48.8779 28.421C48.8779 28.2411 48.7861 28.0874 48.6043 27.9562C48.4206 27.8268 48.1226 27.7256 47.7046 27.6563V29.2251Z" fill="#EC9922"/>
<g opacity="0.15">
<path opacity="0.15" d="M34.3767 34.3647V37.0751C34.3767 37.39 34.4479 37.6974 34.5585 37.9991C34.4442 38.3065 34.3711 38.6214 34.3711 38.9438C34.3711 38.9663 34.3767 38.9869 34.3786 39.0075V42.8087C34.3786 43.1236 34.4498 43.431 34.5604 43.7328C34.4461 44.0402 34.373 44.3551 34.373 44.6775C34.373 44.6981 34.3786 44.7187 34.3805 44.7412V48.5424C34.3805 48.8573 34.4517 49.1647 34.5623 49.4646C34.4479 49.772 34.3748 50.0868 34.3748 50.4092C34.3748 50.4317 34.3805 50.4523 34.3823 50.473V54.2742C34.3823 55.9011 35.9043 57.3668 38.3372 58.409C41.3868 55.7905 43.3286 51.9181 43.3286 47.5921C43.323 41.6054 39.6137 36.4771 34.3767 34.3647Z" fill="#010101"/>
</g>
<path d="M29.0653 59.9792C35.9078 59.9792 41.4548 54.4322 41.4548 47.5897C41.4548 40.7472 35.9078 35.2002 29.0653 35.2002C22.2227 35.2002 16.6758 40.7472 16.6758 47.5897C16.6758 54.4322 22.2227 59.9792 29.0653 59.9792Z" fill="#F99F3C"/>
<path d="M29.0623 56.238C33.8386 56.238 37.7106 52.366 37.7106 47.5897C37.7106 42.8134 33.8386 38.9414 29.0623 38.9414C24.286 38.9414 20.4141 42.8134 20.4141 47.5897C20.4141 52.366 24.286 56.238 29.0623 56.238Z" fill="#FEE218"/>
<path d="M28.5768 51.1508V48.2418C27.6696 47.9832 27.0042 47.5896 26.5806 47.0647C26.157 46.5399 25.9452 45.9008 25.9452 45.151C25.9452 44.3919 26.1851 43.7546 26.6631 43.2373C27.1429 42.7219 27.7802 42.4238 28.5768 42.3451V41.6572H29.5834V42.3451C30.32 42.4332 30.9048 42.6844 31.3396 43.0986C31.7745 43.5128 32.0519 44.0676 32.1718 44.7612L30.4156 44.9936C30.3087 44.4481 30.0313 44.077 29.5815 43.8821V46.5962C30.693 46.8961 31.4502 47.2878 31.8513 47.7658C32.2543 48.2456 32.4549 48.8585 32.4549 49.6101C32.4549 50.448 32.2018 51.1546 31.6939 51.7281C31.1878 52.3017 30.483 52.6541 29.5796 52.7834V53.5182H28.5731V52.819C27.7727 52.7216 27.1223 52.4235 26.6219 51.9231C26.1214 51.4226 25.8028 50.7179 25.6641 49.8051L27.4766 49.6101C27.5515 49.9812 27.6902 50.2999 27.8927 50.5679C28.0989 50.8378 28.3257 51.0309 28.5768 51.1508ZM28.5768 43.8615C28.3032 43.9533 28.0857 44.1108 27.9245 44.3338C27.7633 44.555 27.6809 44.8005 27.6809 45.0704C27.6809 45.316 27.7558 45.5446 27.902 45.7546C28.0501 45.9645 28.275 46.1351 28.5749 46.2644V43.8615H28.5768ZM29.5834 51.2483C29.9301 51.1827 30.2131 51.0234 30.4306 50.7647C30.648 50.5079 30.7567 50.2062 30.7567 49.8594C30.7567 49.5483 30.6649 49.2821 30.483 49.0572C30.3012 48.8323 30.0013 48.6598 29.5834 48.5399V51.2483Z" fill="#EC9922"/>
<g opacity="0.25">
<path opacity="0.25" d="M55.5423 44.0947C54.5077 44.0947 53.668 44.9326 53.668 45.9691V56.0456C53.668 57.0821 54.5077 57.92 55.5423 57.92C56.577 57.92 57.4167 57.0821 57.4167 56.0456V45.9691C57.4167 44.9326 56.577 44.0947 55.5423 44.0947Z" fill="white"/>
<path opacity="0.25" d="M55.5423 34.8521C54.5077 34.8521 53.668 35.6899 53.668 36.7264V40.3889C53.668 41.4254 54.5077 42.2633 55.5423 42.2633C56.577 42.2633 57.4167 41.4254 57.4167 40.3889V36.7264C57.4167 35.6918 56.577 34.8521 55.5423 34.8521Z" fill="white"/>
</g>
</g>
<defs>
<clipPath id="clip0">
<rect width="60" height="60" fill="white"/>
</clipPath>
</defs>
</svg>
