<svg width="60" height="60" viewBox="0 0 60 60" fill="none" xmlns="http://www.w3.org/2000/svg">
<path d="M47.5965 7.30489C37.8566 -2.43497 22.123 -2.43497 12.508 7.30489C2.76816 17.0448 2.76816 32.6535 12.508 42.3933L29.9898 60L47.4715 42.5182C57.2114 32.7784 57.2114 17.0448 47.5965 7.30489Z" fill="#034EA2"/>
<path d="M29.9906 8.30371C20.875 8.30371 13.3828 15.671 13.3828 24.9115C13.3828 34.027 20.7501 41.5192 29.9906 41.5192C39.1061 41.5192 46.5983 34.1519 46.5983 24.9115C46.5983 15.671 39.106 8.30371 29.9906 8.30371Z" fill="#F3F3F3"/>
<path d="M29.9903 13.1738L20.625 22.4143V35.7753H39.3555V22.4143L29.9903 13.1738Z" fill="#B5D1FF"/>
<path d="M33.2356 28.2832H26.8672V35.7754H33.2356V28.2832Z" fill="#435B6C"/>
<path d="M41.7291 22.9132L30.9903 12.1744C30.4908 11.6749 29.6168 11.6749 28.9923 12.1744L18.2535 22.9132C17.754 23.4127 17.754 24.2868 18.2535 24.9112C18.7531 25.4107 19.6271 25.4107 20.2515 24.9112L29.9914 15.0464L39.7312 24.7863C39.9809 25.036 40.3556 25.1609 40.7302 25.1609C41.1048 25.1609 41.4794 25.036 41.7291 24.7863C42.2286 24.2869 42.2286 23.4127 41.7291 22.9132Z" fill="#435B6C"/>
</svg>
