<svg width="48" height="48" viewBox="0 0 48 48" fill="none" xmlns="http://www.w3.org/2000/svg">
<g clip-path="url(#clip0)">
<path d="M40.1558 29.933C42.1615 26.8868 43.3308 23.2434 43.3308 19.3312C43.3308 8.67188 34.6586 0 23.9993 0C13.34 0 4.66809 8.67188 4.66809 19.3312C4.66809 23.2434 5.8374 26.8868 7.84277 29.933L0.28125 40.9607L8.93372 39.3475L10.5472 48L17.6781 37.6C19.66 38.2877 21.7866 38.6624 23.9993 38.6624C26.2123 38.6624 28.3389 38.2877 30.3204 37.6L37.4517 48L39.0648 39.3475L47.7173 40.9607L40.1558 29.933ZM12.0762 40.7673L11.1962 36.0476L6.47681 36.928L9.66138 32.2833C11.1866 33.9701 13.0049 35.3866 15.0344 36.4537L12.0762 40.7673ZM7.49707 19.3312C7.49707 10.2319 14.9 2.82898 23.9993 2.82898C33.0989 2.82898 40.5018 10.2319 40.5018 19.3312C40.5018 28.4308 33.0989 35.8337 23.9993 35.8337C14.9 35.8337 7.49707 28.4308 7.49707 19.3312ZM36.8024 36.0476L35.9224 40.7673L32.9645 36.4537C34.994 35.3866 36.8123 33.9701 38.3375 32.2833L41.5221 36.9276L36.8024 36.0476Z" fill="#034EA2"/>
<path d="M20.553 23.5768L15.9534 18.9775L13.9531 20.9778L20.553 27.5776L34.0453 14.0857L32.045 12.0854L20.553 23.5768Z" fill="#034EA2"/>
</g>
<defs>
<clipPath id="clip0">
<rect width="48" height="48" fill="white"/>
</clipPath>
</defs>
</svg>
