<svg width="60" height="60" viewBox="0 0 60 60" fill="none" xmlns="http://www.w3.org/2000/svg">
<path d="M51.7224 26.8965H39.3086V55.8621H51.7224C52.2937 55.8621 52.7569 55.3988 52.7569 54.8275V27.931C52.7569 27.3597 52.2937 26.8965 51.7224 26.8965Z" fill="#034EA2"/>
<path d="M48.6223 26.8965H44.4844V55.862H48.6223V26.8965Z" fill="#B5D1FF"/>
<path d="M42.4121 26.8965H39.3086V55.862H42.4121V26.8965Z" fill="#034EA2"/>
<path d="M36.2078 60H11.3801C9.0948 60 7.24219 58.1473 7.24219 55.8621V12.4138C7.24219 10.1285 9.0948 8.27588 11.3801 8.27588H36.2077C38.4929 8.27588 40.3455 10.1285 40.3455 12.4138V55.8621C40.3457 58.1473 38.493 60 36.2078 60Z" fill="#5B5D6E"/>
<path d="M12.4146 55.8621V12.4138C12.4146 10.1285 14.2672 8.27588 16.5525 8.27588H11.3801C9.0948 8.27588 7.24219 10.1285 7.24219 12.4138V55.8621C7.24219 58.1473 9.0948 60 11.3801 60H16.5525C14.2672 60 12.4146 58.1473 12.4146 55.8621Z" fill="#464655"/>
<path d="M36.2099 16.552H11.3822C10.8104 16.552 10.3477 16.0887 10.3477 15.5174C10.3477 14.9462 10.8103 14.4829 11.3822 14.4829H36.2098C36.7815 14.4829 37.2443 14.9462 37.2443 15.5174C37.2443 16.0888 36.7816 16.552 36.2099 16.552Z" fill="#464655"/>
<path d="M24.3105 39.3103H23.276C22.1333 39.3103 21.207 38.384 21.207 37.2413C21.207 36.0986 22.1333 35.1724 23.276 35.1724H24.3105C25.4532 35.1724 26.3795 36.0986 26.3795 37.2413C26.3795 38.384 25.4532 39.3103 24.3105 39.3103Z" fill="#C7CFE2"/>
<path d="M24.3105 47.5861H23.276C22.1333 47.5861 21.207 46.6599 21.207 45.5172C21.207 44.3745 22.1333 43.4482 23.276 43.4482H24.3105C25.4532 43.4482 26.3795 44.3745 26.3795 45.5172C26.3795 46.6599 25.4532 47.5861 24.3105 47.5861Z" fill="#C7CFE2"/>
<path d="M24.3105 55.862H23.276C22.1333 55.862 21.207 54.9358 21.207 53.7931C21.207 52.6504 22.1333 51.7241 23.276 51.7241H24.3105C25.4532 51.7241 26.3795 52.6504 26.3795 53.7931C26.3795 54.9358 25.4532 55.862 24.3105 55.862Z" fill="#FFDC64"/>
<path d="M33.6191 39.3103H32.5846C31.4419 39.3103 30.5156 38.384 30.5156 37.2413C30.5156 36.0986 31.4419 35.1724 32.5846 35.1724H33.6191C34.7618 35.1724 35.688 36.0986 35.688 37.2413C35.688 38.384 34.7618 39.3103 33.6191 39.3103Z" fill="#C7CFE2"/>
<path d="M33.6191 47.5861H32.5846C31.4419 47.5861 30.5156 46.6599 30.5156 45.5172C30.5156 44.3745 31.4419 43.4482 32.5846 43.4482H33.6191C34.7618 43.4482 35.688 44.3745 35.688 45.5172C35.688 46.6599 34.7618 47.5861 33.6191 47.5861Z" fill="#C7CFE2"/>
<path d="M33.6191 55.862H32.5846C31.4419 55.862 30.5156 54.9358 30.5156 53.7931C30.5156 52.6504 31.4419 51.7241 32.5846 51.7241H33.6191C34.7618 51.7241 35.688 52.6504 35.688 53.7931C35.688 54.9358 34.7618 55.862 33.6191 55.862Z" fill="#C8FF82"/>
<path d="M15.0019 39.3103H13.9674C12.8247 39.3103 11.8984 38.384 11.8984 37.2413C11.8984 36.0986 12.8247 35.1724 13.9674 35.1724H15.0019C16.1446 35.1724 17.0709 36.0986 17.0709 37.2413C17.0709 38.384 16.1446 39.3103 15.0019 39.3103Z" fill="#C7CFE2"/>
<path d="M15.0019 47.5861H13.9674C12.8247 47.5861 11.8984 46.6599 11.8984 45.5172C11.8984 44.3745 12.8247 43.4482 13.9674 43.4482H15.0019C16.1446 43.4482 17.0709 44.3745 17.0709 45.5172C17.0709 46.6599 16.1446 47.5861 15.0019 47.5861Z" fill="#C7CFE2"/>
<path d="M15.0019 55.862H13.9674C12.8247 55.862 11.8984 54.9358 11.8984 53.7931C11.8984 52.6504 12.8247 51.7241 13.9674 51.7241H15.0019C16.1446 51.7241 17.0709 52.6504 17.0709 53.7931C17.0709 54.9358 16.1446 55.862 15.0019 55.862Z" fill="#FF507D"/>
<path d="M35.1721 19.6553H12.4134C11.8421 19.6553 11.3789 20.1185 11.3789 20.6898V30.0001C11.3789 30.5714 11.8421 31.0346 12.4134 31.0346H35.1721C35.7434 31.0346 36.2066 30.5714 36.2066 30.0001V20.6898C36.2066 20.1185 35.7434 19.6553 35.1721 19.6553Z" fill="#034EA2"/>
<path d="M32.3279 1.03453L29.483 0L26.6382 1.03453L23.7933 0L20.9486 1.03453L18.1038 0L15.2589 1.03453L12.4141 0V16.5517H35.1727V0L32.3279 1.03453Z" fill="#B5D1FF"/>
<path d="M31.0318 12.4138H26.8939C26.3221 12.4138 25.8594 11.9505 25.8594 11.3793C25.8594 10.808 26.322 10.3447 26.8939 10.3447H31.0318C31.6036 10.3447 32.0663 10.808 32.0663 11.3793C32.0662 11.9505 31.6036 12.4138 31.0318 12.4138Z" fill="#3852C0"/>
<path d="M22.7571 12.4138H16.5502C15.9784 12.4138 15.5156 11.9505 15.5156 11.3793C15.5156 10.808 15.9783 10.3447 16.5502 10.3447H22.7571C23.3289 10.3447 23.7916 10.808 23.7916 11.3793C23.7915 11.9505 23.3289 12.4138 22.7571 12.4138Z" fill="#3852C0"/>
<path d="M31.0332 8.27609H28.9642C28.3925 8.27609 27.9297 7.81285 27.9297 7.24156C27.9297 6.67027 28.3923 6.20703 28.9642 6.20703H31.0332C31.6049 6.20703 32.0677 6.67027 32.0677 7.24156C32.0677 7.81285 31.6049 8.27609 31.0332 8.27609Z" fill="#3852C0"/>
<path d="M24.8261 8.27609H22.7572C22.1854 8.27609 21.7227 7.81285 21.7227 7.24156C21.7227 6.67027 22.1853 6.20703 22.7572 6.20703H24.8261C25.3979 6.20703 25.8607 6.67027 25.8607 7.24156C25.8607 7.81285 25.398 8.27609 24.8261 8.27609Z" fill="#3852C0"/>
<path d="M18.6191 8.27609H16.5502C15.9784 8.27609 15.5156 7.81285 15.5156 7.24156C15.5156 6.67027 15.9783 6.20703 16.5502 6.20703H18.6191C19.1909 6.20703 19.6536 6.67027 19.6536 7.24156C19.6536 7.81285 19.1909 8.27609 18.6191 8.27609Z" fill="#3852C0"/>
<path d="M35.1727 14.4829H12.4141V16.5519H35.1727V14.4829Z" fill="#D5DCED"/>
<path d="M23.4085 28.5049L27.4957 22.3739C27.6809 22.0962 27.4818 21.7241 27.148 21.7241H21.2413C20.8954 21.7241 20.5725 21.897 20.3806 22.1847L16.289 28.3221C16.1056 28.5972 16.3028 28.9655 16.6333 28.9655H22.5478C22.8938 28.9655 23.2167 28.7926 23.4085 28.5049Z" fill="#F3F7FF"/>
<path d="M28.5792 28.5049L32.6666 22.3739C32.8517 22.0962 32.6526 21.7241 32.3189 21.7241H30.5499C30.204 21.7241 29.8811 21.897 29.6892 22.1847L25.5976 28.3221C25.4142 28.5972 25.6114 28.9655 25.9419 28.9655H27.7184C28.0644 28.9655 28.3874 28.7926 28.5792 28.5049Z" fill="#F3F7FF"/>
</svg>
