<svg width="48" height="48" viewBox="0 0 48 48" fill="none" xmlns="http://www.w3.org/2000/svg">
<path d="M35.1611 23.5789L43.049 13.7996L30.9193 10.5238L24.0557 0L17.1922 10.5238L5.0625 13.7992L12.9503 23.5789L12.3172 36.1272L15.5171 34.9063V47.9998L24.0557 44.4L32.5943 47.9998V34.9063L35.7943 36.1276L35.1611 23.5789ZM29.7763 43.7536L24.0557 41.3417L18.3351 43.7536V33.8307L24.0557 31.6477L29.7763 33.8307V43.7536ZM24.0557 28.6312L15.3494 31.9539L15.8193 22.6469L9.96901 15.3937L18.9654 12.9643L24.0557 5.15883L29.1461 12.9643L38.1425 15.3937L32.2922 22.6469L32.7617 31.9539L24.0557 28.6312Z" fill="#034EA2"/>
</svg>
