<svg width="48" height="48" viewBox="0 0 48 48" fill="none" xmlns="http://www.w3.org/2000/svg">
<g clip-path="url(#clip0)">
<path d="M48 22.693L42.5859 14.1562H31.2814V9.375H0V12.1875H28.4689V31.9688H15.2271C14.6085 29.7169 12.5446 28.0573 10.099 28.0573C7.65344 28.0573 5.58948 29.7169 4.97131 31.9688H1.40625V34.7812H4.97131C5.58948 37.0331 7.65381 38.6927 10.099 38.6927C12.5446 38.6927 14.6085 37.0331 15.2267 34.7812H32.7729C33.3915 37.0331 35.4554 38.6927 37.9006 38.6927C40.3462 38.6927 42.4102 37.0331 43.0283 34.7812H48V22.693ZM10.099 35.8802C8.71765 35.8802 7.59375 34.7563 7.59375 33.375C7.59375 31.9937 8.71765 30.8698 10.099 30.8698C11.4807 30.8698 12.6046 31.9937 12.6046 33.375C12.6046 34.7563 11.4807 35.8802 10.099 35.8802ZM37.901 35.8802C36.5193 35.8802 35.3954 34.7563 35.3954 33.375C35.3954 31.9937 36.5193 30.8698 37.901 30.8698C39.2823 30.8698 40.4062 31.9937 40.4062 33.375C40.4062 34.7563 39.2823 35.8802 37.901 35.8802ZM45.1875 31.9688H43.0287C42.4105 29.7169 40.3462 28.0573 37.901 28.0573C35.4554 28.0573 33.3915 29.7169 32.7729 31.9688H31.281V16.9688H41.0391L45.1875 23.5096V31.9688Z" fill="#034EA2"/>
<path d="M0 14.1562H9.94958V16.9688H0V14.1562Z" fill="#034EA2"/>
<path d="M3.57031 23.4541H13.5195V26.2666H3.57031V23.4541Z" fill="#034EA2"/>
<path d="M1.78516 18.3906H11.7344V21.2031H1.78516V18.3906Z" fill="#034EA2"/>
</g>
<defs>
<clipPath id="clip0">
<rect width="48" height="48" fill="white"/>
</clipPath>
</defs>
</svg>
