<svg width="48" height="48" viewBox="0 0 48 48" fill="none" xmlns="http://www.w3.org/2000/svg">
<path fill-rule="evenodd" clip-rule="evenodd" d="M46.5938 4.40479H42.0938V2.99854C42.0938 2.22217 41.4642 1.59229 40.6875 1.59229H21.2666C19.5081 -0.117182 16.7596 -0.533564 14.5331 0.751836C13.2319 1.50294 12.3014 2.71583 11.9125 4.16712C11.5239 5.61841 11.7235 7.13379 12.4746 8.43494C13.1829 9.66212 14.2874 10.5209 15.5339 10.9442C15.5533 10.9805 15.5739 11.0164 15.5966 11.0515L21.8478 20.6261L9.31824 28.938C7.40295 30.2087 6.29224 32.2423 6.11719 34.3726C3.7738 35.3126 2.16504 37.6139 2.16504 40.2048V45.1853H1.40625C0.629517 45.1853 0 45.8148 0 46.5916C0 47.3679 0.629517 47.9978 1.40625 47.9978H25.3213C26.0977 47.9978 26.7275 47.3679 26.7275 46.5916C26.7275 45.8148 26.0977 45.1853 25.3213 45.1853H24.5625V40.2048C24.5625 39.0059 24.2117 37.8259 23.5668 36.8192L30.8086 32.0149C32.4108 30.9522 33.5043 29.3232 33.8877 27.4277C34.2715 25.5326 33.8972 23.6067 32.8345 22.0042C32.6268 21.6918 24.7427 10.0298 24.7427 10.0298H40.6875C41.4642 10.0298 42.0938 9.40027 42.0938 8.62354V7.21729H46.5938C47.3705 7.21729 48 6.58777 48 5.81104C48 5.03431 47.3705 4.40479 46.5938 4.40479ZM24.2955 19.2305L18.9338 11.0182C19.3524 10.8951 19.7629 10.7212 20.1573 10.4938C20.5261 10.2806 20.8652 10.0298 21.1714 9.74634L27.208 18.7885C26.2321 18.7339 25.2404 18.8785 24.2955 19.2305ZM14.9103 7.02869C14.5345 6.3783 14.4349 5.62024 14.6294 4.89478C14.8235 4.16968 15.2889 3.56324 15.9393 3.18751C16.381 2.93262 16.8636 2.81141 17.3405 2.81141C18.3131 2.81141 19.2601 3.31568 19.7802 4.21692C20.2368 5.00721 20.28 5.97474 19.8966 6.8053C19.6531 7.33265 19.2568 7.76587 18.7511 8.05774C17.4082 8.83301 15.6855 8.37122 14.9103 7.02869ZM4.97754 45.1853V40.2048C4.97754 39.0359 5.57043 37.9743 6.49329 37.3414C6.68738 37.8966 6.95251 38.4368 7.29236 38.9487C8.68103 41.042 10.9797 42.1762 13.3217 42.1762C14.692 42.1762 16.0778 41.7872 17.3031 40.9746L21.2238 38.3734C21.5687 38.922 21.75 39.5479 21.75 40.2048V45.1853H4.97754ZM29.2537 29.6715L15.7482 38.6309C13.7219 39.9752 10.9801 39.4201 9.63574 37.3942C8.29175 35.3679 8.84656 32.6261 10.8728 31.2817L24.3783 22.3224C25.1265 21.8262 25.9724 21.5889 26.8092 21.5889C28.2389 21.5889 29.6429 22.2814 30.4907 23.5595C31.8347 25.5853 31.2799 28.3275 29.2537 29.6715ZM39.2812 7.21729H22.8651L22.775 7.08216C23.0101 6.20472 23.0292 5.28516 22.8344 4.40479H39.2812V7.21729Z" fill="#034EA2"/>
<path fill-rule="evenodd" clip-rule="evenodd" d="M14.3165 34.287C13.887 33.6395 13.0143 33.463 12.3672 33.8922C11.7201 34.3218 11.5436 35.1944 11.9728 35.8415C12.402 36.4886 13.2747 36.6655 13.9221 36.2359C14.5692 35.8067 14.7457 34.9341 14.3165 34.287Z" fill="#034EA2"/>
<path fill-rule="evenodd" clip-rule="evenodd" d="M28.1447 25.1139C27.7151 24.4668 26.8424 24.2899 26.1953 24.7195C25.5482 25.1487 25.3717 26.0214 25.8009 26.6685C26.2301 27.3156 27.1028 27.4925 27.7502 27.0629C28.3973 26.6337 28.5739 25.761 28.1447 25.1139Z" fill="#034EA2"/>
</svg>
