<svg width="56" height="56" viewBox="0 0 56 56" fill="none" xmlns="http://www.w3.org/2000/svg">
<g filter="url(#filter0_d)">
<path d="M23.1719 43.088V47.9495L21.9963 46.9999C21.8147 46.853 17.493 43.3444 13.1106 38.313C7.06519 31.3722 4 25.1418 4 19.7955V19.2656C4 8.69421 12.6005 0.09375 23.1719 0.09375C33.7433 0.09375 42.3438 8.69421 42.3438 19.2656V19.7955C42.3438 20.2445 42.3199 20.7004 42.2767 21.1619L38.5275 17.7415C37.7595 9.94556 31.1663 3.83459 23.1719 3.83459C14.6633 3.83459 7.74084 10.7571 7.74084 19.2656V19.7955C7.74084 28.83 19.3812 39.7668 23.1719 43.088ZM34.6749 40.4011H40.286V34.79H34.6749V40.4011ZM23.1719 11.3163C27.5551 11.3163 31.1212 14.8824 31.1212 19.2656C31.1212 23.6488 27.5551 27.215 23.1719 27.215C18.7887 27.215 15.2225 23.6488 15.2225 19.2656C15.2225 14.8824 18.7887 11.3163 23.1719 11.3163ZM23.1719 15.0571C20.8512 15.0571 18.9634 16.9449 18.9634 19.2656C18.9634 21.5859 20.8512 23.4741 23.1719 23.4741C25.4922 23.4741 27.3804 21.5859 27.3804 19.2656C27.3804 16.9449 25.4922 15.0571 23.1719 15.0571ZM49.479 37.8593L48.4272 36.8998V42.9053C48.4272 45.7017 46.152 47.9766 43.3556 47.9766H31.512C28.7156 47.9766 26.4403 45.7017 26.4403 42.9053V36.8998L25.3885 37.8593L22.8676 35.0958L37.4336 21.8071L52 35.0958L49.479 37.8593ZM44.6864 33.4871L37.4336 26.8707L30.1812 33.4871V42.9049C30.1812 43.6388 30.7781 44.2357 31.512 44.2357H43.3556C44.0895 44.2357 44.6864 43.6388 44.6864 42.9049V33.4871Z" fill="#034EA2"/>
</g>
<defs>
<filter id="filter0_d" x="0" y="0" width="56" height="56" filterUnits="userSpaceOnUse" color-interpolation-filters="sRGB">
<feFlood flood-opacity="0" result="BackgroundImageFix"/>
<feColorMatrix in="SourceAlpha" type="matrix" values="0 0 0 0 0 0 0 0 0 0 0 0 0 0 0 0 0 0 127 0"/>
<feOffset dy="4"/>
<feGaussianBlur stdDeviation="2"/>
<feColorMatrix type="matrix" values="0 0 0 0 0 0 0 0 0 0 0 0 0 0 0 0 0 0 0.25 0"/>
<feBlend mode="normal" in2="BackgroundImageFix" result="effect1_dropShadow"/>
<feBlend mode="normal" in="SourceGraphic" in2="effect1_dropShadow" result="shape"/>
</filter>
</defs>
</svg>
