<svg width="26" height="26" viewBox="0 0 26 26" fill="none" xmlns="http://www.w3.org/2000/svg">
<rect x="0.75" y="0.75" width="24.5" height="24.5" stroke="white" stroke-width="1.5"/>
<path d="M19.1014 17.6549C19.5788 17.6549 19.9652 17.2677 19.9652 16.791C19.9652 16.3134 19.5788 15.9268 19.1014 15.9268C18.6253 15.9268 18.2383 16.3134 18.2383 16.791C18.2383 17.2677 18.6253 17.6549 19.1014 17.6549Z" fill="white"/>
<path d="M19.1014 20.5508C18.6253 20.5508 18.2383 20.938 18.2383 21.4151C18.2383 21.8919 18.6253 22.2791 19.1014 22.2791C19.5788 22.2791 19.9652 21.8919 19.9652 21.4151C19.9652 20.938 19.5788 20.5508 19.1014 20.5508Z" fill="white"/>
<path d="M16.9308 19.8967H21.2767C21.7153 19.8967 22.0708 19.5412 22.0708 19.1026C22.0708 18.6643 21.7153 18.3086 21.2767 18.3086H16.9308C16.4924 18.3086 16.1367 18.6643 16.1367 19.1026C16.1367 19.5412 16.4922 19.8967 16.9308 19.8967Z" fill="white"/>
<path d="M16.9151 7.69113H21.2893C21.7279 7.69113 22.0833 7.33546 22.0833 6.89708C22.0833 6.4585 21.7279 6.10303 21.2893 6.10303H16.9151C16.4766 6.10303 16.1211 6.4585 16.1211 6.89708C16.1211 7.33546 16.4766 7.69113 16.9151 7.69113Z" fill="white"/>
<path d="M9.08225 6.10298H7.68913V4.71007C7.68913 4.27148 7.33347 3.91602 6.89508 3.91602C6.4565 3.91602 6.10103 4.27148 6.10103 4.71007V6.10298H4.70811C4.26953 6.10298 3.91406 6.45845 3.91406 6.89703C3.91406 7.33562 4.26953 7.69109 4.70811 7.69109H6.10083V9.0842C6.10083 9.52278 6.4565 9.87825 6.89488 9.87825C7.33347 9.87825 7.68894 9.52278 7.68894 9.0842V7.69109H9.08225C9.52083 7.69109 9.8763 7.33562 9.8763 6.89703C9.8763 6.45845 9.52083 6.10298 9.08225 6.10298Z" fill="white"/>
<path d="M8.01833 19.103L9.0032 18.1182C9.31325 17.8081 9.31325 17.3053 9.0032 16.9952C8.69316 16.6852 8.19031 16.6852 7.88026 16.9952L6.89539 17.9801L5.91031 16.9952C5.60007 16.6852 5.09741 16.6852 4.78737 16.9952C4.47733 17.3053 4.47733 17.8081 4.78737 18.1182L5.77245 19.103L4.78737 20.0881C4.47713 20.3982 4.47713 20.901 4.78737 21.2111C4.94229 21.3662 5.14561 21.4437 5.34874 21.4437C5.55186 21.4437 5.75519 21.3662 5.91011 21.2111L6.89539 20.226L7.88066 21.2111C8.03558 21.3662 8.23891 21.4437 8.44203 21.4437C8.64536 21.4437 8.84848 21.3662 9.0036 21.2111C9.31364 20.901 9.31364 20.3982 9.0034 20.0881L8.01833 19.103Z" fill="white"/>
<rect x="11.918" width="1.625" height="24.9167" fill="white"/>
<rect x="1.08203" y="13.5415" width="1.625" height="24.9167" transform="rotate(-90 1.08203 13.5415)" fill="white"/>
</svg>
