<svg width="26" height="21" viewBox="0 0 26 21" fill="none" xmlns="http://www.w3.org/2000/svg">
<path d="M0 1.88578C0 -0.737154 -4.95911e-05 1.89258 0 0.362352H1.52337H9.63754L12.9999 0L16.3623 0.362352H24.4765H25.9999L26 1.88578H22.953V3.9911L25.9998 10.0848V10.2646C25.9998 12.3647 24.2913 14.0732 22.1913 14.0732C20.0912 14.0732 18.3827 12.3647 18.3827 10.2646V10.0848L21.4296 3.9911V1.88578H13.7617V9.50291H15.2851V18.6435H19.8554V20.1669H6.14453V18.6435H10.7148V9.50291H12.2382V1.88578H4.57033V3.9911L7.61718 10.0848V10.2646C7.61718 12.3647 5.90866 14.0732 3.80861 14.0732C1.70857 14.0732 4.95911e-05 12.3647 4.95911e-05 10.2646V10.0848L3.0469 3.9911V1.88578H0ZM22.1912 5.87416L20.3768 9.50291H24.0056L22.1912 5.87416ZM22.1912 12.5498C23.1842 12.5498 24.0308 11.9129 24.3452 11.0263H20.0373C20.3517 11.9129 21.1983 12.5498 22.1912 12.5498ZM13.7616 18.6435V11.0263H12.2382V18.6435H13.7616ZM14.2078 0.362352L12.9999 2.15443L11.792 0.362352H14.2078ZM3.80856 5.87416L1.99416 9.50291H5.62291L3.80856 5.87416ZM3.80856 12.5498C4.80153 12.5498 5.6481 11.9129 5.96253 11.0263H1.65459C1.96903 11.9129 2.81559 12.5498 3.80856 12.5498Z" fill="#034EA2"/>
</svg>
