<svg width="45" height="45" viewBox="0 0 45 45" fill="none" xmlns="http://www.w3.org/2000/svg">
<circle cx="22.5" cy="22.5" r="21.75" fill="#034EA2" stroke="#034EA2" stroke-width="1.5"/>
<path d="M11 34.5384V34.5395C11 34.5546 11.0008 34.5693 11.0023 34.5839C11.003 34.5908 11.0042 34.5977 11.0052 34.6045C11.0064 34.6126 11.0073 34.6207 11.009 34.6286C11.0105 34.6363 11.0127 34.6439 11.0145 34.6515C11.0163 34.6585 11.0179 34.6655 11.0199 34.6724C11.0222 34.6798 11.0251 34.687 11.0276 34.6944C11.0302 34.7013 11.0324 34.7083 11.0352 34.7151C11.0381 34.7218 11.0414 34.7284 11.0446 34.7351C11.0479 34.742 11.0511 34.7492 11.0547 34.756C11.0581 34.7623 11.0621 34.7684 11.0658 34.7746C11.0699 34.7814 11.0737 34.7882 11.0781 34.7947C11.0826 34.8015 11.0878 34.808 11.0927 34.8146C11.0968 34.82 11.1007 34.8257 11.1051 34.831C11.1146 34.8426 11.1248 34.8538 11.1357 34.8646C11.1466 34.8754 11.1581 34.8858 11.1698 34.8953C11.1752 34.8998 11.1811 34.9037 11.1868 34.9079C11.1933 34.9128 11.1996 34.9178 11.2063 34.9222C11.213 34.9268 11.22 34.9307 11.227 34.9347C11.2331 34.9383 11.2391 34.9421 11.2452 34.9455C11.2522 34.9492 11.2596 34.9524 11.2668 34.9557C11.2733 34.9588 11.2798 34.962 11.2864 34.9648C11.2934 34.9677 11.3005 34.9699 11.3076 34.9725C11.3148 34.9751 11.322 34.9779 11.3293 34.9801C11.3363 34.9822 11.3435 34.9838 11.3507 34.9856C11.3582 34.9875 11.3658 34.9897 11.3733 34.9911C11.3815 34.9928 11.3897 34.9937 11.3981 34.9949C11.4048 34.9958 11.4115 34.9971 11.4182 34.9977C11.4333 34.9992 11.4485 35 11.464 35H33.6125C33.628 35 33.6432 34.9992 33.6583 34.9977C33.6651 34.9971 33.6718 34.9958 33.6786 34.9949C33.6868 34.9936 33.6951 34.9927 33.7032 34.9911C33.7109 34.9896 33.7185 34.9875 33.7261 34.9856C33.7332 34.9837 33.7403 34.9823 33.7473 34.9801C33.7547 34.9779 33.7619 34.9751 33.7693 34.9724C33.7762 34.9699 33.7834 34.9676 33.7902 34.9648C33.797 34.962 33.8036 34.9588 33.8102 34.9557C33.8173 34.9523 33.8244 34.9492 33.8314 34.9455C33.8376 34.9421 33.8437 34.9383 33.8499 34.9346C33.8567 34.9305 33.8637 34.9266 33.8703 34.9222C33.8771 34.9178 33.8835 34.9127 33.8901 34.9078C33.8956 34.9037 33.9014 34.8997 33.9068 34.8954C33.9182 34.8861 33.9293 34.8762 33.9401 34.8656L33.9408 34.8648L33.9419 34.8637C33.9524 34.8532 33.9623 34.8423 33.9716 34.831C33.9761 34.8255 33.9802 34.8196 33.9844 34.8139C33.9892 34.8076 33.9942 34.8013 33.9986 34.7947C34.0031 34.788 34.0071 34.7809 34.0112 34.774C34.0148 34.768 34.0186 34.762 34.0219 34.756C34.0257 34.7489 34.0289 34.7417 34.0324 34.7345C34.0354 34.728 34.0387 34.7216 34.0414 34.715C34.0444 34.7081 34.0468 34.7009 34.0493 34.6937C34.0518 34.6866 34.0546 34.6796 34.0568 34.6724C34.059 34.6653 34.0606 34.6579 34.0625 34.6507C34.0643 34.6433 34.0664 34.636 34.0679 34.6285C34.0696 34.6201 34.0706 34.6114 34.0718 34.6029C34.0727 34.5965 34.0739 34.5903 34.0746 34.5838C34.0761 34.5688 34.0769 34.5536 34.0769 34.5381V21.4739L34.0768 21.4716C34.0768 21.4575 34.0762 21.4434 34.0748 21.4295L34.0746 21.428L34.0743 21.4255C34.0737 21.42 34.0727 21.4143 34.0719 21.4088C34.0709 21.4019 34.0699 21.395 34.0687 21.3881L34.0681 21.3833C34.0665 21.376 34.0644 21.3686 34.0626 21.3613C34.061 21.355 34.0598 21.3485 34.0579 21.3421L34.057 21.3395C34.0555 21.3351 34.0538 21.3307 34.0523 21.3262C34.0513 21.3235 34.0504 21.3209 34.0494 21.3181C34.0473 21.312 34.0454 21.3058 34.0431 21.2999L34.0416 21.2968C34.0388 21.2903 34.0355 21.2838 34.0325 21.2773C34.0314 21.2752 34.0305 21.2729 34.0294 21.2707C34.0274 21.2668 34.0259 21.2627 34.0239 21.2589L34.0221 21.2559C34.0187 21.2497 34.0149 21.2437 34.0113 21.2377C34.0077 21.2317 34.0044 21.2254 34.0005 21.2196L33.9988 21.2172C33.9965 21.2138 33.9939 21.2107 33.9915 21.2074C33.9891 21.2042 33.9867 21.2008 33.9843 21.1976C33.9805 21.1925 33.9771 21.1872 33.9729 21.1822L33.9718 21.1809C33.9662 21.1741 33.9599 21.1678 33.954 21.1613C33.9498 21.1566 33.9457 21.1518 33.9411 21.1471L31.0142 18.2362V16.9202C31.0142 16.6652 30.8062 16.4584 30.5498 16.4584H29.2263L22.8669 10.1353C22.6856 9.95491 22.3915 9.95491 22.2102 10.1353L15.8514 16.4584H14.5272C14.2706 16.4584 14.0627 16.6652 14.0627 16.9202V18.2374L11.1362 21.147C11.1252 21.1579 11.115 21.1694 11.1053 21.181C11.1009 21.1863 11.0971 21.192 11.0929 21.1975C11.0879 21.204 11.0828 21.2105 11.0783 21.2172C11.0738 21.2238 11.07 21.2307 11.066 21.2374C11.0623 21.2437 11.0584 21.2496 11.055 21.256C11.0527 21.2603 11.0507 21.2646 11.0487 21.2689C11.0474 21.2715 11.0461 21.2742 11.0449 21.2768C11.0416 21.2836 11.0383 21.2901 11.0355 21.2969C11.0327 21.3037 11.0304 21.3106 11.0279 21.3175C11.0253 21.3249 11.0224 21.3321 11.0201 21.3396C11.0186 21.3446 11.0174 21.3498 11.0162 21.3549L11.0147 21.3606C11.0128 21.3682 11.0106 21.3757 11.0091 21.3834L11.0086 21.3854C11.0072 21.3927 11.0065 21.4001 11.0054 21.4075C11.0044 21.4143 11.0031 21.4211 11.0024 21.428L11.0022 21.4293C11.0013 21.4389 11.0012 21.4485 11.0008 21.4581C11.0007 21.4631 11.0002 21.4679 11.0001 21.4729L11 34.5384ZM17.3769 28.0061L11.9288 33.4235V22.5885L17.3769 28.0061ZM12.5856 34.0766L18.0337 28.6593L22.2105 32.8127C22.2976 32.8993 22.4158 32.9479 22.5389 32.9479C22.6621 32.9479 22.7803 32.8993 22.8673 32.8127L27.0439 28.6593L32.4917 34.0766H12.5856ZM33.1484 22.5886V33.4235L27.7007 28.0061L33.1484 22.5886ZM32.9561 21.4736L31.0143 23.4047V19.5425L32.9561 21.4736ZM22.5386 11.1148L27.9128 16.4584H17.1649L22.5386 11.1148ZM14.9916 17.382H30.0854V18.3913C30.0837 18.4143 30.0837 18.4375 30.0854 18.4605V24.3283L22.5388 31.833L14.9916 24.328V17.382ZM14.0627 19.5434V23.4043L12.1212 21.4737L14.0627 19.5434Z" fill="white"/>
<path d="M16.5425 21.6072H28.5327C28.7891 21.6072 28.9971 21.4004 28.9971 21.1454C28.9971 20.8903 28.7891 20.6835 28.5327 20.6835H16.5425C16.286 20.6835 16.0781 20.8903 16.0781 21.1454C16.0781 21.4004 16.286 21.6072 16.5425 21.6072Z" fill="white"/>
<path d="M28.9971 23.4579C28.9971 23.2029 28.7891 22.9961 28.5327 22.9961H16.5425C16.286 22.9961 16.0781 23.2029 16.0781 23.4579C16.0781 23.713 16.286 23.9197 16.5425 23.9197H28.5327C28.7891 23.9197 28.9971 23.713 28.9971 23.4579Z" fill="white"/>
<path d="M11 34.5384V34.5395C11 34.5546 11.0008 34.5693 11.0023 34.5839C11.003 34.5908 11.0042 34.5977 11.0052 34.6045C11.0064 34.6126 11.0073 34.6207 11.009 34.6286C11.0105 34.6363 11.0127 34.6439 11.0145 34.6515C11.0163 34.6585 11.0179 34.6655 11.0199 34.6724C11.0222 34.6798 11.0251 34.687 11.0276 34.6944C11.0302 34.7013 11.0324 34.7083 11.0352 34.7151C11.0381 34.7218 11.0414 34.7284 11.0446 34.7351C11.0479 34.742 11.0511 34.7492 11.0547 34.756C11.0581 34.7623 11.0621 34.7684 11.0658 34.7746C11.0699 34.7814 11.0737 34.7882 11.0781 34.7947C11.0826 34.8015 11.0878 34.808 11.0927 34.8146C11.0968 34.82 11.1007 34.8257 11.1051 34.831C11.1146 34.8426 11.1248 34.8538 11.1357 34.8646C11.1466 34.8754 11.1581 34.8858 11.1698 34.8953C11.1752 34.8998 11.1811 34.9037 11.1868 34.9079C11.1933 34.9128 11.1996 34.9178 11.2063 34.9222C11.213 34.9268 11.22 34.9307 11.227 34.9347C11.2331 34.9383 11.2391 34.9421 11.2452 34.9455C11.2522 34.9492 11.2596 34.9524 11.2668 34.9557C11.2733 34.9588 11.2798 34.962 11.2864 34.9648C11.2934 34.9677 11.3005 34.9699 11.3076 34.9725C11.3148 34.9751 11.322 34.9779 11.3293 34.9801C11.3363 34.9822 11.3435 34.9838 11.3507 34.9856C11.3582 34.9875 11.3658 34.9897 11.3733 34.9911C11.3815 34.9928 11.3897 34.9937 11.3981 34.9949C11.4048 34.9958 11.4115 34.9971 11.4182 34.9977C11.4333 34.9992 11.4485 35 11.464 35H33.6125C33.628 35 33.6432 34.9992 33.6583 34.9977C33.6651 34.9971 33.6718 34.9958 33.6786 34.9949C33.6868 34.9936 33.6951 34.9927 33.7032 34.9911C33.7109 34.9896 33.7185 34.9875 33.7261 34.9856C33.7332 34.9837 33.7403 34.9823 33.7473 34.9801C33.7547 34.9779 33.7619 34.9751 33.7693 34.9724C33.7762 34.9699 33.7834 34.9676 33.7902 34.9648C33.797 34.962 33.8036 34.9588 33.8102 34.9557C33.8173 34.9523 33.8244 34.9492 33.8314 34.9455C33.8376 34.9421 33.8437 34.9383 33.8499 34.9346C33.8567 34.9305 33.8637 34.9266 33.8703 34.9222C33.8771 34.9178 33.8835 34.9127 33.8901 34.9078C33.8956 34.9037 33.9014 34.8997 33.9068 34.8954C33.9182 34.8861 33.9293 34.8762 33.9401 34.8656L33.9408 34.8648L33.9419 34.8637C33.9524 34.8532 33.9623 34.8423 33.9716 34.831C33.9761 34.8255 33.9802 34.8196 33.9844 34.8139C33.9892 34.8076 33.9942 34.8013 33.9986 34.7947C34.0031 34.788 34.0071 34.7809 34.0112 34.774C34.0148 34.768 34.0186 34.762 34.0219 34.756C34.0257 34.7489 34.0289 34.7417 34.0324 34.7345C34.0354 34.728 34.0387 34.7216 34.0414 34.715C34.0444 34.7081 34.0468 34.7009 34.0493 34.6937C34.0518 34.6866 34.0546 34.6796 34.0568 34.6724C34.059 34.6653 34.0606 34.6579 34.0625 34.6507C34.0643 34.6433 34.0664 34.636 34.0679 34.6285C34.0696 34.6201 34.0706 34.6114 34.0718 34.6029C34.0727 34.5965 34.0739 34.5903 34.0746 34.5838C34.0761 34.5688 34.0769 34.5536 34.0769 34.5381V21.4739L34.0768 21.4716C34.0768 21.4575 34.0762 21.4434 34.0748 21.4295L34.0746 21.428L34.0743 21.4255C34.0737 21.42 34.0727 21.4143 34.0719 21.4088C34.0709 21.4019 34.0699 21.395 34.0687 21.3881L34.0681 21.3833C34.0665 21.376 34.0644 21.3686 34.0626 21.3613C34.061 21.355 34.0598 21.3485 34.0579 21.3421L34.057 21.3395C34.0555 21.3351 34.0538 21.3307 34.0523 21.3262C34.0513 21.3235 34.0504 21.3209 34.0494 21.3181C34.0473 21.312 34.0454 21.3058 34.0431 21.2999L34.0416 21.2968C34.0388 21.2903 34.0355 21.2838 34.0325 21.2773C34.0314 21.2752 34.0305 21.2729 34.0294 21.2707C34.0274 21.2668 34.0259 21.2627 34.0239 21.2589L34.0221 21.2559C34.0187 21.2497 34.0149 21.2437 34.0113 21.2377C34.0077 21.2317 34.0044 21.2254 34.0005 21.2196L33.9988 21.2172C33.9965 21.2138 33.9939 21.2107 33.9915 21.2074C33.9891 21.2042 33.9867 21.2008 33.9843 21.1976C33.9805 21.1925 33.9771 21.1872 33.9729 21.1822L33.9718 21.1809C33.9662 21.1741 33.9599 21.1678 33.954 21.1613C33.9498 21.1566 33.9457 21.1518 33.9411 21.1471L31.0142 18.2362V16.9202C31.0142 16.6652 30.8062 16.4584 30.5498 16.4584H29.2263L22.8669 10.1353C22.6856 9.95491 22.3915 9.95491 22.2102 10.1353L15.8514 16.4584H14.5272C14.2706 16.4584 14.0627 16.6652 14.0627 16.9202V18.2374L11.1362 21.147C11.1252 21.1579 11.115 21.1694 11.1053 21.181C11.1009 21.1863 11.0971 21.192 11.0929 21.1975C11.0879 21.204 11.0828 21.2105 11.0783 21.2172C11.0738 21.2238 11.07 21.2307 11.066 21.2374C11.0623 21.2437 11.0584 21.2496 11.055 21.256C11.0527 21.2603 11.0507 21.2646 11.0487 21.2689C11.0474 21.2715 11.0461 21.2742 11.0449 21.2768C11.0416 21.2836 11.0383 21.2901 11.0355 21.2969C11.0327 21.3037 11.0304 21.3106 11.0279 21.3175C11.0253 21.3249 11.0224 21.3321 11.0201 21.3396C11.0186 21.3446 11.0174 21.3498 11.0162 21.3549L11.0147 21.3606C11.0128 21.3682 11.0106 21.3757 11.0091 21.3834L11.0086 21.3854C11.0072 21.3927 11.0065 21.4001 11.0054 21.4075C11.0044 21.4143 11.0031 21.4211 11.0024 21.428L11.0022 21.4293C11.0013 21.4389 11.0012 21.4485 11.0008 21.4581C11.0007 21.4631 11.0002 21.4679 11.0001 21.4729L11 34.5384ZM17.3769 28.0061L11.9288 33.4235V22.5885L17.3769 28.0061ZM12.5856 34.0766L18.0337 28.6593L22.2105 32.8127C22.2976 32.8993 22.4158 32.9479 22.5389 32.9479C22.6621 32.9479 22.7803 32.8993 22.8673 32.8127L27.0439 28.6593L32.4917 34.0766H12.5856ZM33.1484 22.5886V33.4235L27.7007 28.0061L33.1484 22.5886ZM32.9561 21.4736L31.0143 23.4047V19.5425L32.9561 21.4736ZM22.5386 11.1148L27.9128 16.4584H17.1649L22.5386 11.1148ZM14.9916 17.382H30.0854V18.3913C30.0837 18.4143 30.0837 18.4375 30.0854 18.4605V24.3283L22.5388 31.833L14.9916 24.328V17.382ZM14.0627 19.5434V23.4043L12.1212 21.4737L14.0627 19.5434Z" stroke="white" stroke-width="0.4"/>
<path d="M16.5425 21.6072H28.5327C28.7891 21.6072 28.9971 21.4004 28.9971 21.1454C28.9971 20.8903 28.7891 20.6835 28.5327 20.6835H16.5425C16.286 20.6835 16.0781 20.8903 16.0781 21.1454C16.0781 21.4004 16.286 21.6072 16.5425 21.6072Z" stroke="white" stroke-width="0.4"/>
<path d="M28.9971 23.4579C28.9971 23.2029 28.7891 22.9961 28.5327 22.9961H16.5425C16.286 22.9961 16.0781 23.2029 16.0781 23.4579C16.0781 23.713 16.286 23.9197 16.5425 23.9197H28.5327C28.7891 23.9197 28.9971 23.713 28.9971 23.4579Z" stroke="white" stroke-width="0.4"/>
</svg>
