<svg width="45" height="45" viewBox="0 0 45 45" fill="none" xmlns="http://www.w3.org/2000/svg">
<circle cx="22.5" cy="22.5" r="21.75" fill="#034EA2" stroke="#034EA2" stroke-width="1.5"/>
<g filter="url(#filter0_d)">
<path d="M22.6393 10.0002L22.5989 10C17.3061 10 13 14.2703 13 19.5193C13 22.3971 14.4833 24.6416 16.1361 26.8768L22.5861 35.6C22.5861 35.6 28.6826 27.3926 29.0639 26.877C30.7167 24.6418 32.2 22.3973 32.2 19.5195C32.2 14.2834 27.915 10.0209 22.6393 10.0002ZM27.8443 25.99C27.4626 26.5064 23.4573 31.9461 22.6054 33.0898L17.3557 25.99C15.8001 23.8861 14.5125 21.9471 14.5125 19.5193C14.5125 15.1098 18.1195 11.5199 22.5613 11.4998H22.6001C27.0596 11.4998 30.6877 15.0975 30.6877 19.5195C30.6877 21.9473 29.3999 23.8861 27.8443 25.99Z" fill="white"/>
<path d="M22.5999 14.2667C19.659 14.2667 17.2666 16.6592 17.2666 19.5999C17.2666 22.5408 19.659 24.9333 22.5999 24.9333C25.5407 24.9333 27.9333 22.5408 27.9333 19.5999C27.9333 16.6592 25.5407 14.2667 22.5999 14.2667ZM22.5999 23.4777C20.4616 23.4777 18.722 21.7382 18.722 19.5999C18.722 17.4617 20.4616 15.7222 22.5999 15.7222C24.7381 15.7222 26.4779 17.4617 26.4779 19.5999C26.4779 21.7382 24.7381 23.4777 22.5999 23.4777Z" fill="white"/>
<path d="M22.6393 10.0002L22.5989 10C17.3061 10 13 14.2703 13 19.5193C13 22.3971 14.4833 24.6416 16.1361 26.8768L22.5861 35.6C22.5861 35.6 28.6826 27.3926 29.0639 26.877C30.7167 24.6418 32.2 22.3973 32.2 19.5195C32.2 14.2834 27.915 10.0209 22.6393 10.0002ZM27.8443 25.99C27.4626 26.5064 23.4573 31.9461 22.6054 33.0898L17.3557 25.99C15.8001 23.8861 14.5125 21.9471 14.5125 19.5193C14.5125 15.1098 18.1195 11.5199 22.5613 11.4998H22.6001C27.0596 11.4998 30.6877 15.0975 30.6877 19.5195C30.6877 21.9473 29.3999 23.8861 27.8443 25.99Z" stroke="white" stroke-width="0.4"/>
<path d="M22.5999 14.2667C19.659 14.2667 17.2666 16.6592 17.2666 19.5999C17.2666 22.5408 19.659 24.9333 22.5999 24.9333C25.5407 24.9333 27.9333 22.5408 27.9333 19.5999C27.9333 16.6592 25.5407 14.2667 22.5999 14.2667ZM22.5999 23.4777C20.4616 23.4777 18.722 21.7382 18.722 19.5999C18.722 17.4617 20.4616 15.7222 22.5999 15.7222C24.7381 15.7222 26.4779 17.4617 26.4779 19.5999C26.4779 21.7382 24.7381 23.4777 22.5999 23.4777Z" stroke="white" stroke-width="0.4"/>
</g>
<defs>
<filter id="filter0_d" x="8.80078" y="9.7998" width="27.6" height="34.1359" filterUnits="userSpaceOnUse" color-interpolation-filters="sRGB">
<feFlood flood-opacity="0" result="BackgroundImageFix"/>
<feColorMatrix in="SourceAlpha" type="matrix" values="0 0 0 0 0 0 0 0 0 0 0 0 0 0 0 0 0 0 127 0"/>
<feOffset dy="4"/>
<feGaussianBlur stdDeviation="2"/>
<feColorMatrix type="matrix" values="0 0 0 0 0 0 0 0 0 0 0 0 0 0 0 0 0 0 0.25 0"/>
<feBlend mode="normal" in2="BackgroundImageFix" result="effect1_dropShadow"/>
<feBlend mode="normal" in="SourceGraphic" in2="effect1_dropShadow" result="shape"/>
</filter>
</defs>
</svg>
