<svg width="45" height="45" viewBox="0 0 45 45" fill="none" xmlns="http://www.w3.org/2000/svg">
<circle cx="22.5" cy="22.5" r="21.75" fill="#034EA2" stroke="#034EA2" stroke-width="1.5"/>
<path d="M32.1545 26.0969C30.7463 26.0969 29.3637 25.8766 28.0535 25.4436C27.4003 25.2209 26.6565 25.3937 26.2304 25.828L23.6443 27.7802C20.6451 26.1793 18.7977 24.3325 17.2186 21.3558L19.1134 18.8371C19.6057 18.3454 19.7822 17.6273 19.5707 16.9535C19.1358 15.6364 18.9149 14.2544 18.9149 12.8456C18.915 11.8279 18.0871 11 17.0694 11H12.8455C11.8279 11 11 11.8279 11 12.8455C11 24.5103 20.4898 34 32.1545 34C33.1721 34 34.0001 33.1721 34.0001 32.1544V27.9424C34 26.9248 33.1721 26.0969 32.1545 26.0969ZM32.7222 32.1545C32.7222 32.4677 32.4677 32.7222 32.1545 32.7222C21.1941 32.7222 12.2778 23.8058 12.2778 12.8456C12.2778 12.5324 12.5324 12.2778 12.8456 12.2778H17.0695C17.3827 12.2778 17.6372 12.5324 17.6372 12.8456C17.6372 14.391 17.8799 15.9077 18.3547 17.3446C18.4209 17.5568 18.3672 17.7764 18.1526 17.9998L15.9564 20.9084C15.8092 21.1036 15.786 21.3651 15.8965 21.5828C17.689 25.1061 19.8671 27.2842 23.4153 29.1023C23.6311 29.2152 23.8957 29.1915 24.0916 29.0436L27.0671 26.7894C27.2174 26.6391 27.4427 26.5854 27.6461 26.6547C29.0929 27.1326 30.6097 27.3747 32.1545 27.3747C32.4677 27.3747 32.7222 27.6292 32.7222 27.9424V32.1545Z" fill="white" stroke="white" stroke-width="0.4"/>
</svg>
