<svg width="5" height="20" viewBox="0 0 5 20" fill="none" xmlns="http://www.w3.org/2000/svg">
<path d="M4.1416 13.3252H1.09473L0.663086 0.515625H4.57324L4.1416 13.3252ZM2.61816 15.3311C3.236 15.3311 3.73112 15.513 4.10352 15.877C4.48438 16.2409 4.6748 16.7064 4.6748 17.2734C4.6748 17.832 4.48438 18.2933 4.10352 18.6572C3.73112 19.0212 3.236 19.2031 2.61816 19.2031C2.00879 19.2031 1.51367 19.0212 1.13281 18.6572C0.760417 18.2933 0.574219 17.832 0.574219 17.2734C0.574219 16.7148 0.760417 16.2536 1.13281 15.8896C1.51367 15.5173 2.00879 15.3311 2.61816 15.3311Z" fill="#034EA2"/>
</svg>
