<svg width="16" height="16" viewBox="0 0 16 16" fill="none" xmlns="http://www.w3.org/2000/svg">
<g clip-path="url(#clip0)">
<path d="M5 8.00001C6.10304 8.00001 7.00001 7.10304 7.00001 6C7.00001 4.89697 6.10304 4 5 4C3.89697 4 3 4.89697 3 6C3 7.10304 3.89697 8.00001 5 8.00001ZM5 5.00002C5.55128 5.00002 5.99999 5.44873 5.99999 6C5.99999 6.55128 5.55128 6.99999 5 6.99999C4.44873 6.99999 4.00002 6.55128 4.00002 6C4.00002 5.44873 4.44873 5.00002 5 5.00002Z" fill="white" stroke="white" stroke-width="0.5"/>
<path d="M15.5 2H0.500009C0.22362 2 0 2.22362 0 2.50001V13.5C0 13.7763 0.22362 14 0.500009 14H15.5C15.7763 14 16 13.7764 16 13.5V2.50001C16 2.22362 15.7763 2 15.5 2V2ZM0.999986 2.99999H15V11.7929L10.3535 7.14647C10.1582 6.95116 9.84181 6.95116 9.64649 7.14647L3.79296 13H0.999986C0.999986 13 0.999986 3.00002 0.999986 2.99999V2.99999ZM14.793 13H5.20704L10 8.20699C10 8.20703 14.793 13 14.793 13Z" fill="white" stroke="white" stroke-width="0.5"/>
</g>
<defs>
<clipPath id="clip0">
<rect width="16" height="16" fill="white"/>
</clipPath>
</defs>
</svg>
