<svg width="45" height="60" viewBox="0 0 45 60" fill="none" xmlns="http://www.w3.org/2000/svg">
<path d="M43.5 60H3.1875C2.93886 60 2.7004 59.9012 2.52459 59.7254C2.34877 59.5496 2.25 59.3111 2.25 59.0625V0.9375C2.25 0.68886 2.34877 0.450403 2.52459 0.274587C2.7004 0.0987721 2.93886 0 3.1875 0L33.8081 0C34.0567 5.30976e-05 34.2952 0.09886 34.4709 0.274687L44.1628 9.96656C44.3386 10.1423 44.4374 10.3808 44.4375 10.6294V59.0625C44.4375 59.3111 44.3387 59.5496 44.1629 59.7254C43.9871 59.9012 43.7486 60 43.5 60Z" fill="url(#paint0_linear)"/>
<path d="M-2.4375 30.8868L1.3125 29.2302L3.93 33.2474H-2.4375V30.8868Z" fill="url(#paint1_linear)"/>
<path d="M42.5625 60H2.25C2.00136 60 1.7629 59.9012 1.58709 59.7254C1.41127 59.5496 1.3125 59.3111 1.3125 59.0625V0.9375C1.3125 0.68886 1.41127 0.450403 1.58709 0.274587C1.7629 0.0987721 2.00136 0 2.25 0L33.2588 0L43.5 10.2413V59.0625C43.5 59.3111 43.4012 59.5496 43.2254 59.7254C43.0496 59.9012 42.8111 60 42.5625 60Z" fill="url(#paint2_linear)"/>
<path d="M33.2578 0V9.30375C33.2578 9.55239 33.3566 9.79085 33.5324 9.96666C33.7082 10.1425 33.9467 10.2413 34.1953 10.2413H43.4991L38.9053 4.71L33.2578 0Z" fill="url(#paint3_linear)"/>
<path d="M34.1456 49.2188H-0.778124C-0.996071 49.2189 -1.21191 49.1761 -1.41329 49.0927C-1.61467 49.0094 -1.79764 48.8872 -1.95175 48.7331C-2.10587 48.579 -2.22809 48.396 -2.31144 48.1946C-2.39479 47.9932 -2.43762 47.7774 -2.4375 47.5594V32.5444H34.1456C34.5856 32.5447 35.0076 32.7196 35.3187 33.0307C35.6298 33.3419 35.8048 33.7638 35.805 34.2038V47.5594C35.805 47.9995 35.6302 48.4216 35.319 48.7328C35.0078 49.044 34.5857 49.2188 34.1456 49.2188Z" fill="url(#paint4_linear)"/>
<path d="M1.3125 29.2302H-0.779999C-0.997621 29.2301 -1.21313 29.2729 -1.41423 29.3561C-1.61532 29.4392 -1.79805 29.5613 -1.95197 29.7151C-2.1059 29.8689 -2.228 30.0516 -2.31131 30.2526C-2.39462 30.4537 -2.4375 30.6692 -2.4375 30.8868C-2.43762 31.1045 -2.39483 31.3201 -2.31158 31.5212C-2.22833 31.7224 -2.10624 31.9052 -1.9523 32.0591C-1.79837 32.213 -1.6156 32.3351 -1.41444 32.4184C-1.21329 32.5016 -0.997699 32.5444 -0.779999 32.5443H1.3125V29.2302Z" fill="url(#paint5_linear)"/>
<path d="M5.0625 44.0952V37.6696C5.06238 37.5626 5.08333 37.4567 5.12417 37.3579C5.16501 37.259 5.22493 37.1692 5.30051 37.0935C5.37609 37.0179 5.46584 36.9579 5.56463 36.9169C5.66342 36.8759 5.76931 36.8549 5.87625 36.8549C7.12036 36.8071 8.36629 36.8475 9.60469 36.9758C10.1058 37.1212 10.5413 37.4351 10.8377 37.8646C11.1341 38.294 11.2731 38.8126 11.2313 39.3327C11.2682 39.884 11.1078 40.4305 10.7787 40.8743C10.4496 41.3182 9.97328 41.6304 9.435 41.7552C8.61046 41.8539 7.77983 41.8924 6.94969 41.8705C6.88032 41.8705 6.81379 41.898 6.76474 41.9471C6.71568 41.9962 6.68813 42.0627 6.68813 42.1321V44.0952C6.68813 44.2019 6.6671 44.3076 6.62625 44.4062C6.58541 44.5048 6.52554 44.5944 6.45006 44.6699C6.37458 44.7454 6.28498 44.8053 6.18636 44.8461C6.08775 44.887 5.98205 44.908 5.87531 44.908C5.65974 44.908 5.453 44.8224 5.30057 44.6699C5.14814 44.5175 5.0625 44.3107 5.0625 44.0952ZM6.68813 38.4796V40.2411C6.68813 40.3105 6.71568 40.377 6.76474 40.4261C6.81379 40.4751 6.88032 40.5027 6.94969 40.5027C7.59029 40.5468 8.23393 40.5043 8.86313 40.3761C9.08564 40.2876 9.27315 40.1289 9.39712 39.924C9.5211 39.7191 9.57475 39.4794 9.54991 39.2412C9.52508 39.003 9.42311 38.7795 9.25954 38.6046C9.09596 38.4297 8.87973 38.3131 8.64375 38.2724C8.08045 38.2238 7.51496 38.2054 6.94969 38.2171C6.91534 38.2172 6.88135 38.2241 6.84966 38.2373C6.81798 38.2506 6.78921 38.27 6.76501 38.2943C6.74081 38.3187 6.72165 38.3476 6.70861 38.3794C6.69558 38.4112 6.68894 38.4452 6.68906 38.4796H6.68813Z" fill="white"/>
<path d="M12.5625 37.6697C12.5624 37.5627 12.5833 37.4568 12.6242 37.358C12.665 37.2591 12.7249 37.1693 12.8005 37.0937C12.8761 37.018 12.9658 36.958 13.0646 36.917C13.1634 36.8761 13.2693 36.855 13.3762 36.855C14.6083 36.7814 15.8446 36.8329 17.0662 37.0087C17.539 37.1616 17.9671 37.4282 18.313 37.785C18.6588 38.1418 18.9119 38.578 19.05 39.0553C19.2403 39.6712 19.3292 40.314 19.3134 40.9584C19.3257 41.5394 19.2421 42.1184 19.0659 42.6722C18.9367 43.1591 18.6843 43.6046 18.3332 43.9658C17.982 44.327 17.5437 44.5918 17.0606 44.7347C15.8406 44.9074 14.607 44.9645 13.3762 44.9053C13.1609 44.9053 12.9544 44.82 12.8018 44.668C12.6493 44.516 12.5632 44.3097 12.5625 44.0944V37.6697ZM14.1881 38.4797V43.29C14.1881 43.3594 14.2157 43.4259 14.2647 43.4749C14.3138 43.524 14.3803 43.5515 14.4497 43.5515C15.096 43.5872 15.7442 43.5615 16.3856 43.4747C16.6562 43.4178 16.9036 43.2815 17.0963 43.0833C17.289 42.8851 17.4182 42.6339 17.4675 42.3619C17.5919 41.8806 17.6475 41.3841 17.6325 40.8872C17.6499 40.4038 17.5942 39.9205 17.4675 39.4537C17.3964 39.1642 17.2438 38.901 17.0278 38.6955C16.8118 38.49 16.5415 38.3507 16.2487 38.294C15.6499 38.2281 15.0473 38.2025 14.445 38.2172C14.3761 38.2182 14.3104 38.2463 14.2621 38.2954C14.2139 38.3446 14.1869 38.4108 14.1872 38.4797H14.1881Z" fill="white"/>
<path d="M20.6992 44.0953V37.6697C20.6992 37.4536 20.7851 37.2464 20.9378 37.0936C21.0906 36.9408 21.2978 36.855 21.5139 36.855H25.5386C25.7194 36.855 25.8927 36.9268 26.0205 37.0546C26.1484 37.1824 26.2202 37.3558 26.2202 37.5365C26.2202 37.626 26.2025 37.7146 26.1683 37.7972C26.134 37.8799 26.0838 37.9549 26.0205 38.0182C25.9572 38.0814 25.882 38.1315 25.7993 38.1656C25.7167 38.1998 25.6281 38.2173 25.5386 38.2172H22.5911C22.5567 38.2172 22.5226 38.224 22.4908 38.2372C22.459 38.2504 22.4301 38.2697 22.4058 38.2941C22.3815 38.3185 22.3623 38.3474 22.3492 38.3793C22.3361 38.4111 22.3294 38.4452 22.3295 38.4797V39.8615C22.3294 39.896 22.3361 39.9301 22.3492 39.9619C22.3623 39.9938 22.3815 40.0227 22.4058 40.0471C22.4301 40.0715 22.459 40.0908 22.4908 40.104C22.5226 40.1173 22.5567 40.124 22.5911 40.124H25.0098C25.1904 40.124 25.3637 40.1957 25.4915 40.3233C25.6192 40.451 25.6912 40.6241 25.6914 40.8047C25.6912 40.9854 25.6193 41.1586 25.4915 41.2863C25.3637 41.4141 25.1905 41.486 25.0098 41.4862H22.5911C22.5567 41.4862 22.5227 41.493 22.491 41.5061C22.4593 41.5193 22.4304 41.5386 22.4061 41.5628C22.3819 41.5871 22.3626 41.616 22.3494 41.6477C22.3363 41.6794 22.3295 41.7135 22.3295 41.7478V44.0916C22.3293 44.3072 22.2434 44.514 22.0909 44.6664C21.9383 44.8188 21.7314 44.9044 21.5158 44.9044C21.409 44.9049 21.3033 44.8843 21.2044 44.8439C21.1056 44.8035 21.0158 44.7441 20.9399 44.669C20.8641 44.5938 20.8038 44.5045 20.7625 44.4061C20.7212 44.3076 20.6997 44.202 20.6992 44.0953Z" fill="white"/>
<defs>
<linearGradient id="paint0_linear" x1="23.3438" y1="-29.9878" x2="23.3438" y2="-27.5822" gradientUnits="userSpaceOnUse">
<stop stop-color="#F3F7FF"/>
<stop offset="0.99" stop-color="#B5D1FF"/>
</linearGradient>
<linearGradient id="paint1_linear" x1="0.74625" y1="28.5458" x2="0.74625" y2="112.218" gradientUnits="userSpaceOnUse">
<stop stop-color="#FF5252"/>
<stop offset="1" stop-color="#D50000"/>
</linearGradient>
<linearGradient id="paint2_linear" x1="1414.59" y1="-325.74" x2="1414.59" y2="9238.62" gradientUnits="userSpaceOnUse">
<stop stop-color="#F3F7FF"/>
<stop offset="0.99" stop-color="#B5D1FF"/>
</linearGradient>
<linearGradient id="paint3_linear" x1="550.83" y1="-239.942" x2="550.83" y2="-40.9548" gradientUnits="userSpaceOnUse">
<stop stop-color="#F3F7FF"/>
<stop offset="0.99" stop-color="#B5D1FF"/>
</linearGradient>
<linearGradient id="paint4_linear" x1="1045.25" y1="574.762" x2="1045.25" y2="1449.07" gradientUnits="userSpaceOnUse">
<stop stop-color="#034EA2"/>
<stop offset="1" stop-color="#D50000"/>
</linearGradient>
<linearGradient id="paint5_linear" x1="31.3125" y1="83.3191" x2="31.3125" y2="173.922" gradientUnits="userSpaceOnUse">
<stop stop-color="#034EA2"/>
<stop offset="1" stop-color="#003168"/>
</linearGradient>
</defs>
</svg>
