<svg width="75" height="75" viewBox="0 0 75 75" fill="none" xmlns="http://www.w3.org/2000/svg">
<path d="M75 0H0V75H75V0Z" fill="#034EA2"/>
<path fill-rule="evenodd" clip-rule="evenodd" d="M26.4093 35.8293L27.141 38.0245H29.5452L27.4546 39.2788L28.1863 41.4739L26.4093 40.1151L24.5278 41.4739L25.2595 39.2788L23.2734 38.0245H25.6776L26.4093 35.8293ZM26.4093 43.3555L27.141 45.5506H29.5452L27.4546 46.805L28.1863 49.0001L26.4093 47.6412L24.5278 49.0001L25.2595 46.805L23.2734 45.5506H25.6776L26.4093 43.3555ZM26.4093 50.359L27.141 52.5541H29.5452L27.4546 53.913L28.1863 56.1081L26.4093 54.7492L24.5278 56.1081L25.2595 53.913L23.2734 52.5541H25.6776L26.4093 50.359ZM33.9355 50.359L34.6672 52.5541H37.0713L35.0853 53.913L35.817 56.1081L33.9355 54.7492L32.0539 56.1081L32.7856 53.913L30.7996 52.5541H33.2038L33.9355 50.359ZM41.148 50.359L41.8797 52.5541H44.1794L42.2978 53.913L43.0295 56.1081L41.148 54.7492L39.1619 56.1081L39.8936 53.913L38.0121 52.5541H40.4163L41.148 50.359ZM48.3605 50.568L49.0923 52.7631H51.4964L49.5104 54.122L50.2421 56.3172L48.3605 54.9583L46.479 56.3172L47.2107 54.122L45.2247 52.7631H47.6288L48.3605 50.568ZM48.3605 43.5645L49.0923 45.7597H51.4964L49.5104 47.1185L50.2421 49.3137L48.3605 47.8503L46.479 49.2091L47.2107 47.014L45.2247 45.7597H47.6288L48.3605 43.5645ZM48.3605 36.0384L49.0923 38.2335H51.4964L49.5104 39.5924L50.2421 41.7875L48.3605 40.3241L46.479 41.683L47.2107 39.4879L45.2247 38.2335H47.6288L48.3605 36.0384Z" fill="white"/>
<path fill-rule="evenodd" clip-rule="evenodd" d="M20.1359 34.784L19.4042 36.9791H17L18.8815 38.338L18.1498 40.5331L20.0314 39.1742L21.9129 40.5331L21.1812 38.338L23.1672 36.9791H20.7631L20.1359 34.784ZM26.4077 29.1394L27.1394 31.3345H29.5436L27.453 32.6934L28.1847 34.8885L26.4077 33.5296L24.5261 34.8885L25.2578 32.6934L23.2718 31.3345H25.676L26.4077 29.1394ZM31.9477 24.331L32.6794 26.5261H34.9791L33.0976 27.885L33.8293 30.0801L31.9477 28.7213L30.0662 30.0801L30.7979 27.885L28.8118 26.5261H31.216L31.9477 24.331ZM37.6969 19L38.4286 21.1951H40.8328L38.8467 22.4495L39.5784 24.6446L37.6969 23.2857L35.8153 24.6446L36.547 22.4495L34.561 21.0906H36.9652L37.6969 19ZM42.9233 24.331L43.6551 26.5261H46.0592L44.1777 27.7805L44.9094 29.9756L43.0279 28.6167L41.0418 29.9756L41.7735 27.7805L39.892 26.4216H42.2962L42.9233 24.331ZM48.3589 29.1394L49.0906 31.3345H51.4948L49.5087 32.6934L50.2404 34.8885L48.3589 33.5296L46.4774 34.8885L47.2091 32.6934L45.223 31.3345H47.6272L48.3589 29.1394ZM54.5261 34.784L53.7944 36.9791H51.3902L53.2718 38.338L52.5401 40.4286L54.5261 39.0697L56.4077 40.4286L55.676 38.2334L57.662 36.8746H55.2578L54.5261 34.784Z" fill="#FFF12D"/>
</svg>
