<svg width="170" height="46" viewBox="0 0 170 46" fill="none" xmlns="http://www.w3.org/2000/svg">
<g clip-path="url(#clip0_445_1291)">
<path d="M113.755 1.8039C115.543 1.8039 117.026 3.28677 117.026 5.07493V37.2183L93.2131 1.41138H88.1975H85.1445V1.8039C86.9327 1.8039 88.4156 3.24315 88.4156 5.07493V40.9254C88.4156 42.7136 86.9763 44.1964 85.1445 44.1964H88.4156H85.1445V44.589H92.5589V44.1964C90.7707 44.1964 89.2878 42.7572 89.2878 40.9254V2.63256L117.026 45.0687H117.898V5.07493C117.898 3.28677 119.338 1.8039 121.169 1.8039H117.898H121.169V1.41138H113.755V1.8039Z" fill="black"/>
<path d="M30.3939 1.45475V1.84727V11.0062H30.2631H30.0014H29.9142C29.9142 5.94696 25.8581 1.84727 20.8425 1.80366H11.7709C9.98272 1.80366 8.49985 3.24291 8.49985 5.07469V1.80366V21.866H14.8238C17.397 21.866 19.5341 19.7725 19.5341 17.1557H19.9266V21.866V22.6946V27.1868H19.5341V26.9688C19.5341 24.6572 17.7023 22.7819 15.4344 22.6946H8.45624V40.9688C8.45624 42.7569 9.89549 44.2398 11.7273 44.2398H8.45624H21.1478C26.2506 44.1962 30.3939 40.0965 30.3939 34.9937V34.1214H30.8301V44.1962V44.5451V44.4579H0.998287V44.1526C2.78645 44.1526 4.26932 42.7133 4.26932 40.8816V5.07469C4.26932 3.28652 2.83006 1.80366 0.998287 1.80366H4.2257H0.954674V1.41113H30.0014L30.3939 1.45475Z" fill="black"/>
<path d="M164.216 41.187L146.727 0.975098H145.855L128.627 41.0125C127.93 42.8007 125.793 44.1963 124.004 44.1963V44.5888H131.419V44.1963C129.631 44.1963 128.409 43.5857 129.543 41.0125L128.191 44.1963L134.341 29.8474H154.316L159.026 40.9253C160.291 43.5421 157.979 44.1963 156.191 44.1963H160.422H161.512H165.481H156.235V44.5888H168.708V44.1963C167.313 44.1963 165.35 42.8007 164.216 41.187ZM134.69 29.0187L144.372 6.51404L153.967 29.0187H134.69Z" fill="black"/>
<path d="M56.911 1.41113C56.5185 1.41113 56.0824 1.41113 55.6899 1.45475H39.8145V1.84727C41.6026 1.84727 43.0855 3.28652 43.0855 5.1183V1.80366V40.9688C43.0855 42.7569 41.6462 44.2398 39.8145 44.2398H43.0855H39.8145V44.5451H54.9484C55.3409 44.5451 56.5185 44.5451 56.911 44.5451C69.2973 44.5451 79.3285 39.6604 79.3285 22.9999C79.3285 7.86596 69.2973 1.41113 56.911 1.41113ZM56.126 44.2398C55.9951 44.2398 55.1229 44.2398 54.992 44.2398H50.6307C48.8425 44.2398 47.3596 42.8006 47.3596 40.9688V5.07469C47.3596 3.28652 48.7989 1.80366 50.6307 1.80366H47.3596H55.7335C55.8643 1.80366 55.9951 1.80366 56.126 1.80366C66.4624 1.80366 74.8363 5.59805 74.8363 22.9999C74.7927 40.4454 66.4188 44.2398 56.126 44.2398Z" fill="black"/>
</g>
<defs>
<clipPath id="clip0_445_1291">
<rect width="168.461" height="44.0499" fill="white" transform="translate(0.95459 0.975098)"/>
</clipPath>
</defs>
</svg>
