<svg width="30" height="30" viewBox="0 0 30 30" xmlns="http://www.w3.org/2000/svg" fill="#fff"><desc>Instagram</desc><path d="M15 11.014c-2.2 0-3.985 1.783-3.985 3.986 0 2.202 1.787 3.987 3.985 3.987 2.2 0 3.987-1.785 3.987-3.987 0-2.203-1.788-3.986-3.987-3.986zm0 6.592c-1.444 0-2.607-1.167-2.607-2.606 0-1.44 1.163-2.606 2.607-2.606 1.43 0 2.607 1.167 2.607 2.606 0 1.44-1.163 2.606-2.607 2.606zM19.385 9.556c-.513 0-.92.408-.92.92 0 .513.407.92.92.92.513 0 .92-.407.92-.92 0-.512-.408-.92-.92-.92z"/><path d="M15.002.15C6.798.15.15 6.797.15 15 .15 23.2 6.797 29.85 15 29.85c8.2 0 14.85-6.648 14.85-14.85 0-8.203-6.65-14.85-14.85-14.85zm7.664 18.115c0 2.423-1.98 4.4-4.416 4.4h-6.5c-2.438 0-4.417-1.978-4.417-4.385v-6.546c0-2.422 1.978-4.4 4.417-4.4h6.5c2.438 0 4.416 1.978 4.416 4.4v6.53z"/></svg>