<svg width="36" height="35" viewBox="0 0 36 35" fill="none" xmlns="http://www.w3.org/2000/svg">
<rect x="0.5" width="35" height="35" rx="17.5" fill="#FF2929"/>
<path d="M24.8797 11.6805C25.6511 11.1444 26.2283 10.3001 26.5035 9.30535C25.7786 9.80541 24.9856 10.1577 24.1586 10.3469C23.0121 8.9367 21.1955 8.59352 19.7239 9.50911C18.2524 10.4247 17.4902 12.3724 17.8632 14.2638C14.8941 14.0905 12.1279 12.4598 10.2529 9.77759C9.27436 11.74 9.77441 14.2486 11.3956 15.5105C10.8094 15.4885 10.2361 15.304 9.72368 14.9722C9.72368 14.9902 9.72368 15.0082 9.72368 15.0262C9.72402 17.0704 10.9631 18.8312 12.6864 19.2363C12.1426 19.4083 11.5722 19.4337 11.0187 19.3104C11.5034 21.0585 12.8891 22.2561 14.4685 22.2919C13.1604 23.4856 11.5449 24.1329 9.88202 24.1298C9.58727 24.1303 9.29275 24.1106 9 24.0707C10.6886 25.3324 12.654 26.0021 14.6612 25.9997C17.4538 26.022 20.1375 24.742 22.1121 22.446C24.0867 20.1499 25.1874 17.0295 25.168 13.7826C25.168 13.5965 25.1643 13.4114 25.1568 13.2273C25.88 12.6196 26.5042 11.8668 27 11.0042C26.3262 11.3514 25.6116 11.5794 24.8797 11.6805Z" fill="white"/>
</svg>
