<svg width="40" height="40" viewBox="0 0 40 40" fill="none" xmlns="http://www.w3.org/2000/svg">
<path d="M40 20C40 8.955 31.045 0 20 0C8.955 0 0 8.955 0 20C0 31.045 8.955 40 20 40C31.045 40 40 31.045 40 20Z" fill="url(#paint0_linear_5124_79623)"/>
<path d="M35.104 6.91676L25 14.5108V0.655762C28.986 1.68376 32.488 3.89876 35.104 6.91676ZM39.344 14.9998C39.029 13.7788 38.604 12.6048 38.076 11.4848L33 14.9998H39.344ZM4.89601 6.91676L15 14.5108V0.655762C11.014 1.68376 7.51201 3.89876 4.89601 6.91676ZM1.92301 11.4848C1.39501 12.6048 0.971006 13.7788 0.656006 14.9998H7.00001L1.92301 11.4848ZM15 39.3438V25.3638L4.89601 33.0828C7.51201 36.1008 11.014 38.3158 15 39.3438ZM0.656006 24.9998C0.971006 26.2208 1.39601 27.3948 1.92401 28.5148L7.00001 24.9998H0.656006ZM25 39.3438C28.986 38.3158 32.488 36.1008 35.104 33.0828L25 25.3638V39.3438ZM38.077 28.5148C38.605 27.3958 39.03 26.2218 39.345 24.9998H33L38.077 28.5148Z" fill="url(#paint1_linear_5124_79623)"/>
<path d="M39.751 17H23V0.249C22.019 0.101 21.022 0 20 0C18.978 0 17.981 0.101 17 0.249V17H0.249C0.101 17.981 0 18.978 0 20C0 21.022 0.101 22.019 0.249 23H17V39.751C17.981 39.899 18.978 40 20 40C21.022 40 22.019 39.899 23 39.751V23H39.751C39.899 22.019 40 21.022 40 20C40 18.978 39.899 17.981 39.751 17ZM37.513 10.348C37.136 9.666 36.711 9.016 36.26 8.386L27 15H31L37.513 10.348ZM13 15L3.74 8.385C3.289 9.015 2.864 9.665 2.487 10.347L9 15H13ZM2.487 29.652C2.864 30.334 3.289 30.984 3.74 31.614L13 25H9L2.487 29.652ZM27 25L36.26 31.615C36.711 30.985 37.136 30.335 37.513 29.653L31 25H27Z" fill="url(#paint2_linear_5124_79623)"/>
<defs>
<linearGradient id="paint0_linear_5124_79623" x1="6.11" y1="6.11" x2="34.172" y2="34.172" gradientUnits="userSpaceOnUse">
<stop stop-color="#DFE9F2"/>
<stop offset="0.998" stop-color="#9EA7B0"/>
</linearGradient>
<linearGradient id="paint1_linear_5124_79623" x1="6.02652" y1="6.02668" x2="34.8324" y2="34.8318" gradientUnits="userSpaceOnUse">
<stop stop-color="#0D61A9"/>
<stop offset="1" stop-color="#16528C"/>
</linearGradient>
<linearGradient id="paint2_linear_5124_79623" x1="7.764" y1="7.764" x2="30.275" y2="30.275" gradientUnits="userSpaceOnUse">
<stop offset="0.008" stop-color="#F44F5A"/>
<stop offset="0.447" stop-color="#EE3D4A"/>
<stop offset="1" stop-color="#E52030"/>
</linearGradient>
</defs>
</svg>
