<svg width="36" height="35" viewBox="0 0 36 35" fill="none" xmlns="http://www.w3.org/2000/svg">
<rect x="0.5" width="35" height="35" rx="17.5" fill="#FF2929"/>
<path d="M9 17.5542C9.00105 22.0089 12.2204 25.8019 16.593 26.5V20.1712H14.3098V17.5542H16.5957V15.562C16.4935 14.618 16.814 13.6772 17.4702 12.9947C18.1264 12.3122 19.0503 11.9588 19.9913 12.0304C20.6668 12.0413 21.3405 12.1019 22.0072 12.2115V14.4382H20.8697C20.4781 14.3866 20.0843 14.5167 19.7994 14.792C19.5145 15.0672 19.3692 15.4577 19.4045 15.8536V17.5542H21.8984L21.4997 20.1721H19.4045V26.5C24.1334 25.748 27.4494 21.4025 26.9503 16.6116C26.4512 11.8206 22.3117 8.26144 17.5306 8.5125C12.7496 8.76356 9.00076 12.737 9 17.5542Z" fill="white"/>
</svg>
