<svg width="36" height="35" viewBox="0 0 36 35" fill="none" xmlns="http://www.w3.org/2000/svg">
<rect x="0.5" width="35" height="35" rx="17.5" fill="#FF2929"/>
<path d="M18.0491 26.3209C17.1428 26.846 17.1814 26.0728 17.2204 25.8347C17.2436 25.6928 17.349 25.0272 17.349 25.0272C17.3791 24.7859 17.4108 24.4127 17.3203 24.1746C17.2196 23.9125 16.8205 23.776 16.5273 23.7096C12.2018 23.11 9 19.9402 9 16.1559C9 11.9346 13.0382 8.5 18.0002 8.5C22.9622 8.5 27 11.9346 27 16.1559C27 20.8968 22.2296 23.898 18.0491 26.3209ZM15.155 17.882C15.155 17.6289 14.9583 17.4233 14.7165 17.4233H13.4922V14.4058C13.4922 14.1528 13.2954 13.9472 13.0536 13.9472C12.8114 13.9472 12.6151 14.1528 12.6151 14.4058V17.8824C12.6151 18.1359 12.8119 18.3415 13.0536 18.3415H14.7165C14.9583 18.342 15.155 18.1355 15.155 17.882ZM16.4359 14.4058C16.4359 14.1528 16.2392 13.9472 15.9974 13.9472C15.7552 13.9472 15.5589 14.1528 15.5589 14.4058V17.8824C15.5589 18.1359 15.7556 18.3415 15.9974 18.3415C16.2396 18.3415 16.4359 18.1355 16.4359 17.8824V14.4058ZM20.4399 14.4058C20.4399 14.1528 20.2431 13.9472 20.0013 13.9472C19.7591 13.9472 19.5619 14.1528 19.5619 14.4058V16.5571L17.8566 14.1311C17.7743 14.0163 17.6427 13.9476 17.5059 13.9476C17.4588 13.9476 17.4121 13.9548 17.3666 13.9711C17.187 14.0339 17.0665 14.2088 17.0665 14.4063V17.8829C17.0665 18.1364 17.2637 18.342 17.5059 18.342C17.7486 18.342 17.9453 18.1359 17.9453 17.8829V15.7325L19.6498 18.1585C19.7321 18.2733 19.8633 18.342 20.0005 18.342C20.0472 18.342 20.0943 18.3338 20.1398 18.318C20.3198 18.2561 20.4399 18.0812 20.4399 17.8829V14.4058ZM23.1311 15.6855H21.9068V14.8644H23.1311C23.3738 14.8644 23.5705 14.6588 23.5705 14.4058C23.5705 14.1528 23.3733 13.9472 23.1311 13.9472H21.4683C21.2261 13.9472 21.0297 14.1528 21.0297 14.4058C21.0297 14.4063 21.0297 14.4063 21.0297 14.4072V16.1432V16.1437C21.0297 16.1437 21.0297 16.1437 21.0297 16.1441V17.8815C21.0297 18.135 21.2269 18.3406 21.4683 18.3406H23.1311C23.3733 18.3406 23.5705 18.1346 23.5705 17.8815C23.5705 17.6285 23.3733 17.4229 23.1311 17.4229H21.9068V16.6018H23.1311C23.3738 16.6018 23.5705 16.3962 23.5705 16.1432C23.5705 15.8897 23.3733 15.6841 23.1311 15.6841V15.6855Z" fill="white"/>
</svg>
