<svg width="36" height="35" viewBox="0 0 36 35" fill="none" xmlns="http://www.w3.org/2000/svg">
<rect x="0.5" width="35" height="35" rx="17.5" fill="#FF2929"/>
<path d="M18.205 15.8581V19.3365H23.035C22.5855 21.5469 20.7037 22.817 18.205 22.817C15.2945 22.7769 12.9562 20.4062 12.9562 17.4955C12.9562 14.5848 15.2945 12.2141 18.205 12.174C19.4147 12.1726 20.5872 12.5924 21.5211 13.3614L24.1418 10.7407C21.1357 8.09797 16.7454 7.75806 13.3684 9.90661C9.9913 12.0552 8.43897 16.1758 9.55903 20.0185C10.6791 23.8612 14.2023 26.5024 18.205 26.5C22.7075 26.5 26.8017 23.2252 26.8017 17.495C26.7948 16.9433 26.7272 16.394 26.6001 15.8571L18.205 15.8581Z" fill="white"/>
</svg>
