<svg width="24" height="24" viewBox="0 0 24 24" fill="none" xmlns="http://www.w3.org/2000/svg">
<circle cx="12" cy="12" r="11.5" fill="#FF2929"/>
<path fill-rule="evenodd" clip-rule="evenodd" d="M12 6.5C8.96744 6.5 6.5 8.96744 6.5 12C6.5 15.0326 8.96744 17.5 12 17.5C15.0326 17.5 17.5 15.0326 17.5 12C17.5 8.96744 15.0326 6.5 12 6.5ZM12.3492 8.28687L13.7634 7.5265C14.5465 7.83656 15.2299 8.34462 15.7496 8.99087L15.4127 10.546L14.3341 11.0747L12.3492 9.62887V8.28687ZM10.2482 7.52229L11.6624 8.28541V9.62879L9.67899 11.0746L8.5948 10.5452L8.25792 8.98048C8.77905 8.3356 9.4638 7.83029 10.2482 7.52229ZM8.0331 14.7183C7.58416 14.0652 7.29197 13.2973 7.21153 12.4675L8.37547 11.2031L9.43697 11.7222L10.2365 13.993L9.56072 14.8029L8.0331 14.7183ZM13.2258 16.6481C12.8332 16.7519 12.4241 16.8124 11.9999 16.8124C11.4871 16.8124 10.9934 16.7299 10.5294 16.5808L10.0969 15.2346L10.7865 14.4062H13.2161L13.8933 15.2078L13.2258 16.6481ZM14.4296 14.7795L13.7648 13.9924L14.5754 11.7222L15.632 11.2045L16.7891 12.4682C16.7197 13.1839 16.4894 13.8514 16.1394 14.442L14.4296 14.7795Z" fill="white"/>
</svg>
