<svg width="24" height="24" viewBox="0 0 24 24" fill="none" xmlns="http://www.w3.org/2000/svg">
<circle cx="12" cy="11.7773" r="11.5" fill="#FF2929"/>
<path d="M12 6.27734C8.96676 6.27734 6.5 8.7441 6.5 11.7773C6.5 14.8106 8.96676 17.2773 12 17.2773C15.0332 17.2773 17.5 14.8106 17.5 11.7773C17.5 8.7441 15.0332 6.27734 12 6.27734ZM16.2434 9.72257C16.5421 10.3405 16.7121 11.0358 16.7172 11.767H15.4452C15.4452 11.2315 15.3216 10.7268 15.1002 10.2788L16.2434 9.72257ZM13.0403 7.17341C13.7406 7.33306 14.3844 7.64719 14.9302 8.08493L14.1372 9.08399C13.7406 8.76471 13.272 8.53811 12.757 8.41967L13.0403 7.17341ZM10.9443 7.17856L11.2275 8.41967C10.7177 8.53811 10.2491 8.76986 9.85253 9.08914L9.05431 8.09523C9.60019 7.6575 10.2439 7.33821 10.9443 7.17856ZM12 8.7235C13.684 8.7235 15.0538 10.0934 15.0538 11.7773C15.0538 13.4613 13.684 14.8312 12 14.8312C10.316 14.8312 8.94616 13.4613 8.94616 11.7773C8.94616 10.0934 10.316 8.7235 12 8.7235ZM7.28277 11.7773C7.28277 11.0461 7.44756 10.356 7.74625 9.73802L8.89466 10.289C8.67837 10.7422 8.55477 11.2469 8.55477 11.7773C8.55477 11.7773 8.55477 11.7773 8.55477 11.7825H7.28277V11.7773ZM9.06461 15.4646C8.51358 15.0269 8.06554 14.4655 7.75656 13.827L8.90496 13.2708C9.13155 13.7394 9.46114 14.1463 9.86283 14.4656L9.06461 15.4646ZM12 16.4946C11.6395 16.4946 11.2893 16.4534 10.9546 16.3761L11.2378 15.135C11.485 15.1917 11.7374 15.2226 12.0052 15.2226C12.2678 15.2226 12.5253 15.1917 12.7725 15.135L13.0557 16.3761C12.7107 16.4534 12.3605 16.4946 12 16.4946ZM14.9405 15.4646L14.1475 14.4707C14.5492 14.1514 14.8787 13.7394 15.1053 13.2708L16.2537 13.8218C15.9396 14.4656 15.4916 15.0217 14.9405 15.4646Z" fill="white"/>
<path d="M10.8618 11.5508C11.0008 11.5508 11.2737 11.3963 11.6806 11.0822V13.2657C11.6806 13.3945 11.7115 13.4923 11.7681 13.5541C11.8248 13.6211 11.9072 13.652 12.005 13.652C12.2265 13.652 12.3346 13.4923 12.3346 13.1679V10.423C12.3346 10.3097 12.3089 10.217 12.2574 10.1501C12.2059 10.0831 12.1389 10.0522 12.0514 10.0522C11.9741 10.0522 11.9226 10.0677 11.8969 10.0934C11.8711 10.1243 11.8093 10.1964 11.7218 10.3252C11.6342 10.4488 11.5312 10.5621 11.4128 10.6651C11.2995 10.7681 11.1399 10.8608 10.9493 10.9535C10.8206 11.0153 10.7279 11.0616 10.6764 11.1028C10.6249 11.1389 10.5991 11.2007 10.5991 11.2831C10.5991 11.3551 10.6249 11.4169 10.6764 11.4684C10.7382 11.5251 10.7948 11.5508 10.8618 11.5508Z" fill="white"/>
</svg>
