<svg width="36" height="35" viewBox="0 0 36 35" fill="none" xmlns="http://www.w3.org/2000/svg">
<rect x="0.5" width="35" height="35" rx="17.5" fill="#FF2929"/>
<path d="M22.6936 8.5H19.5183C16.3983 8.5 13.9093 10.54 13.9093 14.5C13.9093 16.876 15.0338 18.628 17.3174 19.492L13.0557 26.116C12.9166 26.3328 13.0557 26.5 13.2784 26.5H15.2556C15.4229 26.5 15.5347 26.452 15.5902 26.3328L19.591 19.75H20.7273L20.7201 26.3328C20.7201 26.4048 20.8037 26.5 20.9146 26.5H22.7773C22.9445 26.5 23 26.428 23 26.3088V8.74C23 8.572 22.8882 8.5 22.6936 8.5ZM20.7273 18.25H19.3637C18.0001 18.25 16.182 17.38 16.182 14.5C16.182 11.4992 17.6647 10 19.3637 10H20.7273V18.25Z" fill="white"/>
</svg>
