<svg width="24" height="24" viewBox="0 0 24 24" fill="none" xmlns="http://www.w3.org/2000/svg">
<circle cx="12" cy="11.7773" r="11.5" fill="#FF2929"/>
<path d="M17.2557 7.55238C16.8845 7.55238 16.5816 7.85526 16.5816 8.22654C16.5816 8.45614 16.6988 8.66132 16.8747 8.78345V10.0292H15.9123V9.14495C15.9123 8.57339 15.4482 8.10929 14.8767 8.10929H13.372V7.56704H12.395V6.9515C12.395 6.58023 12.0921 6.27734 11.7208 6.27734H11.6915C11.3202 6.27734 11.0173 6.58023 11.0173 6.9515V7.56704H10.0403V8.10929H8.53566C7.96409 8.10929 7.5 8.57339 7.5 9.14495V11.8172C7.5 12.3887 7.96409 12.8528 8.53566 12.8528H8.76039V14.8362H7.78335V16.2773H15.6241V14.8362H14.647V12.8528H14.8718C15.4433 12.8528 15.9074 12.3887 15.9074 11.8172V10.7522H17.2313C17.4316 10.7522 17.5928 10.591 17.5928 10.3907V8.81276C17.7931 8.69552 17.9299 8.47568 17.9299 8.22654C17.9299 7.85526 17.627 7.55238 17.2557 7.55238ZM10.3578 12.1347H8.53078C8.35492 12.1347 8.21323 11.993 8.21323 11.8172V9.14495C8.21323 8.96909 8.35492 8.82742 8.53078 8.82742H10.3578V12.1347ZM12.7027 12.1347H10.7193V8.82742H12.7027V12.1347ZM15.1844 11.822C15.1844 11.9979 15.0428 12.1396 14.8669 12.1396H13.0594V8.8323H14.8669C15.0428 8.8323 15.1844 8.97397 15.1844 9.14984V11.822Z" fill="white"/>
<path d="M8.69217 9.71158C8.73613 9.74089 8.79965 9.75555 8.8827 9.75555H9.69364C9.56662 9.91676 9.45425 10.0829 9.36143 10.2441C9.26862 10.4053 9.19045 10.5665 9.13183 10.7228C9.06832 10.8791 9.02436 11.011 8.99994 11.1234C8.97062 11.2358 8.96086 11.3237 8.96086 11.3872C8.96086 11.4703 8.98039 11.5338 9.01459 11.5777C9.05367 11.6217 9.10252 11.6412 9.16114 11.6412C9.22465 11.6412 9.27839 11.6217 9.31747 11.5826C9.35655 11.5435 9.38586 11.4703 9.4054 11.3677C9.41517 11.3237 9.42494 11.2602 9.4396 11.1723C9.44937 11.0892 9.46403 11.0208 9.4738 10.9671C9.48357 10.9133 9.5031 10.8498 9.52753 10.7668C9.58615 10.586 9.64967 10.4297 9.71806 10.3076C9.78645 10.1806 9.85485 10.078 9.91835 9.99004C9.98186 9.90699 10.0405 9.82883 10.0942 9.76043C10.1431 9.69204 10.1724 9.63342 10.1724 9.58945C10.1724 9.52106 10.1528 9.46732 10.1089 9.43801C10.0649 9.4087 9.99651 9.39404 9.89881 9.39404H8.88757C8.80941 9.39404 8.7459 9.40381 8.70193 9.42335C8.65796 9.44289 8.63355 9.48686 8.63355 9.56014C8.62866 9.63342 8.6482 9.68227 8.69217 9.71158Z" fill="white"/>
<path d="M10.9927 9.71158C11.0367 9.74089 11.1002 9.75555 11.1832 9.75555H11.9942C11.8672 9.91676 11.7548 10.0829 11.662 10.2441C11.5692 10.4053 11.491 10.5665 11.4324 10.7228C11.3738 10.8791 11.3249 11.011 11.3005 11.1234C11.2712 11.2358 11.2614 11.3237 11.2614 11.3872C11.2614 11.4703 11.281 11.5338 11.32 11.5777C11.3591 11.6217 11.408 11.6412 11.4666 11.6412C11.5301 11.6412 11.5838 11.6217 11.6229 11.5826C11.662 11.5435 11.6913 11.4703 11.7108 11.3677C11.7206 11.3237 11.7304 11.2602 11.745 11.1723C11.7548 11.0892 11.7695 11.0208 11.7792 10.9671C11.789 10.9133 11.8085 10.8498 11.833 10.7668C11.8916 10.586 11.9551 10.4297 12.0235 10.3076C12.0919 10.1854 12.1603 10.078 12.2238 9.99004C12.2873 9.90699 12.3459 9.82883 12.3997 9.76043C12.4485 9.69204 12.4778 9.63342 12.4778 9.58945C12.4778 9.52106 12.4583 9.46732 12.4143 9.43801C12.3703 9.4087 12.302 9.39404 12.2043 9.39404H11.193C11.1149 9.39404 11.0513 9.40381 11.0074 9.42335C10.9634 9.44289 10.939 9.48686 10.939 9.56014C10.9292 9.63342 10.9488 9.68227 10.9927 9.71158Z" fill="white"/>
<path d="M14.7058 9.44778C14.6618 9.41846 14.5934 9.40381 14.4957 9.40381H13.4845C13.4063 9.40381 13.3428 9.41358 13.2989 9.43312C13.2549 9.45266 13.2305 9.49663 13.2305 9.56991C13.2305 9.63341 13.25 9.68226 13.294 9.71646C13.3379 9.74577 13.4014 9.76043 13.4845 9.76043H14.2954C14.1684 9.92164 14.0561 10.0877 13.9632 10.2489C13.8704 10.4102 13.7923 10.5714 13.7336 10.7277C13.675 10.884 13.6262 11.0159 13.6017 11.1283C13.5724 11.2406 13.5627 11.3286 13.5627 11.3921C13.5627 11.4751 13.5822 11.5386 13.6213 11.5826C13.6604 11.6266 13.7092 11.6461 13.7678 11.6461C13.8314 11.6461 13.8851 11.6266 13.9242 11.5875C13.9632 11.5484 13.9926 11.4751 14.017 11.3725C14.0267 11.3286 14.0365 11.2651 14.0512 11.1771C14.0609 11.0941 14.0756 11.0257 14.0854 10.972C14.0951 10.9182 14.1147 10.8547 14.1391 10.7717C14.1977 10.5909 14.2612 10.4346 14.3296 10.3125C14.398 10.1903 14.4664 10.0829 14.5299 9.99492C14.5934 9.91187 14.6521 9.83371 14.7058 9.76531C14.7546 9.69692 14.784 9.6383 14.784 9.59433C14.7742 9.53082 14.7498 9.47709 14.7058 9.44778Z" fill="white"/>
</svg>
