<svg width="63" height="14" viewBox="0 0 63 14" fill="none" xmlns="http://www.w3.org/2000/svg">
<g clip-path="url(#clip0_35_75248)">
<path d="M10.9239 0.73727C5.06347 0.763703 0.336788 3.27294 0.354112 6.36138C0.361456 7.66962 1.22581 8.86684 2.68461 9.82537C1.97885 9.09962 1.57767 8.1761 1.55014 7.21387C1.53216 4.01827 6.16298 1.40232 11.8804 1.37636C15.5729 1.35969 18.8189 2.41746 20.6623 4.03915C19.0074 2.07343 15.2596 0.717691 10.9239 0.73727Z" fill="#838C9D"/>
<path d="M10.0319 7.8936C10.3986 7.90774 10.7614 7.82094 11.0714 7.64487C11.2175 7.56133 11.3364 7.44466 11.4159 7.30668C11.4955 7.16871 11.5329 7.01434 11.5243 6.85924C11.5183 6.21922 11.2701 5.59995 10.8205 5.10258C10.4112 4.62798 9.88327 4.24613 9.27914 3.9878C8.675 3.72948 8.01158 3.6019 7.34232 3.61534C6.77214 3.60048 6.20466 3.69099 5.67523 3.88123C5.14581 4.07147 4.66579 4.35736 4.2651 4.72109C3.87707 5.06551 3.57133 5.47706 3.36647 5.93069C3.16161 6.38433 3.06192 6.87057 3.07347 7.35982C3.06605 7.85101 3.17611 8.33794 3.39627 8.78784C3.61643 9.23775 3.94158 9.6402 4.34984 9.96813C5.20865 10.6756 6.34417 11.0513 7.51012 11.0136C8.1675 11.0127 8.82098 10.9231 9.44861 10.7479C10.0692 10.6113 10.6286 10.3086 11.0525 9.88008C11.2244 9.71025 11.3238 9.49138 11.3329 9.26223C11.33 8.72274 10.992 8.45451 10.3189 8.45753C9.92587 8.52796 9.54477 8.64412 9.18531 8.80305C8.69521 9.00748 8.16575 9.12543 7.62585 9.15047C7.16346 9.16587 6.70663 9.05605 6.31497 8.83532C6.14019 8.73393 5.99349 8.5982 5.88601 8.43842C5.77854 8.27865 5.71311 8.09904 5.69471 7.91322L10.0319 7.8936ZM6.23402 5.65654C6.55342 5.4233 6.95575 5.30069 7.36765 5.31106C7.77782 5.29947 8.1789 5.42079 8.49728 5.65276C8.6474 5.75978 8.77096 5.89367 8.86007 6.04588C8.94919 6.19809 9.00189 6.36527 9.01483 6.53676L5.6554 6.55193C5.72532 6.20198 5.93009 5.88511 6.23402 5.65654Z" fill="#838C9D"/>
<path d="M12.9608 9.91006C13.3681 10.2673 13.8536 10.5452 14.3866 10.7263C14.9196 10.9074 15.4887 10.9877 16.058 10.9623C16.7165 10.9776 17.3712 10.8696 17.9804 10.6453C18.6937 10.3512 19.0491 9.99416 19.0469 9.5743C19.0507 9.33804 18.9502 9.10998 18.7673 8.93975C18.675 8.85309 18.5631 8.78507 18.4391 8.74023C18.3151 8.6954 18.1819 8.67478 18.0483 8.67975C17.7879 8.6926 17.5319 8.74592 17.2919 8.83732C16.9745 8.94354 16.6381 8.99728 16.2992 8.99592C16.035 9.01081 15.7704 8.97302 15.5244 8.88529C15.2785 8.79755 15.0573 8.66204 14.8768 8.48853C14.565 8.14076 14.4055 7.703 14.4283 7.25739C14.4082 6.81909 14.556 6.3878 14.8473 6.03519C15.0057 5.85544 15.2097 5.71216 15.4423 5.61727C15.675 5.52238 15.9295 5.47862 16.1849 5.48962C16.532 5.48646 16.8768 5.5393 17.203 5.64562C17.4517 5.73747 17.716 5.79057 17.9846 5.80265C18.1235 5.80617 18.2618 5.78497 18.3915 5.74029C18.5212 5.69561 18.6397 5.62832 18.7402 5.54233C18.8364 5.46178 18.9124 5.36396 18.9635 5.25526C19.0145 5.14657 19.0393 5.02945 19.0363 4.91156C19.0337 4.43211 18.6847 4.074 17.9893 3.83724C17.4055 3.65871 16.7909 3.57451 16.1742 3.58855C15.5931 3.56632 15.0128 3.64753 14.467 3.82748C13.9211 4.00743 13.4205 4.28256 12.9941 4.63694C12.5992 4.98313 12.2897 5.39974 12.0858 5.85983C11.8819 6.31992 11.7881 6.81323 11.8105 7.30785C11.7955 7.78878 11.8898 8.26742 12.0875 8.71473C12.2852 9.16205 12.5823 9.56871 12.9608 9.91006Z" fill="#838C9D"/>
<path d="M20.3104 9.88973C20.7257 10.2509 21.2186 10.5326 21.7592 10.7179C22.2998 10.9031 22.8767 10.988 23.455 10.9674C24.0326 10.9848 24.6081 10.8968 25.1465 10.7089C25.685 10.521 26.1752 10.237 26.5875 9.87425C26.9695 9.5276 27.2687 9.11488 27.4668 8.66125C27.6648 8.20763 27.7577 7.7226 27.7397 7.23576C27.7518 6.74374 27.6519 6.25465 27.446 5.7984C27.24 5.34214 26.9324 4.9283 26.5419 4.58215C26.1282 4.22464 25.6372 3.94686 25.0991 3.76591C24.561 3.58497 23.9872 3.50472 23.4131 3.53009C22.8398 3.51307 22.2686 3.60061 21.7342 3.7874C21.1998 3.97419 20.7133 4.25633 20.3043 4.6167C19.9127 4.96271 19.6047 5.37728 19.3997 5.83457C19.1947 6.29187 19.097 6.78209 19.1127 7.27469C19.1015 7.76085 19.202 8.24388 19.4081 8.69376C19.6141 9.14363 19.9212 9.55073 20.3103 9.88973H20.3104ZM22.1341 6.05355C22.2811 5.87242 22.4759 5.72667 22.701 5.62929C22.9261 5.5319 23.1746 5.4859 23.4243 5.49538C23.673 5.48526 23.9205 5.53117 24.1442 5.62889C24.3679 5.72661 24.5607 5.87304 24.705 6.05477C24.9862 6.39572 25.1328 6.81083 25.1217 7.23466C25.1421 7.66071 25.006 8.08101 24.7341 8.43106C24.5895 8.61531 24.3957 8.76415 24.1703 8.86394C23.9449 8.96373 23.6952 9.01129 23.444 9.00227C23.1953 9.01248 22.9478 8.96662 22.724 8.86889C22.5003 8.77115 22.3075 8.62467 22.1633 8.44287C21.8804 8.09777 21.7338 7.67812 21.7466 7.2501C21.729 6.82436 21.8649 6.40486 22.1341 6.05371V6.05355Z" fill="#838C9D"/>
<path d="M31.298 3.31461L32.4335 3.30949C33.6321 3.30408 34.2337 3.70814 34.2383 4.52168C34.243 5.3524 33.646 5.77043 32.4474 5.77579L31.3119 5.78091L31.298 3.31461ZM31.3317 9.31955L31.3229 7.72051L33.0893 7.71263C34.1487 7.76155 35.1912 7.45967 36.0181 6.86448C36.3795 6.5674 36.6622 6.20171 36.8454 5.79415C37.0287 5.3866 37.108 4.94749 37.0774 4.50896C37.1005 4.05725 37.0042 3.60704 36.7962 3.195C36.5883 2.78296 36.2747 2.42074 35.881 2.13784C35.0034 1.56611 33.9315 1.28493 32.8483 1.34228L30.4826 1.35295C29.9797 1.30775 29.4756 1.42864 29.0651 1.69292C28.9165 1.85465 28.8056 2.04146 28.739 2.24227C28.6724 2.44308 28.6514 2.65382 28.6773 2.86202L28.7137 9.32711C28.7194 10.3363 29.1586 10.8389 30.0313 10.835C30.904 10.831 31.3375 10.3259 31.3318 9.31955H31.3317Z" fill="#838C9D"/>
<path d="M40.2727 6.01021C40.4159 5.83883 40.6031 5.70095 40.8185 5.60828C41.0338 5.51562 41.271 5.47091 41.5098 5.47796C41.7488 5.46677 41.9871 5.50845 42.2039 5.59932C42.4206 5.6902 42.6091 5.82747 42.7526 5.99903C43.0146 6.33246 43.149 6.73294 43.1358 7.14054C43.1522 7.55184 43.0226 7.9572 42.7655 8.29829C42.6263 8.47427 42.4403 8.61632 42.2243 8.71154C42.0084 8.80676 41.7692 8.85213 41.5287 8.84354C41.2862 8.85341 41.0446 8.80991 40.8252 8.71686C40.6057 8.6238 40.4151 8.48402 40.2698 8.30972C39.9994 7.97447 39.8593 7.56896 39.8711 7.15547C39.8566 6.74408 39.9982 6.34043 40.2727 6.01041V6.01021ZM44.4808 10.7697C45.3219 10.766 45.7396 10.258 45.734 9.24572L45.7108 5.06342C45.7052 4.0599 45.2818 3.55996 44.4406 3.56361C44.1905 3.56316 43.945 3.6246 43.7314 3.74116C43.5177 3.85773 43.3441 4.02489 43.2298 4.22421C42.966 3.97698 42.6461 3.78335 42.2917 3.65641C41.9373 3.52947 41.5565 3.47218 41.1753 3.48841C40.6284 3.47906 40.0861 3.57916 39.5879 3.78141C39.0898 3.98366 38.6482 4.28297 38.2956 4.6575C37.5965 5.35171 37.2182 6.25812 37.2375 7.19294C37.2265 8.11285 37.5968 9.00373 38.2767 9.69311C38.6248 10.0628 39.0613 10.3576 39.5539 10.5555C40.0465 10.7534 40.5825 10.8494 41.1221 10.8364C41.5219 10.852 41.9207 10.7891 42.2904 10.6521C42.6602 10.5151 42.992 10.3072 43.2626 10.0431C43.3565 10.2626 43.5242 10.4504 43.7425 10.5806C43.9609 10.7108 44.219 10.777 44.4812 10.7698L44.4808 10.7697Z" fill="#838C9D"/>
<path d="M51.6211 4.35334L50.0784 7.67445L48.6097 4.54677C48.5108 4.29232 48.3655 4.05426 48.18 3.84221C48.0658 3.74193 47.9296 3.66418 47.7799 3.61397C47.6302 3.56376 47.4704 3.54221 47.3109 3.55069C46.9821 3.54254 46.6628 3.65001 46.4214 3.85009C46.3076 3.94259 46.2173 4.05597 46.1568 4.18252C46.0963 4.30906 46.0669 4.44581 46.0706 4.58344C46.0703 4.7832 46.1199 4.98049 46.2157 5.16084L48.813 10.0417L47.7732 11.9074C47.6473 12.1255 47.5767 12.3657 47.5665 12.611C47.5603 12.748 47.5886 12.8845 47.6494 13.0103C47.7102 13.1362 47.8019 13.2481 47.9176 13.3378C48.1765 13.5235 48.5026 13.6175 48.8338 13.6018C49.2858 13.5997 49.6575 13.3197 49.9489 12.7618L53.8023 5.22966C53.9261 5.00528 53.9947 4.75964 54.0032 4.50942C53.9996 3.85007 53.5771 3.52228 52.7359 3.52603C52.2523 3.52819 51.8805 3.80394 51.6208 4.35331L51.6211 4.35334Z" fill="#838C9D"/>
<path d="M60.2933 8.66878L57.775 8.68017L61.1403 5.12144C61.422 4.87715 61.6026 4.5544 61.6527 4.20608C61.666 4.09141 61.6333 3.97624 61.5606 3.88116C61.4878 3.78608 61.3797 3.71727 61.2555 3.68702C60.8577 3.60242 60.4489 3.56745 60.0405 3.5831L55.9555 3.60154C54.8724 3.60642 54.3327 3.92144 54.3363 4.5466C54.3398 5.1804 54.8778 5.49481 55.9503 5.48985L58.1426 5.47996L54.6622 9.18232C54.434 9.39915 54.3011 9.68266 54.2881 9.98044C54.2905 10.4088 54.7386 10.6208 55.6323 10.6167L60.2849 10.5957C61.3574 10.5908 61.8919 10.2716 61.8883 9.63787C61.8846 8.98716 61.353 8.66413 60.2933 8.66878Z" fill="#838C9D"/>
</g>
<defs>
<clipPath id="clip0_35_75248">
<rect width="62" height="13" fill="white" transform="translate(0.354126 0.669312)"/>
</clipPath>
</defs>
</svg>
