<svg width="86" height="14" viewBox="0 0 86 14" fill="none" xmlns="http://www.w3.org/2000/svg">
<path d="M24.6695 6.88109C24.6695 7.67418 24.5191 8.3489 24.2185 8.90524C23.9202 9.46158 23.513 9.88654 22.9969 10.1801C22.4832 10.4713 21.9055 10.6169 21.2639 10.6169C20.6176 10.6169 20.0376 10.4701 19.5239 10.1765C19.0101 9.88299 18.6041 9.45803 18.3058 8.90169C18.0075 8.34534 17.8584 7.67181 17.8584 6.88109C17.8584 6.08801 18.0075 5.41329 18.3058 4.85694C18.6041 4.3006 19.0101 3.87683 19.5239 3.58564C20.0376 3.29208 20.6176 3.1453 21.2639 3.1453C21.9055 3.1453 22.4832 3.29208 22.9969 3.58564C23.513 3.87683 23.9202 4.3006 24.2185 4.85694C24.5191 5.41329 24.6695 6.08801 24.6695 6.88109ZM23.1105 6.88109C23.1105 6.36736 23.0336 5.93412 22.8797 5.58138C22.7282 5.22863 22.5139 4.96111 22.2369 4.77882C21.9599 4.59653 21.6356 4.50538 21.2639 4.50538C20.8922 4.50538 20.5679 4.59653 20.2909 4.77882C20.0139 4.96111 19.7985 5.22863 19.6446 5.58138C19.4931 5.93412 19.4173 6.36736 19.4173 6.88109C19.4173 7.39482 19.4931 7.82806 19.6446 8.18081C19.7985 8.53355 20.0139 8.80107 20.2909 8.98337C20.5679 9.16566 20.8922 9.2568 21.2639 9.2568C21.6356 9.2568 21.9599 9.16566 22.2369 8.98337C22.5139 8.80107 22.7282 8.53355 22.8797 8.18081C23.0336 7.82806 23.1105 7.39482 23.1105 6.88109ZM31.8916 3.24473V10.5175H30.5635L27.3994 5.94004H27.3461V10.5175H25.8085V3.24473H27.1579L30.2971 7.81859H30.3611V3.24473H31.8916ZM33.162 10.5175V3.24473H34.6997V9.2497H37.8175V10.5175H33.162ZM40.3735 3.24473V10.5175H38.8358V3.24473H40.3735ZM47.7217 3.24473V10.5175H46.3935L43.2295 5.94004H43.1762V10.5175H41.6386V3.24473H42.988L46.1272 7.81859H46.1911V3.24473H47.7217ZM48.9921 10.5175V3.24473H53.8927V4.51248H50.5297V6.24544H53.6405V7.51319H50.5297V9.2497H53.9069V10.5175H48.9921ZM57.4296 10.5175V3.24473H60.3415C60.8766 3.24473 61.3228 3.32404 61.6803 3.48265C62.0378 3.64127 62.3065 3.86144 62.4864 4.14317C62.6663 4.42252 62.7563 4.74449 62.7563 5.10908C62.7563 5.39317 62.6995 5.64293 62.5858 5.85837C62.4722 6.07143 62.316 6.24662 62.1171 6.38393C61.9206 6.51888 61.6957 6.61476 61.4424 6.67158V6.7426C61.7194 6.75444 61.9786 6.83256 62.2201 6.97697C62.4639 7.12139 62.6616 7.3238 62.8131 7.58422C62.9646 7.84227 63.0404 8.15003 63.0404 8.50751C63.0404 8.8934 62.9445 9.23786 62.7527 9.54089C62.5633 9.84156 62.2828 10.0795 61.9111 10.2547C61.5394 10.4299 61.0813 10.5175 60.5368 10.5175H57.4296ZM58.9672 9.26035H60.2208C60.6493 9.26035 60.9618 9.17868 61.1583 9.01533C61.3548 8.84961 61.453 8.62944 61.453 8.35481C61.453 8.15358 61.4045 7.97603 61.3074 7.82214C61.2104 7.66826 61.0719 7.54752 60.8919 7.45993C60.7144 7.37233 60.5025 7.32854 60.2563 7.32854H58.9672V9.26035ZM58.9672 6.28805H60.1071C60.3178 6.28805 60.5049 6.25136 60.6682 6.17797C60.8339 6.10221 60.9642 5.99568 61.0588 5.85837C61.1559 5.72105 61.2044 5.55652 61.2044 5.36476C61.2044 5.10197 61.1109 4.89009 60.9239 4.7291C60.7392 4.56812 60.4765 4.48763 60.1356 4.48763H58.9672V6.28805ZM65.2945 10.5175H63.6467L66.1574 3.24473H68.1389L70.646 10.5175H68.9983L67.1766 4.90666H67.1198L65.2945 10.5175ZM65.1915 7.65879H69.0835V8.85908H65.1915V7.65879ZM77.6045 3.24473V10.5175H76.2764L73.1123 5.94004H73.059V10.5175H71.5214V3.24473H72.8708L76.01 7.81859H76.0739V3.24473H77.6045ZM78.8749 10.5175V3.24473H80.4125V6.4514H80.5084L83.1256 3.24473H84.9687L82.2698 6.50112L85.0006 10.5175H83.1611L81.1689 7.5274L80.4125 8.45069V10.5175H78.8749Z" fill="#838C9D"/>
<path d="M11.6588 4.78451C8.07375 4.78451 4.50287 4.78451 0.919264 4.78451C0.919264 4.83362 0.919264 4.87637 0.919264 4.91913C0.919264 6.28833 0.918911 7.65754 0.919264 9.02639C0.919264 9.56029 1.2242 9.86558 1.75527 9.86593C3.04038 9.86593 4.32584 9.86593 5.61095 9.86593C5.65512 9.86593 5.69964 9.86346 5.74346 9.8677C5.89504 9.88218 6.00705 10.0034 6.00634 10.1493C6.00564 10.2967 5.89433 10.4136 5.74098 10.4267C5.71448 10.4288 5.68798 10.4288 5.66148 10.4288C4.34104 10.4288 3.02024 10.4313 1.6998 10.4277C1.01785 10.426 0.494899 9.98854 0.375469 9.32708C0.356035 9.21931 0.356742 9.10731 0.356389 8.99706C0.355329 7.56602 0.355328 6.13498 0.355682 4.7043C0.355682 4.39548 0.350028 4.0863 0.360275 3.77748C0.383243 3.0927 0.935518 2.54608 1.6203 2.52064C1.65987 2.51922 1.6998 2.51852 1.73937 2.51852C4.77353 2.51852 7.80769 2.51958 10.8418 2.51746C11.4323 2.5171 11.863 2.77151 12.1043 3.30859C12.18 3.47643 12.2199 3.6743 12.222 3.8591C12.2337 4.80853 12.2284 5.75797 12.2269 6.7074C12.2266 6.91198 12.1156 7.03459 11.9429 7.03459C11.7701 7.03459 11.6595 6.91128 11.6588 6.7074C11.657 6.12014 11.6581 5.53253 11.6581 4.94528C11.6588 4.8944 11.6588 4.84245 11.6588 4.78451ZM11.6588 4.2082C11.6588 4.09054 11.6598 3.98948 11.6588 3.88843C11.6535 3.38845 11.3447 3.08245 10.844 3.08245C9.54119 3.0821 8.23841 3.08245 6.93528 3.08245C5.19507 3.08245 3.45521 3.08316 1.71499 3.08175C1.3878 3.08139 1.14576 3.21849 0.997353 3.5107C0.884283 3.73366 0.920678 3.97111 0.924918 4.2082C4.50711 4.2082 8.07411 4.2082 11.6588 4.2082Z" fill="#838C9D"/>
<path d="M13.3541 10.7217C13.3488 12.4432 11.9584 13.8272 10.2401 13.8212C8.51828 13.8152 7.13565 12.4262 7.14095 10.7069C7.14589 8.98537 8.5363 7.60168 10.255 7.60769C11.9775 7.61334 13.3591 9.00198 13.3541 10.7217ZM10.2535 8.17021C8.84865 8.16773 7.70594 9.30515 7.70382 10.7079C7.7017 12.1125 8.83911 13.2555 10.2419 13.258C11.6461 13.2605 12.7891 12.1227 12.7916 10.7199C12.7941 9.31539 11.6567 8.17268 10.2535 8.17021Z" fill="#838C9D"/>
<path d="M2.89621 9.01797C2.52556 9.01797 2.15454 9.01832 1.78389 9.01761C1.65174 9.01726 1.5528 8.95896 1.50545 8.83388C1.46023 8.71445 1.48637 8.60138 1.58743 8.5247C1.63937 8.48513 1.71569 8.45898 1.78106 8.45827C2.52697 8.45368 3.27288 8.45403 4.01878 8.4565C4.19121 8.45721 4.30994 8.577 4.31064 8.73388C4.31135 8.89465 4.18662 9.0155 4.00854 9.01691C3.63752 9.02009 3.26687 9.01832 2.89621 9.01797Z" fill="#838C9D"/>
<path d="M2.33724 7.03738C2.50932 7.03738 2.68175 7.03526 2.85383 7.03809C3.05665 7.04127 3.17891 7.15257 3.17643 7.32713C3.17396 7.49461 3.05347 7.60485 2.85772 7.60627C2.50897 7.60945 2.15987 7.60909 1.81112 7.60627C1.61218 7.60485 1.4818 7.48542 1.48498 7.31723C1.48816 7.15293 1.61395 7.04374 1.80723 7.03738C1.81606 7.03703 1.8249 7.03738 1.83373 7.03738C2.00157 7.03738 2.16941 7.03738 2.33724 7.03738Z" fill="#838C9D"/>
<path d="M10.244 11.167C10.5405 10.8702 10.8207 10.5893 11.1012 10.3084C11.2807 10.1289 11.4535 10.1034 11.5814 10.237C11.7051 10.3663 11.6775 10.5327 11.5019 10.7083C11.1712 11.0394 10.8404 11.3709 10.509 11.7012C10.3175 11.892 10.179 11.8927 9.9903 11.7048C9.73377 11.4489 9.47689 11.1942 9.22284 10.9362C9.0868 10.7977 9.08186 10.632 9.2027 10.5136C9.32001 10.3988 9.48361 10.4023 9.61576 10.5324C9.82352 10.7366 10.0256 10.9458 10.244 11.167Z" fill="#838C9D"/>
</svg>
