<svg width="63" height="12" viewBox="0 0 63 12" fill="none" xmlns="http://www.w3.org/2000/svg">
<path d="M61.2213 0.912148C60.4312 0.305898 59.2355 0.000145828 57.6681 0.000145828H53.5632L52.0372 9.27919H46.6597L47.0053 7.17397H50.2446L50.6285 4.80947L47.391 4.81469L47.7376 2.71887H51.0742L51.5182 0.000687473H44.7422L43.2934 8.80243H40.8068L42.2653 0.000224528H38.7232L37.2745 8.80197H34.8522L36.3121 0.000224528H32.7719L31.2439 9.27926H25.8278L26.1702 7.17404H29.4225L29.8068 4.82298L26.5576 4.81933L26.9023 2.71934H30.2764L30.7175 0H9.60226L8.40043 7.35296L6.00701 0H2.33204L0.354126 12H3.86376L5.06095 4.44427L7.38348 12H19.9617L21.491 2.71818H23.4582L21.9289 12H55.0247L55.9843 6.14097L57.5364 12H61.0479L59.4394 7.21245L59.8074 7.12376C60.618 6.92915 61.2501 6.51123 61.6903 5.88464C62.1301 5.2523 62.3541 4.44046 62.3541 3.46529C62.3541 2.32998 61.9833 1.49469 61.2203 0.911451L61.2213 0.912148ZM16.9076 9.27919H11.5352L11.8823 7.17397H15.252L15.634 4.80276H12.2967L12.6181 2.71946H17.9826L16.9066 9.27916L16.9076 9.27919ZM58.3279 5.23721C57.9749 5.51373 57.4629 5.64833 56.7628 5.64833H56.0687L56.6011 2.42808H57.1117C57.693 2.42808 58.1169 2.53243 58.4095 2.74529C58.6377 2.91225 58.9093 3.24252 58.9093 3.86703C58.9085 4.62251 58.5925 5.02842 58.327 5.23712L58.3279 5.23721Z" fill="#838C9D"/>
</svg>
