<svg width="47" height="15" viewBox="0 0 47 15" fill="none" xmlns="http://www.w3.org/2000/svg">
<path fill-rule="evenodd" clip-rule="evenodd" d="M33.6546 3.68363C34.6964 3.68363 35.5408 2.88267 35.5408 1.89498C35.5408 0.906711 34.6964 0.10498 33.6546 0.10498C32.614 0.10498 31.77 0.906711 31.77 1.89498C31.77 2.88267 32.614 3.68363 33.6546 3.68363ZM19.2087 4.6496C19.1236 4.85248 18.511 6.4946 17.0295 8.19652V0.919404L13.082 1.65979V14.8504H17.0295V10.7731C18.1728 12.4004 18.7374 14.8504 18.7374 14.8504H23.4657C22.998 13.0052 20.9521 9.60287 20.9521 9.60287C22.7882 7.39364 23.5947 5.0396 23.723 4.6496H19.2087ZM29.5865 4.5119C26.0508 4.6196 24.256 6.12498 24.256 9.11748V14.8504H28.1133V10.1754C28.1133 8.38344 28.3605 7.61537 30.6011 7.5421V4.5644C30.224 4.48844 29.5865 4.5119 29.5865 4.5119ZM6.46167 6.1021C5.97817 6.0719 4.85876 6.00325 4.85876 5.0469C4.85876 3.89287 6.47039 3.89287 7.07487 3.89287C8.13773 3.89287 9.51429 4.19094 10.4973 4.46998C10.4973 4.46998 11.0457 4.65344 11.5124 4.84133L11.5557 4.85248V1.6919L11.4961 1.67517C10.336 1.28998 8.98701 0.919404 6.48599 0.919404C2.17374 0.919404 0.645813 3.30344 0.645813 5.34575C0.645813 6.52306 1.17755 9.29383 6.11617 9.61344C6.53483 9.63787 7.64592 9.69864 7.64592 10.6869C7.64592 11.5029 6.73625 11.984 5.2063 11.984C3.52963 11.984 1.90321 11.5783 0.915328 11.1934V14.4486C2.39422 14.8165 4.06136 15.0004 6.01525 15.0004C10.2316 15.0004 12.1201 12.7448 12.1201 10.5092C12.1201 7.9744 10.0069 6.32748 6.46167 6.1021ZM31.7424 14.8504H35.5685V4.66113H31.7424V14.8504ZM42.7729 1.56902V14.8504H46.5996V0.919404L42.7729 1.56902ZM37.1893 1.56902L41.0123 0.919404V14.8504H37.1893V1.56902Z" fill="white"/>
</svg>
