<svg width="93" height="34" viewBox="0 0 93 34" fill="none" xmlns="http://www.w3.org/2000/svg">
<g clip-path="url(#clip0_4788_111593)">
<path opacity="0.5" d="M0.971593 8.14243L9.51519 24.9867L8.13713 15.9624L12.3851 13.135L16.9051 11.641L7.66542 12.0292L7.09954 7.30939L12.284 4.19349L18.0884 2.42188C18.0884 2.42188 -1.22076 2.84423 0.971593 8.14243Z" fill="#707D9B"/>
<path d="M3.11219 6.27548L9.50335 25.1048L9.39173 15.2395L15.5689 15.1602L19.3832 11.0001L9.3452 11.1289L9.28939 6.19627L16.2388 6.1071L21.588 1.10512C21.588 1.10512 1.50275 0.540525 3.11219 6.27548Z" fill="#707D9B"/>
<path d="M23.5319 24.2375L17.8819 24.31C17.659 24.3064 17.4458 24.2121 17.2862 24.0463C17.1266 23.8805 17.0328 23.6559 17.024 23.4187L16.9985 21.1662C17.0019 20.9288 17.0906 20.7019 17.2464 20.532C17.4022 20.3622 17.6132 20.2624 17.836 20.2532L20.9433 20.2134L20.9348 19.465L16.9799 19.5157L16.9578 17.5568L22.6078 17.4844C22.8307 17.4879 23.0439 17.5822 23.2035 17.748C23.3631 17.9138 23.4569 18.1384 23.4657 18.3756L23.5319 24.2375ZM20.9671 22.3186L20.9603 21.7175L19.548 21.7356L19.5548 22.3367L20.9671 22.3186Z" fill="#707D9B"/>
<path d="M26.9146 24.1937L24.3719 24.2263L24.2953 17.4623L26.838 17.4297L26.9146 24.1937Z" fill="#707D9B"/>
<path d="M33.4733 17.3438L32.6478 19.3135L30.2504 19.3442L30.3047 24.1494L27.762 24.182L27.6957 18.3201C27.6991 18.0827 27.7878 17.8558 27.9436 17.6859C28.0994 17.5161 28.3104 17.4163 28.5332 17.4071L33.4733 17.3438Z" fill="#707D9B"/>
<path d="M41.0035 22.0601L40.185 24.0224L33.97 24.1021L33.8679 15.0866L40.9237 14.9961L40.1052 16.9574L36.4329 17.0045L36.4533 18.8096L40.1257 18.7625L40.1424 20.2667L36.4703 20.3138L36.4907 22.118L41.0035 22.0601Z" fill="#707D9B"/>
<path d="M48.6465 23.9123L45.8283 23.9485L45.1056 22.8281L44.4152 23.9666L41.5902 24.0028L43.6743 20.5937L41.5138 17.2389L44.3388 17.2027L45.0547 18.3232L45.7519 17.1846L48.5697 17.1484L46.4924 20.5575L48.6465 23.9123Z" fill="#707D9B"/>
<path d="M55.6866 21.8711L54.8613 23.8334L50.0587 23.895C49.8359 23.8915 49.6226 23.7972 49.463 23.6314C49.3037 23.4656 49.2098 23.2409 49.201 23.0037L49.1451 18.044C49.1482 17.8067 49.2368 17.5797 49.3926 17.4099C49.5485 17.24 49.7595 17.1402 49.9823 17.1311L55.6323 17.0586L54.8069 19.0284L51.6995 19.0682L51.7318 21.9218L55.6866 21.8711Z" fill="#707D9B"/>
<path d="M62.7646 23.7343L60.2217 23.7669L60.1624 18.5071L58.75 18.5252L58.8097 23.785L56.2668 23.8177L56.1649 14.8022L58.7075 14.7695L58.7329 17.0211L61.8404 16.9812C62.0632 16.9847 62.2765 17.0791 62.4361 17.2449C62.5958 17.4106 62.6893 17.6352 62.6984 17.8724L62.7646 23.7343Z" fill="#707D9B"/>
<path d="M70.1025 23.6398L64.4521 23.7123C64.2294 23.7088 64.0161 23.6144 63.8564 23.4486C63.6967 23.2829 63.6028 23.0583 63.5941 22.8211L63.5686 20.5685C63.5721 20.3312 63.661 20.1042 63.8165 19.9344C63.9724 19.7646 64.1834 19.6648 64.4061 19.6555L67.5136 19.6157L67.5053 18.8673L63.55 18.9181L63.528 16.9592L69.178 16.8867C69.4011 16.8903 69.614 16.9847 69.7737 17.1504C69.9334 17.3162 70.0273 17.5407 70.0364 17.7779L70.1025 23.6398ZM67.5372 21.721L67.5303 21.1198L66.1184 21.1379L66.1252 21.739L67.5372 21.721Z" fill="#707D9B"/>
<path d="M77.4402 23.5461L74.8972 23.5787L74.8429 18.7736L73.4302 18.7917L73.4845 23.5969L70.9424 23.6294L70.866 16.8655L76.5152 16.793C76.7384 16.7962 76.9517 16.8904 77.1113 17.0562C77.271 17.2221 77.3649 17.4469 77.3736 17.6842L77.4402 23.5461Z" fill="#707D9B"/>
<path d="M84.8016 25.5417C84.7982 25.7791 84.7096 26.0061 84.5538 26.1761C84.3983 26.346 84.1873 26.4461 83.9645 26.4557L79.1626 26.5173L78.292 24.5692L82.2477 24.5185L82.2359 23.4841L79.1288 23.524C78.9056 23.5208 78.6924 23.4265 78.5323 23.2607C78.3726 23.0949 78.2787 22.8701 78.2704 22.6328L78.2141 17.6729C78.2175 17.4355 78.3061 17.2083 78.462 17.0384C78.6179 16.8686 78.8292 16.7689 79.052 16.76L84.7013 16.6875L84.8016 25.5417ZM82.2138 21.5326L82.1815 18.679L80.7688 18.6971L80.8011 21.5507L82.2138 21.5326Z" fill="#707D9B"/>
<path d="M92.094 21.4031L91.2687 23.3655L86.4661 23.4271C86.2429 23.4235 86.0296 23.3291 85.87 23.1633C85.7103 22.9976 85.6164 22.773 85.6077 22.5359L85.5514 17.5761C85.5552 17.3388 85.6438 17.1119 85.7996 16.9421C85.9555 16.7723 86.1665 16.6725 86.3893 16.6632L91.1923 16.6016C91.415 16.6054 91.6279 16.6999 91.7872 16.8656C91.9469 17.0313 92.0404 17.2557 92.0495 17.4928L92.0769 19.899C92.0731 20.1363 91.9842 20.363 91.8287 20.5329C91.6732 20.7028 91.4626 20.8029 91.2398 20.8129L88.1323 20.8528L88.1392 21.4538L92.094 21.4031ZM89.5272 19.3305L89.5188 18.5822L88.1069 18.6003L88.1156 19.3486L89.5272 19.3305Z" fill="#707D9B"/>
<path d="M37.6462 29.8691C37.6536 30.1268 37.6141 30.3835 37.53 30.6252C37.4536 30.8384 37.3312 31.0295 37.1727 31.1831C37.004 31.3419 36.8057 31.461 36.5909 31.5327C36.3267 31.6193 36.0516 31.6624 35.7752 31.6605L35.3786 31.6656L35.3969 33.2802C35.3973 33.3059 35.3891 33.331 35.3738 33.3509C35.3527 33.3757 35.3256 33.3937 35.2954 33.4028C35.2477 33.4188 35.1986 33.43 35.1488 33.4359C34.9932 33.4535 34.8365 33.4555 34.6806 33.4419C34.6301 33.4373 34.5802 33.4275 34.5315 33.4126C34.5015 33.4046 34.4745 33.3873 34.4538 33.3627C34.4391 33.3427 34.4311 33.318 34.431 33.2926L34.3795 28.7418C34.3753 28.6918 34.3809 28.6415 34.3958 28.5938C34.4108 28.5462 34.4348 28.5024 34.4664 28.4651C34.4978 28.4335 34.5349 28.4088 34.5753 28.3925C34.6158 28.3763 34.6589 28.3686 34.7022 28.3702L35.8221 28.3558C35.9347 28.3544 36.0418 28.3576 36.1436 28.3653C36.2664 28.3763 36.3886 28.3943 36.5096 28.4194C36.6605 28.4507 36.8064 28.5048 36.943 28.58C37.0848 28.6551 37.2123 28.7575 37.3191 28.882C37.425 29.0075 37.5065 29.154 37.559 29.3131C37.617 29.4919 37.6465 29.6799 37.6462 29.8691ZM36.6373 29.9563C36.641 29.8047 36.609 29.6546 36.5442 29.5195C36.4935 29.4164 36.4177 29.3296 36.3247 29.2684C36.2416 29.2159 36.1493 29.1819 36.0536 29.1682C35.9567 29.155 35.8591 29.1491 35.7615 29.1505L35.3503 29.1557L35.3697 30.872L35.803 30.8665C35.9349 30.8688 36.0661 30.8446 36.1896 30.7951C36.2868 30.7542 36.3735 30.6895 36.4427 30.6061C36.5098 30.5221 36.5599 30.4243 36.59 30.3188C36.6238 30.2014 36.6398 30.0791 36.6373 29.9563Z" fill="#707D9B"/>
<path d="M41.452 31.43C41.4581 31.7055 41.4242 31.9803 41.3512 32.2446C41.2862 32.4796 41.1748 32.697 41.0243 32.8823C40.8715 33.0656 40.6806 33.2086 40.467 33.3C40.2161 33.4047 39.9488 33.4573 39.6793 33.4548C39.4208 33.4638 39.1626 33.4235 38.9174 33.3355C38.7125 33.2601 38.5274 33.1338 38.3772 32.9671C38.2282 32.7951 38.1178 32.5893 38.0546 32.3652C37.9795 32.0994 37.9418 31.8232 37.9424 31.5456C37.9364 31.2693 37.9711 30.9938 38.0452 30.729C38.1108 30.4938 38.2229 30.2764 38.3741 30.0913C38.527 29.9094 38.7167 29.7671 38.9296 29.6756C39.1797 29.5707 39.4466 29.5182 39.7154 29.5208C39.975 29.5116 40.2339 29.5513 40.4807 29.638C40.6852 29.712 40.8699 29.8378 41.019 30.0045C41.1672 30.1769 41.2767 30.3827 41.3398 30.6065C41.4151 30.8736 41.4531 31.1511 41.452 31.43ZM40.5016 31.4813C40.5008 31.322 40.486 31.1631 40.4575 31.0068C40.4343 30.874 40.3887 30.7467 40.3229 30.6312C40.2624 30.5271 40.1773 30.4419 40.0762 30.3841C39.9568 30.3215 39.8241 30.2923 39.6914 30.2991C39.5671 30.2978 39.4443 30.3268 39.3322 30.3839C39.2307 30.4383 39.144 30.5203 39.0816 30.6217C39.0128 30.7359 38.9638 30.8623 38.9372 30.9951C38.9041 31.1577 38.8893 31.3239 38.8931 31.4902C38.8938 31.6496 38.9091 31.8085 38.9387 31.9647C38.963 32.0972 39.0087 32.2243 39.0737 32.3403C39.133 32.4448 39.2185 32.5296 39.3204 32.5855C39.4398 32.6464 39.5713 32.6749 39.7032 32.6685C39.8287 32.6701 39.953 32.6411 40.0659 32.5837C40.1674 32.5297 40.2541 32.4484 40.3168 32.3479C40.386 32.2348 40.4343 32.1088 40.4594 31.9765C40.4913 31.8137 40.5054 31.6476 40.5016 31.4813Z" fill="#707D9B"/>
<path d="M47.0626 29.6432C47.0623 29.6787 47.0588 29.7141 47.0528 29.7489C47.0455 29.7907 47.033 29.8508 47.0144 29.9292L46.1761 33.0955C46.1666 33.1343 46.151 33.1709 46.1293 33.2037C46.1061 33.2342 46.0754 33.257 46.0404 33.2693C45.9845 33.2886 45.9267 33.2999 45.8682 33.3028C45.7933 33.3089 45.6963 33.3127 45.5762 33.3143C45.4564 33.3159 45.3584 33.3139 45.2823 33.3083C45.2219 33.3057 45.1618 33.2953 45.104 33.2774C45.0672 33.2667 45.0345 33.2447 45.0094 33.2141C44.9881 33.1834 44.9725 33.1484 44.9641 33.1111L44.3897 30.9992L44.3817 30.964L44.3749 30.9993L43.8921 33.1248C43.8852 33.1633 43.8712 33.2 43.851 33.2329C43.8274 33.2647 43.7947 33.2876 43.7582 33.2986C43.6997 33.3176 43.6396 33.3288 43.5784 33.3322C43.5028 33.3383 43.4051 33.3422 43.2849 33.3437C43.1625 33.3453 43.0637 33.3433 42.9892 33.3378C42.9295 33.335 42.8702 33.3246 42.8124 33.3068C42.7759 33.2961 42.7432 33.274 42.7181 33.2435C42.6968 33.2128 42.6812 33.1777 42.6729 33.1405L41.7707 29.9965C41.7521 29.9386 41.7373 29.8793 41.7263 29.8192C41.7206 29.7837 41.7171 29.7478 41.716 29.7118C41.7152 29.6872 41.7221 29.6631 41.7354 29.6431C41.7544 29.6194 41.7799 29.6026 41.8084 29.5952C41.8548 29.5809 41.9027 29.5717 41.9513 29.568C42.011 29.5621 42.0863 29.5585 42.1771 29.5573C42.2748 29.5561 42.3547 29.5576 42.4159 29.562C42.4645 29.5642 42.5124 29.5727 42.5592 29.5876C42.5881 29.596 42.6136 29.6142 42.6314 29.6395C42.6463 29.664 42.6569 29.6909 42.6638 29.7192L43.3423 32.2716L43.3503 32.3185L43.3572 32.2714L43.9377 29.7028C43.9438 29.6738 43.9556 29.6464 43.9719 29.6223C43.9902 29.5977 44.0149 29.5791 44.0426 29.5685C44.086 29.5525 44.1308 29.5427 44.1764 29.5394C44.2338 29.5335 44.308 29.53 44.3984 29.5288C44.4722 29.5271 44.5456 29.5294 44.6189 29.5358C44.6646 29.5394 44.7094 29.548 44.7531 29.5614C44.7805 29.5687 44.8052 29.5848 44.8235 29.6074C44.8379 29.6279 44.8486 29.651 44.8558 29.6754L45.5386 32.2474L45.55 32.2903L45.5568 32.2432L46.1522 29.6744C46.1556 29.6456 46.1655 29.6181 46.1807 29.5939C46.1989 29.5685 46.2244 29.5497 46.2533 29.5402C46.2985 29.5244 46.3453 29.5146 46.3928 29.511C46.4513 29.5051 46.5259 29.5015 46.6163 29.5004C46.7072 29.4992 46.7813 29.5009 46.8387 29.5053C46.8847 29.5077 46.9307 29.5157 46.9748 29.529C47.0018 29.5359 47.0261 29.5521 47.0436 29.575C47.0562 29.5952 47.0626 29.619 47.0626 29.6432Z" fill="#707D9B"/>
<path d="M50.5415 31.2489C50.5499 31.3443 50.5241 31.4396 50.4693 31.5157C50.4431 31.5452 50.4108 31.5685 50.375 31.5837C50.3397 31.599 50.3013 31.6061 50.2629 31.6043L48.2689 31.6299C48.2689 31.7666 48.2872 31.9026 48.3229 32.0338C48.3541 32.148 48.4092 32.253 48.4845 32.3407C48.562 32.4275 48.6586 32.4927 48.7658 32.5306C48.8981 32.5762 49.0368 32.597 49.176 32.5918C49.3185 32.5917 49.4611 32.5774 49.6014 32.5492C49.7086 32.527 49.8143 32.4982 49.9181 32.463C50.007 32.4319 50.0808 32.4036 50.1393 32.3781C50.1842 32.356 50.2325 32.3429 50.2819 32.3391C50.3013 32.3381 50.3203 32.3426 50.3374 32.352C50.3541 32.3636 50.367 32.3805 50.3746 32.4005C50.3864 32.4322 50.3937 32.4658 50.3959 32.4999C50.4001 32.5428 50.4024 32.5969 50.4032 32.662C50.4039 32.7194 50.4032 32.7683 50.4013 32.8087C50.3997 32.8435 50.3967 32.8781 50.3914 32.9124C50.388 32.9376 50.3807 32.9622 50.3701 32.9851C50.3598 33.0058 50.3473 33.025 50.3324 33.0423C50.2933 33.0751 50.2496 33.1007 50.2028 33.1182C50.1146 33.1567 50.0241 33.1886 49.9321 33.2136C49.8078 33.2481 49.682 33.2759 49.5546 33.2966C49.4041 33.3213 49.252 33.3344 49.1 33.3357C48.8403 33.344 48.5814 33.3078 48.3328 33.2282C48.1248 33.1606 47.9351 33.041 47.7796 32.8795C47.6249 32.7115 47.5097 32.5065 47.4443 32.2816C47.3645 32.006 47.3246 31.7191 47.3265 31.4307C47.3193 31.1466 47.3546 30.8631 47.4306 30.5907C47.4957 30.3565 47.6055 30.1394 47.7538 29.9531C47.8967 29.7777 48.0754 29.6396 48.2765 29.5495C48.4978 29.4523 48.735 29.4027 48.9745 29.4037C49.2144 29.3941 49.4539 29.4349 49.6789 29.5237C49.8637 29.5992 50.0291 29.7196 50.1621 29.8753C50.2914 30.0309 50.3872 30.2144 50.4438 30.4132C50.5066 30.6334 50.5389 30.8622 50.5396 31.0923L50.5415 31.2489ZM49.6424 30.9789C49.6592 30.7491 49.6014 30.5202 49.4794 30.33C49.4166 30.2498 49.3368 30.187 49.2467 30.147C49.1562 30.107 49.0581 30.0908 48.9608 30.1002C48.8547 30.0987 48.7498 30.1242 48.6548 30.1744C48.5708 30.2205 48.4974 30.2863 48.4404 30.3668C48.3814 30.452 48.3377 30.548 48.3111 30.65C48.2815 30.7629 48.2647 30.8794 48.2621 30.9967L49.6424 30.9789Z" fill="#707D9B"/>
<path d="M53.2931 29.8931C53.2943 29.9869 53.2928 30.0639 53.2886 30.1238C53.2859 30.1715 53.2791 30.2187 53.268 30.2649C53.2623 30.2921 53.249 30.3167 53.23 30.3358C53.2129 30.3496 53.1916 30.3567 53.17 30.3561C53.1472 30.3558 53.1247 30.3515 53.1034 30.3433C53.0791 30.3345 53.0514 30.3251 53.0206 30.315C52.9898 30.305 52.9563 30.2957 52.9194 30.287C52.8795 30.278 52.8388 30.274 52.7982 30.2748C52.7449 30.2758 52.6929 30.2878 52.6442 30.3101C52.5868 30.3369 52.5332 30.3725 52.4857 30.4157C52.4226 30.4725 52.3655 30.5362 52.315 30.6056C52.2465 30.6988 52.1834 30.7963 52.1256 30.8975L52.1504 33.0711C52.1507 33.096 52.1431 33.1203 52.1287 33.1398C52.1085 33.1635 52.0827 33.1808 52.0542 33.1897C52.0082 33.2056 51.961 33.216 51.9131 33.2208C51.7641 33.2358 51.6143 33.2377 51.4649 33.2265C51.417 33.223 51.3695 33.2138 51.3231 33.1991C51.2942 33.1909 51.268 33.1743 51.2475 33.1511C51.2326 33.1319 51.2243 33.1079 51.2247 33.083L51.1851 29.5957C51.1844 29.5714 51.1904 29.5475 51.2026 29.5271C51.2193 29.5037 51.2421 29.4864 51.2684 29.4773C51.3079 29.4618 51.349 29.4514 51.3908 29.4464C51.4535 29.4384 51.5166 29.4344 51.5801 29.4342C51.6447 29.4327 51.7097 29.4351 51.7748 29.4415C51.8154 29.4448 51.8557 29.4542 51.8941 29.4693C51.9185 29.4788 51.9397 29.4954 51.9553 29.5174C51.9683 29.5375 51.9747 29.5613 51.9747 29.5855L51.9793 30.0196C52.0511 29.9049 52.131 29.796 52.218 29.6939C52.2827 29.6181 52.3545 29.5497 52.4324 29.4898C52.4944 29.4425 52.5636 29.4066 52.637 29.3836C52.7039 29.3634 52.7727 29.3527 52.8423 29.3516C52.8742 29.3512 52.9084 29.3527 52.9453 29.3562C52.9833 29.36 53.0213 29.366 53.059 29.3743C53.0939 29.3817 53.1285 29.3917 53.1624 29.4043C53.1856 29.4122 53.2076 29.4245 53.227 29.4406C53.2395 29.4523 53.2498 29.4669 53.2566 29.4833C53.2646 29.504 53.2703 29.5256 53.2741 29.5476C53.281 29.5883 53.2852 29.6293 53.2867 29.6705C53.2901 29.7251 53.292 29.7993 53.2931 29.8931Z" fill="#707D9B"/>
<path d="M56.7211 31.1669C56.7295 31.2624 56.7037 31.3576 56.6489 31.4336C56.6223 31.4632 56.5904 31.4864 56.5546 31.5017C56.5189 31.517 56.4809 31.524 56.4425 31.5223L54.4485 31.5479C54.4485 31.6846 54.4668 31.8206 54.5025 31.9518C54.5337 32.0659 54.5888 32.171 54.6641 32.2586C54.7416 32.3455 54.8382 32.4108 54.9454 32.4486C55.0777 32.4942 55.2165 32.5149 55.3556 32.5098C55.4982 32.5096 55.6407 32.4954 55.781 32.4672C55.8882 32.445 55.9939 32.4162 56.0977 32.381C56.1866 32.3499 56.2604 32.3216 56.3189 32.296C56.3638 32.274 56.4125 32.2608 56.4619 32.2571C56.4809 32.2561 56.4999 32.2605 56.517 32.27C56.5337 32.2816 56.5467 32.2985 56.5543 32.3184C56.566 32.3502 56.5733 32.3838 56.5755 32.4179C56.5797 32.4608 56.582 32.5149 56.5828 32.58C56.5835 32.6374 56.5828 32.6863 56.5809 32.7267C56.5793 32.7614 56.5759 32.7961 56.571 32.8304C56.5676 32.8557 56.5603 32.8802 56.5497 32.9031C56.5394 32.9238 56.5269 32.943 56.5121 32.9603C56.4729 32.993 56.4292 33.0187 56.3824 33.0362C56.2942 33.0746 56.2037 33.1065 56.1117 33.1316C55.9874 33.1661 55.8612 33.1938 55.7342 33.2146C55.5837 33.2393 55.4316 33.2523 55.2796 33.2537C55.0199 33.262 54.761 33.2257 54.5124 33.1462C54.3048 33.0785 54.1151 32.959 53.9596 32.7974C53.8045 32.6294 53.6897 32.4245 53.6239 32.1996C53.5441 31.924 53.5042 31.6371 53.5061 31.3487C53.4992 31.0646 53.5342 30.7811 53.6103 30.5086C53.6753 30.2745 53.7855 30.0574 53.9338 29.8711C54.0763 29.6956 54.255 29.5575 54.4561 29.4675C54.6774 29.3703 54.9146 29.3207 55.1541 29.3217C55.394 29.3121 55.6335 29.3529 55.8586 29.4417C56.0433 29.5171 56.2087 29.6375 56.3417 29.7932C56.471 29.9489 56.5672 30.1324 56.6234 30.3312C56.6862 30.5514 56.7185 30.7802 56.7192 31.0103L56.7211 31.1669ZM55.8221 30.8969C55.8384 30.6671 55.781 30.4381 55.6586 30.248C55.5962 30.1678 55.5164 30.105 55.4259 30.0649C55.3354 30.0249 55.2374 30.0088 55.14 30.0181C55.034 30.0167 54.929 30.0422 54.8344 30.0924C54.75 30.1385 54.6766 30.2042 54.6196 30.2848C54.5607 30.37 54.5169 30.466 54.4907 30.568C54.4607 30.6809 54.444 30.7973 54.4413 30.9146L55.8221 30.8969Z" fill="#707D9B"/>
<path d="M60.5106 32.9636C60.5117 32.9892 60.5056 33.0144 60.4931 33.0362C60.4775 33.0589 60.4558 33.0761 60.4311 33.0859C60.3931 33.1015 60.3528 33.1112 60.3121 33.1148C60.2619 33.1206 60.2004 33.1239 60.127 33.125C60.0487 33.126 59.9848 33.1242 59.9358 33.1196C59.8951 33.1168 59.8548 33.1081 59.8164 33.0938C59.7902 33.0847 59.7673 33.068 59.7495 33.0457C59.7354 33.0248 59.7282 32.9995 59.7286 32.9737L59.7244 32.5866C59.5735 32.768 59.3959 32.9221 59.1986 33.0431C59.0066 33.15 58.7937 33.2076 58.577 33.2114C58.3604 33.2152 58.1456 33.1651 57.9502 33.065C57.7791 32.9666 57.6323 32.8256 57.5232 32.6541C57.4077 32.4688 57.3248 32.2624 57.2795 32.0453C57.2271 31.8039 57.1993 31.557 57.1978 31.3092C57.1913 31.0272 57.2195 30.7456 57.2818 30.4714C57.3331 30.2434 57.4232 30.0274 57.5483 29.8345C57.6627 29.6618 57.8148 29.5216 57.9916 29.4261C58.1832 29.3266 58.3938 29.2757 58.6071 29.2775C58.7801 29.2727 58.9515 29.3113 59.1078 29.3903C59.2731 29.4794 59.4244 29.5955 59.556 29.7345L59.5347 27.8461C59.5343 27.8209 59.5411 27.7963 59.5541 27.7754C59.5727 27.7502 59.5982 27.7315 59.6271 27.7217C59.6727 27.7043 59.7198 27.6925 59.7681 27.6867C59.9168 27.6691 60.0669 27.6672 60.2159 27.6809C60.2635 27.6854 60.3106 27.696 60.3558 27.7123C60.3847 27.7221 60.4102 27.74 60.43 27.7642C60.4448 27.7842 60.4528 27.8088 60.4528 27.8343L60.5106 32.9636ZM59.5662 30.6453C59.4552 30.4938 59.326 30.3587 59.1815 30.2435C59.0716 30.1556 58.9378 30.1079 58.8002 30.1077C58.69 30.1061 58.582 30.141 58.4911 30.2075C58.4033 30.2744 58.3322 30.3632 58.2847 30.4662C58.2311 30.5798 58.1931 30.7007 58.171 30.8254C58.1467 30.9589 58.1353 31.0946 58.1372 31.2305C58.1383 31.3733 58.1513 31.5157 58.1748 31.6562C58.1954 31.7841 58.2334 31.908 58.2874 32.0242C58.3345 32.1263 58.4041 32.2146 58.4904 32.2816C58.5839 32.3485 58.6949 32.3814 58.8074 32.3752C58.8702 32.3745 58.9329 32.3638 58.9926 32.3435C59.0576 32.3204 59.1192 32.2874 59.1751 32.2454C59.2442 32.1937 59.3081 32.1346 59.3659 32.0689C59.4313 31.9964 59.5024 31.9076 59.5795 31.8023L59.5662 30.6453Z" fill="#707D9B"/>
<path d="M66.2215 31.1034C66.2279 31.3855 66.199 31.6673 66.1356 31.9413C66.0835 32.1692 65.9926 32.3851 65.8672 32.5782C65.7542 32.7498 65.6041 32.8898 65.4292 32.9866C65.2448 33.0853 65.0407 33.1362 64.8343 33.1349C64.7308 33.1369 64.6271 33.1272 64.5256 33.1057C64.4298 33.0848 64.3374 33.0498 64.2507 33.0017C64.1587 32.95 64.0716 32.8882 63.9914 32.8173C63.8979 32.7343 63.8105 32.6439 63.7295 32.547L63.7337 32.9262C63.7348 32.952 63.728 32.9775 63.7147 32.9988C63.6972 33.0215 63.6747 33.0387 63.6489 33.0485C63.6094 33.0641 63.5683 33.0738 63.5261 33.0775C63.4748 33.0833 63.4124 33.0867 63.3391 33.0876C63.263 33.0886 63.2003 33.0868 63.1497 33.0823C63.1083 33.0796 63.0676 33.0709 63.0285 33.0564C63.0026 33.0477 62.9802 33.031 62.9635 33.0084C62.9505 32.987 62.9437 32.9618 62.9444 32.9363L62.8863 27.7954C62.8855 27.77 62.8931 27.7451 62.9076 27.7247C62.927 27.6997 62.9528 27.6811 62.9821 27.671C63.0277 27.6536 63.0752 27.6418 63.1231 27.6359C63.2718 27.6183 63.4219 27.6164 63.571 27.6302C63.6192 27.6348 63.6671 27.6453 63.7131 27.6616C63.7424 27.671 63.7686 27.689 63.7888 27.7134C63.8036 27.7334 63.8116 27.7581 63.8116 27.7835L63.8337 29.7106C63.9097 29.6266 63.9922 29.5497 64.0804 29.4806C64.1583 29.42 64.2412 29.3672 64.3282 29.323C64.41 29.2819 64.4959 29.2512 64.5845 29.2318C64.6761 29.2119 64.7696 29.2016 64.8631 29.2008C65.0779 29.1909 65.2912 29.2415 65.4817 29.3473C65.6501 29.4464 65.7934 29.5875 65.8995 29.7584C66.0131 29.9444 66.0945 30.1506 66.1397 30.3672C66.1922 30.6087 66.22 30.8555 66.2215 31.1034ZM65.2638 31.1861C65.2627 31.0421 65.2505 30.8984 65.2277 30.7565C65.2087 30.6289 65.1707 30.5053 65.1156 30.3903C65.0673 30.29 64.9977 30.2031 64.9126 30.1369C64.8206 30.0713 64.7115 30.0391 64.6008 30.0451C64.54 30.0458 64.4796 30.0557 64.4214 30.0747C64.3568 30.0969 64.2959 30.1293 64.2408 30.1709C64.172 30.2223 64.1081 30.2807 64.05 30.3453C63.9755 30.4283 63.9063 30.5168 63.8435 30.61L63.8565 31.7672C63.9648 31.9181 64.0918 32.0526 64.234 32.167C64.3416 32.2538 64.4731 32.3008 64.6081 32.301C64.7172 32.3032 64.8236 32.2675 64.9118 32.1994C64.9966 32.1304 65.0662 32.0428 65.1163 31.9425C65.1726 31.8308 65.2114 31.7102 65.2315 31.5853C65.2543 31.4536 65.2654 31.3199 65.2638 31.186V31.1861Z" fill="#707D9B"/>
<path d="M75.3879 31.3896C75.3921 31.5555 75.3705 31.7209 75.3237 31.8792C75.2819 32.0194 75.2184 32.1511 75.1355 32.2687C75.0542 32.3825 74.9561 32.4815 74.8451 32.5619C74.7287 32.646 74.6029 32.7146 74.471 32.7661C74.3292 32.8215 74.1824 32.862 74.0334 32.887C73.8616 32.9153 73.6878 32.9299 73.5141 32.9308L72.2512 32.9471C72.1767 32.9504 72.1037 32.9242 72.0463 32.8734C72.0159 32.8413 71.9927 32.8026 71.9779 32.7599C71.963 32.7172 71.9573 32.6715 71.9608 32.6262L71.911 28.2161C71.9064 28.1709 71.9113 28.1251 71.925 28.082C71.9387 28.039 71.9611 27.9997 71.9908 27.9668C72.0471 27.9146 72.1193 27.8865 72.1938 27.8879L73.3871 27.8726C73.6358 27.8647 73.8844 27.8877 74.1281 27.9413C74.3113 27.9821 74.4854 28.0602 74.6409 28.1713C74.7782 28.2723 74.8892 28.4088 74.9629 28.5679C75.042 28.7458 75.0819 28.9406 75.0796 29.1373C75.0819 29.2543 75.0682 29.371 75.0397 29.4839C75.0127 29.5892 74.9705 29.6894 74.9143 29.7807C74.8584 29.8708 74.7892 29.9509 74.7097 30.018C74.625 30.0887 74.531 30.1453 74.4307 30.1857C74.5611 30.2086 74.6873 30.2531 74.8048 30.3178C74.9181 30.3806 75.0199 30.4647 75.1051 30.5662C75.1929 30.6719 75.2621 30.7935 75.3092 30.9252C75.3617 31.0737 75.3883 31.231 75.3879 31.3896ZM74.1155 29.2749C74.1159 29.1816 74.0999 29.089 74.0684 29.0019C74.0399 28.9243 73.9939 28.8556 73.9338 28.8022C73.868 28.746 73.792 28.705 73.7103 28.6818C73.5932 28.6511 73.4723 28.6382 73.3518 28.6435L72.8633 28.6497L72.8781 29.9633L73.4179 29.9564C73.5316 29.9594 73.6445 29.94 73.7517 29.8993C73.8293 29.8667 73.8996 29.8164 73.9574 29.752C74.0117 29.6899 74.0532 29.616 74.0779 29.5354C74.1041 29.4514 74.1171 29.3633 74.1155 29.2749ZM74.3858 31.4377C74.3866 31.3299 74.3664 31.2231 74.3273 31.1237C74.2912 31.0337 74.2345 30.9546 74.1631 30.8931C74.0821 30.8266 73.9889 30.7785 73.8897 30.7519C73.749 30.716 73.6042 30.7008 73.4594 30.7066L72.8868 30.7139L72.9028 32.1527L73.6008 32.1437C73.7152 32.145 73.8296 32.1284 73.9399 32.0944C74.0266 32.0661 74.1072 32.0199 74.1771 31.9584C74.244 31.8985 74.2972 31.8229 74.3322 31.7375C74.3706 31.643 74.3889 31.5406 74.3858 31.4377Z" fill="#707D9B"/>
<path d="M79.0308 30.8817C79.0392 30.9772 79.0133 31.0725 78.9586 31.1485C78.9319 31.1781 78.8996 31.2013 78.8643 31.2166C78.8285 31.2319 78.7901 31.2389 78.7517 31.2372L76.7578 31.2627C76.7582 31.3994 76.7764 31.5354 76.8122 31.6667C76.8429 31.7808 76.8981 31.8858 76.9733 31.9735C77.0513 32.0604 77.1478 32.1256 77.2547 32.1634C77.387 32.2091 77.5261 32.2298 77.6649 32.2246C77.8078 32.2245 77.9504 32.2102 78.0906 32.182C78.1975 32.1598 78.3032 32.131 78.4073 32.0958C78.4963 32.0647 78.57 32.0364 78.6282 32.0109C78.6734 31.9889 78.7217 31.9757 78.7711 31.9719C78.7905 31.9709 78.8095 31.9754 78.8263 31.9849C78.8434 31.9964 78.8563 32.0134 78.8635 32.0333C78.8757 32.065 78.8829 32.0986 78.8852 32.1327C78.8894 32.1757 78.8917 32.2297 78.8924 32.2949C78.8932 32.3522 78.8924 32.4011 78.8905 32.4416C78.889 32.4763 78.8856 32.5109 78.8806 32.5453C78.8768 32.5705 78.87 32.595 78.8593 32.6179C78.8491 32.6387 78.8361 32.6578 78.8213 32.6751C78.7825 32.7079 78.7388 32.7335 78.6921 32.751C78.6039 32.7895 78.5134 32.8214 78.421 32.8464C78.2967 32.881 78.1709 32.9087 78.0439 32.9294C77.8933 32.9541 77.7413 32.9672 77.5888 32.9685C77.3296 32.9769 77.0707 32.9406 76.822 32.861C76.6141 32.7934 76.4244 32.6738 76.2689 32.5123C76.1142 32.3443 75.999 32.1393 75.9336 31.9145C75.8538 31.6389 75.8138 31.3519 75.8157 31.0636C75.8085 30.7794 75.8439 30.496 75.9199 30.2235C75.9849 29.9894 76.0948 29.7722 76.243 29.5859C76.386 29.4105 76.5647 29.2724 76.7654 29.1823C76.987 29.0851 77.2242 29.0356 77.4634 29.0365C77.7036 29.027 77.9428 29.0677 78.1682 29.1565C78.353 29.232 78.5183 29.3524 78.6514 29.5081C78.7806 29.6637 78.8764 29.8472 78.9331 30.046C78.9958 30.2662 79.0281 30.495 79.0289 30.7251L79.0308 30.8817ZM78.1313 30.6118C78.1481 30.3819 78.0903 30.153 77.9679 29.9628C77.9055 29.8827 77.8257 29.8199 77.7356 29.7798C77.6451 29.7398 77.547 29.7237 77.4497 29.733C77.3436 29.7316 77.2387 29.757 77.1437 29.8073C77.0596 29.8533 76.9863 29.9191 76.9292 29.9997C76.8703 30.0849 76.8266 30.1808 76.8004 30.2828C76.7703 30.3957 76.7536 30.5122 76.7509 30.6295L78.1313 30.6118Z" fill="#707D9B"/>
<path d="M81.5972 32.35C81.6006 32.4385 81.5946 32.527 81.5801 32.6142C81.5733 32.6613 81.5554 32.706 81.5284 32.7439C81.5007 32.7731 81.468 32.7961 81.4318 32.8116C81.3832 32.8337 81.333 32.8514 81.2817 32.8643C81.2201 32.8802 81.1578 32.8921 81.095 32.9C81.0274 32.9087 80.9593 32.9135 80.8913 32.9144C80.7293 32.92 80.5677 32.897 80.413 32.8462C80.2845 32.8031 80.169 32.7259 80.0762 32.6219C79.9823 32.5114 79.9142 32.379 79.8774 32.2353C79.8306 32.0548 79.8074 31.8683 79.8086 31.681L79.7884 29.8943L79.3953 29.8994C79.3489 29.9 79.3132 29.8698 79.2877 29.8089C79.2569 29.7102 79.2436 29.6063 79.2478 29.5024C79.2463 29.4384 79.2486 29.3744 79.2547 29.3107C79.2581 29.2685 79.2668 29.2269 79.2809 29.1873C79.2896 29.1614 79.3056 29.1388 79.3261 29.1221C79.3451 29.1087 79.3672 29.1016 79.39 29.1018L79.7793 29.0968L79.7705 28.3188C79.7698 28.2937 79.7766 28.269 79.7899 28.2481C79.8086 28.2229 79.834 28.2042 79.8629 28.1944C79.9089 28.1771 79.9568 28.1659 80.0055 28.1614C80.0655 28.1541 80.1397 28.1499 80.2275 28.1487C80.3184 28.1476 80.3936 28.1499 80.4537 28.1556C80.502 28.1588 80.5495 28.1687 80.5955 28.185C80.624 28.1948 80.6499 28.2127 80.6696 28.2369C80.6841 28.2569 80.6921 28.2816 80.6924 28.307L80.7012 29.0849L81.4136 29.0758C81.436 29.075 81.4588 29.0815 81.4778 29.0945C81.4988 29.1107 81.5151 29.1329 81.5246 29.1585C81.5394 29.1978 81.5493 29.2391 81.5535 29.2812C81.5607 29.3448 81.5645 29.4087 81.5649 29.4727C81.5714 29.5765 81.56 29.6806 81.5315 29.7801C81.5079 29.8417 81.4725 29.8728 81.4261 29.8733L80.7099 29.8825L80.7285 31.5206C80.7213 31.669 80.7521 31.8167 80.8179 31.9477C80.8521 31.9973 80.8985 32.0363 80.9517 32.0607C81.0049 32.0851 81.0631 32.094 81.1205 32.0866C81.165 32.0865 81.2091 32.0814 81.2528 32.0712C81.2881 32.0627 81.3227 32.0518 81.357 32.0386C81.3874 32.0264 81.4128 32.0158 81.4337 32.0063C81.4516 31.9977 81.4706 31.9928 81.4904 31.9919C81.5056 31.9919 81.52 31.9964 81.533 32.0051C81.5493 32.0186 81.5603 32.0378 81.5645 32.0594C81.574 32.0959 81.5813 32.133 81.5862 32.1706C81.5934 32.2301 81.5972 32.29 81.5972 32.35Z" fill="#707D9B"/>
<path d="M84.087 27.8439C84.0881 27.9046 84.0862 27.9653 84.0817 28.0258C84.079 28.0619 84.0722 28.0975 84.0608 28.1316C84.0543 28.1515 84.0433 28.1693 84.0281 28.1829C84.0163 28.192 84.0022 28.197 83.9878 28.1971C83.9684 28.1968 83.949 28.1924 83.9307 28.1841C83.9098 28.1753 83.884 28.1658 83.8532 28.1558C83.8175 28.1445 83.7813 28.1351 83.7448 28.1279C83.6962 28.1187 83.6468 28.1147 83.5977 28.1161C83.5392 28.1153 83.481 28.1274 83.427 28.1515C83.3791 28.1748 83.3384 28.2119 83.3092 28.2586C83.2746 28.3158 83.2518 28.38 83.2415 28.4471C83.2263 28.5408 83.2202 28.6359 83.2225 28.7309L83.2263 29.0515L83.8247 29.0438C83.8463 29.0434 83.8676 29.05 83.8855 29.0626C83.9064 29.0787 83.9228 29.1009 83.9323 29.1265C83.9471 29.1658 83.9566 29.2071 83.9612 29.2493C83.9684 29.3128 83.9722 29.3767 83.9726 29.4407C83.979 29.5445 83.9676 29.6486 83.9391 29.7481C83.9155 29.8097 83.8802 29.8408 83.8338 29.8413L83.235 29.849L83.267 32.6717C83.2677 32.6966 83.2601 32.7209 83.2457 32.7405C83.2263 32.7638 83.2012 32.781 83.1731 32.7902C83.1267 32.8065 83.0788 32.817 83.0301 32.8214C82.9689 32.8287 82.8944 32.8329 82.8062 32.8341C82.718 32.8352 82.6439 32.8329 82.5838 32.8272C82.5352 32.8237 82.4873 32.8145 82.4405 32.7997C82.412 32.7919 82.3861 32.7752 82.3664 32.7517C82.3527 32.7321 82.3451 32.7081 82.3455 32.6836L82.3135 29.8609L81.9022 29.8661C81.8558 29.8667 81.8204 29.8365 81.7965 29.7756C81.7672 29.6766 81.7543 29.5729 81.7581 29.4691C81.757 29.4051 81.7592 29.3411 81.7653 29.2774C81.7687 29.2354 81.7767 29.194 81.7896 29.154C81.7972 29.1281 81.8125 29.1054 81.833 29.0889C81.852 29.0754 81.874 29.0683 81.8969 29.0685L82.3048 29.0633L82.3014 28.7701C82.296 28.5601 82.3158 28.3503 82.3603 28.1456C82.3953 27.9819 82.4644 27.8287 82.5629 27.6973C82.6579 27.5757 82.7807 27.4819 82.9195 27.4248C83.0841 27.3593 83.2586 27.3266 83.4342 27.3283C83.5255 27.3268 83.6167 27.3341 83.7064 27.3503C83.7753 27.3616 83.8429 27.3791 83.9091 27.4024C83.9448 27.4139 83.9786 27.432 84.0087 27.4559C84.0284 27.4765 84.0433 27.5018 84.052 27.5296C84.0649 27.57 84.0733 27.6119 84.0771 27.6544C84.0828 27.7052 84.0859 27.7683 84.087 27.8439Z" fill="#707D9B"/>
<path d="M87.568 32.6301C87.5688 32.6465 87.5661 32.6629 87.5601 32.6779C87.5536 32.693 87.5441 32.7062 87.5323 32.7166C87.4981 32.742 87.4586 32.7579 87.4171 32.763C87.3399 32.7747 87.262 32.7803 87.1841 32.7797C87.1039 32.7827 87.0233 32.7791 86.9434 32.7692C86.9047 32.7656 86.8674 32.7505 86.8362 32.7255C86.8256 32.7145 86.8172 32.7012 86.8115 32.6864C86.8062 32.6717 86.8035 32.6558 86.8043 32.6399L86.8013 32.3623C86.6724 32.5144 86.5173 32.6386 86.3443 32.7279C86.1652 32.818 85.9695 32.8646 85.771 32.8643C85.6091 32.8682 85.4471 32.8459 85.2912 32.7981C85.1521 32.7559 85.0228 32.6844 84.9103 32.588C84.8023 32.4933 84.716 32.3733 84.6586 32.2373C84.5952 32.0823 84.5632 31.9148 84.5647 31.7458C84.5587 31.5622 84.5952 31.3797 84.6708 31.2146C84.7472 31.0601 84.8613 30.9303 85.0008 30.839C85.1703 30.73 85.3566 30.6542 85.5509 30.6149C85.8037 30.5616 86.0603 30.5348 86.3177 30.5346L86.637 30.5306L86.6347 30.3194C86.6351 30.2226 86.6233 30.1262 86.6001 30.0325C86.5815 29.9564 86.5454 29.8863 86.4952 29.8285C86.442 29.7716 86.3758 29.7307 86.3029 29.7099C86.2063 29.6828 86.1067 29.6709 86.0067 29.6746C85.8672 29.6744 85.7284 29.6946 85.5942 29.7347C85.4847 29.7682 85.3779 29.81 85.2741 29.8599C85.1817 29.9055 85.1046 29.9469 85.0426 29.9841C84.997 30.0156 84.9449 30.035 84.8909 30.0408C84.8647 30.0414 84.8392 30.032 84.8187 30.0143C84.7959 29.9934 84.7776 29.9668 84.7666 29.9368C84.751 29.8967 84.74 29.8549 84.7339 29.8121C84.7256 29.7578 84.7214 29.703 84.721 29.648C84.7183 29.5836 84.724 29.5191 84.7373 29.4562C84.7495 29.4082 84.7731 29.3642 84.8054 29.3284C84.8582 29.2762 84.9187 29.2332 84.9841 29.201C85.0806 29.1493 85.181 29.1055 85.2836 29.0702C85.4064 29.0274 85.5319 28.9938 85.6589 28.9696C85.7976 28.9428 85.9383 28.9285 86.0789 28.9271C86.301 28.9198 86.523 28.9438 86.7389 28.9987C86.9054 29.0408 87.0601 29.1231 87.1917 29.2392C87.3133 29.3532 87.4038 29.4999 87.4536 29.6641C87.5133 29.8647 87.543 30.0741 87.5414 30.2847L87.568 32.6301ZM86.6442 31.1483L86.2915 31.1528C86.1633 31.1524 86.0356 31.1659 85.9101 31.1929C85.8189 31.2116 85.7322 31.2486 85.6543 31.3018C85.5927 31.3444 85.5433 31.4038 85.511 31.4737C85.4802 31.5456 85.4654 31.6241 85.4676 31.703C85.4654 31.7671 85.476 31.8308 85.4992 31.89C85.5224 31.9491 85.5574 32.0021 85.6018 32.0453C85.7045 32.1328 85.8341 32.1759 85.9653 32.1658C86.0915 32.1653 86.215 32.1271 86.3219 32.0556C86.4458 31.9693 86.5564 31.8638 86.6507 31.7426L86.6442 31.1483Z" fill="#707D9B"/>
<path d="M89.3339 27.9274C89.3423 28.0003 89.337 28.0743 89.3183 28.145C89.2997 28.2158 89.2678 28.2818 89.2249 28.3393C89.096 28.4147 88.952 28.4555 88.8053 28.4581C88.6587 28.4606 88.5135 28.4249 88.3824 28.354C88.3402 28.2996 88.3087 28.2368 88.2893 28.1693C88.2699 28.1018 88.2631 28.0308 88.2696 27.9606C88.2528 27.8129 88.2916 27.6642 88.3771 27.5466C88.5051 27.4699 88.6495 27.4285 88.7966 27.4259C88.9433 27.4234 89.0888 27.4598 89.2192 27.5319C89.2621 27.5865 89.294 27.6495 89.3138 27.7174C89.3335 27.7853 89.3404 27.8567 89.3339 27.9274ZM89.3168 32.5963C89.3176 32.6211 89.31 32.6454 89.2955 32.665C89.2754 32.6886 89.2496 32.7059 89.2211 32.7148C89.1751 32.7307 89.128 32.7412 89.0801 32.7459C88.9311 32.7609 88.7814 32.7628 88.6321 32.7517C88.5842 32.7482 88.5367 32.7389 88.4903 32.7242C88.4615 32.716 88.4352 32.6994 88.4147 32.6763C88.3999 32.6571 88.3915 32.633 88.3919 32.6082L88.3524 29.1286C88.3516 29.1038 88.3592 29.0794 88.3737 29.0598C88.3938 29.036 88.4197 29.0181 88.4485 29.0081C88.4941 28.9907 88.5413 28.9789 88.5895 28.973C88.7381 28.9555 88.8882 28.9536 89.0371 28.9673C89.0854 28.972 89.1329 28.9825 89.1789 28.9987C89.2078 29.008 89.234 29.0252 89.2549 29.0485C89.2697 29.0677 89.2777 29.0919 89.2777 29.1168L89.3168 32.5963Z" fill="#707D9B"/>
<path d="M92.2096 29.3969C92.2107 29.4908 92.2092 29.5678 92.205 29.6277C92.2023 29.6753 92.1955 29.7226 92.1841 29.7688C92.1788 29.7959 92.1655 29.8206 92.1464 29.8396C92.129 29.8534 92.1077 29.8606 92.086 29.86C92.0636 29.8597 92.0411 29.8553 92.0198 29.8472C91.9951 29.8384 91.9674 29.8289 91.937 29.8189C91.9062 29.8089 91.8723 29.7995 91.8355 29.7909C91.7955 29.7819 91.7549 29.7778 91.7142 29.7787C91.6613 29.7797 91.6089 29.7917 91.5606 29.814C91.5032 29.8408 91.4496 29.8764 91.4017 29.9196C91.339 29.9764 91.2819 30.04 91.2314 30.1094C91.1629 30.2027 91.0995 30.3002 91.042 30.4013L91.0664 32.575C91.0671 32.5999 91.0595 32.6242 91.0451 32.6437C91.0249 32.6674 90.9991 32.6846 90.9702 32.6935C90.9246 32.7095 90.877 32.7199 90.8291 32.7247C90.6801 32.7396 90.5303 32.7415 90.3813 32.7304C90.333 32.7269 90.2855 32.7177 90.2395 32.7029C90.2106 32.6947 90.1844 32.6782 90.1635 32.655C90.1486 32.6358 90.1407 32.6117 90.1407 32.5869L90.1015 29.0995C90.1007 29.0753 90.1068 29.0514 90.119 29.0309C90.1353 29.0076 90.1585 28.9902 90.1844 28.9812C90.2239 28.9657 90.2654 28.9553 90.3072 28.9503C90.3699 28.9423 90.433 28.9382 90.4961 28.9381C90.5611 28.9366 90.6261 28.939 90.6908 28.9454C90.7318 28.9487 90.7721 28.958 90.8105 28.9732C90.8348 28.9826 90.8561 28.9993 90.8717 29.0212C90.8843 29.0414 90.8911 29.0652 90.8907 29.0894L90.8957 29.5235C90.9675 29.4088 91.0474 29.2999 91.1344 29.1978C91.1991 29.122 91.2709 29.0535 91.3488 28.9937C91.4108 28.9463 91.48 28.9104 91.5534 28.8875C91.6199 28.8673 91.6891 28.8565 91.7587 28.8555C91.7902 28.8551 91.8248 28.8566 91.8613 28.8601C91.8997 28.8638 91.9377 28.8699 91.9754 28.8782C92.0103 28.8856 92.0449 28.8956 92.0788 28.9082C92.102 28.916 92.124 28.9284 92.1434 28.9445C92.1559 28.9562 92.1662 28.9708 92.1731 28.9871C92.181 29.0079 92.1867 29.0295 92.1905 29.0514C92.197 29.0921 92.2012 29.1332 92.2031 29.1744C92.2061 29.229 92.2084 29.3032 92.2096 29.3969Z" fill="#707D9B"/>
<path d="M67.2857 34.1029C67.1621 34.1029 67.0455 34.0927 66.9359 34.0723C66.8263 34.0534 66.7322 34.0278 66.6535 33.9958L66.8811 33.2194C66.9823 33.2544 67.0736 33.2748 67.1551 33.2807C67.238 33.2865 67.3089 33.2727 67.3679 33.2391C67.4283 33.2071 67.4747 33.1495 67.507 33.0664L67.5471 32.9658L66.3964 29.4844H67.4754L68.0718 31.8811H68.1056L68.7104 29.4844H69.7958L68.5755 33.1648C68.5165 33.3485 68.4329 33.5103 68.3247 33.6503C68.218 33.7917 68.0796 33.9025 67.9096 33.9826C67.741 34.0628 67.533 34.1029 67.2857 34.1029Z" fill="#707D9B"/>
</g>
<defs>
<clipPath id="clip0_4788_111593">
<rect width="92" height="34" fill="white" transform="translate(0.387085)"/>
</clipPath>
</defs>
</svg>
