<svg width="81" height="10" viewBox="0 0 81 10" fill="none" xmlns="http://www.w3.org/2000/svg">
<path d="M69.8355 5.40816C69.8969 4.66707 69.6771 3.94511 69.2197 3.37884L69.1934 3.34385C68.6915 2.74192 67.9385 2.39672 67.1276 2.39672C66.4798 2.39672 65.8402 2.60757 65.2781 3.00633C64.6263 3.46925 63.9912 4.52806 63.3748 5.55556L63.2136 5.82442C62.4915 7.02592 61.745 8.26846 60.7562 8.97123C59.8657 9.60232 58.8435 9.93585 57.8002 9.93585C56.3928 9.93585 55.0827 9.31428 54.2059 8.23024C53.4081 7.24224 53.0288 5.99223 53.1381 4.7104L55.0918 4.88727C55.0306 5.62821 55.2504 6.35017 55.7076 6.91639L55.7339 6.95138C56.2358 7.55331 56.9888 7.8985 57.7999 7.8985C58.4475 7.8985 59.0871 7.68766 59.6494 7.2889C60.3009 6.82619 60.9356 5.76819 61.5526 4.73967L61.7144 4.46979C62.4363 3.26859 63.1826 2.02656 64.1712 1.324C65.0616 0.692905 66.0838 0.359375 67.1273 0.359375C68.5346 0.359375 69.8447 0.98095 70.7215 2.06499C71.5194 3.05314 71.8987 4.30315 71.7894 5.58483L69.8355 5.40816Z" fill="white"/>
<path d="M71.7894 4.7104C71.8987 5.99208 71.5194 7.24214 70.7215 8.23024C69.8447 9.31423 68.5346 9.93585 67.1273 9.93585C66.0838 9.93585 65.0616 9.60232 64.1712 8.97123C63.1826 8.26862 62.4363 7.02659 61.7144 5.82544L61.5526 5.55556C60.9356 4.52709 60.3009 3.46909 59.6494 3.00633C59.0871 2.60762 58.4475 2.39672 57.7999 2.39672C56.9888 2.39672 56.2358 2.74192 55.7339 3.34385L55.7076 3.37884C55.2504 3.94511 55.0306 4.66702 55.0918 5.40796L53.1381 5.58483C53.0288 4.30294 53.4081 3.05294 54.2059 2.06499C55.0828 0.981002 56.3928 0.359375 57.8002 0.359375C58.8435 0.359375 59.8657 0.692905 60.7562 1.324C61.745 2.02677 62.4915 3.2693 63.2136 4.47081L63.3748 4.73967C63.9912 5.76717 64.6262 6.82598 65.2781 7.2889C65.8402 7.68761 66.4798 7.8985 67.1276 7.8985C67.9385 7.8985 68.6915 7.55331 69.1934 6.95138L69.2196 6.91639C69.6771 6.35012 69.8969 5.62821 69.8355 4.88707L71.7894 4.7104Z" fill="white"/>
<path d="M31.6192 9.97069C28.0261 9.97069 26.7367 7.4125 26.7242 5.22172C26.7172 3.8677 27.2162 2.58761 28.0933 1.70945C28.9682 0.83247 30.1875 0.369141 31.6192 0.369141C32.9021 0.369141 34.0753 0.855493 35.0119 1.77586L35.1438 1.90551L34.392 2.62649C34.2098 2.80085 33.9649 2.89678 33.7027 2.89678C33.5169 2.89678 33.3346 2.84639 33.1756 2.75076C32.7054 2.46829 32.1818 2.32494 31.6192 2.32494C30.7576 2.32494 30.0599 2.58689 29.5455 3.10363C29.0255 3.62672 28.7311 4.39774 28.7376 5.21885C28.7502 6.58305 29.5139 8.04083 31.6191 8.04083C32.1622 8.04083 32.7482 7.8743 33.2267 7.584L33.258 7.56497C33.4165 7.47088 33.5977 7.42079 33.7812 7.42079C34.0643 7.42079 34.3367 7.53908 34.5286 7.74532L35.2551 8.47612L35.1259 8.60296C34.2147 9.49784 33.0021 9.97069 31.6192 9.97069Z" fill="white"/>
<path d="M41.7771 9.781V6.19849H37.7809V9.781H35.7417V1.5742C35.7417 1.01443 36.199 0.559082 36.761 0.559082C37.3226 0.559082 37.7796 1.01443 37.7796 1.5742L37.7809 4.29375H41.777L41.7783 1.57354C41.7783 1.01407 42.2355 0.559082 42.7976 0.559082C43.3595 0.559082 43.8167 1.01443 43.8167 1.5742V9.78106H41.7771V9.781Z" fill="white"/>
<path d="M77.6252 9.76911L74.5005 6.50314V9.76896H72.4618L72.46 1.5576C72.46 0.998293 72.9163 0.543457 73.4771 0.543457C74.0385 0.543457 74.4952 0.997782 74.4952 1.55627L74.5014 4.00318L77.3302 0.86834C77.5112 0.661285 77.7733 0.543457 78.0506 0.543457C78.5783 0.543457 79.0075 0.971126 79.0075 1.49687C79.0075 1.72879 78.9237 1.95171 78.7718 2.12474L75.9151 5.21236L80.3184 9.77111L77.6252 9.76911Z" fill="white"/>
<path d="M22.1441 9.76871V2.426L19.3228 2.42431L19.3244 1.56186C19.3244 1.0024 19.7816 0.547559 20.3435 0.547559L25.9864 0.54541C26.5487 0.54541 27.0061 1.0006 27.0061 1.56022L27.0071 2.42318L24.1839 2.42584V9.76871H22.1441Z" fill="white"/>
<path d="M17.4246 1.48696C17.1704 0.915679 16.601 0.546387 15.974 0.546387C15.3514 0.546387 14.7841 0.911637 14.5289 1.47678L10.792 9.76902H13.0053L13.7674 8.09785H18.1839L18.9333 9.76902H21.1597L17.4246 1.48696ZM14.6006 6.18037L15.9759 3.03867L17.3517 6.18037H14.6006Z" fill="white"/>
<path d="M8.26672 9.76815V3.6957L5.70597 7.18525H5.09938L2.53899 3.69601V9.7681H0.5V1.73551C0.5 0.974821 1.11599 0.355957 1.87309 0.355957C2.32542 0.355957 2.74849 0.578873 3.00488 0.952616L5.4027 4.2411L7.80283 0.948933C8.05819 0.576519 8.47956 0.355957 8.93211 0.355957C9.68956 0.355957 10.3058 0.974821 10.3058 1.73551V9.76815H8.26672Z" fill="white"/>
<path d="M51.915 5.00616L51.8463 4.93356L51.9046 4.85262C52.1942 4.44935 52.3686 3.97845 52.4088 3.49092C52.4712 2.73341 52.2201 2.00726 51.7013 1.44631C51.1622 0.863157 50.3877 0.528809 49.5763 0.528809H45.8409C45.2606 0.528809 44.7886 0.998994 44.7886 1.57713V9.76746L49.8536 9.76628C51.4172 9.76628 52.6891 8.49852 52.6891 6.94011C52.6892 6.22102 52.4142 5.53411 51.915 5.00616ZM46.802 2.41763H49.5547C50.0233 2.41763 50.4046 2.79772 50.4046 3.26473C50.4046 3.7319 50.0235 4.11199 49.5551 4.11199L46.802 4.1125V2.41763ZM49.7359 7.87756L46.802 7.87823V6.00311H49.7354C50.2539 6.00311 50.6757 6.42342 50.6757 6.94016C50.6757 7.45706 50.2541 7.87756 49.7359 7.87756Z" fill="white"/>
</svg>
