<svg width="118" height="22" viewBox="0 0 118 22" fill="none" xmlns="http://www.w3.org/2000/svg">
<path d="M31.8615 12.1445C31.8615 8.80027 33.9757 8.73843 36.8306 8.73843H37.1557C39.9373 8.73843 41.4625 9.21087 41.4625 12.4487V14.7021C41.4625 17.413 40.7708 18.5682 37.058 18.5682H36.3491C32.8269 18.5682 31.8639 17.5886 31.8639 14.8876C31.8615 14.89 31.8615 12.1445 31.8615 12.1445ZM31.8615 19.3349H31.9201C32.7952 20.5024 34.4059 21.106 36.3833 21.106H37.4075C41.5481 21.106 44.5765 20.0399 44.5741 15.2116V12.2632C44.5741 7.79355 42.6235 6.20555 37.537 6.20555H35.9556C33.7338 6.20555 32.4945 6.96739 31.9152 7.79355H31.8615V0.647577H28.7499V20.6508H31.8639L31.8615 19.3349Z" fill="#707D9B"/>
<path d="M82.3186 6.5556H78.1389V5.26442C78.1389 4.03262 78.9357 3.04321 80.6369 3.04321L83.7411 3.04816V0.643911L79.6128 0.646383C77.1172 0.646383 75.0225 1.96229 75.0225 5.28174V6.55807H73.3457V9.086H75.0225V21.0974H78.1389V9.086H82.3186V6.5556Z" fill="#707D9B"/>
<path d="M64.3239 16.4595C64.3239 19.7815 66.421 21.0974 68.9166 21.0974H72.7834V18.5645H69.6768C67.978 18.5645 67.4403 17.7037 67.4403 16.4719V9.08352H71.6249V6.55065H67.4403V0.641439H64.3288V6.55313H62.652V9.08352H64.3288L64.3239 16.4595Z" fill="#707D9B"/>
<path d="M100.188 3.84465H103.3V0.643929L100.186 0.646401L100.188 3.84465Z" fill="#707D9B"/>
<path d="M100.186 21.1028H103.3V6.19993H100.186V21.1028Z" fill="#707D9B"/>
<path d="M49.2446 11.884C49.2446 9.0222 50.562 8.73527 53.7738 8.73527H54.402C58.017 8.73527 58.4839 9.65789 58.4839 11.5378L58.4863 12.3367L49.2421 12.3416L49.2446 11.884ZM52.6396 21.1028H55.4408C59.2123 21.1028 60.9355 19.8908 61.3754 17.7735L58.6036 16.9251C58.1441 18.2286 57.0344 18.5699 54.5926 18.5699H53.874C49.8874 18.5699 49.2397 18.0579 49.2372 14.877L49.2446 14.8745H61.6003V12.119C61.6003 7.12996 59.0412 6.2024 54.9495 6.2024H53.4267C50.1881 6.2024 46.2626 6.77625 46.2626 11.8519V15.3692C46.265 20.2989 49.6674 21.1053 52.6396 21.1028Z" fill="#707D9B"/>
<path d="M94.309 16.6505C94.309 18.0505 93.3607 18.5699 89.6747 18.5699H88.8437C85.7101 18.5699 85.3142 17.959 85.3142 16.7494V15.9653C85.3142 14.5653 86.0939 14.036 88.6897 14.036H90.0756C92.4392 14.036 94.3115 14.506 94.3115 16.0742V16.6505H94.309ZM90.4373 6.19993H89.2739C85.0502 6.19993 83.2194 7.51584 83.0997 9.48475L86.067 10.4816C86.2039 9.13598 87.7315 8.73775 90.0438 8.73775C93.4853 8.73775 94.2993 8.9381 94.2993 11.4561V12.824H94.2382C93.4609 11.7752 92.3976 11.5031 89.7016 11.5031H88.4844C84.51 11.5031 82.1929 12.5049 82.1929 15.6883V16.5986C82.1977 19.2279 83.1852 21.1028 87.338 21.1028H90.3616C93.3656 21.1028 93.6662 20.6032 94.2602 19.7325H94.3066V21.0954H97.4181V11.5155C97.4206 7.34764 94.683 6.19993 90.4373 6.19993Z" fill="#707D9B"/>
<path d="M112.798 6.19993C111.415 6.19993 110.004 6.72926 109.129 8.17874H109.017V6.19993L106.069 6.2024V21.1028H109.183V12.1364C109.183 10.3257 110.21 8.73528 112.629 8.73528C114.357 8.73528 115.191 9.21019 115.377 9.70984L117.339 8.37167C116.853 7.01619 115.553 6.19993 112.798 6.19993Z" fill="#707D9B"/>
<path d="M23.0122 0.693113H14.951V4.78677H10.6418L18.9816 14.6462L27.3239 4.78677H23.0122V0.693113Z" fill="#707D9B"/>
<path d="M0.0148811 16.9143H4.32655V21.0104H12.3877V16.9118H16.6994L8.36203 7.0598L0.0148811 16.9143Z" fill="#707D9B"/>
</svg>
