<svg width="72" height="26" viewBox="0 0 72 26" fill="none" xmlns="http://www.w3.org/2000/svg">
<path opacity="0.5" d="M0.634756 5.47189L7.27062 18.5431L6.20027 11.5402L9.49973 9.34612L13.0104 8.18675L5.8339 8.48807L5.39438 4.82545L9.42121 2.4075L13.9295 1.03271C13.9295 1.03271 -1.06806 1.36047 0.634756 5.47189Z" fill="#838C9D"/>
<path d="M2.29738 4.02407L7.26143 18.6357L7.17474 10.9802L11.9726 10.9187L14.9352 7.69043L7.1386 7.79034L7.09525 3.9626L12.4929 3.89341L16.6477 0.0118568C16.6477 0.0118568 1.04732 -0.426273 2.29738 4.02407Z" fill="#838C9D"/>
<path d="M18.1575 17.9616L13.7691 18.0179C13.5959 18.0151 13.4303 17.9419 13.3064 17.8133C13.1824 17.6846 13.1095 17.5103 13.1027 17.3263L13.0829 15.5783C13.0856 15.3941 13.1545 15.218 13.2755 15.0862C13.3965 14.9544 13.5604 14.877 13.7334 14.8698L16.1469 14.8389L16.1403 14.2582L13.0685 14.2975L13.0513 12.7774L17.4397 12.7212C17.6128 12.7239 17.7784 12.7971 17.9024 12.9258C18.0263 13.0544 18.0992 13.2287 18.106 13.4128L18.1575 17.9616ZM16.1653 16.4725L16.1601 16.0061L15.0631 16.0201L15.0684 16.4866L16.1653 16.4725Z" fill="#838C9D"/>
<path d="M20.7849 17.9276L18.81 17.9529L18.7505 12.704L20.7254 12.6787L20.7849 17.9276Z" fill="#838C9D"/>
<path d="M25.8791 12.6133L25.2379 14.1418L23.3758 14.1657L23.4181 17.8945L21.4431 17.9198L21.3916 13.3709C21.3943 13.1867 21.4632 13.0106 21.5842 12.8788C21.7052 12.7471 21.8691 12.6696 22.0421 12.6624L25.8791 12.6133Z" fill="#838C9D"/>
<path d="M31.7278 16.2727L31.0921 17.7955L26.2648 17.8573L26.1855 10.8612L31.6658 10.791L31.0301 12.313L28.1778 12.3495L28.1936 13.7503L31.046 13.7138L31.059 14.881L28.2068 14.9176L28.2227 16.3176L31.7278 16.2727Z" fill="#838C9D"/>
<path d="M37.664 17.7112L35.4751 17.7393L34.9138 16.8699L34.3776 17.7533L32.1834 17.7814L33.8021 15.1359L32.124 12.5326L34.3182 12.5045L34.8742 13.374L35.4158 12.4905L37.6044 12.4624L35.991 15.1078L37.664 17.7112Z" fill="#838C9D"/>
<path d="M43.1321 16.1266L42.4911 17.6493L38.7608 17.6972C38.5878 17.6945 38.4221 17.6213 38.2981 17.4926C38.1744 17.3639 38.1015 17.1896 38.0947 17.0055L38.0513 13.1568C38.0536 12.9726 38.1224 12.7965 38.2435 12.6647C38.3646 12.5329 38.5284 12.4554 38.7015 12.4483L43.0899 12.3921L42.4488 13.9206L40.0352 13.9516L40.0603 16.166L43.1321 16.1266Z" fill="#838C9D"/>
<path d="M48.6304 17.5715L46.6553 17.5968L46.6092 13.5151L45.5123 13.5292L45.5586 17.6108L43.5835 17.6361L43.5044 10.6401L45.4792 10.6147L45.499 12.3619L47.9126 12.331C48.0856 12.3337 48.2513 12.407 48.3753 12.5356C48.4993 12.6643 48.5719 12.8385 48.579 13.0226L48.6304 17.5715Z" fill="#838C9D"/>
<path d="M54.3292 17.4982L49.9405 17.5545C49.7674 17.5518 49.6018 17.4785 49.4778 17.3499C49.3538 17.2213 49.2808 17.047 49.274 16.8629L49.2543 15.1149C49.2569 14.9307 49.326 14.7546 49.4468 14.6228C49.5678 14.491 49.7317 14.4136 49.9047 14.4064L52.3183 14.3755L52.3119 13.7948L49.2398 13.8341L49.2227 12.314L53.6111 12.2578C53.7844 12.2606 53.9498 12.3338 54.0738 12.4624C54.1978 12.5911 54.2707 12.7653 54.2778 12.9494L54.3292 17.4982ZM52.3367 16.0092L52.3313 15.5427L51.2347 15.5568L51.24 16.0232L52.3367 16.0092Z" fill="#838C9D"/>
<path d="M60.0276 17.424L58.0525 17.4494L58.0103 13.7206L56.913 13.7346L56.9553 17.4634L54.9807 17.4887L54.9214 12.2398L59.3092 12.1836C59.4825 12.1861 59.6482 12.2592 59.7722 12.3879C59.8962 12.5166 59.9692 12.691 59.9759 12.8752L60.0276 17.424Z" fill="#838C9D"/>
<path d="M65.7464 18.9735C65.7438 19.1577 65.675 19.3338 65.5539 19.4657C65.4332 19.5976 65.2693 19.6753 65.0962 19.6827L61.3666 19.7305L60.6904 18.2188L63.7628 18.1794L63.7536 17.3767L61.3403 17.4077C61.167 17.4052 61.0013 17.3321 60.877 17.2034C60.753 17.0747 60.6801 16.9002 60.6736 16.7161L60.6299 12.8672C60.6325 12.683 60.7013 12.5067 60.8224 12.3749C60.9435 12.243 61.1076 12.1657 61.2807 12.1588L65.6685 12.1025L65.7464 18.9735ZM63.7365 15.8623L63.7114 13.648L62.6141 13.662L62.6392 15.8764L63.7365 15.8623Z" fill="#838C9D"/>
<path d="M71.4103 15.7636L70.7693 17.2864L67.039 17.3342C66.8657 17.3314 66.7001 17.2582 66.5761 17.1295C66.452 17.001 66.3791 16.8267 66.3723 16.6426L66.3286 12.7939C66.3316 12.6097 66.4004 12.4336 66.5214 12.3018C66.6425 12.1701 66.8064 12.0926 66.9794 12.0854L70.7099 12.0376C70.883 12.0406 71.0483 12.1139 71.172 12.2425C71.296 12.3711 71.3687 12.5452 71.3758 12.7292L71.397 14.5964C71.3941 14.7805 71.325 14.9565 71.2042 15.0883C71.0834 15.2202 70.9199 15.2979 70.7468 15.3056L68.3332 15.3366L68.3386 15.803L71.4103 15.7636ZM69.4166 14.1553L69.4101 13.5746L68.3135 13.5886L68.3203 14.1693L69.4166 14.1553Z" fill="#838C9D"/>
<path d="M29.1199 22.3318C29.1256 22.5318 29.0949 22.731 29.0296 22.9186C28.9702 23.084 28.8752 23.2323 28.7521 23.3515C28.621 23.4747 28.467 23.5671 28.3002 23.6228C28.095 23.69 27.8813 23.7234 27.6666 23.722L27.3586 23.7259L27.3728 24.9788C27.3731 24.9988 27.3667 25.0183 27.3548 25.0337C27.3385 25.0529 27.3174 25.0669 27.294 25.0739C27.2569 25.0864 27.2187 25.0951 27.1801 25.0997C27.0593 25.1133 26.9375 25.1149 26.8164 25.1043C26.7772 25.1008 26.7384 25.0932 26.7006 25.0815C26.6773 25.0754 26.6564 25.0619 26.6403 25.0429C26.6289 25.0274 26.6226 25.0082 26.6226 24.9884L26.5826 21.457C26.5793 21.4183 26.5837 21.3792 26.5953 21.3422C26.6069 21.3052 26.6255 21.2712 26.65 21.2423C26.6745 21.2178 26.7033 21.1986 26.7347 21.186C26.7661 21.1734 26.7996 21.1674 26.8332 21.1686L27.703 21.1575C27.7905 21.1564 27.8737 21.1588 27.9527 21.1649C28.0481 21.1734 28.1431 21.1874 28.2371 21.2068C28.3542 21.2311 28.4676 21.2731 28.5736 21.3314C28.6838 21.3897 28.7828 21.4692 28.8658 21.5658C28.948 21.6632 29.0113 21.7769 29.0521 21.9003C29.0972 22.0391 29.1201 22.185 29.1199 22.3318ZM28.3362 22.3995C28.3391 22.2819 28.3142 22.1654 28.2639 22.0606C28.2246 21.9805 28.1657 21.9131 28.0934 21.8657C28.0289 21.8249 27.9572 21.7985 27.8828 21.7879C27.8076 21.7776 27.7318 21.7731 27.656 21.7742L27.3366 21.7782L27.3517 23.1101L27.6882 23.1058C27.7907 23.1076 27.8926 23.0888 27.9885 23.0504C28.064 23.0187 28.1313 22.9684 28.1851 22.9037C28.2372 22.8385 28.2761 22.7627 28.2995 22.6808C28.3258 22.5897 28.3382 22.4948 28.3362 22.3995Z" fill="#838C9D"/>
<path d="M32.076 23.5441C32.0807 23.7578 32.0545 23.9711 31.9978 24.1762C31.9473 24.3585 31.8607 24.5273 31.7438 24.671C31.6251 24.8133 31.4769 24.9242 31.3109 24.9952C31.1161 25.0764 30.9085 25.1172 30.6991 25.1153C30.4983 25.1223 30.2979 25.091 30.1074 25.0227C29.9482 24.9642 29.8044 24.8662 29.6878 24.7368C29.5721 24.6034 29.4863 24.4437 29.4372 24.2698C29.379 24.0635 29.3496 23.8492 29.3501 23.6338C29.3454 23.4194 29.3724 23.2056 29.43 23C29.4809 22.8176 29.568 22.6489 29.6854 22.5052C29.8041 22.364 29.9515 22.2537 30.1168 22.1826C30.3111 22.1013 30.5184 22.0605 30.7272 22.0625C30.9289 22.0554 31.1299 22.0862 31.3216 22.1535C31.4804 22.2109 31.6239 22.3085 31.7397 22.4378C31.8548 22.5717 31.9399 22.7314 31.9889 22.905C32.0474 23.1123 32.0769 23.3276 32.076 23.5441ZM31.3378 23.5839C31.3372 23.4603 31.3257 23.337 31.3036 23.2156C31.2856 23.1126 31.2501 23.0138 31.199 22.9242C31.1521 22.8434 31.0859 22.7773 31.0074 22.7324C30.9147 22.6838 30.8116 22.6612 30.7086 22.6665C30.612 22.6654 30.5167 22.688 30.4295 22.7322C30.3507 22.7745 30.2834 22.8381 30.235 22.9168C30.1815 23.0054 30.1434 23.1035 30.1228 23.2065C30.0971 23.3327 30.0855 23.4617 30.0885 23.5908C30.0891 23.7145 30.1009 23.8378 30.1239 23.959C30.1428 24.0618 30.1783 24.1604 30.2288 24.2505C30.2748 24.3315 30.3413 24.3974 30.4204 24.4407C30.5131 24.488 30.6153 24.5101 30.7177 24.5052C30.8152 24.5064 30.9117 24.4839 30.9994 24.4394C31.0783 24.3974 31.1456 24.3343 31.1943 24.2563C31.2481 24.1685 31.2856 24.0708 31.305 23.9682C31.3298 23.8418 31.3408 23.7129 31.3378 23.5839Z" fill="#838C9D"/>
<path d="M36.4336 22.156C36.4333 22.1836 36.4306 22.211 36.4259 22.2381C36.4203 22.2705 36.4106 22.3172 36.3961 22.378L35.745 24.8351C35.7376 24.8651 35.7255 24.8936 35.7087 24.919C35.6907 24.9427 35.6667 24.9604 35.6396 24.9699C35.5962 24.9849 35.5513 24.9937 35.5058 24.9959C35.4477 25.0007 35.3724 25.0036 35.279 25.0048C35.186 25.0061 35.1099 25.0045 35.0508 25.0002C35.0039 24.9981 34.9572 24.9901 34.9123 24.9762C34.8837 24.9679 34.8583 24.9508 34.8388 24.927C34.8223 24.9033 34.8102 24.8761 34.8037 24.8471L34.3575 23.2083L34.3513 23.181L34.346 23.2084L33.971 24.8578C33.9657 24.8877 33.9547 24.9161 33.9391 24.9416C33.9208 24.9663 33.8954 24.9841 33.867 24.9926C33.8216 25.0074 33.7749 25.0161 33.7274 25.0187C33.6686 25.0235 33.5927 25.0265 33.4994 25.0277C33.4043 25.0289 33.3276 25.0273 33.2697 25.023C33.2233 25.0209 33.1773 25.0128 33.1324 24.999C33.104 24.9907 33.0786 24.9736 33.0592 24.9499C33.0426 24.926 33.0305 24.8988 33.024 24.8699L32.3233 22.4302C32.3089 22.3852 32.2973 22.3393 32.2888 22.2926C32.2843 22.2651 32.2817 22.2372 32.2808 22.2093C32.2802 22.1902 32.2855 22.1715 32.2959 22.156C32.3106 22.1376 32.3304 22.1246 32.3526 22.1188C32.3886 22.1077 32.4258 22.1006 32.4636 22.0977C32.5099 22.0931 32.5684 22.0903 32.639 22.0894C32.7149 22.0884 32.7769 22.0896 32.8244 22.093C32.8622 22.0947 32.8994 22.1014 32.9357 22.1129C32.9582 22.1194 32.978 22.1336 32.9918 22.1532C33.0034 22.1722 33.0116 22.1931 33.0169 22.215L33.544 24.1957L33.5502 24.2321L33.5555 24.1956L34.0064 22.2023C34.0111 22.1798 34.0203 22.1585 34.033 22.1398C34.0472 22.1207 34.0663 22.1063 34.0879 22.0981C34.1216 22.0857 34.1564 22.0781 34.1918 22.0755C34.2364 22.0709 34.294 22.0682 34.3643 22.0673C34.4216 22.0659 34.4786 22.0677 34.5355 22.0727C34.571 22.0755 34.6058 22.0821 34.6398 22.0925C34.661 22.0983 34.6802 22.1107 34.6944 22.1283C34.7056 22.1442 34.7139 22.1621 34.7195 22.1811L35.2498 24.1769L35.2587 24.2102L35.264 24.1737L35.7264 22.1803C35.7291 22.1579 35.7367 22.1366 35.7485 22.1178C35.7627 22.0981 35.7825 22.0835 35.8049 22.0761C35.8401 22.0638 35.8764 22.0562 35.9133 22.0535C35.9588 22.0488 36.0166 22.0461 36.0869 22.0452C36.1575 22.0443 36.2151 22.0456 36.2597 22.049C36.2954 22.0509 36.3311 22.0571 36.3654 22.0674C36.3863 22.0728 36.4052 22.0853 36.4188 22.1031C36.4286 22.1188 36.4336 22.1372 36.4336 22.156Z" fill="#838C9D"/>
<path d="M39.1356 23.4022C39.1421 23.4762 39.122 23.5502 39.0795 23.6092C39.0591 23.6321 39.034 23.6502 39.0062 23.662C38.9788 23.6739 38.949 23.6793 38.9191 23.678L37.3704 23.6978C37.3704 23.8039 37.3846 23.9094 37.4123 24.0113C37.4365 24.0998 37.4794 24.1814 37.5378 24.2494C37.5981 24.3168 37.6731 24.3674 37.7563 24.3968C37.8591 24.4322 37.9669 24.4483 38.0749 24.4443C38.1857 24.4442 38.2964 24.4331 38.4053 24.4112C38.4886 24.394 38.5707 24.3716 38.6513 24.3443C38.7204 24.3202 38.7777 24.2982 38.8232 24.2784C38.858 24.2613 38.8955 24.2511 38.9339 24.2482C38.9489 24.2474 38.9637 24.2509 38.977 24.2582C38.99 24.2672 39 24.2803 39.0059 24.2958C39.0151 24.3204 39.0207 24.3465 39.0225 24.373C39.0257 24.4063 39.0275 24.4482 39.0281 24.4988C39.0287 24.5433 39.0281 24.5812 39.0266 24.6126C39.0254 24.6396 39.0231 24.6664 39.0189 24.6931C39.0163 24.7126 39.0107 24.7317 39.0024 24.7495C38.9944 24.7655 38.9847 24.7805 38.9732 24.7938C38.9428 24.8193 38.9088 24.8392 38.8725 24.8528C38.804 24.8826 38.7337 24.9074 38.6622 24.9268C38.5657 24.9536 38.4679 24.9751 38.369 24.9912C38.2521 25.0104 38.134 25.0205 38.0159 25.0215C37.8142 25.028 37.6131 24.9999 37.42 24.9381C37.2585 24.8857 37.1111 24.7929 36.9904 24.6675C36.8702 24.5371 36.7807 24.3781 36.7299 24.2036C36.6679 23.9897 36.6369 23.7671 36.6384 23.5433C36.6328 23.3228 36.6603 23.1028 36.7193 22.8914C36.7698 22.7097 36.8551 22.5412 36.9703 22.3966C37.0813 22.2605 37.2201 22.1533 37.3763 22.0834C37.5482 22.008 37.7324 21.9695 37.9184 21.9703C38.1048 21.9629 38.2908 21.9945 38.4656 22.0634C38.6091 22.122 38.7375 22.2154 38.8409 22.3362C38.9413 22.457 39.0157 22.5994 39.0597 22.7537C39.1084 22.9245 39.1335 23.1021 39.1341 23.2807L39.1356 23.4022ZM38.4372 23.1927C38.4502 23.0144 38.4053 22.8367 38.3106 22.6891C38.2618 22.6269 38.1998 22.5781 38.1299 22.5471C38.0596 22.516 37.9834 22.5035 37.9078 22.5107C37.8254 22.5096 37.7439 22.5294 37.6701 22.5684C37.6048 22.6041 37.5479 22.6552 37.5036 22.7177C37.4578 22.7838 37.4238 22.8583 37.4032 22.9374C37.3801 23.025 37.3672 23.1154 37.3651 23.2064L38.4372 23.1927Z" fill="#838C9D"/>
<path d="M41.2731 22.3523C41.274 22.4252 41.2728 22.4849 41.2696 22.5314C41.2675 22.5684 41.2622 22.6051 41.2536 22.6409C41.2492 22.662 41.2388 22.6811 41.2241 22.6959C41.2108 22.7066 41.1943 22.7121 41.1774 22.7116C41.1597 22.7114 41.1423 22.7081 41.1258 22.7017C41.1069 22.6949 41.0853 22.6876 41.0614 22.6798C41.0375 22.672 41.0115 22.6647 40.9828 22.658C40.9518 22.6511 40.9202 22.6479 40.8886 22.6486C40.8473 22.6494 40.8069 22.6587 40.7691 22.6759C40.7245 22.6968 40.6828 22.7244 40.6459 22.7579C40.5969 22.802 40.5526 22.8514 40.5134 22.9053C40.4602 22.9776 40.4112 23.0533 40.3663 23.1317L40.3855 24.8185C40.3858 24.8378 40.3799 24.8567 40.3687 24.8718C40.353 24.8902 40.3329 24.9036 40.3108 24.9105C40.2751 24.9229 40.2384 24.931 40.2012 24.9347C40.0855 24.9463 39.9692 24.9478 39.8531 24.9391C39.8159 24.9364 39.779 24.9292 39.743 24.9178C39.7205 24.9115 39.7002 24.8986 39.6842 24.8806C39.6727 24.8657 39.6662 24.847 39.6665 24.8277L39.6358 22.1215C39.6352 22.1027 39.6399 22.0842 39.6494 22.0683C39.6624 22.0502 39.6801 22.0368 39.7005 22.0297C39.7312 22.0177 39.7631 22.0096 39.7955 22.0057C39.8443 21.9995 39.8933 21.9964 39.9426 21.9963C39.9928 21.9951 40.0433 21.997 40.0938 22.0019C40.1254 22.0045 40.1567 22.0117 40.1865 22.0235C40.2054 22.0308 40.2219 22.0438 40.234 22.0608C40.2441 22.0764 40.2491 22.0949 40.2491 22.1137L40.2526 22.4505C40.3084 22.3615 40.3704 22.277 40.4381 22.1978C40.4883 22.1389 40.5441 22.0859 40.6046 22.0394C40.6527 22.0027 40.7065 21.9748 40.7635 21.957C40.8154 21.9413 40.8689 21.933 40.9229 21.9322C40.9477 21.9319 40.9743 21.933 41.0029 21.9358C41.0325 21.9386 41.062 21.9433 41.0912 21.9498C41.1184 21.9555 41.1452 21.9633 41.1715 21.9731C41.1895 21.9792 41.2067 21.9887 41.2217 22.0012C41.2315 22.0103 41.2394 22.0216 41.2448 22.0343C41.251 22.0504 41.2554 22.0672 41.2583 22.0842C41.2636 22.1158 41.2669 22.1477 41.2681 22.1797C41.2707 22.222 41.2722 22.2796 41.2731 22.3523Z" fill="#838C9D"/>
<path d="M43.9358 23.3407C43.9423 23.4148 43.9222 23.4887 43.8797 23.5476C43.859 23.5706 43.8342 23.5886 43.8065 23.6005C43.7787 23.6124 43.7492 23.6178 43.7194 23.6165L42.1706 23.6363C42.1706 23.7424 42.1848 23.8479 42.2126 23.9498C42.2368 24.0383 42.2796 24.1198 42.3381 24.1879C42.3983 24.2553 42.4733 24.3059 42.5566 24.3352C42.6593 24.3707 42.7671 24.3868 42.8752 24.3828C42.9859 24.3826 43.0966 24.3716 43.2056 24.3497C43.2888 24.3325 43.3709 24.3101 43.4515 24.2828C43.5206 24.2587 43.5779 24.2367 43.6234 24.2169C43.6582 24.1998 43.696 24.1896 43.7344 24.1866C43.7492 24.1859 43.7639 24.1893 43.7772 24.1967C43.7902 24.2057 43.8003 24.2188 43.8062 24.2343C43.8153 24.2589 43.8209 24.285 43.8227 24.3114C43.826 24.3448 43.8277 24.3867 43.8283 24.4372C43.8289 24.4818 43.8283 24.5197 43.8268 24.5511C43.8257 24.578 43.823 24.6049 43.8192 24.6316C43.8165 24.6512 43.8109 24.6702 43.8026 24.6879C43.7947 24.704 43.7849 24.7189 43.7734 24.7323C43.743 24.7577 43.709 24.7777 43.6727 24.7912C43.6042 24.8211 43.5339 24.8458 43.4625 24.8653C43.3659 24.8921 43.2679 24.9136 43.1693 24.9297C43.0523 24.9489 42.9342 24.959 42.8161 24.96C42.6144 24.9665 42.4133 24.9383 42.2202 24.8766C42.059 24.8241 41.9117 24.7313 41.7909 24.606C41.6704 24.4756 41.5813 24.3166 41.5302 24.142C41.4682 23.9282 41.4372 23.7055 41.4386 23.4817C41.4333 23.2613 41.4605 23.0413 41.5195 22.8298C41.57 22.6482 41.6557 22.4797 41.7708 22.3351C41.8816 22.199 42.0203 22.0918 42.1765 22.0219C42.3484 21.9465 42.5326 21.908 42.7187 21.9088C42.905 21.9013 43.091 21.933 43.2658 22.0019C43.4093 22.0605 43.5378 22.1539 43.6411 22.2747C43.7415 22.3955 43.8162 22.5379 43.8599 22.6921C43.9086 22.863 43.9337 23.0406 43.9343 23.2191L43.9358 23.3407ZM43.2375 23.1312C43.2502 22.9528 43.2056 22.7752 43.1105 22.6276C43.0621 22.5654 43.0001 22.5166 42.9298 22.4856C42.8595 22.4545 42.7833 22.442 42.7077 22.4492C42.6254 22.4481 42.5439 22.4679 42.4703 22.5069C42.4048 22.5426 42.3478 22.5936 42.3035 22.6562C42.2577 22.7223 42.2238 22.7967 42.2034 22.8759C42.1801 22.9635 42.1671 23.0539 42.165 23.1449L43.2375 23.1312Z" fill="#838C9D"/>
<path d="M46.8789 24.7353C46.8798 24.7551 46.8751 24.7747 46.8653 24.7917C46.8532 24.8092 46.8364 24.8226 46.8172 24.8302C46.7877 24.8423 46.7564 24.8499 46.7248 24.8526C46.6858 24.8571 46.638 24.8597 46.581 24.8605C46.5202 24.8613 46.4706 24.8599 46.4325 24.8564C46.4009 24.8542 46.3696 24.8475 46.3398 24.8363C46.3194 24.8293 46.3017 24.8164 46.2878 24.7991C46.2769 24.7828 46.2712 24.7631 46.2715 24.7431L46.2683 24.4427C46.1511 24.5835 46.0132 24.7031 45.8599 24.797C45.7108 24.8799 45.5455 24.9247 45.3771 24.9276C45.2088 24.9306 45.042 24.8916 44.8902 24.814C44.7574 24.7376 44.6434 24.6282 44.5586 24.4951C44.4689 24.3513 44.4045 24.1912 44.3694 24.0227C44.3286 23.8353 44.3071 23.6438 44.3059 23.4515C44.3009 23.2327 44.3227 23.0141 44.3711 22.8013C44.411 22.6244 44.481 22.4568 44.5781 22.3071C44.667 22.1731 44.7851 22.0643 44.9224 21.9902C45.0712 21.9129 45.2348 21.8735 45.4005 21.8748C45.5348 21.8711 45.668 21.9011 45.7894 21.9624C45.9178 22.0315 46.0353 22.1217 46.1375 22.2295L46.121 20.7641C46.1207 20.7446 46.126 20.7254 46.136 20.7093C46.1505 20.6897 46.1703 20.6751 46.1927 20.6675C46.2281 20.6541 46.2648 20.6449 46.3023 20.6404C46.4177 20.6267 46.5343 20.6253 46.6501 20.6359C46.687 20.6394 46.7236 20.6476 46.7588 20.6603C46.7812 20.6679 46.801 20.6818 46.8163 20.7005C46.8278 20.716 46.834 20.7352 46.834 20.7549L46.8789 24.7353ZM46.1455 22.9363C46.0592 22.8187 45.9588 22.7139 45.8466 22.6245C45.7613 22.5563 45.6574 22.5193 45.5505 22.5191C45.4648 22.5179 45.381 22.5449 45.3104 22.5966C45.2422 22.6485 45.187 22.7174 45.1501 22.7973C45.1084 22.8854 45.0789 22.9793 45.0618 23.0761C45.0429 23.1796 45.034 23.2849 45.0355 23.3904C45.0364 23.5012 45.0464 23.6117 45.0647 23.7208C45.0807 23.82 45.1102 23.9162 45.1521 24.0064C45.1888 24.0855 45.2428 24.1541 45.3098 24.206C45.3825 24.258 45.4687 24.2835 45.5561 24.2787C45.6048 24.2782 45.6535 24.2699 45.6999 24.2541C45.7504 24.2362 45.7982 24.2106 45.8416 24.178C45.8954 24.1379 45.945 24.092 45.9898 24.041C46.0406 23.9848 46.0959 23.9158 46.1558 23.8341L46.1455 22.9363Z" fill="#838C9D"/>
<path d="M51.3146 23.2892C51.3196 23.5081 51.2972 23.7268 51.2479 23.9394C51.2074 24.1163 51.1369 24.2838 51.0394 24.4336C50.9517 24.5668 50.8351 24.6755 50.6993 24.7505C50.5561 24.8272 50.3975 24.8666 50.2372 24.8657C50.1568 24.8672 50.0762 24.8596 49.9974 24.843C49.923 24.8268 49.8512 24.7996 49.7839 24.7623C49.7125 24.7222 49.6448 24.6742 49.5825 24.6192C49.5099 24.5548 49.442 24.4847 49.3791 24.4094L49.3823 24.7037C49.3832 24.7237 49.3779 24.7435 49.3676 24.76C49.354 24.7777 49.3366 24.791 49.3165 24.7986C49.2858 24.8107 49.2539 24.8183 49.2211 24.8211C49.1812 24.8256 49.1328 24.8282 49.0758 24.829C49.0168 24.8297 48.9681 24.8284 48.9288 24.8248C48.8966 24.8228 48.865 24.816 48.8346 24.8048C48.8145 24.798 48.7971 24.785 48.7841 24.7675C48.7741 24.7509 48.7687 24.7314 48.7693 24.7115L48.7242 20.7222C48.7236 20.7024 48.7295 20.6832 48.7407 20.6673C48.7558 20.6479 48.7758 20.6335 48.7986 20.6256C48.834 20.6121 48.8709 20.603 48.9081 20.5984C49.0236 20.5847 49.1402 20.5833 49.256 20.5939C49.2935 20.5976 49.3307 20.6057 49.3664 20.6183C49.3891 20.6256 49.4095 20.6396 49.4252 20.6586C49.4367 20.6741 49.4429 20.6932 49.4429 20.7129L49.46 22.2083C49.519 22.1432 49.5831 22.0835 49.6516 22.0299C49.7122 21.9829 49.7765 21.9419 49.8441 21.9076C49.9076 21.8757 49.9744 21.8519 50.0432 21.8368C50.1143 21.8214 50.187 21.8134 50.2596 21.8128C50.4264 21.8051 50.5921 21.8443 50.74 21.9265C50.8708 22.0034 50.9821 22.1129 51.0645 22.2454C51.1528 22.3898 51.216 22.5498 51.2511 22.7179C51.2919 22.9053 51.3134 23.0969 51.3146 23.2892ZM50.5708 23.3534C50.5699 23.2416 50.5605 23.1301 50.5428 23.02C50.528 22.921 50.4985 22.8251 50.4557 22.7358C50.4182 22.658 50.3641 22.5906 50.298 22.5392C50.2265 22.4883 50.1418 22.4633 50.0559 22.4679C50.0086 22.4685 49.9617 22.4762 49.9165 22.4909C49.8663 22.5081 49.819 22.5333 49.7762 22.5655C49.7228 22.6054 49.6732 22.6508 49.628 22.7009C49.5701 22.7653 49.5164 22.834 49.4677 22.9063L49.4777 23.8043C49.5619 23.9214 49.6605 24.0258 49.7709 24.1145C49.8545 24.1819 49.9566 24.2184 50.0615 24.2185C50.1462 24.2203 50.2289 24.1926 50.2974 24.1397C50.3632 24.0861 50.4173 24.0182 50.4563 23.9404C50.5 23.8536 50.5301 23.76 50.5457 23.6631C50.5634 23.561 50.572 23.4573 50.5708 23.3534Z" fill="#838C9D"/>
<path d="M58.4343 23.5131C58.4376 23.6418 58.4207 23.7702 58.3844 23.893C58.3519 24.0018 58.3026 24.104 58.2382 24.1953C58.1751 24.2836 58.0989 24.3604 58.0126 24.4228C57.9223 24.4881 57.8246 24.5413 57.7221 24.5812C57.612 24.6242 57.498 24.6557 57.3822 24.6751C57.2488 24.697 57.1138 24.7084 56.9789 24.7091L55.998 24.7217C55.9401 24.7243 55.8834 24.7039 55.8388 24.6646C55.8152 24.6396 55.7972 24.6096 55.7857 24.5764C55.7742 24.5433 55.7697 24.5079 55.7724 24.4727L55.7337 21.0505C55.7302 21.0153 55.734 20.9798 55.7446 20.9464C55.7553 20.913 55.7727 20.8825 55.7957 20.8569C55.8394 20.8165 55.8955 20.7947 55.9534 20.7958L56.8803 20.7839C57.0734 20.7778 57.2665 20.7956 57.4558 20.8372C57.5981 20.8689 57.7333 20.9295 57.8541 21.0157C57.9607 21.094 58.0469 21.2 58.1042 21.3235C58.1656 21.4615 58.1966 21.6126 58.1948 21.7653C58.1966 21.8561 58.186 21.9466 58.1638 22.0342C58.1429 22.116 58.1101 22.1937 58.0664 22.2646C58.023 22.3345 57.9692 22.3967 57.9075 22.4487C57.8417 22.5036 57.7688 22.5475 57.6908 22.5789C57.7921 22.5966 57.8901 22.6312 57.9814 22.6814C58.0693 22.7301 58.1485 22.7954 58.2146 22.8741C58.2828 22.9561 58.3366 23.0505 58.3732 23.1527C58.4139 23.2679 58.4346 23.39 58.4343 23.5131ZM57.446 21.8721C57.4463 21.7996 57.4339 21.7278 57.4094 21.6602C57.3873 21.6 57.3515 21.5467 57.3049 21.5052C57.2538 21.4616 57.1947 21.4298 57.1312 21.4119C57.0403 21.388 56.9464 21.378 56.8528 21.3821L56.4734 21.3869L56.4849 22.4063L56.9042 22.4009C56.9925 22.4032 57.0802 22.3882 57.1634 22.3566C57.2237 22.3313 57.2783 22.2923 57.3232 22.2423C57.3654 22.1941 57.3976 22.1368 57.4168 22.0742C57.4372 22.0091 57.4472 21.9407 57.446 21.8721ZM57.656 23.5504C57.6565 23.4667 57.6409 23.3839 57.6105 23.3067C57.5824 23.2369 57.5384 23.1755 57.4829 23.1278C57.42 23.0762 57.3477 23.0389 57.2706 23.0182C57.1614 22.9904 57.0489 22.9785 56.9364 22.9831L56.4917 22.9888L56.5041 24.1052L57.0462 24.0983C57.1351 24.0993 57.224 24.0864 57.3096 24.06C57.3769 24.038 57.4395 24.0022 57.4939 23.9545C57.5458 23.908 57.5872 23.8493 57.6143 23.7831C57.6441 23.7097 57.6583 23.6303 57.656 23.5504Z" fill="#838C9D"/>
<path d="M61.264 23.1185C61.2705 23.1926 61.2504 23.2665 61.2079 23.3255C61.1872 23.3485 61.1621 23.3665 61.1346 23.3783C61.1069 23.3902 61.0771 23.3956 61.0472 23.3943L59.4985 23.4142C59.4988 23.5202 59.513 23.6257 59.5407 23.7276C59.5647 23.8162 59.6075 23.8977 59.6659 23.9657C59.7265 24.0331 59.8015 24.0837 59.8845 24.1131C59.9872 24.1485 60.0953 24.1646 60.2031 24.1606C60.3141 24.1605 60.4248 24.1494 60.5338 24.1275C60.6167 24.1103 60.6988 24.088 60.7797 24.0606C60.8488 24.0365 60.9061 24.0145 60.9513 23.9947C60.9864 23.9777 61.0239 23.9674 61.0623 23.9645C61.0774 23.9637 61.0921 23.9672 61.1051 23.9745C61.1184 23.9835 61.1284 23.9967 61.1341 24.0121C61.1435 24.0367 61.1491 24.0628 61.1509 24.0893C61.1541 24.1226 61.1559 24.1645 61.1565 24.2151C61.1571 24.2596 61.1565 24.2976 61.155 24.3289C61.1538 24.3559 61.1512 24.3827 61.1473 24.4094C61.1444 24.429 61.1391 24.448 61.1308 24.4658C61.1228 24.4819 61.1128 24.4968 61.1013 24.5102C61.0712 24.5356 61.0372 24.5555 61.0009 24.5691C60.9324 24.5989 60.8621 24.6237 60.7904 24.6431C60.6938 24.6699 60.5961 24.6914 60.4974 24.7075C60.3805 24.7267 60.2624 24.7368 60.144 24.7378C59.9426 24.7443 59.7415 24.7162 59.5484 24.6544C59.3869 24.602 59.2396 24.5092 59.1188 24.3838C58.9986 24.2534 58.9092 24.0944 58.8584 23.9199C58.7964 23.7061 58.7654 23.4834 58.7668 23.2596C58.7612 23.0391 58.7887 22.8191 58.8477 22.6077C58.8982 22.426 58.9836 22.2575 59.0987 22.1129C59.2097 21.9768 59.3485 21.8697 59.5044 21.7997C59.6766 21.7243 59.8608 21.6859 60.0466 21.6866C60.2332 21.6792 60.4189 21.7108 60.594 21.7797C60.7375 21.8383 60.8659 21.9317 60.9693 22.0526C61.0697 22.1733 61.1441 22.3157 61.1881 22.47C61.2368 22.6409 61.2619 22.8184 61.2625 22.997L61.264 23.1185ZM60.5654 22.909C60.5783 22.7307 60.5335 22.553 60.4384 22.4054C60.39 22.3432 60.328 22.2945 60.258 22.2634C60.1877 22.2323 60.1115 22.2198 60.0359 22.227C59.9535 22.226 59.872 22.2457 59.7982 22.2847C59.733 22.3204 59.676 22.3715 59.6317 22.434C59.5859 22.5001 59.552 22.5746 59.5316 22.6537C59.5083 22.7413 59.4953 22.8317 59.4932 22.9227L60.5654 22.909Z" fill="#838C9D"/>
<path d="M63.2565 24.2585C63.2592 24.3271 63.2545 24.3959 63.2432 24.4635C63.2379 24.5001 63.224 24.5347 63.2031 24.5641C63.1815 24.5868 63.1561 24.6047 63.1281 24.6167C63.0903 24.6338 63.0513 24.6475 63.0114 24.6576C62.9636 24.6699 62.9152 24.6792 62.8665 24.6853C62.8139 24.6921 62.7611 24.6958 62.7082 24.6964C62.5824 24.7008 62.4569 24.6829 62.3368 24.6436C62.2369 24.6101 62.1472 24.5501 62.0751 24.4695C62.0022 24.3837 61.9493 24.281 61.9207 24.1695C61.8844 24.0294 61.8664 23.8846 61.8673 23.7393L61.8516 22.3528L61.5463 22.3568C61.5103 22.3572 61.4825 22.3338 61.4627 22.2865C61.4388 22.21 61.4285 22.1294 61.4317 22.0487C61.4306 21.9991 61.4323 21.9494 61.437 21.9C61.4397 21.8672 61.4465 21.835 61.4574 21.8042C61.4642 21.7841 61.4766 21.7666 61.4926 21.7536C61.5073 21.7432 61.5244 21.7377 61.5422 21.7378L61.8445 21.734L61.8377 21.1303C61.8371 21.1108 61.8425 21.0916 61.8528 21.0754C61.8673 21.0558 61.887 21.0413 61.9095 21.0337C61.9452 21.0203 61.9824 21.0116 62.0202 21.0081C62.0669 21.0024 62.1244 20.9992 62.1927 20.9983C62.2632 20.9974 62.3217 20.9992 62.3683 21.0036C62.4058 21.0061 62.4428 21.0138 62.4785 21.0265C62.5006 21.034 62.5207 21.0479 62.5361 21.0667C62.5473 21.0822 62.5535 21.1014 62.5538 21.1211L62.5606 21.7248L63.1139 21.7177C63.1313 21.7171 63.149 21.7221 63.1638 21.7322C63.1801 21.7448 63.1927 21.762 63.2001 21.7819C63.2116 21.8124 63.2193 21.8444 63.2226 21.8771C63.2282 21.9264 63.2311 21.976 63.2314 22.0257C63.2365 22.1062 63.2276 22.187 63.2054 22.2642C63.1871 22.312 63.1597 22.3361 63.1237 22.3365L62.5674 22.3437L62.5818 23.6149C62.5762 23.73 62.6001 23.8447 62.6512 23.9463C62.6778 23.9848 62.7138 24.015 62.7552 24.034C62.7965 24.0529 62.8417 24.0598 62.8863 24.0541C62.9208 24.054 62.9551 24.05 62.989 24.0421C63.0165 24.0355 63.0433 24.0271 63.0699 24.0168C63.0935 24.0074 63.1133 23.9991 63.1296 23.9918C63.1434 23.9851 63.1582 23.9813 63.1736 23.9806C63.1854 23.9806 63.1966 23.9841 63.2066 23.9908C63.2193 24.0013 63.2279 24.0162 63.2311 24.033C63.2385 24.0613 63.2441 24.0901 63.248 24.1192C63.2536 24.1654 63.2565 24.2119 63.2565 24.2585Z" fill="#838C9D"/>
<path d="M65.1912 20.7625C65.1921 20.8096 65.1906 20.8568 65.1871 20.9037C65.185 20.9317 65.1797 20.9593 65.1708 20.9858C65.1658 21.0013 65.1573 21.015 65.1454 21.0256C65.1363 21.0327 65.1254 21.0366 65.1141 21.0366C65.0991 21.0364 65.084 21.033 65.0698 21.0266C65.0536 21.0197 65.0335 21.0123 65.0096 21.0046C64.9819 20.9958 64.9538 20.9886 64.9255 20.9829C64.8877 20.9758 64.8493 20.9727 64.8112 20.9738C64.7657 20.9732 64.7205 20.9825 64.6786 21.0012C64.6414 21.0193 64.6098 21.0481 64.5871 21.0843C64.5602 21.1288 64.5425 21.1786 64.5345 21.2307C64.5227 21.3034 64.518 21.3771 64.5197 21.4509L64.5227 21.6996L64.9875 21.6937C65.0043 21.6934 65.0208 21.6984 65.0347 21.7082C65.051 21.7208 65.0636 21.738 65.071 21.7578C65.0825 21.7884 65.0899 21.8204 65.0935 21.8531C65.0991 21.9024 65.102 21.952 65.1023 22.0017C65.1073 22.0822 65.0985 22.163 65.0763 22.2402C65.058 22.288 65.0306 22.3121 64.9946 22.3126L64.5295 22.3185L64.5543 24.509C64.5549 24.5282 64.549 24.5471 64.5378 24.5623C64.5227 24.5804 64.5032 24.5938 64.4814 24.6009C64.4453 24.6136 64.4081 24.6217 64.3703 24.6251C64.3228 24.6308 64.2649 24.634 64.1964 24.6349C64.1279 24.6358 64.0703 24.634 64.0237 24.6296C63.9859 24.6269 63.9487 24.6197 63.9124 24.6082C63.8902 24.6022 63.8701 24.5892 63.8548 24.571C63.8442 24.5558 63.8382 24.5372 63.8385 24.5182L63.8137 22.3277L63.4942 22.3318C63.4582 22.3323 63.4308 22.3088 63.4122 22.2615C63.3894 22.1847 63.3794 22.1042 63.3823 22.0237C63.3815 21.9741 63.3832 21.9244 63.3879 21.875C63.3906 21.8423 63.3968 21.8102 63.4068 21.7792C63.4128 21.7591 63.4246 21.7414 63.4405 21.7287C63.4553 21.7182 63.4724 21.7127 63.4901 21.7129L63.8069 21.7088L63.8043 21.4813C63.8002 21.3183 63.8155 21.1555 63.8501 20.9967C63.8772 20.8696 63.931 20.7507 64.0074 20.6488C64.0813 20.5544 64.1766 20.4817 64.2844 20.4373C64.4123 20.3865 64.5478 20.3611 64.6842 20.3625C64.7551 20.3612 64.826 20.367 64.8956 20.3795C64.9491 20.3883 65.0016 20.4018 65.053 20.4199C65.0808 20.4289 65.1071 20.4429 65.1304 20.4614C65.1457 20.4774 65.1573 20.4971 65.164 20.5187C65.1741 20.55 65.1806 20.5825 65.1835 20.6155C65.188 20.6549 65.1903 20.7039 65.1912 20.7625Z" fill="#838C9D"/>
<path d="M67.8947 24.4752C67.8953 24.4879 67.8932 24.5006 67.8885 24.5123C67.8835 24.524 67.8761 24.5342 67.867 24.5423C67.8404 24.562 67.8097 24.5744 67.7775 24.5783C67.7176 24.5874 67.657 24.5917 67.5965 24.5913C67.5342 24.5936 67.4716 24.5908 67.4096 24.5831C67.3795 24.5803 67.3505 24.5686 67.3263 24.5492C67.318 24.5407 67.3115 24.5303 67.3071 24.5188C67.303 24.5074 67.3009 24.4951 67.3015 24.4828L67.2991 24.2674C67.199 24.3854 67.0786 24.4818 66.9442 24.5511C66.8051 24.6209 66.6531 24.6571 66.4989 24.6569C66.3732 24.6599 66.2474 24.6426 66.1263 24.6056C66.0182 24.5728 65.9178 24.5173 65.8304 24.4425C65.7466 24.369 65.6796 24.2759 65.635 24.1704C65.5857 24.0501 65.5608 23.9201 65.562 23.789C65.5573 23.6464 65.5857 23.5048 65.6444 23.3767C65.7038 23.2568 65.7923 23.1561 65.9007 23.0852C66.0324 23.0007 66.1771 22.9418 66.328 22.9114C66.5243 22.87 66.7237 22.8492 66.9236 22.8491L67.1716 22.8459L67.1698 22.6821C67.1701 22.6069 67.161 22.5321 67.1429 22.4594C67.1285 22.4003 67.1004 22.346 67.0614 22.3011C67.0201 22.2569 66.9687 22.2252 66.912 22.2091C66.837 22.1881 66.7597 22.1788 66.682 22.1817C66.5736 22.1815 66.4659 22.1972 66.3616 22.2283C66.2766 22.2543 66.1936 22.2868 66.113 22.3255C66.0413 22.3608 65.9813 22.393 65.9332 22.4219C65.8978 22.4463 65.8573 22.4614 65.8154 22.4658C65.795 22.4663 65.7752 22.459 65.7593 22.4453C65.7416 22.4291 65.7274 22.4084 65.7188 22.3851C65.7067 22.3541 65.6982 22.3216 65.6934 22.2883C65.6869 22.2463 65.6837 22.2037 65.6834 22.161C65.6813 22.1111 65.6858 22.061 65.6961 22.0122C65.7055 21.9749 65.7238 21.9408 65.7489 21.913C65.79 21.8725 65.8369 21.8392 65.8877 21.8142C65.9627 21.774 66.0407 21.7401 66.1204 21.7126C66.2158 21.6795 66.3132 21.6534 66.4118 21.6346C66.5196 21.6138 66.6289 21.6027 66.7381 21.6016C66.9106 21.5959 67.083 21.6146 67.2507 21.6572C67.3801 21.6898 67.5002 21.7537 67.6024 21.8438C67.6969 21.9323 67.7672 22.0461 67.8058 22.1735C67.8522 22.3292 67.8752 22.4917 67.874 22.6551L67.8947 24.4752ZM67.1772 23.3253L66.9032 23.3288C66.8037 23.3285 66.7045 23.3389 66.607 23.3599C66.5361 23.3744 66.4688 23.4031 66.4083 23.4444C66.3605 23.4774 66.3221 23.5235 66.297 23.5778C66.2731 23.6336 66.2615 23.6945 66.2633 23.7557C66.2615 23.8054 66.2698 23.8549 66.2878 23.9008C66.3058 23.9467 66.333 23.9879 66.3675 24.0214C66.4473 24.0893 66.548 24.1227 66.6498 24.1149C66.7479 24.1144 66.8438 24.0848 66.9268 24.0294C67.0231 23.9624 67.109 23.8805 67.1822 23.7865L67.1772 23.3253Z" fill="#838C9D"/>
<path d="M69.2661 20.8253C69.2726 20.8819 69.2684 20.9393 69.254 20.9942C69.2395 21.0491 69.2147 21.1003 69.1813 21.1449C69.0812 21.2035 68.9693 21.2351 68.8553 21.2371C68.7414 21.2391 68.6286 21.2114 68.5267 21.1564C68.4939 21.1141 68.4694 21.0654 68.4543 21.013C68.4393 20.9606 68.434 20.9056 68.439 20.851C68.426 20.7364 68.4561 20.621 68.5226 20.5298C68.6221 20.4703 68.7343 20.4381 68.8485 20.4361C68.9625 20.4342 69.0756 20.4624 69.1769 20.5184C69.2103 20.5607 69.2351 20.6097 69.2504 20.6623C69.2658 20.715 69.2711 20.7704 69.2661 20.8253ZM69.2528 24.4483C69.2534 24.4676 69.2475 24.4865 69.2362 24.5017C69.2206 24.52 69.2005 24.5334 69.1784 24.5403C69.1426 24.5527 69.106 24.5608 69.0688 24.5645C68.9531 24.5761 68.8367 24.5776 68.7207 24.569C68.6835 24.5662 68.6466 24.5591 68.6106 24.5476C68.5881 24.5413 68.5677 24.5284 68.5518 24.5104C68.5403 24.4956 68.5338 24.4769 68.5341 24.4576L68.5034 21.7574C68.5028 21.7382 68.5087 21.7192 68.5199 21.704C68.5355 21.6855 68.5556 21.6717 68.5781 21.6639C68.6135 21.6504 68.6501 21.6413 68.6876 21.6367C68.8031 21.6231 68.9197 21.6216 69.0355 21.6322C69.073 21.6359 69.1099 21.6441 69.1456 21.6566C69.168 21.6638 69.1884 21.6772 69.2046 21.6953C69.2162 21.7102 69.2224 21.7289 69.2224 21.7482L69.2528 24.4483Z" fill="#838C9D"/>
<path d="M71.4997 21.9651C71.5006 22.038 71.4994 22.0977 71.4961 22.1442C71.4941 22.1811 71.4888 22.2178 71.4799 22.2537C71.4758 22.2747 71.4654 22.2939 71.4507 22.3086C71.4371 22.3193 71.4205 22.3249 71.4037 22.3244C71.3863 22.3242 71.3689 22.3208 71.3523 22.3145C71.3331 22.3077 71.3116 22.3003 71.288 22.2926C71.2641 22.2848 71.2378 22.2775 71.2091 22.2708C71.1781 22.2638 71.1465 22.2607 71.1149 22.2613C71.0739 22.2621 71.0331 22.2714 70.9956 22.2887C70.9511 22.3096 70.9094 22.3372 70.8722 22.3707C70.8235 22.4148 70.7792 22.4641 70.7399 22.518C70.6868 22.5904 70.6375 22.666 70.5929 22.7445L70.6118 24.4313C70.6124 24.4506 70.6065 24.4694 70.5952 24.4846C70.5796 24.503 70.5595 24.5164 70.5371 24.5233C70.5016 24.5356 70.4647 24.5438 70.4275 24.5474C70.3118 24.559 70.1954 24.5605 70.0797 24.5519C70.0422 24.5492 70.0053 24.542 69.9695 24.5306C69.9471 24.5242 69.9267 24.5113 69.9105 24.4934C69.899 24.4785 69.8928 24.4598 69.8928 24.4405L69.8624 21.7343C69.8618 21.7155 69.8665 21.6969 69.8759 21.6811C69.8886 21.663 69.9066 21.6495 69.9267 21.6425C69.9574 21.6304 69.9896 21.6224 70.0221 21.6185C70.0708 21.6123 70.1198 21.6091 70.1689 21.609C70.2193 21.6079 70.2698 21.6097 70.32 21.6147C70.3519 21.6172 70.3832 21.6245 70.4131 21.6363C70.4319 21.6436 70.4485 21.6566 70.4606 21.6736C70.4703 21.6892 70.4756 21.7076 70.4754 21.7265L70.4792 22.0633C70.535 21.9743 70.597 21.8898 70.6646 21.8106C70.7148 21.7517 70.7706 21.6986 70.8312 21.6522C70.8793 21.6154 70.933 21.5876 70.99 21.5698C71.0417 21.5541 71.0954 21.5458 71.1495 21.545C71.174 21.5447 71.2009 21.5458 71.2292 21.5485C71.259 21.5514 71.2886 21.5561 71.3178 21.5626C71.345 21.5683 71.3718 21.5761 71.3981 21.5858C71.4161 21.5919 71.4332 21.6015 71.4483 21.614C71.4581 21.6231 71.466 21.6344 71.4713 21.6471C71.4775 21.6632 71.482 21.6799 71.4849 21.697C71.4899 21.7286 71.4932 21.7604 71.4947 21.7924C71.497 21.8348 71.4988 21.8923 71.4997 21.9651Z" fill="#838C9D"/>
<path d="M52.1415 25.6182C52.0454 25.6182 51.9549 25.6103 51.8697 25.5944C51.7846 25.5797 51.7115 25.5599 51.6504 25.535L51.8272 24.9326C51.9057 24.9598 51.9767 24.9756 52.04 24.9801C52.1044 24.9847 52.1595 24.9739 52.2053 24.9479C52.2522 24.923 52.2882 24.8783 52.3133 24.8138L52.3444 24.7358L51.4507 22.0342H52.2888L52.752 23.8941H52.7782L53.248 22.0342H54.091L53.1433 24.8902C53.0974 25.0327 53.0325 25.1583 52.9485 25.2669C52.8655 25.3767 52.758 25.4626 52.626 25.5249C52.495 25.5871 52.3335 25.6182 52.1415 25.6182Z" fill="#838C9D"/>
</svg>
