<svg width="70" height="26" viewBox="0 0 70 26" fill="none" xmlns="http://www.w3.org/2000/svg">
<path opacity="0.5" d="M0.844579 5.3399L7.32036 18.0958L6.27583 11.2619L9.49569 9.12066L12.9217 7.98927L5.91829 8.28331L5.48938 4.70905L9.41907 2.34943L13.8186 1.00781C13.8186 1.00781 -0.817157 1.32766 0.844579 5.3399Z" fill="#707D9B"/>
<path d="M2.46723 3.92699L7.31153 18.1861L7.22692 10.7153L11.909 10.6553L14.8001 7.5049L7.19166 7.60241L7.14935 3.86701L12.4168 3.79948L16.4713 0.0115708C16.4713 0.0115708 1.24732 -0.41599 2.46723 3.92699Z" fill="#707D9B"/>
<path d="M17.9447 17.5281L13.6622 17.583C13.4932 17.5803 13.3316 17.5088 13.2107 17.3833C13.0897 17.2578 13.0186 17.0877 13.0119 16.9081L12.9926 15.2022C12.9952 15.0225 13.0624 14.8506 13.1805 14.722C13.2986 14.5934 13.4585 14.5178 13.6274 14.5108L15.9826 14.4807L15.9762 13.914L12.9785 13.9524L12.9617 12.4689L17.2443 12.4141C17.4132 12.4167 17.5748 12.4881 17.6958 12.6137C17.8168 12.7392 17.8879 12.9093 17.8945 13.089L17.9447 17.5281ZM16.0007 16.0749L15.9955 15.6197L14.9251 15.6334L14.9302 16.0886L16.0007 16.0749Z" fill="#707D9B"/>
<path d="M20.5085 17.4953L18.5812 17.52L18.5231 12.3978L20.4504 12.373L20.5085 17.4953Z" fill="#707D9B"/>
<path d="M25.4796 12.3086L24.8538 13.8003L23.0366 13.8235L23.0778 17.4624L21.1506 17.4871L21.1003 13.0479C21.1029 12.8682 21.1701 12.6963 21.2882 12.5677C21.4063 12.4391 21.5662 12.3636 21.7351 12.3566L25.4796 12.3086Z" fill="#707D9B"/>
<path d="M31.1877 15.8807L30.5673 17.3667L25.8565 17.4271L25.7791 10.5998L31.1272 10.5312L30.5068 12.0165L27.7233 12.0522L27.7387 13.4192L30.5223 13.3835L30.535 14.5226L27.7516 14.5582L27.7671 15.9245L31.1877 15.8807Z" fill="#707D9B"/>
<path d="M36.9803 17.2843L34.8442 17.3117L34.2964 16.4632L33.7731 17.3254L31.6318 17.3528L33.2115 14.7711L31.5739 12.2306L33.7152 12.2032L34.2578 13.0517L34.7862 12.1895L36.922 12.1621L35.3476 14.7437L36.9803 17.2843Z" fill="#707D9B"/>
<path d="M42.3168 15.7381L41.6913 17.2242L38.051 17.2708C37.8822 17.2682 37.7205 17.1968 37.5995 17.0712C37.4787 16.9456 37.4076 16.7755 37.4009 16.5959L37.3586 12.84C37.3609 12.6603 37.428 12.4884 37.5462 12.3598C37.6643 12.2311 37.8242 12.1556 37.9931 12.1486L42.2756 12.0938L41.65 13.5854L39.2947 13.6156L39.3192 15.7766L42.3168 15.7381Z" fill="#707D9B"/>
<path d="M47.6818 17.1483L45.7543 17.173L45.7094 13.1897L44.6389 13.2035L44.6841 17.1867L42.7567 17.2114L42.6794 10.3841L44.6066 10.3594L44.6259 12.0644L46.9813 12.0342C47.1501 12.0369 47.3118 12.1083 47.4328 12.2339C47.5538 12.3594 47.6247 12.5295 47.6317 12.7092L47.6818 17.1483Z" fill="#707D9B"/>
<path d="M53.2435 17.0749L48.9607 17.1298C48.7918 17.1272 48.6302 17.0557 48.5092 16.9302C48.3881 16.8047 48.317 16.6346 48.3103 16.4549L48.291 14.7491C48.2936 14.5694 48.361 14.3975 48.4789 14.2689C48.597 14.1403 48.757 14.0647 48.9258 14.0577L51.2812 14.0276L51.2749 13.4608L48.2769 13.4992L48.2602 12.0158L52.5427 11.9609C52.7119 11.9637 52.8733 12.0351 52.9943 12.1606C53.1153 12.2862 53.1865 12.4562 53.1934 12.6358L53.2435 17.0749ZM51.2991 15.6219L51.2939 15.1666L50.2237 15.1803L50.2289 15.6355L51.2991 15.6219Z" fill="#707D9B"/>
<path d="M58.8053 17.0047L56.8779 17.0294L56.8366 13.3905L55.7659 13.4042L55.8071 17.0431L53.8802 17.0678L53.8223 11.9455L58.1042 11.8906C58.2734 11.893 58.435 11.9644 58.5561 12.09C58.6771 12.2156 58.7483 12.3858 58.7549 12.5655L58.8053 17.0047Z" fill="#707D9B"/>
<path d="M64.3847 18.5157C64.3821 18.6955 64.3149 18.8674 64.1968 18.9961C64.0789 19.1248 63.919 19.2006 63.7502 19.2078L60.1105 19.2545L59.4506 17.7792L62.4489 17.7408L62.4399 16.9575L60.0848 16.9877C59.9157 16.9853 59.754 16.9139 59.6327 16.7883C59.5117 16.6627 59.4405 16.4925 59.4342 16.3128L59.3915 12.5568C59.3941 12.377 59.4613 12.2049 59.5794 12.0763C59.6976 11.9477 59.8578 11.8722 60.0266 11.8654L64.3086 11.8105L64.3847 18.5157ZM62.4232 15.4796L62.3987 13.3187L61.3279 13.3324L61.3524 15.4933L62.4232 15.4796Z" fill="#707D9B"/>
<path d="M69.9121 15.3842L69.2865 16.8702L65.6462 16.9169C65.4771 16.9142 65.3154 16.8427 65.1944 16.7172C65.0734 16.5917 65.0022 16.4216 64.9956 16.242L64.9529 12.4861C64.9558 12.3063 65.023 12.1345 65.1411 12.0059C65.2592 11.8773 65.4192 11.8017 65.588 11.7947L69.2286 11.748C69.3974 11.751 69.5588 11.8225 69.6795 11.948C69.8005 12.0735 69.8714 12.2434 69.8783 12.4229L69.8991 14.2451C69.8962 14.4248 69.8288 14.5965 69.7109 14.7252C69.5931 14.8538 69.4334 14.9297 69.2646 14.9372L66.9092 14.9674L66.9144 15.4226L69.9121 15.3842ZM67.9664 13.8147L67.9601 13.2479L66.8899 13.2617L66.8965 13.8284L67.9664 13.8147Z" fill="#707D9B"/>
<path d="M28.6426 21.7927C28.6481 21.9879 28.6182 22.1823 28.5544 22.3653C28.4965 22.5268 28.4038 22.6715 28.2836 22.7878C28.1558 22.908 28.0055 22.9982 27.8426 23.0526C27.6424 23.1182 27.4339 23.1508 27.2244 23.1494L26.9238 23.1532L26.9376 24.3759C26.9379 24.3954 26.9317 24.4144 26.9201 24.4295C26.9042 24.4482 26.8836 24.4618 26.8607 24.4687C26.8245 24.4809 26.7873 24.4893 26.7496 24.4938C26.6317 24.5071 26.5129 24.5087 26.3947 24.4984C26.3564 24.4949 26.3186 24.4875 26.2817 24.4761C26.259 24.4701 26.2385 24.457 26.2228 24.4384C26.2117 24.4233 26.2056 24.4046 26.2055 24.3853L26.1665 20.9391C26.1633 20.9012 26.1675 20.8631 26.1789 20.827C26.1902 20.7909 26.2084 20.7577 26.2323 20.7295C26.2562 20.7056 26.2843 20.6869 26.3149 20.6745C26.3456 20.6622 26.3783 20.6565 26.411 20.6576L27.2599 20.6467C27.3453 20.6456 27.4265 20.6481 27.5036 20.6539C27.5967 20.6622 27.6893 20.6759 27.781 20.6949C27.8954 20.7186 28.006 20.7595 28.1095 20.8165C28.217 20.8734 28.3136 20.9509 28.3946 21.0452C28.4749 21.1402 28.5366 21.2512 28.5765 21.3717C28.6204 21.5071 28.6428 21.6494 28.6426 21.7927ZM27.8778 21.8588C27.8806 21.744 27.8563 21.6303 27.8072 21.528C27.7689 21.4499 27.7114 21.3842 27.6409 21.3378C27.5779 21.2981 27.508 21.2723 27.4354 21.262C27.3619 21.2519 27.288 21.2475 27.214 21.2485L26.9023 21.2525L26.917 22.5522L27.2454 22.548C27.3454 22.5498 27.4449 22.5314 27.5385 22.494C27.6122 22.463 27.6779 22.414 27.7303 22.3508C27.7812 22.2872 27.8192 22.2132 27.842 22.1333C27.8676 22.0444 27.8797 21.9518 27.8778 21.8588Z" fill="#707D9B"/>
<path d="M31.5274 22.978C31.5321 23.1866 31.5064 23.3947 31.4511 23.5949C31.4018 23.7729 31.3174 23.9375 31.2033 24.0778C31.0874 24.2166 30.9428 24.3249 30.7808 24.3941C30.5907 24.4734 30.3881 24.5132 30.1838 24.5114C29.9878 24.5182 29.7922 24.4876 29.6063 24.421C29.451 24.3639 29.3107 24.2683 29.1969 24.142C29.0839 24.0118 29.0003 23.8559 28.9523 23.6862C28.8955 23.4849 28.8668 23.2758 28.8673 23.0656C28.8627 22.8563 28.8891 22.6477 28.9452 22.4471C28.995 22.2691 29.0799 22.1044 29.1945 21.9643C29.3104 21.8265 29.4542 21.7187 29.6156 21.6494C29.8052 21.57 30.0074 21.5302 30.2112 21.5322C30.408 21.5253 30.6042 21.5553 30.7912 21.621C30.9462 21.677 31.0863 21.7722 31.1992 21.8985C31.3116 22.0291 31.3946 22.1849 31.4424 22.3544C31.4995 22.5567 31.5283 22.7668 31.5274 22.978ZM30.8071 23.0169C30.8065 22.8962 30.7952 22.7759 30.7736 22.6575C30.7561 22.557 30.7215 22.4606 30.6716 22.3731C30.6258 22.2943 30.5613 22.2297 30.4846 22.186C30.3941 22.1386 30.2936 22.1164 30.193 22.1216C30.0988 22.1206 30.0057 22.1426 29.9207 22.1858C29.8438 22.227 29.7781 22.2891 29.7308 22.3659C29.6787 22.4524 29.6415 22.5481 29.6213 22.6486C29.5962 22.7718 29.585 22.8977 29.5879 23.0236C29.5885 23.1443 29.6 23.2646 29.6225 23.3829C29.6409 23.4833 29.6755 23.5795 29.7248 23.6674C29.7697 23.7465 29.8345 23.8107 29.9118 23.853C30.0023 23.8991 30.102 23.9208 30.2019 23.9159C30.297 23.9171 30.3913 23.8952 30.4768 23.8517C30.5538 23.8108 30.6195 23.7492 30.667 23.6731C30.7195 23.5874 30.7561 23.492 30.7751 23.3919C30.7993 23.2686 30.8099 23.1428 30.8071 23.0169Z" fill="#707D9B"/>
<path d="M35.7802 21.6221C35.7799 21.649 35.7773 21.6758 35.7727 21.7022C35.7672 21.7338 35.7577 21.7793 35.7436 21.8387L35.1082 24.2365C35.101 24.2658 35.0892 24.2936 35.0728 24.3184C35.0552 24.3415 35.0318 24.3588 35.0053 24.3681C34.963 24.3827 34.9192 24.3913 34.8748 24.3935C34.818 24.3981 34.7445 24.401 34.6535 24.4022C34.5627 24.4034 34.4884 24.4019 34.4308 24.3977C34.3849 24.3956 34.3394 24.3878 34.2956 24.3742C34.2677 24.3661 34.2429 24.3494 34.2239 24.3263C34.2077 24.3031 34.1959 24.2765 34.1896 24.2483L33.7542 22.649L33.7481 22.6224L33.7429 22.6491L33.377 24.2587C33.3718 24.2879 33.3611 24.3156 33.3459 24.3405C33.328 24.3646 33.3032 24.382 33.2755 24.3903C33.2312 24.4046 33.1856 24.4132 33.1392 24.4157C33.0819 24.4204 33.0078 24.4233 32.9168 24.4245C32.824 24.4256 32.7491 24.4241 32.6926 24.4199C32.6474 24.4178 32.6024 24.4099 32.5586 24.3965C32.531 24.3884 32.5062 24.3717 32.4872 24.3485C32.471 24.3253 32.4592 24.2987 32.4529 24.2705L31.7691 21.8896C31.755 21.8458 31.7437 21.8009 31.7354 21.7554C31.731 21.7285 31.7284 21.7013 31.7276 21.674C31.727 21.6555 31.7322 21.6372 31.7423 21.622C31.7567 21.6041 31.776 21.5914 31.7976 21.5858C31.8328 21.5749 31.8691 21.568 31.906 21.5651C31.9512 21.5607 32.0082 21.558 32.0771 21.5571C32.1512 21.5561 32.2117 21.5573 32.2581 21.5606C32.295 21.5623 32.3313 21.5688 32.3667 21.58C32.3886 21.5864 32.4079 21.6002 32.4215 21.6193C32.4327 21.6378 32.4408 21.6583 32.446 21.6797L32.9603 23.6126L32.9664 23.6481L32.9715 23.6124L33.4116 21.6673C33.4162 21.6453 33.4251 21.6245 33.4375 21.6063C33.4513 21.5877 33.47 21.5736 33.4911 21.5656C33.5239 21.5535 33.5579 21.546 33.5925 21.5435C33.636 21.5391 33.6922 21.5364 33.7608 21.5355C33.8167 21.5342 33.8723 21.5359 33.9279 21.5408C33.9625 21.5435 33.9965 21.55 34.0296 21.5601C34.0504 21.5657 34.0691 21.5779 34.083 21.595C34.0939 21.6106 34.102 21.628 34.1074 21.6465L34.625 23.5942L34.6336 23.6267L34.6388 23.5911L35.09 21.6458C35.0926 21.624 35.1001 21.6031 35.1117 21.5848C35.1255 21.5655 35.1448 21.5513 35.1667 21.5441C35.201 21.5321 35.2364 21.5247 35.2724 21.522C35.3168 21.5175 35.3733 21.5148 35.4419 21.5139C35.5108 21.5131 35.5669 21.5143 35.6105 21.5177C35.6453 21.5195 35.6802 21.5255 35.7136 21.5356C35.7341 21.5409 35.7525 21.5531 35.7658 21.5705C35.7753 21.5858 35.7802 21.6038 35.7802 21.6221Z" fill="#707D9B"/>
<path d="M38.4168 22.8359C38.4231 22.9081 38.4035 22.9803 38.362 23.0379C38.3422 23.0603 38.3177 23.0779 38.2906 23.0894C38.2638 23.101 38.2347 23.1063 38.2056 23.105L36.6942 23.1244C36.6942 23.2279 36.708 23.3309 36.7351 23.4303C36.7588 23.5167 36.8005 23.5963 36.8576 23.6626C36.9164 23.7284 36.9896 23.7778 37.0708 23.8065C37.1711 23.841 37.2763 23.8567 37.3817 23.8528C37.4898 23.8527 37.5979 23.8419 37.7042 23.8206C37.7855 23.8037 37.8656 23.7819 37.9442 23.7553C38.0117 23.7317 38.0676 23.7103 38.1119 23.691C38.1459 23.6743 38.1825 23.6643 38.22 23.6614C38.2347 23.6607 38.2491 23.6641 38.2621 23.6713C38.2747 23.68 38.2845 23.6928 38.2903 23.7079C38.2992 23.7319 38.3047 23.7574 38.3064 23.7832C38.3096 23.8157 38.3113 23.8567 38.3119 23.906C38.3125 23.9495 38.3119 23.9865 38.3105 24.0171C38.3093 24.0434 38.307 24.0696 38.303 24.0956C38.3004 24.1147 38.2949 24.1333 38.2868 24.1507C38.2791 24.1663 38.2696 24.1809 38.2583 24.194C38.2286 24.2188 38.1955 24.2382 38.1601 24.2515C38.0932 24.2806 38.0246 24.3047 37.9549 24.3237C37.8607 24.3499 37.7653 24.3709 37.6688 24.3866C37.5546 24.4053 37.4394 24.4151 37.3241 24.4162C37.1273 24.4225 36.9311 24.395 36.7426 24.3348C36.585 24.2836 36.4412 24.193 36.3234 24.0707C36.2061 23.9434 36.1188 23.7882 36.0692 23.6179C36.0087 23.4092 35.9784 23.192 35.9799 22.9736C35.9744 22.7584 36.0012 22.5437 36.0588 22.3374C36.1081 22.1601 36.1914 21.9957 36.3038 21.8546C36.4121 21.7217 36.5475 21.6171 36.7 21.5489C36.8677 21.4753 37.0475 21.4378 37.229 21.4385C37.4109 21.4313 37.5924 21.4621 37.763 21.5294C37.903 21.5866 38.0284 21.6777 38.1292 21.7956C38.2272 21.9135 38.2998 22.0525 38.3427 22.203C38.3903 22.3697 38.4148 22.543 38.4154 22.7173L38.4168 22.8359ZM37.7353 22.6314C37.748 22.4574 37.7042 22.284 37.6117 22.14C37.5642 22.0793 37.5036 22.0317 37.4353 22.0014C37.3668 21.9711 37.2924 21.9589 37.2187 21.9659C37.1383 21.9649 37.0587 21.9841 36.9867 22.0222C36.923 22.0571 36.8674 22.1069 36.8242 22.1679C36.7795 22.2324 36.7464 22.3051 36.7262 22.3823C36.7037 22.4678 36.691 22.556 36.689 22.6448L37.7353 22.6314Z" fill="#707D9B"/>
<path d="M40.5024 21.8124C40.5033 21.8835 40.5021 21.9418 40.4989 21.9872C40.4969 22.0232 40.4917 22.0591 40.4834 22.094C40.4791 22.1146 40.469 22.1333 40.4546 22.1477C40.4416 22.1581 40.4255 22.1635 40.409 22.1631C40.3917 22.1628 40.3747 22.1596 40.3586 22.1534C40.3402 22.1467 40.3191 22.1396 40.2958 22.132C40.2725 22.1244 40.2471 22.1173 40.2191 22.1107C40.1889 22.104 40.1581 22.1009 40.1272 22.1015C40.0869 22.1023 40.0474 22.1113 40.0105 22.1282C39.967 22.1486 39.9264 22.1755 39.8904 22.2082C39.8425 22.2512 39.7993 22.2994 39.761 22.352C39.7091 22.4226 39.6613 22.4964 39.6175 22.573L39.6362 24.2191C39.6365 24.2379 39.6307 24.2563 39.6198 24.2711C39.6045 24.2891 39.5849 24.3021 39.5633 24.3089C39.5284 24.3209 39.4927 24.3288 39.4564 24.3324C39.3434 24.3438 39.2299 24.3452 39.1167 24.3368C39.0804 24.3341 39.0443 24.3271 39.0092 24.316C38.9873 24.3098 38.9674 24.2972 38.9518 24.2797C38.9406 24.2652 38.9343 24.2469 38.9346 24.2281L38.9046 21.5872C38.904 21.5688 38.9086 21.5507 38.9178 21.5352C38.9305 21.5176 38.9478 21.5045 38.9677 21.4976C38.9977 21.4858 39.0288 21.478 39.0605 21.4742C39.108 21.4681 39.1559 21.465 39.204 21.465C39.253 21.4638 39.3022 21.4656 39.3515 21.4705C39.3823 21.473 39.4129 21.48 39.442 21.4915C39.4604 21.4987 39.4766 21.5113 39.4884 21.5279C39.4982 21.5432 39.5031 21.5612 39.5031 21.5795L39.5065 21.9082C39.561 21.8214 39.6215 21.7389 39.6875 21.6616C39.7365 21.6042 39.7909 21.5524 39.85 21.507C39.897 21.4712 39.9494 21.444 40.005 21.4266C40.0558 21.4113 40.1079 21.4032 40.1606 21.4024C40.1849 21.4021 40.2108 21.4032 40.2387 21.4059C40.2676 21.4087 40.2964 21.4133 40.3249 21.4196C40.3514 21.4252 40.3776 21.4328 40.4033 21.4423C40.4209 21.4482 40.4376 21.4576 40.4523 21.4698C40.4618 21.4787 40.4696 21.4897 40.4747 21.5021C40.4808 21.5178 40.4851 21.5341 40.488 21.5508C40.4932 21.5816 40.4963 21.6127 40.4975 21.6439C40.5001 21.6852 40.5015 21.7414 40.5024 21.8124Z" fill="#707D9B"/>
<path d="M43.1006 22.7773C43.107 22.8496 43.0874 22.9217 43.0459 22.9793C43.0257 23.0017 43.0015 23.0193 42.9744 23.0309C42.9473 23.0424 42.9185 23.0478 42.8894 23.0464L41.3781 23.0658C41.3781 23.1693 41.3919 23.2723 41.419 23.3717C41.4426 23.4581 41.4844 23.5377 41.5414 23.6041C41.6002 23.6698 41.6734 23.7192 41.7547 23.7479C41.8549 23.7824 41.9601 23.7981 42.0656 23.7943C42.1736 23.7941 42.2817 23.7833 42.388 23.762C42.4693 23.7451 42.5494 23.7234 42.6281 23.6967C42.6955 23.6731 42.7514 23.6517 42.7958 23.6324C42.8298 23.6157 42.8667 23.6057 42.9041 23.6029C42.9185 23.6021 42.9329 23.6055 42.9459 23.6127C42.9586 23.6214 42.9684 23.6342 42.9741 23.6493C42.9831 23.6734 42.9885 23.6988 42.9903 23.7246C42.9934 23.7572 42.9952 23.7981 42.9957 23.8474C42.9963 23.8909 42.9957 23.9279 42.9943 23.9585C42.9932 23.9848 42.9906 24.0111 42.9868 24.037C42.9842 24.0562 42.9787 24.0747 42.9707 24.0921C42.9629 24.1078 42.9534 24.1223 42.9421 24.1354C42.9125 24.1602 42.8793 24.1796 42.8439 24.1929C42.777 24.222 42.7085 24.2461 42.6387 24.2651C42.5445 24.2913 42.4488 24.3123 42.3526 24.328C42.2385 24.3467 42.1232 24.3566 42.008 24.3576C41.8112 24.3639 41.6149 24.3364 41.4265 24.2762C41.2691 24.2249 41.1253 24.1344 41.0075 24.0121C40.8899 23.8848 40.8029 23.7296 40.753 23.5593C40.6925 23.3507 40.6623 23.1334 40.6637 22.915C40.6585 22.6998 40.685 22.4851 40.7427 22.2788C40.792 22.1015 40.8755 21.9371 40.9879 21.796C41.096 21.6631 41.2314 21.5586 41.3838 21.4904C41.5515 21.4167 41.7313 21.3792 41.9129 21.3799C42.0947 21.3727 42.2762 21.4035 42.4468 21.4708C42.5869 21.528 42.7122 21.6191 42.8131 21.737C42.911 21.8549 42.9839 21.9939 43.0266 22.1444C43.0741 22.3112 43.0986 22.4844 43.0992 22.6587L43.1006 22.7773ZM42.4192 22.5728C42.4315 22.3988 42.388 22.2254 42.2952 22.0814C42.248 22.0207 42.1875 21.9731 42.1189 21.9428C42.0503 21.9125 41.976 21.9003 41.9022 21.9073C41.8218 21.9063 41.7423 21.9256 41.6705 21.9636C41.6066 21.9985 41.5509 22.0483 41.5077 22.1093C41.4631 22.1738 41.4299 22.2465 41.41 22.3238C41.3873 22.4092 41.3746 22.4974 41.3726 22.5863L42.4192 22.5728Z" fill="#707D9B"/>
<path d="M45.973 24.1382C45.9739 24.1575 45.9693 24.1767 45.9598 24.1932C45.948 24.2103 45.9315 24.2234 45.9128 24.2308C45.884 24.2426 45.8534 24.25 45.8226 24.2527C45.7846 24.2571 45.7379 24.2596 45.6823 24.2604C45.6229 24.2612 45.5745 24.2598 45.5373 24.2563C45.5065 24.2542 45.476 24.2476 45.4469 24.2368C45.427 24.2299 45.4097 24.2173 45.3961 24.2004C45.3855 24.1845 45.38 24.1654 45.3803 24.1458L45.3771 23.8527C45.2627 23.9901 45.1282 24.1068 44.9786 24.1984C44.8331 24.2793 44.6717 24.323 44.5075 24.3259C44.3432 24.3287 44.1804 24.2908 44.0323 24.215C43.9026 24.1405 43.7914 24.0337 43.7087 23.9038C43.6211 23.7635 43.5583 23.6072 43.524 23.4427C43.4842 23.2599 43.4632 23.073 43.4621 22.8854C43.4572 22.6718 43.4785 22.4585 43.5257 22.2509C43.5646 22.0782 43.6329 21.9147 43.7277 21.7686C43.8145 21.6378 43.9297 21.5316 44.0637 21.4593C44.2089 21.3839 44.3686 21.3454 44.5302 21.3467C44.6613 21.3431 44.7913 21.3724 44.9097 21.4322C45.0351 21.4997 45.1498 21.5876 45.2495 21.6928L45.2333 20.2628C45.233 20.2437 45.2382 20.2251 45.248 20.2093C45.2621 20.1901 45.2815 20.176 45.3034 20.1686C45.3379 20.1554 45.3737 20.1465 45.4103 20.1421C45.5229 20.1288 45.6368 20.1273 45.7497 20.1377C45.7857 20.1411 45.8215 20.1491 45.8557 20.1615C45.8776 20.1689 45.897 20.1825 45.9119 20.2008C45.9232 20.2159 45.9292 20.2346 45.9292 20.2538L45.973 24.1382ZM45.2573 22.3826C45.1731 22.2679 45.0751 22.1656 44.9656 22.0783C44.8824 22.0117 44.7809 21.9757 44.6766 21.9755C44.5931 21.9742 44.5112 22.0007 44.4424 22.0511C44.3758 22.1017 44.3219 22.169 44.2859 22.247C44.2453 22.333 44.2164 22.4245 44.1997 22.519C44.1813 22.62 44.1726 22.7228 44.1741 22.8257C44.1749 22.9339 44.1847 23.0417 44.2026 23.1481C44.2182 23.245 44.247 23.3388 44.2879 23.4268C44.3236 23.5041 44.3764 23.571 44.4418 23.6217C44.5127 23.6724 44.5968 23.6973 44.6821 23.6926C44.7296 23.6921 44.7772 23.684 44.8224 23.6686C44.8717 23.6511 44.9184 23.6261 44.9607 23.5943C45.0132 23.5552 45.0616 23.5104 45.1054 23.4607C45.155 23.4058 45.2088 23.3385 45.2673 23.2587L45.2573 22.3826Z" fill="#707D9B"/>
<path d="M50.3021 22.727C50.307 22.9406 50.2851 23.154 50.2369 23.3615C50.1975 23.5341 50.1286 23.6975 50.0335 23.8438C49.9479 23.9737 49.8341 24.0798 49.7015 24.153C49.5618 24.2278 49.4071 24.2663 49.2506 24.2654C49.1722 24.2669 49.0935 24.2595 49.0166 24.2432C48.944 24.2274 48.874 24.2009 48.8083 24.1645C48.7385 24.1253 48.6726 24.0785 48.6118 24.0248C48.5409 23.962 48.4746 23.8936 48.4132 23.8201L48.4164 24.1073C48.4172 24.1268 48.4121 24.1461 48.402 24.1623C48.3887 24.1795 48.3717 24.1925 48.3521 24.1999C48.3222 24.2117 48.291 24.2191 48.259 24.2219C48.2201 24.2263 48.1729 24.2288 48.1173 24.2296C48.0596 24.2303 48.0121 24.229 47.9738 24.2255C47.9424 24.2235 47.9115 24.2169 47.8819 24.2059C47.8623 24.1993 47.8453 24.1867 47.8326 24.1696C47.8228 24.1533 47.8176 24.1343 47.8182 24.115L47.7741 20.2218C47.7735 20.2026 47.7793 20.1838 47.7902 20.1683C47.8049 20.1494 47.8245 20.1353 47.8467 20.1276C47.8813 20.1144 47.9173 20.1055 47.9536 20.1011C48.0663 20.0877 48.1801 20.0863 48.2931 20.0967C48.3296 20.1002 48.366 20.1082 48.4008 20.1205C48.423 20.1276 48.4429 20.1412 48.4582 20.1598C48.4694 20.1749 48.4755 20.1936 48.4755 20.2128L48.4922 21.6722C48.5498 21.6086 48.6123 21.5503 48.6792 21.498C48.7383 21.4521 48.8011 21.4121 48.8671 21.3787C48.929 21.3475 48.9941 21.3243 49.0613 21.3096C49.1307 21.2946 49.2016 21.2867 49.2725 21.2861C49.4353 21.2786 49.5969 21.3169 49.7413 21.3971C49.869 21.4722 49.9776 21.579 50.058 21.7084C50.1442 21.8493 50.2058 22.0054 50.2401 22.1694C50.2799 22.3523 50.3009 22.5392 50.3021 22.727ZM49.5762 22.7895C49.5753 22.6805 49.5661 22.5717 49.5488 22.4642C49.5344 22.3676 49.5056 22.274 49.4638 22.1869C49.4272 22.1109 49.3745 22.0452 49.3099 21.995C49.2402 21.9453 49.1575 21.9209 49.0737 21.9255C49.0276 21.926 48.9817 21.9336 48.9377 21.9479C48.8887 21.9647 48.8426 21.9893 48.8008 22.0207C48.7486 22.0597 48.7002 22.1039 48.6561 22.1529C48.5996 22.2157 48.5472 22.2827 48.4997 22.3533L48.5095 23.2296C48.5916 23.3439 48.6878 23.4457 48.7956 23.5324C48.8771 23.5981 48.9768 23.6337 49.0791 23.6339C49.1618 23.6355 49.2425 23.6085 49.3094 23.5569C49.3736 23.5047 49.4264 23.4383 49.4644 23.3624C49.507 23.2778 49.5364 23.1864 49.5517 23.0919C49.569 22.9922 49.5774 22.8909 49.5762 22.7895Z" fill="#707D9B"/>
<path d="M57.2496 22.9458C57.2527 23.0714 57.2363 23.1966 57.2009 23.3165C57.1692 23.4227 57.121 23.5224 57.0582 23.6115C56.9966 23.6977 56.9222 23.7726 56.8381 23.8335C56.7499 23.8972 56.6545 23.9492 56.5545 23.9881C56.447 24.0301 56.3358 24.0608 56.2229 24.0797C56.0926 24.1011 55.9609 24.1122 55.8292 24.1129L54.872 24.1252C54.8155 24.1277 54.7602 24.1079 54.7167 24.0694C54.6936 24.0451 54.6761 24.0158 54.6648 23.9834C54.6536 23.9511 54.6493 23.9166 54.6519 23.8822L54.6141 20.5425C54.6106 20.5083 54.6144 20.4736 54.6248 20.441C54.6351 20.4084 54.6521 20.3786 54.6746 20.3537C54.7173 20.3142 54.772 20.2929 54.8285 20.294L55.733 20.2824C55.9215 20.2764 56.1099 20.2939 56.2946 20.3344C56.4335 20.3653 56.5655 20.4245 56.6833 20.5086C56.7874 20.5851 56.8715 20.6884 56.9274 20.809C56.9873 20.9437 57.0176 21.0911 57.0159 21.2401C57.0176 21.3287 57.0072 21.4171 56.9856 21.5026C56.9652 21.5823 56.9332 21.6582 56.8905 21.7274C56.8482 21.7956 56.7957 21.8563 56.7355 21.907C56.6712 21.9606 56.6001 22.0034 56.524 22.0341C56.6228 22.0514 56.7185 22.0851 56.8075 22.1341C56.8934 22.1816 56.9706 22.2453 57.0352 22.3222C57.1017 22.4022 57.1542 22.4943 57.1899 22.5941C57.2297 22.7065 57.2498 22.8256 57.2496 22.9458ZM56.2851 21.3443C56.2854 21.2736 56.2733 21.2035 56.2494 21.1376C56.2278 21.0788 56.1929 21.0268 56.1474 20.9863C56.0975 20.9438 56.0399 20.9128 55.9779 20.8952C55.8892 20.872 55.7976 20.8622 55.7062 20.8662L55.3359 20.8709L55.3472 21.8656L55.7563 21.8604C55.8425 21.8627 55.9281 21.848 56.0093 21.8172C56.0681 21.7925 56.1214 21.7544 56.1652 21.7056C56.2064 21.6586 56.2379 21.6026 56.2566 21.5416C56.2765 21.478 56.2863 21.4113 56.2851 21.3443ZM56.49 22.9822C56.4906 22.9005 56.4753 22.8196 56.4456 22.7444C56.4182 22.6763 56.3753 22.6163 56.3211 22.5697C56.2598 22.5194 56.1892 22.483 56.1139 22.4628C56.0073 22.4357 55.8975 22.4241 55.7878 22.4285L55.3538 22.4341L55.3659 23.5236L55.8949 23.5169C55.9817 23.5178 56.0684 23.5052 56.152 23.4795C56.2177 23.458 56.2788 23.4231 56.3318 23.3765C56.3825 23.3311 56.4228 23.2739 56.4494 23.2092C56.4785 23.1376 56.4923 23.0601 56.49 22.9822Z" fill="#707D9B"/>
<path d="M60.011 22.5605C60.0174 22.6328 59.9978 22.7049 59.9563 22.7625C59.9361 22.7849 59.9116 22.8025 59.8848 22.8141C59.8577 22.8256 59.8286 22.8309 59.7995 22.8297L58.2882 22.849C58.2885 22.9525 58.3023 23.0555 58.3294 23.1549C58.3527 23.2413 58.3945 23.3209 58.4515 23.3872C58.5106 23.4531 58.5838 23.5024 58.6648 23.5311C58.7651 23.5657 58.8705 23.5814 58.9757 23.5774C59.084 23.5774 59.1921 23.5665 59.2984 23.5452C59.3794 23.5284 59.4595 23.5066 59.5385 23.4799C59.6059 23.4564 59.6618 23.4349 59.7059 23.4156C59.7402 23.3989 59.7768 23.3889 59.8142 23.386C59.8289 23.3853 59.8433 23.3887 59.856 23.3959C59.869 23.4046 59.8788 23.4175 59.8842 23.4325C59.8935 23.4566 59.8989 23.482 59.9007 23.5079C59.9038 23.5404 59.9056 23.5813 59.9061 23.6306C59.9067 23.6741 59.9061 23.7111 59.9047 23.7417C59.9036 23.768 59.901 23.7942 59.8972 23.8203C59.8943 23.8394 59.8891 23.8579 59.8811 23.8753C59.8733 23.891 59.8635 23.9055 59.8523 23.9186C59.8229 23.9434 59.7897 23.9628 59.7543 23.9761C59.6874 24.0052 59.6189 24.0293 59.5488 24.0483C59.4546 24.0745 59.3592 24.0955 59.263 24.1112C59.1489 24.1299 59.0336 24.1398 58.9181 24.1408C58.7215 24.1471 58.5253 24.1196 58.3369 24.0594C58.1792 24.0082 58.0355 23.9176 57.9176 23.7953C57.8003 23.668 57.713 23.5128 57.6634 23.3426C57.6029 23.1339 57.5727 22.9166 57.5741 22.6982C57.5686 22.483 57.5954 22.2684 57.6531 22.062C57.7024 21.8847 57.7856 21.7203 57.898 21.5792C58.0064 21.4463 58.1418 21.3418 58.2939 21.2735C58.4619 21.2 58.6417 21.1624 58.823 21.1631C59.0051 21.1559 59.1863 21.1868 59.3572 21.254C59.4973 21.3112 59.6226 21.4023 59.7235 21.5203C59.8214 21.6381 59.894 21.7771 59.937 21.9276C59.9845 22.0944 60.009 22.2676 60.0096 22.4419L60.011 22.5605ZM59.3293 22.3561C59.3419 22.182 59.2981 22.0086 59.2054 21.8646C59.1581 21.8039 59.0976 21.7563 59.0293 21.726C58.9607 21.6957 58.8864 21.6835 58.8126 21.6905C58.7322 21.6895 58.6527 21.7088 58.5806 21.7468C58.517 21.7817 58.4613 21.8315 58.4181 21.8925C58.3735 21.957 58.3403 22.0297 58.3204 22.1069C58.2977 22.1924 58.285 22.2806 58.283 22.3694L59.3293 22.3561Z" fill="#707D9B"/>
<path d="M61.9563 23.674C61.9589 23.741 61.9542 23.808 61.9433 23.874C61.9381 23.9097 61.9246 23.9435 61.9041 23.9722C61.8831 23.9944 61.8583 24.0118 61.8309 24.0235C61.794 24.0403 61.756 24.0536 61.7171 24.0635C61.6704 24.0755 61.6232 24.0845 61.5756 24.0905C61.5243 24.0971 61.4727 24.1007 61.4212 24.1014C61.2984 24.1056 61.176 24.0882 61.0587 24.0498C60.9613 24.0171 60.8737 23.9586 60.8034 23.8798C60.7322 23.7962 60.6806 23.6959 60.6527 23.5871C60.6172 23.4504 60.5997 23.3091 60.6005 23.1673L60.5852 21.8143L60.2873 21.8181C60.2521 21.8186 60.2251 21.7957 60.2057 21.7496C60.1824 21.6749 60.1723 21.5962 60.1755 21.5175C60.1743 21.4691 60.1761 21.4206 60.1807 21.3724C60.1833 21.3404 60.1899 21.3089 60.2006 21.2789C60.2072 21.2593 60.2193 21.2422 60.2349 21.2296C60.2493 21.2194 60.266 21.214 60.2833 21.2141L60.5783 21.2104L60.5717 20.6212C60.5711 20.6022 60.5763 20.5835 60.5864 20.5677C60.6005 20.5486 60.6198 20.5344 60.6417 20.527C60.6766 20.5139 60.7129 20.5054 60.7498 20.502C60.7953 20.4965 60.8515 20.4933 60.9181 20.4924C60.9869 20.4915 61.044 20.4933 61.0895 20.4976C61.1261 20.5 61.1621 20.5075 61.197 20.5199C61.2186 20.5273 61.2382 20.5409 61.2532 20.5591C61.2641 20.5743 61.2702 20.593 61.2705 20.6123L61.2771 21.2014L61.8171 21.1945C61.8341 21.1939 61.8514 21.1988 61.8658 21.2087C61.8816 21.2209 61.894 21.2377 61.9012 21.2571C61.9125 21.2868 61.92 21.3181 61.9231 21.35C61.9286 21.3981 61.9315 21.4465 61.9318 21.495C61.9367 21.5736 61.928 21.6525 61.9064 21.7278C61.8886 21.7745 61.8618 21.798 61.8266 21.7984L61.2837 21.8054L61.2978 23.0459C61.2924 23.1583 61.3157 23.2701 61.3656 23.3693C61.3915 23.4069 61.4266 23.4364 61.467 23.4549C61.5073 23.4733 61.5514 23.4801 61.5949 23.4745C61.6286 23.4744 61.6621 23.4705 61.6952 23.4628C61.722 23.4564 61.7482 23.4481 61.7742 23.4381C61.7972 23.4289 61.8165 23.4209 61.8324 23.4137C61.8459 23.4071 61.8603 23.4034 61.8753 23.4028C61.8868 23.4028 61.8978 23.4062 61.9076 23.4127C61.92 23.423 61.9283 23.4376 61.9315 23.4539C61.9387 23.4816 61.9442 23.5097 61.9479 23.5381C61.9534 23.5831 61.9563 23.6285 61.9563 23.674Z" fill="#707D9B"/>
<path d="M63.8435 20.2617C63.8444 20.3076 63.843 20.3536 63.8395 20.3994C63.8375 20.4268 63.8323 20.4537 63.8237 20.4796C63.8188 20.4947 63.8104 20.5081 63.7989 20.5184C63.7899 20.5253 63.7793 20.5291 63.7683 20.5291C63.7536 20.5289 63.7389 20.5256 63.7251 20.5193C63.7093 20.5126 63.6897 20.5054 63.6663 20.4979C63.6392 20.4893 63.6119 20.4822 63.5842 20.4767C63.5473 20.4698 63.5099 20.4668 63.4727 20.4678C63.4283 20.4672 63.3842 20.4764 63.3433 20.4946C63.307 20.5122 63.2762 20.5403 63.254 20.5757C63.2278 20.6191 63.2105 20.6677 63.2027 20.7185C63.1912 20.7895 63.1866 20.8614 63.1883 20.9334L63.1912 21.1762L63.6447 21.1703C63.6611 21.17 63.6773 21.175 63.6908 21.1846C63.7067 21.1968 63.7191 21.2136 63.7263 21.233C63.7375 21.2628 63.7447 21.294 63.7482 21.3259C63.7536 21.374 63.7565 21.4225 63.7568 21.4709C63.7617 21.5495 63.7531 21.6284 63.7315 21.7037C63.7136 21.7503 63.6868 21.7739 63.6516 21.7743L63.1978 21.7801L63.222 23.9177C63.2226 23.9365 63.2168 23.955 63.2059 23.9698C63.1912 23.9874 63.1721 24.0005 63.1508 24.0075C63.1157 24.0198 63.0794 24.0277 63.0425 24.0311C62.9961 24.0366 62.9396 24.0398 62.8728 24.0407C62.8059 24.0415 62.7497 24.0398 62.7042 24.0354C62.6673 24.0328 62.631 24.0258 62.5955 24.0146C62.5739 24.0087 62.5543 23.9961 62.5394 23.9783C62.529 23.9634 62.5232 23.9453 62.5235 23.9267L62.4993 21.7891L62.1875 21.7931C62.1524 21.7935 62.1256 21.7707 62.1074 21.7245C62.0852 21.6495 62.0754 21.571 62.0783 21.4924C62.0774 21.444 62.0792 21.3955 62.0838 21.3473C62.0864 21.3154 62.0924 21.2841 62.1022 21.2538C62.108 21.2342 62.1195 21.217 62.1351 21.2045C62.1495 21.1943 62.1662 21.1889 62.1835 21.1891L62.4927 21.1851L62.4901 20.9631C62.486 20.8041 62.501 20.6452 62.5347 20.4902C62.5613 20.3662 62.6137 20.2501 62.6883 20.1506C62.7604 20.0586 62.8534 19.9876 62.9586 19.9443C63.0834 19.8947 63.2157 19.8699 63.3488 19.8713C63.4179 19.8701 63.4871 19.8756 63.5551 19.8879C63.6073 19.8965 63.6585 19.9097 63.7087 19.9273C63.7358 19.9361 63.7614 19.9498 63.7842 19.9678C63.7992 19.9834 63.8104 20.0026 63.817 20.0237C63.8268 20.0543 63.8332 20.086 63.8361 20.1182C63.8404 20.1566 63.8427 20.2044 63.8435 20.2617Z" fill="#707D9B"/>
<path d="M66.4816 23.8853C66.4822 23.8977 66.4802 23.9101 66.4756 23.9215C66.4707 23.9329 66.4635 23.9429 66.4545 23.9508C66.4286 23.97 66.3986 23.9821 66.3672 23.986C66.3087 23.9948 66.2497 23.9991 66.1906 23.9986C66.1298 24.0008 66.0687 23.9981 66.0082 23.9906C65.9788 23.9879 65.9506 23.9765 65.9269 23.9576C65.9189 23.9492 65.9125 23.9391 65.9082 23.9279C65.9042 23.9168 65.9021 23.9047 65.9027 23.8927L65.9004 23.6825C65.8027 23.7977 65.6852 23.8918 65.5541 23.9594C65.4183 24.0276 65.2699 24.0629 65.1195 24.0627C64.9968 24.0656 64.874 24.0487 64.7559 24.0126C64.6504 23.9806 64.5524 23.9264 64.4671 23.8534C64.3853 23.7817 64.3199 23.6908 64.2764 23.5879C64.2283 23.4705 64.2041 23.3436 64.2052 23.2157C64.2006 23.0766 64.2283 22.9384 64.2856 22.8134C64.3435 22.6963 64.43 22.5981 64.5357 22.5289C64.6642 22.4464 64.8054 22.389 64.9527 22.3593C65.1443 22.3189 65.3388 22.2985 65.5339 22.2984L65.7759 22.2953L65.7742 22.1355C65.7745 22.0621 65.7656 21.9891 65.748 21.9182C65.7339 21.8605 65.7065 21.8075 65.6685 21.7637C65.6281 21.7206 65.578 21.6896 65.5226 21.6739C65.4495 21.6534 65.374 21.6444 65.2982 21.6472C65.1924 21.647 65.0872 21.6623 64.9855 21.6927C64.9025 21.718 64.8216 21.7497 64.7429 21.7875C64.6729 21.822 64.6144 21.8533 64.5674 21.8815C64.5328 21.9054 64.4934 21.9201 64.4524 21.9245C64.4326 21.9249 64.4133 21.9178 64.3977 21.9044C64.3804 21.8886 64.3666 21.8684 64.3582 21.8457C64.3464 21.8154 64.338 21.7837 64.3334 21.7512C64.3271 21.7102 64.3239 21.6686 64.3236 21.627C64.3216 21.5782 64.3259 21.5294 64.336 21.4818C64.3453 21.4454 64.3631 21.412 64.3876 21.385C64.4277 21.3454 64.4735 21.3129 64.523 21.2885C64.5962 21.2493 64.6723 21.2162 64.7501 21.1894C64.8432 21.1571 64.9383 21.1316 65.0345 21.1133C65.1397 21.0929 65.2463 21.0822 65.3529 21.081C65.5212 21.0755 65.6895 21.0938 65.8532 21.1353C65.9794 21.1672 66.0966 21.2295 66.1963 21.3174C66.2886 21.4037 66.3571 21.5149 66.3949 21.6392C66.4401 21.7911 66.4626 21.9497 66.4614 22.1091L66.4816 23.8853ZM65.7814 22.7632L65.514 22.7666C65.4169 22.7663 65.3201 22.7765 65.225 22.797C65.1558 22.8111 65.0901 22.8391 65.0311 22.8794C64.9844 22.9117 64.9469 22.9566 64.9224 23.0096C64.8991 23.064 64.8878 23.1234 64.8896 23.1832C64.8878 23.2317 64.8959 23.28 64.9135 23.3248C64.9311 23.3696 64.9576 23.4098 64.9913 23.4425C65.0691 23.5087 65.1674 23.5413 65.2668 23.5337C65.3624 23.5333 65.4561 23.5044 65.5371 23.4503C65.631 23.3849 65.7148 23.305 65.7863 23.2132L65.7814 22.7632Z" fill="#707D9B"/>
<path d="M67.8209 20.3232C67.8272 20.3784 67.8232 20.4345 67.8091 20.488C67.7949 20.5416 67.7707 20.5916 67.7382 20.6351C67.6405 20.6923 67.5313 20.7231 67.42 20.7251C67.3088 20.727 67.1987 20.7 67.0993 20.6463C67.0673 20.6051 67.0434 20.5575 67.0287 20.5064C67.014 20.4553 67.0089 20.4015 67.0138 20.3483C67.0011 20.2365 67.0305 20.1239 67.0953 20.0349C67.1924 19.9768 67.3019 19.9454 67.4134 19.9435C67.5247 19.9415 67.635 19.9691 67.7339 20.0237C67.7664 20.0651 67.7906 20.1128 67.8056 20.1642C67.8206 20.2156 67.8258 20.2697 67.8209 20.3232ZM67.8079 23.8589C67.8085 23.8777 67.8027 23.8961 67.7918 23.9109C67.7765 23.9288 67.7569 23.9419 67.7353 23.9487C67.7004 23.9607 67.6647 23.9686 67.6284 23.9722C67.5154 23.9835 67.4019 23.985 67.2887 23.9766C67.2523 23.9739 67.2163 23.9669 67.1812 23.9558C67.1593 23.9495 67.1394 23.937 67.1238 23.9195C67.1126 23.9049 67.1062 23.8867 67.1065 23.8679L67.0766 21.2329C67.076 21.2141 67.0818 21.1956 67.0927 21.1808C67.108 21.1627 67.1276 21.1492 67.1495 21.1416C67.1841 21.1285 67.2198 21.1195 67.2564 21.1151C67.369 21.1018 67.4829 21.1003 67.5958 21.1107C67.6324 21.1143 67.6684 21.1222 67.7033 21.1345C67.7252 21.1415 67.7451 21.1546 67.7609 21.1722C67.7722 21.1868 67.7782 21.2051 67.7782 21.2239L67.8079 23.8589Z" fill="#707D9B"/>
<path d="M69.9997 21.4354C70.0005 21.5066 69.9994 21.5648 69.9962 21.6102C69.9942 21.6463 69.989 21.6821 69.9804 21.717C69.9763 21.7376 69.9663 21.7563 69.9518 21.7707C69.9386 21.7811 69.9224 21.7866 69.906 21.7861C69.889 21.7859 69.872 21.7826 69.8559 21.7764C69.8372 21.7697 69.8161 21.7626 69.7931 21.755C69.7697 21.7474 69.7441 21.7403 69.7161 21.7337C69.6859 21.727 69.655 21.7239 69.6242 21.7245C69.5842 21.7253 69.5444 21.7344 69.5078 21.7512C69.4643 21.7716 69.4236 21.7985 69.3873 21.8312C69.3398 21.8743 69.2966 21.9224 69.2582 21.975C69.2064 22.0456 69.1583 22.1194 69.1147 22.196L69.1332 23.8421C69.1338 23.861 69.128 23.8794 69.117 23.8942C69.1018 23.9121 69.0822 23.9251 69.0603 23.9319C69.0257 23.944 68.9897 23.9519 68.9534 23.9555C68.8404 23.9668 68.7269 23.9682 68.6139 23.9598C68.5773 23.9571 68.5413 23.9502 68.5064 23.939C68.4845 23.9328 68.4647 23.9202 68.4488 23.9027C68.4376 23.8882 68.4315 23.8699 68.4315 23.8511L68.4018 21.2102C68.4013 21.1919 68.4059 21.1737 68.4151 21.1583C68.4275 21.1406 68.4451 21.1275 68.4647 21.1206C68.4946 21.1088 68.526 21.101 68.5577 21.0972C68.6053 21.0911 68.6531 21.0881 68.7009 21.088C68.7502 21.0868 68.7995 21.0886 68.8485 21.0935C68.8796 21.096 68.9102 21.1031 68.9393 21.1145C68.9577 21.1217 68.9738 21.1343 68.9857 21.1509C68.9952 21.1662 69.0003 21.1842 69.0001 21.2025L69.0038 21.5313C69.0583 21.4444 69.1188 21.362 69.1848 21.2846C69.2338 21.2272 69.2882 21.1754 69.3473 21.1301C69.3943 21.0942 69.4467 21.067 69.5023 21.0496C69.5527 21.0343 69.6052 21.0262 69.6579 21.0254C69.6818 21.0251 69.7081 21.0262 69.7357 21.0289C69.7648 21.0317 69.7936 21.0363 69.8222 21.0426C69.8487 21.0482 69.8749 21.0558 69.9005 21.0653C69.9181 21.0713 69.9348 21.0806 69.9495 21.0928C69.959 21.1017 69.9668 21.1127 69.972 21.1251C69.9781 21.1408 69.9824 21.1572 69.9853 21.1738C69.9902 21.2046 69.9933 21.2357 69.9948 21.2669C69.9971 21.3082 69.9988 21.3644 69.9997 21.4354Z" fill="#707D9B"/>
<path d="M51.1086 25.0015C51.0148 25.0015 50.9265 24.9937 50.8434 24.9783C50.7603 24.9639 50.689 24.9446 50.6293 24.9203L50.8019 24.3324C50.8785 24.3589 50.9478 24.3744 51.0095 24.3788C51.0724 24.3832 51.1261 24.3727 51.1709 24.3473C51.2167 24.323 51.2518 24.2794 51.2763 24.2165L51.3066 24.1403L50.4344 21.5039H51.2523L51.7044 23.3189H51.73L52.1884 21.5039H53.0111L52.0862 24.291C52.0415 24.4301 51.9781 24.5527 51.8961 24.6587C51.8152 24.7657 51.7103 24.8496 51.5814 24.9104C51.4536 24.9711 51.296 25.0015 51.1086 25.0015Z" fill="#707D9B"/>
</svg>
