<svg width="64" height="28" viewBox="0 0 64 28" fill="none" xmlns="http://www.w3.org/2000/svg">
<path d="M59.6195 14.3677C59.9446 14.5203 60.2307 14.6182 60.4756 14.779C60.7718 14.9733 60.7804 15.2762 60.5937 15.5758C60.2776 16.0836 59.9386 16.5594 59.4185 16.8875C59.2869 16.9704 59.2138 17.1455 59.0709 17.3341C59.9765 17.5741 60.7178 17.9719 61.0151 18.8163C61.2742 18.7713 61.5138 18.7241 61.7553 18.6892C62.2465 18.6183 62.5626 18.9989 62.9556 19.1755C63.3309 19.3443 63.6009 19.639 63.7442 20.0428C63.8518 20.3454 63.6984 20.6038 63.4007 20.7455C62.8067 21.0279 62.3646 20.78 61.9383 20.4066C61.7399 20.2326 61.5558 20.0391 61.3425 19.8861C61.1044 19.7159 61.0095 19.7717 60.9694 20.0541C60.9281 20.3451 61.0373 20.669 60.7553 20.9131C60.7163 20.9469 60.8112 21.1359 60.7639 21.2311C60.705 21.3436 60.6364 21.4523 60.5907 21.5697C60.5607 21.6466 60.5644 21.737 60.5505 21.8206C60.4193 22.6189 60.3342 22.728 59.558 22.8562C59.1789 22.9188 58.7867 23.0066 58.4061 22.7962C58.213 22.6897 58.0266 22.6196 58.0285 22.3478C58.0289 22.2773 57.9295 22.1937 57.859 22.137C57.6865 21.9979 57.5043 21.8708 57.3089 21.7261C57.2591 21.8022 57.216 21.8678 57.1725 21.9334C57.1631 21.9034 57.1537 21.8731 57.1443 21.8431C56.9347 21.8956 56.7277 21.9642 56.5155 21.9968C56.0014 22.0763 55.4682 22.2615 54.9778 21.9934C54.8173 21.9057 54.7198 21.6132 54.6954 21.4025C54.6834 21.2979 54.9013 21.1647 55.0198 21.0493C55.0644 21.0058 55.1506 20.9874 55.1698 20.9386C55.3205 20.5547 55.6981 20.5625 55.9958 20.5018C56.631 20.3721 57.2838 20.3297 57.9209 20.2078C58.1594 20.1621 58.3949 20.0218 58.5958 19.8752C58.8486 19.6907 58.8568 19.279 58.6528 19.0451C58.5448 18.9213 58.1095 18.9363 57.9168 19.1062C57.6494 19.3428 57.3393 19.3979 57.0041 19.3979C56.6381 19.3975 56.4195 19.0608 56.4806 18.7188C56.5834 18.1433 57.0277 17.8017 57.3273 17.3626C57.5114 17.093 57.7514 16.8616 57.961 16.6085C58.0098 16.5496 58.0371 16.4728 58.069 16.4143C57.7735 16.391 57.4946 16.4135 57.2441 16.3389C56.8931 16.2347 56.787 15.9654 56.9467 15.6355C57.117 15.2837 57.3944 15.0546 57.7747 14.8979C58.2467 14.7033 58.6843 14.4221 59.1294 14.1652C60.0106 13.6568 60.8876 13.1412 61.7639 12.6245C61.8839 12.5536 61.9893 12.4584 62.1014 12.3747C62.0883 12.3361 62.0748 12.2971 62.0617 12.2585C61.8026 12.2998 61.5375 12.3185 61.2859 12.3867C60.6855 12.5499 60.2659 13.0114 59.762 13.335C59.4864 13.512 59.1602 13.626 58.8418 13.7164C58.5838 13.7899 58.4102 13.6151 58.3562 13.3009C58.3379 13.1929 58.33 13.0834 58.3172 12.9747C58.288 12.9687 58.2587 12.9627 58.2295 12.9567C58.1946 13.0411 58.1448 13.1224 58.1275 13.2106C57.9771 13.9792 57.4769 14.4337 56.7847 14.7175C56.7364 14.7374 56.6783 14.758 56.6303 14.7487C56.1615 14.6594 55.8001 14.8402 55.4634 15.1536C55.3677 15.2425 55.1731 15.2508 55.0239 15.2504C54.8222 15.25 54.7828 15.1004 54.8319 14.9343C54.9452 14.5514 55.115 14.1783 55.1765 13.788C55.2654 13.2218 55.6141 12.8067 55.9268 12.3822C56.1518 12.0766 56.4926 11.8532 56.7937 11.6072C57.613 10.9371 57.8935 10.1707 57.5403 9.19764C57.4514 8.95241 57.3123 8.81067 57.0375 8.73418C56.358 8.5452 56.2362 8.58832 56.6573 7.877C57.0513 7.21181 57.4346 6.53987 57.8092 5.86343C57.8819 5.73181 57.8905 5.56458 57.9314 5.41459C57.9749 5.25485 57.994 5.08124 58.0713 4.9395C58.2527 4.60691 58.4162 4.55329 58.7837 4.68003C59.1054 4.79102 59.4298 4.90688 59.57 5.26535C59.7702 5.77718 59.5081 6.451 58.9907 6.7446C58.8617 6.81772 58.7323 6.89871 58.5928 6.94408C58.0623 7.11582 57.9198 7.55116 57.8542 8.02924C57.8407 8.12673 57.892 8.27072 57.9648 8.33634C58.3304 8.66594 58.4309 9.1099 58.5216 9.55761C58.5951 9.9202 58.6671 9.95395 58.9611 9.70647C59.564 9.19877 60.1883 8.72518 60.9248 8.42296C61.1104 8.34684 61.2967 8.25872 61.4913 8.2216C61.614 8.19835 61.7613 8.2381 61.8824 8.28722C62.0808 8.36709 62.2765 8.4627 62.4539 8.58082C62.5413 8.63894 62.6421 8.76418 62.6395 8.85642C62.6249 9.37725 62.5682 9.88833 62.281 10.3529C62.1157 10.6203 62.0137 10.9266 61.8779 11.2127C61.7321 11.5206 61.8326 11.6597 62.182 11.6586C62.6567 11.6571 63.1315 11.6713 63.6062 11.6826C63.8278 11.6878 63.9598 11.7954 63.9901 12.0257C64.0186 12.2439 63.9969 12.4475 63.7689 12.533C63.2368 12.7325 62.6875 12.8881 62.1637 13.1056C61.3549 13.4408 60.5599 13.8094 59.7642 14.175C59.6877 14.2098 59.6491 14.3261 59.6195 14.3677ZM58.1957 11.8314C58.2782 11.8164 58.3499 11.8243 58.3907 11.7928C58.7687 11.4999 59.1977 11.41 59.6675 11.4212C59.9765 11.4287 60.2524 11.32 60.4122 11.0249C60.6567 10.5741 60.9038 10.1246 61.1359 9.66748C61.1745 9.59136 61.1415 9.47849 61.1415 9.372C60.8385 9.38513 60.5284 9.79384 60.3563 9.22951C59.7425 9.59698 59.1163 9.91308 58.621 10.4137C58.6382 10.4433 58.6551 10.4733 58.6723 10.5029C58.7582 10.4879 58.8441 10.4729 58.9742 10.4504C58.609 10.8801 58.2546 11.257 58.1957 11.8314ZM56.5031 12.7595C56.4784 12.7478 56.4536 12.7362 56.4293 12.7246C56.2872 12.8506 56.1582 13.0602 56.0003 13.0849C55.7112 13.1299 55.61 13.3215 55.5072 13.5251C55.4791 13.5814 55.5507 13.6879 55.5766 13.7711C55.652 13.7381 55.7412 13.7205 55.7982 13.6676C55.8533 13.6166 55.8747 13.5296 55.9354 13.41C55.9354 13.5675 55.9317 13.6624 55.9366 13.7565C55.9414 13.8525 55.9553 13.9485 55.9654 14.0467C56.1207 13.9054 56.2519 13.7985 56.3682 13.6774C56.5226 13.5161 56.5001 13.3752 56.3063 13.2972C56.3749 13.1082 56.439 12.9338 56.5031 12.7595ZM58.8771 21.0459C58.7987 20.9308 58.6746 20.7133 58.6528 20.723C58.4552 20.8123 58.2696 20.933 58.0956 21.0646C58.0626 21.0898 58.0671 21.2416 58.1031 21.2679C58.2745 21.3931 58.4627 21.4955 58.645 21.6061C58.7136 21.4403 58.7826 21.2742 58.8771 21.0459Z" fill="white"/>
<path d="M34.9297 13.1707C34.9799 13.2648 35.0707 13.3605 35.0786 13.4621C35.1123 13.9012 35.2135 14.0279 35.6301 14.1696C35.7077 14.1959 35.7801 14.3309 35.797 14.4261C35.8454 14.7025 35.8926 14.9848 35.8821 15.2627C35.8769 15.4018 35.7554 15.5424 35.6699 15.671C35.4798 15.9571 35.2795 16.2365 35.0834 16.5184C35.1033 16.5541 35.1232 16.5897 35.143 16.6257C35.2975 16.5803 35.4685 16.5627 35.6035 16.4836C35.8937 16.3141 36.169 16.1176 36.4446 15.9237C36.7558 15.7048 36.7224 15.0924 36.3906 14.8746C36.2511 14.7831 36.1067 14.6991 35.8885 14.5652C36.2233 14.4032 36.5158 14.3039 36.7607 14.1351C37.3614 13.7216 37.9444 13.933 38.5331 14.1355C38.6291 14.1685 38.718 14.2356 38.7979 14.3016C39.0052 14.4726 39.2032 14.4415 39.4076 14.2979C39.9513 13.9158 40.4747 13.4966 41.0514 13.1733C41.3308 13.017 41.7125 13.0425 42.0837 12.9799C42.0552 13.3095 42.083 13.5416 41.7106 13.6046C41.5085 13.6387 41.2865 13.7538 41.1823 14.0429C41.1189 14.2195 40.8212 14.3493 40.6026 14.4265C39.9419 14.6597 39.5377 15.1581 39.177 15.7126C38.9711 16.0295 39.0828 16.3632 39.1923 16.6613C39.2688 16.8702 39.4961 16.791 39.6625 16.7055C40.0746 16.4944 40.5077 16.5878 40.9187 16.6669C41.0473 16.6917 41.195 16.9553 41.219 17.1259C41.3555 18.0903 40.7807 18.7443 40.1744 19.3719C39.859 19.6985 39.5077 19.9966 39.3757 20.4549C39.3412 20.5741 39.3071 20.7095 39.3296 20.8264C39.4023 21.2018 39.3033 21.4924 38.9767 21.6997C38.9508 21.7162 38.9291 21.7429 38.9137 21.7695C38.9047 21.7849 38.9122 21.8096 38.9122 21.8655C39.7975 21.7976 40.6813 21.7031 41.5674 21.669C42.4482 21.6349 43.3312 21.6615 44.1948 21.6615C44.1865 21.8306 44.185 21.9795 44.1689 22.1265C44.1625 22.1857 44.1374 22.2753 44.0962 22.2926C43.8224 22.4081 43.5423 22.594 43.2637 22.5955C42.5374 22.5993 41.8089 22.4632 41.0848 22.4891C40.2741 22.5179 39.4612 22.6255 38.661 22.7669C37.4337 22.9836 36.2196 23.2761 34.9934 23.5015C34.2577 23.6368 33.5119 23.7388 32.7661 23.7917C32.3964 23.8179 32.0057 23.7355 31.6461 23.629C31.5096 23.5885 31.4009 23.3522 31.3469 23.1839C31.324 23.1126 31.4552 22.9593 31.5501 22.8884C32.2067 22.3979 32.9679 22.2281 33.7692 22.1396C34.2787 22.0833 34.7745 21.9105 35.2822 21.8231C35.905 21.7162 36.4836 21.5111 36.9984 21.1455C37.0783 21.0889 37.1754 20.9416 37.1518 20.8808C37.1161 20.7897 36.9841 20.7312 36.8855 20.6716C36.7449 20.5865 36.596 20.5145 36.4524 20.4335C36.1468 20.2606 35.8311 20.1028 35.5409 19.9074C35.1832 19.6667 35.1843 19.0379 35.5206 18.7626C35.9129 18.4417 36.3024 18.1181 36.6947 17.7971C36.965 17.5759 36.9973 17.1195 36.7265 16.908C36.659 16.8555 36.4659 16.89 36.3763 16.9515C35.8191 17.3344 35.2732 17.7341 34.7272 18.1327C34.3537 18.4057 33.9371 18.4113 33.5131 18.3262C33.2675 18.2767 33.0162 18.2129 32.795 18.1012C32.693 18.0498 32.5903 17.8612 32.6019 17.7465C32.6551 17.2238 32.6739 16.6793 32.846 16.1918C33.0788 15.5312 33.4377 14.9143 33.7485 14.2818C33.8224 14.1314 33.8967 13.9668 34.0148 13.8554C34.1599 13.7186 34.356 13.6368 34.521 13.5187C34.6455 13.4298 34.755 13.3215 34.9297 13.1707ZM33.9889 22.6765C34.2971 22.657 34.5997 22.6559 34.8967 22.6143C35.2833 22.5599 35.6631 22.4606 36.0493 22.4036C36.4978 22.3376 36.9515 22.3072 37.4004 22.2412C37.6715 22.2015 37.9418 22.1381 38.2028 22.0545C38.2894 22.0267 38.3456 21.9045 38.4158 21.8254C38.3329 21.7661 38.2504 21.6566 38.1672 21.6563C37.8597 21.6544 37.7052 21.4995 37.6351 21.2217C37.6257 21.1845 37.592 21.1538 37.5556 21.0991C37.1645 21.2925 36.7382 21.3964 36.4806 21.7916C36.4232 21.8797 36.2987 21.9435 36.1922 21.9769C35.7411 22.1186 35.2848 22.2446 34.8974 22.3571C34.7741 22.2558 34.7017 22.1475 34.6391 22.1527C34.146 22.1936 34.0264 22.2873 33.9889 22.6765ZM39.8013 18.0858C39.646 18.0543 39.5182 17.9883 39.4702 18.0254C39.3149 18.1454 39.1578 18.2864 39.0648 18.4544C39.0213 18.5328 39.1057 18.7034 39.1706 18.808C39.1935 18.8451 39.3817 18.844 39.4083 18.8035C39.5392 18.6055 39.6404 18.3884 39.8013 18.0858Z" fill="white"/>
<path d="M19.3625 11.8264C19.3157 11.5695 19.2984 11.3018 19.2133 11.0581C19.1244 10.8039 19.1601 10.616 19.3352 10.4195C19.6318 10.0873 19.9126 9.7412 20.1968 9.39811C20.2602 9.32162 20.309 9.23275 20.4132 9.07676C20.24 9.09138 20.1477 9.08201 20.0675 9.10863C19.5556 9.27812 19.0397 9.43786 18.5395 9.63734C18.2856 9.73858 18.106 9.68796 17.8945 9.54397C17.3092 9.145 16.7329 8.72317 16.1093 8.39282C15.5184 8.07972 15.4096 8.01785 15.4872 8.77191C15.5221 9.11126 15.425 9.31712 15.1123 9.4836C14.7021 9.70146 14.3331 9.99543 13.9308 10.2305C13.8299 10.2894 13.6488 10.2935 13.5415 10.2437C13.062 10.0194 12.5887 9.77908 12.1305 9.51472C12.0203 9.45098 11.9408 9.28149 11.9093 9.14613C11.8643 8.95227 11.9022 8.73929 11.8579 8.54543C11.7927 8.26196 11.9303 8.15846 12.168 8.10447C12.9093 7.93648 13.663 7.82962 14.4096 7.99273C14.8168 8.0816 15.1322 7.90911 15.4846 7.81537C16.8788 7.44528 18.3078 7.35003 19.7405 7.29379C20.2703 7.27316 20.8013 7.26342 21.3315 7.26304C21.5756 7.26304 21.6753 7.11605 21.7271 6.92182C21.9686 6.01027 22.0698 5.08448 21.9536 4.14518C21.882 3.56736 21.783 2.9929 21.6828 2.32846C21.8036 2.46795 21.8895 2.54782 21.9521 2.64268C22.5869 3.60373 22.987 4.65401 23.1328 5.79842C23.1718 6.10289 23.1835 6.41449 23.26 6.70921C23.2915 6.82995 23.4482 6.93869 23.5723 7.01069C24.1584 7.35003 24.7763 7.63988 25.3384 8.0141C26.0677 8.49931 26.6684 9.13226 27.1593 9.86307C27.193 9.91331 27.2162 9.97106 27.2931 10.1192C27.1334 10.0472 27.0528 10.0224 26.9845 9.97856C26.0628 9.38386 25.0962 8.88665 24.029 8.6058C23.9574 8.58705 23.8862 8.56081 23.813 8.55368C23.4579 8.51956 23.032 8.3587 22.7676 8.49931C22.5246 8.6283 22.4545 9.08389 22.3094 9.39586C21.8891 10.2988 21.498 11.2167 21.0401 12.0998C20.7053 12.7458 20.2835 13.3469 19.9002 13.9678C19.8616 14.0301 19.8219 14.0916 19.7825 14.1535C19.7563 14.1411 19.7304 14.1291 19.7041 14.1167C19.6546 13.7192 19.6051 13.3221 19.5496 12.8778C18.8878 13.2243 18.4829 12.7237 18.0423 12.4983C17.1487 12.0409 17.2856 12.3356 17.2387 11.2786C17.2245 10.9602 17.2117 10.6419 17.2008 10.3232C17.1918 10.0524 17.4937 9.69771 17.7566 9.70146C17.842 9.70258 17.9545 9.78658 18.0059 9.86457C18.3764 10.4285 18.7352 11 19.0956 11.5707C19.1544 11.6637 19.2032 11.7634 19.2564 11.8598C19.292 11.8485 19.3273 11.8377 19.3625 11.8264Z" fill="white"/>
<path d="M35.5842 12.5409C35.4642 12.6909 35.3724 12.8057 35.2805 12.9208C35.489 12.5259 35.2033 12.4191 34.9415 12.2372C34.1605 11.6943 33.7296 10.9312 33.6498 9.9754C33.6164 9.57606 33.5347 9.17822 33.5354 8.78C33.5358 8.4594 33.5984 8.13093 33.6865 7.82083C33.7604 7.56098 33.712 7.27188 33.9869 7.0499C34.3468 6.7593 34.6142 6.69668 35.0008 6.97303C35.138 7.07127 35.2756 7.17364 35.4267 7.24526C35.4991 7.27938 35.6292 7.27825 35.6862 7.23326C35.7451 7.18676 35.7916 7.05177 35.7668 6.98353C35.5704 6.4417 35.9959 6.1511 36.2355 5.78776C36.2858 5.71164 36.3945 5.67376 36.4437 5.59727C36.7376 5.13943 37.1752 5.00445 37.6912 4.96657C38.095 4.93695 38.4906 4.79559 38.8944 4.76372C39.1446 4.74384 39.4149 4.80234 39.656 4.88483C40.2192 5.07757 40.4959 5.54328 40.4539 6.14697C40.4449 6.27409 40.4333 6.40345 40.4468 6.52907C40.5451 7.43386 40.1768 8.25054 39.9815 9.1021C39.8356 9.73879 39.7591 10.3912 39.6493 11.0362C39.584 11.4194 39.5041 11.8004 39.4502 12.1851C39.4288 12.3369 39.4457 12.4989 39.4708 12.6519C39.5131 12.9114 39.4378 13.1146 39.1761 13.1656C38.8896 13.2219 38.605 13.4195 38.2937 13.2129C38.2259 13.1679 38.107 13.1952 38.0118 13.1967C37.5232 13.2039 37.2502 12.9905 37.1572 12.5034C37.1156 12.2856 37.1059 12.0617 37.0759 11.8412C37.0459 11.6189 36.9334 11.4606 36.693 11.5518C36.3225 11.6924 35.9498 11.842 35.6105 12.043C35.456 12.1337 35.3304 12.3527 35.5842 12.5409ZM37.6143 7.63485C37.5959 7.52123 37.5884 7.40499 37.5581 7.29513C37.4396 6.86504 37.1355 6.7818 36.8059 7.07427C36.6495 7.21301 36.4609 7.3165 36.312 7.46161C36.2434 7.52873 36.1842 7.67384 36.2104 7.75446C36.2506 7.8782 36.3402 7.94832 36.5303 7.88158C36.8659 7.76346 37.2273 7.71809 37.6143 7.63485ZM36.411 10.1726C36.4707 10.1876 36.5303 10.2026 36.5895 10.2176C36.6281 10.0965 36.6671 9.9754 36.7058 9.85428C36.6285 9.85166 36.498 9.82316 36.4842 9.85128C36.4377 9.94765 36.432 10.0639 36.411 10.1726ZM37.3672 9.98327C37.206 9.91465 37.1224 9.84678 37.077 9.86666C36.9926 9.9034 36.9311 9.99152 36.8599 10.0583C36.9169 10.0939 36.9806 10.1663 37.0297 10.1573C37.1167 10.1415 37.1951 10.0766 37.3672 9.98327Z" fill="white"/>
<path d="M17.1394 27.7029C17.4439 27.148 17.7701 26.6035 18.0472 26.0351C18.4286 25.2525 18.7154 24.4381 18.7848 23.5558C18.8088 23.2517 18.688 23.1302 18.4312 23.0155C17.2032 22.4672 15.9748 21.9183 14.7666 21.3288C14.2555 21.0795 13.7891 20.7356 13.311 20.4222C13.155 20.3198 13.0256 20.1769 12.819 19.9955C12.9863 19.9763 13.0718 19.9561 13.1569 19.958C14.2522 19.9808 15.3384 19.9265 16.4056 19.643C16.5057 19.6164 16.6632 19.7116 16.7626 19.79C17.1199 20.0723 17.463 20.3727 17.8129 20.6644C17.8976 20.7353 17.9891 20.7983 18.0772 20.865C18.1042 20.8515 18.1316 20.8376 18.1586 20.8241C18.1376 20.709 18.1297 20.5898 18.0933 20.4799C17.9475 20.039 17.7986 19.5991 17.6389 19.163C17.5316 18.8702 17.4116 18.5848 17.7446 18.3152C17.7135 18.2987 17.6827 18.2822 17.6516 18.2657C17.5631 18.3227 17.475 18.3801 17.3861 18.4367C16.9849 18.6921 16.5938 18.9654 16.1791 19.1972C15.7457 19.4394 15.3403 19.199 15.3148 18.7041C15.2904 18.2271 15.2852 17.749 15.2601 17.2721C15.2488 17.0613 15.3047 16.917 15.4997 16.8019C15.8923 16.5705 16.2789 16.3264 16.6471 16.0587C16.8784 15.8903 17.0704 15.8881 17.3138 16.0249C17.7289 16.2585 18.1642 16.4558 18.5827 16.6837C18.7971 16.8004 18.9224 16.7325 19.0128 16.5364C19.1099 16.326 19.201 16.1127 19.3813 15.8843C19.4552 16.167 19.5677 16.4464 19.5962 16.7336C19.7196 17.9778 19.8238 19.2241 19.9232 20.4705C19.9584 20.9134 19.9667 21.3592 19.973 21.8039C19.976 22.0169 20.0615 22.1298 20.2648 22.1958C21.1096 22.4691 21.9799 22.4939 22.8491 22.4316C23.4708 22.3874 24.0864 22.2625 24.7055 22.1755C24.743 22.1703 24.7828 22.18 24.8986 22.1886C24.7663 22.2914 24.6913 22.357 24.6092 22.4129C23.5251 23.1493 22.3207 23.5453 21.023 23.6754C20.8962 23.6881 20.7695 23.7028 20.6424 23.7095C20.4421 23.72 20.3259 23.8081 20.2408 24.0042C19.6273 25.4205 18.7754 26.6564 17.4885 27.5518C17.3865 27.6227 17.277 27.6819 17.1709 27.7468C17.1608 27.7314 17.1499 27.7172 17.1394 27.7029Z" fill="white"/>
<path d="M11.5953 19.5416C10.125 19.9687 8.65439 20.0384 7.18151 20.0887C6.7578 20.1029 6.33521 20.1445 5.91149 20.1524C5.69401 20.1565 5.59577 20.2424 5.5279 20.4468C5.25418 21.2706 5.23468 22.1195 5.28792 22.9684C5.32279 23.5271 5.43754 24.0809 5.51515 24.637C5.52903 24.7368 5.53615 24.8373 5.54665 24.9374C5.51478 24.9516 5.48291 24.9659 5.45103 24.9797C5.2418 24.6344 5.0022 24.3033 4.82971 23.9407C4.35613 22.9467 4.06553 21.8998 4.03065 20.7925C4.0239 20.581 3.92229 20.4764 3.73293 20.3954C2.39504 19.8224 1.22477 19.0204 0.331219 17.8524C0.197355 17.6776 0.0822401 17.4883 0.00012207 17.2569C0.0571172 17.2854 0.117862 17.3083 0.170733 17.3428C1.28064 18.0691 2.45466 18.6469 3.7708 18.8933C3.87467 18.9128 3.98228 18.9131 4.08652 18.9315C4.43525 18.9926 4.57923 18.8576 4.72547 18.5119C5.22455 17.3326 5.75701 16.1635 6.35358 15.0311C6.72593 14.3247 7.25051 13.6996 7.67722 13.0194C7.80658 12.8128 7.82758 12.5406 7.91495 12.3047C8.06906 11.8892 8.22655 11.4745 8.40541 11.0692C8.43878 10.9931 8.60039 10.9027 8.66114 10.9259C8.75825 10.9634 8.87937 11.0857 8.88799 11.1813C8.93974 11.7625 8.97048 12.3459 8.98661 12.9294C8.98923 13.0205 8.90149 13.1443 8.81975 13.2024C8.5179 13.418 8.20817 13.625 7.8872 13.8106C7.67197 13.9351 7.57973 14.1008 7.6221 14.3344C7.71322 14.8335 7.81146 15.3314 7.9157 15.8279C7.96557 16.0656 8.05219 16.297 8.08893 16.5362C8.10393 16.6333 8.05631 16.7646 7.99219 16.8444C7.69447 17.2175 7.37987 17.5764 7.07502 17.9438C6.9989 18.0357 6.93778 18.1403 6.86991 18.2393C6.88716 18.2644 6.90441 18.2892 6.92128 18.3143C7.14964 18.2528 7.38062 18.1996 7.60598 18.1276C7.97944 18.008 8.34954 17.876 8.72038 17.7489C8.94986 17.6701 8.98473 17.5498 8.837 17.3461C8.67614 17.1242 8.53065 16.8876 8.40803 16.6423C8.35629 16.5388 8.32779 16.3247 8.38066 16.2861C8.53777 16.171 8.78713 16.0064 8.91686 16.0608C9.47219 16.2936 10.0031 16.588 10.5274 16.8868C10.6162 16.9374 10.6642 17.1182 10.6725 17.243C10.7036 17.7196 10.7317 18.1985 10.7193 18.6754C10.7103 19.0219 10.8228 19.2375 11.1607 19.3406C11.3125 19.3863 11.4509 19.4733 11.5953 19.5416Z" fill="white"/>
<path d="M1.85522 5.45507C2.28156 5.21246 2.69665 4.94698 3.13649 4.7325C4.07391 4.27467 5.08408 4.07968 6.11524 3.99232C6.34209 3.97319 6.44033 3.87345 6.52583 3.67284C7.13553 2.23859 8.0167 1.01244 9.31672 0.118146C9.40146 0.0600258 9.4922 0.0109046 9.63469 3.05176e-05C9.5432 0.156017 9.45695 0.315004 9.35984 0.467616C8.75351 1.42341 8.28105 2.43732 8.04257 3.54873C7.98708 3.80633 7.9837 4.07556 7.96046 4.33991C7.93833 4.58964 8.15281 4.62264 8.30805 4.69051C9.03511 5.00698 9.78505 5.27658 10.4919 5.6328C11.4357 6.10864 12.3521 6.64034 13.2685 7.1683C13.501 7.30216 13.69 7.51177 13.8988 7.68688C13.8891 7.71875 13.879 7.75025 13.8692 7.78212C13.7728 7.78212 13.6765 7.77799 13.5809 7.78287C12.7027 7.82637 11.8249 7.87174 10.9471 7.91636C10.9366 7.91673 10.9246 7.91598 10.9156 7.92086C10.3685 8.20921 9.96091 7.9831 9.57769 7.58526C9.37259 7.37228 9.12698 7.19867 8.89488 7.01231C8.81913 6.95156 8.72952 6.90732 8.64627 6.85557C8.6204 6.8732 8.59453 6.89082 8.56903 6.90882C8.70177 7.32503 8.80038 7.75662 8.97512 8.15409C9.21772 8.70529 9.20722 9.13913 8.84163 9.68771C8.37255 10.3915 8.09844 11.2255 7.74035 12.0028C7.69798 12.0946 7.65336 12.1854 7.60986 12.2769C7.57086 12.2799 7.53149 12.2829 7.49249 12.2862C7.37363 11.8213 7.19965 11.3627 7.1464 10.8902C6.99041 9.5006 6.87792 8.10609 6.75943 6.71271C6.73618 6.43898 6.75793 6.16113 6.76431 5.88516C6.76881 5.70292 6.70319 5.59305 6.51608 5.53531C5.69452 5.28296 4.85459 5.19634 4.00267 5.27283C3.29998 5.3362 2.60029 5.43482 1.89947 5.51769C1.88447 5.49669 1.86985 5.47569 1.85522 5.45507Z" fill="white"/>
<path d="M51.9499 12.7616C51.963 12.558 51.9971 12.3533 51.9844 12.1512C51.9593 11.753 51.921 11.3544 51.8569 10.9614C51.8449 10.8879 51.6604 10.7672 51.6008 10.7897C51.2131 10.9352 50.831 10.91 50.5104 10.6854C50.3252 10.5557 50.1703 10.306 50.1242 10.0847C50.0972 9.95611 50.2832 9.74276 50.4227 9.62689C50.7687 9.33854 51.1351 9.07231 51.5074 8.81808C52.0669 8.43599 52.6646 8.40974 53.2859 8.66697C53.4502 8.73522 53.6245 8.78284 53.7977 8.82483C54.1648 8.91295 54.3996 9.53352 54.2286 9.91337C53.9207 10.5984 53.7093 11.2936 53.6748 12.0709C53.6538 12.5438 53.7021 13.0811 53.401 13.5427C53.326 13.6578 53.4685 13.9132 53.5071 14.1051C53.5416 14.2772 53.5698 14.4509 53.6024 14.6237C53.6448 14.8494 53.6973 15.0733 53.7269 15.3005C53.7396 15.3984 53.7378 15.5694 53.6883 15.593C53.3474 15.7546 53.0028 15.9271 52.6395 16.0163C52.1846 16.1281 51.8982 15.9312 51.6878 15.491C51.6166 15.3425 51.5041 15.2135 51.4103 15.0759C51.377 15.0729 51.3432 15.0703 51.3098 15.0673C51.2236 15.3069 51.0822 15.5416 51.0612 15.7865C50.9877 16.65 50.9791 17.5192 50.8966 18.382C50.8617 18.748 51.1846 18.928 51.2183 19.2388C51.314 19.2167 51.4542 19.2264 51.4977 19.1665C51.6822 18.9119 51.8378 18.6362 52.0556 18.2845C52.0193 18.622 51.9878 18.874 51.9664 19.1271C51.9405 19.4327 51.9248 19.7387 51.9019 20.0446C51.8715 20.4503 51.7939 20.8174 51.3203 20.9521C51.152 21 51.008 21.1287 50.8479 21.2104C50.5434 21.366 50.3405 21.3278 50.1748 21.033C49.9547 20.6408 49.7863 20.2265 49.9993 19.7664C50.0211 19.7192 50.0417 19.6652 50.0413 19.6145C50.0222 17.6692 49.9911 15.7242 49.9884 13.7789C49.9881 13.4576 50.1084 13.1351 50.1797 12.8149C50.2138 12.6623 50.2764 12.5156 50.3038 12.3623C50.3612 12.0383 50.5936 11.9078 50.8722 11.8332C51.119 11.7672 51.2258 11.9491 51.3477 12.1174C51.5116 12.3439 51.6957 12.5558 51.8712 12.7736C51.897 12.7691 51.9237 12.7654 51.9499 12.7616Z" fill="white"/>
<path d="M15.4472 14.3739C15.5612 14.7024 15.4033 14.8809 15.1289 15.0376C14.7246 15.2682 14.3504 15.5509 13.9451 15.7789C13.8243 15.8468 13.6177 15.8599 13.4929 15.8037C13.0305 15.5959 12.5791 15.3608 12.1392 15.1085C12.0234 15.0421 11.9041 14.8812 11.891 14.7534C11.837 14.216 11.8078 13.675 11.804 13.135C11.8033 13.006 11.9041 12.8317 12.0125 12.7544C12.4088 12.4717 12.8326 12.228 13.2364 11.955C13.4329 11.8219 13.5986 11.7967 13.818 11.9205C14.2601 12.1702 14.7273 12.3764 15.1679 12.6288C15.2702 12.6873 15.355 12.8545 15.367 12.9794C15.412 13.4432 15.4236 13.9101 15.4472 14.3739Z" fill="white"/>
</svg>
