<svg width="94" height="12" viewBox="0 0 94 12" fill="none" xmlns="http://www.w3.org/2000/svg">
<g clip-path="url(#clip0_4788_111631)">
<path d="M82.7677 11.2165C81.4666 11.2165 80.1655 11.2182 78.8645 11.2154C78.4727 11.2252 78.0834 11.1542 77.7244 11.0074C77.3011 10.824 76.9547 10.5147 76.7385 10.1276C76.5222 9.74055 76.4486 9.29743 76.529 8.86712C76.6658 8.06242 77.1203 7.43727 77.7537 6.90982C78.1341 6.57629 78.5651 6.29703 79.0322 6.08103C79.1484 6.03054 79.1351 5.97297 79.052 5.90303C78.8172 5.71889 78.63 5.48726 78.5045 5.2256C78.2261 4.59713 78.33 3.98668 78.6158 3.38956C79.078 2.42509 79.868 1.76156 80.8465 1.26919C81.5989 0.889612 82.4414 0.694944 83.2957 0.703388C85.7576 0.709833 88.2198 0.705386 90.682 0.708319C91.1853 0.691229 91.6836 0.807983 92.1193 1.04509C93.0366 1.57719 93.3746 2.59952 92.9612 3.57951C92.5633 4.5227 91.8489 5.21043 90.9502 5.74741C90.8531 5.80533 90.7549 5.8614 90.656 5.91661C90.5488 5.97644 90.5386 6.04334 90.6242 6.13093C90.7166 6.22301 90.8034 6.3199 90.884 6.42116C91.3289 6.99614 91.333 7.6216 91.1117 8.2682C90.8936 8.86012 90.5179 9.39017 90.0205 9.80832C89.4739 10.3074 88.821 10.6927 88.1045 10.9389C87.5984 11.1189 87.0624 11.2135 86.5211 11.2185C85.27 11.2121 84.019 11.2165 82.7677 11.2165ZM85.8688 3.23926V3.24098C84.8786 3.24098 83.8883 3.23483 82.8981 3.24327C82.6049 3.2494 82.3237 3.35263 82.1043 3.53461C81.8847 3.71661 81.7413 3.96558 81.699 4.23734C81.6801 4.33999 81.7002 4.44564 81.7558 4.53579C81.8114 4.62596 81.8992 4.69491 82.0036 4.7306C82.1068 4.76786 82.2165 4.78601 82.3268 4.78398C84.2974 4.78329 86.268 4.78612 88.2386 4.78028C88.5065 4.77796 88.7657 4.69083 88.974 4.53304C89.1822 4.37524 89.3274 4.15608 89.3858 3.91119C89.4211 3.793 89.4167 3.66757 89.3738 3.55169C89.2894 3.34299 89.1099 3.23991 88.825 3.23963C87.8397 3.23866 86.8541 3.23854 85.8688 3.23926ZM84.3246 7.16875V7.17197C83.339 7.17197 82.3531 7.16869 81.3671 7.17324C81.1017 7.17089 80.8431 7.25299 80.6339 7.40612C80.4248 7.55922 80.2774 7.77427 80.2153 8.01616C80.1115 8.39192 80.333 8.67951 80.7492 8.68041C82.726 8.68455 84.7028 8.68444 86.6796 8.67998C86.9477 8.68646 87.2107 8.60903 87.427 8.45992C87.6429 8.31081 87.7999 8.09851 87.8728 7.85654C87.997 7.48109 87.79 7.19755 87.3723 7.17307C87.2926 7.1684 87.2122 7.16893 87.1322 7.1689C86.1963 7.16864 85.2605 7.16861 84.3246 7.16875Z" fill="white"/>
<path d="M52.6477 11.2179C51.3964 11.2179 50.1451 11.218 48.8937 11.2181C48.4167 11.2353 47.9424 11.1406 47.5142 10.9424C47.1505 10.7466 46.8555 10.456 46.6645 10.1061C46.4739 9.75618 46.3954 9.36189 46.439 8.97101C46.561 8.08789 47.064 7.41527 47.7586 6.84963C48.1105 6.54939 48.5047 6.29602 48.9305 6.09665C49.0674 6.03598 49.0717 5.97296 48.9388 5.86311C48.7439 5.70456 48.5841 5.51122 48.4695 5.29435C48.3549 5.07751 48.2875 4.84141 48.2712 4.5999C48.2505 4.20535 48.3351 3.81219 48.5174 3.45599C48.9598 2.48874 49.7258 1.80885 50.6972 1.30969C51.5055 0.897764 52.4138 0.689044 53.3336 0.703863C55.776 0.713326 58.2188 0.703003 60.6615 0.711951C61.3594 0.714518 62.0024 0.89621 62.4903 1.39518C63.0504 1.96775 63.2018 2.64113 62.9605 3.37921C62.671 4.26397 62.0633 4.93375 61.2816 5.47828C61.0644 5.6295 60.8348 5.76266 60.6043 5.89475C60.4381 5.99016 60.4285 6.02727 60.5685 6.15895C60.8373 6.39973 61.0301 6.70524 61.1262 7.04196C61.263 7.55175 61.1657 8.0359 60.9429 8.50424C60.4956 9.44505 59.7395 10.1115 58.7919 10.606C57.9901 11.0295 57.0814 11.2431 56.1613 11.2244C54.9903 11.2068 53.819 11.2202 52.6477 11.2202V11.2179ZM55.2248 4.78679V4.78436C56.2052 4.78436 57.1856 4.79124 58.1656 4.78163C58.7054 4.77631 59.0802 4.51844 59.2918 4.0563C59.5189 3.56052 59.1939 3.23082 58.7122 3.23516C57.1868 3.24891 55.6614 3.23825 54.136 3.23796C53.7059 3.23787 53.2755 3.23465 52.8458 3.24419C52.5677 3.24546 52.2986 3.33696 52.0848 3.50312C51.8707 3.66927 51.7245 3.89978 51.6714 4.15545C51.5926 4.49833 51.7897 4.75005 52.1642 4.78027C52.2538 4.78751 52.344 4.7865 52.4342 4.78653C53.3645 4.78693 54.2948 4.78702 55.2248 4.78679ZM54.2806 7.17023V7.17329C53.2894 7.17329 52.2983 7.16727 51.3074 7.17561C51.0466 7.16855 50.7914 7.24621 50.5847 7.39544C50.378 7.54466 50.2331 7.75627 50.1741 7.99433C50.0759 8.36251 50.2359 8.59985 50.6332 8.66692C50.7272 8.68079 50.822 8.68689 50.9169 8.68519C52.0882 8.68634 53.2595 8.68658 54.4305 8.68588C55.1612 8.68571 55.8922 8.691 56.6229 8.68241C56.9059 8.68351 57.1812 8.59475 57.4037 8.43062C57.6258 8.26652 57.7825 8.03668 57.8477 7.77855C57.8662 7.72104 57.8727 7.66062 57.8662 7.60082C57.8597 7.54101 57.8406 7.483 57.81 7.43014C57.7794 7.37729 57.738 7.33065 57.6883 7.2929C57.6382 7.25516 57.5807 7.22705 57.5192 7.21023C57.3892 7.1746 57.2535 7.16117 57.1185 7.17066C56.1724 7.16979 55.2264 7.16965 54.2806 7.17023Z" fill="white"/>
<path d="M20.9448 11.2204C19.268 11.2204 17.5913 11.2203 15.9144 11.2203C15.5199 11.2203 15.4872 11.1793 15.6177 10.8342C15.8547 10.2078 16.1094 9.58737 16.3308 8.95571C16.4151 8.71544 16.5518 8.63069 16.8435 8.63005C17.4891 8.62872 18.1348 8.63263 18.7805 8.63274C21.2331 8.63315 23.6857 8.63361 26.1383 8.63413C26.4628 8.63445 26.7873 8.67706 27.1115 8.6275C27.6783 8.54086 28.0506 8.22522 28.257 7.74145C28.3795 7.45441 28.2078 7.20642 27.8863 7.1427C27.7828 7.1256 27.6777 7.11871 27.5727 7.12215C25.3004 7.12108 23.0279 7.12612 20.7555 7.11518C20.1951 7.11248 19.6338 7.05783 19.1169 6.82368C18.2577 6.43454 17.8678 5.73077 18.0384 4.85135C18.2111 3.96119 18.5169 3.11486 19.1469 2.40967C19.9386 1.49676 21.0692 0.897809 22.3123 0.732792C22.8382 0.668492 23.3685 0.640886 23.8987 0.6502C27.0971 0.648861 30.2955 0.649402 33.4939 0.651822C33.8652 0.65193 33.9042 0.700782 33.7815 1.02716C33.5439 1.65838 33.3048 2.28903 33.0638 2.91912C32.9763 3.14854 32.8561 3.22788 32.5926 3.2382C32.5326 3.24054 32.4724 3.23921 32.4125 3.23927C29.1289 3.23927 25.8454 3.23948 22.5619 3.23989C22.4418 3.23607 22.3216 3.24115 22.2024 3.25507C21.9383 3.29527 21.6955 3.41527 21.511 3.5968C21.3264 3.7783 21.2103 4.01138 21.1803 4.26047C21.1482 4.51669 21.2677 4.67567 21.5367 4.7278C21.7431 4.76488 21.953 4.78202 22.1632 4.77895C24.4706 4.77788 26.7781 4.77467 29.0855 4.78124C29.5735 4.78318 30.054 4.89431 30.4869 5.10533C31.2377 5.46717 31.5303 6.16903 31.4618 6.87535C31.3777 7.84031 30.9673 8.75502 30.2901 9.48625C29.3873 10.4694 28.2493 11.0495 26.8582 11.1696C26.4046 11.2087 25.9499 11.221 25.4946 11.2208C23.978 11.22 22.4614 11.2199 20.9448 11.2204Z" fill="white"/>
<path d="M40.2488 0.7112C42.0155 0.7112 43.7825 0.70627 45.5492 0.713993C46.1322 0.716539 46.693 0.817724 47.1784 1.1566C47.8489 1.62486 48.2209 2.57233 47.9039 3.3515C47.5513 4.21956 46.9328 4.97057 46.1257 5.50994C45.9317 5.64313 45.7278 5.76161 45.522 5.87775C45.3502 5.97481 45.3462 6.00616 45.4893 6.13726C45.9314 6.54267 46.1687 7.02901 46.1202 7.6119C46.068 8.22425 45.8131 8.80606 45.391 9.27614C44.4694 10.3284 43.3005 10.9894 41.8481 11.1827C41.6846 11.2039 41.5196 11.2144 41.3546 11.214C37.8661 11.2158 34.3775 11.2162 30.8888 11.2153C30.4788 11.2153 30.4593 11.1892 30.5999 10.8261C30.842 10.2014 31.087 9.57754 31.3261 8.95181C31.3514 8.86769 31.4036 8.79298 31.4762 8.73801C31.5485 8.68304 31.6375 8.6505 31.7305 8.64491C31.8099 8.63742 31.8903 8.63568 31.9703 8.63568C35.1434 8.63525 38.3168 8.6353 41.4903 8.63591C41.6806 8.64448 41.8706 8.61776 42.0501 8.55732C42.2448 8.48657 42.4153 8.3674 42.5435 8.21256C42.6715 8.05772 42.7518 7.87312 42.7762 7.67865C42.7954 7.5734 42.7737 7.46519 42.7153 7.37346C42.6569 7.28175 42.5658 7.21251 42.458 7.17818C42.3199 7.13511 42.1749 7.11565 42.0294 7.12072C39.7573 7.12168 37.4848 7.12185 35.2126 7.12133C34.8635 7.12133 34.8453 7.09357 34.967 6.7851C35.1789 6.24964 35.3909 5.7142 35.5961 5.17653C35.7215 4.84815 35.8086 4.78409 36.188 4.78432C37.2744 4.78499 38.3604 4.78588 39.4464 4.78698C40.6079 4.78748 41.769 4.78745 42.9301 4.7869C43.0852 4.79199 43.2406 4.78064 43.3929 4.75306C43.6271 4.6982 43.8394 4.58042 44.0031 4.41417C44.1672 4.24795 44.2756 4.04049 44.3155 3.8173C44.3282 3.74766 44.3245 3.67633 44.305 3.6081C44.2855 3.5399 44.2506 3.47639 44.2027 3.42185C44.1548 3.36734 44.0952 3.32308 44.0275 3.29208C43.9596 3.26108 43.8857 3.24405 43.8103 3.24214C43.7254 3.23708 43.6401 3.23818 43.5551 3.23818C40.382 3.238 37.2086 3.23795 34.0351 3.238C33.6211 3.238 33.601 3.20997 33.741 2.85258C33.9817 2.23731 34.2214 1.62166 34.46 1.00562C34.552 0.76871 34.6429 0.707408 34.9182 0.707355C36.6951 0.706997 38.4719 0.706936 40.2488 0.707172V0.7112Z" fill="white"/>
<path d="M70.3551 0.708981C72.1116 0.708981 73.8684 0.709063 75.6252 0.709228C76.0927 0.697686 76.5562 0.79559 76.9733 0.994082C77.6675 1.3417 78.0213 1.89661 78.0568 2.62886C78.0933 3.38291 77.7167 3.99196 77.2529 4.56234C76.7956 5.09839 76.2314 5.54563 75.5913 5.87887C75.4198 5.9737 75.4133 6.00482 75.556 6.13694C75.924 6.45414 76.1561 6.88618 76.2086 7.35212C76.2293 7.67086 76.1737 7.98994 76.0454 8.28587C75.7003 9.17456 75.0577 9.83699 74.2265 10.3514C73.531 10.7914 72.7364 11.0746 71.9043 11.1787C71.5515 11.2149 71.1958 11.2279 70.8408 11.2174C70.0307 11.2083 69.22 11.1847 68.4099 11.1975C65.9279 11.2367 63.446 11.2024 60.964 11.215C60.5552 11.2171 60.5355 11.1925 60.6708 10.8401C60.9142 10.206 61.1617 9.57311 61.4071 8.93951C61.4315 8.85999 61.4812 8.78933 61.5495 8.7369C61.6178 8.68448 61.7015 8.65275 61.7896 8.64598C61.8693 8.63857 61.949 8.63512 62.029 8.63567C65.2272 8.63518 68.4253 8.63599 71.6235 8.6381C71.8672 8.65136 72.1095 8.59222 72.3156 8.46911C72.5213 8.34597 72.6808 8.16513 72.7707 7.95231C72.9876 7.51576 72.8115 7.2009 72.3044 7.13064C72.23 7.12254 72.1549 7.11953 72.0798 7.12167C69.8076 7.12123 67.5355 7.12109 65.2633 7.12126C64.9642 7.12126 64.9296 7.07032 65.0341 6.80519C65.2503 6.25634 65.466 5.70727 65.6764 5.15649C65.7941 4.84904 65.8822 4.78431 66.2378 4.7844C68.2548 4.78489 70.2717 4.78573 72.2887 4.78692C72.589 4.787 72.8893 4.79033 73.1896 4.7833C73.46 4.78214 73.7223 4.69692 73.9355 4.54101C74.1484 4.3851 74.3004 4.16733 74.3671 3.92183C74.4787 3.54325 74.2534 3.25434 73.8341 3.2396C73.7643 3.23714 73.6939 3.23806 73.624 3.23806C70.4608 3.238 67.2979 3.23783 64.1346 3.23755C64.0497 3.23922 63.9647 3.23527 63.8804 3.22573C63.7277 3.20532 63.6965 3.16264 63.7457 3.02701C63.8223 2.81433 63.9085 2.60449 63.991 2.39356C64.1767 1.91895 64.3627 1.44438 64.5487 0.969862C64.6312 0.75865 64.7081 0.707391 64.9497 0.707349C66.7513 0.707005 68.5532 0.70694 70.3548 0.707155L70.3551 0.708981Z" fill="white"/>
<path d="M12.4695 8.40788C11.327 8.3695 10.271 8.38166 9.21572 8.39193C8.31026 8.40071 7.40488 8.40774 6.49944 8.40638C6.10449 8.4058 5.70956 8.39191 5.31457 8.38852C5.03681 8.38612 4.95635 8.44361 4.86014 8.68841C4.56844 9.43057 4.27622 10.1725 3.9835 10.9143C3.87786 11.1816 3.8119 11.2227 3.50778 11.2228C2.62197 11.2228 1.73615 11.2228 0.85033 11.2228C0.810297 11.2228 0.770214 11.2234 0.730236 11.2219C0.516987 11.2139 0.466094 11.1534 0.53728 10.9663C0.748592 10.411 0.965944 9.85757 1.18079 9.30337C1.91396 7.41195 2.64704 5.5205 3.38002 3.62902C3.70879 2.77996 4.03417 1.9297 4.36307 1.08073C4.49333 0.744449 4.58914 0.683588 4.97338 0.683545C7.63083 0.683255 10.2883 0.671965 12.9457 0.68942C13.9111 0.695758 14.8768 0.687551 15.8421 0.705823C16.3394 0.713578 16.8196 0.876838 17.2064 1.16965C17.5932 1.46245 17.8645 1.86801 17.9771 2.32184C18.0582 2.70042 18.0267 3.09262 17.886 3.45557C17.6363 4.18169 17.3548 4.89776 17.0636 5.61009C16.7738 6.31884 16.2389 6.85153 15.6194 7.31868C14.877 7.89925 13.971 8.26587 13.0109 8.37419C12.8027 8.39639 12.5922 8.40059 12.4695 8.40788ZM9.34042 5.76366C10.3459 5.76366 11.3513 5.76398 12.3567 5.76459C12.5875 5.76525 12.8155 5.71749 13.024 5.62474C13.7148 5.32198 14.0417 4.77438 14.1571 4.10324C14.2254 3.70585 14.0592 3.44144 13.7196 3.31564C13.5643 3.26233 13.3996 3.23743 13.2342 3.24229C12.5689 3.24359 11.9036 3.24372 11.2383 3.24269C9.91777 3.24172 8.59723 3.24062 7.27666 3.23936C7.02098 3.23924 6.95792 3.27481 6.88349 3.46408C6.61243 4.15311 6.34258 4.84258 6.07387 5.53243C5.99795 5.72742 6.02663 5.76337 6.24905 5.76349C7.27953 5.76392 8.30998 5.76398 9.34042 5.76366Z" fill="white"/>
</g>
<defs>
<clipPath id="clip0_4788_111631">
<rect width="93" height="11" fill="white" transform="translate(0.387085 0.5)"/>
</clipPath>
</defs>
</svg>
