<svg width="94" height="21" viewBox="0 0 94 21" fill="none" xmlns="http://www.w3.org/2000/svg">
<g clip-path="url(#clip0_4793_75197)">
<rect width="92.6243" height="20.0514" transform="translate(0.741211 0.847717)" fill="rgba(1,1,1,0)"/>
<path d="M11.9977 8.24879L11.0548 9.21874C11.8232 9.75415 12.5556 10.2523 13.2717 10.7665C14.2197 11.4471 14.3344 12.2555 13.5398 13.0736C11.2476 15.4335 8.95684 17.7955 6.59603 20.1067C6.22413 20.4707 5.51455 20.6654 4.91843 20.7748C4.29335 20.8894 3.61499 20.8355 2.96337 20.8043C1.86832 20.752 1.3809 19.9238 1.99485 19.1653C2.31808 18.766 2.70107 18.4007 3.20724 17.8594C2.72896 17.883 2.24942 17.8823 1.77124 17.8573C1.44386 17.797 1.12412 17.7104 0.816406 17.5989C0.946727 17.3368 1.01434 17.0325 1.21775 16.8194C2.36213 15.6209 3.54114 14.4456 4.70331 13.2589C4.90574 13.0522 5.08421 12.829 5.32972 12.5498C4.46785 11.9471 3.64133 11.3767 2.82489 10.7963C1.87628 10.1219 1.83847 9.76331 2.63868 8.94275C4.01946 7.52676 5.40912 6.1169 6.78649 4.71333C5.64354 3.73199 4.29641 3.52119 2.7693 4.03048C1.73334 4.37597 1.58086 4.29277 1.54648 3.36282C1.48349 1.66383 1.81855 1.3502 3.84504 1.2638C5.49461 1.17418 7.12386 1.60954 8.40771 2.48303C9.11836 2.95751 9.81645 3.44521 10.5853 3.97147C11.124 3.42873 11.6458 2.94181 12.1139 2.42095C12.3261 2.15947 12.6177 1.95035 12.9587 1.81528C13.2996 1.6802 13.6775 1.62409 14.053 1.65275C14.6394 1.68136 15.2464 1.58146 15.8129 1.67403C16.2401 1.74382 16.8104 1.95374 16.9643 2.2364C17.1244 2.53031 17.0011 3.07165 16.7562 3.35609C15.973 4.26574 15.0746 5.10548 14.225 5.97525C14.1415 6.07905 14.0674 6.18794 14.0032 6.30097C15.1639 6.94348 16.3319 6.94878 17.5473 6.53006C18.516 6.19635 18.6735 6.28429 18.7017 7.17357C18.7086 7.39292 18.6853 7.61438 18.713 7.83154C18.8235 8.69748 18.2825 9.05256 17.3365 9.21398C15.427 9.53978 13.7151 9.15977 11.9977 8.24879ZM9.56044 12.2359C8.83148 12.9827 8.15348 13.6801 7.47203 14.3751C5.87266 16.0061 4.27189 17.6363 2.66967 19.2655C2.35059 19.5893 2.0869 19.9145 2.66507 20.2183C3.3969 20.603 5.72105 20.2364 6.29242 19.6563C8.47938 17.4362 10.6636 15.2142 12.8451 12.9903C13.7386 12.0791 13.6905 11.7281 12.5859 10.9516C11.7968 10.397 11.0042 9.84592 10.1985 9.28294C10.6217 8.8455 10.9483 8.50351 11.2803 8.16536C12.902 6.51413 14.5243 4.86336 16.1473 3.21303C16.4776 2.87665 16.8069 2.51261 16.1467 2.20197C15.3186 1.81224 13.0894 2.2389 12.467 2.87257C10.9282 4.43902 9.38927 6.00536 7.85013 7.57155C7.19177 8.24227 6.537 8.91539 5.83903 9.63001L9.56044 12.2359Z" fill="white"/>
<path d="M9.87797 12.7047L6.15661 10.0987C6.85458 9.38413 7.50935 8.71098 8.16771 8.0403C9.70583 6.47332 11.2448 4.90698 12.7845 3.34132C13.407 2.70765 15.6363 2.28098 16.4644 2.67071C17.1244 2.98136 16.7953 3.3454 16.4648 3.68177C14.8432 5.333 13.2209 6.98377 11.5979 8.63411C11.2658 8.97226 10.9391 9.31421 10.5161 9.75168C11.3218 10.3147 12.1143 10.8658 12.9034 11.4204C14.008 12.1969 14.0562 12.5478 13.1627 13.4591C10.9816 15.6833 8.79734 17.9053 6.60996 20.1251C6.03863 20.7052 3.71443 21.0717 2.98259 20.6871C2.40442 20.3833 2.66812 20.0581 2.9872 19.7342C4.59098 18.1062 6.19178 16.4761 7.78953 14.8438C8.47098 14.1489 9.14902 13.4515 9.87797 12.7047Z" fill="white"/>
<path d="M20.7848 14.946L23.2014 14.6546C23.3553 15.6079 23.6569 16.3069 24.1063 16.7516C24.3268 16.9707 24.6046 17.1443 24.9181 17.2588C25.2315 17.3733 25.5723 17.4256 25.9138 17.4116C26.7145 17.4066 27.3161 17.2038 27.7187 16.8032C28.1162 16.4138 28.3286 15.9151 28.3152 15.4025C28.3235 15.0971 28.2323 14.7955 28.0514 14.5304C27.8282 14.2555 27.5159 14.0399 27.1514 13.909C26.8591 13.7925 26.1937 13.5861 25.155 13.2898C23.8187 12.9096 22.8794 12.4383 22.337 11.8758C21.5597 11.0499 21.1496 10.0227 21.1771 8.97069C21.1647 8.25675 21.3405 7.54937 21.6921 6.89909C22.0081 6.28792 22.5401 5.77281 23.2163 5.42342C23.951 5.06865 24.7875 4.88941 25.6349 4.90516C27.1804 4.89553 28.3473 5.28642 29.1357 6.07788C29.9241 6.8693 30.3437 7.92959 30.3944 9.25871L27.9091 9.40236C27.7962 8.6596 27.5633 8.12631 27.2105 7.80255C26.8574 7.4789 26.3309 7.31931 25.6311 7.32379C24.909 7.3283 24.345 7.50622 23.9393 7.85755C23.8058 7.97818 23.7028 8.12015 23.6363 8.27494C23.5698 8.42976 23.5412 8.59426 23.5523 8.75854C23.5462 9.0795 23.6805 9.39123 23.9299 9.63471C24.246 9.94221 25.0103 10.2599 26.223 10.5878C27.4356 10.916 28.3331 11.2576 28.9157 11.6126C29.5196 11.9897 29.9937 12.4943 30.2898 13.075C30.6484 13.8044 30.8227 14.5884 30.8015 15.3772C30.8152 16.1802 30.6216 16.9761 30.2341 17.7105C29.9026 18.3843 29.3254 18.9528 28.5853 19.3347C27.7677 19.7135 26.8441 19.9016 25.9105 19.8797C24.3537 19.8895 23.1545 19.4741 22.3127 18.6337C21.4706 17.7932 20.9613 16.564 20.7848 14.946Z" fill="white"/>
<path d="M32.2078 5.13479L37.1734 5.10378C37.9103 5.0813 38.648 5.12523 39.3739 5.2348C39.8637 5.33079 40.3135 5.5361 40.6757 5.829C41.0932 6.1737 41.4214 6.58708 41.6396 7.04318C41.9066 7.58371 42.0414 8.1637 42.0362 8.74873C42.0508 9.39739 41.896 10.0409 41.5826 10.634C41.3212 11.1595 40.8817 11.609 40.3185 11.9267C41.0713 12.1761 41.6941 12.6416 42.0759 13.2403C42.5042 13.9162 42.721 14.6723 42.7058 15.4377C42.7125 16.0975 42.585 16.7534 42.3289 17.3772C42.1172 17.9423 41.7535 18.4591 41.266 18.8876C40.8118 19.2669 40.2241 19.5133 39.5899 19.5904C38.585 19.6729 37.5756 19.7124 36.5658 19.7089L32.3372 19.7352L32.2078 5.13479ZM34.7378 7.54948L34.7676 10.9256L36.4113 10.9154C37.0195 10.9245 37.6278 10.904 38.2332 10.854C38.4353 10.8284 38.6291 10.7682 38.8024 10.6772C38.9757 10.5862 39.1249 10.4663 39.2408 10.325C39.5006 9.98522 39.626 9.58538 39.5993 9.18234C39.6161 8.79761 39.5025 8.41674 39.2717 8.08392C39.1676 7.9461 39.0285 7.82916 38.8644 7.74151C38.7003 7.65385 38.5153 7.5976 38.3223 7.57676C37.6088 7.53419 36.8932 7.52212 36.1783 7.5406L34.7378 7.54948ZM34.7892 13.3556L34.8239 17.2595L37.1457 17.245C38.0494 17.2394 38.6226 17.2059 38.8652 17.1447C39.2476 17.0563 39.573 16.8449 39.7708 16.5565C40.0224 16.1779 40.1406 15.7471 40.1115 15.3143C40.1216 14.9298 40.0255 14.5486 39.8305 14.2005C39.6645 13.911 39.386 13.6775 39.0409 13.5384C38.6976 13.4009 37.9554 13.3358 36.8143 13.3429L34.7892 13.3556Z" fill="white"/>
<path d="M43.5922 12.6793C43.5785 11.144 43.8317 9.85377 44.3511 8.80859C44.7344 8.04352 45.2752 7.34068 45.9479 6.73195C46.5703 6.15063 47.3296 5.68369 48.1782 5.3605C49.3575 4.93885 50.6291 4.72788 51.9109 4.74109C54.4668 4.72512 56.5178 5.40121 58.0638 6.76936C59.6107 8.13737 60.3948 10.0484 60.4165 12.5023C60.4383 14.9359 59.6939 16.8445 58.1833 18.2282C56.6731 19.6123 54.6444 20.3122 52.097 20.3279C49.5176 20.344 47.4607 19.673 45.9262 18.315C44.3912 16.9571 43.6135 15.0786 43.5922 12.6793ZM47.1999 12.554C47.2152 14.2608 47.68 15.5517 48.5952 16.4269C49.0267 16.8382 49.5586 17.167 50.1549 17.3913C50.7507 17.6156 51.397 17.73 52.0505 17.7269C52.7035 17.7238 53.3485 17.6032 53.9414 17.3733C54.5342 17.1434 55.0614 16.8095 55.4874 16.3941C56.3748 15.5149 56.8106 14.2013 56.7952 12.4533C56.7799 10.7257 56.3325 9.43967 55.4537 8.59522C54.5744 7.75091 53.4129 7.3332 51.9694 7.34215C50.5262 7.3511 49.3665 7.78847 48.491 8.6543C47.6152 9.52013 47.1849 10.8201 47.1999 12.554Z" fill="white"/>
<path d="M61.7789 4.83944L66.7328 4.80851C67.4674 4.78599 68.2033 4.82992 68.9268 4.93963C69.4159 5.03577 69.865 5.24122 70.2265 5.53419C70.6427 5.87965 70.97 6.29313 71.1877 6.74902C71.4541 7.28998 71.5885 7.87014 71.5838 8.45536C71.5984 9.10427 71.4434 9.74799 71.1305 10.3416C70.8702 10.8668 70.4318 11.3164 69.8701 11.6349C70.6217 11.8849 71.2432 12.3506 71.6235 12.9492C72.0508 13.6259 72.2664 14.3822 72.2514 15.1477C72.2578 15.8077 72.1311 16.4639 71.8754 17.0882C71.6645 17.6531 71.3021 18.17 70.816 18.5993C70.3631 18.9786 69.7766 19.2252 69.1432 19.3024C68.141 19.3849 67.134 19.4245 66.1267 19.4209L61.9087 19.4472L61.7789 4.83944ZM64.3032 7.25539L64.3331 10.6332L65.9717 10.6229C66.5787 10.632 67.1861 10.6116 67.7901 10.5616C67.992 10.536 68.1853 10.4757 68.3582 10.3847C68.5311 10.2936 68.6801 10.1737 68.7953 10.0324C69.0535 9.69199 69.1786 9.29214 69.1521 8.88911C69.1688 8.50434 69.0561 8.1234 68.826 7.79019C68.7223 7.65233 68.5836 7.53543 68.4197 7.4477C68.2558 7.35998 68.071 7.30365 67.878 7.28271C67.1665 7.24006 66.4524 7.22792 65.7391 7.24636L64.3032 7.25539ZM64.3549 13.0644L64.3895 16.9703L66.7042 16.9559C67.6057 16.9502 68.1781 16.9168 68.421 16.8555C68.8026 16.7668 69.1274 16.5554 69.3242 16.267C69.5756 15.8881 69.6934 15.4572 69.6643 15.0242C69.6742 14.6396 69.5781 14.2583 69.3835 13.9099C69.2174 13.6207 68.9396 13.3871 68.5951 13.2475C68.2532 13.11 67.5131 13.0448 66.3743 13.0519L64.3549 13.0644Z" fill="white"/>
<path d="M72.877 19.4898L72.7477 4.88205L81.2469 4.82902L81.2687 7.30028L75.0833 7.33888L75.1123 10.5774L80.8666 10.5416L80.8884 13.0025L75.1341 13.0384L75.1691 17.0141L81.5734 16.9741L81.5952 19.4354L72.877 19.4898Z" fill="white"/>
<path d="M86.7372 19.4351L86.6292 7.29852L82.7172 7.32294L82.695 4.85168L93.1735 4.78633L93.1953 7.25759L89.2922 7.28194L89.4002 19.4184L86.7372 19.4351Z" fill="white"/>
</g>
<defs>
<clipPath id="clip0_4793_75197">
<rect width="92.6243" height="20.0514" fill="white" transform="translate(0.741211 0.847717)"/>
</clipPath>
</defs>
</svg>
