<svg width="73" height="26" viewBox="0 0 73 26" fill="none" xmlns="http://www.w3.org/2000/svg">
<path d="M54.7134 15.2312C54.9074 15.8205 55.4248 16.2134 56.0069 16.2134H56.0715C56.7829 16.1479 57.3003 15.5586 57.3003 14.7729C57.3003 14.511 57.2356 14.1836 57.1063 13.9871C56.9123 13.7252 56.6536 13.5288 56.3302 13.3978C56.2009 13.3978 56.0715 13.3324 55.9422 13.3324C55.1661 13.3324 54.584 13.9217 54.584 14.7729C54.6487 14.9693 54.7134 15.1002 54.7134 15.2312Z" fill="#707D9B"/>
<path d="M62.6682 0.105377L49.1516 6.45666L51.9325 13.3972C52.2559 12.7425 52.7732 12.2186 53.42 11.9567C53.42 11.8913 53.3553 11.8913 53.3553 11.8258C52.8379 11.4329 52.4499 10.7781 52.3205 10.1234C52.1912 9.53408 52.2559 8.94479 52.5146 8.42097C52.7086 7.83168 53.0966 7.30786 53.5493 6.98048C54.2607 6.45666 55.1015 6.12927 56.0069 6.19475C56.977 6.19475 57.9471 6.52214 58.7232 7.17691C59.8226 8.22454 60.2753 10.3198 58.9819 11.6294C58.8525 11.7603 58.7878 11.8258 58.6585 11.9567V12.0222C59.2406 12.2841 59.6933 12.677 60.0166 13.2008C60.2107 12.9389 60.4047 12.677 60.6634 12.4806C60.9221 12.2841 61.1808 12.0877 61.4394 11.9567C60.0166 10.7782 60.0813 9.27218 60.5987 8.22454C61.5041 6.12927 64.6084 5.4745 66.484 6.98048C67.9714 8.15906 68.2948 10.6472 66.7426 11.8913C66.678 11.9567 66.678 11.9567 66.678 12.0222C68.8769 13.0044 69.2002 16.1473 67.3894 17.8497C65.7079 19.4211 62.8623 19.4866 61.0514 18.0461C60.6634 17.7187 60.4047 17.3913 60.146 16.9985C59.952 17.2604 59.6933 17.5223 59.4346 17.7842C59.3699 17.8497 59.2406 17.9806 59.1759 18.0461C59.0465 18.1771 58.9172 18.2425 58.7232 18.3735C58.7232 18.3735 58.6585 18.3735 58.6585 18.439C58.0764 18.8318 57.4297 19.0283 56.7183 19.0937C55.9422 19.1592 55.2308 19.0937 54.5194 18.8318C54.4547 18.8318 54.3254 18.7664 54.2607 18.7664C54.1961 18.7664 54.1961 18.7009 54.1314 18.7009L55.3602 21.8438L65.2552 25.6415L72.3692 9.46861L62.6682 0.105377Z" fill="#707D9B"/>
<path d="M64.0263 16.2786C64.7377 16.2786 65.3198 15.6238 65.3198 14.8381C65.3198 13.9869 64.8024 13.3976 63.9617 13.3976C63.1856 13.3976 62.6035 13.9869 62.6035 14.8381C62.6035 15.6893 63.1856 16.2786 64.0263 16.2786Z" fill="#707D9B"/>
<path d="M62.8621 9.86156C62.8621 10.5163 63.3148 10.9747 63.9615 11.0401C64.6083 11.0401 65.1257 10.5163 65.1257 9.86156C65.1257 9.27227 64.6083 8.74845 64.0262 8.74845C63.3148 8.68297 62.8621 9.20679 62.8621 9.86156Z" fill="#707D9B"/>
<path d="M56.0069 11.0404C56.4596 11.0404 56.9123 10.713 57.1064 10.2546C57.171 10.1237 57.171 9.99272 57.171 9.86177C57.171 9.207 56.7183 8.74866 56.0069 8.74866C55.9422 8.74866 55.9422 8.74866 55.8776 8.74866C55.2955 8.81413 54.8428 9.27247 54.8428 9.86177C54.8428 9.92725 54.8428 9.99272 54.8428 10.0582C55.0368 10.6475 55.4895 10.9749 56.0069 11.0404Z" fill="#707D9B"/>
<path d="M52.9673 21.9089H0.711426V20.0756H52.2559L52.9673 21.9089Z" fill="#707D9B"/>
<path d="M6.14388 6.12972H4.33303H0.970032V15.0346V19.0287H4.33303V15.0346H6.14388C8.60146 15.0346 10.5417 13.0048 10.5417 10.5822C10.5417 8.15951 8.60146 6.12972 6.14388 6.12972ZM6.07921 12.2191H4.00967V8.94524H6.07921C6.98463 8.94524 7.69604 9.66549 7.69604 10.5822C7.69604 11.4988 6.98463 12.2191 6.07921 12.2191Z" fill="#707D9B"/>
<path d="M19.1431 9.27263V6.12972H14.4867H11.1237V9.27263V11.0405V14.1834V15.8858V19.0287H14.4867H19.1431V15.8858H14.4867V14.1834H19.1431V11.0405H14.4867V9.27263H19.1431Z" fill="#707D9B"/>
<path d="M27.7447 6.12972V13.2013L23.3469 6.12972H20.1779V6.84997V19.0287H23.3469V11.9572L27.7447 19.0287H30.9137V6.12972H27.7447Z" fill="#707D9B"/>
<path d="M41.326 6.12972H38.157H34.794H31.6251V9.27263H34.794V19.0287H38.157V9.27263H41.326V6.12972Z" fill="#707D9B"/>
<path d="M47.2761 6.12972H47.2114H44.0424H43.9778L39.5153 19.0287H42.749L45.6593 10.7131L46.8881 14.2489H45.4653L44.6892 16.9335H47.7935L48.5049 19.0287H51.7385L47.2761 6.12972Z" fill="#707D9B"/>
</svg>
