<svg width="69" height="13" viewBox="0 0 69 13" fill="none" xmlns="http://www.w3.org/2000/svg">
<path d="M18.8705 7.23858C18.8705 5.29521 20.0992 5.25927 21.7582 5.25927H21.9471C23.5636 5.25927 24.4499 5.53381 24.4499 7.41538V8.72485C24.4499 10.3002 24.0479 10.9715 21.8903 10.9715H21.4784C19.4316 10.9715 18.872 10.4023 18.872 8.83266C18.8705 8.83409 18.8705 7.23858 18.8705 7.23858ZM18.8705 11.4171H18.9046C19.4131 12.0956 20.3492 12.4463 21.4983 12.4463H22.0934C24.4996 12.4463 26.2595 11.8268 26.2581 9.02096V7.30757C26.2581 4.71018 25.1246 3.78737 22.1687 3.78737H21.2497C19.9586 3.78737 19.2384 4.23009 18.9018 4.71018H18.8705V0.557522H17.0624V12.1818H18.872L18.8705 11.4171Z" fill="#707D9B"/>
<path d="M48.1921 3.99067H45.7632V3.24034C45.7632 2.52451 46.2263 1.94955 47.2149 1.94955L49.0188 1.95243V0.55527L46.6197 0.556707C45.1695 0.556707 43.9522 1.32141 43.9522 3.2504V3.9921H42.9778V5.46113H43.9522V12.4412H45.7632V5.46113H48.1921V3.99067Z" fill="#707D9B"/>
<path d="M37.7351 9.74603C37.7351 11.6765 38.9538 12.4412 40.404 12.4412H42.6511V10.9693H40.8457C39.8586 10.9693 39.5461 10.469 39.5461 9.75322V5.45969H41.9778V3.98779H39.5461V0.553834H37.7379V3.98923H36.7635V5.45969H37.7379L37.7351 9.74603Z" fill="#707D9B"/>
<path d="M58.5766 2.41528H60.3848V0.555282L58.5752 0.556719L58.5766 2.41528Z" fill="#707D9B"/>
<path d="M58.5752 12.4443H60.3848V3.78398H58.5752V12.4443Z" fill="#707D9B"/>
<path d="M28.9722 7.08713C28.9722 5.42405 29.7378 5.25731 31.6042 5.25731H31.9693C34.07 5.25731 34.3413 5.79347 34.3413 6.88589L34.3428 7.35017L28.9708 7.35305L28.9722 7.08713ZM30.9451 12.4443H32.5729C34.7646 12.4443 35.766 11.74 36.0217 10.5096L34.4109 10.0166C34.1439 10.7741 33.499 10.9724 32.08 10.9724H31.6624C29.3458 10.9724 28.9694 10.6749 28.9679 8.82639L28.9722 8.82495H36.1524V7.22368C36.1524 4.32444 34.6652 3.78541 32.2874 3.78541H31.4025C29.5205 3.78541 27.2393 4.11889 27.2393 7.06844V9.11243C27.2407 11.9772 29.2179 12.4458 30.9451 12.4443Z" fill="#707D9B"/>
<path d="M55.16 9.85701C55.16 10.6706 54.6089 10.9724 52.4669 10.9724H51.984C50.163 10.9724 49.9329 10.6174 49.9329 9.91451V9.45885C49.9329 8.64528 50.386 8.33767 51.8945 8.33767H52.6999C54.0734 8.33767 55.1615 8.61078 55.1615 9.52209V9.85701H55.16ZM52.9101 3.78398H52.234C49.7795 3.78398 48.7156 4.54868 48.646 5.69285L50.3704 6.27212C50.45 5.49018 51.3377 5.25876 52.6814 5.25876C54.6814 5.25876 55.1544 5.37519 55.1544 6.83846V7.63335H55.1188C54.6672 7.02389 54.0493 6.86577 52.4826 6.86577H51.7752C49.4656 6.86577 48.1191 7.44792 48.1191 9.29786V9.82682C48.1219 11.3548 48.6958 12.4443 51.109 12.4443H52.8661C54.6118 12.4443 54.7865 12.154 55.1316 11.648H55.1586V12.44H56.9668V6.87296C56.9682 4.45094 55.3774 3.78398 52.9101 3.78398Z" fill="#707D9B"/>
<path d="M65.9043 3.78398C65.1004 3.78398 64.2808 4.09158 63.7723 4.9339H63.707V3.78398L61.9939 3.78542V12.4443H63.8035V7.23375C63.8035 6.18157 64.4001 5.25732 65.8063 5.25732C66.8105 5.25732 67.2949 5.5333 67.4028 5.82366L68.5434 5.04602C68.2608 4.25832 67.5051 3.78398 65.9043 3.78398Z" fill="#707D9B"/>
<path d="M13.7281 0.583988H9.04356V2.96289H6.53938L11.3858 8.69238L16.2337 2.96289H13.7281V0.583988Z" fill="#707D9B"/>
<path d="M0.363876 10.0103H2.86947V12.3906H7.55397V10.0088H10.0596L5.21456 4.28367L0.363876 10.0103Z" fill="#707D9B"/>
</svg>
