<svg width="80" height="9" viewBox="0 0 80 9" fill="none" xmlns="http://www.w3.org/2000/svg">
<path fill-rule="evenodd" clip-rule="evenodd" d="M3.01481 0.900482C2.80648 0.956661 2.54471 1.07096 2.43301 1.15438C1.86211 1.58056 1.43737 3.05609 1.62969 3.94514C1.78971 4.68491 2.05981 4.85042 3.95918 5.37334C4.93652 5.64236 5.8257 5.86248 5.93525 5.86248C6.20657 5.86248 6.3347 6.28273 6.15516 6.58432C6.0152 6.81957 5.8868 6.83107 3.39514 6.83107H0.781816L0.641715 7.2851C0.5646 7.53488 0.501211 7.91614 0.500808 8.13262L0.5 8.52611H3.97923C7.38081 8.52611 7.46869 8.51994 7.91577 8.24922C8.4685 7.91457 8.7156 7.33571 8.80482 6.16516C8.9137 4.73927 8.5693 4.36927 6.78232 3.99212C4.59158 3.52974 4.01476 3.26192 4.27329 2.82726C4.40317 2.60896 4.58055 2.59347 6.94745 2.59347H9.48258L9.57073 2.0789C9.61918 1.79583 9.69428 1.38732 9.73748 1.17084L9.81621 0.77735L6.6048 0.787762C4.83867 0.793453 3.22314 0.844183 3.01481 0.900482ZM11.2355 1.65514C11.1174 2.13798 10.8888 3.18673 10.7276 3.98582C10.5665 4.78491 10.2585 6.10475 10.0431 6.91873C9.82779 7.73271 9.65162 8.4818 9.65162 8.5835C9.65162 8.73533 9.8652 8.76826 10.8483 8.76826C12.1756 8.76826 12.1331 8.79877 12.2863 7.73925C12.3153 7.5396 12.4005 7.10373 12.4756 6.77066C12.5507 6.43758 12.6274 6.02895 12.6459 5.86248L12.6797 5.55979L14.4822 5.52589L16.2847 5.49199L16.1887 6.1918C16.0763 7.01159 16.0404 7.19151 15.9399 7.43645C15.8988 7.53633 15.8307 7.87885 15.7885 8.19764L15.7116 8.77734L16.9546 8.74248L18.1976 8.70773L18.35 8.10235C18.4338 7.7694 18.6652 6.62525 18.8641 5.55979C19.3607 2.89991 19.514 2.23024 19.6265 2.23024C19.7122 2.23024 20.0145 1.18803 20.0145 0.892491C20.0145 0.828201 19.4776 0.77735 18.7991 0.77735C17.4905 0.77735 17.5087 0.767906 17.4017 1.5038C17.3678 1.73686 17.2787 2.14549 17.2037 2.41185C17.1289 2.67822 17.0313 3.10053 16.9872 3.35018L16.9068 3.80421H15.0854H13.264L13.3347 3.47126C13.3736 3.28819 13.4444 2.89313 13.4921 2.59347C13.5396 2.29381 13.6641 1.8152 13.7684 1.52983C13.8728 1.24445 13.9583 0.958477 13.9583 0.894187C13.9583 0.827474 13.4203 0.77735 12.7044 0.77735H11.4504L11.2355 1.65514ZM24.221 1.07253C23.8456 1.35669 23.1703 2.32117 22.1012 4.10024C21.8233 4.56274 21.4521 5.16206 21.2763 5.43206C21.1007 5.70205 20.6729 6.37244 20.3258 6.92188C19.9592 7.50195 19.6064 7.92111 19.4844 7.92147C19.2728 7.92232 18.7368 8.62782 18.8622 8.74054C18.9459 8.81585 19.4137 8.53483 19.9566 8.08298C20.7463 7.42567 21.4365 6.88979 21.8806 6.58892C22.1264 6.42245 22.6619 6.04663 23.0706 5.75375C23.7148 5.2921 23.8002 5.25928 23.7128 5.507C23.6574 5.66416 23.4601 5.90025 23.2743 6.03162C23.0886 6.1631 22.5366 6.55744 22.0475 6.90808C21.5585 7.25859 20.9828 7.66806 20.7681 7.81783C20.0851 8.29462 20.6083 8.19183 22.1171 7.55292C22.9221 7.21197 23.8837 6.80504 24.2538 6.64873C24.6239 6.49243 25.2598 6.24422 25.667 6.09736C26.0741 5.95038 26.6494 5.73123 26.9455 5.61028C27.7191 5.29415 30.1319 4.39929 30.418 4.32229C30.6164 4.26889 30.6466 4.30946 30.5846 4.54519C30.4808 4.93953 30.1262 6.72719 29.9696 7.64578C29.8988 8.06058 29.8253 8.46921 29.8063 8.55384C29.7616 8.75252 31.9355 8.8403 32.1903 8.6501C32.2849 8.57951 32.395 8.26387 32.4348 7.94883C32.5116 7.34225 32.6914 6.46506 33.0234 5.07767C33.1345 4.61287 33.2586 3.98631 33.2991 3.68532C33.4519 2.54806 33.3932 2.58124 35.1869 2.61986C36.7395 2.6534 36.7708 2.65957 36.8154 2.94228C36.887 3.39813 36.7218 3.98219 36.4461 4.24855C36.2406 4.447 35.9578 4.50681 34.9479 4.56577C34.2633 4.6056 33.6368 4.69786 33.5556 4.77087C33.3201 4.98275 33.4111 6.11698 33.7015 6.58892C33.845 6.82199 34.2171 7.37288 34.5283 7.81299L35.0942 8.61329L35.9182 8.69078C37.029 8.79526 38.0486 8.7886 38.0486 8.67697C38.0486 8.62673 37.6575 8.06833 37.1796 7.43596L36.3106 6.28624L37.0909 6.21565C37.5379 6.17521 38.0222 6.0459 38.2249 5.91297C39.3302 5.18773 39.7551 2.17285 38.8648 1.37195C38.5629 1.10038 38.359 1.0465 37.3734 0.977728C36.7455 0.933899 35.3663 0.900119 34.3088 0.902541C33.2512 0.904962 32.3428 0.884258 32.29 0.856411C32.0731 0.741754 31.6034 1.02773 31.3903 1.40415C31.265 1.62548 31.0571 2.29526 30.9283 2.89276L30.6942 3.97904L29.884 4.00967C29.4385 4.0265 28.6885 4.12118 28.2173 4.21998C27.7463 4.3189 27.3548 4.3884 27.3475 4.37447C27.3136 4.3097 27.0108 2.84385 26.9421 2.41185C26.8999 2.14549 26.8365 1.85176 26.8013 1.75914C26.7662 1.66652 26.8361 1.45537 26.9567 1.28986C27.264 0.867792 27.0534 0.781466 25.711 0.779166C24.7397 0.777592 24.5653 0.811856 24.221 1.07253ZM52.9925 1.11721C52.733 1.35064 52.5625 1.70393 52.4035 2.33715C52.2804 2.82738 52.1805 3.31725 52.1815 3.42561C52.1832 3.63398 51.8928 4.93928 51.5672 6.18502C51.3305 7.09114 51.313 8.30334 51.5337 8.5019C51.7597 8.70518 58.1039 8.70579 58.7285 8.50263C59.712 8.18263 60.3692 5.73087 59.6605 5.02634C59.3601 4.72765 59.3924 4.62013 59.853 4.38428C60.3776 4.11574 60.5243 3.74113 60.5218 2.6764C60.5197 1.70187 60.3372 1.26601 59.847 1.0643C59.6491 0.982813 58.2689 0.899393 56.436 0.858106L53.3577 0.78861L52.9925 1.11721ZM62.9878 0.954845C62.531 1.13355 62.3645 1.4889 62.1348 2.77508C61.8959 4.11307 61.6102 5.50264 61.4836 5.94239C61.2518 6.74789 61.1666 7.96155 61.3172 8.31423L61.4592 8.64719H65.029H68.5988V8.25285C68.5988 8.03601 68.6552 7.68186 68.724 7.46587L68.8491 7.07322H66.3646C64.4989 7.07322 63.8649 7.03557 63.8195 6.92188C63.7863 6.8387 63.804 6.49812 63.8589 6.16516L63.9588 5.55979L66.4701 5.52686L68.9816 5.49393L69.1266 4.88529C69.3743 3.84647 69.5662 3.92529 66.7904 3.92529H64.3091L64.3787 3.47126C64.4169 3.2216 64.5142 2.8947 64.5948 2.74481C64.7388 2.47711 64.7839 2.47239 67.1872 2.47239H69.6328L69.7772 2.01836C69.8566 1.76871 69.9619 1.38732 70.0111 1.17084L70.1006 0.77735L66.7589 0.782072C64.2138 0.785704 63.315 0.826869 62.9878 0.954845ZM70.678 1.23138C70.6742 1.48116 70.6439 1.84886 70.6107 2.04863L70.5503 2.41185L72.1451 2.44612C73.7159 2.47978 73.7388 2.48438 73.6673 2.74881C73.6275 2.8964 73.3753 3.99793 73.1069 5.19657C72.8384 6.3952 72.532 7.64457 72.4257 7.97305C72.3195 8.3014 72.2325 8.61462 72.2325 8.66922C72.2325 8.72371 72.8041 8.76826 73.5029 8.76826H74.7731L74.8581 8.19316C74.9048 7.87691 75.0255 7.23667 75.1263 6.77054C75.2271 6.3044 75.404 5.4599 75.5194 4.89388C75.6348 4.32786 75.7945 3.55153 75.8745 3.16857L76.02 2.47239H77.6191H79.2182L79.3583 2.01836C79.4354 1.76871 79.4988 1.38732 79.4992 1.17084L79.5 0.77735H75.0924H70.6848L70.678 1.23138ZM41.4664 1.20329C41.3524 1.35984 41.1792 1.88651 41.0815 2.3736C40.9838 2.8608 40.7695 3.91318 40.6054 4.71227C40.4413 5.51136 40.2837 6.32861 40.2553 6.52839C40.2269 6.72816 40.1109 7.26246 39.9976 7.71564C39.8843 8.16882 39.8268 8.59101 39.87 8.65397C39.9918 8.83122 42.1833 8.79793 42.3133 8.61692C42.3731 8.53374 42.5129 7.97523 42.6241 7.37591L42.8262 6.28624L45.1104 6.26444C47.7925 6.23878 48.1295 6.19471 48.5916 5.80933C49.3515 5.17586 49.7711 2.83186 49.3045 1.82731C48.9623 1.09033 48.8249 1.06309 45.0762 0.987414L41.6737 0.918765L41.4664 1.20329ZM57.7562 2.46937C58.1633 2.6086 58.2265 3.10525 57.8918 3.53506C57.696 3.78678 57.5816 3.80421 56.1304 3.80421H54.5785L54.6733 3.28964C54.8429 2.36851 54.8712 2.35132 56.2132 2.35132C56.872 2.35132 57.5663 2.40447 57.7562 2.46937ZM46.7411 2.73367C47.0772 3.03648 46.7674 4.13741 46.301 4.29686C45.9783 4.40728 43.0281 4.46104 43.0281 4.35655C43.0281 4.21756 43.4597 2.65086 43.5236 2.55775C43.5637 2.49939 44.2539 2.46997 45.0575 2.49225C46.1952 2.52397 46.5676 2.57736 46.7411 2.73367ZM25.05 3.59233C25.0837 3.74222 25.1407 4.06404 25.1768 4.30776L25.2423 4.75065L24.5974 4.79206L23.9526 4.83334L24.3677 4.07663C24.8134 3.26373 24.9539 3.16397 25.05 3.59233ZM27.0801 5.91321C25.9272 6.3883 25.1286 6.81836 25.1286 6.96413C25.1286 7.02407 25.3612 7.07322 25.6454 7.07322H26.1621L26.3399 7.92074L26.5176 8.76826H27.7582H28.9989L28.8945 8.2537C28.837 7.97075 28.7171 7.35775 28.628 6.89161C28.3154 5.25747 28.4558 5.34622 27.0801 5.91321ZM57.1256 5.57553C57.3655 5.6334 57.4284 5.73547 57.4284 6.06612C57.4284 6.90832 57.336 6.95215 55.5619 6.95215C54.6888 6.95215 53.946 6.92684 53.9115 6.89585C53.8771 6.86485 53.9103 6.53795 53.9853 6.1694L54.1218 5.49925L55.4723 5.50095C56.2151 5.5018 56.959 5.53546 57.1256 5.57553Z" fill="#838C9D"/>
</svg>
