<svg width="128" height="22" viewBox="0 0 128 22" fill="none" xmlns="http://www.w3.org/2000/svg">
<rect x="0.500244" y="0.643555" width="127.143" height="20.4597" rx="8" fill="white"/>
<path d="M105.19 11.3366C105.275 10.304 104.969 9.2981 104.331 8.5091L104.295 8.46034C103.595 7.62165 102.545 7.14068 101.415 7.14068C100.512 7.14068 99.6205 7.43445 98.8369 7.99006C97.9283 8.63506 97.043 10.1103 96.1838 11.542L95.959 11.9166C94.9525 13.5907 93.9119 15.322 92.5336 16.3012C91.2921 17.1805 89.8672 17.6452 88.4129 17.6452C86.4511 17.6452 84.6248 16.7792 83.4026 15.2687C82.2904 13.8921 81.7617 12.1504 81.914 10.3644L84.6375 10.6108C84.5522 11.6432 84.8586 12.6492 85.496 13.4381L85.5325 13.4868C86.2322 14.3255 87.2819 14.8065 88.4125 14.8065C89.3152 14.8065 90.2068 14.5127 90.9906 13.9571C91.8988 13.3124 92.7836 11.8383 93.6437 10.4052L93.8692 10.0291C94.8756 8.35548 95.9159 6.62492 97.294 5.64601C98.5351 4.76668 99.9601 4.30196 101.415 4.30196C103.376 4.30196 105.203 5.16803 106.425 6.67845C107.537 8.05529 108.066 9.79697 107.914 11.5828L105.19 11.3366Z" fill="#242B35"/>
<path d="M107.914 10.3644C108.066 12.1502 107.537 13.892 106.425 15.2687C105.203 16.7791 103.376 17.6452 101.415 17.6452C99.9601 17.6452 98.5352 17.1805 97.294 16.3012C95.9159 15.3222 94.8756 13.5916 93.8692 11.918L93.6437 11.542C92.7836 10.109 91.8988 8.63485 90.9906 7.99006C90.2068 7.43452 89.3152 7.14068 88.4125 7.14068C87.2819 7.14068 86.2322 7.62165 85.5325 8.46034L85.496 8.5091C84.8586 9.2981 84.5522 10.304 84.6375 11.3363L81.914 11.5828C81.7617 9.79668 82.2905 8.055 83.4026 6.67845C84.6249 5.1681 86.4511 4.30196 88.4129 4.30196C89.8672 4.30196 91.2921 4.76668 92.5336 5.64601C93.9118 6.6252 94.9525 8.35647 95.959 10.0306L96.1838 10.4052C97.043 11.8368 97.9283 13.3121 98.8369 13.9571C99.6205 14.5127 100.512 14.8065 101.415 14.8065C102.545 14.8065 103.595 14.3255 104.295 13.4868L104.331 13.4381C104.969 12.6491 105.275 11.6432 105.19 10.6106L107.914 10.3644Z" fill="#242B35"/>
<path d="M51.9187 17.6945C46.91 17.6945 45.1126 14.1301 45.0952 11.0776C45.0854 9.19103 45.781 7.40743 47.0037 6.18386C48.2233 4.96193 49.9229 4.31636 51.9187 4.31636C53.707 4.31636 55.3425 4.99401 56.6481 6.27639L56.8319 6.45703L55.7839 7.46161C55.53 7.70455 55.1887 7.83821 54.8231 7.83821C54.5641 7.83821 54.31 7.768 54.0883 7.63476C53.4329 7.24119 52.703 7.04144 51.9187 7.04144C50.7177 7.04144 49.7451 7.40643 49.028 8.12643C48.3032 8.85526 47.8929 9.92956 47.9018 11.0736C47.9194 12.9744 48.984 15.0056 51.9187 15.0056C52.6757 15.0056 53.4925 14.7736 54.1595 14.3691L54.2032 14.3426C54.4242 14.2115 54.6767 14.1417 54.9325 14.1417C55.3271 14.1417 55.7069 14.3065 55.9743 14.5939L56.9872 15.6121L56.8069 15.7888C55.5368 17.0357 53.8465 17.6945 51.9187 17.6945Z" fill="#242B35"/>
<path d="M66.0764 17.4302V12.4386H60.5057V17.4302H57.6631V5.9954C57.6631 5.21545 58.3005 4.581 59.0841 4.581C59.8669 4.581 60.5039 5.21545 60.5039 5.9954L60.5057 9.78466H66.0761L66.078 5.99448C66.078 5.21496 66.7153 4.581 67.4989 4.581C68.2821 4.581 68.9194 5.21545 68.9194 5.9954V17.4303H66.0764V17.4302Z" fill="#242B35"/>
<path d="M116.049 17.4129L111.694 12.8624V17.4127H108.852L108.849 5.97156C108.849 5.19225 109.485 4.55851 110.267 4.55851C111.05 4.55851 111.686 5.19154 111.686 5.9697L111.695 9.37907L115.638 5.01118C115.891 4.72268 116.256 4.55851 116.642 4.55851C117.378 4.55851 117.976 5.1544 117.976 5.88694C117.976 6.21008 117.86 6.52068 117.648 6.76177L113.666 11.0639L119.804 17.4157L116.049 17.4129Z" fill="#242B35"/>
<path d="M38.7089 17.4124V7.1815L34.776 7.17915L34.7784 5.97747C34.7784 5.19794 35.4157 4.5642 36.1989 4.5642L44.065 4.56121C44.8488 4.56121 45.4865 5.19545 45.4865 5.97518L45.4878 7.17758L41.5524 7.18129V17.4124H38.7089Z" fill="#242B35"/>
<path d="M32.1304 5.87319C31.776 5.0772 30.9822 4.56265 30.1082 4.56265C29.2403 4.56265 28.4495 5.07157 28.0938 5.859L22.8847 17.4129H25.9699L27.0324 15.0844H33.1888L34.2335 17.4129H37.337L32.1304 5.87319ZM28.1937 12.4127L30.1109 8.03525L32.0288 12.4127H28.1937Z" fill="#242B35"/>
<path d="M19.3646 17.4115V8.9505L15.7949 13.8126H14.9494L11.3802 8.95093V17.4114H8.53795C8.53795 13.0406 8.53795 10.5901 8.53795 6.21929C8.53795 5.1594 9.39662 4.29711 10.452 4.29711C11.0825 4.29711 11.6723 4.60771 12.0297 5.12846L15.3722 9.71042L18.7179 5.12333C19.0739 4.60443 19.6613 4.29711 20.2921 4.29711C21.348 4.29711 22.207 5.1594 22.207 6.21929V17.4115H19.3646Z" fill="#242B35"/>
<path d="M80.2099 10.7772L80.1142 10.676L80.1954 10.5632C80.599 10.0014 80.8423 9.34524 80.8982 8.66595C80.9853 7.61048 80.6352 6.5987 79.9119 5.81711C79.1605 5.00459 78.0809 4.53873 76.9498 4.53873H71.7427C70.9339 4.53873 70.2758 5.19385 70.2758 5.99939V17.4113L77.3364 17.4096C79.516 17.4096 81.289 15.6432 81.289 13.4718C81.2891 12.4699 80.9058 11.5128 80.2099 10.7772ZM73.0825 7.17049H76.9198C77.5729 7.17049 78.1045 7.70008 78.1045 8.35079C78.1045 9.00171 77.5731 9.5313 76.9203 9.5313L73.0825 9.53201V7.17049ZM77.1724 14.778L73.0825 14.7789V12.1663H77.1716C77.8944 12.1663 78.4824 12.7519 78.4824 13.4719C78.4824 14.1921 77.8946 14.778 77.1724 14.778Z" fill="#242B35"/>
</svg>
