<svg width="71" height="23" viewBox="0 0 71 23" fill="none" xmlns="http://www.w3.org/2000/svg">
<path d="M0.977743 13.8479C2.16874 14.4901 3.47883 14.8323 4.80964 14.8488C6.39396 14.8378 7.22754 14.1226 7.22114 13.0453C7.21508 12.018 6.48717 11.435 4.64982 10.7382C2.10867 9.80121 0.447178 8.2949 0.432986 5.89638C0.416398 3.0813 2.57683 0.912863 6.17589 0.887956C7.51381 0.851611 8.84337 1.12615 10.0748 1.69302L9.32299 4.7088C8.3247 4.19537 7.23117 3.93505 6.12575 3.94769C4.63178 3.95804 3.91171 4.69743 3.91677 5.55441C3.923 6.60671 4.78665 7.06514 6.7609 7.85963C9.46039 8.9182 10.7375 10.4271 10.7513 12.7519C10.7676 15.5181 8.81198 17.8815 4.62401 17.9104C2.88113 17.9225 1.15755 17.4441 0.294617 16.9369L0.977743 13.8479Z" fill="#707D9B"/>
<path d="M15.4985 2.29165C15.5046 3.32 14.7851 4.15711 13.6524 4.16493C12.5668 4.17244 11.8374 3.34537 11.8535 2.31687C11.8251 1.24081 12.5446 0.427648 13.6534 0.419977C14.763 0.412266 15.4691 1.21561 15.4985 2.29165ZM12.0342 17.6143L11.9634 5.64549L15.4048 5.62169L15.4757 17.5905L12.0342 17.6143Z" fill="#707D9B"/>
<path d="M17.2217 9.42807C17.2128 7.93431 17.1601 6.66211 17.1088 5.61006L20.0967 5.58938L20.2649 7.22852L20.3332 7.22803C20.7084 6.62571 21.2162 6.13372 21.8109 5.79633C22.4057 5.45893 23.0687 5.28672 23.7403 5.29522C26.0038 5.27955 27.7111 6.88312 27.7319 10.4077L27.7739 17.5056L24.3334 17.5295L24.2942 10.8969C24.285 9.3543 23.7802 8.30546 22.536 8.31405C21.5848 8.32063 21.0231 9.03406 20.8005 9.72121C20.7043 10.0201 20.6602 10.3357 20.6705 10.6519L20.7113 17.5546L17.2699 17.5784L17.2217 9.42807Z" fill="#707D9B"/>
<path d="M40.0742 5.45102C40.0336 6.20969 39.9942 7.21344 40.0047 9.00114L40.0445 15.6826C40.0579 17.9834 39.6389 19.8708 38.4006 21.0792C37.1852 22.2137 35.5347 22.5679 33.9042 22.5791C32.4556 22.5892 30.9146 22.2809 29.9147 21.676L30.5773 18.8562C31.5666 19.4341 32.6728 19.7377 33.7973 19.7398C35.4266 19.7285 36.6661 18.7653 36.6532 16.563L36.6486 15.7798L36.6035 15.7801C35.9532 16.7881 34.893 17.3585 33.6247 17.3673C30.8854 17.3862 28.9248 15.0012 28.9045 11.5493C28.8817 7.70685 31.1758 5.24352 33.8919 5.22473C35.4092 5.21422 36.3645 5.91717 36.9362 6.89279L36.9814 6.89248L37.0863 5.47169L40.0742 5.45102ZM36.5712 10.3463C36.5723 10.1157 36.5483 9.88575 36.5 9.66116C36.2445 8.68436 35.5841 8.02721 34.6331 8.03377C33.3889 8.04239 32.3767 9.27413 32.3895 11.4524C32.4001 13.2391 33.2231 14.6286 34.672 14.6186C35.0868 14.616 35.4892 14.4643 35.8154 14.1872C36.1418 13.9102 36.3734 13.5236 36.474 13.0884C36.5574 12.7698 36.5938 12.4389 36.5817 12.108L36.5712 10.3463Z" fill="#707D9B"/>
<path d="M42.937 1.12393C44.1224 0.878368 45.3269 0.755246 46.5337 0.756232C48.5035 0.742612 49.7738 1.10154 50.7291 1.92703C51.5255 2.55731 52.0068 3.53358 52.0142 4.83096C52.0237 6.42133 51.0587 7.82315 49.4551 8.47099L49.4554 8.51982C50.9066 8.90142 52.6119 10.1871 52.6265 12.6345C52.6391 13.2519 52.5325 13.8653 52.3138 14.4358C52.0949 15.0062 51.7687 15.5212 51.3557 15.9478C50.2975 17.0075 48.5807 17.5086 46.0901 17.5258C45.0688 17.541 44.0475 17.4828 43.033 17.3517L42.937 1.12393ZM44.9464 7.86549L46.7344 7.85313C48.8174 7.8387 50.0325 6.65548 50.0231 5.06501C50.0116 3.13083 48.6487 2.38191 46.6569 2.39568C46.0727 2.38311 45.489 2.43624 44.915 2.55422L44.9464 7.86549ZM44.9933 15.7716C45.5413 15.8474 46.0941 15.8762 46.6464 15.8578C48.683 15.8437 50.5576 15.0236 50.5433 12.6241C50.5301 10.373 48.7365 9.45466 46.5855 9.46952L44.9562 9.4808L44.9933 15.7716Z" fill="#707D9B"/>
<path d="M55.0486 11.786C55.1112 14.6984 56.8389 15.8853 58.8307 15.8715C60.2564 15.8617 61.1157 15.5866 61.86 15.2387L62.2093 16.7789C61.509 17.1265 60.3125 17.5264 58.5685 17.5385C55.1953 17.5618 53.1663 15.1772 53.1452 11.6028C53.124 8.02944 55.0549 5.20192 58.2467 5.17982C61.8234 5.15513 62.7948 8.55051 62.8076 10.7288C62.8059 11.0645 62.785 11.3998 62.7453 11.7328L55.0486 11.786ZM60.8802 10.203C60.8942 8.83271 60.3388 6.70699 58.0972 6.72247C56.0825 6.7365 55.2113 8.74945 55.0618 10.2432L60.8802 10.203Z" fill="#707D9B"/>
<path d="M67.6292 1.98047L67.6492 5.38246L70.5019 5.36274L70.5116 7.00195L67.6589 7.02169L67.6969 13.4102C67.7055 14.879 68.0948 15.7084 69.2045 15.7007C69.5935 15.7038 69.9811 15.6519 70.3576 15.5463L70.4582 17.1609C69.8928 17.3796 69.2945 17.4834 68.6942 17.4671C67.7661 17.4735 67.0166 17.1598 66.5375 16.5762C65.9681 15.9434 65.758 14.8925 65.7497 13.4974L65.7114 7.0352L64.0138 7.04694L64.0041 5.40771L65.7017 5.396L65.6851 2.55699L67.6292 1.98047Z" fill="#707D9B"/>
</svg>
