<svg width="73" height="10" viewBox="0 0 73 10" fill="none" xmlns="http://www.w3.org/2000/svg">
<g clip-path="url(#clip0_35_69020)">
<path d="M64.2788 9.38649C63.2715 9.38649 62.2642 9.38794 61.257 9.38561C60.9536 9.39364 60.6523 9.33554 60.3743 9.21547C60.0466 9.06536 59.7784 8.81229 59.611 8.49561C59.4436 8.17893 59.3866 7.81637 59.4488 7.4643C59.5548 6.80591 59.9067 6.29442 60.397 5.86287C60.6915 5.58998 61.0252 5.3615 61.3868 5.18477C61.4768 5.14346 61.4665 5.09636 61.4022 5.03914C61.2204 4.88848 61.0754 4.69896 60.9783 4.48488C60.7628 3.97067 60.8431 3.47122 61.0644 2.98266C61.4222 2.19355 62.0339 1.65066 62.7914 1.24781C63.3739 0.937248 64.0262 0.777975 64.6876 0.784884C66.5936 0.790157 68.4998 0.786518 70.406 0.788917C70.7956 0.774935 71.1815 0.870461 71.5188 1.06446C72.2289 1.49981 72.4906 2.33626 72.1706 3.13807C71.8625 3.90978 71.3094 4.47247 70.6136 4.91181C70.5385 4.9592 70.4624 5.00508 70.3859 5.05024C70.3029 5.0992 70.295 5.15393 70.3613 5.2256C70.4328 5.30094 70.5 5.38021 70.5624 5.46306C70.9069 5.9335 70.91 6.44524 70.7387 6.97428C70.5698 7.45857 70.279 7.89225 69.8938 8.23437C69.4707 8.64273 68.9653 8.95795 68.4106 9.15941C68.0187 9.30665 67.6037 9.3841 67.1846 9.3882C66.2161 9.38291 65.2476 9.38651 64.2788 9.38649ZM66.6797 2.85969V2.86109C65.913 2.86109 65.1464 2.85607 64.3797 2.86297C64.1527 2.86798 63.9351 2.95244 63.7652 3.10134C63.5952 3.25024 63.4842 3.45395 63.4514 3.6763C63.4368 3.76028 63.4524 3.84673 63.4954 3.92048C63.5385 3.99426 63.6064 4.05067 63.6873 4.07988C63.7672 4.11036 63.8521 4.12521 63.9375 4.12355C65.4631 4.12298 66.9887 4.1253 68.5144 4.12052C68.7218 4.11862 68.9224 4.04734 69.0837 3.91823C69.2449 3.78913 69.3573 3.60982 69.4025 3.40945C69.4298 3.31275 69.4264 3.21012 69.3932 3.11531C69.3279 2.94456 69.1889 2.86022 68.9684 2.85999C68.2056 2.8592 67.4425 2.8591 66.6797 2.85969ZM65.4841 6.07473V6.07736C64.7211 6.07736 63.9578 6.07468 63.1945 6.0784C62.989 6.07648 62.7888 6.14365 62.6269 6.26894C62.4649 6.3942 62.3508 6.57015 62.3027 6.76806C62.2224 7.0755 62.3939 7.31081 62.7161 7.31154C64.2465 7.31493 65.7769 7.31483 67.3073 7.31118C67.515 7.31649 67.7185 7.25313 67.886 7.13114C68.0532 7.00914 68.1747 6.83544 68.2312 6.63746C68.3273 6.33028 68.167 6.09829 67.8436 6.07826C67.7819 6.07444 67.7197 6.07487 67.6578 6.07485C66.9332 6.07463 66.2087 6.07461 65.4841 6.07473Z" fill="#838C9D"/>
<path d="M40.9599 9.38621C39.9911 9.38621 39.0223 9.38625 38.0536 9.38635C37.6843 9.40046 37.3171 9.32295 36.9855 9.16083C36.704 9.00056 36.4756 8.76284 36.3277 8.47654C36.1801 8.19025 36.1194 7.86765 36.1531 7.54784C36.2476 6.82528 36.637 6.27495 37.1747 5.81216C37.4472 5.56651 37.7524 5.3592 38.082 5.19609C38.188 5.14645 38.1914 5.09489 38.0885 5.00501C37.9376 4.87529 37.8139 4.7171 37.7252 4.53966C37.6364 4.36224 37.5843 4.16907 37.5716 3.97148C37.5556 3.64866 37.6211 3.32698 37.7622 3.03555C38.1048 2.24416 38.6978 1.68789 39.4498 1.27948C40.0756 0.942454 40.7788 0.771682 41.4909 0.783807C43.3818 0.791549 45.273 0.783104 47.1641 0.790424C47.7044 0.792525 48.2022 0.941182 48.5799 1.34943C49.0136 1.8179 49.1308 2.36884 48.944 2.97273C48.7199 3.69662 48.2493 4.24463 47.6442 4.69015C47.476 4.81388 47.2983 4.92282 47.1198 5.03089C46.9911 5.10896 46.9837 5.13932 47.0921 5.24706C47.3002 5.44407 47.4495 5.69403 47.5238 5.96952C47.6298 6.38663 47.5545 6.78274 47.382 7.16593C47.0356 7.93569 46.4503 8.48092 45.7167 8.88555C45.0959 9.23202 44.3924 9.40679 43.6801 9.39154C42.7735 9.37714 41.8667 9.3881 40.9599 9.3881V9.38621ZM42.9551 4.12438V4.12239C43.7141 4.12239 44.4731 4.12803 45.2318 4.12017C45.6497 4.11581 45.9398 3.90483 46.1037 3.52671C46.2795 3.12107 46.0279 2.85132 45.655 2.85487C44.474 2.86612 43.2931 2.85739 42.1121 2.85716C41.7792 2.85709 41.4459 2.85445 41.1132 2.86226C40.8979 2.8633 40.6896 2.93816 40.5241 3.07411C40.3583 3.21005 40.2452 3.39865 40.204 3.60783C40.143 3.88837 40.2956 4.09433 40.5855 4.11905C40.6549 4.12497 40.7248 4.12414 40.7946 4.12417C41.5148 4.1245 42.2351 4.12457 42.9551 4.12438ZM42.2241 6.07447V6.07698C41.4567 6.07698 40.6894 6.07205 39.9222 6.07887C39.7203 6.07309 39.5228 6.13664 39.3627 6.25873C39.2027 6.38082 39.0905 6.55395 39.0448 6.74873C38.9688 7.04997 39.0927 7.24416 39.4003 7.29904C39.473 7.31038 39.5464 7.31538 39.6199 7.31398C40.5267 7.31493 41.4335 7.31512 42.3401 7.31455C42.9058 7.31441 43.4718 7.31874 44.0375 7.31171C44.2566 7.31261 44.4697 7.23999 44.6419 7.1057C44.8139 6.97144 44.9352 6.78338 44.9857 6.57219C45 6.52513 45.005 6.4757 45 6.42677C44.995 6.37784 44.9802 6.33038 44.9565 6.28713C44.9328 6.24388 44.9008 6.20573 44.8622 6.17484C44.8235 6.14396 44.779 6.12096 44.7314 6.1072C44.6307 6.07804 44.5257 6.06705 44.4212 6.07482C43.6887 6.07411 42.9563 6.07399 42.2241 6.07447Z" fill="#838C9D"/>
<path d="M16.4157 9.38854C15.1176 9.38854 13.8194 9.38851 12.5212 9.38847C12.2158 9.38847 12.1905 9.35491 12.2915 9.07254C12.475 8.56006 12.6722 8.05244 12.8436 7.53563C12.9088 7.33905 13.0147 7.2697 13.2405 7.26918C13.7404 7.26809 14.2402 7.27129 14.7401 7.27138C16.6389 7.27171 18.5377 7.27209 20.4365 7.27252C20.6877 7.27278 20.9389 7.30764 21.1899 7.26709C21.6287 7.19621 21.917 6.93796 22.0768 6.54215C22.1716 6.30729 22.0387 6.10439 21.7898 6.05226C21.7097 6.03826 21.6283 6.03263 21.547 6.03545C19.7878 6.03457 18.0284 6.03869 16.2691 6.02974C15.8353 6.02753 15.4007 5.98282 15.0006 5.79124C14.3354 5.47285 14.0335 4.89704 14.1656 4.17751C14.2993 3.4492 14.5361 2.75676 15.0238 2.17978C15.6367 1.43285 16.512 0.942801 17.4744 0.807787C17.8816 0.755178 18.2921 0.732591 18.7026 0.740212C21.1788 0.739116 23.655 0.739558 26.1311 0.741539C26.4186 0.741627 26.4488 0.781597 26.3538 1.04864C26.1699 1.56508 25.9847 2.08107 25.7981 2.5966C25.7304 2.78431 25.6374 2.84922 25.4334 2.85767C25.3869 2.85958 25.3403 2.85849 25.2939 2.85855C22.7518 2.85855 20.2097 2.85871 17.6676 2.85904C17.5747 2.85592 17.4817 2.86008 17.3894 2.87147C17.1849 2.90436 16.9969 3.00254 16.854 3.15106C16.7112 3.29956 16.6212 3.49027 16.598 3.69407C16.5732 3.9037 16.6657 4.03377 16.874 4.07643C17.0338 4.10677 17.1963 4.12079 17.359 4.11828C19.1454 4.1174 20.9318 4.11477 22.7182 4.12015C23.096 4.12174 23.468 4.21266 23.8031 4.38532C24.3844 4.68137 24.611 5.25562 24.5579 5.83351C24.4928 6.62303 24.1751 7.37142 23.6508 7.96971C22.9519 8.77412 22.0708 9.24873 20.9938 9.34697C20.6427 9.37902 20.2906 9.38901 19.9381 9.38884C18.764 9.38821 17.5899 9.38811 16.4157 9.38854Z" fill="#838C9D"/>
<path d="M31.3608 0.789544C32.7286 0.789544 34.0966 0.78551 35.4643 0.791829C35.9157 0.793912 36.3499 0.8767 36.7256 1.15396C37.2447 1.53709 37.5327 2.31229 37.2873 2.94979C37.0144 3.66002 36.5355 4.27448 35.9107 4.71579C35.7605 4.82476 35.6026 4.9217 35.4433 5.01672C35.3103 5.09613 35.3072 5.12178 35.4179 5.22905C35.7602 5.56075 35.9439 5.95867 35.9064 6.43557C35.866 6.93659 35.6686 7.41262 35.3419 7.79722C34.6283 8.65817 33.7234 9.199 32.5989 9.35711C32.4724 9.3745 32.3447 9.38307 32.2169 9.38276C29.5161 9.38418 26.8152 9.38454 24.1143 9.38381C23.7969 9.38381 23.7818 9.36247 23.8907 9.06539C24.0781 8.55422 24.2678 8.04382 24.4529 7.53187C24.4725 7.46304 24.5129 7.40191 24.5691 7.35693C24.6251 7.31196 24.694 7.28534 24.766 7.28077C24.8275 7.27463 24.8897 7.27321 24.9516 7.27321C27.4082 7.27285 29.8651 7.2729 32.3219 7.2734C32.4693 7.28041 32.6164 7.25855 32.7554 7.2091C32.9061 7.15121 33.0381 7.0537 33.1374 6.92702C33.2364 6.80033 33.2986 6.6493 33.3175 6.49019C33.3323 6.40407 33.3156 6.31554 33.2704 6.24048C33.2252 6.16545 33.1546 6.1088 33.0711 6.08071C32.9642 6.04547 32.852 6.02955 32.7393 6.0337C30.9802 6.03448 29.2209 6.03462 27.4618 6.03419C27.1915 6.03419 27.1774 6.01148 27.2716 5.7591C27.4357 5.32099 27.5998 4.8829 27.7587 4.44299C27.8558 4.17432 27.9232 4.12191 28.217 4.1221C29.058 4.12264 29.8988 4.12338 30.7396 4.12428C31.6388 4.12468 32.5377 4.12465 33.4366 4.1242C33.5567 4.12837 33.677 4.11909 33.7949 4.09652C33.9763 4.05164 34.1406 3.95527 34.2674 3.81925C34.3944 3.68325 34.4783 3.51351 34.5092 3.3309C34.519 3.27392 34.5161 3.21556 34.5011 3.15974C34.486 3.10394 34.459 3.05197 34.4219 3.00735C34.3848 2.96275 34.3386 2.92654 34.2863 2.90117C34.2336 2.87581 34.1765 2.86187 34.1181 2.86031C34.0523 2.85617 33.9863 2.85707 33.9205 2.85707C31.4639 2.85693 29.0071 2.85688 26.5502 2.85693C26.2297 2.85693 26.2141 2.83399 26.3225 2.54158C26.5088 2.03818 26.6945 1.53446 26.8791 1.03044C26.9504 0.836597 27.0207 0.786441 27.2339 0.786398C28.6095 0.786105 29.9852 0.786055 31.3608 0.786248V0.789544Z" fill="#838C9D"/>
<path d="M54.669 0.787728C56.0288 0.787728 57.3889 0.787795 58.7491 0.78793C59.111 0.778486 59.4698 0.85859 59.7927 1.02099C60.3302 1.30541 60.6041 1.75942 60.6316 2.35854C60.6598 2.97549 60.3682 3.47381 60.0092 3.94048C59.6552 4.37906 59.2184 4.74498 58.7227 5.01764C58.59 5.09523 58.585 5.12069 58.6955 5.22878C58.9804 5.48831 59.16 5.8418 59.2007 6.22302C59.2167 6.48381 59.1736 6.74488 59.0744 6.987C58.8072 7.71411 58.3096 8.2561 57.6662 8.67694C57.1277 9.03699 56.5125 9.26869 55.8683 9.35389C55.5952 9.38351 55.3198 9.3941 55.045 9.38553C54.4178 9.37807 53.7901 9.35876 53.163 9.36923C51.2414 9.4013 49.3199 9.37328 47.3984 9.38356C47.0819 9.38527 47.0666 9.36511 47.1714 9.07685C47.3599 8.55798 47.5515 8.04019 47.7414 7.52179C47.7603 7.45673 47.7988 7.39892 47.8517 7.35603C47.9046 7.31314 47.9694 7.28718 48.0376 7.28164C48.0993 7.27557 48.161 7.27275 48.2229 7.2732C50.6989 7.2728 53.1749 7.27346 55.6509 7.27519C55.8396 7.28604 56.0272 7.23765 56.1867 7.13692C56.346 7.03617 56.4695 6.88822 56.5391 6.71409C56.707 6.35691 56.5706 6.0993 56.1781 6.04181C56.1205 6.03518 56.0623 6.03272 56.0042 6.03447C54.2451 6.03412 52.486 6.034 50.7269 6.03414C50.4954 6.03414 50.4686 5.99246 50.5494 5.77553C50.7169 5.32648 50.8838 4.87724 51.0467 4.4266C51.1379 4.17505 51.206 4.12209 51.4814 4.12216C53.0429 4.12256 54.6044 4.12325 56.1659 4.12422C56.3984 4.12429 56.6309 4.12702 56.8634 4.12126C57.0727 4.12031 57.2758 4.05059 57.4409 3.92302C57.6057 3.79546 57.7234 3.61728 57.775 3.41642C57.8614 3.10668 57.687 2.87029 57.3624 2.85823C57.3083 2.85622 57.2538 2.85698 57.1997 2.85698C54.7508 2.85692 52.3021 2.85678 49.8531 2.85655C49.7873 2.85793 49.7215 2.8547 49.6562 2.84689C49.5381 2.83019 49.5139 2.79526 49.552 2.6843C49.6113 2.51029 49.678 2.3386 49.7419 2.16602C49.8856 1.77771 50.0296 1.38942 50.1736 1.00118C50.2375 0.828366 50.2971 0.786427 50.4841 0.786392C51.8789 0.786111 53.2739 0.786058 54.6687 0.786234L54.669 0.787728Z" fill="#838C9D"/>
<path d="M9.85399 7.08772C8.96947 7.05631 8.15197 7.06626 7.33495 7.07467C6.63394 7.08184 5.93301 7.0876 5.23202 7.08649C4.92625 7.08601 4.6205 7.07465 4.3147 7.07187C4.09966 7.06991 4.03737 7.11694 3.96288 7.31724C3.73705 7.92446 3.51081 8.53151 3.28419 9.13844C3.20241 9.35714 3.15134 9.39077 2.91589 9.39079C2.23011 9.39087 1.54431 9.39087 0.858515 9.39079C0.827522 9.39079 0.79649 9.39132 0.76554 9.39008C0.600443 9.38355 0.561042 9.33405 0.616154 9.181C0.779751 8.72662 0.948023 8.27382 1.11435 7.82039C1.68197 6.27286 2.24951 4.72531 2.81699 3.17774C3.07152 2.48305 3.32342 1.78739 3.57805 1.09278C3.6789 0.817635 3.75308 0.767839 4.05055 0.767804C6.10793 0.767567 8.16537 0.75833 10.2227 0.772612C10.9701 0.777797 11.7177 0.771082 12.4651 0.786032C12.85 0.792377 13.2218 0.925953 13.5213 1.16552C13.8208 1.40509 14.0308 1.73691 14.1179 2.10823C14.1808 2.41798 14.1564 2.73886 14.0474 3.03582C13.8541 3.62992 13.6362 4.2158 13.4107 4.79862C13.1864 5.3785 12.7723 5.81434 12.2927 6.19655C11.7179 6.67156 11.0165 6.97152 10.2732 7.06015C10.1119 7.07832 9.94896 7.08175 9.85399 7.08772ZM7.43149 4.92426C8.2099 4.92426 8.98829 4.92452 9.76671 4.92502C9.94537 4.92556 10.1219 4.88649 10.2833 4.8106C10.8181 4.56289 11.0712 4.11485 11.1605 3.56574C11.2134 3.2406 11.0847 3.02427 10.8219 2.92134C10.7016 2.87772 10.574 2.85735 10.446 2.86133C9.93097 2.86239 9.41589 2.86249 8.90084 2.86165C7.87847 2.86086 6.85611 2.85995 5.83374 2.85893C5.6358 2.85883 5.58697 2.88793 5.52935 3.04279C5.3195 3.60654 5.11058 4.17065 4.90254 4.73507C4.84377 4.89461 4.86597 4.92402 5.03817 4.92412C5.83596 4.92447 6.63373 4.92452 7.43149 4.92426Z" fill="#838C9D"/>
</g>
<defs>
<clipPath id="clip0_35_69020">
<rect width="72" height="9" fill="white" transform="translate(0.5 0.618164)"/>
</clipPath>
</defs>
</svg>
