<svg width="62" height="29" viewBox="0 0 62 29" fill="none" xmlns="http://www.w3.org/2000/svg">
<g clip-path="url(#clip0_5634_42810)">
<path d="M53.3279 11.4274C50.25 11.6157 51.632 15.5628 55.0347 15.3544C58.3632 15.1507 56.6072 11.2267 53.3279 11.4274Z" fill="white"/>
<path d="M52.0286 8.98953C50.0674 8.98953 48.1502 9.56217 46.5195 10.635C44.8888 11.7079 43.6179 13.2328 42.8674 15.0169C42.1168 16.801 41.9205 18.7642 42.3031 20.6582C42.6857 22.5522 43.6301 24.292 45.0169 25.6575C46.4037 27.023 48.1705 27.9529 50.094 28.3296C52.0176 28.7064 54.0113 28.513 55.8232 27.774C57.6352 27.035 59.1838 25.7836 60.2734 24.1779C61.363 22.5722 61.9446 20.6845 61.9446 18.7534C61.9446 16.1639 60.8998 13.6804 59.0402 11.8493C57.1806 10.0182 54.6584 8.98953 52.0286 8.98953ZM52.0286 27.494C50.2733 27.4943 48.5574 26.982 47.0978 26.0221C45.6382 25.0621 44.5005 23.6974 43.8285 22.1008C43.1566 20.5041 42.9806 18.747 43.3229 17.0519C43.6651 15.3567 44.5102 13.7996 45.7513 12.5774C46.9923 11.3551 48.5736 10.5227 50.2951 10.1854C52.0166 9.84815 53.801 10.0211 55.4227 10.6824C57.0444 11.3438 58.4305 12.4638 59.4057 13.9008C60.3809 15.3379 60.9014 17.0274 60.9014 18.7557C60.9014 21.073 59.9667 23.2953 58.3027 24.934C56.6388 26.5728 54.3819 27.4936 52.0286 27.494ZM51.7295 2.17327C49.3754 3.92539 49.7846 6.61237 49.7846 6.61237C49.7846 6.61237 48.305 2.83061 46.3835 0.518799C46.1242 3.49486 47.0713 7.43807 47.0713 7.43807C47.0713 7.43807 45.8681 4.99326 42.9199 4.85641C45.3653 6.24027 46.314 8.73352 46.531 9.40238C47.9883 8.51662 49.6549 8.02006 51.3664 7.96163C51.1736 7.3389 50.4881 4.71495 51.7295 2.17327Z" fill="white"/>
<path d="M0.863551 19.7106V21.7541H0V16.4893H1.81767C2.43398 16.4893 2.89724 16.6336 3.20748 16.9221C3.51771 17.2107 3.67387 17.6059 3.67595 18.1076C3.67595 18.6053 3.51693 18.9969 3.19889 19.2824C2.88085 19.5679 2.42148 19.7106 1.8208 19.7106H0.863551ZM2.79444 18.1076C2.79444 17.8093 2.70985 17.5818 2.54068 17.4249C2.37151 17.2681 2.10032 17.1899 1.7271 17.1905H0.863551V19.0171H1.7271C2.43814 19.0171 2.79392 18.714 2.79444 18.1076ZM7.24024 21.7541L5.90744 19.6514H5.29374V21.7541H4.43019V16.4893H6.31657C6.92715 16.4893 7.39041 16.6359 7.70637 16.9291C8.02233 17.2222 8.18005 17.6102 8.17953 18.093C8.17953 18.5031 8.06215 18.8411 7.8274 19.1071C7.59264 19.3731 7.2543 19.542 6.81237 19.6137L8.21779 21.7541H7.24024ZM5.29374 19.0471H6.2463C6.9438 19.0471 7.2923 18.744 7.29178 18.1376C7.29178 17.8496 7.20719 17.6246 7.03802 17.4626C6.86859 17.3012 6.60546 17.2204 6.2463 17.2204H5.29374V19.0471ZM12.1483 20.6132H9.89102L9.48188 21.7541H8.55821L10.5274 16.5716H11.5197L13.4811 21.7541H12.5566L12.1483 20.6132ZM11.9054 19.9574L11.0193 17.4972L10.1331 19.9574H11.9054ZM17.8433 16.9068C18.2672 17.215 18.5654 17.6621 18.6842 18.1676H17.7754C17.6622 17.8875 17.4618 17.6499 17.2031 17.4888C16.9211 17.3149 16.5933 17.2267 16.2607 17.235C15.9456 17.23 15.6352 17.3097 15.3628 17.4657C15.0963 17.6212 14.8808 17.8488 14.7421 18.1215C14.5877 18.4333 14.5124 18.7773 14.5226 19.124C14.5125 19.4827 14.5905 19.8385 14.7499 20.1611C14.8912 20.439 15.114 20.6688 15.3893 20.8208C15.683 20.9779 16.0131 21.0574 16.3473 21.0514C16.7669 21.0586 17.1741 20.9117 17.4896 20.6393C17.8072 20.3687 17.999 19.9971 18.0651 19.5246H16.1014V18.898H18.7897V19.7106C18.733 20.0893 18.5893 20.4503 18.3696 20.7662C18.1467 21.085 17.8478 21.345 17.499 21.5235C17.1163 21.717 16.6908 21.8142 16.2607 21.8064C15.7781 21.8161 15.3018 21.6977 14.8818 21.4635C14.4879 21.24 14.1674 20.9099 13.9581 20.5125C13.7439 20.0792 13.6325 19.6036 13.6325 19.1217C13.6325 18.6398 13.7439 18.1642 13.9581 17.7309C14.1665 17.3351 14.4857 17.0064 14.8779 16.7838C15.2973 16.552 15.772 16.4349 16.2529 16.4447C16.8895 16.4447 17.4196 16.5987 17.8433 16.9068ZM24.8868 16.5716V21.7541H24.0155V17.8693L22.4937 21.7541H21.7363L20.206 17.8693V21.7541H19.3432V16.5716H20.3879L22.1299 20.7101L23.8414 16.5716H24.8868ZM29.1124 20.6132H26.8591L26.45 21.7541H25.5232L27.4923 16.5716H28.4839L30.446 21.7541H29.5216L29.1124 20.6132ZM28.8704 19.9574L27.9842 17.4972L27.098 19.9574H28.8704ZM34.1415 16.4893V17.1751H32.6494V21.7541H31.7781V17.1751H30.2946V16.4893H34.1415ZM35.4665 16.4893V21.7541H34.6037V16.4893H35.4665ZM40.3519 16.9291C40.79 17.2633 41.0997 17.7341 41.2303 18.2645H40.3136C40.1966 17.9572 39.9864 17.6929 39.7116 17.5072C39.4118 17.3138 39.0588 17.216 38.7005 17.2274C38.4 17.2226 38.1045 17.3027 37.8487 17.458C37.5929 17.6192 37.3882 17.8477 37.2576 18.1176C37.1156 18.4323 37.0422 18.7728 37.0422 19.1171C37.0422 19.4614 37.1156 19.8019 37.2576 20.1165C37.3879 20.3868 37.5927 20.6157 37.8487 20.7769C38.1044 20.9323 38.4 21.0124 38.7005 21.0076C39.0587 21.0191 39.4118 20.9217 39.7116 20.7285C39.9849 20.5446 40.1949 20.2832 40.3136 19.9789H41.2303C41.1005 20.5083 40.7905 20.978 40.3519 21.3097C39.9178 21.6357 39.3725 21.7987 38.7161 21.7987C38.2462 21.8074 37.7827 21.69 37.3755 21.4589C36.9889 21.2351 36.676 20.9062 36.4745 20.5117C36.2647 20.0772 36.1559 19.6021 36.1559 19.1209C36.1559 18.6398 36.2647 18.1647 36.4745 17.7302C36.6767 17.3351 36.9893 17.0052 37.3755 16.7791C37.782 16.546 38.2458 16.4274 38.7161 16.4363C39.372 16.4368 39.9172 16.601 40.3519 16.9291ZM45.3036 19.7106V21.7541H44.4409V16.4893H46.2585C46.8738 16.4893 47.3371 16.6336 47.6483 16.9221C47.9596 17.2107 48.1158 17.6059 48.1168 18.1076C48.1168 18.6053 47.9578 18.9969 47.6398 19.2824C47.3217 19.5679 46.8624 19.7106 46.2617 19.7106H45.3036ZM47.2377 18.1076C47.2377 17.8093 47.1531 17.5818 46.9839 17.4249C46.8147 17.2681 46.5433 17.1899 46.1695 17.1905H45.3036V19.0171H46.1672C46.8808 19.0171 47.2377 18.714 47.2377 18.1076ZM49.598 21.0906H51.4461V21.7541H48.7344V16.4893H49.598V21.0906ZM55.3992 20.6132H53.1427L52.7336 21.7541H51.8092L53.7791 16.5716H54.7707L56.7328 21.7541H55.8084L55.3992 20.6132ZM55.1572 19.9574L54.271 17.4972L53.3848 19.9574H55.1572ZM60.1987 16.4893L58.4193 19.8375V21.7541H57.5503V19.8375L55.7631 16.4893H56.7633L57.9907 18.928L59.2173 16.4893H60.1987Z" fill="white"/>
</g>
<defs>
<clipPath id="clip0_5634_42810">
<rect width="62" height="28" fill="white" transform="translate(0 0.518799)"/>
</clipPath>
</defs>
</svg>
