<svg width="85" height="23" viewBox="0 0 85 23" fill="none" xmlns="http://www.w3.org/2000/svg">
<path opacity="0.5" d="M0.159784 6.25024L8.02811 21.1798L6.75897 13.1813L10.6712 10.6753L14.8339 9.35108L6.32454 9.69523L5.80339 5.51189L10.5781 2.75017L15.9237 1.17993C15.9237 1.17993 -1.85929 1.55428 0.159784 6.25024Z" fill="white"/>
<path d="M2.13142 4.59619L8.01743 21.2852L7.91464 12.5412L13.6036 12.471L17.1164 8.7838L7.87178 8.89792L7.82038 4.52598L14.2205 4.44695L19.1469 0.0135426C19.1469 0.0135426 0.649193 -0.486878 2.13142 4.59619Z" fill="white"/>
<path d="M20.9374 20.5148L15.7339 20.579C15.5286 20.5759 15.3323 20.4923 15.1853 20.3453C15.0383 20.1984 14.9519 19.9993 14.9438 19.7891L14.9203 17.7926C14.9235 17.5822 15.0052 17.3811 15.1487 17.2305C15.2921 17.08 15.4864 16.9916 15.6916 16.9834L18.5533 16.9481L18.5455 16.2848L14.9032 16.3297L14.8828 14.5935L20.0863 14.5293C20.2916 14.5324 20.4879 14.616 20.6349 14.763C20.7819 14.9099 20.8683 15.109 20.8764 15.3192L20.9374 20.5148ZM18.5753 18.814L18.569 18.2812L17.2683 18.2973L17.2746 18.83L18.5753 18.814Z" fill="white"/>
<path d="M24.0519 20.4764L21.7102 20.5053L21.6396 14.5101L23.9814 14.4812L24.0519 20.4764Z" fill="white"/>
<path d="M30.0925 14.406L29.3322 16.1519L27.1242 16.1791L27.1743 20.438L24.8326 20.4669L24.7715 15.2714C24.7746 15.061 24.8564 14.8598 24.9998 14.7093C25.1433 14.5588 25.3376 14.4703 25.5428 14.4621L30.0925 14.406Z" fill="white"/>
<path d="M37.0277 18.5865L36.2739 20.3257L30.55 20.3964L30.4561 12.4057L36.9541 12.3254L36.2003 14.0638L32.8183 14.1055L32.8371 15.7055L36.2192 15.6637L36.2346 16.9969L32.8528 17.0387L32.8716 18.6378L37.0277 18.5865Z" fill="white"/>
<path d="M44.065 20.2292L41.4696 20.2612L40.804 19.2682L40.1682 20.2773L37.5665 20.3094L39.4858 17.2878L37.4961 14.3143L40.0978 14.2822L40.7571 15.2753L41.3992 14.2662L43.9943 14.2341L42.0812 17.2557L44.065 20.2292Z" fill="white"/>
<path d="M50.5499 18.4195L49.7898 20.1587L45.3667 20.2134C45.1616 20.2103 44.9651 20.1267 44.8181 19.9797C44.6714 19.8328 44.5849 19.6336 44.5769 19.4234L44.5254 15.0275C44.5282 14.8171 44.6098 14.6159 44.7533 14.4654C44.8969 14.3148 45.0912 14.2264 45.2963 14.2183L50.4998 14.1541L49.7397 15.8999L46.8778 15.9353L46.9076 18.4645L50.5499 18.4195Z" fill="white"/>
<path d="M57.0683 20.0691L54.7263 20.098L54.6717 15.436L53.371 15.4521L53.426 20.114L51.0841 20.1429L50.9902 12.1522L53.3318 12.1233L53.3553 14.1189L56.2171 14.0836C56.4223 14.0867 56.6187 14.1703 56.7658 14.3172C56.9128 14.4642 56.999 14.6632 57.0074 14.8735L57.0683 20.0691Z" fill="white"/>
<path d="M63.8264 19.9857L58.6226 20.05C58.4175 20.0469 58.221 19.9632 58.074 19.8163C57.9269 19.6694 57.8405 19.4703 57.8324 19.2601L57.809 17.2635C57.8121 17.0532 57.894 16.852 58.0372 16.7015C58.1808 16.551 58.3751 16.4625 58.5803 16.4543L61.4421 16.419L61.4344 15.7557L57.7918 15.8007L57.7715 14.0645L62.9749 14.0002C63.1805 14.0034 63.3765 14.0871 63.5236 14.234C63.6706 14.3809 63.7571 14.5799 63.7655 14.7901L63.8264 19.9857ZM61.4638 18.285L61.4575 17.7522L60.1572 17.7682L60.1635 18.301L61.4638 18.285Z" fill="white"/>
<path d="M70.5839 19.902L68.2419 19.9309L68.1919 15.672L66.8908 15.6881L66.9409 19.947L64.5997 19.9759L64.5293 13.9808L69.7321 13.9165C69.9376 13.9193 70.134 14.0029 70.281 14.1498C70.4281 14.2968 70.5146 14.4961 70.5226 14.7064L70.5839 19.902Z" fill="white"/>
<path d="M77.3647 21.6713C77.3615 21.8817 77.28 22.0829 77.1364 22.2335C76.9932 22.3841 76.7989 22.4728 76.5937 22.4813L72.1714 22.5359L71.3696 20.8093L75.0126 20.7643L75.0018 19.8475L72.1402 19.8829C71.9347 19.88 71.7383 19.7965 71.5909 19.6495C71.4439 19.5025 71.3574 19.3033 71.3497 19.093L71.2979 14.6969C71.301 14.4864 71.3826 14.2851 71.5261 14.1345C71.6697 13.984 71.8643 13.8956 72.0695 13.8877L77.2723 13.8235L77.3647 21.6713ZM74.9814 18.1178L74.9517 15.5886L73.6506 15.6047L73.6804 18.1339L74.9814 18.1178Z" fill="white"/>
<path d="M84.0792 18.0053L83.3191 19.7446L78.8961 19.7992C78.6906 19.796 78.4942 19.7123 78.3471 19.5654C78.2001 19.4185 78.1136 19.2195 78.1055 19.0093L78.0537 14.6133C78.0572 14.4029 78.1388 14.2018 78.2823 14.0513C78.4259 13.9008 78.6202 13.8124 78.8254 13.8041L83.2487 13.7495C83.4539 13.7529 83.65 13.8367 83.7967 13.9836C83.9437 14.1304 84.0299 14.3293 84.0383 14.5394L84.0635 16.6721C84.06 16.8824 83.978 17.0834 83.8348 17.234C83.6916 17.3845 83.4977 17.4733 83.2925 17.4822L80.4307 17.5175L80.437 18.0502L84.0792 18.0053ZM81.7152 16.1683L81.7075 15.505L80.4072 15.5211L80.4153 16.1843L81.7152 16.1683Z" fill="white"/>
</svg>
