<svg width="151" height="35" viewBox="0 0 151 35" fill="none" xmlns="http://www.w3.org/2000/svg">
<path d="M18.0539 7.22656L22.6266 11.4912H32.3385L38.0238 17.1402L32.0374 23.0884H22.3561L17.9824 27.4392H35.6659L42.6934 20.4566L48.5777 27.5102H55.3653L46.4445 17.3684L55.3653 7.22656H49.1085L42.1014 14.1838L35.8344 7.22656H18.0539Z" fill="#707D9B"/>
<path d="M20.0289 17.3716L22.1826 15.2266H31.5883L33.5072 17.3665L31.3229 19.3036H21.9835L20.0289 17.3716Z" fill="#707D9B"/>
<path d="M57.9681 27.7363V7.14844H66.4297C68.8793 7.14844 70.8135 7.80597 72.2323 9.12102C72.9425 9.78554 73.5006 10.5941 73.8687 11.4918C74.2368 12.3894 74.4062 13.3553 74.3656 14.3238C74.3656 16.6226 73.5762 18.4025 71.9975 19.6634C70.2776 20.973 68.1509 21.6439 65.9857 21.56H62.5255V27.7363H57.9681ZM62.5255 17.5286H66.1337C67.1009 17.5812 68.0513 17.2616 68.7875 16.6361C69.1037 16.345 69.3531 15.9895 69.5187 15.594C69.6842 15.1985 69.7621 14.7722 69.7469 14.3441C69.7671 13.9169 69.6899 13.4907 69.5211 13.0974C69.3523 12.704 69.0963 12.3536 68.7722 12.0723C67.9894 11.4892 67.0234 11.2016 66.0469 11.2609H62.5255V17.5286Z" fill="#707D9B"/>
<path d="M77.147 27.7349L86.0271 7H90.2323L99.1277 27.7349H94.361L92.4677 23.1153H83.6897L81.7759 27.7349H77.147ZM85.3126 19.1144H90.8192L88.0634 12.436L85.3126 19.1144Z" fill="#707D9B"/>
<path d="M103.491 27.7363V7.14844H112.963C115.586 7.14844 117.599 7.84484 119.001 9.23765C120.185 10.4141 120.777 12.0013 120.777 13.9992C120.777 17.1601 119.297 19.2882 116.337 20.3835L121.399 27.7363H116.071L111.57 21.1441H108.049V27.7363H103.491ZM108.049 17.1432H112.667C113.597 17.2009 114.515 16.9136 115.244 16.3369C115.547 16.0646 115.786 15.7294 115.944 15.3553C116.101 14.9811 116.175 14.577 116.158 14.1716C116.185 13.7584 116.114 13.3447 115.95 12.9641C115.786 12.5834 115.534 12.2466 115.214 11.981C114.447 11.4414 113.518 11.1768 112.58 11.2305H108.049V17.1432Z" fill="#707D9B"/>
<path d="M127.467 27.7363V7.14844H132.025V27.7363H127.467Z" fill="#707D9B"/>
</svg>
