<svg width="233" height="35" viewBox="0 0 233 35" fill="none" xmlns="http://www.w3.org/2000/svg">
<path d="M10.7056 28.6299L12.5557 24.4781L15.9352 16.3467L18.2108 10.5895C18.4451 9.97441 18.6795 9.35932 18.9015 8.74424C19.0742 8.28293 19.3455 7.51407 19.7217 6.45613C21.1463 6.48688 22.2933 6.50533 23.1629 6.50533C24.0324 6.50533 25.1548 6.50533 26.6287 6.43152C28.1026 6.35771 29.3422 6.35771 30.3289 6.35771C31.4015 6.3147 32.4752 6.40979 33.5234 6.64065C34.1111 6.80102 34.6521 7.09826 35.1021 7.50792C35.5097 7.88536 35.8151 8.35925 35.9902 8.88571C36.1736 9.47199 36.2324 10.09 36.1629 10.7002C36.0872 11.4164 35.9172 12.1196 35.6572 12.7915C35.1038 14.2761 34.2494 15.6308 33.1472 16.7711C32.0425 17.9375 30.6983 18.8523 29.2065 19.4528C27.7293 20.0412 26.1534 20.3439 24.5628 20.3447C23.895 20.3466 23.2284 20.2889 22.5708 20.1725C22.6633 19.6743 22.7682 18.9423 22.8915 17.9459C23.0149 16.9495 23.0827 16.2298 23.1074 15.75C23.5816 15.8516 24.0655 15.9011 24.5504 15.8977C25.5243 15.9361 26.4847 15.66 27.2886 15.1104C27.9789 14.639 28.5065 13.9667 28.7995 13.1851C28.926 12.8728 28.9869 12.5378 28.9783 12.201C28.9763 12.0686 28.948 11.938 28.8951 11.8166C28.8422 11.6952 28.7657 11.5854 28.67 11.4937C28.4657 11.3056 28.2105 11.1815 27.9361 11.1369C27.5898 11.0787 27.2389 11.0519 26.8877 11.057C26.4992 11.057 26.086 11.057 25.6543 11.057L24.2729 11.1615C23.3725 13.2528 22.4187 15.5778 21.4114 18.1366C19.5531 22.7743 18.4513 25.5688 18.1059 26.5202L17.3351 28.6299H14.1036H10.7056Z" fill="#707D9B"/>
<path d="M37.606 16.7695C38.2227 15.6931 38.5989 14.955 38.8024 14.5491L39.7644 12.6362C42.5369 12.0245 45.3622 11.6825 48.2009 11.6151C49.3383 11.5949 50.4726 11.7399 51.5681 12.0457C52.3864 12.233 53.099 12.7319 53.5538 13.4358C53.9156 14.0755 53.8807 14.9899 53.449 16.1791C53.227 16.7859 52.6473 18.1514 51.7099 20.2755C50.7725 22.3996 49.6316 25.1839 48.2872 28.6284C47.2265 28.6284 46.1719 28.6284 45.1174 28.6284C44.0628 28.6284 43.0083 28.6284 41.8427 28.6284C42.4265 27.4433 43.4893 24.983 45.0311 21.2474C44.55 21.4442 44.1738 21.5795 43.9087 21.6718C43.6435 21.764 43.1871 21.887 42.5396 22.0593C41.8921 22.2315 41.3802 22.3791 41.004 22.496C40.6472 22.6101 40.3039 22.7628 39.9803 22.9511C39.7089 23.1022 39.4633 23.2953 39.2526 23.5232C39.0811 23.7115 38.9472 23.9307 38.8579 24.169C38.789 24.3215 38.7619 24.4895 38.7792 24.6559C38.7965 24.8223 38.8577 24.9811 38.9566 25.1162C39.1218 25.266 39.3176 25.3783 39.5306 25.4452C39.7435 25.5121 39.9685 25.5321 40.19 25.5037C40.4417 25.5021 40.6931 25.4836 40.9423 25.4484C41.3532 25.3842 41.7592 25.2917 42.1572 25.1716C41.5405 25.9917 40.7183 27.2096 39.6904 28.8252C38.7849 28.9708 37.8695 29.0469 36.9523 29.0528C35.869 29.1047 34.7879 28.9134 33.7886 28.493C33.4228 28.3208 33.104 28.0632 32.8592 27.742C32.6145 27.4208 32.451 27.0454 32.3826 26.6478C32.204 25.8128 32.2682 24.9443 32.5676 24.1444C32.7682 23.611 33.0422 23.108 33.3816 22.6497C33.7853 22.1337 34.2467 21.6653 34.7569 21.2535C35.2994 20.7899 35.8933 20.3896 36.5268 20.0602C37.3019 19.6698 38.1137 19.3567 38.9504 19.1253C40.1558 18.7919 41.3787 18.5249 42.6136 18.3257C43.218 18.215 43.7792 18.0981 44.2972 17.9751C44.6801 17.891 45.057 17.7821 45.4257 17.6491C45.6451 17.5686 45.8525 17.459 46.0424 17.3231C46.1966 17.2148 46.3338 17.0842 46.4495 16.9356C46.5519 16.8056 46.633 16.6603 46.69 16.5051C46.7708 16.3494 46.7977 16.1715 46.7665 15.999C46.7352 15.8266 46.6476 15.6693 46.5173 15.5517C46.0964 15.2881 45.5997 15.1713 45.1051 15.2195C43.2365 15.1888 40.7327 15.7178 37.606 16.7695Z" fill="#707D9B"/>
<path d="M51.9319 28.6276L55.0709 21.4003L56.7422 17.2547C57.0258 16.5104 57.3157 15.7477 57.5994 14.9666C57.8831 14.1854 58.2161 13.1951 58.6354 12.0265C59.9428 12.0265 60.985 12.0572 61.7559 12.0572C62.6563 12.0572 63.6985 12.0572 64.8826 12.0265L64.1425 13.8717C64.7592 13.3981 65.2156 13.0414 65.5733 12.8076C65.9443 12.5748 66.3318 12.3693 66.7327 12.1925C67.1281 12.0091 67.5414 11.8669 67.9661 11.7681C68.3711 11.6788 68.7846 11.6334 69.1995 11.6328C69.6154 11.6381 70.0294 11.6918 70.4329 11.7927C70.0217 12.9737 69.6949 13.9496 69.4523 14.7205L68.6753 17.2055C68.1658 17.0375 67.6331 16.9503 67.0965 16.9471C66.4866 16.9391 65.8797 17.0348 65.3019 17.2301C64.7398 17.4339 64.2133 17.7244 63.7417 18.0912C63.2077 18.5084 62.7381 19.0016 62.3479 19.5551C61.7645 20.4098 61.2765 21.3256 60.8925 22.2861C60.3498 23.5162 59.7866 24.9514 59.2028 26.5916C58.9993 27.1514 58.7649 27.8218 58.5059 28.6829C57.4575 28.6829 56.403 28.6829 55.3361 28.6829C54.2692 28.6829 53.1468 28.6091 51.9319 28.6276Z" fill="#707D9B"/>
<path d="M66.2084 28.6289C66.8456 27.3126 67.3575 26.2239 67.744 25.3628C68.1263 24.5079 68.6012 23.413 69.1562 22.0844C69.7112 20.7559 70.3156 19.2735 70.9569 17.662C71.5983 16.0505 72.326 14.1745 73.1401 12.0401C74.5461 12.0401 75.6685 12.0709 76.5196 12.0709C77.3706 12.0709 78.4067 12.0709 79.8559 12.0401C78.9267 14.0904 78.1374 15.8885 77.4878 17.4344C76.8341 18.9844 76.1866 20.6267 75.5329 22.3551C74.3652 25.4305 73.58 27.5197 73.1771 28.6228C71.8943 28.6228 70.7843 28.6228 69.8531 28.6228C68.9218 28.6228 67.6946 28.6105 66.2084 28.6289ZM74.0343 9.95499C74.5646 8.66946 74.9717 7.64842 75.2677 6.87957C75.3478 6.65814 75.4465 6.36905 75.5699 6C76.8773 6 77.9811 6.03075 78.8692 6.03075C80.1026 6.03075 81.1756 6.03075 82.1068 6.03075C81.9527 6.36905 81.8293 6.64584 81.7307 6.87342L80.8981 8.89089C80.7686 9.19228 80.6268 9.55518 80.4788 9.96114C79.4057 9.96114 78.382 9.96114 77.3953 9.96114C76.4086 9.96114 75.2368 9.93653 74.0343 9.95499Z" fill="#707D9B"/>
<path d="M94.6258 23.7229C94.2434 24.3749 93.3986 25.9475 92.0912 28.4406C90.7427 28.6866 89.6223 28.8507 88.7302 28.9327C87.8421 29.0188 86.9602 29.0557 86.0784 29.0557C84.9156 29.0669 83.7539 28.9784 82.6063 28.7912C81.7213 28.6675 80.877 28.3412 80.1396 27.8378C79.5365 27.4087 79.0647 26.821 78.7767 26.1402C78.4795 25.3732 78.3655 24.5477 78.4436 23.7291C78.51 22.747 78.7177 21.7796 79.0603 20.8566C79.6124 19.3887 80.3928 18.0166 81.373 16.7909C82.2855 15.5809 83.3919 14.5294 84.6476 13.6786C85.753 12.9526 86.9724 12.4163 88.2553 12.0917C89.4643 11.7816 90.7072 11.6225 91.9555 11.6181C93.0986 11.6044 94.2381 11.7493 95.3412 12.0486C96.2629 12.2709 97.081 12.8003 97.66 13.5494C98.1748 14.2526 98.4494 15.1022 98.4432 15.9729C98.4292 16.968 98.2392 17.9529 97.882 18.8822C97.61 19.5936 97.2864 20.2844 96.9137 20.9489H85.4863C85.4123 21.1211 85.3507 21.281 85.3013 21.4225C84.8902 22.5871 84.995 23.4441 85.6158 23.9936C86.4066 24.5923 87.3881 24.8851 88.3786 24.8178C89.2313 24.8066 90.0813 24.7222 90.9194 24.5656C91.8979 24.4098 93.1334 24.1289 94.6258 23.7229ZM86.5162 18.4763H91.8938C91.974 18.2917 92.0357 18.138 92.085 18.0026C92.2722 17.5449 92.3504 17.0501 92.3132 16.5572C92.2971 16.3788 92.239 16.2067 92.1436 16.0549C92.0482 15.9032 91.9183 15.776 91.7643 15.6838C91.4108 15.4866 91.0096 15.3908 90.6049 15.407C90.266 15.4078 89.9292 15.4597 89.6059 15.5608C89.2546 15.6638 88.9201 15.8171 88.613 16.0159C88.3002 16.2126 88.0106 16.4436 87.7496 16.7048C87.5206 16.937 87.3141 17.1903 87.1329 17.4614C86.9541 17.7135 86.7506 18.0457 86.5162 18.4763Z" fill="#707D9B"/>
<path d="M95.8961 28.6279C96.3772 27.3977 97.0124 25.8046 97.7894 23.7564C98.3753 23.3628 98.8933 23.0122 99.3311 22.6985L108.212 16.3631C105.523 16.3631 103.198 16.4615 101.249 16.603C101.459 16.1048 101.767 15.3728 102.162 14.3641L102.741 12.8633L103.044 12.0391C104.339 12.0391 106.806 12.0493 110.444 12.0698C113.351 12.0698 115.612 12.0596 117.228 12.0391C117 12.5127 116.284 14.2349 115.094 17.2058C114.572 17.542 114.105 17.8557 113.694 18.1468L104.999 24.2239C106.041 24.2608 107.546 24.2731 109.513 24.2731C110.271 24.2731 111.178 24.2731 112.226 24.2116C111.832 25.0112 111.184 26.4874 110.284 28.6279C108.89 28.6279 106.503 28.6279 103.124 28.6279C99.8224 28.6074 97.4132 28.6074 95.8961 28.6279Z" fill="#707D9B"/>
<path d="M113.965 28.6281L117.283 20.7858L119.75 14.635L120.743 12.0024C121.933 12.0024 122.981 12.0332 123.894 12.0332C124.93 12.0332 125.935 12.0332 126.922 12.0024L126.028 14.1982C126.521 13.7882 126.932 13.456 127.261 13.2018C127.969 12.6898 128.754 12.2933 129.586 12.027C130.017 11.8981 130.456 11.7974 130.9 11.7256C131.377 11.6516 131.86 11.6146 132.343 11.6149C132.84 11.6084 133.336 11.6537 133.823 11.7502C134.196 11.8223 134.558 11.9401 134.902 12.1008C135.16 12.2262 135.397 12.3901 135.605 12.5867C135.785 12.7638 135.932 12.9723 136.037 13.2018C136.167 13.5296 136.264 13.8696 136.327 14.2167C136.951 13.6027 137.654 13.0733 138.417 12.6421C139.079 12.2842 139.786 12.0193 140.52 11.8548C141.236 11.6904 141.969 11.6058 142.703 11.6026C143.564 11.5882 144.42 11.7256 145.232 12.0085C145.574 12.1204 145.889 12.3024 146.157 12.5428C146.425 12.7833 146.639 13.0769 146.786 13.4048C147.076 14.2538 147.025 15.1819 146.644 15.9943C146.465 16.4925 146.151 17.2245 145.713 18.2516C145.275 19.2788 144.541 20.9949 143.524 23.4491C142.506 25.9033 141.803 27.6194 141.433 28.6035C140.44 28.6035 139.478 28.6035 138.547 28.6035C137.406 28.6035 136.21 28.6035 134.958 28.6035C135.57 27.2339 136.31 25.5096 137.178 23.4307C138.054 21.3578 138.633 19.9185 138.929 19.1251C139.144 18.6299 139.255 18.0962 139.256 17.5566C139.255 17.417 139.221 17.2796 139.157 17.1556C139.093 17.0316 139 16.9245 138.886 16.8431C138.65 16.714 138.384 16.6503 138.115 16.6586C137.8 16.6571 137.488 16.7177 137.196 16.837C136.86 16.9863 136.553 17.1946 136.29 17.452C135.859 17.857 135.48 18.3135 135.161 18.8114C134.767 19.4407 134.424 20.101 134.137 20.7858C133.726 21.6715 133.239 22.8402 132.676 24.2918L130.962 28.6281C129.808 28.6281 128.766 28.6281 127.835 28.6281C126.904 28.6281 125.75 28.6281 124.449 28.6281C124.899 27.6686 125.609 26.0448 126.571 23.7689C127.533 21.4931 128.156 19.9739 128.421 19.205C128.62 18.741 128.735 18.2453 128.76 17.7411C128.762 17.4594 128.671 17.1848 128.501 16.96C128.392 16.8537 128.261 16.7727 128.117 16.7227C127.973 16.6727 127.82 16.655 127.668 16.6709C127.231 16.6789 126.804 16.8065 126.435 17.0399C125.983 17.3355 125.58 17.6985 125.239 18.1163C124.771 18.7079 124.377 19.3545 124.067 20.0415C123.672 20.8596 123.136 22.1082 122.445 23.7874C121.754 25.4666 121.119 27.0842 120.533 28.6281C119.22 28.6281 118.159 28.6281 117.345 28.6281C116.531 28.6281 115.31 28.6097 113.965 28.6281Z" fill="#707D9B"/>
<path d="M144.93 28.6289C145.559 27.3126 146.069 26.2239 146.459 25.3628C146.85 24.5017 147.323 23.4089 147.878 22.0844C148.433 20.7518 149.033 19.2776 149.678 17.662C150.324 16.0464 151.049 14.1724 151.855 12.0401C153.261 12.0401 154.39 12.0709 155.241 12.0709C156.092 12.0709 157.091 12.0709 158.577 12.0401C157.64 14.0904 156.848 15.8885 156.203 17.4344C155.555 18.9844 154.908 20.6267 154.248 22.3551C153.085 25.4305 152.299 27.5197 151.892 28.6228C150.61 28.6228 149.506 28.6228 148.568 28.6228C147.631 28.6228 146.434 28.6105 144.93 28.6289ZM152.768 9.95499C153.305 8.66946 153.712 7.64842 154.001 6.87957C154.082 6.65814 154.18 6.36905 154.304 6C155.611 6 156.709 6.03075 157.603 6.03075C158.836 6.03075 159.909 6.03075 160.841 6.03075C160.68 6.36905 160.557 6.64584 160.464 6.87342L159.632 8.89089C159.496 9.19228 159.36 9.55518 159.206 9.96114C158.139 9.96114 157.11 9.96114 156.123 9.96114C155.136 9.96114 153.971 9.93653 152.768 9.95499Z" fill="#707D9B"/>
<path d="M173.36 23.7229C172.981 24.3749 172.137 25.9475 170.825 28.4406C169.477 28.6866 168.358 28.8507 167.47 28.9327C166.582 29.0188 165.694 29.0557 164.818 29.0557C163.656 29.0672 162.494 28.9787 161.346 28.7912C160.462 28.6664 159.618 28.3402 158.88 27.8378C158.278 27.4083 157.809 26.8205 157.523 26.1402C157.22 25.3747 157.106 24.5478 157.19 23.7291C157.259 22.7474 157.466 21.7804 157.807 20.8566C158.358 19.3873 159.141 18.0149 160.125 16.7909C161.038 15.5809 162.144 14.5294 163.4 13.6786C164.504 12.9538 165.721 12.4175 167.002 12.0917C168.211 11.7823 169.453 11.6233 170.702 11.6181C171.845 11.6044 172.984 11.7493 174.087 12.0486C175.008 12.2689 175.825 12.7989 176.4 13.5494C176.917 14.252 177.193 15.1016 177.189 15.9729C177.165 16.9698 176.965 17.9548 176.597 18.8822C176.33 19.5947 176.009 20.2856 175.635 20.9489H164.208C164.134 21.1211 164.066 21.281 164.017 21.4225C163.606 22.5871 163.71 23.4441 164.331 23.9936C165.123 24.5913 166.104 24.884 167.094 24.8178C167.949 24.8069 168.801 24.7225 169.641 24.5656C170.632 24.4098 171.871 24.1289 173.36 23.7229ZM165.256 18.4763H170.634C170.708 18.2917 170.776 18.138 170.819 18.0026C171.012 17.5466 171.09 17.0504 171.047 16.5572C171.032 16.3792 170.975 16.2073 170.881 16.0555C170.786 15.9037 170.657 15.7763 170.504 15.6838C170.15 15.4881 169.749 15.3924 169.345 15.407C169.004 15.4078 168.665 15.4596 168.34 15.5608C167.99 15.6639 167.658 15.8173 167.353 16.0159C167.039 16.211 166.749 16.4422 166.49 16.7048C166.261 16.937 166.054 17.1903 165.873 17.4614C165.688 17.7135 165.497 18.0457 165.256 18.4763Z" fill="#707D9B"/>
<path d="M193.427 28.6262C192.194 28.6262 191.164 28.6262 190.344 28.6262C189.326 28.6262 188.29 28.6262 187.26 28.6262L188.056 26.3996C187.61 26.7918 187.142 27.1593 186.656 27.5006C185.927 27.9904 185.129 28.3678 184.288 28.6201C183.801 28.7625 183.304 28.8694 182.801 28.9399C182.266 29.0133 181.726 29.0503 181.186 29.0506C180.4 29.0609 179.617 28.9594 178.861 28.7492C178.222 28.5845 177.648 28.2307 177.214 27.7343C176.811 27.2898 176.591 26.7099 176.597 26.1105C176.632 25.385 176.787 24.6702 177.054 23.9946C177.122 23.8039 177.251 23.4964 177.43 23.0843L179.04 19.3938C179.607 18.0345 180.224 16.5398 180.89 14.8914C181.301 13.8827 181.669 12.9293 181.994 12.0312C183.338 12.0312 184.46 12.062 185.422 12.062C186.384 12.062 187.439 12.062 188.598 12.0312L185.848 18.2251C185.429 19.1724 185.151 19.8121 185.022 20.1504C184.892 20.4886 184.806 20.7224 184.763 20.8454C184.351 21.9813 184.302 22.7501 184.615 23.152C184.789 23.3613 185.011 23.5262 185.262 23.6332C185.513 23.7401 185.785 23.786 186.058 23.767C186.335 23.7658 186.611 23.7264 186.878 23.6502C187.18 23.5705 187.473 23.4613 187.754 23.3242C188.018 23.1878 188.268 23.025 188.5 22.8383C188.779 22.616 189.035 22.3667 189.264 22.094C189.568 21.7318 189.84 21.345 190.078 20.9377C190.472 20.2302 190.831 19.5035 191.152 18.7603C191.423 18.1206 191.883 17.0155 192.533 15.445L193.902 12.0497C195.296 12.0497 196.443 12.0805 197.337 12.0805C198.348 12.0805 199.366 12.0805 200.42 12.0497C199.187 14.8012 198.038 17.4173 196.973 19.8982C195.908 22.379 194.726 25.2884 193.427 28.6262Z" fill="#707D9B"/>
<path d="M195.345 28.6279L200.858 23.7072L204.965 19.9367L202.751 12.0391C204.33 12.0391 205.689 12.0493 206.828 12.0698C208.265 12.0698 209.449 12.0698 210.38 12.0391L210.75 15.7603C210.75 15.9879 210.805 16.3385 210.836 16.8121C212.193 15.3851 213.761 13.7941 215.542 12.0391C216.504 12.0391 217.657 12.0698 219.001 12.0698C220.346 12.0698 221.468 12.0698 222.584 12.0391L218.73 15.4528C217.969 16.1253 216.339 17.5974 213.84 19.8691C214.218 21.5913 214.978 24.5109 216.121 28.6279C214.888 28.6279 213.692 28.6279 212.501 28.6279C211.038 28.6279 209.728 28.6279 208.573 28.6279C208.425 27.1148 208.295 25.9933 208.184 25.2634C208.073 24.5437 207.999 23.8733 207.956 23.2643L207.111 24.1624L205.921 25.3925L202.659 28.6586C201.493 28.6586 200.359 28.6586 199.248 28.6586C197.972 28.5971 196.664 28.6094 195.345 28.6279Z" fill="#707D9B"/>
</svg>
