<svg width="160" height="35" viewBox="0 0 160 35" fill="none" xmlns="http://www.w3.org/2000/svg">
<path d="M19.9824 7H24.2965C26.502 7 28.022 8.21688 28.022 10.3048C28.022 12.3927 26.4503 13.6928 24.1865 13.6928H21.1984V18.6244H19.9824V7ZM21.1984 12.6489H24.1995C25.9652 12.6489 26.7866 11.7522 26.7866 10.3368C26.7866 8.92139 25.7518 8.04396 24.2642 8.04396H21.1984V12.6489Z" fill="#707D9B"/>
<path d="M31.1848 7V14.0451C31.1848 16.9784 32.8341 17.7534 34.4187 17.7534C36.2879 17.7534 37.6527 16.9464 37.6527 14.0451V7H38.8686V13.9554C38.8686 17.6573 36.8507 18.7653 34.3929 18.7653C31.9351 18.7653 29.9559 17.5548 29.9559 14.0899V7H31.1848Z" fill="#707D9B"/>
<path d="M41.6758 18.6244V7H43.3445C45.1038 9.7604 49.1139 15.9281 49.8124 17.1898C49.7348 15.6014 49.7348 13.8337 49.7348 11.938V7H50.9055V18.6244H49.3532C47.7039 16.0113 43.5838 9.4914 42.7948 8.20407C42.8788 9.63871 42.8659 11.4576 42.8659 13.5648V18.6244H41.6758Z" fill="#707D9B"/>
<path d="M56.2544 8.05036H52.3737V7H61.377V8.05036H57.4963V18.6244H56.2544V8.05036Z" fill="#707D9B"/>
<path d="M69.785 13.0396H63.8798V17.5741H70.3477L70.186 18.6244H62.6703V7H70.0954V8.05036H63.8798V11.9892H69.785V13.0396Z" fill="#707D9B"/>
<path d="M73.4332 13.3342V18.6244H72.2301V7H76.6089C78.9697 7 80.218 8.28093 80.218 10.0806C80.2537 10.7089 80.0615 11.3291 79.676 11.8294C79.2906 12.3297 78.7373 12.6771 78.1159 12.809C79.209 13.078 80.0563 13.8273 80.0563 15.8192V16.2931C79.9922 17.0736 80.0446 17.8591 80.2115 18.6244H78.9891C78.8105 17.8173 78.7603 16.9875 78.8403 16.165V15.8896C78.8403 14.0963 78.3164 13.3278 76.1303 13.3278L73.4332 13.3342ZM73.4332 12.2966H76.1432C78.0836 12.2966 78.9632 11.5729 78.9632 10.1447C78.9632 8.71644 78.0836 8.04396 76.3761 8.04396H73.4332V12.2966Z" fill="#707D9B"/>
<path d="M99.1622 14.1875H105.843C109.077 14.1875 111.289 15.9808 111.289 18.7668C111.289 21.9691 108.799 23.455 105.746 23.455H103.334V28.4698H99.1622V14.1875ZM103.334 20.5089H105.061C106.251 20.5089 107.105 20.0157 107.105 18.8245C107.105 17.6332 106.245 17.1272 105.067 17.1272H103.334V20.5089Z" fill="#707D9B"/>
<path d="M116.943 23.0707V28.4698H112.842V14.1875H119.989C123.385 14.1875 125.027 15.9872 125.027 18.1392C125.067 18.857 124.88 19.5693 124.492 20.1767C124.103 20.7841 123.533 21.2562 122.861 21.5272C123.773 21.841 124.743 22.8081 124.743 25.2163V25.8055C124.715 26.6976 124.778 27.5902 124.93 28.4698H120.881C120.611 27.4531 120.509 26.3999 120.577 25.3508V24.9793C120.577 23.7496 120.28 23.0579 118.411 23.0579L116.943 23.0707ZM116.943 20.1566H118.883C120.293 20.1566 120.823 19.5738 120.823 18.6131C120.823 17.6524 120.235 17.1016 118.941 17.1016H116.968L116.943 20.1566Z" fill="#707D9B"/>
<path d="M140.861 21.3153C140.861 25.3566 138.403 28.7319 133.461 28.7319C128.52 28.7319 126.269 25.3759 126.269 21.3345C126.269 17.2932 128.856 13.918 133.681 13.918C138.222 13.918 140.861 17.0434 140.861 21.3153ZM130.622 21.2705C130.622 23.8964 131.502 25.7153 133.597 25.7153C135.79 25.7153 136.514 23.7939 136.514 21.3473C136.514 18.7407 135.751 16.9346 133.539 16.9346C131.489 16.9346 130.622 18.6126 130.622 21.2705Z" fill="#707D9B"/>
<path d="M81.5892 28.7309V28.4363C81.5892 24.7216 83.2773 21.6986 87.9406 18.3298C90.9806 16.1266 91.9055 15.3645 91.9055 13.5007C91.9055 11.637 90.9935 10.6122 89.189 10.6122C87.0804 10.6122 86.3172 11.8931 86.0197 13.7505H81.4922C81.7962 10.0678 84.2281 7 89.189 7C94.7255 7 96.627 10.2664 96.627 13.4623C96.627 16.6582 95.2752 18.0736 91.3039 20.834C88.6456 22.6785 87.5784 23.8954 87.2162 24.8561H97.4226L96.8405 28.7309H81.5892Z" fill="#707D9B"/>
</svg>
