<svg width="202" height="35" viewBox="0 0 202 35" fill="none" xmlns="http://www.w3.org/2000/svg">
<path d="M21.1683 17.6464V19.3548H17.5581V22.7852H15.6501V13.6284H21.9233V15.3366H17.5581V17.6464H21.1683Z" fill="#707D9B"/>
<path d="M28.6628 13.6284C29.0901 13.628 29.5153 13.6878 29.9258 13.806C30.3285 13.9201 30.7074 14.1053 31.0445 14.3528C31.3764 14.5964 31.6486 14.9118 31.8406 15.2751C32.0465 15.6839 32.1479 16.1369 32.1357 16.5941C32.1489 17.0871 32.0073 17.572 31.7308 17.9813C31.4607 18.3687 31.0942 18.6796 30.667 18.8834C30.2201 19.0996 29.7352 19.2272 29.2393 19.2591L32.5476 22.7852H30.0356L26.8372 19.0403V22.7852H24.9291V13.6284H28.6628ZM26.8371 15.4051V17.7148C27.0766 17.7924 27.3223 17.8496 27.5716 17.8856C27.8418 17.9267 28.1148 17.9473 28.3882 17.9472C28.8492 17.9709 29.3066 17.8541 29.6992 17.6123C29.8556 17.5091 29.9826 17.3674 30.068 17.2011C30.1534 17.0347 30.1943 16.8492 30.1866 16.6625C30.2008 16.4699 30.1599 16.2772 30.0688 16.1067C29.9777 15.9362 29.84 15.7948 29.6717 15.6989C29.2863 15.4928 28.8532 15.3914 28.4159 15.405L26.8371 15.4051Z" fill="#707D9B"/>
<path d="M40.6323 17.3458V18.8901H36.5692V21.1042H41.1677V22.7852H34.6612V13.6284H41.1677V15.2684H36.5692V17.3458H40.6323Z" fill="#707D9B"/>
<path d="M50.1721 17.3458V18.8901H46.1088V21.1042H50.7074V22.7852H44.2008V13.6284H50.7074V15.2684H46.1088V17.3458H50.1721Z" fill="#707D9B"/>
<path d="M57.2135 13.4096C57.852 13.3958 58.4869 13.5096 59.0804 13.7445C59.5694 13.9367 59.9982 14.2552 60.3227 14.667C60.6191 15.0557 60.7762 15.5321 60.769 16.0201C60.7757 16.4531 60.6487 16.8777 60.4051 17.2365C60.1743 17.5814 59.8605 17.8633 59.4923 18.0565C59.7757 18.1335 60.0446 18.2559 60.2886 18.4188C60.5479 18.5907 60.764 18.8199 60.92 19.0884C61.0962 19.4131 61.1815 19.7789 61.1671 20.1477C61.1688 20.6527 61.0049 21.1446 60.7004 21.5485C60.3612 21.9943 59.9119 22.345 59.3962 22.5667C58.7819 22.8331 58.1168 22.9636 57.4469 22.9493C57.0441 22.9493 56.6094 22.9334 56.1428 22.9015C55.6763 22.8696 55.2325 22.824 54.8113 22.7648C54.3902 22.7056 54.0333 22.6441 53.7406 22.5803V13.7514C54.2892 13.6365 54.8437 13.5521 55.4017 13.4985C55.9963 13.4394 56.6003 13.4097 57.2135 13.4096ZM57.2135 15.1454C56.6886 15.1399 56.1645 15.1857 55.6486 15.282V17.4963H57.3645C57.7622 17.5186 58.1545 17.3972 58.4695 17.1545C58.5995 17.0491 58.7036 16.9155 58.7739 16.7639C58.8441 16.6123 58.8786 16.4467 58.8747 16.2798C58.879 16.1086 58.8358 15.9396 58.7498 15.7913C58.6638 15.643 58.5383 15.5212 58.3873 15.4393C58.0308 15.2352 57.6245 15.1335 57.2135 15.1454ZM55.6486 21.0768C55.9393 21.1459 56.2356 21.1894 56.534 21.2067C56.8679 21.2294 57.1356 21.2408 57.337 21.2409C57.7949 21.2591 58.2488 21.1503 58.648 20.9264C58.8072 20.8394 58.9394 20.7106 59.0302 20.554C59.1209 20.3974 59.1668 20.2189 59.1627 20.0382C59.1679 19.8591 59.1198 19.6826 59.0246 19.5306C58.9294 19.3786 58.7912 19.258 58.6274 19.1839C58.2266 18.9873 57.7837 18.8911 57.337 18.9037H55.6486V21.0768Z" fill="#707D9B"/>
<path d="M69.8146 17.3458V18.8901H65.7513V21.1042H70.3499V22.7852H63.8433V13.6284H70.3499V15.2684H65.7513V17.3458H69.8146Z" fill="#707D9B"/>
<path d="M80.1642 13.6284V15.3366H77.2266V22.7442H75.3323V15.3366H72.3947V13.6284H80.1642Z" fill="#707D9B"/>
<path d="M89.2511 13.6284V15.3366H86.3134V22.7442H84.4192V15.3366H81.4815V13.6284H89.2511Z" fill="#707D9B"/>
<path d="M96.4984 21.0768V22.7852H91.4879V21.0768H93.0391V15.3366H91.4879V13.6284H96.4984V15.3366H94.9472V21.0768H96.4984Z" fill="#707D9B"/>
<path d="M107.782 13.6284V22.8535H107.095L101.645 17.2638V22.7852H99.7374V13.56H100.424L105.873 19.2318V13.6284H107.782Z" fill="#707D9B"/>
<path d="M115.523 17.8241H118.653V21.5552C118.233 21.9814 117.737 22.3266 117.191 22.5734C116.565 22.8589 115.882 23.0014 115.194 22.9902C114.555 22.994 113.921 22.8757 113.327 22.6418C112.751 22.4159 112.224 22.0818 111.775 21.6578C111.324 21.2305 110.965 20.7168 110.719 20.1476C110.206 18.9041 110.206 17.5096 110.719 16.2661C110.965 15.6969 111.324 15.1832 111.775 14.7559C112.224 14.3318 112.751 13.9977 113.327 13.7718C113.921 13.5379 114.555 13.4195 115.194 13.4233C115.703 13.4122 116.21 13.4933 116.69 13.6625C117.092 13.8111 117.464 14.0311 117.788 14.3117V16.2251C117.568 16.061 117.339 15.9015 117.101 15.7467C116.851 15.586 116.581 15.4575 116.298 15.364C115.959 15.2576 115.604 15.2068 115.248 15.2136C114.723 15.2075 114.205 15.3446 113.752 15.61C113.31 15.8684 112.941 16.2354 112.681 16.676C112.42 17.1431 112.283 17.6688 112.283 18.2034C112.283 18.7379 112.42 19.2636 112.681 19.7307C112.941 20.1784 113.316 20.5493 113.767 20.8051C114.218 21.0609 114.729 21.1924 115.248 21.1862C115.593 21.1982 115.938 21.1473 116.264 21.0358C116.481 20.9574 116.685 20.8468 116.868 20.7078L116.882 19.1909H115.523L115.523 17.8241Z" fill="#707D9B"/>
<path d="M125.035 13.6284C125.463 13.628 125.888 13.6878 126.298 13.806C126.701 13.9201 127.08 14.1053 127.417 14.3528C127.749 14.5964 128.021 14.9118 128.213 15.2751C128.419 15.6839 128.521 16.1369 128.508 16.5941C128.521 17.0871 128.38 17.572 128.103 17.9813C127.833 18.3687 127.467 18.6796 127.04 18.8834C126.593 19.0996 126.108 19.2272 125.612 19.2591L128.92 22.7852H126.408L123.21 19.0403V22.7852H121.302V13.6284H125.035ZM123.21 15.4051V17.7148C123.449 17.7924 123.695 17.8496 123.944 17.8856C124.214 17.9267 124.487 17.9473 124.761 17.9472C125.222 17.9709 125.679 17.8541 126.072 17.6123C126.228 17.5091 126.355 17.3674 126.441 17.2011C126.526 17.0347 126.567 16.8493 126.559 16.6626C126.573 16.47 126.532 16.2773 126.441 16.1068C126.35 15.9363 126.213 15.795 126.044 15.699C125.659 15.4929 125.226 15.3915 124.788 15.4052L123.21 15.4051Z" fill="#707D9B"/>
<path d="M137.005 17.3458V18.8901H132.942V21.1042H137.54V22.7852H131.034V13.6284H137.54V15.2684H132.942V17.3458H137.005Z" fill="#707D9B"/>
<path d="M148.851 13.6284L144.568 22.8535H143.621L139.338 13.6284H141.575L144.088 19.683L146.613 13.6284H148.851Z" fill="#707D9B"/>
<path d="M155.865 21.0768V22.7852H150.854V21.0768H152.406V15.3366H150.854V13.6284H155.865V15.3366H154.314V21.0768H155.865Z" fill="#707D9B"/>
<path d="M165.075 17.3458V18.8901H161.012V21.1042H165.61V22.7852H159.104V13.6284H165.61V15.2684H161.012V17.3458H165.075Z" fill="#707D9B"/>
<path d="M180.298 13.6284L177.195 22.7852H175.878L173.832 16.8947L171.787 22.7852H170.469L167.408 13.6283H169.577L171.279 19.4094L173.215 13.6283H174.491L176.399 19.4094L178.129 13.6283L180.298 13.6284Z" fill="#707D9B"/>
<path d="M184.882 13.4507C185.376 13.4452 185.867 13.519 186.337 13.6694C186.727 13.7925 187.1 13.9623 187.449 14.1751V16.0475C187.108 15.8409 186.755 15.6537 186.392 15.487C185.991 15.3086 185.555 15.2199 185.116 15.2273C184.876 15.2277 184.637 15.2645 184.409 15.3366C184.193 15.3994 183.996 15.5118 183.832 15.6647C183.747 15.7515 183.684 15.8564 183.646 15.9713C183.608 16.0863 183.597 16.2084 183.613 16.3283C183.63 16.4482 183.673 16.5628 183.741 16.6633C183.809 16.7638 183.899 16.8477 184.004 16.9085C184.317 17.0864 184.643 17.2417 184.978 17.3732L186.104 17.8378C186.653 18.0452 187.139 18.3886 187.518 18.8356C187.817 19.2182 187.976 19.6904 187.971 20.175C187.98 20.6949 187.813 21.2026 187.497 21.6168C187.166 22.0436 186.731 22.3799 186.234 22.5941C185.683 22.836 185.086 22.9571 184.484 22.9493C183.955 22.9511 183.429 22.8585 182.933 22.6759C182.474 22.5124 182.04 22.2871 181.643 22.0062V20.1337C182.056 20.4313 182.503 20.679 182.974 20.8718C183.466 21.0735 183.993 21.1757 184.525 21.1724C184.869 21.182 185.209 21.1044 185.514 20.947C185.641 20.8858 185.747 20.7893 185.82 20.6693C185.893 20.5493 185.93 20.4107 185.926 20.2704C185.925 20.1529 185.894 20.0375 185.835 19.9356C185.776 19.8338 185.691 19.749 185.589 19.6896C185.36 19.5366 185.113 19.4106 184.855 19.3138L183.441 18.7671C182.848 18.5867 182.337 18.2076 181.993 17.6943C181.739 17.2461 181.609 16.7393 181.615 16.225C181.605 15.7028 181.766 15.1916 182.075 14.7696C182.387 14.3506 182.8 14.0168 183.276 13.7992C183.779 13.5651 184.327 13.446 184.882 13.4507Z" fill="#707D9B"/>
<path d="M152.233 34.9491C151.982 34.9491 151.733 34.8916 151.508 34.781C151.282 34.6705 151.084 34.5098 150.931 34.3114C150.777 34.113 150.671 33.8821 150.621 33.6365C150.571 33.391 150.578 33.1372 150.642 32.8948L151.823 28.4131H12V8.4496H80.1643V10.2974H13.8559V26.5653H154.229L152.56 32.8982L164.39 26.5653H189.058V10.2974H118.653V8.4496H190.914V28.4131H164.858L153.013 34.7538C152.773 34.8821 152.505 34.9492 152.233 34.9491Z" fill="#707D9B"/>
<path d="M98.5903 0L100.327 3.5028L104.21 4.06453L101.4 6.79157L102.063 10.6418L98.5903 8.82384L95.1176 10.6418L95.7808 6.79157L92.9712 4.06453L96.8538 3.5028L98.5903 0Z" fill="#707D9B"/>
<path d="M84.1433 5.54061L85.164 7.59998L87.4465 7.93012L85.795 9.53278L86.1848 11.796L84.1433 10.7274L82.1021 11.796L82.4918 9.53278L80.8404 7.93012L83.1228 7.59998L84.1433 5.54061Z" fill="#707D9B"/>
<path d="M113.183 5.09376L114.226 7.1987L116.56 7.53623L114.871 9.17461L115.27 11.4881L113.183 10.3957L111.096 11.4881L111.495 9.17461L109.807 7.53623L112.14 7.1987L113.183 5.09376Z" fill="#707D9B"/>
</svg>
