<svg width="157" height="35" viewBox="0 0 157 35" fill="none" xmlns="http://www.w3.org/2000/svg">
<path d="M47.0123 14.6611C47.6932 13.7739 48.1972 12.629 48.1972 11.3229C48.1972 9.83986 47.5879 5 39.7488 5H33.8555C32.9318 5 32.1841 5.7407 32.1841 6.65504V11.1051C32.7069 10.8811 33.2828 10.7565 33.8872 10.7565C34.4678 10.7565 35.0209 10.8723 35.5266 11.0786V8.30975H39.7488C42.0774 8.30975 44.8547 8.83232 44.8547 11.3226C44.8547 12.4416 43.8115 13.2615 43.5453 13.3697C42.867 13.6401 42.4446 14.3148 42.5027 15.0372C42.5612 15.7586 43.0863 16.3596 43.7996 16.5202C44.1625 16.601 45.4439 17.3027 45.4439 18.6174C45.4439 19.8777 44.8141 21.9922 40.5978 21.9922H35.5269V18.9813C35.0213 19.188 34.4678 19.3028 33.8875 19.3028C33.2832 19.3028 32.7072 19.1785 32.1841 18.9552V23.6475C32.1841 24.5612 32.9321 25.3026 33.8555 25.3026H38.4436L42.226 29.3831V23.6178L43.1381 25.0573C47.256 24.1959 48.7867 21.222 48.7867 18.618C48.7863 16.9286 48.0076 15.5852 47.0123 14.6611Z" fill="#707D9B"/>
<path d="M33.888 17.6509C35.3484 17.6509 36.5323 16.4786 36.5323 15.0325C36.5323 13.5864 35.3484 12.4141 33.888 12.4141C32.4276 12.4141 31.2437 13.5864 31.2437 15.0325C31.2437 16.4786 32.4276 17.6509 33.888 17.6509Z" fill="#707D9B"/>
<path d="M52.3472 21.4828V8.10938H56.9849C58.6616 8.10938 59.969 8.4171 60.9089 9.03222C61.8488 9.64767 62.3191 10.565 62.3191 11.7834C62.3191 12.4205 62.1675 12.9865 61.8643 13.4826C61.5618 13.9787 61.0945 14.3521 60.4641 14.6036C61.2554 14.7812 61.8399 15.1373 62.217 15.6733C62.5945 16.2093 62.7831 16.826 62.7831 17.5239C62.7831 18.8287 62.3402 19.8147 61.4565 20.4814C60.5717 21.1492 59.3046 21.4831 57.6533 21.4831H52.3472V21.4828ZM55.4919 13.6844H57.0503C57.7613 13.6719 58.293 13.5362 58.6461 13.2759C58.9981 13.0156 59.1745 12.6346 59.1745 12.1323C59.1745 11.563 58.9951 11.1477 58.6365 10.8877C58.2778 10.6277 57.7276 10.4976 56.9852 10.4976H55.4922L55.4919 13.6844ZM55.4919 15.7423V19.0946H57.6533C58.3211 19.0946 58.8221 18.9647 59.1563 18.7041C59.4899 18.4438 59.6573 18.0445 59.6573 17.5056C59.6573 16.9248 59.5133 16.4846 59.226 16.1877C58.938 15.8908 58.4727 15.7423 57.8294 15.7423H55.4919Z" fill="#707D9B"/>
<path d="M67.3898 19.0949H73.2058V21.4831H64.2455V8.10938H67.3902L67.3898 19.0949Z" fill="#707D9B"/>
<path d="M85.3196 15.9973C85.3196 17.6442 84.7929 19.0023 83.738 20.0706C82.6839 21.1396 81.3058 21.6733 79.6057 21.6733C77.8923 21.6733 76.5043 21.1393 75.4406 20.0706C74.3768 19.0023 73.8451 17.6442 73.8451 15.9973V13.5908C73.8451 11.9495 74.3752 10.593 75.4359 9.52136C76.496 8.44972 77.8801 7.91406 79.5872 7.91406C81.281 7.91406 82.6608 8.44972 83.7238 9.52136C84.7876 10.5927 85.3196 11.9495 85.3196 13.5908V15.9973ZM82.1931 13.5721C82.1931 12.6166 81.9659 11.833 81.5118 11.2209C81.0571 10.608 80.4158 10.3019 79.5872 10.3019C78.7401 10.3019 78.0921 10.6067 77.6437 11.216C77.1952 11.8252 76.9716 12.6107 76.9716 13.5721V15.9973C76.9716 16.9646 77.1988 17.7547 77.6529 18.3672C78.1073 18.9797 78.7586 19.2858 79.606 19.2858C80.428 19.2858 81.0654 18.9797 81.5161 18.3672C81.9679 17.7547 82.1931 16.9649 82.1931 15.9973V13.5721Z" fill="#707D9B"/>
<path d="M97.5375 19.6341C97.0801 20.1733 96.415 20.6478 95.5428 21.0579C94.6706 21.468 93.5762 21.6733 92.2595 21.6733C90.5894 21.6733 89.2337 21.1648 88.1915 20.1488C87.1499 19.1327 86.6284 17.8126 86.6284 16.1899V13.3975C86.6284 11.7873 87.1373 10.4707 88.1548 9.4481C89.1713 8.42552 90.4817 7.91406 92.0835 7.91406C93.8209 7.91406 95.1221 8.31237 95.988 9.108C96.8542 9.90397 97.3453 10.991 97.4632 12.369L97.444 12.4236H94.5042C94.3985 11.7196 94.168 11.1898 93.813 10.835C93.4576 10.4795 92.914 10.3019 92.1852 10.3019C91.455 10.3019 90.8678 10.5881 90.4223 11.1604C89.9775 11.7333 89.7545 12.4724 89.7545 13.3785V16.1892C89.7545 17.1206 89.9742 17.8688 90.4131 18.4349C90.852 19.0019 91.4672 19.2851 92.2591 19.2851C92.8341 19.2851 93.2852 19.239 93.6135 19.1475C93.9408 19.0559 94.2007 18.9329 94.3929 18.7796V16.6673H92.2677V14.6098H97.5368V19.6341H97.5375Z" fill="#707D9B"/>
<path d="M111.31 21.4828V8.10938H115.948C117.623 8.10938 118.932 8.4171 119.872 9.03222C120.812 9.64767 121.282 10.565 121.282 11.7834C121.282 12.4205 121.131 12.9865 120.827 13.4826C120.524 13.9787 120.057 14.3521 119.427 14.6036C120.218 14.7812 120.803 15.1373 121.18 15.6733C121.557 16.2093 121.745 16.826 121.745 17.5239C121.745 18.8287 121.303 19.8147 120.419 20.4814C119.535 21.1492 118.267 21.4831 116.616 21.4831H111.31V21.4828ZM114.454 13.6844H116.013C116.724 13.6719 117.256 13.5362 117.608 13.2759C117.961 13.0156 118.137 12.6346 118.137 12.1323C118.137 11.563 117.958 11.1477 117.598 10.8877C117.24 10.6277 116.689 10.4976 115.948 10.4976H114.454V13.6844ZM114.454 15.7423V19.0946H116.616C117.284 19.0946 117.785 18.9647 118.118 18.7041C118.453 18.4438 118.621 18.0445 118.621 17.5056C118.621 16.9248 118.476 16.4846 118.188 16.1877C117.901 15.8908 117.435 15.7423 116.792 15.7423H114.454Z" fill="#707D9B"/>
<path d="M131.65 15.7603H126.353V19.0942H132.596V21.4824H123.208V8.10938H132.614V10.4976H126.353V13.3724H131.649L131.65 15.7603Z" fill="#707D9B"/>
<path d="M143.659 10.4976H140.098V21.4831H136.953V10.4976H133.419V8.10938H143.659V10.4976H143.659Z" fill="#707D9B"/>
<path d="M102.602 8.10938H105.969L110.328 21.4828H107.175L104.317 11.7102H104.262L102.852 16.4951H104.197L104.83 18.8833H102.156L101.387 21.4828H98.2332L102.602 8.10938Z" fill="#707D9B"/>
<path d="M24.6047 8.72656H12.6002V11.1148H24.6047V8.72656Z" fill="#707D9B"/>
<path d="M24.6047 13.9883H12.6002V16.3765H24.6047V13.9883Z" fill="#707D9B"/>
<path d="M24.6047 19.7109H12.6002V22.0991H24.6047V19.7109Z" fill="#707D9B"/>
</svg>
