<svg width="104" height="35" viewBox="0 0 104 35" fill="none" xmlns="http://www.w3.org/2000/svg">
<path d="M29.0009 28.8432C26.531 28.8432 24.3964 28.3799 22.597 27.4532C20.8061 26.5265 19.4226 25.2115 18.4465 23.5082C17.4705 21.8048 16.9824 19.7882 16.9824 17.4583C16.9824 15.3666 17.3729 13.5397 18.1537 11.9776C18.9431 10.4067 20.0422 9.18432 21.4512 8.31059C22.8686 7.43686 24.5194 7 26.4037 7C27.8211 7 29.0178 7.2074 29.9939 7.6222C30.9785 8.037 31.7806 8.65037 32.4002 9.46232L33.0495 7.38391H36.5506V15.0489H31.84C31.6787 13.8663 31.3307 13.0102 30.796 12.4807C30.2613 11.9423 29.4974 11.6731 28.5044 11.6731C27.715 11.6731 26.9936 11.8805 26.34 12.2953C25.6865 12.7013 25.1645 13.3323 24.774 14.1884C24.3836 15.0356 24.1884 16.1212 24.1884 17.445C24.1884 19.4131 24.6382 20.9179 25.5379 21.9593C26.4461 23.0007 27.7362 23.5214 29.4083 23.5214C30.1043 23.5214 30.7196 23.4287 31.2544 23.2434V21.0988H28.8354V17.1273H36.9835V26.9766C36.3384 27.3384 35.5745 27.6606 34.6918 27.943C33.8091 28.2254 32.8797 28.446 31.9037 28.6049C30.9276 28.7638 29.96 28.8432 29.0009 28.8432Z" fill="#707D9B"/>
<path d="M39.1987 28.4593V23.8921H41.2358V11.9511H39.1987V7.38391H57.2264V15.7638H53.0251L52.5795 11.8849H47.7033V15.4593H51.1408V19.9603H47.7033V23.9583H52.5795L53.0251 19.497H57.2264V28.4593H39.1987Z" fill="#707D9B"/>
<path d="M59.5945 28.4593V23.8921H61.6315V11.9511H59.5945V7.38391H69.9197L74.2101 18.9012L78.6407 7.38391H87.9728V11.9511H85.9358V23.8921H87.9728V28.4593H77.7495V23.8921H79.5319V15.1283L74.4648 28.4593H70.849L65.7819 15.1283V23.8921H67.5643V28.4593H59.5945Z" fill="#707D9B"/>
</svg>
