<svg width="88" height="28" viewBox="0 0 88 28" fill="none" xmlns="http://www.w3.org/2000/svg">
<g clip-path="url(#clip0_4788_111679)">
<path fill-rule="evenodd" clip-rule="evenodd" d="M62.7103 7.28142C64.6589 7.28142 66.2383 5.83969 66.2383 4.06184C66.2383 2.28296 64.6589 0.839844 62.7103 0.839844C60.764 0.839844 59.1854 2.28296 59.1854 4.06184C59.1854 5.83969 60.764 7.28142 62.7103 7.28142ZM35.6905 9.02015C35.5313 9.38534 34.3855 12.3412 31.6144 15.4046V2.30581L24.231 3.6385V27.3815H31.6144V20.0424C33.7529 22.9715 34.8089 27.3815 34.8089 27.3815H43.6528C42.778 24.0602 38.9513 17.936 38.9513 17.936C42.3857 13.9594 43.8942 9.72215 44.1341 9.02015H35.6905ZM55.1013 8.77231C48.488 8.96615 45.131 11.6758 45.131 17.0623V27.3815H52.3458V18.9665C52.3458 15.7411 52.8082 14.3585 56.9991 14.2267V8.86681C56.2937 8.73008 55.1013 8.77231 55.1013 8.77231ZM11.8481 11.6347C10.9437 11.5803 8.84998 11.4567 8.84998 9.73531C8.84998 7.65804 11.8644 7.65804 12.995 7.65804C14.983 7.65804 17.5578 8.19458 19.3964 8.69684C19.3964 8.69684 20.4221 9.02708 21.295 9.36527L21.3761 9.38534V3.69631L21.2647 3.66619C19.0947 2.97284 16.5715 2.30581 11.8936 2.30581C3.82785 2.30581 0.969971 6.59707 0.969971 10.2732C0.969971 12.3924 1.96454 17.3798 11.2018 17.9551C11.9849 17.999 14.0631 18.1084 14.0631 19.8873C14.0631 21.356 12.3617 22.2221 9.50001 22.2221C6.36393 22.2221 3.32184 21.4917 1.47408 20.7991V26.6584C4.24023 27.3206 7.3585 27.6515 11.0131 27.6515C18.8995 27.6515 22.4317 23.5915 22.4317 19.5675C22.4317 15.0048 18.4792 12.0403 11.8481 11.6347ZM59.1338 27.3815H66.2903V9.04092H59.1338V27.3815ZM79.7655 3.47511V27.3815H86.9231V2.30581L79.7655 3.47511ZM69.3217 3.47511L76.4725 2.30581V27.3815H69.3217V3.47511Z" fill="#707D9B"/>
</g>
<defs>
<clipPath id="clip0_4788_111679">
<rect width="86.0395" height="27" fill="white" transform="translate(0.969971 0.652344)"/>
</clipPath>
</defs>
</svg>
