<svg width="113" height="31" viewBox="0 0 113 31" fill="none" xmlns="http://www.w3.org/2000/svg">
<g clip-path="url(#clip0_4788_111683)">
<path d="M17.6379 13.4062V15.9053C17.5402 15.9053 16.9542 15.9538 15.8067 15.9538C14.8544 15.9538 14.1464 15.9053 13.9022 15.9053V13.4062C10.191 13.5761 7.43201 14.2069 7.43201 14.9833C7.43201 15.7597 10.191 16.3905 13.9022 16.5604C14.1464 16.5604 14.83 16.6089 15.7822 16.6089C16.9786 16.6089 17.5402 16.5846 17.6379 16.5604C21.3491 16.3905 24.1081 15.7597 24.1081 14.9833C24.1081 14.2069 21.3491 13.5761 17.6379 13.4062Z" fill="white"/>
<path d="M16.0264 0.0625C7.65176 0.0625 0.839722 6.80743 0.839722 15.1537C0.839722 23.4999 7.62734 30.2448 16.0264 30.2448C24.4255 30.2448 31.2131 23.4999 31.2131 15.1537C31.2131 6.80743 24.4255 0.0625 16.0264 0.0625ZM17.6623 17.1674V24.3491H13.9266V17.1674C9.72711 16.9733 6.57746 16.1484 6.57746 15.1537C6.57746 14.1589 9.72711 13.334 13.9266 13.1399V10.9078H8.75048V7.48677H22.814V10.9078H17.6379V13.1399C21.8374 13.334 24.9871 14.1589 24.9871 15.1537C24.9871 16.1484 21.8374 16.9733 17.6623 17.1674Z" fill="white"/>
<path d="M44.3732 8.57688V12.192H47.9135V14.9093H44.3488V20.4412C44.3488 21.6543 45.0325 22.2608 46.0091 22.2608C46.4974 22.2608 47.0834 22.1153 47.5473 21.8726L48.4263 24.5657C47.5229 24.9297 46.766 25.0753 45.7894 25.0995C43.0059 25.1966 41.1747 23.6195 41.1747 20.4412V14.9336H38.782V12.192H41.1747V8.91655L44.3732 8.57688ZM105.486 12.0221L105.73 13.5021C106.731 11.9251 108.05 11.6825 109.344 11.6825C110.662 11.6825 111.956 12.192 112.64 12.8956L111.2 15.6372C110.54 15.1034 109.954 14.8123 108.905 14.8123C107.244 14.8123 105.706 15.6857 105.706 18.0392V24.7841H102.532V12.0221H105.486ZM97.6976 16.9231C97.4779 15.2733 96.1838 14.4484 94.3526 14.4484C92.6435 14.4484 91.2274 15.2733 90.7635 16.9231H97.6976ZM90.7146 19.5434C90.9344 21.1205 92.3017 22.2608 94.5479 22.2608C95.7199 22.2608 97.2581 21.8241 97.9906 21.072L100.017 23.0615C98.6742 24.4687 96.4524 25.1238 94.4991 25.1238C90.0798 25.1238 87.4429 22.4064 87.4429 18.3061C87.4429 14.4241 90.1042 11.6339 94.2794 11.6339C98.5766 11.6339 101.262 14.2785 100.774 19.5192H90.7146V19.5434ZM76.6999 6.66016V13.7448C77.8475 12.2648 79.2636 11.828 80.7041 11.828C84.3421 11.828 85.978 14.2785 85.978 18.0392V24.8084H82.8039V18.0877C82.8039 15.7585 81.5831 14.7638 79.874 14.7638C77.994 14.7638 76.6999 16.3408 76.6999 18.2575V24.8084H73.5258V6.68442L76.6999 6.66016ZM68.252 8.43131V12.0464H71.7923V14.7638H68.2276V20.2713C68.2276 21.4844 68.9112 22.091 69.8879 22.091C70.3762 22.091 70.9622 21.9454 71.4261 21.7028L72.305 24.3959C71.4017 24.7598 70.6448 24.9054 69.6681 24.9297C66.8847 25.0267 65.0535 23.4497 65.0535 20.2713V14.788H62.6608V12.0464H65.0535V8.77098L68.252 8.43131ZM59.4623 16.9231C59.2425 15.2733 57.9485 14.4484 56.1173 14.4484C54.4082 14.4484 52.992 15.2733 52.5281 16.9231H59.4623ZM52.4793 19.5434C52.6991 21.1205 54.0663 22.2608 56.3126 22.2608C57.4846 22.2608 59.0228 21.8241 59.7553 21.072L61.7818 23.0615C60.4145 24.4687 58.2171 25.1238 56.2638 25.1238C51.8445 25.1238 49.2076 22.4064 49.2076 18.3061C49.2076 14.4241 51.8689 11.6339 56.044 11.6339C60.3412 11.6339 63.027 14.2785 62.5387 19.5192H52.4793V19.5434Z" fill="white"/>
</g>
<defs>
<clipPath id="clip0_4788_111683">
<rect width="112.655" height="30.1823" fill="white" transform="translate(0.00952148 0.0625)"/>
</clipPath>
</defs>
</svg>
