<svg width="96" height="43" viewBox="0 0 96 43" fill="none" xmlns="http://www.w3.org/2000/svg">
<path d="M81.8335 13.1699C86.7521 13.3945 91.4632 15.8642 94.3259 21.2101C98.2346 28.5105 94.9112 36.7519 88.3814 40.3638C85.4289 41.9986 82.03 42.6429 78.6842 42.2022C75.3385 41.7615 72.2222 40.259 69.7934 37.9154C64.082 32.4215 64.0969 23.0453 69.8264 17.5706C72.8774 14.6528 76.569 13.1699 81.8335 13.1699ZM82.091 40.7406C85.1708 40.6523 88.8624 38.9948 91.6324 35.4884C95.1985 30.9738 95.1974 24.5495 91.6729 20.0605C86.651 13.6607 77.2341 12.8761 71.2939 18.4296C67.8375 21.6604 66.4551 25.6938 67.449 30.3447C68.7654 36.5018 74.396 40.829 82.0878 40.7353L82.091 40.7406Z" fill="white"/>
<path d="M66.9121 7.08835C69.4587 7.1948 71.4157 8.35085 72.9258 10.3723C72.3405 7.15328 71.8254 3.94486 72.1181 0.652344C74.2879 3.18054 75.7458 6.12177 77.1782 9.11197C77.2218 6.62848 78.1573 4.61763 80.1026 3.10709C80.2175 3.16777 80.209 3.23271 80.1771 3.29977C78.9873 5.85458 78.9416 8.5052 79.612 11.192C79.7088 11.5816 79.6652 11.6732 79.2597 11.6987C76.9699 11.8287 74.7396 12.4777 72.7374 13.5967C72.3745 13.8001 72.2585 13.7468 72.1117 13.3711C71.2603 11.2027 69.9631 9.35574 68.105 7.92718C67.7209 7.63124 67.3101 7.36725 66.9121 7.08835Z" fill="white"/>
<path d="M37.6504 26.789L36.3297 30.0624C36.085 30.6691 35.8157 31.2674 35.6072 31.8869C35.4539 32.3415 35.1102 32.1871 34.8207 32.2063C34.5483 32.2212 34.294 32.2553 34.1482 31.8752C33.5501 30.3232 32.9105 28.7882 32.2805 27.2468C32.2337 27.1318 32.2518 26.9104 32.0571 26.9529C31.8623 26.9955 31.9634 27.1903 31.9634 27.3181C31.957 28.7892 31.9453 30.2614 31.9634 31.7336C31.9634 32.0903 31.8964 32.2265 31.5048 32.2191C30.6321 32.1999 30.6321 32.2191 30.6321 31.3675C30.6321 29.2214 30.6417 27.0754 30.6226 24.9304C30.6226 24.5557 30.7162 24.4482 31.0897 24.4492C32.2252 24.4492 32.2252 24.4386 32.6796 25.4871C33.3415 27.0136 34.0034 28.5394 34.6654 30.0645C34.726 30.2018 34.7941 30.3359 34.9101 30.5797C35.1836 29.9527 35.4188 29.4279 35.6444 28.8989C36.2074 27.5799 36.7799 26.2653 37.3173 24.9357C37.4673 24.5621 37.6653 24.4396 38.0622 24.4482C39.137 24.4726 39.137 24.4535 39.137 25.5499C39.137 27.6066 39.1264 29.6632 39.1477 31.7241C39.1477 32.1275 39.0349 32.235 38.6379 32.2223C37.7866 32.1956 37.7866 32.2222 37.7866 31.3387C37.7866 29.8349 37.7866 28.3308 37.7866 26.8263L37.6504 26.789Z" fill="white"/>
<path d="M27.7459 27.9312C28.295 27.9312 28.8452 27.9472 29.3932 27.9248C29.722 27.911 29.7891 28.0259 29.8189 28.3506C30.0041 30.5754 28.2386 32.219 26.0868 32.2989C23.835 32.383 22.0685 30.8703 21.9089 28.6721C21.7812 26.9093 22.5772 25.3636 23.9414 24.7239C25.592 23.951 27.5969 24.1916 28.76 25.3168C28.9049 25.4465 29.0329 25.5938 29.141 25.7554C29.3379 26.0747 29.7401 26.4782 29.5273 26.7698C29.3432 27.0221 28.7973 26.8177 28.412 26.8433C28.1992 26.8571 28.1673 26.6676 28.0822 26.5452C27.5 25.6936 26.4465 25.3008 25.3717 25.5276C24.2745 25.7585 23.4892 26.5165 23.337 27.5725C23.1582 28.8073 23.3008 29.9548 24.4597 30.7202C25.9421 31.7006 28.0641 31.0002 28.5781 29.3757C28.6845 29.0298 28.6781 28.8637 28.2354 28.8829C27.5107 28.9159 26.7817 28.8669 26.057 28.8988C25.6228 28.9191 25.6803 28.6615 25.6697 28.3921C25.659 28.1228 25.6697 27.911 26.0474 27.928C26.6115 27.9504 27.1776 27.9312 27.7459 27.9312Z" fill="white"/>
<path d="M13.4842 32.1416C12.4934 32.4269 11.8305 32.1192 11.3952 31.174C11.1185 30.5704 10.6279 30.0679 10.314 29.4707C10.0544 28.98 9.66061 29.0843 9.27325 29.1014C9.0253 29.1131 9.11043 29.3366 9.10937 29.4761C9.10085 30.2383 9.08808 31.0015 9.10937 31.7637C9.11894 32.1086 9.01998 32.2161 8.66241 32.2097C7.77489 32.1927 7.77595 32.2097 7.77595 31.3102C7.77595 29.1471 7.77595 26.983 7.76318 24.8167C7.76318 24.4686 7.82171 24.3068 8.22823 24.3292C9.30624 24.3877 10.3906 24.26 11.4676 24.4133C12.5999 24.574 13.4108 25.3586 13.5108 26.3911C13.6353 27.6558 13.0851 28.5468 11.8762 28.8938C11.4069 29.0279 11.525 29.1663 11.7145 29.4409C12.3157 30.3138 12.901 31.1974 13.4916 32.0777C13.4991 32.0958 13.4885 32.1182 13.4842 32.1416ZM9.10298 26.6945C9.10298 27.1043 9.11788 27.4397 9.10298 27.7782C9.08702 28.0432 9.15725 28.1763 9.4499 28.1657C9.92878 28.1497 10.4077 28.187 10.8855 28.1508C11.7602 28.0826 12.187 27.5781 12.1529 26.7105C12.1284 26.092 11.8177 25.6768 11.2058 25.5246C10.5449 25.3607 9.82237 25.3117 9.21578 25.5246C8.89866 25.6289 9.17747 26.3368 9.10298 26.6945Z" fill="white"/>
<path d="M60.5026 32.2684C58.4551 32.2833 57.0451 31.2528 56.5566 29.4666C56.0362 27.5675 56.7694 25.6173 58.3859 24.7338C60.0024 23.8502 63.0183 24.0866 64.0261 26.4679C64.2123 26.9096 64.125 27.0118 63.66 27.0097C63.146 27.0097 62.7842 26.9512 62.4362 26.4434C61.7721 25.4768 60.7239 25.2884 59.6331 25.5577C58.6456 25.8015 58.0858 26.5158 57.8794 27.4919C57.6378 28.6373 57.807 29.705 58.7116 30.5172C59.8321 31.5232 61.7977 31.19 62.6203 29.9009C62.7905 29.6337 63.8728 29.4006 64.0899 29.5922C64.2336 29.7199 64.1112 29.8562 64.0633 29.9744C63.5089 31.338 62.4543 32.0384 61.0304 32.2354C60.8165 32.2684 60.6015 32.2598 60.5026 32.2684Z" fill="white"/>
<path d="M17.9182 24.4851C18.5354 24.2722 18.7227 24.6384 18.9154 25.1483C19.7443 27.3465 20.618 29.5298 21.48 31.7131C21.6258 32.0782 21.6365 32.2357 21.1512 32.2176C20.2434 32.1836 20.2424 32.2113 19.9178 31.3394C19.6103 30.5134 19.6103 30.5134 18.7398 30.5134C18.014 30.5134 17.2872 30.5261 16.5625 30.5134C16.2581 30.5059 16.0527 30.5666 15.9984 30.903C15.9674 31.0413 15.9225 31.1761 15.8644 31.3054C15.5089 32.2517 15.5089 32.2336 14.4905 32.223C14.1106 32.223 14.1383 32.0878 14.2458 31.8174C14.9786 29.9609 15.7072 28.1026 16.4316 26.2426C16.582 25.903 16.7138 25.5555 16.8264 25.2015C16.9786 24.6192 17.2616 24.2839 17.9182 24.4851ZM17.8278 26.0094C17.4308 27.074 17.0456 28.1385 16.6455 29.1849C16.5284 29.4946 16.6848 29.5042 16.919 29.5042C17.5575 29.4968 18.196 29.4893 18.827 29.5127C19.208 29.5266 19.1803 29.3807 19.0729 29.1029C18.7632 28.296 18.4876 27.4763 18.1747 26.6716C18.0874 26.4491 18.08 26.1776 17.8246 26.0094H17.8278Z" fill="white"/>
<path d="M43.8497 30.5135C43.5485 30.5135 43.241 30.554 42.9473 30.505C42.2939 30.3985 41.9544 30.6742 41.8437 31.298C41.8363 31.3327 41.8256 31.3666 41.8118 31.3992C41.5277 32.1965 41.1552 32.3902 40.3283 32.2093C40.0304 32.1433 40.1815 31.9815 40.2294 31.8569C40.5593 30.9989 40.8987 30.1441 41.2318 29.2883C41.8033 27.8224 42.3843 26.3587 42.9345 24.8855C43.0622 24.5448 43.2431 24.4426 43.5975 24.4479C44.6287 24.4639 44.6308 24.448 45.0075 25.4156C45.8344 27.5446 46.6506 29.6736 47.4934 31.7888C47.652 32.1869 47.5285 32.2231 47.1742 32.2146C46.0323 32.1741 46.3101 32.4083 45.9057 31.3704C45.5173 30.3762 45.779 30.5305 44.6978 30.5188C44.4148 30.5114 44.1328 30.5135 43.8497 30.5135ZM43.8688 25.884C43.4123 27.1071 43.0058 28.1876 42.6078 29.2691C42.5312 29.4756 42.6748 29.5065 42.8355 29.5054C43.5237 29.5054 44.2122 29.5054 44.9011 29.5054C45.0597 29.5054 45.2076 29.4894 45.1299 29.2765C44.734 28.1908 44.3264 27.1103 43.8688 25.8808V25.884Z" fill="white"/>
<path d="M0.998047 28.2561C0.998047 27.0851 0.998047 25.9141 0.998047 24.7432C0.998047 24.5111 0.998047 24.3238 1.3173 24.3366C2.39637 24.3791 3.47971 24.2588 4.55452 24.4153C5.88794 24.6091 6.64137 25.4947 6.61903 26.8105C6.59774 28.0825 5.76024 28.9831 4.44172 29.1098C3.87585 29.1635 3.30698 29.1788 2.73904 29.1556C2.37296 29.1396 2.28996 29.2684 2.29953 29.6016C2.32082 30.3106 2.29102 31.0206 2.31763 31.7306C2.33146 32.0904 2.24313 32.2256 1.85364 32.215C0.998047 32.1915 0.998047 32.2128 0.998047 31.341V28.2539V28.2561ZM3.33923 25.4192C2.31443 25.4117 2.31443 25.4117 2.31443 26.4432V26.6018C2.31443 28.2518 2.31443 28.2518 3.96071 28.1017C4.85178 28.0194 5.2849 27.5489 5.26007 26.6902C5.23879 25.8992 4.73543 25.4372 3.87664 25.4192C3.69467 25.416 3.51802 25.4192 3.33923 25.4192Z" fill="white"/>
<path d="M51.0129 28.7788C51.0129 29.7698 50.9937 30.762 51.0224 31.753C51.0341 32.1394 50.9064 32.2225 50.5457 32.215C49.688 32.2001 49.688 32.215 49.688 31.3368C49.688 29.5133 49.6805 27.6898 49.6943 25.8663C49.6943 25.5097 49.6113 25.3532 49.2229 25.3819C48.7642 25.4149 48.3003 25.3606 47.8395 25.3979C47.401 25.433 47.3989 25.1935 47.4138 24.8784C47.4245 24.5931 47.3532 24.3302 47.8182 24.3355C49.5347 24.3589 51.2523 24.3526 52.9688 24.3355C53.4243 24.3355 53.3253 24.6293 53.3285 24.8678C53.3317 25.1062 53.4051 25.4213 52.9592 25.4C52.4474 25.3724 51.9323 25.4096 51.4204 25.3883C51.1012 25.3745 50.9948 25.4671 51.0022 25.8056C51.0267 26.7967 51.0107 27.7877 51.0107 28.7798L51.0129 28.7788Z" fill="white"/>
<path d="M55.3572 28.2973C55.3572 29.448 55.3391 30.5976 55.3667 31.7473C55.3763 32.1359 55.2486 32.2221 54.8868 32.2157C54.0355 32.2019 54.0355 32.2157 54.0355 31.3385C54.0355 29.1808 54.0461 27.022 54.0259 24.8642C54.0259 24.4469 54.1323 24.2734 54.558 24.3415C54.6992 24.3603 54.8424 24.3603 54.9836 24.3415C55.2912 24.3085 55.3742 24.448 55.3699 24.7407C55.3487 25.9266 55.3572 27.1125 55.3572 28.2973Z" fill="white"/>
<path d="M84.9629 22.6606C83.2006 22.6734 81.6948 22.105 80.6402 20.6264C79.8485 19.515 79.907 18.261 80.7466 17.484C81.0328 17.215 81.3879 17.0308 81.7725 16.9517C83.9498 16.5004 85.8504 16.9858 87.3413 18.7007C88.0043 19.4639 88.3533 20.372 87.9351 21.3534C87.5361 22.2923 86.6273 22.5244 85.7078 22.6511C85.46 22.6709 85.2111 22.6741 84.9629 22.6606Z" fill="white"/>
<path d="M84.2084 24.4851C84.8118 24.2956 85.0182 24.6309 85.2119 25.1482C86.0377 27.3507 86.9008 29.5393 87.7659 31.7248C87.9256 32.1261 87.8723 32.2708 87.4296 32.2112C87.2711 32.1905 87.1104 32.1905 86.9518 32.2112C86.6102 32.2549 86.4666 32.1048 86.3516 31.7854C85.8983 30.508 85.8834 30.5165 84.5372 30.5165C83.97 30.5165 83.4028 30.5325 82.8345 30.5102C82.5376 30.4984 82.3652 30.5911 82.2929 30.8817C82.2489 31.0351 82.196 31.1858 82.1343 31.333C81.797 32.2315 81.797 32.2102 80.8392 32.2219C80.4231 32.2219 80.4135 32.1037 80.5434 31.7695C81.1744 30.1929 81.7874 28.6089 82.4067 27.0282C82.6451 26.4182 82.9239 25.8199 83.108 25.1951C83.2879 24.6032 83.5614 24.2839 84.2084 24.4851ZM84.1648 25.887C83.7199 27.0835 83.3326 28.1374 82.9356 29.187C82.8154 29.5063 83.0037 29.5063 83.224 29.501C83.8625 29.501 84.501 29.4872 85.1395 29.501C85.4779 29.5106 85.4865 29.3882 85.38 29.1199C85.1449 28.528 84.9352 27.9255 84.7139 27.3283C84.5479 26.894 84.3808 26.4576 84.1648 25.887Z" fill="white"/>
<path d="M69.1174 28.2674C69.1174 27.0964 69.1174 25.9255 69.1174 24.7545C69.1174 24.5288 69.094 24.3287 69.4261 24.3393C70.4902 24.3766 71.5544 24.2659 72.6186 24.4053C74.0169 24.5895 74.8012 25.506 74.7469 26.8537C74.6991 28.1375 73.8264 29.0178 72.4696 29.1211C71.9226 29.1626 71.3714 29.1733 70.8233 29.1616C70.5264 29.1552 70.4232 29.2382 70.4317 29.5426C70.4509 30.2878 70.4243 31.033 70.4445 31.7781C70.453 32.0868 70.3859 32.2135 70.0422 32.2167C69.1153 32.2273 69.1153 32.2444 69.1143 31.3012V28.2674H69.1174ZM71.4586 25.4177C71.2815 25.43 71.1037 25.43 70.9265 25.4177C70.5285 25.3634 70.3945 25.5124 70.4221 25.9159C70.4531 26.5187 70.4531 27.1227 70.4221 27.7255C70.4072 28.063 70.5285 28.163 70.8478 28.1428C71.2362 28.1173 71.6278 28.1375 72.0184 28.1119C72.9357 28.0545 73.4018 27.5637 73.3837 26.7036C73.3646 25.9042 72.8399 25.4411 71.9364 25.4262C71.779 25.4156 71.6193 25.4177 71.4597 25.4177H71.4586Z" fill="white"/>
<path d="M89.8802 27.9623C90.4644 26.8382 90.9869 25.8397 91.502 24.8369C91.7063 24.4399 92.7141 24.1227 93.0982 24.3643C93.3196 24.5038 93.11 24.6453 93.0482 24.7603C92.4353 25.8961 91.8553 27.0532 91.1785 28.1497C90.6586 28.9544 90.4331 29.9142 90.54 30.8663C90.548 31.0255 90.548 31.1851 90.54 31.3443C90.54 32.1959 90.242 32.4141 89.4056 32.2118C89.1704 32.1554 89.214 31.9989 89.2129 31.8467C89.2129 31.3145 89.1757 30.7822 89.2193 30.25C89.2704 29.6187 89.0895 29.079 88.7777 28.5468C88.0679 27.3215 87.4049 26.0707 86.7143 24.8359C86.5312 24.5091 86.4482 24.3601 86.976 24.3217C87.7529 24.2653 88.1849 24.5123 88.4872 25.2532C88.8532 26.1495 89.3672 26.983 89.8802 27.9623Z" fill="white"/>
<path d="M75.687 28.2988C75.687 27.1459 75.7061 25.9931 75.6763 24.8413C75.6667 24.441 75.7827 24.2845 76.1754 24.3399C76.2987 24.3558 76.4235 24.3558 76.5468 24.3399C76.915 24.2941 77.0321 24.4357 77.0289 24.8157C77.0097 26.7829 77.0289 28.7544 77.0119 30.7184C77.0119 31.0963 77.1023 31.2113 77.4844 31.1921C78.1559 31.1602 78.8316 31.2006 79.5063 31.1804C80.0682 31.1634 79.8 31.57 79.8585 31.8116C79.9341 32.1182 79.8064 32.214 79.502 32.2108C78.3506 32.1981 77.1981 32.1959 76.0456 32.2108C75.7263 32.2108 75.6784 32.0905 75.6816 31.8042C75.6976 30.6386 75.687 29.4687 75.687 28.2988Z" fill="white"/>
</svg>
