<svg width="154" height="22" viewBox="0 0 154 22" fill="none" xmlns="http://www.w3.org/2000/svg">
<path d="M60.042 22C53.1096 22 50.6219 16.1465 50.5978 11.1337C50.5842 8.03549 51.547 5.10645 53.2392 3.0971C54.9272 1.09044 57.2797 0.0302734 60.042 0.0302734C62.5171 0.0302734 64.7807 1.14312 66.5877 3.24905L66.8422 3.5457L65.3917 5.19542C65.0402 5.59439 64.5678 5.81389 64.0618 5.81389C63.7034 5.81389 63.3517 5.69858 63.0448 5.47978C62.1377 4.83345 61.1274 4.50542 60.042 4.50542C58.3797 4.50542 57.0335 5.10481 56.0411 6.2872C55.0379 7.4841 54.4699 9.24831 54.4823 11.1271C54.5067 14.2486 55.9802 17.5842 60.0419 17.5842C61.0897 17.5842 62.2202 17.2032 63.1434 16.5389L63.2039 16.4954C63.5097 16.2801 63.8592 16.1655 64.2132 16.1655C64.7594 16.1655 65.285 16.4362 65.6552 16.9081L67.057 18.5802L66.8076 18.8705C65.0497 20.9181 62.7101 22 60.042 22Z" fill="white"/>
<path d="M79.6347 21.5665V13.3691H71.9246V21.5665H67.9902V2.78807C67.9902 1.50724 68.8725 0.465332 69.9569 0.465332C71.0404 0.465332 71.922 1.50724 71.922 2.78807L71.9246 9.01081H79.6344L79.637 2.78655C79.637 1.50642 80.519 0.465332 81.6036 0.465332C82.6876 0.465332 83.5697 1.50724 83.5697 2.78807V21.5666H79.6347V21.5665Z" fill="white"/>
<path d="M41.7592 21.5381V4.7369L36.3159 4.73303L36.3192 2.75962C36.3192 1.47949 37.2012 0.438755 38.2853 0.438755L49.1724 0.433838C50.2573 0.433838 51.1399 1.47539 51.1399 2.75588L51.1417 4.73046L45.6948 4.73655V21.5381H41.7592Z" fill="white"/>
<path d="M32.6531 2.58821C32.1626 1.28103 31.064 0.436035 29.8543 0.436035C28.6531 0.436035 27.5586 1.27178 27.0662 2.56491L19.8564 21.5388H24.1266L25.5971 17.7149H34.1181L35.5639 21.5388H39.8595L32.6531 2.58821ZM27.2046 13.3274L29.858 6.13876L32.5125 13.3274H27.2046Z" fill="white"/>
<path d="M14.9852 21.5365V7.64183L10.0447 15.6264H8.87432L3.93442 7.64254V21.5364H0.000488281V3.15662C0.000488281 1.41605 1.18895 0 2.64966 0C3.52238 0 4.33863 0.510064 4.83329 1.36524L9.45954 8.88978L14.0902 1.35682C14.5829 0.504679 15.3959 0 16.269 0C17.7304 0 18.9194 1.41605 18.9194 3.15662V21.5365H14.9852Z" fill="white"/>
<path d="M133.772 11.5602C133.891 9.86445 133.467 8.21251 132.584 6.9168L132.534 6.83673C131.565 5.45943 130.112 4.66957 128.548 4.66957C127.298 4.66957 126.064 5.15201 124.979 6.06443C123.722 7.12366 122.497 9.54638 121.307 11.8975L120.996 12.5126C119.603 15.2619 118.163 18.105 116.255 19.713C114.537 21.157 112.565 21.9202 110.552 21.9202C107.837 21.9202 105.309 20.498 103.617 18.0175C102.078 15.7568 101.346 12.8966 101.557 9.96361L105.327 10.3683C105.208 12.0637 105.633 13.7156 106.515 15.0112L106.565 15.0913C107.534 16.4686 108.987 17.2585 110.551 17.2585C111.801 17.2585 113.035 16.776 114.12 15.8636C115.377 14.8048 116.601 12.384 117.792 10.0306L118.104 9.41304C119.497 6.66452 120.937 3.82258 122.844 2.21501C124.562 0.770977 126.534 0.0078125 128.547 0.0078125C131.262 0.0078125 133.79 1.43007 135.482 3.9105C137.021 6.17155 137.753 9.03175 137.542 11.9644L133.772 11.5602Z" fill="white"/>
<path d="M137.542 9.96361C137.753 12.8963 137.021 15.7566 135.482 18.0175C133.79 20.4978 131.262 21.9202 128.547 21.9202C126.534 21.9202 124.562 21.157 122.844 19.713C120.937 18.1053 119.497 15.2634 118.104 12.515L117.792 11.8975C116.601 9.54416 115.377 7.12331 114.12 6.06443C113.035 5.15212 111.801 4.66957 110.551 4.66957C108.987 4.66957 107.534 5.45943 106.565 6.83673L106.515 6.9168C105.633 8.21251 105.208 9.86434 105.327 11.5597L101.557 11.9644C101.346 9.03128 102.078 6.17108 103.617 3.9105C105.309 1.43019 107.837 0.0078125 110.552 0.0078125C112.565 0.0078125 114.537 0.770977 116.255 2.21501C118.163 3.82305 119.603 6.66616 120.996 9.41538L121.307 10.0306C122.497 12.3816 123.722 14.8044 124.979 15.8636C126.064 16.7759 127.298 17.2585 128.548 17.2585C130.112 17.2585 131.565 16.4686 132.534 15.0913L132.584 15.0112C133.467 13.7155 133.891 12.0637 133.772 10.3678L137.542 9.96361Z" fill="white"/>
<path d="M148.805 21.5389L142.776 14.0658V21.5385H138.843L138.839 2.74972C138.839 1.46993 139.72 0.429199 140.802 0.429199C141.885 0.429199 142.766 1.46876 142.766 2.74667L142.778 8.34556L148.236 1.17258C148.585 0.698806 149.091 0.429199 149.626 0.429199C150.644 0.429199 151.472 1.40777 151.472 2.61076C151.472 3.14143 151.31 3.65149 151.017 4.04741L145.506 11.1123L154.001 21.5434L148.805 21.5389Z" fill="white"/>
<path d="M99.1995 10.6403L99.0671 10.4742L99.1795 10.289C99.7382 9.3663 100.075 8.2888 100.152 7.17326C100.273 5.43996 99.7882 3.77842 98.7872 2.49488C97.7472 1.16055 96.2529 0.395508 94.6874 0.395508H87.4805C86.361 0.395508 85.4502 1.47136 85.4502 2.79423V21.5349L95.2225 21.5322C98.2392 21.5322 100.693 18.6314 100.693 15.0655C100.693 13.4201 100.163 11.8484 99.1995 10.6403ZM89.3348 4.71742H94.6458C95.5498 4.71742 96.2855 5.58711 96.2855 6.65571C96.2855 7.72465 95.5501 8.59435 94.6465 8.59435L89.3348 8.59552V4.71742ZM94.9954 17.2105L89.3348 17.2121V12.9215H94.9944C95.9948 12.9215 96.8086 13.8832 96.8086 15.0656C96.8086 16.2484 95.9951 17.2105 94.9954 17.2105Z" fill="white"/>
</svg>
