<svg width="159" height="160" viewBox="0 0 159 160" fill="none" xmlns="http://www.w3.org/2000/svg">
<path d="M90.5288 72.178C88.4522 72.487 86.392 72.5845 84.4308 73.1048C79.437 74.4382 75.5804 77.2186 73.6356 82.1292C72.7127 84.4544 72.7291 86.8283 73.3389 89.2348C73.3719 89.3812 73.4213 89.5275 73.5532 89.934C71.7567 89.7551 70.1086 89.6251 68.477 89.4299C67.9331 89.3649 67.4057 89.2023 66.8783 89.056C66.1202 88.8446 65.4444 88.9259 64.7522 89.3324C63.5986 90.0153 62.4449 90.682 61.2582 91.3161C60.9945 91.4624 60.5495 91.495 60.3188 91.3649C60.154 91.2673 60.1375 90.7795 60.1869 90.5031C60.3682 89.6576 60.6155 88.8283 60.8462 87.999C61.1923 86.747 61.1593 86.6332 60.0881 85.8039C57.3357 83.6576 55.325 81.0072 54.5669 77.5926C53.5286 72.9422 54.8965 68.9097 58.1433 65.4951C61.0934 62.3732 64.8346 60.6334 69.0868 60.0155C75.3661 59.1049 81.1016 60.3895 85.98 64.5846C88.3533 66.6333 89.952 69.2024 90.5288 72.178ZM78.6294 67.5764C77.245 67.5764 76.1572 68.6333 76.1737 69.9829C76.1902 71.3 77.245 72.3243 78.5964 72.3406C79.9808 72.3406 81.0686 71.2837 81.0521 69.9341C81.0521 68.6171 79.9809 67.5764 78.6294 67.5764ZM66.4004 72.3406C67.7848 72.3406 68.8725 71.2674 68.8561 69.9341C68.8396 68.6171 67.7683 67.5927 66.4333 67.5764C65.0489 67.5764 63.9611 68.6496 63.9776 69.9829C63.9941 71.3 65.0489 72.3406 66.4004 72.3406Z" fill="white"/>
<path d="M89.6419 73.5435C93.6082 73.5918 97.2139 74.655 100.328 77.1519C106.163 81.8558 106.277 89.7171 100.541 94.5499C98.9185 95.9192 98.8857 95.4359 99.5249 97.7557C99.6232 98.094 99.7707 98.4161 99.8035 98.7544C99.8363 99.0766 99.7543 99.3988 99.7052 99.721C99.4102 99.6565 99.066 99.6565 98.8037 99.5277C97.8859 99.0444 96.9845 98.545 96.1158 98.0134C95.5094 97.6429 94.9357 97.5946 94.2474 97.7557C88.7404 99.0605 83.6268 98.3195 79.0869 94.856C76.3334 92.7457 74.6781 89.9749 74.465 86.4953C74.2847 83.4829 75.3336 80.8409 77.366 78.6179C79.9883 75.7343 83.3318 74.1878 87.1998 73.6884C87.6095 73.6401 88.0029 73.5596 88.4126 73.5273C88.8224 73.5273 89.2321 73.5435 89.6419 73.5435ZM96.6731 81.9525C96.6567 80.8409 95.7389 79.971 94.608 80.0033C93.5262 80.0194 92.6412 80.9054 92.6248 81.9686C92.6084 83.0479 93.5754 83.9822 94.6571 83.9822C95.7716 83.9661 96.6895 83.0479 96.6731 81.9525ZM86.5442 82.0008C86.5606 80.8732 85.692 80.0033 84.5611 80.0033C83.4302 80.0033 82.5451 80.8732 82.5451 82.0008C82.5451 83.064 83.4302 83.95 84.5119 83.9822C85.61 83.9984 86.5278 83.1123 86.5442 82.0008Z" fill="white"/>
<path d="M33.5072 142.478C33.5072 145.401 33.6051 148.308 33.4909 151.231C33.2951 155.873 29.8522 159.325 25.2997 159.391C19.654 159.49 13.9919 159.473 8.32988 159.391C3.67951 159.325 0.138695 155.74 0.073427 151.017C-0.0244757 145.302 -0.0244757 139.571 0.073427 133.839C0.138695 129.248 3.53266 125.68 8.0525 125.565C13.894 125.416 19.7519 125.416 25.5771 125.565C29.9664 125.68 33.2951 129.116 33.4746 133.559C33.6051 136.532 33.4909 139.505 33.5072 142.478C33.4909 142.478 33.5072 142.478 33.5072 142.478ZM16.7822 154.518C18.7402 154.518 20.6983 154.535 22.6563 154.518C26.1482 154.485 28.6447 151.991 28.7263 148.44C28.7589 147.201 28.7263 145.963 28.7263 144.724C28.7263 141.966 28.7589 139.224 28.71 136.466C28.661 132.997 26.2787 130.437 22.9174 130.371C18.7892 130.288 14.6609 130.288 10.5327 130.371C7.41612 130.437 4.98488 132.848 4.88698 135.987C4.77276 140.215 4.77275 144.46 4.87066 148.688C4.95224 152.074 7.4814 154.452 10.8264 154.502C12.8171 154.535 14.8078 154.518 16.7822 154.518Z" fill="white"/>
<path d="M142.155 33.9892C139.493 33.9892 136.816 34.0058 134.154 33.9892C129.028 33.9396 125.501 30.3648 125.468 25.1682C125.436 21.5769 125.468 18.0021 125.468 14.4108C125.468 12.5406 125.452 10.654 125.468 8.78383C125.517 3.63683 129.126 0.0124124 134.203 0.0124124C139.542 -0.00413746 144.865 -0.00413746 150.204 0.0124124C155.363 0.0289622 158.972 3.68648 158.988 8.93277C159.004 14.3115 159.004 19.6902 158.988 25.0689C158.972 30.3483 155.429 33.9561 150.237 34.0058C147.543 34.0058 144.849 33.9892 142.155 33.9892ZM154.139 17.0918C154.139 14.9073 154.204 12.7392 154.122 10.5547C153.992 7.49294 151.657 5.04356 148.636 4.96081C144.375 4.86151 140.097 4.86151 135.836 4.96081C132.783 5.02701 130.383 7.52604 130.318 10.6043C130.236 14.8742 130.236 19.144 130.318 23.4139C130.383 26.5418 133.011 29.0739 136.097 29.0905C140.179 29.1236 144.261 29.1236 148.326 29.0905C151.428 29.0574 153.992 26.5915 154.122 23.4304C154.204 21.3452 154.139 19.2102 154.139 17.0918Z" fill="white"/>
<path d="M33.5317 17.0691C33.5317 19.7988 33.5644 22.5285 33.5317 25.2582C33.4827 29.6258 30.8704 32.9346 26.7886 33.8114C26.1356 33.9603 25.4335 33.9934 24.7641 33.9934C19.4251 34.0099 14.1025 34.0099 8.76355 33.9934C4.42055 33.9768 1.12248 31.3795 0.224495 27.2766C0.0612246 26.5652 0.0285724 25.8042 0.0122453 25.0597C-0.00408177 19.683 -0.00408177 14.3063 0.0122453 8.92952C0.0122453 3.70168 3.62053 0.0289517 8.79621 0.0124079C14.1352 -0.00413595 19.4578 -0.00413595 24.7967 0.0124079C29.8908 0.0289517 33.4664 3.61896 33.5317 8.78062C33.5644 11.56 33.5317 14.3062 33.5317 17.0691ZM16.7802 29.146C16.7802 29.1295 16.7802 29.1295 16.7802 29.146C18.8537 29.146 20.9109 29.1626 22.9844 29.1295C25.9396 29.0799 28.601 26.5983 28.6826 23.6204C28.7969 19.2363 28.7969 14.8522 28.6826 10.4846C28.6173 7.57293 26.2172 5.09136 23.3436 5.00864C18.968 4.89283 14.5923 4.89283 10.2167 5.00864C7.3431 5.09136 4.97568 7.57292 4.89404 10.5012C4.79608 14.7695 4.84506 19.0378 4.86138 23.3061C4.86138 26.3832 7.60433 29.2288 10.9187 29.1626C12.878 29.0964 14.8209 29.146 16.7802 29.146Z" fill="white"/>
<path d="M127.531 139.669C125.339 139.669 123.164 139.75 120.988 139.653C117.999 139.506 115.508 137.113 115.425 134.182C115.325 129.949 115.309 125.716 115.425 121.499C115.508 118.357 118.049 115.931 121.27 115.866C125.439 115.784 129.623 115.784 133.791 115.866C136.996 115.931 139.521 118.292 139.62 121.418C139.736 125.748 139.72 130.096 139.604 134.426C139.537 137.064 136.963 139.522 134.24 139.636C132.015 139.734 129.773 139.653 127.531 139.669ZM127.481 134.915C128.76 134.915 130.022 134.931 131.301 134.915C133.227 134.882 134.788 133.384 134.821 131.496C134.871 129.021 134.854 126.562 134.821 124.088C134.788 122.297 133.576 120.832 131.749 120.734C128.959 120.587 126.169 120.587 123.379 120.734C121.553 120.815 120.307 122.232 120.257 124.055C120.191 126.546 120.174 129.054 120.257 131.545C120.324 133.515 121.901 134.898 123.911 134.915C125.09 134.931 126.285 134.915 127.481 134.915Z" fill="white"/>
<path d="M43.1962 118.321C43.2136 119.414 42.1905 120.366 40.9594 120.397C39.711 120.428 38.6186 119.476 38.6013 118.353C38.5839 117.245 39.6763 116.262 40.9248 116.262C42.1385 116.293 43.1962 117.229 43.1962 118.321Z" fill="white"/>
<path d="M57.442 118.307C57.4578 119.461 56.5143 120.413 55.3665 120.397C54.2815 120.397 53.3223 119.446 53.3066 118.354C53.2909 117.277 54.2186 116.31 55.3193 116.263C56.4671 116.217 57.4263 117.153 57.442 118.307Z" fill="white"/>
<path d="M118.11 57.9015C116.827 57.9015 115.786 56.9579 115.804 55.81C115.821 54.7092 116.879 53.7656 118.092 53.7656C119.323 53.7656 120.433 54.7721 120.398 55.8729C120.363 56.9894 119.34 57.9015 118.11 57.9015Z" fill="white"/>
<path d="M43.1913 41.24C43.1042 42.367 42.0412 43.2435 40.8214 43.1965C39.5493 43.1339 38.5037 42.1322 38.6083 41.0208C38.6954 39.9095 39.7758 39.0173 40.9956 39.0643C42.2503 39.1112 43.2784 40.113 43.1913 41.24Z" fill="white"/>
<path d="M57.442 133.021C57.4578 134.164 56.5772 135.073 55.4451 135.104C54.2972 135.135 53.3223 134.195 53.3066 133.068C53.2909 131.956 54.2815 130.969 55.4136 130.969C56.5143 130.969 57.4263 131.909 57.442 133.021Z" fill="white"/>
<path d="M40.881 102.016C42.134 102.016 43.1608 102.896 43.1956 104.013C43.2304 105.129 42.1688 106.136 40.9158 106.151C39.6802 106.167 38.5839 105.161 38.6013 104.044C38.6013 102.928 39.628 102.031 40.881 102.016Z" fill="white"/>
<path d="M118.145 102.016C119.393 102.032 120.399 102.944 120.399 104.06C120.399 105.176 119.289 106.167 118.058 106.151C116.844 106.12 115.803 105.161 115.803 104.076C115.821 102.928 116.861 102 118.145 102.016Z" fill="white"/>
<path d="M55.4132 24.8166C56.561 24.8322 57.4729 25.7841 57.4414 26.9545C57.41 28.0625 56.4509 28.9677 55.3503 28.952C54.2498 28.9208 53.3064 27.9689 53.3064 26.8921C53.3064 25.7529 54.2812 24.801 55.4132 24.8166Z" fill="white"/>
<path d="M76.7428 41.1307C76.7428 42.2741 75.7678 43.2138 74.6355 43.1981C73.519 43.1668 72.6069 42.2427 72.6069 41.1307C72.6069 40.0187 73.5347 39.0789 74.6513 39.0632C75.7678 39.0319 76.7428 40.003 76.7428 41.1307Z" fill="white"/>
<path d="M9.65061 41.1538C9.63313 39.999 10.6814 39.0471 11.9568 39.0627C13.1798 39.0627 14.2281 40.0146 14.2456 41.107C14.263 42.215 13.1623 43.2138 11.9219 43.1982C10.6814 43.1826 9.66808 42.2618 9.65061 41.1538Z" fill="white"/>
<path d="M62.9573 41.0675C62.9889 39.9554 63.9515 39.047 65.056 39.0627C66.2079 39.0784 67.1231 40.0494 67.0916 41.2084C67.06 42.3205 66.1133 43.2289 64.9929 43.1976C63.8252 43.1819 62.9258 42.2421 62.9573 41.0675Z" fill="white"/>
<path d="M101.098 26.9003C101.081 25.7726 102.059 24.8485 103.317 24.8172C104.593 24.7858 105.676 25.7256 105.693 26.8533C105.711 27.9653 104.593 28.9677 103.352 28.9521C102.112 28.9364 101.116 28.028 101.098 26.9003Z" fill="white"/>
<path d="M118.092 43.1981C116.844 43.1981 115.77 42.1993 115.804 41.0913C115.822 39.9989 116.896 39.0625 118.11 39.0625C119.358 39.0625 120.433 40.0613 120.398 41.1693C120.363 42.2774 119.306 43.2138 118.092 43.1981Z" fill="white"/>
<path d="M103.405 43.1981C102.165 43.2138 101.134 42.3053 101.099 41.1931C101.064 40.0339 102.077 39.0783 103.352 39.0627C104.593 39.047 105.711 40.0339 105.693 41.1617C105.676 42.2426 104.628 43.1825 103.405 43.1981Z" fill="white"/>
<path d="M57.442 41.1534C57.4263 42.3081 56.4514 43.2288 55.3193 43.1976C54.2186 43.1508 53.2909 42.1989 53.3066 41.1066C53.3223 40.0143 54.2815 39.0781 55.3665 39.0625C56.5143 39.0625 57.4578 40.0143 57.442 41.1534Z" fill="white"/>
<path d="M9.65061 118.299C9.66808 117.195 10.6989 116.277 11.9219 116.262C13.1623 116.246 14.263 117.241 14.2456 118.361C14.2281 119.449 13.1623 120.382 11.9393 120.398C10.6814 120.398 9.63313 119.449 9.65061 118.299Z" fill="white"/>
<path d="M26.2459 76.7411C24.9753 76.7568 23.9136 75.8292 23.8962 74.6815C23.8788 73.581 24.9057 72.6377 26.1415 72.6062C27.412 72.5748 28.4912 73.5338 28.4912 74.6658C28.5086 75.7821 27.4817 76.7254 26.2459 76.7411Z" fill="white"/>
<path d="M134.644 55.8417C134.644 56.9579 133.656 57.8698 132.39 57.9013C131.107 57.917 130.049 56.9737 130.049 55.8417C130.066 54.7411 131.09 53.7978 132.303 53.7664C133.569 53.7349 134.644 54.7097 134.644 55.8417Z" fill="white"/>
<path d="M24.3557 118.299C24.3713 117.156 25.3582 116.216 26.486 116.263C27.5826 116.31 28.5068 117.281 28.4911 118.362C28.4754 119.458 27.5042 120.397 26.4234 120.397C25.2955 120.413 24.34 119.427 24.3557 118.299Z" fill="white"/>
<path d="M67.0922 118.353C67.0763 119.461 66.1573 120.397 65.0482 120.397C63.9074 120.413 62.9409 119.461 62.9567 118.307C62.9567 117.167 63.9391 116.231 65.0958 116.262C66.2049 116.309 67.108 117.245 67.0922 118.353Z" fill="white"/>
<path d="M4.59531 118.353C4.57952 119.461 3.66396 120.382 2.54318 120.397C1.40661 120.413 0.459473 119.445 0.459473 118.306C0.475258 117.198 1.39083 116.277 2.51161 116.262C3.66396 116.262 4.59531 117.198 4.59531 118.353Z" fill="white"/>
<path d="M57.442 147.306C57.4263 148.47 56.4986 149.366 55.3193 149.35C54.2029 149.319 53.2909 148.376 53.3066 147.275C53.3223 146.174 54.2658 145.231 55.3665 145.215C56.5143 145.199 57.4578 146.158 57.442 147.306Z" fill="white"/>
<path d="M11.9482 57.9013C10.6427 57.917 9.63321 57.005 9.65061 55.8257C9.65061 54.7093 10.6602 53.7815 11.9134 53.7658C13.1492 53.7501 14.2458 54.7407 14.2458 55.8571C14.2284 56.9735 13.2014 57.8855 11.9482 57.9013Z" fill="white"/>
<path d="M118.145 82.2553C116.879 82.2729 115.803 81.2206 115.803 79.9578C115.803 78.7302 116.827 77.6779 118.058 77.6604C119.341 77.6428 120.399 78.6776 120.399 79.9578C120.382 81.203 119.358 82.2378 118.145 82.2553Z" fill="white"/>
<path d="M57.442 12.1534C57.4578 13.2854 56.5615 14.213 55.4451 14.2445C54.3129 14.2759 53.3223 13.3169 53.3066 12.1849C53.2909 11.0686 54.2029 10.1253 55.335 10.1096C56.5143 10.0939 57.4263 10.9743 57.442 12.1534Z" fill="white"/>
<path d="M118.101 5.05631C116.83 5.05631 115.786 3.9864 115.804 2.70601C115.821 1.46069 116.865 0.460938 118.101 0.460938C119.336 0.460938 120.381 1.47823 120.398 2.72355C120.433 3.9864 119.371 5.05631 118.101 5.05631Z" fill="white"/>
<path d="M149.35 74.6652C149.367 75.7815 148.354 76.7248 147.113 76.7405C145.838 76.772 144.754 75.8287 144.754 74.681C144.754 73.5647 145.768 72.6371 147.008 72.6057C148.301 72.59 149.332 73.4861 149.35 74.6652Z" fill="white"/>
<path d="M43.1962 79.9929C43.1788 81.2728 42.1173 82.2897 40.8295 82.2547C39.5939 82.2196 38.5671 81.1501 38.6019 79.9228C38.6193 78.6429 39.6983 77.626 40.9861 77.661C42.2043 77.6961 43.2136 78.7481 43.1962 79.9929Z" fill="white"/>
<path d="M147.061 82.7148C148.319 82.7148 149.332 83.6269 149.35 84.7434C149.367 85.9229 148.354 86.8507 147.061 86.8507C145.821 86.8507 144.79 85.9386 144.755 84.8221C144.72 83.6898 145.803 82.7148 147.061 82.7148Z" fill="white"/>
<path d="M86.8527 12.1694C86.8527 13.3173 85.7694 14.2607 84.5113 14.245C83.2882 14.2293 82.2573 13.2701 82.2573 12.1694C82.2573 11.053 83.2708 10.141 84.5288 10.1096C85.8043 10.0939 86.8527 11.0059 86.8527 12.1694Z" fill="white"/>
<path d="M81.3382 41.115C81.3382 42.2741 80.3911 43.2138 79.2387 43.1981C78.118 43.1825 77.2024 42.2584 77.2024 41.1464C77.2024 40.003 78.1653 39.0319 79.3019 39.0632C80.4069 39.0632 81.3382 40.003 81.3382 41.115Z" fill="white"/>
<path d="M132.364 86.8505C131.129 86.8662 130.085 85.9542 130.05 84.822C130.015 83.7055 131.077 82.7148 132.347 82.7148C133.582 82.7148 134.609 83.6112 134.644 84.7276C134.678 85.8755 133.652 86.8348 132.364 86.8505Z" fill="white"/>
<path d="M118.092 67.5524C116.861 67.5524 115.821 66.5312 115.804 65.2987C115.786 64.0134 116.827 62.957 118.092 62.957C119.358 62.957 120.416 64.031 120.399 65.2987C120.364 66.5488 119.341 67.5524 118.092 67.5524Z" fill="white"/>
<path d="M26.6622 86.8507C25.4139 86.8507 24.391 85.9544 24.3563 84.8379C24.3216 83.7057 25.3619 82.715 26.6276 82.715C27.8932 82.6993 28.9508 83.6585 28.9508 84.8064C28.9162 85.8915 27.8759 86.835 26.6622 86.8507Z" fill="white"/>
<path d="M11.9393 86.8507C10.6465 86.8507 9.63314 85.9071 9.65061 84.7434C9.66808 83.6112 10.6989 82.7148 11.9393 82.7148C13.1623 82.7148 14.2281 83.6584 14.2456 84.7592C14.263 85.8914 13.2147 86.8507 11.9393 86.8507Z" fill="white"/>
<path d="M89.107 149.35C87.8143 149.335 86.8185 148.391 86.8534 147.228C86.8884 146.111 87.954 145.199 89.1769 145.215C90.3997 145.231 91.4479 146.19 91.4479 147.291C91.4479 148.423 90.3997 149.366 89.107 149.35Z" fill="white"/>
<path d="M153.945 118.368C153.929 119.491 152.923 120.443 151.807 120.396C150.69 120.349 149.794 119.413 149.81 118.305C149.825 117.198 150.769 116.262 151.869 116.262C153.002 116.277 153.961 117.245 153.945 118.368Z" fill="white"/>
<path d="M72.1474 26.8762C72.1474 28.0153 71.0816 28.9827 69.8236 28.9515C68.6005 28.9359 67.5697 27.9997 67.5522 26.8919C67.5347 25.7684 68.618 24.801 69.8935 24.8166C71.1165 24.8322 72.1474 25.7528 72.1474 26.8762Z" fill="white"/>
<path d="M86.8528 26.9233C86.8353 25.7684 87.8836 24.8164 89.1415 24.8164C90.3645 24.8164 91.4302 25.7372 91.4477 26.8453C91.4652 27.969 90.3994 28.9522 89.1415 28.9522C87.9185 28.9522 86.8702 28.0314 86.8528 26.9233Z" fill="white"/>
<path d="M67.552 133.044C67.552 131.921 68.6312 130.953 69.8844 130.969C71.1202 130.985 72.1297 131.905 72.1472 133.029C72.1646 134.137 71.155 135.073 69.9192 135.104C68.6486 135.12 67.552 134.168 67.552 133.044Z" fill="white"/>
<path d="M147.079 68.0119C148.354 68.0276 149.384 68.9869 149.349 70.1348C149.314 71.267 148.319 72.1476 147.044 72.1476C145.769 72.1476 144.704 71.1726 144.756 70.0404C144.791 68.924 145.856 67.9962 147.079 68.0119Z" fill="white"/>
<path d="M40.8988 149.351C39.6459 149.351 38.6193 148.458 38.6019 147.33C38.5671 146.217 39.6459 145.231 40.8988 145.215C42.1168 145.215 43.1782 146.155 43.1956 147.251C43.2304 148.395 42.169 149.351 40.8988 149.351Z" fill="white"/>
<path d="M134.644 156.947C134.627 158.115 133.6 159.03 132.295 158.998C131.059 158.967 130.032 158.036 130.049 156.915C130.067 155.764 131.128 154.833 132.416 154.864C133.652 154.896 134.662 155.827 134.644 156.947Z" fill="white"/>
<path d="M118.067 153.944C116.814 153.929 115.753 152.922 115.805 151.806C115.858 150.689 116.901 149.793 118.137 149.809C119.372 149.825 120.416 150.768 120.399 151.869C120.399 153.001 119.32 153.96 118.067 153.944Z" fill="white"/>
<path d="M118.076 149.351C116.793 149.335 115.753 148.376 115.805 147.243C115.84 146.143 116.897 145.215 118.11 145.215C119.358 145.231 120.433 146.221 120.398 147.338C120.346 148.47 119.324 149.351 118.076 149.351Z" fill="white"/>
<path d="M23.8969 89.404C23.8622 88.2884 24.8677 87.3613 26.116 87.3142C27.3816 87.2671 28.4738 88.2098 28.4912 89.3411C28.5085 90.441 27.4856 91.3995 26.272 91.4466C25.0238 91.4938 23.9315 90.551 23.8969 89.404Z" fill="white"/>
<path d="M96.0433 41.1307C96.0433 42.2897 95.0925 43.2138 93.9358 43.1981C92.8107 43.1825 91.9075 42.2584 91.9075 41.1307C91.9075 39.9873 92.8741 39.0319 94.0309 39.0632C95.1401 39.0789 96.0433 40.003 96.0433 41.1307Z" fill="white"/>
<path d="M156.433 135.104C155.261 135.089 154.359 134.13 154.406 132.966C154.438 131.85 155.404 130.938 156.513 130.97C157.669 131.001 158.571 131.976 158.54 133.139C158.508 134.24 157.574 135.12 156.433 135.104Z" fill="white"/>
<path d="M69.823 10.1096C71.0983 10.0939 72.1116 10.9744 72.1465 12.0908C72.1814 13.2544 71.1682 14.2136 69.8929 14.245C68.6351 14.2607 67.552 13.2859 67.552 12.1694C67.5695 11.0373 68.5827 10.1253 69.823 10.1096Z" fill="white"/>
<path d="M103.369 149.809C104.61 149.809 105.658 150.721 105.693 151.821C105.728 152.938 104.645 153.929 103.387 153.944C102.112 153.944 101.081 153.001 101.098 151.837C101.116 150.705 102.112 149.809 103.369 149.809Z" fill="white"/>
<path d="M149.35 104.068C149.35 105.195 148.354 106.119 147.113 106.151C145.873 106.182 144.755 105.211 144.755 104.083C144.737 102.94 145.803 102.016 147.096 102.016C148.354 102.047 149.35 102.924 149.35 104.068Z" fill="white"/>
<path d="M149.809 133.053C149.809 131.909 150.781 130.938 151.909 130.969C153.005 131.001 153.929 131.941 153.945 133.037C153.945 134.165 152.974 135.12 151.846 135.104C150.718 135.089 149.809 134.165 149.809 133.053Z" fill="white"/>
<path d="M43.1962 65.2459C43.2136 66.4959 42.1867 67.5346 40.9509 67.5522C39.6628 67.5698 38.6011 66.5311 38.6011 65.2635C38.6011 64.0312 39.628 62.9749 40.8638 62.9573C42.1345 62.9397 43.1788 63.9431 43.1962 65.2459Z" fill="white"/>
<path d="M147.061 91.4483C145.838 91.4483 144.79 90.524 144.755 89.4117C144.72 88.2838 145.786 87.3125 147.061 87.3125C148.354 87.3125 149.367 88.2368 149.35 89.4117C149.332 90.5397 148.301 91.4483 147.061 91.4483Z" fill="white"/>
<path d="M86.8525 41.1071C86.8525 39.9991 87.8834 39.0627 89.1239 39.0627C90.3644 39.0471 91.4652 40.0303 91.4477 41.1539C91.4302 42.2464 90.3819 43.1827 89.1589 43.1983C87.9009 43.1983 86.8525 42.2464 86.8525 41.1071Z" fill="white"/>
<path d="M89.159 135.104C87.9363 135.12 86.8883 134.212 86.8534 133.099C86.8185 131.956 87.849 130.985 89.124 130.969C90.3467 130.953 91.4121 131.877 91.4471 132.99C91.482 134.086 90.4166 135.073 89.159 135.104Z" fill="white"/>
<path d="M147.061 149.351C145.821 149.351 144.773 148.458 144.755 147.33C144.72 146.202 145.803 145.231 147.061 145.215C148.301 145.215 149.332 146.123 149.35 147.251C149.367 148.426 148.371 149.351 147.061 149.351Z" fill="white"/>
<path d="M147.096 135.105C145.82 135.105 144.754 134.165 144.754 133.021C144.754 131.925 145.803 130.985 147.026 130.969C148.284 130.953 149.35 131.909 149.35 133.052C149.332 134.18 148.319 135.105 147.096 135.105Z" fill="white"/>
<path d="M26.2106 72.1474C24.9754 72.1631 23.9316 71.2511 23.8968 70.1347C23.862 69.0025 24.9232 68.0276 26.1758 68.0119C27.3935 67.9962 28.4547 68.9239 28.4895 70.0403C28.5417 71.1567 27.4979 72.1316 26.2106 72.1474Z" fill="white"/>
<path d="M40.8726 72.1474C39.6415 72.1316 38.6184 71.2039 38.6011 70.0875C38.6011 68.9554 39.6762 67.9962 40.9247 68.0119C42.1385 68.0276 43.1789 68.9711 43.1962 70.0718C43.2136 71.2039 42.1385 72.1631 40.8726 72.1474Z" fill="white"/>
<path d="M118.127 72.1474C116.861 72.1631 115.786 71.2039 115.804 70.0718C115.821 68.9711 116.861 68.0276 118.075 68.0119C119.324 67.9962 120.416 68.9711 120.399 70.1032C120.381 71.2039 119.358 72.1316 118.127 72.1474Z" fill="white"/>
<path d="M96.0431 133.076C96.0273 134.208 95.1241 135.105 93.9833 135.105C92.8108 135.105 91.8918 134.177 91.9077 133.013C91.9235 131.897 92.8425 130.969 93.9675 130.969C95.1083 130.953 96.059 131.928 96.0431 133.076Z" fill="white"/>
<path d="M64.9216 135.103C63.7509 135.04 62.8966 134.082 62.9598 132.889C63.0231 131.79 64.0357 130.895 65.1273 130.974C66.298 131.052 67.1524 132.025 67.0891 133.187C67.0258 134.302 66.0607 135.15 64.9216 135.103Z" fill="white"/>
<path d="M147.061 130.049C145.751 130.049 144.72 129.014 144.755 127.716C144.773 126.47 145.821 125.453 147.061 125.453C148.336 125.453 149.384 126.506 149.349 127.803C149.331 129.084 148.336 130.049 147.061 130.049Z" fill="white"/>
<path d="M62.4972 147.291C62.4972 148.407 61.5885 149.335 60.4606 149.35C59.2856 149.366 58.3613 148.454 58.3613 147.291C58.3613 146.143 59.317 145.184 60.4606 145.216C61.5572 145.231 62.4972 146.19 62.4972 147.291Z" fill="white"/>
<path d="M11.9742 82.2553C10.6812 82.2728 9.65039 81.2595 9.65039 79.9491C9.65039 78.6737 10.6463 77.6778 11.9043 77.6604C13.1972 77.6429 14.263 78.6912 14.2456 79.9666C14.2456 81.207 13.2147 82.2378 11.9742 82.2553Z" fill="white"/>
<path d="M89.1153 120.86C90.4207 120.842 91.4651 121.863 91.4477 123.148C91.4477 124.398 90.4381 125.437 89.1849 125.455C87.9143 125.472 86.8525 124.433 86.8525 123.131C86.8699 121.863 87.8447 120.877 89.1153 120.86Z" fill="white"/>
<path d="M40.881 144.756C39.6454 144.738 38.6187 143.721 38.6013 142.475C38.5839 141.213 39.6628 140.16 40.9333 140.16C42.1863 140.16 43.1956 141.177 43.1956 142.44C43.2304 143.721 42.1689 144.756 40.881 144.756Z" fill="white"/>
<path d="M69.8326 115.802C68.5448 115.802 67.5181 114.75 67.5529 113.47C67.5877 112.242 68.6318 111.207 69.8674 111.207C71.1378 111.207 72.1646 112.294 72.1472 113.575C72.095 114.838 71.103 115.802 69.8326 115.802Z" fill="white"/>
<path d="M103.423 106.614C104.681 106.631 105.694 107.652 105.694 108.902C105.694 110.187 104.611 111.243 103.336 111.208C102.043 111.19 101.048 110.116 101.1 108.814C101.135 107.546 102.148 106.596 103.423 106.614Z" fill="white"/>
<path d="M57.4422 108.92C57.4422 110.222 56.4987 111.243 55.335 111.208C54.2342 111.19 53.3064 110.117 53.3064 108.885C53.3221 107.582 54.2499 106.579 55.4451 106.614C56.5773 106.632 57.4422 107.635 57.4422 108.92Z" fill="white"/>
<path d="M26.2887 106.614C27.5196 106.649 28.5252 107.723 28.4905 108.954C28.4558 110.239 27.3636 111.259 26.098 111.207C24.8844 111.172 23.8789 110.098 23.8962 108.849C23.9309 107.582 24.9884 106.579 26.2887 106.614Z" fill="white"/>
<path d="M9.65009 55.8417C9.65009 56.9737 8.65422 57.8855 7.39629 57.9013C6.10342 57.917 5.03767 56.9737 5.05514 55.8417C5.05514 54.7097 6.15583 53.7349 7.41376 53.7664C8.63675 53.7978 9.66756 54.7411 9.65009 55.8417Z" fill="white"/>
<path d="M55.3825 5.51562C56.5144 5.51562 57.4578 6.47125 57.442 7.63054C57.4263 8.7585 56.5144 9.65146 55.3825 9.65146C54.2662 9.65146 53.3229 8.74283 53.3071 7.63054C53.2757 6.50259 54.2505 5.51562 55.3825 5.51562Z" fill="white"/>
<path d="M11.9659 62.495C10.7303 62.5107 9.6861 61.6145 9.65129 60.4981C9.61649 59.3187 10.5911 58.3753 11.8963 58.3596C13.1668 58.3438 14.2458 59.2716 14.2458 60.4194C14.2284 61.5201 13.1842 62.4793 11.9659 62.495Z" fill="white"/>
<path d="M40.9071 62.4952C39.6588 62.4952 38.5839 61.5045 38.6013 60.388C38.6186 59.2715 39.6588 58.3594 40.8898 58.3594C42.1207 58.3594 43.1609 59.2715 43.1956 60.3723C43.2303 61.5045 42.1727 62.4795 40.9071 62.4952Z" fill="white"/>
<path d="M129.59 147.275C129.59 148.454 128.69 149.366 127.506 149.35C126.369 149.335 125.47 148.423 125.454 147.306C125.454 146.158 126.417 145.199 127.553 145.215C128.69 145.231 129.574 146.127 129.59 147.275Z" fill="white"/>
<path d="M132.347 58.3594C133.583 58.3594 134.627 59.2715 134.644 60.388C134.662 61.536 133.6 62.4952 132.347 62.4952C131.111 62.4952 130.015 61.4888 130.05 60.3723C130.067 59.2715 131.111 58.3594 132.347 58.3594Z" fill="white"/>
<path d="M147.061 96.9609C148.301 96.9609 149.332 97.8888 149.35 98.9895C149.367 100.153 148.354 101.097 147.061 101.097C145.768 101.097 144.72 100.138 144.755 98.9895C144.773 97.9045 145.838 96.9609 147.061 96.9609Z" fill="white"/>
<path d="M62.497 12.1537C62.5126 13.2384 61.5727 14.213 60.4761 14.2444C59.3482 14.2759 58.377 13.3327 58.3613 12.1852C58.3613 11.0533 59.2229 10.1416 60.3665 10.1102C61.5101 10.0787 62.4813 11.0062 62.497 12.1537Z" fill="white"/>
<path d="M137.608 87.3127C138.724 87.297 139.667 88.209 139.699 89.3254C139.73 90.4575 138.771 91.4481 137.639 91.4481C136.523 91.4639 135.596 90.5519 135.564 89.4355C135.533 88.2719 136.429 87.3284 137.608 87.3127Z" fill="white"/>
<path d="M26.4547 62.9573C27.567 62.9748 28.4913 64.0095 28.4913 65.2547C28.4913 66.5175 27.52 67.5697 26.3764 67.5522C25.2484 67.5347 24.3555 66.4999 24.3555 65.2547C24.3555 63.9569 25.2954 62.9397 26.4547 62.9573Z" fill="white"/>
<path d="M11.9219 96.9611C13.1445 96.9454 14.21 97.8731 14.2449 98.9738C14.2799 100.106 13.2319 101.081 11.9568 101.097C10.6992 101.112 9.68619 100.232 9.65125 99.0996C9.61632 97.9517 10.6468 96.9769 11.9219 96.9611Z" fill="white"/>
<path d="M120.858 89.3883C120.858 88.209 121.762 87.297 122.934 87.3127C124.059 87.3127 124.994 88.2404 124.994 89.3568C125.01 90.5047 124.027 91.4639 122.887 91.4481C121.762 91.4324 120.874 90.5362 120.858 89.3883Z" fill="white"/>
<path d="M38.6012 89.3568C38.6012 90.5361 37.5977 91.4639 36.2948 91.4481C35.0448 91.4481 34.0061 90.5204 34.0061 89.404C33.9885 88.2404 35.0448 87.297 36.3477 87.3127C37.6153 87.3284 38.5836 88.209 38.6012 89.3568Z" fill="white"/>
<path d="M101.098 147.338C101.081 148.47 100.067 149.351 98.8094 149.351C97.534 149.351 96.4857 148.391 96.5031 147.244C96.5381 146.143 97.6038 145.199 98.8094 145.215C100.085 145.215 101.116 146.174 101.098 147.338Z" fill="white"/>
<path d="M79.2861 149.35C78.1499 149.366 77.219 148.47 77.2032 147.354C77.1716 146.19 78.1026 145.231 79.2545 145.215C80.3749 145.199 81.3059 146.111 81.3374 147.228C81.369 148.407 80.4695 149.335 79.2861 149.35Z" fill="white"/>
<path d="M55.3979 19.7617C56.5143 19.7617 57.4263 20.6895 57.442 21.806C57.4578 22.9853 56.5458 23.9131 55.3664 23.8974C54.25 23.8816 53.3223 22.9853 53.3066 21.8531C53.2909 20.7524 54.2658 19.7617 55.3979 19.7617Z" fill="white"/>
<path d="M62.4972 26.8843C62.4972 27.9809 61.5537 28.9207 60.4529 28.9521C59.3207 28.9677 58.3458 27.9965 58.3615 26.8687C58.3772 25.7408 59.2893 24.8323 60.4058 24.8166C61.5379 24.8009 62.4972 25.7565 62.4972 26.8843Z" fill="white"/>
<path d="M65.0165 24.8164C66.1574 24.8164 67.0763 25.6937 67.0922 26.8217C67.108 27.9809 66.1732 28.9522 65.0324 28.9522C63.8916 28.9522 62.9409 27.9966 62.9567 26.853C62.9567 25.725 63.8757 24.8164 65.0165 24.8164Z" fill="white"/>
<path d="M147.096 77.6604C148.354 77.6779 149.35 78.6951 149.35 79.9578C149.35 81.2556 148.319 82.2728 147.026 82.2553C145.785 82.2378 144.754 81.203 144.754 79.9578C144.754 78.6951 145.803 77.6428 147.096 77.6604Z" fill="white"/>
<path d="M81.338 26.8294C81.3538 27.9773 80.4103 28.9522 79.2625 28.9522C78.1618 28.9522 77.2183 28.0245 77.2026 26.908C77.1869 25.7444 78.0989 24.8009 79.2625 24.8166C80.4103 24.8009 81.3223 25.7129 81.338 26.8294Z" fill="white"/>
<path d="M96.0433 26.8841C96.0433 28.0274 95.0767 28.9828 93.9358 28.9515C92.8107 28.9202 91.9075 27.9961 91.9075 26.8684C91.9075 25.7094 92.8582 24.8009 94.0309 24.8166C95.1559 24.8479 96.0433 25.7407 96.0433 26.8841Z" fill="white"/>
<path d="M18.841 118.345C18.8251 119.457 17.9061 120.382 16.7812 120.397C15.6403 120.413 14.6897 119.442 14.7055 118.298C14.7214 117.17 15.6404 116.262 16.7653 116.262C17.922 116.246 18.8568 117.186 18.841 118.345Z" fill="white"/>
<path d="M144.295 147.275C144.295 148.422 143.427 149.318 142.274 149.35C141.106 149.381 140.159 148.469 140.159 147.306C140.159 146.158 141.106 145.199 142.258 145.215C143.379 145.231 144.279 146.143 144.295 147.275Z" fill="white"/>
<path d="M67.5522 7.55231C67.5697 6.45573 68.618 5.51581 69.841 5.51581C71.0989 5.50015 72.1646 6.4714 72.1472 7.61497C72.1297 8.74287 71.1338 9.6358 69.8759 9.65146C68.583 9.65146 67.5347 8.71154 67.5522 7.55231Z" fill="white"/>
<path d="M62.4972 151.877C62.4972 153.004 61.5222 153.96 60.3899 153.944C59.2734 153.929 58.3613 153.004 58.3613 151.877C58.3613 150.733 59.3049 149.793 60.4686 149.809C61.5694 149.84 62.4972 150.78 62.4972 151.877Z" fill="white"/>
<path d="M89.159 115.802C87.8486 115.82 86.8353 114.82 86.8528 113.487C86.8528 112.242 87.8836 111.207 89.124 111.207C90.382 111.19 91.4652 112.277 91.4477 113.54C91.4302 114.803 90.4344 115.785 89.159 115.802Z" fill="white"/>
<path d="M98.714 135.103C97.4186 135.04 96.4207 134.066 96.5083 132.919C96.5783 131.82 97.6987 130.909 98.9065 130.972C100.202 131.035 101.165 132.008 101.095 133.171C101.025 134.302 99.9744 135.15 98.714 135.103Z" fill="white"/>
<path d="M11.9567 115.802C10.6288 115.802 9.65039 114.803 9.65039 113.487C9.66786 112.242 10.6812 111.225 11.9218 111.207C13.1798 111.207 14.263 112.294 14.2456 113.557C14.2281 114.803 13.2147 115.802 11.9567 115.802Z" fill="white"/>
<path d="M149.35 108.867C149.367 110.134 148.392 111.173 147.139 111.208C145.851 111.243 144.789 110.222 144.755 108.937C144.737 107.688 145.729 106.632 146.982 106.614C148.305 106.579 149.332 107.547 149.35 108.867Z" fill="white"/>
<path d="M89.159 29.4102C90.4169 29.4102 91.4302 30.3961 91.4477 31.6637C91.4652 32.9314 90.3994 34.0229 89.1415 34.0053C87.901 34.0053 86.8702 32.9842 86.8528 31.7341C86.8353 30.4313 87.8486 29.4102 89.159 29.4102Z" fill="white"/>
<path d="M101.098 41.0988C101.116 42.2265 100.12 43.1506 98.8792 43.1976C97.6213 43.2289 96.5206 42.2892 96.5031 41.1615C96.4857 40.0338 97.5689 39.047 98.8268 39.0627C100.05 39.0627 101.081 39.9868 101.098 41.0988Z" fill="white"/>
<path d="M57.442 142.422C57.4577 143.702 56.5929 144.72 55.4608 144.755C54.2972 144.79 53.338 143.79 53.3066 142.492C53.2909 141.23 54.2343 140.16 55.3979 140.16C56.53 140.16 57.4263 141.142 57.442 142.422Z" fill="white"/>
<path d="M11.9035 111.208C10.6459 111.191 9.65039 110.174 9.65039 108.911C9.65039 107.596 10.6634 106.596 11.9733 106.614C13.2658 106.631 14.2962 107.701 14.2439 108.981C14.2089 110.226 13.1435 111.226 11.9035 111.208Z" fill="white"/>
<path d="M69.8756 149.809C71.1682 149.824 72.1814 150.764 72.1465 151.924C72.1116 153.036 71.0809 153.944 69.8406 153.944C68.6178 153.944 67.5697 152.989 67.5522 151.908C67.5347 150.733 68.5829 149.793 69.8756 149.809Z" fill="white"/>
<path d="M103.361 5.05631C102.073 5.05631 101.081 4.00394 101.098 2.70601C101.116 1.44315 102.125 0.460938 103.396 0.460938C104.632 0.460938 105.659 1.47823 105.694 2.72355C105.694 3.9864 104.632 5.05631 103.361 5.05631Z" fill="white"/>
<path d="M147.096 52.8466C145.785 52.8624 144.754 51.9469 144.754 50.7789C144.754 49.6582 145.768 48.7269 147.026 48.7111C148.319 48.6954 149.35 49.6108 149.35 50.7789C149.35 51.9311 148.371 52.8308 147.096 52.8466Z" fill="white"/>
<path d="M89.0716 153.944C87.8486 153.912 86.8353 152.969 86.8528 151.838C86.8702 150.675 87.9185 149.763 89.2114 149.81C90.4693 149.842 91.4652 150.769 91.4477 151.901C91.4477 153.032 90.3295 153.975 89.0716 153.944Z" fill="white"/>
<path d="M86.8534 2.69707C86.8884 1.39531 87.9363 0.410188 89.2463 0.462962C90.4864 0.515736 91.482 1.57122 91.447 2.82021C91.4121 4.10439 90.3292 5.1071 89.0367 5.05432C87.7966 5.01914 86.8185 3.96365 86.8534 2.69707Z" fill="white"/>
<path d="M14.7055 41.1694C14.6897 40.0145 15.621 39.0625 16.7732 39.0625C17.8939 39.0625 18.8252 39.9833 18.841 41.0914C18.8567 42.2463 17.9255 43.1827 16.7732 43.1983C15.6526 43.1983 14.7213 42.2931 14.7055 41.1694Z" fill="white"/>
<path d="M101.098 151.853C101.116 152.985 100.12 153.912 98.8792 153.944C97.6038 153.975 96.5206 153.032 96.5031 151.9C96.4857 150.768 97.5514 149.793 98.8268 149.809C100.067 149.809 101.081 150.721 101.098 151.853Z" fill="white"/>
<path d="M38.601 55.8257C38.6185 57.0207 37.6189 57.917 36.286 57.9013C35.0233 57.8855 34.0236 56.9893 34.0061 55.8571C33.9885 54.725 35.0759 53.7501 36.3386 53.7658C37.6013 53.7815 38.5835 54.6778 38.601 55.8257Z" fill="white"/>
<path d="M69.8935 5.05609C68.6005 5.07363 67.5347 4.03889 67.5522 2.75863C67.5522 1.4959 68.5656 0.478699 69.8061 0.461161C71.1165 0.443623 72.1474 1.46082 72.1474 2.75863C72.1474 4.00382 71.134 5.03856 69.8935 5.05609Z" fill="white"/>
<path d="M120.859 55.8729C120.843 54.6934 121.758 53.7656 122.926 53.7656C124.031 53.7656 124.978 54.7092 124.994 55.81C125.01 56.9579 124.079 57.9015 122.911 57.9015C121.743 57.9015 120.874 57.0366 120.859 55.8729Z" fill="white"/>
<path d="M103.344 144.756C102.073 144.738 101.098 143.756 101.098 142.475C101.098 141.16 102.09 140.16 103.413 140.16C104.649 140.178 105.676 141.195 105.694 142.44C105.676 143.721 104.632 144.756 103.344 144.756Z" fill="white"/>
<path d="M139.699 55.8733C139.683 57.0206 138.709 57.9321 137.545 57.9007C136.398 57.8535 135.533 56.9577 135.564 55.8104C135.58 54.6631 136.555 53.7202 137.702 53.7673C138.787 53.8145 139.715 54.7889 139.699 55.8733Z" fill="white"/>
<path d="M9.65008 60.4034C9.66756 61.5197 8.65422 62.463 7.43124 62.4944C6.15584 62.5259 5.0901 61.5826 5.05516 60.4349C5.03769 59.3186 6.03355 58.391 7.29147 58.3596C8.58434 58.3439 9.63261 59.24 9.65008 60.4034Z" fill="white"/>
<path d="M103.317 130.05C102.042 130.034 101.081 129.131 101.098 127.974C101.116 126.802 102.147 125.883 103.44 125.915C104.663 125.947 105.711 126.897 105.693 128.006C105.676 129.163 104.645 130.066 103.317 130.05Z" fill="white"/>
<path d="M0.459664 104.06C0.459664 102.912 1.3594 102.031 2.49592 102.016C3.67978 102.016 4.59531 102.928 4.59531 104.091C4.57953 105.208 3.664 106.136 2.55906 106.151C1.40676 106.167 0.443879 105.208 0.459664 104.06Z" fill="white"/>
<path d="M47.7916 147.323C47.7759 148.439 46.8446 149.351 45.7239 149.351C44.5401 149.351 43.6404 148.455 43.6562 147.26C43.672 146.097 44.619 145.169 45.7713 145.217C46.892 145.264 47.8074 146.223 47.7916 147.323Z" fill="white"/>
<path d="M118.11 62.4952C116.861 62.4952 115.786 61.5045 115.804 60.388C115.821 59.2872 116.861 58.3594 118.092 58.3594C119.358 58.3594 120.416 59.3186 120.399 60.4509C120.381 61.5517 119.324 62.4795 118.11 62.4952Z" fill="white"/>
<path d="M139.699 41.1382C139.699 42.2618 138.712 43.2138 137.584 43.1981C136.472 43.1825 135.563 42.2462 135.563 41.1382C135.563 40.0302 136.488 39.0939 137.584 39.0627C138.712 39.0471 139.699 40.0146 139.699 41.1382Z" fill="white"/>
<path d="M118.101 23.8976C116.83 23.8976 115.786 22.9383 115.804 21.7903C115.838 20.6895 116.883 19.7617 118.101 19.7617C119.354 19.7617 120.433 20.7682 120.398 21.8847C120.381 22.9855 119.336 23.8976 118.101 23.8976Z" fill="white"/>
<path d="M2.49543 87.3127C3.63178 87.297 4.56295 88.1775 4.59452 89.3097C4.62608 90.4733 3.71069 91.4324 2.55856 91.4481C1.40643 91.4639 0.459473 90.5204 0.459473 89.3568C0.459473 88.2404 1.35908 87.3284 2.49543 87.3127Z" fill="white"/>
<path d="M156.504 102.016C157.657 102.032 158.54 102.928 158.54 104.06C158.54 105.208 157.578 106.167 156.441 106.151C155.289 106.136 154.374 105.161 154.405 103.997C154.437 102.881 155.368 102 156.504 102.016Z" fill="white"/>
<path d="M103.369 120.859C104.679 120.859 105.728 121.894 105.693 123.175C105.658 124.42 104.627 125.437 103.387 125.455C102.094 125.455 101.081 124.42 101.098 123.122C101.116 121.824 102.077 120.877 103.369 120.859Z" fill="white"/>
<path d="M118.066 96.9611C119.283 96.9454 120.345 97.8574 120.397 98.9738C120.449 100.106 119.405 101.081 118.135 101.097C116.865 101.112 115.786 100.153 115.804 99.021C115.804 97.936 116.848 96.9926 118.066 96.9611Z" fill="white"/>
<path d="M50.4358 149.347C49.1531 149.285 48.1691 148.296 48.2569 147.134C48.3448 146.036 49.4694 145.141 50.6818 145.22C51.9821 145.298 52.9134 146.256 52.8431 147.448C52.7728 148.563 51.701 149.41 50.4358 149.347Z" fill="white"/>
<path d="M40.9244 96.9609C42.1727 96.9767 43.2303 97.9517 43.1956 99.0839C43.1609 100.2 42.1207 101.097 40.8898 101.097C39.6588 101.097 38.6186 100.169 38.6013 99.0524C38.5839 97.9517 39.6762 96.9609 40.9244 96.9609Z" fill="white"/>
<path d="M52.8468 133.084C52.8292 134.211 51.8257 135.104 50.5581 135.104C49.2728 135.12 48.2341 134.164 48.2517 133.005C48.2693 131.893 49.308 130.969 50.5581 130.969C51.8081 130.969 52.8468 131.909 52.8468 133.084Z" fill="white"/>
<path d="M72.1474 123.157C72.1299 124.454 71.0816 125.489 69.8061 125.454C68.5656 125.419 67.5347 124.367 67.5522 123.139C67.5697 121.842 68.5831 120.842 69.911 120.86C71.1689 120.877 72.1474 121.877 72.1474 123.157Z" fill="white"/>
<path d="M29.4104 89.3568C29.4262 88.209 30.3136 87.3284 31.4545 87.3127C32.6112 87.297 33.5619 88.2404 33.546 89.404C33.5302 90.5204 32.5953 91.4481 31.4861 91.4481C30.3294 91.4639 29.4104 90.5361 29.4104 89.3568Z" fill="white"/>
<path d="M55.3669 38.5993C54.1882 38.5993 53.261 37.5429 53.3081 36.2577C53.3396 35.0253 54.2982 33.9865 55.3984 34.0041C56.5613 34.0217 57.4729 35.0781 57.4414 36.3809C57.41 37.6486 56.5299 38.5993 55.3669 38.5993Z" fill="white"/>
<path d="M151.822 87.3127C152.97 87.297 153.945 88.2404 153.945 89.3726C153.945 90.4732 153.002 91.4324 151.917 91.4481C150.769 91.4639 149.81 90.5361 149.81 89.3726C149.794 88.2404 150.69 87.3284 151.822 87.3127Z" fill="white"/>
<path d="M40.9074 19.7617C42.1559 19.7617 43.2136 20.733 43.1962 21.8766C43.1789 22.9733 42.1385 23.8976 40.9074 23.8976C39.6763 23.8976 38.636 22.9733 38.6013 21.8766C38.5839 20.7487 39.659 19.7617 40.9074 19.7617Z" fill="white"/>
<path d="M101.098 118.361C101.081 119.489 100.05 120.398 98.8097 120.398C97.5519 120.398 96.4688 119.411 96.5038 118.283C96.5387 117.17 97.5694 116.262 98.8097 116.262C100.067 116.246 101.116 117.202 101.098 118.361Z" fill="white"/>
<path d="M9.65009 70.0561C9.66756 71.2197 8.63675 72.1476 7.34388 72.1476C6.10342 72.1476 5.05514 71.2197 5.05514 70.119C5.03767 68.9867 6.12089 68.0117 7.37882 68.0117C8.61928 68.0117 9.63262 68.9238 9.65009 70.0561Z" fill="white"/>
<path d="M118.075 19.3024C116.81 19.3024 115.77 18.2108 115.804 16.9432C115.839 15.6932 116.862 14.6897 118.11 14.7073C119.341 14.7073 120.381 15.746 120.399 16.9784C120.416 18.2461 119.358 19.3024 118.075 19.3024Z" fill="white"/>
<path d="M89.159 9.65126C87.9014 9.66693 86.8883 8.774 86.8534 7.6461C86.8185 6.50254 87.8664 5.53129 89.124 5.51562C90.3467 5.51562 91.4121 6.42421 91.4471 7.52078C91.482 8.68001 90.4515 9.63559 89.159 9.65126Z" fill="white"/>
<path d="M58.3615 118.298C58.3772 117.186 59.3014 116.262 60.4136 116.262C61.5571 116.262 62.5126 117.233 62.497 118.361C62.4813 119.457 61.5258 120.397 60.4292 120.397C59.2857 120.413 58.3459 119.457 58.3615 118.298Z" fill="white"/>
<path d="M115.344 147.275C115.344 148.47 114.46 149.351 113.26 149.351C112.139 149.335 111.208 148.423 111.208 147.307C111.208 146.19 112.124 145.247 113.229 145.216C114.397 145.184 115.344 146.112 115.344 147.275Z" fill="white"/>
<path d="M115.344 12.2009C115.328 13.3331 114.428 14.2452 113.292 14.2452C112.155 14.2452 111.192 13.2702 111.208 12.138C111.224 11.0215 112.155 10.1094 113.276 10.1094C114.476 10.1094 115.359 11.0057 115.344 12.2009Z" fill="white"/>
<path d="M124.994 147.307C124.978 148.439 124.063 149.35 122.942 149.35C121.758 149.366 120.858 148.454 120.858 147.275C120.858 146.112 121.805 145.184 122.974 145.216C124.079 145.247 125.01 146.19 124.994 147.307Z" fill="white"/>
<path d="M137.623 72.1476C136.491 72.1476 135.579 71.2355 135.564 70.119C135.548 68.9553 136.491 68.0117 137.639 68.0117C138.771 68.0117 139.73 69.0024 139.699 70.1347C139.683 71.2355 138.74 72.1476 137.623 72.1476Z" fill="white"/>
<path d="M132.398 96.9611C133.651 96.9768 134.695 97.9673 134.643 99.115C134.608 100.231 133.564 101.127 132.311 101.096C131.058 101.08 130.049 100.153 130.049 99.0364C130.049 97.9202 131.145 96.9454 132.398 96.9611Z" fill="white"/>
<path d="M60.3743 5.51582C61.5065 5.50009 62.4814 6.44354 62.4972 7.5914C62.4972 8.70782 61.5851 9.63554 60.4687 9.65126C59.305 9.66699 58.3615 8.75499 58.3615 7.5914C58.3458 6.45927 59.2578 5.53154 60.3743 5.51582Z" fill="white"/>
<path d="M101.098 7.57529C101.115 8.70733 100.123 9.61924 98.8702 9.65069C97.5997 9.68213 96.5205 8.75449 96.5031 7.60674C96.4857 6.45899 97.5649 5.51562 98.818 5.51562C100.071 5.53135 101.081 6.44326 101.098 7.57529Z" fill="white"/>
<path d="M62.9565 12.1537C62.9565 10.9748 63.8879 10.0787 65.0718 10.1102C66.2084 10.1259 67.0924 11.0376 67.0924 12.1852C67.0924 13.3327 66.1295 14.2759 64.9771 14.2444C63.8405 14.1973 62.9565 13.2698 62.9565 12.1537Z" fill="white"/>
<path d="M96.0431 12.1853C96.0273 13.3017 95.1118 14.2295 93.9912 14.2452C92.8389 14.2452 91.8919 13.3017 91.9077 12.1381C91.9234 10.9902 92.8074 10.1096 93.9596 10.1096C95.1434 10.0939 96.0589 11.0059 96.0431 12.1853Z" fill="white"/>
<path d="M72.1471 17.0573C72.1297 18.3372 71.0641 19.3366 69.7539 19.3015C68.5311 19.2664 67.5179 18.197 67.5529 16.9521C67.5878 15.6547 68.6359 14.6729 69.9461 14.7079C71.2038 14.7605 72.1646 15.7774 72.1471 17.0573Z" fill="white"/>
<path d="M74.6667 23.8974C73.5347 23.8974 72.6228 22.9819 72.6071 21.8612C72.5914 20.709 73.5504 19.7461 74.6981 19.7619C75.8458 19.7777 76.7734 20.7405 76.742 21.8928C76.7263 23.0134 75.7987 23.9131 74.6667 23.8974Z" fill="white"/>
<path d="M86.8507 21.9091C86.7981 23.0916 85.7467 23.943 84.4324 23.8957C83.1706 23.8484 82.2068 22.9024 82.2594 21.7672C82.2944 20.6162 83.416 19.7017 84.6777 19.7648C85.9219 19.8279 86.9033 20.7896 86.8507 21.9091Z" fill="white"/>
<path d="M43.6562 26.8374C43.672 25.6939 44.5716 24.8009 45.7079 24.8166C46.8757 24.8166 47.8226 25.7722 47.7911 26.9001C47.7753 27.9967 46.8126 28.9366 45.7236 28.9522C44.5716 28.9522 43.6404 28.0123 43.6562 26.8374Z" fill="white"/>
<path d="M43.656 41.1382C43.656 39.9834 44.5995 39.0471 45.7475 39.0627C46.8483 39.0783 47.7918 40.0302 47.7918 41.1226C47.7918 42.2462 46.8169 43.2138 45.6846 43.1982C44.5524 43.1825 43.6717 42.2774 43.656 41.1382Z" fill="white"/>
<path d="M115.344 41.107C115.359 42.2775 114.444 43.1983 113.276 43.1983C112.155 43.1983 111.224 42.2775 111.208 41.1694C111.192 40.0457 112.171 39.0625 113.292 39.0625C114.428 39.0781 115.344 39.9833 115.344 41.107Z" fill="white"/>
<path d="M11.9567 43.6565C13.2322 43.674 14.2281 44.6561 14.2456 45.9189C14.263 47.1816 13.1798 48.269 11.9218 48.2514C10.6812 48.2514 9.66786 47.2167 9.65039 45.9715C9.65039 44.6386 10.6288 43.6389 11.9567 43.6565Z" fill="white"/>
<path d="M26.2197 43.6565C27.4683 43.674 28.474 44.6912 28.4914 45.9364C28.4914 47.1816 27.3989 48.269 26.1503 48.2514C24.9191 48.2339 23.9133 47.1991 23.896 45.9539C23.896 44.6561 24.9191 43.6389 26.2197 43.6565Z" fill="white"/>
<path d="M72.1472 45.9188C72.1646 47.1991 71.1164 48.269 69.841 48.2514C68.6005 48.2339 67.5697 47.1991 67.5522 45.9714C67.5347 44.6735 68.5656 43.6562 69.8759 43.6562C71.1513 43.6562 72.1297 44.6384 72.1472 45.9188Z" fill="white"/>
<path d="M103.37 43.6562C104.662 43.6562 105.711 44.7086 105.693 45.9714C105.676 47.1991 104.628 48.2339 103.387 48.2514C102.112 48.269 101.081 47.1991 101.098 45.9012C101.116 44.6209 102.094 43.6562 103.37 43.6562Z" fill="white"/>
<path d="M11.9044 67.5522C10.6289 67.5346 9.65039 66.5311 9.65039 65.2635C9.65039 63.9431 10.6638 62.9397 11.9743 62.9573C13.2323 62.9749 14.2458 63.996 14.2458 65.2459C14.2458 66.5311 13.1974 67.5698 11.9044 67.5522Z" fill="white"/>
<path d="M16.7495 72.1474C15.5615 72.1316 14.6745 71.2039 14.7061 70.0246C14.7378 68.8925 15.6724 67.9962 16.797 68.0119C17.9533 68.0276 18.872 68.9868 18.8404 70.1504C18.8087 71.2668 17.8741 72.1631 16.7495 72.1474Z" fill="white"/>
<path d="M23.8959 70.1033C23.8959 71.2355 22.8825 72.1318 21.6245 72.1476C20.3491 72.1476 19.2833 71.2041 19.3007 70.0561C19.3182 68.9554 20.3491 68.0119 21.5896 68.0119C22.8651 67.9962 23.8959 68.9397 23.8959 70.1033Z" fill="white"/>
<path d="M29.4104 70.0644C29.4104 68.9053 30.3612 67.9812 31.5179 68.0125C32.643 68.0438 33.5462 68.9679 33.5462 70.0957C33.5462 71.2078 32.6272 72.1319 31.4862 72.1476C30.3295 72.1476 29.4104 71.2391 29.4104 70.0644Z" fill="white"/>
<path d="M153.945 137.646C153.929 138.797 152.958 139.744 151.814 139.697C150.702 139.665 149.809 138.719 149.809 137.598C149.825 136.431 150.765 135.532 151.94 135.563C153.068 135.595 153.961 136.526 153.945 137.646Z" fill="white"/>
<path d="M139.699 84.8221C139.683 85.9229 138.74 86.8507 137.624 86.8507C136.46 86.8507 135.548 85.9071 135.564 84.7434C135.579 83.5955 136.476 82.7148 137.608 82.7148C138.771 82.7306 139.715 83.6741 139.699 84.8221Z" fill="white"/>
<path d="M18.841 89.4041C18.8252 90.5206 17.8939 91.4326 16.7732 91.4483C15.6052 91.4483 14.6897 90.5048 14.7055 89.3412C14.7213 88.1933 15.621 87.3127 16.7575 87.3127C17.9413 87.297 18.8567 88.2247 18.841 89.4041Z" fill="white"/>
<path d="M129.589 89.3491C129.605 90.524 128.686 91.4483 127.53 91.4483C126.405 91.4483 125.47 90.524 125.454 89.4117C125.438 88.2525 126.373 87.3125 127.53 87.3125C128.671 87.3282 129.574 88.2055 129.589 89.3491Z" fill="white"/>
<path d="M7.38733 96.9609C8.62314 96.9767 9.63269 97.9044 9.65009 99.0209C9.6675 100.185 8.62314 101.112 7.3351 101.097C6.08188 101.081 5.07234 100.169 5.05493 99.0523C5.05493 97.9202 6.1341 96.9609 7.38733 96.9609Z" fill="white"/>
<path d="M40.8904 111.209C39.6248 111.209 38.5672 110.121 38.6019 108.858C38.6366 107.613 39.6421 106.613 40.9077 106.613C42.156 106.613 43.1789 107.613 43.1962 108.858C43.2136 110.121 42.1387 111.209 40.8904 111.209Z" fill="white"/>
<path d="M89.159 111.209C87.9014 111.209 86.8883 110.205 86.8534 108.955C86.8185 107.634 87.8315 106.613 89.1415 106.613C90.4515 106.613 91.482 107.652 91.4471 108.937C91.4296 110.187 90.3991 111.209 89.159 111.209Z" fill="white"/>
<path d="M40.8901 115.802C39.6417 115.802 38.636 114.806 38.6013 113.548C38.5839 112.308 39.659 111.207 40.9074 111.207C42.1559 111.207 43.2136 112.308 43.1962 113.566C43.1616 114.841 42.1559 115.82 40.8901 115.802Z" fill="white"/>
<path d="M55.3819 115.802C54.2185 115.802 53.2909 114.746 53.3066 113.461C53.338 112.228 54.2971 111.19 55.3976 111.207C56.5453 111.207 57.4729 112.281 57.4415 113.584C57.4257 114.869 56.5453 115.802 55.3819 115.802Z" fill="white"/>
<path d="M43.6562 118.291C43.672 117.167 44.5717 116.262 45.7081 116.262C46.8446 116.262 47.8074 117.229 47.7917 118.369C47.7759 119.461 46.813 120.398 45.7081 120.398C44.5559 120.398 43.6404 119.461 43.6562 118.291Z" fill="white"/>
<path d="M144.295 133.005C144.31 134.18 143.407 135.105 142.235 135.105C141.11 135.105 140.175 134.212 140.159 133.084C140.143 131.924 141.078 130.969 142.219 130.969C143.328 130.969 144.263 131.893 144.295 133.005Z" fill="white"/>
<path d="M72.6071 137.599C72.6229 136.431 73.5663 135.532 74.7456 135.563C75.8777 135.595 76.7583 136.51 76.7426 137.646C76.7268 138.798 75.752 139.729 74.6041 139.698C73.5034 139.666 72.5914 138.719 72.6071 137.599Z" fill="white"/>
<path d="M84.5811 135.562C85.8391 135.562 86.835 136.475 86.8525 137.607C86.87 138.755 85.8042 139.714 84.5287 139.698C83.2882 139.682 82.2748 138.755 82.2573 137.638C82.2573 136.475 83.2707 135.562 84.5811 135.562Z" fill="white"/>
<path d="M132.373 140.16C133.631 140.178 134.627 141.199 134.644 142.449C134.644 143.752 133.614 144.773 132.321 144.755C131.081 144.738 130.05 143.717 130.05 142.467C130.015 141.199 131.098 140.143 132.373 140.16Z" fill="white"/>
<path d="M147.069 144.756C145.782 144.756 144.737 143.703 144.755 142.423C144.772 141.177 145.799 140.16 147.052 140.16C148.323 140.16 149.315 141.142 149.35 142.405C149.367 143.721 148.375 144.738 147.069 144.756Z" fill="white"/>
<path d="M62.9568 147.243C62.9725 146.127 63.9038 145.215 65.0245 145.215C66.1767 145.215 67.108 146.174 67.0922 147.338C67.0764 148.47 66.1609 149.366 65.0245 149.35C63.8249 149.35 62.941 148.423 62.9568 147.243Z" fill="white"/>
<path d="M142.187 76.7405C141.031 76.7248 140.128 75.7657 140.16 74.6023C140.191 73.4861 141.142 72.59 142.266 72.6057C143.454 72.6371 144.34 73.5647 144.293 74.7438C144.261 75.8915 143.327 76.7719 142.187 76.7405Z" fill="white"/>
<path d="M40.9071 29.4102C42.2074 29.4102 43.2303 30.4625 43.1956 31.7429C43.1609 32.9707 42.138 34.0055 40.9071 34.0055C39.6588 34.0055 38.5839 32.9005 38.6013 31.6552C38.636 30.3924 39.6415 29.4102 40.9071 29.4102Z" fill="white"/>
<path d="M4.59531 84.8063C4.59531 85.9384 3.67979 86.8348 2.54327 86.8505C1.39098 86.8662 0.443882 85.9227 0.459667 84.7591C0.475452 83.6269 1.37519 82.7306 2.5117 82.7148C3.664 82.7148 4.59531 83.6426 4.59531 84.8063Z" fill="white"/>
<path d="M106.613 142.44C106.613 141.16 107.399 140.178 108.423 140.16C109.461 140.143 110.289 141.16 110.289 142.475C110.289 143.773 109.461 144.773 108.409 144.755C107.385 144.72 106.613 143.721 106.613 142.44Z" fill="white"/>
<path d="M16.7264 76.7411C15.559 76.7254 14.6598 75.7819 14.7071 74.6026C14.7387 73.4705 15.6537 72.59 16.8053 72.6057C17.9727 72.6214 18.8719 73.5648 18.8404 74.7441C18.793 75.8763 17.8465 76.7568 16.7264 76.7411Z" fill="white"/>
<path d="M50.5316 29.4102C51.8294 29.4102 52.8115 30.3572 52.8466 31.6376C52.8641 32.953 51.882 33.9878 50.5667 34.0053C49.2689 34.0229 48.2341 32.9881 48.2517 31.6727C48.2692 30.4099 49.2513 29.4277 50.5316 29.4102Z" fill="white"/>
<path d="M86.8527 142.475C86.8527 143.738 85.8218 144.738 84.5813 144.756C83.2709 144.756 82.2401 143.738 82.2575 142.44C82.275 141.143 83.3233 140.143 84.6163 140.16C85.8568 140.178 86.8527 141.213 86.8527 142.475Z" fill="white"/>
<path d="M7.3004 96.5014C6.06452 96.4838 5.05493 95.4452 5.05493 94.1955C5.05493 92.9105 6.09933 91.8719 7.40483 91.9071C8.64071 91.9247 9.65031 92.9809 9.65031 94.2307C9.6329 95.5156 8.6059 96.519 7.3004 96.5014Z" fill="white"/>
<path d="M142.243 120.859C143.395 120.859 144.279 121.828 144.295 123.113C144.31 124.433 143.379 125.472 142.211 125.455C141.075 125.437 140.175 124.433 140.159 123.166C140.143 121.845 141.027 120.859 142.243 120.859Z" fill="white"/>
<path d="M69.8934 29.4102C71.1689 29.4277 72.1474 30.4274 72.1474 31.6902C72.1474 32.9881 71.1165 34.0229 69.8235 34.0053C68.5829 33.9878 67.552 32.953 67.552 31.7077C67.552 30.4099 68.5829 29.4102 69.8934 29.4102Z" fill="white"/>
<path d="M108.649 139.698C107.497 139.683 106.582 138.735 106.614 137.567C106.629 136.415 107.545 135.547 108.697 135.563C109.88 135.578 110.764 136.51 110.748 137.694C110.701 138.783 109.754 139.698 108.649 139.698Z" fill="white"/>
<path d="M38.601 65.2021C38.6185 66.5351 37.6364 67.5524 36.3211 67.5524C35.0584 67.5524 34.0236 66.5526 34.0061 65.3073C33.9885 64.0094 35.0057 62.9746 36.3035 62.957C37.5838 62.957 38.5835 63.9217 38.601 65.2021Z" fill="white"/>
<path d="M153.945 84.7825C153.945 85.9346 152.986 86.8815 151.838 86.8499C150.706 86.8341 149.809 85.903 149.809 84.7825C149.809 83.6146 150.753 82.6993 151.917 82.715C153.017 82.7308 153.945 83.662 153.945 84.7825Z" fill="white"/>
<path d="M108.465 29.4102C109.489 29.4102 110.275 30.3924 110.289 31.6728C110.303 32.9707 109.475 34.0055 108.437 34.0055C107.427 33.988 106.627 33.0058 106.613 31.7254C106.613 30.4099 107.399 29.4102 108.465 29.4102Z" fill="white"/>
<path d="M7.32651 62.9573C8.61945 62.9397 9.65031 63.9745 9.65031 65.2723C9.65031 66.5175 8.61945 67.5347 7.37894 67.5522C6.086 67.5697 5.03767 66.5175 5.05515 65.2372C5.07262 63.9745 6.06852 62.9573 7.32651 62.9573Z" fill="white"/>
<path d="M129.589 99.0838C129.574 100.216 128.658 101.112 127.522 101.097C126.354 101.081 125.438 100.153 125.454 98.9894C125.486 97.873 126.417 96.9609 127.538 96.9609C128.69 96.9767 129.605 97.9202 129.589 99.0838Z" fill="white"/>
<path d="M115.344 133.06C115.344 134.184 114.428 135.105 113.307 135.105C112.155 135.105 111.192 134.168 111.208 133.029C111.224 131.906 112.218 130.938 113.339 130.969C114.476 131.016 115.359 131.937 115.344 133.06Z" fill="white"/>
<path d="M40.9333 38.5993C39.628 38.5993 38.5839 37.5781 38.6013 36.2928C38.6187 35.0603 39.6629 34.0039 40.8811 34.0039C42.1515 34.0039 43.2304 35.0779 43.1956 36.3456C43.1956 37.5957 42.1863 38.5817 40.9333 38.5993Z" fill="white"/>
<path d="M40.9162 125.455C39.6981 125.472 38.6367 124.433 38.6019 123.201C38.5671 121.933 39.6111 120.859 40.8814 120.859C42.1516 120.859 43.1608 121.828 43.1956 123.095C43.2304 124.345 42.169 125.437 40.9162 125.455Z" fill="white"/>
<path d="M64.9928 38.5993C63.8405 38.5817 62.9565 37.5996 62.9565 36.3192C62.9565 35.0214 63.8879 33.9866 65.0559 34.0041C66.1767 34.0217 67.0922 35.0389 67.0922 36.3017C67.108 37.6171 66.1924 38.5993 64.9928 38.5993Z" fill="white"/>
<path d="M38.6012 108.946C38.5836 110.226 37.5977 111.209 36.3301 111.209C35.0272 111.209 33.9885 110.174 34.0061 108.876C34.0237 107.578 35.0624 106.596 36.4005 106.614C37.6505 106.649 38.6012 107.648 38.6012 108.946Z" fill="white"/>
<path d="M31.4701 48.7109C32.6424 48.7109 33.5771 49.6423 33.5455 50.8262C33.5296 51.9628 32.6266 52.8468 31.4701 52.8468C30.2819 52.8468 29.3948 51.947 29.4106 50.7473C29.4106 49.5949 30.3136 48.7109 31.4701 48.7109Z" fill="white"/>
<path d="M151.799 52.8466C150.671 52.8149 149.794 51.896 149.81 50.7554C149.825 49.5831 150.765 48.6801 151.94 48.7117C153.052 48.7434 153.961 49.694 153.945 50.8188C153.914 51.9594 152.974 52.8624 151.799 52.8466Z" fill="white"/>
<path d="M129.59 50.8105C129.574 51.9628 128.702 52.8468 127.546 52.8468C126.357 52.8468 125.438 51.947 125.454 50.7632C125.454 49.5951 126.405 48.6954 127.593 48.7111C128.718 48.7585 129.59 49.6582 129.59 50.8105Z" fill="white"/>
<path d="M120.859 45.989C120.843 44.6912 121.698 43.6916 122.839 43.6565C124.028 43.6389 124.978 44.6211 124.994 45.9013C125.01 47.1816 124.059 48.2514 122.903 48.2514C121.778 48.2689 120.874 47.2693 120.859 45.989Z" fill="white"/>
<path d="M93.9754 48.7109C95.1118 48.7109 96.0273 49.6107 96.0431 50.7473C96.0589 51.9312 95.1592 52.8468 93.9754 52.8468C92.8231 52.8468 91.9235 51.9628 91.9077 50.8262C91.8919 49.6265 92.7916 48.7109 93.9754 48.7109Z" fill="white"/>
<path d="M23.8957 108.938C23.8781 110.223 22.8786 111.209 21.6161 111.209C20.3184 111.209 19.2663 110.152 19.3014 108.867C19.3189 107.582 20.3886 106.579 21.6862 106.614C22.9663 106.632 23.9132 107.635 23.8957 108.938Z" fill="white"/>
<path d="M43.6562 123.157C43.6404 121.859 44.4928 120.877 45.6451 120.86C46.829 120.842 47.7761 121.842 47.7918 123.122C47.7918 124.367 46.8921 125.419 45.7714 125.455C44.6033 125.472 43.672 124.455 43.6562 123.157Z" fill="white"/>
<path d="M31.4707 106.613C32.6272 106.613 33.5302 107.599 33.546 108.867C33.5619 110.17 32.6272 111.226 31.4707 111.208C30.3142 111.208 29.4271 110.223 29.4112 108.937C29.3795 107.634 30.2825 106.613 31.4707 106.613Z" fill="white"/>
<path d="M108.486 38.5991C107.416 38.6166 106.613 37.6345 106.613 36.3016C106.613 35.0213 107.402 34.0217 108.416 34.0041C109.458 33.9866 110.289 35.0213 110.289 36.3191C110.303 37.5994 109.514 38.5815 108.486 38.5991Z" fill="white"/>
<path d="M16.7732 86.8507C15.6368 86.8507 14.7213 85.9543 14.7055 84.8221C14.6897 83.6427 15.6052 82.7148 16.7732 82.7148C17.8939 82.7148 18.8252 83.6269 18.841 84.7434C18.8567 85.9229 17.9413 86.8507 16.7732 86.8507Z" fill="white"/>
<path d="M122.902 115.802C121.73 115.802 120.874 114.838 120.858 113.54C120.858 112.224 121.777 111.19 122.934 111.207C124.059 111.225 124.978 112.26 124.993 113.505C125.025 114.803 124.09 115.802 122.902 115.802Z" fill="white"/>
<path d="M118.075 38.5993C116.809 38.5993 115.821 37.5996 115.804 36.3368C115.786 35.074 116.861 33.9866 118.127 34.0041C119.341 34.0217 120.382 35.074 120.399 36.2842C120.399 37.582 119.376 38.5993 118.075 38.5993Z" fill="white"/>
<path d="M69.8756 106.613C71.1857 106.613 72.1814 107.648 72.1465 108.964C72.1115 110.209 71.0809 111.209 69.8406 111.209C68.6003 111.191 67.5697 110.174 67.5522 108.929C67.5348 107.648 68.5654 106.613 69.8756 106.613Z" fill="white"/>
<path d="M47.7918 133.053C47.7918 134.18 46.8131 135.12 45.6608 135.104C44.54 135.089 43.656 134.165 43.656 133.021C43.6718 131.894 44.5716 130.969 45.6924 130.969C46.8131 130.938 47.7918 131.925 47.7918 133.053Z" fill="white"/>
<path d="M132.294 115.801C131.041 115.784 130.032 114.732 130.049 113.505C130.067 112.242 131.163 111.173 132.416 111.208C133.686 111.243 134.695 112.33 134.643 113.61C134.608 114.872 133.564 115.837 132.294 115.801Z" fill="white"/>
<path d="M29.4104 41.1382C29.4104 39.9834 30.3612 39.0471 31.5021 39.0627C32.6113 39.0783 33.5462 40.0146 33.5462 41.1226C33.5462 42.2462 32.5638 43.2138 31.4229 43.1982C30.3136 43.1825 29.4262 42.2774 29.4104 41.1382Z" fill="white"/>
<path d="M65.0328 120.859C66.1893 120.859 67.0765 121.842 67.0924 123.122C67.0924 124.42 66.1576 125.455 65.0011 125.455C63.8287 125.437 62.9257 124.402 62.9574 123.087C62.9574 121.807 63.8604 120.859 65.0328 120.859Z" fill="white"/>
<path d="M38.6012 41.1382C38.6012 42.2618 37.6153 43.1669 36.3477 43.1982C35.08 43.2138 33.9885 42.2462 34.0061 41.1226C34.0061 40.0302 35.0448 39.0939 36.2948 39.0627C37.5625 39.0471 38.6012 39.9834 38.6012 41.1382Z" fill="white"/>
<path d="M72.1474 50.7552C72.1474 51.9436 71.1378 52.8468 69.8324 52.8468C68.5792 52.8468 67.5696 51.9436 67.5522 50.8027C67.5348 49.646 68.5966 48.6953 69.8672 48.7111C71.1378 48.7111 72.1474 49.6302 72.1474 50.7552Z" fill="white"/>
<path d="M106.613 118.298C106.627 117.17 107.441 116.262 108.437 116.262C109.461 116.262 110.289 117.217 110.289 118.361C110.275 119.473 109.447 120.397 108.451 120.397C107.441 120.413 106.613 119.457 106.613 118.298Z" fill="white"/>
<path d="M7.30893 52.8466C6.05089 52.8308 5.05493 51.9153 5.05493 50.7789C5.05493 49.6266 6.12078 48.6954 7.3963 48.7111C8.63687 48.7269 9.65031 49.6582 9.65031 50.7789C9.65031 51.9469 8.6194 52.8624 7.30893 52.8466Z" fill="white"/>
<path d="M118.17 106.614C119.406 106.649 120.433 107.701 120.398 108.929C120.381 110.209 119.302 111.226 118.031 111.208C116.813 111.173 115.786 110.121 115.804 108.876C115.821 107.613 116.883 106.596 118.17 106.614Z" fill="white"/>
<path d="M129.59 108.911C129.59 110.191 128.721 111.191 127.569 111.208C126.401 111.226 125.454 110.209 125.454 108.911C125.454 107.648 126.338 106.631 127.49 106.614C128.69 106.596 129.59 107.578 129.59 108.911Z" fill="white"/>
<path d="M84.5463 43.6565C85.8566 43.6389 86.8699 44.6737 86.8525 45.9715C86.835 47.2167 85.8042 48.2514 84.5637 48.2514C83.2883 48.269 82.2401 47.1991 82.2575 45.9189C82.275 44.6561 83.2709 43.6565 84.5463 43.6565Z" fill="white"/>
<path d="M144.295 108.929C144.279 110.209 143.395 111.191 142.243 111.209C141.074 111.209 140.159 110.192 140.159 108.876C140.175 107.561 141.09 106.579 142.29 106.614C143.442 106.649 144.295 107.649 144.295 108.929Z" fill="white"/>
<path d="M40.8904 130.049C39.6075 130.049 38.5672 128.996 38.6019 127.716C38.6366 126.488 39.6768 125.453 40.8904 125.453C42.1387 125.453 43.2136 126.541 43.1962 127.803C43.1616 129.049 42.1387 130.049 40.8904 130.049Z" fill="white"/>
<path d="M129.589 41.107C129.605 42.2618 128.671 43.2138 127.514 43.1981C126.405 43.1825 125.454 42.2618 125.454 41.1538C125.438 40.0302 126.421 39.0471 127.546 39.0627C128.671 39.0783 129.574 39.9834 129.589 41.107Z" fill="white"/>
<path d="M124.994 41.0835C125.01 42.2114 124.059 43.1983 122.918 43.1983C121.778 43.1983 120.874 42.3054 120.859 41.1775C120.843 40.0026 121.746 39.0627 122.918 39.0627C123.996 39.047 124.978 39.9869 124.994 41.0835Z" fill="white"/>
<path d="M29.4104 118.337C29.4104 117.167 30.3294 116.246 31.4862 116.262C32.5953 116.278 33.546 117.198 33.546 118.306C33.5619 119.43 32.5795 120.413 31.4386 120.397C30.3294 120.382 29.4262 119.477 29.4104 118.337Z" fill="white"/>
<path d="M26.2111 115.802C24.9409 115.802 23.9316 114.82 23.8968 113.575C23.862 112.312 24.9235 111.207 26.1763 111.207C27.4291 111.207 28.5254 112.312 28.4906 113.557C28.4906 114.803 27.4639 115.802 26.2111 115.802Z" fill="white"/>
<path d="M96.0433 123.113C96.0433 124.416 95.1278 125.455 93.9597 125.455C92.839 125.455 91.9235 124.416 91.9077 123.166C91.8919 121.846 92.7916 120.842 93.9913 120.86C95.1594 120.86 96.0433 121.828 96.0433 123.113Z" fill="white"/>
<path d="M93.9678 130.05C92.7796 130.05 91.8766 129.131 91.9083 127.942C91.9241 126.801 92.843 125.914 93.9836 125.914C95.1559 125.914 96.0589 126.849 96.0431 128.037C96.0273 129.163 95.1243 130.05 93.9678 130.05Z" fill="white"/>
<path d="M115.343 26.9778C115.311 28.0894 114.333 28.9975 113.229 28.9505C112.093 28.9035 111.162 27.9015 111.21 26.7743C111.273 25.6627 112.219 24.7859 113.355 24.8172C114.507 24.8329 115.375 25.7879 115.343 26.9778Z" fill="white"/>
<path d="M153.945 74.8976C153.945 75.9179 152.986 76.7565 151.838 76.7425C150.721 76.7286 149.809 75.9179 149.809 74.9115C149.809 73.8772 150.753 73.0526 151.917 73.0666C153.033 73.0806 153.945 73.9052 153.945 74.8976Z" fill="white"/>
<path d="M74.667 19.3024C73.5348 19.3024 72.6229 18.2813 72.6071 17.0312C72.5914 15.7284 73.5191 14.6896 74.6827 14.7073C75.8463 14.7249 76.7583 15.7636 76.7426 17.0665C76.7268 18.3165 75.7991 19.3024 74.667 19.3024Z" fill="white"/>
<path d="M96.0431 7.63858C96.0273 8.77071 95.0962 9.66698 93.9599 9.65126C92.8078 9.65126 91.8767 8.69209 91.9083 7.52851C91.9398 6.39638 92.8552 5.5001 93.9915 5.51583C95.1593 5.53155 96.0589 6.475 96.0431 7.63858Z" fill="white"/>
<path d="M74.667 9.65126C73.5348 9.65126 72.6228 8.74268 72.6071 7.61477C72.5914 6.47121 73.5506 5.51562 74.6827 5.51562C75.8306 5.53129 76.7583 6.48687 76.7426 7.63044C76.7269 8.75834 75.7991 9.66693 74.667 9.65126Z" fill="white"/>
<path d="M52.8468 7.55995C52.8468 8.73926 51.8296 9.66699 50.5317 9.65127C49.2865 9.63554 48.2692 8.72354 48.2517 7.60713C48.2341 6.45926 49.2865 5.50009 50.5668 5.51582C51.8296 5.53154 52.8293 6.44354 52.8468 7.55995Z" fill="white"/>
<path d="M79.3019 149.809C80.4696 149.825 81.369 150.784 81.3374 151.948C81.3059 153.08 80.3749 153.96 79.2388 153.944C78.0711 153.929 77.1716 152.985 77.2032 151.806C77.2348 150.69 78.1815 149.778 79.3019 149.809Z" fill="white"/>
<path d="M86.8525 151.837C86.87 152.985 85.8217 153.944 84.5463 153.944C83.3058 153.929 82.275 153.017 82.2575 151.9C82.2401 150.736 83.2709 149.809 84.5638 149.809C85.8042 149.809 86.835 150.721 86.8525 151.837Z" fill="white"/>
<path d="M96.0433 151.884C96.0433 153.016 95.1401 153.929 94.015 153.944C92.8424 153.96 91.9075 153.048 91.9075 151.869C91.9075 150.736 92.8107 149.824 93.9516 149.809C95.1084 149.809 96.0433 150.721 96.0433 151.884Z" fill="white"/>
<path d="M84.5466 5.05631C83.2539 5.05631 82.2232 3.99991 82.2582 2.71461C82.2757 1.44692 83.2888 0.460938 84.5466 0.460938C85.8044 0.460938 86.835 1.46453 86.8525 2.73222C86.8699 3.99991 85.8393 5.05631 84.5466 5.05631Z" fill="white"/>
<path d="M158.54 151.884C158.54 153.048 157.577 153.96 156.425 153.944C155.288 153.913 154.405 153.001 154.405 151.869C154.405 150.737 155.32 149.825 156.441 149.809C157.609 149.793 158.556 150.721 158.54 151.884Z" fill="white"/>
<path d="M65.0006 52.8468C63.8439 52.8468 62.9565 51.947 62.9565 50.7947C62.9565 49.6109 63.8597 48.6954 65.0481 48.7111C66.189 48.7269 67.0922 49.6267 67.0922 50.7632C67.108 51.947 66.189 52.8468 65.0006 52.8468Z" fill="white"/>
<path d="M156.472 106.613C157.64 106.613 158.556 107.652 158.54 108.955C158.524 110.223 157.609 111.209 156.472 111.209C155.304 111.209 154.389 110.17 154.405 108.849C154.405 107.599 155.32 106.613 156.472 106.613Z" fill="white"/>
<path d="M60.4528 52.8466C59.2735 52.8624 58.3458 51.9276 58.3615 50.7709C58.3772 49.6301 59.2735 48.727 60.4057 48.7111C61.5535 48.6953 62.5127 49.646 62.497 50.8026C62.497 51.9117 61.585 52.8307 60.4528 52.8466Z" fill="white"/>
<path d="M38.6012 113.557C38.5837 114.855 37.6366 115.802 36.3212 115.802C35.0058 115.802 33.9885 114.785 34.0061 113.487C34.0236 112.259 35.0759 111.225 36.3037 111.207C37.6015 111.207 38.6012 112.242 38.6012 113.557Z" fill="white"/>
<path d="M45.7162 115.802C44.5525 115.82 43.6719 114.855 43.6562 113.575C43.6405 112.259 44.5368 111.207 45.7004 111.207C46.8484 111.207 47.7918 112.277 47.7918 113.54C47.7604 114.802 46.8641 115.785 45.7162 115.802Z" fill="white"/>
<path d="M120.859 79.9929C120.843 78.6599 121.743 77.6602 122.926 77.6602C124.063 77.6602 124.978 78.6774 124.994 79.9228C125.01 81.2032 124.063 82.2555 122.911 82.2555C121.758 82.2555 120.874 81.2733 120.859 79.9929Z" fill="white"/>
<path d="M23.8959 50.8027C23.8959 51.9594 22.9175 52.8468 21.6245 52.8468C20.3316 52.8468 19.2833 51.9119 19.3008 50.7552C19.3182 49.6302 20.3491 48.7111 21.5896 48.7111C22.9 48.6953 23.8959 49.5985 23.8959 50.8027Z" fill="white"/>
<path d="M93.9512 115.802C92.7947 115.785 91.9233 114.803 91.9075 113.522C91.9075 112.224 92.858 111.19 94.0146 111.207C95.1711 111.225 96.0742 112.277 96.0425 113.61C96.0267 114.873 95.1236 115.82 93.9512 115.802Z" fill="white"/>
<path d="M156.456 115.802C155.304 115.802 154.405 114.82 154.405 113.54C154.389 112.242 155.336 111.19 156.488 111.207C157.64 111.225 158.571 112.277 158.54 113.575C158.524 114.838 157.624 115.802 156.456 115.802Z" fill="white"/>
<path d="M18.8393 50.8892C18.792 52.0555 17.8297 52.9065 16.6308 52.8435C15.495 52.7804 14.6747 51.8506 14.7062 50.6843C14.7535 49.518 15.7158 48.6511 16.8989 48.7142C18.0348 48.793 18.8866 49.7544 18.8393 50.8892Z" fill="white"/>
<path d="M2.31192 48.7109C3.35001 48.7109 4.14962 49.6458 4.13559 50.8342C4.12156 51.9751 3.30792 52.8624 2.28386 52.8466C1.23174 52.8466 0.432132 51.9117 0.460189 50.7233C0.488245 49.5983 1.30189 48.7109 2.31192 48.7109Z" fill="white"/>
<path d="M142.227 43.6562C143.426 43.6562 144.31 44.656 144.295 45.989C144.279 47.2343 143.363 48.2516 142.227 48.2516C141.075 48.2516 140.143 47.1993 140.159 45.9013C140.175 44.6209 141.059 43.6562 142.227 43.6562Z" fill="white"/>
<path d="M129.59 45.9539C129.59 47.2342 128.686 48.2339 127.561 48.2514C126.405 48.2689 125.454 47.2167 125.454 45.9364C125.454 44.6386 126.389 43.6389 127.577 43.6565C128.734 43.674 129.59 44.6561 129.59 45.9539Z" fill="white"/>
<path d="M101.098 45.9451C101.098 47.1856 100.089 48.2339 98.8528 48.2514C97.5996 48.2689 96.5029 47.2206 96.5029 45.9451C96.5029 44.6696 97.5299 43.6562 98.8354 43.6562C100.106 43.6737 101.098 44.6696 101.098 45.9451Z" fill="white"/>
<path d="M94.007 43.6565C95.1593 43.6565 96.0433 44.6386 96.0433 45.9189C96.0433 47.2167 95.112 48.2689 93.9596 48.2514C92.823 48.2339 91.9233 47.2167 91.9075 45.9539C91.9075 44.6386 92.8072 43.6389 94.007 43.6565Z" fill="white"/>
<path d="M50.5933 120.859C51.8785 120.877 52.8468 121.863 52.8468 123.148C52.8468 124.468 51.8081 125.489 50.5053 125.454C49.2376 125.419 48.2517 124.398 48.2517 123.13C48.2341 121.845 49.2552 120.859 50.5933 120.859Z" fill="white"/>
<path d="M62.497 45.9018C62.5126 47.1644 61.5571 48.2516 60.4136 48.2516C59.3014 48.2516 58.3772 47.217 58.3615 45.9719C58.3459 44.6918 59.2231 43.6747 60.3509 43.6571C61.5571 43.6221 62.4813 44.6216 62.497 45.9018Z" fill="white"/>
<path d="M74.6512 120.86C75.8305 120.842 76.7583 121.842 76.7426 123.157C76.7426 124.402 75.8305 125.437 74.6983 125.455C73.5504 125.472 72.6069 124.437 72.6069 123.14C72.6069 121.877 73.5033 120.877 74.6512 120.86Z" fill="white"/>
<path d="M81.3382 123.113C81.3382 124.416 80.4069 125.455 79.2546 125.455C78.1181 125.437 77.2184 124.434 77.2026 123.166C77.1868 121.846 78.1023 120.842 79.2862 120.86C80.4385 120.86 81.3382 121.846 81.3382 123.113Z" fill="white"/>
<path d="M79.2387 38.5993C78.0864 38.5817 77.2024 37.5996 77.2024 36.3192C77.2024 35.0389 78.1495 33.9866 79.3019 34.0041C80.4227 34.0217 81.3382 35.0564 81.3382 36.3017C81.3382 37.6171 80.4227 38.5993 79.2387 38.5993Z" fill="white"/>
<path d="M16.8052 43.6565C17.9573 43.674 18.8412 44.6561 18.8412 45.9364C18.8412 47.2342 17.91 48.2689 16.7421 48.2514C15.5899 48.2339 14.6745 47.1641 14.7061 45.8663C14.7377 44.6035 15.6373 43.6389 16.8052 43.6565Z" fill="white"/>
<path d="M108.479 120.859C109.503 120.877 110.289 121.863 110.289 123.131C110.303 124.433 109.461 125.472 108.423 125.455C107.385 125.437 106.599 124.398 106.613 123.06C106.641 121.81 107.427 120.859 108.479 120.859Z" fill="white"/>
<path d="M7.3264 43.6565C8.63675 43.6389 9.66756 44.6561 9.65009 45.9539C9.63262 47.1991 8.60181 48.2339 7.37882 48.2514C6.10342 48.269 5.03767 47.1991 5.05514 45.9189C5.07261 44.6561 6.051 43.674 7.3264 43.6565Z" fill="white"/>
<path d="M45.6609 130.05C44.4928 130.034 43.6404 129.163 43.6562 127.99C43.6562 126.802 44.5717 125.883 45.7556 125.915C46.8763 125.931 47.7918 126.865 47.7918 127.99C47.7761 129.147 46.8448 130.066 45.6609 130.05Z" fill="white"/>
<path d="M84.5113 38.5993C83.2533 38.5817 82.2573 37.582 82.2573 36.3192C82.2573 35.0389 83.3232 33.9866 84.5987 34.0041C85.8393 34.0217 86.8527 35.0564 86.8527 36.3017C86.8352 37.6171 85.8393 38.5993 84.5113 38.5993Z" fill="white"/>
<path d="M29.4104 79.9578C29.4104 78.6776 30.2978 77.6779 31.4229 77.6604C32.5955 77.6428 33.5462 78.66 33.5462 79.9578C33.5462 81.2557 32.6113 82.2728 31.4229 82.2553C30.2978 82.2378 29.4104 81.2381 29.4104 79.9578Z" fill="white"/>
<path d="M118.11 29.4102C119.358 29.4102 120.381 30.4099 120.399 31.6727C120.416 32.9179 119.341 34.0229 118.075 34.0053C116.844 33.9878 115.821 32.9705 115.804 31.7253C115.786 30.4449 116.809 29.4102 118.11 29.4102Z" fill="white"/>
<path d="M79.2387 29.4104C80.4384 29.3928 81.3382 30.3925 81.3382 31.7078C81.3382 32.9706 80.4385 33.9878 79.3019 34.0053C78.1337 34.0229 77.2024 32.9881 77.2024 31.6903C77.2024 30.4276 78.1022 29.4279 79.2387 29.4104Z" fill="white"/>
<path d="M149.813 79.8436C149.876 78.5428 150.837 77.5935 152.019 77.6638C153.138 77.7341 154.005 78.824 153.942 80.0721C153.879 81.3554 152.902 82.3222 151.735 82.2519C150.616 82.1816 149.75 81.0917 149.813 79.8436Z" fill="white"/>
<path d="M45.6921 140.16C46.8284 140.16 47.7595 141.146 47.7911 142.396C47.8226 143.682 46.8915 144.756 45.7236 144.756C44.54 144.756 43.6404 143.752 43.6562 142.431C43.6562 141.146 44.54 140.16 45.6921 140.16Z" fill="white"/>
<path d="M60.3979 29.4104C61.5729 29.3928 62.4972 30.4139 62.4972 31.699C62.4972 32.949 61.5729 33.9877 60.4606 34.0053C59.3013 34.0229 58.3613 32.9842 58.3613 31.6814C58.377 30.4315 59.27 29.428 60.3979 29.4104Z" fill="white"/>
<path d="M110.289 7.57567C110.289 8.69177 109.486 9.61923 108.486 9.65067C107.444 9.68211 106.613 8.77037 106.613 7.59139C106.613 6.45957 107.402 5.53211 108.402 5.51639C109.43 5.48495 110.289 6.42813 110.289 7.57567Z" fill="white"/>
<path d="M115.344 142.423C115.359 143.756 114.476 144.756 113.276 144.756C112.139 144.756 111.224 143.738 111.208 142.493C111.192 141.195 112.124 140.16 113.292 140.16C114.46 140.16 115.328 141.142 115.344 142.423Z" fill="white"/>
<path d="M140.159 142.423C140.175 141.126 141.11 140.126 142.298 140.161C143.439 140.196 144.31 141.213 144.295 142.493C144.279 143.756 143.376 144.756 142.235 144.756C141.046 144.756 140.143 143.738 140.159 142.423Z" fill="white"/>
<path d="M21.5541 96.5014C20.2963 96.4838 19.3005 95.4667 19.3005 94.2039C19.3005 92.9237 20.3662 91.8889 21.6589 91.9065C22.9517 91.924 23.9299 92.9763 23.895 94.2916C23.8601 95.5719 22.8468 96.5189 21.5541 96.5014Z" fill="white"/>
<path d="M115.344 16.9608C115.359 18.2989 114.476 19.3024 113.292 19.3024C112.156 19.3024 111.24 18.2989 111.209 17.0489C111.177 15.7636 112.124 14.7073 113.292 14.7073C114.428 14.6897 115.328 15.6756 115.344 16.9608Z" fill="white"/>
<path d="M142.195 58.3596C143.331 58.3439 144.262 59.2244 144.294 60.3565C144.326 61.5201 143.41 62.4793 142.258 62.495C141.138 62.5107 140.191 61.6145 140.16 60.4981C140.128 59.3188 141.012 58.391 142.195 58.3596Z" fill="white"/>
<path d="M154.405 50.7397C154.421 49.5679 155.368 48.6652 156.552 48.7127C157.672 48.7444 158.556 49.6787 158.54 50.8189C158.524 51.9908 157.577 52.8776 156.394 52.846C155.242 52.8143 154.374 51.8958 154.405 50.7397Z" fill="white"/>
<path d="M50.5141 14.7073C51.8115 14.6897 52.8109 15.6403 52.8459 16.9255C52.881 18.2635 51.8992 19.2846 50.5842 19.3022C49.3219 19.3198 48.2874 18.3339 48.2524 17.0839C48.2173 15.7636 49.1991 14.7249 50.5141 14.7073Z" fill="white"/>
<path d="M115.344 50.8105C115.344 51.9628 114.46 52.8468 113.308 52.8468C112.124 52.8468 111.192 51.9155 111.208 50.7632C111.224 49.6267 112.14 48.7269 113.276 48.7111C114.46 48.6954 115.344 49.6109 115.344 50.8105Z" fill="white"/>
<path d="M86.8527 50.8104C86.8352 51.9781 85.8044 52.8775 84.494 52.846C83.236 52.8302 82.2401 51.8992 82.2576 50.7631C82.275 49.6112 83.3408 48.6802 84.6163 48.7117C85.8568 48.7591 86.8527 49.6901 86.8527 50.8104Z" fill="white"/>
<path d="M43.656 108.884C43.656 107.582 44.5242 106.613 45.6923 106.613C46.8761 106.613 47.8074 107.634 47.7916 108.92C47.7759 110.17 46.8603 111.191 45.7396 111.208C44.5557 111.226 43.656 110.205 43.656 108.884Z" fill="white"/>
<path d="M81.3382 108.92C81.3224 110.222 80.3911 111.243 79.2073 111.208C78.0708 111.173 77.1868 110.152 77.2026 108.885C77.2184 107.582 78.1497 106.579 79.3336 106.614C80.4701 106.632 81.3382 107.635 81.3382 108.92Z" fill="white"/>
<path d="M129.59 79.9404C129.59 81.2558 128.69 82.2555 127.506 82.2555C126.369 82.238 125.47 81.2383 125.454 79.9755C125.454 78.6776 126.385 77.6428 127.553 77.6604C128.69 77.6604 129.574 78.6776 129.59 79.9404Z" fill="white"/>
<path d="M110.289 108.92C110.275 110.187 109.475 111.191 108.465 111.208C107.413 111.226 106.613 110.187 106.613 108.885C106.627 107.565 107.427 106.579 108.493 106.614C109.517 106.632 110.303 107.653 110.289 108.92Z" fill="white"/>
<path d="M115.344 108.92C115.328 110.24 114.412 111.226 113.228 111.208C112.108 111.191 111.208 110.135 111.208 108.885C111.224 107.582 112.155 106.579 113.339 106.614C114.491 106.632 115.359 107.618 115.344 108.92Z" fill="white"/>
<path d="M137.655 106.613C138.787 106.631 139.699 107.648 139.699 108.893C139.699 110.174 138.756 111.226 137.592 111.208C136.429 111.191 135.533 110.156 135.564 108.841C135.596 107.578 136.492 106.613 137.655 106.613Z" fill="white"/>
<path d="M50.558 158.999C49.2552 158.999 48.2341 158.068 48.2517 156.9C48.2693 155.763 49.2728 154.879 50.5403 154.863C51.8607 154.863 52.8642 155.779 52.8466 156.963C52.829 158.099 51.8255 158.999 50.558 158.999Z" fill="white"/>
<path d="M115.344 156.963C115.344 158.115 114.444 158.999 113.308 158.999C112.139 158.999 111.208 158.068 111.208 156.9C111.224 155.779 112.139 154.863 113.276 154.863C114.46 154.863 115.344 155.763 115.344 156.963Z" fill="white"/>
<path d="M50.5756 0.461169C51.8779 0.478707 52.8811 1.51349 52.8459 2.8289C52.8107 4.09168 51.8075 5.05631 50.5228 5.05631C49.2204 5.03877 48.2172 4.00399 48.2524 2.68859C48.27 1.4258 49.2908 0.44363 50.5756 0.461169Z" fill="white"/>
<path d="M31.486 96.9611C32.6266 96.9769 33.5772 97.9518 33.5455 99.084C33.5138 100.2 32.5791 101.097 31.4543 101.097C30.2819 101.097 29.3948 100.153 29.4106 98.9739C29.4265 97.8417 30.3453 96.9454 31.486 96.9611Z" fill="white"/>
<path d="M98.8443 29.4102C100.102 29.4277 101.098 30.4274 101.098 31.6902C101.098 32.9881 100.05 34.0229 98.7744 34.0053C97.5338 33.9878 96.5029 32.953 96.5029 31.7077C96.5029 30.4099 97.5338 29.4102 98.8443 29.4102Z" fill="white"/>
<path d="M156.441 43.6565C157.641 43.6389 158.54 44.6386 158.54 45.9539C158.54 47.2167 157.625 48.2339 156.504 48.2514C155.352 48.2689 154.405 47.2342 154.405 45.9364C154.405 44.6561 155.289 43.674 156.441 43.6565Z" fill="white"/>
<path d="M94.0308 135.563C95.2182 135.594 96.089 136.51 96.0415 137.709C96.0098 138.83 95.044 139.729 93.9199 139.698C92.7642 139.666 91.8618 138.687 91.9093 137.52C91.9409 136.399 92.875 135.547 94.0308 135.563Z" fill="white"/>
<path d="M67.0922 156.963C67.0764 158.13 66.1293 159.03 64.9455 158.998C63.8091 158.967 62.941 158.052 62.9568 156.9C62.9725 155.732 63.9038 154.833 65.0876 154.864C66.2398 154.896 67.108 155.827 67.0922 156.963Z" fill="white"/>
<path d="M115.344 137.638C115.344 138.786 114.444 139.698 113.323 139.698C112.171 139.714 111.208 138.755 111.208 137.607C111.208 136.459 112.171 135.547 113.339 135.563C114.491 135.594 115.344 136.49 115.344 137.638Z" fill="white"/>
<path d="M101.098 142.475C101.081 143.773 100.046 144.773 98.748 144.755C97.5028 144.72 96.4856 143.685 96.5032 142.44C96.5207 141.16 97.573 140.143 98.8708 140.16C100.133 140.178 101.116 141.195 101.098 142.475Z" fill="white"/>
<path d="M101.097 156.955C101.08 158.096 100.067 158.999 98.8093 158.999C97.5168 158.999 96.4688 158.049 96.5038 156.892C96.5387 155.72 97.5867 154.832 98.8966 154.864C100.154 154.864 101.132 155.799 101.097 156.955Z" fill="white"/>
<path d="M84.5815 130.048C83.3063 130.066 82.2931 129.084 82.2582 127.821C82.2232 126.541 83.2539 125.453 84.5291 125.453C85.8218 125.453 86.87 126.488 86.8525 127.786C86.8525 129.049 85.8568 130.031 84.5815 130.048Z" fill="white"/>
<path d="M129.589 84.8377C129.574 85.9856 128.674 86.8662 127.522 86.8505C126.354 86.8505 125.438 85.907 125.454 84.7433C125.47 83.6269 126.417 82.7148 127.538 82.7148C128.69 82.7306 129.605 83.6583 129.589 84.8377Z" fill="white"/>
<path d="M4.13506 94.2475C4.12103 95.5677 3.29336 96.5359 2.22722 96.5007C1.21719 96.4655 0.445633 95.4445 0.459661 94.1595C0.473689 92.9096 1.30136 91.9062 2.29736 91.9062C3.3635 91.9062 4.16311 92.9272 4.13506 94.2475Z" fill="white"/>
<path d="M7.35262 115.802C6.04724 115.802 5.03775 114.767 5.05515 113.47C5.08996 112.224 6.11686 111.207 7.35262 111.207C8.62319 111.207 9.6675 112.294 9.65009 113.557C9.61528 114.838 8.60579 115.82 7.35262 115.802Z" fill="white"/>
<path d="M45.7559 135.563C46.8922 135.594 47.7918 136.51 47.7918 137.63C47.7761 138.782 46.7975 139.729 45.6612 139.698C44.5091 139.666 43.6253 138.719 43.6568 137.52C43.6884 136.399 44.6038 135.547 45.7559 135.563Z" fill="white"/>
<path d="M142.266 62.9573C143.438 62.9748 144.326 64.0095 144.294 65.3424C144.262 66.5876 143.328 67.5697 142.187 67.5522C141.03 67.5346 140.159 66.535 140.159 65.2547C140.159 63.9394 141.078 62.9397 142.266 62.9573Z" fill="white"/>
<path d="M38.601 74.9396C38.5834 75.946 37.5801 76.7427 36.3127 76.7427C35.0277 76.7427 33.9715 75.8901 34.0067 74.8697C34.0243 73.8773 35.0629 73.0666 36.3303 73.0666C37.6153 73.0526 38.6186 73.8773 38.601 74.9396Z" fill="white"/>
<path d="M98.8443 106.613C100.12 106.631 101.098 107.617 101.098 108.902C101.098 110.205 100.085 111.226 98.7744 111.208C97.5338 111.191 96.5204 110.17 96.5029 108.902C96.5029 107.634 97.5513 106.613 98.8443 106.613Z" fill="white"/>
<path d="M62.9567 137.575C62.9725 136.443 63.8722 135.562 65.0245 135.562C66.2083 135.562 67.108 136.475 67.0922 137.654C67.0764 138.786 66.1451 139.683 65.0245 139.698C63.8722 139.698 62.941 138.755 62.9567 137.575Z" fill="white"/>
<path d="M84.6162 106.614C85.8741 106.649 86.8699 107.652 86.8525 108.919C86.835 110.222 85.7867 111.243 84.4939 111.208C83.2534 111.173 82.2401 110.152 82.2575 108.884C82.275 107.599 83.3233 106.596 84.6162 106.614Z" fill="white"/>
<path d="M135.563 156.939C135.563 155.791 136.444 154.895 137.576 154.863C138.74 154.848 139.699 155.776 139.699 156.923C139.699 158.071 138.756 158.999 137.592 158.999C136.444 158.983 135.579 158.087 135.563 156.939Z" fill="white"/>
<path d="M129.59 74.9186C129.59 75.9288 128.69 76.7425 127.553 76.7425C126.385 76.7566 125.454 75.9147 125.454 74.8905C125.47 73.8803 126.369 73.0666 127.506 73.0666C128.69 73.0526 129.59 73.8663 129.59 74.9186Z" fill="white"/>
<path d="M74.6749 106.613C75.811 106.613 76.7262 107.595 76.742 108.858C76.7736 110.156 75.8268 111.209 74.6749 111.209C73.5387 111.209 72.6235 110.209 72.6077 108.946C72.5762 107.648 73.4914 106.631 74.6749 106.613Z" fill="white"/>
<path d="M115.344 21.8532C115.344 23.0011 114.463 23.8974 113.315 23.8974C112.152 23.9131 111.208 22.9854 111.208 21.8218C111.224 20.7054 112.136 19.7776 113.252 19.7619C114.416 19.7462 115.344 20.6739 115.344 21.8532Z" fill="white"/>
<path d="M65.0165 19.7617C66.1732 19.7774 67.108 20.721 67.0922 21.8847C67.0763 23.0169 66.1732 23.8976 65.0165 23.8976C63.8282 23.8976 62.9409 22.9855 62.9568 21.7903C62.9568 20.6581 63.8916 19.7617 65.0165 19.7617Z" fill="white"/>
<path d="M74.6041 52.8466C73.472 52.8149 72.5914 51.896 72.6071 50.7554C72.6229 49.5989 73.5663 48.68 74.7456 48.7117C75.862 48.7434 76.7583 49.6781 76.7426 50.8188C76.7268 51.9752 75.7834 52.8624 74.6041 52.8466Z" fill="white"/>
<path d="M31.4152 62.4944C30.2633 62.463 29.3797 61.5198 29.4112 60.3409C29.4428 59.209 30.358 58.3288 31.5099 58.3602C32.6776 58.3916 33.577 59.3505 33.5454 60.5138C33.4823 61.6141 32.5198 62.5259 31.4152 62.4944Z" fill="white"/>
<path d="M101.098 17.0311C101.081 18.3335 100.05 19.3367 98.7395 19.3015C97.499 19.2663 96.4857 18.2279 96.5032 16.9783C96.5206 15.6935 97.5864 14.6727 98.8792 14.7079C100.137 14.7255 101.116 15.7463 101.098 17.0311Z" fill="white"/>
<path d="M96.0433 16.9787C96.0433 18.2988 95.1436 19.3198 93.9597 19.3022C92.8074 19.2846 91.9235 18.2988 91.9077 17.0315C91.8919 15.7465 92.7758 14.7255 93.9124 14.7079C95.112 14.6727 96.0433 15.6585 96.0433 16.9787Z" fill="white"/>
<path d="M98.7743 38.5993C97.5163 38.5817 96.5029 37.5781 96.5029 36.3281C96.5029 35.0605 97.5687 33.9865 98.8442 34.0041C100.085 34.0217 101.098 35.0429 101.098 36.3105C101.116 37.5957 100.102 38.5993 98.7743 38.5993Z" fill="white"/>
<path d="M151.838 120.86C153.017 120.842 153.945 121.863 153.945 123.148C153.929 124.398 153.017 125.437 151.901 125.455C150.753 125.472 149.794 124.416 149.81 123.131C149.81 121.863 150.69 120.877 151.838 120.86Z" fill="white"/>
<path d="M115.344 7.57568C115.344 8.75499 114.425 9.66699 113.252 9.65126C112.127 9.63554 111.208 8.69209 111.208 7.5914C111.208 6.44354 112.175 5.50009 113.331 5.51582C114.456 5.51582 115.344 6.42782 115.344 7.57568Z" fill="white"/>
<path d="M93.9512 144.756C92.8105 144.756 91.9075 143.738 91.9075 142.475C91.9075 141.16 92.8105 140.16 93.9987 140.16C95.1711 140.178 96.0742 141.195 96.0425 142.528C96.0267 143.791 95.1078 144.756 93.9512 144.756Z" fill="white"/>
<path d="M43.656 45.9188C43.656 44.6384 44.5557 43.6562 45.6923 43.6562C46.8761 43.6562 47.8074 44.6735 47.7916 45.9538C47.7759 47.1991 46.8446 48.2339 45.7238 48.2514C44.5715 48.2689 43.656 47.2342 43.656 45.9188Z" fill="white"/>
<path d="M142.227 96.9609C143.348 96.9609 144.279 97.8765 144.295 98.9973C144.31 100.181 143.395 101.097 142.227 101.097C141.09 101.097 140.175 100.213 140.159 99.0604C140.143 97.9081 141.059 96.9609 142.227 96.9609Z" fill="white"/>
<path d="M115.344 2.73221C115.359 4.01738 114.491 5.03848 113.339 5.05609C112.155 5.07369 111.208 4.0702 111.208 2.78503C111.192 1.49985 112.155 0.443549 113.307 0.461154C114.46 0.461154 115.344 1.46465 115.344 2.73221Z" fill="white"/>
<path d="M4.13577 60.3958C4.13577 61.5639 3.32197 62.4952 2.28368 62.4952C1.28748 62.4952 0.473682 61.5797 0.459651 60.4432C0.44562 59.2593 1.25942 58.3438 2.31174 58.3596C3.33601 58.3596 4.13577 59.2593 4.13577 60.3958Z" fill="white"/>
<path d="M81.338 45.9192C81.3538 47.2168 80.4068 48.2689 79.2545 48.2514C78.1339 48.2514 77.2184 47.2168 77.2026 45.9718C77.1868 44.6917 78.0707 43.6922 79.2072 43.6571C80.391 43.6221 81.338 44.6216 81.338 45.9192Z" fill="white"/>
<path d="M98.9141 0.462929C100.172 0.498112 101.132 1.53601 101.097 2.82018C101.062 4.12194 100.014 5.10706 98.7045 5.05429C97.4644 5.00151 96.4689 3.94603 96.5038 2.69704C96.5388 1.41286 97.6217 0.410155 98.9141 0.462929Z" fill="white"/>
<path d="M151.861 43.6562C153.005 43.6562 153.913 44.6209 153.944 45.8837C153.976 47.164 153.036 48.2514 151.893 48.2514C150.765 48.269 149.794 47.1816 149.81 45.9188C149.841 44.6384 150.734 43.6562 151.861 43.6562Z" fill="white"/>
<path d="M21.6419 62.9573C22.9 62.9749 23.8784 63.9607 23.8959 65.2459C23.8959 66.5663 22.8825 67.5698 21.572 67.5522C20.3314 67.5346 19.318 66.5135 19.3005 65.2459C19.3005 63.9783 20.3489 62.9396 21.6419 62.9573Z" fill="white"/>
<path d="M115.344 151.916C115.328 153.048 114.412 153.96 113.292 153.944C112.139 153.944 111.192 152.985 111.208 151.837C111.224 150.721 112.171 149.809 113.292 149.809C114.46 149.809 115.359 150.736 115.344 151.916Z" fill="white"/>
<path d="M129.59 151.9C129.59 153.032 128.671 153.944 127.546 153.944C126.389 153.944 125.438 153.001 125.454 151.853C125.47 150.721 126.389 149.809 127.514 149.809C128.687 149.793 129.59 150.705 129.59 151.9Z" fill="white"/>
<path d="M79.2467 135.563C80.4261 135.547 81.3382 136.459 81.3382 137.638C81.3382 138.755 80.4261 139.682 79.2939 139.698C78.1459 139.714 77.2024 138.77 77.2024 137.607C77.2181 136.475 78.1145 135.578 79.2467 135.563Z" fill="white"/>
<path d="M23.8959 79.9578C23.8959 81.2206 22.9137 82.2378 21.6508 82.2553C20.3529 82.2729 19.3005 81.2381 19.3005 79.9578C19.3005 78.6776 20.3529 77.6428 21.6508 77.6604C22.8962 77.6779 23.8959 78.6951 23.8959 79.9578Z" fill="white"/>
<path d="M144.295 79.9578C144.295 81.2732 143.376 82.2728 142.187 82.2553C141.046 82.2378 140.159 81.2381 140.159 79.9578C140.159 78.6425 141.078 77.6428 142.266 77.6604C143.407 77.6779 144.295 78.6776 144.295 79.9578Z" fill="white"/>
<path d="M156.456 96.5016C155.304 96.5016 154.421 95.5157 154.405 94.2305C154.389 92.91 155.304 91.8889 156.488 91.9065C157.656 91.9065 158.571 92.9628 158.54 94.2833C158.524 95.5333 157.608 96.5016 156.456 96.5016Z" fill="white"/>
<path d="M4.13559 79.9754C4.13559 81.2381 3.33583 82.2378 2.3256 82.2553C1.2873 82.2729 0.459473 81.2381 0.459473 79.9403C0.473504 78.6776 1.25924 77.6779 2.2835 77.6604C3.33583 77.6428 4.14963 78.66 4.13559 79.9754Z" fill="white"/>
<path d="M79.2383 14.7073C80.3905 14.6897 81.3059 15.6579 81.3374 16.9255C81.369 18.2459 80.4694 19.2846 79.3015 19.3022C78.1178 19.3198 77.2024 18.2987 77.2024 16.9959C77.2024 15.746 78.102 14.7249 79.2383 14.7073Z" fill="white"/>
<path d="M79.2703 0.460938C80.4068 0.460938 81.3222 1.4607 81.338 2.72355C81.3538 4.03902 80.4383 5.05631 79.2703 5.05631C78.0865 5.05631 77.1868 4.02148 77.2026 2.70601C77.2184 1.44315 78.1339 0.460938 79.2703 0.460938Z" fill="white"/>
<path d="M122.942 58.3594C124.063 58.3751 124.994 59.2871 124.994 60.4036C124.994 61.5515 124.047 62.5107 122.895 62.495C121.727 62.4793 120.843 61.5515 120.859 60.3722C120.89 59.2242 121.806 58.3594 122.942 58.3594Z" fill="white"/>
<path d="M64.9853 5.05543C63.8129 5.0379 62.9257 4.00331 62.9574 2.67063C62.9891 1.40808 63.9079 0.443637 65.0645 0.461173C66.2052 0.478708 67.0924 1.49576 67.0924 2.7583C67.0924 4.07345 66.1735 5.0905 64.9853 5.05543Z" fill="white"/>
<path d="M16.7429 149.803C15.5642 149.803 14.3693 149.82 13.1906 149.803C11.2853 149.77 9.71902 148.252 9.68672 146.301C9.63828 143.749 9.63828 141.181 9.68672 138.629C9.71902 136.694 11.2207 135.193 13.1422 135.143C15.5319 135.093 17.9378 135.093 20.3276 135.143C22.3137 135.176 23.7992 136.694 23.8476 138.746C23.9122 141.214 23.9122 143.699 23.8476 146.167C23.7992 148.286 22.2491 149.787 20.2145 149.803C19.052 149.82 17.9055 149.803 16.7429 149.803Z" fill="white"/>
<path d="M149.802 17.212C149.802 18.3743 149.818 19.5204 149.802 20.6826C149.768 22.7812 148.233 24.2985 146.063 24.3308C143.676 24.3631 141.272 24.3631 138.885 24.3308C136.715 24.2985 135.162 22.7973 135.129 20.6988C135.096 18.3581 135.096 16.0175 135.129 13.6768C135.162 11.6913 136.648 10.2062 138.701 10.1578C141.205 10.0932 143.709 10.0932 146.213 10.1578C148.333 10.2062 149.768 11.6913 149.802 13.7414C149.818 14.8875 149.802 16.0498 149.802 17.212Z" fill="white"/>
<path d="M9.65758 16.9248C9.65758 15.7593 9.64141 14.5937 9.65758 13.4282C9.68992 11.2969 11.0644 9.76499 13.102 9.69839C15.5276 9.63179 17.9532 9.63179 20.3789 9.69839C22.4164 9.74834 23.8395 11.2802 23.8718 13.3949C23.9041 15.7759 23.9041 18.1736 23.8718 20.5547C23.8395 22.7692 22.3194 24.3011 20.1687 24.3344C17.9047 24.3677 15.6408 24.3511 13.3769 24.3344C11.1776 24.3178 9.67375 22.7692 9.65758 20.5047C9.64141 19.3059 9.65758 18.1237 9.65758 16.9248Z" fill="white"/>
<path d="M127.73 130.508C125.579 130.508 125.454 130.371 125.454 127.967C125.454 127.71 125.454 127.452 125.454 127.195C125.469 125.856 125.828 125.478 127.06 125.461C127.605 125.461 128.151 125.444 128.697 125.461C129.585 125.495 130.006 125.959 130.038 126.954C130.053 127.555 130.053 128.156 130.038 128.757C130.022 130.062 129.632 130.474 128.432 130.491C128.198 130.508 127.964 130.508 127.73 130.508Z" fill="white"/>
</svg>
