<svg width="159" height="159" viewBox="0 0 159 159" fill="none" xmlns="http://www.w3.org/2000/svg">
<path d="M22.4724 0.00417398C26.1003 0.00417398 29.7283 0.00417398 33.3563 0.00417398C39.971 0.0208694 44.8646 4.82915 44.8815 11.3737C44.8983 18.6029 44.8983 25.832 44.8815 33.0778C44.8646 39.5723 39.971 44.3973 33.4069 44.4139C26.1003 44.4306 18.7938 44.4306 11.4872 44.4139C4.92308 44.3973 0.0295301 39.5723 0.0126557 33.0778C-0.00421858 25.8153 -0.00421858 18.5528 0.0126557 11.307C0.0295301 4.86254 4.93995 0.0375645 11.4366 0.0208691C15.1152 -0.0125217 18.7938 0.00417398 22.4724 0.00417398ZM22.5061 38.0697C25.1554 38.0697 27.7878 38.0697 30.437 38.0697C34.8244 38.0697 38.4186 34.6304 38.4523 30.2729C38.503 24.8803 38.503 19.4877 38.4523 14.0784C38.4186 9.92124 34.9931 6.4319 30.8083 6.36512C25.2397 6.28165 19.6712 6.28165 14.1027 6.36512C9.98537 6.4319 6.49239 9.85446 6.44177 13.8781C6.37427 19.4042 6.3574 24.9471 6.44177 30.49C6.50927 34.6304 10.1541 38.053 14.3389 38.0697C17.0557 38.0697 19.7725 38.0697 22.5061 38.0697Z" fill="white"/>
<path d="M136.812 0.00742243C140.402 0.00742243 143.992 0.00742243 147.582 0.00742243C154.128 0.0241229 158.971 4.83386 158.987 11.3804C159.004 18.6117 159.004 25.843 158.987 33.0743C158.971 39.5708 154.111 44.3972 147.632 44.4139C140.402 44.4306 133.171 44.4306 125.941 44.4139C119.445 44.3972 114.603 39.5708 114.586 33.0743C114.569 25.8096 114.569 18.5449 114.586 11.2969C114.603 4.85056 119.462 0.0241229 125.908 0.00742243C129.515 -0.00927803 133.155 0.00742243 136.812 0.00742243ZM136.745 38.0845C139.383 38.0845 142.038 38.0845 144.677 38.0845C149.018 38.0845 152.575 34.6442 152.609 30.2854C152.659 24.8911 152.659 19.4969 152.609 14.0859C152.575 9.9275 149.185 6.4371 145.044 6.3703C139.534 6.2868 134.023 6.2868 128.513 6.3703C124.438 6.4371 120.982 9.86069 120.931 13.8855C120.865 19.4134 120.848 24.9579 120.931 30.5025C120.998 34.6442 124.605 38.0678 128.73 38.0845C131.401 38.0845 134.073 38.0845 136.745 38.0845Z" fill="white"/>
<path d="M22.3965 158.995C18.7698 158.995 15.1432 158.995 11.5166 158.995C4.90437 158.978 0.012651 154.103 0.012651 147.489C-0.00421699 140.184 -0.00421699 132.879 0.012651 125.574C0.029519 119.011 4.92123 114.135 11.4829 114.118C18.7867 114.101 26.0905 114.101 33.4112 114.118C39.9729 114.135 44.8646 119.011 44.8815 125.574C44.8983 132.913 44.8983 140.252 44.8815 147.574C44.8646 154.086 39.956 158.962 33.445 158.979C29.7678 159.012 26.0905 158.995 22.3965 158.995ZM22.3627 152.584C25.0279 152.584 27.7099 152.584 30.375 152.584C34.8281 152.584 38.421 149.126 38.4548 144.689C38.5054 139.239 38.5054 133.79 38.4548 128.324C38.421 124.14 34.98 120.614 30.7967 120.546C25.2303 120.462 19.6638 120.462 14.0974 120.546C9.98162 120.614 6.48995 124.089 6.43935 128.155C6.37187 133.739 6.35501 139.34 6.43935 144.942C6.50682 149.126 10.1672 152.584 14.3336 152.584C17.0156 152.584 19.6976 152.584 22.3627 152.584Z" fill="white"/>
<path d="M117.792 133.745C115.153 133.745 112.497 133.745 109.858 133.745C105.632 133.745 102.041 130.301 101.991 126.055C101.924 120.605 101.941 115.138 101.991 109.671C102.024 105.575 105.432 102.081 109.541 102.014C115.069 101.931 120.615 101.914 126.16 102.014C130.302 102.081 133.676 105.592 133.709 109.755C133.76 115.138 133.76 120.505 133.709 125.888C133.676 130.301 130.135 133.745 125.742 133.745C123.087 133.745 120.448 133.745 117.792 133.745ZM117.792 127.392C119.345 127.392 120.915 127.409 122.469 127.392C125.291 127.359 127.329 125.37 127.362 122.561C127.396 119.435 127.396 116.325 127.362 113.199C127.329 110.373 125.325 108.367 122.485 108.351C119.395 108.317 116.305 108.317 113.215 108.351C110.342 108.367 108.355 110.39 108.321 113.266C108.305 116.325 108.305 119.401 108.321 122.461C108.338 125.386 110.359 127.376 113.282 127.409C114.785 127.409 116.289 127.392 117.792 127.392Z" fill="white"/>
<path d="M60.3428 12.1586C58.7749 12.1586 57.5205 10.9208 57.5205 9.35276C57.5205 7.78476 58.7749 6.54688 60.3428 6.54688C61.8777 6.56338 63.1156 7.78476 63.1321 9.31975C63.1486 10.8877 61.9108 12.1421 60.3428 12.1586Z" fill="white"/>
<path d="M66.8408 12.1585C65.273 12.142 64.0353 10.8713 64.0683 9.30349C64.0848 7.73573 65.372 6.51452 66.9398 6.54753C68.4582 6.58053 69.6794 7.83475 69.6794 9.353C69.6794 10.9208 68.4086 12.175 66.8408 12.1585Z" fill="white"/>
<path d="M105.005 12.1586C103.306 12.1586 101.947 10.9043 101.947 9.33633C101.947 7.76839 103.306 6.53053 105.022 6.54704C106.685 6.56354 108.008 7.78489 108.026 9.31983C108.044 10.8878 106.685 12.1586 105.005 12.1586Z" fill="white"/>
<path d="M66.8734 13.0938C68.4414 13.0938 69.6957 14.3481 69.6792 15.9161C69.6627 17.451 68.4414 18.6888 66.9064 18.7054C65.3385 18.7219 64.0676 17.484 64.0676 15.9161C64.0676 14.3481 65.3055 13.0938 66.8734 13.0938Z" fill="white"/>
<path d="M82.3059 15.8996C82.3059 17.4675 81.0515 18.7219 79.4836 18.7054C77.9486 18.6888 76.7108 17.4675 76.6943 15.9326C76.6778 14.3647 77.9156 13.0939 79.4836 13.0939C81.0515 13.0774 82.3059 14.3317 82.3059 15.8996Z" fill="white"/>
<path d="M88.853 15.8832C88.853 17.4512 87.5986 18.7055 86.0472 18.7055C84.5122 18.7055 83.2744 17.4842 83.2414 15.9492C83.2249 14.3813 84.4462 13.1104 86.0142 13.0939C87.5821 13.0774 88.853 14.3153 88.853 15.8832Z" fill="white"/>
<path d="M94.9322 15.8669C94.9487 17.4348 93.7109 18.7055 92.1432 18.7055C90.6084 18.7055 89.3542 17.5008 89.3212 15.966C89.2882 14.3982 90.5094 13.1109 92.0772 13.0944C93.6449 13.0614 94.9157 14.2991 94.9322 15.8669Z" fill="white"/>
<path d="M79.5 19.1719C81.068 19.1719 82.3059 20.4427 82.3059 22.0107C82.2894 23.5456 81.068 24.767 79.533 24.7835C77.965 24.8 76.6941 23.5621 76.6941 21.9942C76.6941 20.4262 77.932 19.1719 79.5 19.1719Z" fill="white"/>
<path d="M88.853 21.9942C88.853 23.5621 87.5821 24.8 86.0142 24.7835C84.4792 24.767 83.2579 23.5291 83.2414 22.0107C83.2249 20.4427 84.4627 19.1884 86.0307 19.1719C87.5986 19.1719 88.853 20.4262 88.853 21.9942Z" fill="white"/>
<path d="M94.9322 22.0104C94.9157 23.5783 93.6448 24.816 92.0768 24.783C90.5584 24.7665 89.3206 23.5122 89.3206 21.9939C89.3206 20.4261 90.5584 19.1719 92.1264 19.1719C93.6943 19.1719 94.9487 20.4426 94.9322 22.0104Z" fill="white"/>
<path d="M104.987 24.7836C103.288 24.7836 101.929 23.5293 101.947 21.9613C101.947 20.3934 103.306 19.1555 105.022 19.172C106.685 19.1885 108.008 20.4264 108.026 21.9448C108.044 23.5128 106.685 24.7836 104.987 24.7836Z" fill="white"/>
<path d="M60.3264 31.3305C58.7585 31.3305 57.5042 30.0762 57.5207 28.5082C57.5207 26.9403 58.775 25.7024 60.3594 25.7189C61.8943 25.7354 63.1156 26.9733 63.1321 28.4917C63.1486 30.0597 61.8943 31.3305 60.3264 31.3305Z" fill="white"/>
<path d="M76.2264 28.5411C76.2264 30.109 74.8496 31.3469 73.151 31.3304C71.4882 31.3138 70.165 30.076 70.1471 28.5576C70.1293 26.9896 71.4703 25.7353 73.1689 25.7188C74.8675 25.7188 76.2264 26.9731 76.2264 28.5411Z" fill="white"/>
<path d="M108.026 28.5082C108.026 30.0762 106.686 31.3305 104.987 31.3305C103.324 31.3305 101.983 30.1092 101.948 28.5742C101.912 27.0063 103.253 25.7354 104.951 25.7189C106.65 25.7024 108.026 26.9403 108.026 28.5082Z" fill="white"/>
<path d="M69.6792 35.1083C69.6627 36.6598 68.3754 37.8976 66.8074 37.8811C65.289 37.8481 64.0676 36.6103 64.0676 35.0753C64.0676 33.5074 65.322 32.2695 66.8899 32.2695C68.4579 32.286 69.6957 33.5404 69.6792 35.1083Z" fill="white"/>
<path d="M73.2224 32.2697C74.921 32.2862 76.2441 33.5571 76.2262 35.1415C76.1904 36.6599 74.8495 37.8813 73.1867 37.8813C71.4881 37.8813 70.1293 36.6269 70.1471 35.059C70.165 33.491 71.5239 32.2532 73.2224 32.2697Z" fill="white"/>
<path d="M79.5164 37.8813C77.9484 37.8813 76.6941 36.6434 76.6941 35.0754C76.6941 33.5074 77.9484 32.2695 79.5164 32.2695C81.0513 32.286 82.2892 33.5074 82.3057 35.0424C82.3222 36.6104 81.0843 37.8648 79.5164 37.8813Z" fill="white"/>
<path d="M88.8528 35.1083C88.8363 36.6598 87.5489 37.8976 85.981 37.8811C84.4626 37.8481 83.2412 36.6103 83.2412 35.0753C83.2412 33.5074 84.4956 32.2695 86.0635 32.2695C87.6315 32.286 88.8693 33.5404 88.8528 35.1083Z" fill="white"/>
<path d="M57.0529 41.1371C57.0529 42.7051 55.7949 43.9594 54.2389 43.9594C52.6994 43.9594 51.4579 42.7381 51.4413 41.2031C51.4248 39.6352 52.6497 38.3643 54.2223 38.3478C55.7783 38.3313 57.0529 39.5692 57.0529 41.1371Z" fill="white"/>
<path d="M69.6792 41.1865C69.6627 42.7544 68.3919 43.9758 66.8239 43.9593C65.3055 43.9428 64.0676 42.6884 64.0676 41.1535C64.0676 39.5856 65.3055 38.3313 66.8899 38.3478C68.4414 38.3478 69.6957 39.6186 69.6792 41.1865Z" fill="white"/>
<path d="M82.3059 41.1371C82.3059 42.7051 81.0515 43.9594 79.4836 43.9594C77.9486 43.9594 76.7108 42.7381 76.6943 41.2031C76.6778 39.6352 77.8991 38.3643 79.467 38.3478C81.035 38.3313 82.3059 39.5857 82.3059 41.1371Z" fill="white"/>
<path d="M94.9323 41.17C94.9323 42.7379 93.6615 43.9758 92.0935 43.9593C90.5586 43.9428 89.3372 42.7049 89.3207 41.1865C89.3042 39.6185 90.5421 38.3642 92.11 38.3477C93.678 38.3477 94.9323 39.602 94.9323 41.17Z" fill="white"/>
<path d="M105.013 43.9594C103.31 43.9594 101.947 42.705 101.947 41.1535C101.947 39.5855 103.31 38.3477 105.013 38.3477C106.681 38.3642 108.008 39.5855 108.026 41.1205C108.062 42.6885 106.717 43.9594 105.013 43.9594Z" fill="white"/>
<path d="M54.247 44.4258C55.815 44.4258 57.0529 45.8024 57.0529 47.5009C57.0364 49.1994 55.7655 50.5403 54.1975 50.5045C52.6791 50.4866 51.4412 49.1278 51.4412 47.483C51.4412 45.7846 52.6791 44.4258 54.247 44.4258Z" fill="white"/>
<path d="M69.6794 47.4477C69.6794 49.1463 68.4213 50.5052 66.8653 50.5052C65.3259 50.5052 64.0843 49.1821 64.0678 47.5192C64.0512 45.8206 65.2762 44.4438 66.8488 44.426C68.4048 44.4081 69.6794 45.7491 69.6794 47.4477Z" fill="white"/>
<path d="M82.3059 47.4477C82.3059 49.1463 81.0515 50.5052 79.4836 50.5052C77.9486 50.5052 76.7108 49.1642 76.6943 47.5192C76.6778 45.8206 77.8991 44.4438 79.467 44.426C81.035 44.4081 82.3059 45.767 82.3059 47.4477Z" fill="white"/>
<path d="M86.0471 50.5052C84.4791 50.5052 83.2412 49.1285 83.2412 47.4301C83.2577 45.7316 84.5121 44.3907 86.0966 44.4265C87.6151 44.4444 88.853 45.7852 88.853 47.448C88.853 49.1464 87.6151 50.5052 86.0471 50.5052Z" fill="white"/>
<path d="M98.6406 50.505C97.0727 50.4871 95.8513 49.0927 95.8678 47.3942C95.9008 45.6958 97.1717 44.3907 98.7561 44.4265C100.274 44.4623 101.496 45.821 101.479 47.4836C101.463 49.182 100.208 50.5229 98.6406 50.505Z" fill="white"/>
<path d="M104.951 44.426C106.65 44.4081 108.026 45.7668 108.026 47.4652C108.026 49.1279 106.703 50.4866 105.058 50.5045C103.36 50.5403 101.965 49.1994 101.947 47.5189C101.929 45.8026 103.252 44.4438 104.951 44.426Z" fill="white"/>
<path d="M6.07913 53.7456C6.09564 55.3136 4.84142 56.5679 3.27366 56.5844C1.7389 56.5844 0.484686 55.3631 0.468183 53.8446C0.435177 52.2767 1.65639 50.9893 3.22415 50.9728C4.79192 50.9563 6.06263 52.1942 6.07913 53.7456Z" fill="white"/>
<path d="M9.75452 56.5838C8.20339 56.5507 6.9823 55.2602 7.0153 53.6885C7.06481 52.1168 8.35191 50.9091 9.93604 50.9753C11.4542 51.0249 12.6588 52.2988 12.6258 53.8374C12.6092 55.376 11.3221 56.6169 9.75452 56.5838Z" fill="white"/>
<path d="M25.2529 53.7785C25.2529 55.3465 23.982 56.5844 22.4141 56.5844C20.8791 56.5679 19.6578 55.3465 19.6413 53.8116C19.6248 52.2436 20.8626 50.9727 22.4306 50.9727C23.9985 50.9727 25.2529 52.2271 25.2529 53.7785Z" fill="white"/>
<path d="M28.543 56.5844C26.9751 56.5844 25.7207 55.3264 25.7207 53.7703C25.7207 52.1978 26.9751 50.9563 28.5595 50.9728C30.0945 50.9894 31.3158 52.2143 31.3323 53.7538C31.3488 55.3098 30.111 56.5844 28.543 56.5844Z" fill="white"/>
<path d="M44.4263 53.8115C44.4098 55.3794 43.1224 56.6008 41.5545 56.5843C40.036 56.5512 38.8147 55.3134 38.8147 53.7785C38.8147 52.2105 40.0691 50.9727 41.637 50.9727C43.2049 50.9727 44.4428 52.2435 44.4263 53.8115Z" fill="white"/>
<path d="M63.1323 53.7785C63.1323 55.3464 61.8779 56.6008 60.31 56.5843C58.775 56.5678 57.5372 55.3464 57.5207 53.8115C57.5042 52.2436 58.742 50.9728 60.31 50.9728C61.8779 50.9563 63.1323 52.2106 63.1323 53.7785Z" fill="white"/>
<path d="M66.8406 50.9728C68.4085 50.9563 69.6794 52.2142 69.6794 53.77C69.6794 55.3093 68.4746 56.5672 66.9396 56.5838C65.3717 56.6169 64.0843 55.3755 64.0678 53.8197C64.0513 52.2473 65.2726 50.9894 66.8406 50.9728Z" fill="white"/>
<path d="M86.0141 56.5843C84.4462 56.5677 83.2249 55.2934 83.2414 53.7213C83.2744 52.1491 84.5452 50.9245 86.1296 50.9741C87.648 51.0072 88.8693 52.2649 88.8528 53.804C88.8528 55.3596 87.582 56.6008 86.0141 56.5843Z" fill="white"/>
<path d="M92.0938 56.5843C90.5259 56.5678 89.2882 55.297 89.3212 53.7293C89.3377 52.1615 90.625 50.9403 92.1928 50.9733C93.7111 51.0063 94.9323 52.2605 94.9323 53.7788C94.9323 55.3466 93.6616 56.6008 92.0938 56.5843Z" fill="white"/>
<path d="M104.942 50.9728C106.646 50.9563 108.026 52.194 108.026 53.7618C108.026 55.2965 106.717 56.5508 105.068 56.5838C103.364 56.6168 101.966 55.3956 101.948 53.8278C101.912 52.26 103.239 50.9893 104.942 50.9728Z" fill="white"/>
<path d="M120.653 53.795C120.653 55.3629 119.382 56.6008 117.814 56.5843C116.279 56.5678 115.058 55.3299 115.041 53.8115C115.025 52.2435 116.263 50.9892 117.831 50.9727C119.399 50.9727 120.653 52.227 120.653 53.795Z" fill="white"/>
<path d="M156.161 56.5843C154.594 56.5678 153.356 55.297 153.389 53.7293C153.405 52.1615 154.693 50.9403 156.26 50.9733C157.779 51.0063 159 52.2605 159 53.7788C159 55.3466 157.729 56.6008 156.161 56.5843Z" fill="white"/>
<path d="M25.2529 60.3254C25.2529 61.8933 23.9985 63.1476 22.4306 63.1311C20.8956 63.1146 19.6578 61.8933 19.6413 60.3584C19.6248 58.7905 20.8626 57.5197 22.4306 57.5197C23.9985 57.5032 25.2529 58.7575 25.2529 60.3254Z" fill="white"/>
<path d="M47.6669 63.1311C46.099 63.1146 44.8777 61.8274 44.8942 60.2597C44.9272 58.6919 46.198 57.4872 47.7824 57.5202C49.3008 57.5532 50.5221 58.8074 50.5056 60.3422C50.4891 61.9099 49.2348 63.1476 47.6669 63.1311Z" fill="white"/>
<path d="M63.1321 60.3584C63.1156 61.9263 61.8447 63.1476 60.2768 63.1311C58.7584 63.1146 57.537 61.8603 57.5205 60.3254C57.5205 58.7575 58.7749 57.5032 60.3428 57.5197C61.9108 57.5197 63.1486 58.7905 63.1321 60.3584Z" fill="white"/>
<path d="M76.2262 60.3584C76.2083 61.9263 74.8316 63.1476 73.133 63.1311C71.488 63.1146 70.1649 61.8603 70.147 60.3254C70.147 58.7575 71.5059 57.5032 73.2045 57.5197C74.9031 57.5197 76.2441 58.7905 76.2262 60.3584Z" fill="white"/>
<path d="M86.0307 63.1313C84.4627 63.1313 83.2249 61.8604 83.2414 60.2925C83.2579 58.7245 84.5287 57.5032 86.0967 57.5197C87.6151 57.5362 88.853 58.7906 88.853 60.309C88.853 61.8769 87.5986 63.1313 86.0307 63.1313Z" fill="white"/>
<path d="M92.0934 63.1311C90.5255 63.1146 89.3042 61.8441 89.3207 60.2601C89.3537 58.6925 90.6246 57.4715 92.209 57.521C93.7273 57.554 94.9487 58.808 94.9322 60.3426C94.9322 61.9101 93.6613 63.1476 92.0934 63.1311Z" fill="white"/>
<path d="M101.479 60.3581C101.463 61.9259 100.192 63.1637 98.624 63.1307C97.1055 63.1141 95.8677 61.8599 95.8677 60.3416C95.8677 58.7738 97.1055 57.5195 98.6735 57.5195C100.241 57.5195 101.496 58.7903 101.479 60.3581Z" fill="white"/>
<path d="M104.969 63.1313C103.27 63.1313 101.929 61.8604 101.947 60.2925C101.965 58.7245 103.342 57.5032 105.04 57.5197C106.685 57.5362 108.026 58.7906 108.026 60.309C108.026 61.8769 106.668 63.1313 104.969 63.1313Z" fill="white"/>
<path d="M114.106 60.3418C114.106 61.9098 112.835 63.1476 111.267 63.1311C109.732 63.1146 108.511 61.8768 108.494 60.3583C108.478 58.7904 109.716 57.536 111.284 57.5195C112.852 57.5195 114.106 58.7739 114.106 60.3418Z" fill="white"/>
<path d="M127.2 60.3254C127.2 61.8934 125.823 63.1313 124.125 63.1313C122.462 63.1148 121.139 61.8934 121.121 60.3584C121.103 58.7904 122.444 57.5195 124.143 57.5195C125.841 57.5195 127.2 58.7739 127.2 60.3254Z" fill="white"/>
<path d="M133.279 60.3418C133.279 61.9098 132.009 63.1476 130.441 63.1311C128.906 63.1146 127.684 61.8768 127.668 60.3583C127.651 58.7904 128.889 57.536 130.457 57.5195C132.025 57.5195 133.279 58.7739 133.279 60.3418Z" fill="white"/>
<path d="M139.359 60.309C139.375 61.8769 138.121 63.1313 136.553 63.1313C135.018 63.1313 133.781 61.9099 133.748 60.3915C133.715 58.8236 134.952 57.5527 136.504 57.5197C138.071 57.5032 139.342 58.741 139.359 60.309Z" fill="white"/>
<path d="M143.116 63.1313C141.549 63.1313 140.294 61.8769 140.294 60.3254C140.294 58.7574 141.549 57.5195 143.116 57.5195C144.651 57.536 145.889 58.7574 145.906 60.2924C145.922 61.8604 144.684 63.1313 143.116 63.1313Z" fill="white"/>
<path d="M152.453 60.3584C152.436 61.9263 151.165 63.1476 149.597 63.1311C148.079 63.1146 146.841 61.8603 146.841 60.3254C146.841 58.7575 148.079 57.5032 149.663 57.5197C151.215 57.5197 152.469 58.7905 152.453 60.3584Z" fill="white"/>
<path d="M3.24048 64.0666C4.80843 64.0501 6.06279 65.3043 6.07929 66.872C6.07929 68.4068 4.85794 69.661 3.33951 69.6775C1.77157 69.7105 0.484199 68.4728 0.467695 66.9216C0.45119 65.3373 1.67254 64.0831 3.24048 64.0666Z" fill="white"/>
<path d="M9.77948 64.0666C11.3519 64.0501 12.6264 65.2878 12.6264 66.8555C12.6264 68.3903 11.4181 69.6445 9.89534 69.6775C8.32291 69.7105 7.03186 68.4893 7.0153 66.9216C6.9822 65.3538 8.20705 64.0831 9.77948 64.0666Z" fill="white"/>
<path d="M19.1735 66.905C19.1556 68.4728 17.7788 69.7105 16.0802 69.6775C14.4352 69.661 13.0942 68.4068 13.0942 66.8885C13.0942 65.3207 14.4352 64.0664 16.1339 64.0664C17.8325 64.0664 19.1914 65.3372 19.1735 66.905Z" fill="white"/>
<path d="M28.5266 69.6782C26.9586 69.6782 25.7207 68.4074 25.7207 66.8396C25.7372 65.2718 26.9916 64.034 28.5761 64.0671C30.0946 64.0836 31.3325 65.3213 31.3325 66.8561C31.3325 68.4239 30.0946 69.6782 28.5266 69.6782Z" fill="white"/>
<path d="M41.6536 64.0666C43.2215 64.0831 44.4428 65.3538 44.4263 66.9216C44.3933 68.4728 43.1225 69.7105 41.5381 69.6775C40.0197 69.6445 38.7984 68.3903 38.8149 66.8555C38.8314 65.2878 40.0857 64.0501 41.6536 64.0666Z" fill="white"/>
<path d="M69.6792 66.8887C69.6627 68.4567 68.4084 69.6945 66.824 69.678C65.3056 69.6615 64.0678 68.4237 64.0678 66.8887C64.0513 65.3208 65.3056 64.0664 66.8735 64.0664C68.4414 64.0664 69.6957 65.3208 69.6792 66.8887Z" fill="white"/>
<path d="M76.2262 66.9052C76.2083 68.4567 74.8137 69.6945 73.1151 69.678C71.4701 69.645 70.147 68.4071 70.147 66.8722C70.147 65.3043 71.5059 64.0664 73.2045 64.0664C74.9031 64.0829 76.2441 65.3373 76.2262 66.9052Z" fill="white"/>
<path d="M79.467 64.0666C81.035 64.05 82.3059 65.3079 82.3059 66.8638C82.3059 68.4031 81.101 69.661 79.5661 69.6775C77.9981 69.7106 76.7108 68.4693 76.6943 66.9134C76.6778 65.341 77.8991 64.0831 79.467 64.0666Z" fill="white"/>
<path d="M88.8528 66.9052C88.8363 68.4732 87.5489 69.6945 85.981 69.678C84.4626 69.645 83.2412 68.4071 83.2412 66.8722C83.2412 65.3043 84.4956 64.0664 86.0635 64.0664C87.6315 64.0664 88.8693 65.3373 88.8528 66.9052Z" fill="white"/>
<path d="M94.9322 66.9053C94.9157 68.4732 93.6448 69.6945 92.0768 69.678C90.5584 69.6615 89.3206 68.4072 89.3206 66.8723C89.3206 65.3044 90.5584 64.0501 92.1429 64.0666C93.6943 64.0666 94.9487 65.3374 94.9322 66.9053Z" fill="white"/>
<path d="M98.6409 69.678C97.0731 69.6615 95.8353 68.3908 95.8683 66.823C95.8848 65.2553 97.1721 64.0341 98.7399 64.0671C100.258 64.1001 101.479 65.3543 101.479 66.889C101.479 68.4403 100.209 69.6945 98.6409 69.678Z" fill="white"/>
<path d="M104.969 69.6782C103.27 69.6782 101.929 68.4073 101.947 66.8394C101.965 65.2714 103.342 64.0501 105.04 64.0666C106.685 64.0996 108.009 65.3374 108.026 66.8724C108.026 68.4403 106.668 69.6782 104.969 69.6782Z" fill="white"/>
<path d="M114.106 66.8723C114.106 68.4403 112.835 69.6782 111.267 69.6782C109.732 69.6617 108.511 68.4403 108.494 66.9053C108.478 65.3373 109.716 64.0664 111.284 64.0664C112.852 64.0664 114.106 65.3208 114.106 66.8723Z" fill="white"/>
<path d="M117.913 64.0671C119.464 64.1002 120.685 65.3912 120.652 66.9636C120.619 68.4863 119.349 69.6946 117.814 69.678C116.247 69.6615 115.009 68.387 115.042 66.8146C115.058 65.2588 116.346 64.034 117.913 64.0671Z" fill="white"/>
<path d="M124.125 69.678C122.426 69.6615 121.086 68.3908 121.121 66.823C121.139 65.2553 122.534 64.0341 124.232 64.0671C125.877 64.1001 127.2 65.3543 127.2 66.8725C127.2 68.4403 125.823 69.6945 124.125 69.678Z" fill="white"/>
<path d="M133.279 66.8559C133.279 68.4238 132.021 69.6782 130.465 69.6782C128.926 69.6782 127.684 68.4568 127.668 66.9219C127.651 65.3539 128.876 64.0831 130.449 64.0666C132.005 64.0501 133.279 65.2879 133.279 66.8559Z" fill="white"/>
<path d="M139.359 66.905C139.342 68.4728 138.071 69.7105 136.503 69.6775C134.985 69.661 133.747 68.4068 133.747 66.8885C133.747 65.3207 134.985 64.0664 136.553 64.0664C138.121 64.0664 139.375 65.3372 139.359 66.905Z" fill="white"/>
<path d="M159 66.8723C159 68.4403 157.729 69.6782 156.161 69.6782C154.626 69.6617 153.405 68.4403 153.388 66.9053C153.372 65.3373 154.61 64.0664 156.178 64.0664C157.746 64.0664 159 65.3208 159 66.8723Z" fill="white"/>
<path d="M6.07913 72.9873C6.06263 74.5552 4.79177 75.7765 3.22382 75.76C1.70538 75.7435 0.484034 74.4892 0.467529 72.9543C0.467529 71.3864 1.72189 70.1321 3.28984 70.1486C4.85778 70.1486 6.09564 71.4194 6.07913 72.9873Z" fill="white"/>
<path d="M12.6263 72.9873C12.6097 74.5552 11.3389 75.7765 9.77094 75.76C8.2525 75.7435 7.03115 74.4892 7.01465 72.9543C7.01465 71.3864 8.269 70.1321 9.83695 70.1486C11.4049 70.1486 12.6428 71.4194 12.6263 72.9873Z" fill="white"/>
<path d="M19.1735 72.9873C19.1556 74.5552 17.7788 75.7765 16.0802 75.76C14.4352 75.7435 13.1121 74.4892 13.0942 72.9543C13.0942 71.3864 14.4531 70.1321 16.1517 70.1486C17.8503 70.1486 19.1914 71.4194 19.1735 72.9873Z" fill="white"/>
<path d="M37.8793 72.9543C37.8793 74.5223 36.6085 75.7602 35.0405 75.7602C33.5056 75.7437 32.2842 74.5223 32.2677 72.9873C32.2512 71.4193 33.4891 70.1484 35.057 70.1484C36.625 70.1484 37.8793 71.4028 37.8793 72.9543Z" fill="white"/>
<path d="M47.6751 75.76C46.1026 75.7435 44.8777 74.4728 44.8942 72.9051C44.9273 71.3373 46.2019 70.1161 47.7744 70.1491C49.2973 70.1821 50.5222 71.4363 50.5056 72.9711C50.5222 74.5388 49.2476 75.7765 47.6751 75.76Z" fill="white"/>
<path d="M54.247 75.7602C52.6791 75.7602 51.4248 74.5058 51.4413 72.9379C51.4413 71.3699 52.6956 70.1321 54.2801 70.1486C55.8149 70.1651 57.0363 71.403 57.0528 72.9214C57.0693 74.4893 55.8149 75.7602 54.247 75.7602Z" fill="white"/>
<path d="M63.1321 72.9873C63.1156 74.5552 61.8447 75.7765 60.2603 75.76C58.7419 75.727 57.5205 74.4892 57.5205 72.9543C57.5205 71.3864 58.7749 70.1321 60.3428 70.1486C61.9108 70.1486 63.1486 71.4194 63.1321 72.9873Z" fill="white"/>
<path d="M66.9227 70.1486C68.474 70.1651 69.7118 71.4525 69.6787 73.0204C69.6457 74.5389 68.408 75.7602 66.8732 75.7602C65.3054 75.7602 64.0676 74.5058 64.0676 72.9379C64.0841 71.3534 65.3384 70.1321 66.9227 70.1486Z" fill="white"/>
<path d="M94.9322 72.987C94.9157 74.5548 93.6448 75.7926 92.0768 75.7596C90.5584 75.7431 89.3206 74.4888 89.3206 72.9705C89.3206 71.4027 90.5584 70.1484 92.1264 70.1484C93.6943 70.1484 94.9487 71.4192 94.9322 72.987Z" fill="white"/>
<path d="M114.106 72.987C114.089 74.5548 112.818 75.7926 111.25 75.7596C109.732 75.7431 108.494 74.4888 108.494 72.9705C108.494 71.4027 109.732 70.1484 111.3 70.1484C112.868 70.1484 114.122 71.4192 114.106 72.987Z" fill="white"/>
<path d="M139.359 72.987C139.342 74.5548 138.071 75.7926 136.503 75.7596C134.985 75.7431 133.747 74.4888 133.747 72.9705C133.747 71.4027 134.985 70.1484 136.553 70.1484C138.121 70.1484 139.375 71.4192 139.359 72.987Z" fill="white"/>
<path d="M143.133 75.76C141.565 75.7765 140.294 74.5222 140.294 72.9707C140.294 71.4028 141.532 70.1484 143.1 70.1484C144.635 70.1484 145.873 71.3698 145.906 72.9047C145.922 74.4727 144.701 75.7435 143.133 75.76Z" fill="white"/>
<path d="M149.68 75.76C148.112 75.7765 146.841 74.5222 146.841 72.9707C146.841 71.4028 148.079 70.1484 149.647 70.1484C151.182 70.1484 152.42 71.3698 152.453 72.9047C152.469 74.4727 151.248 75.7435 149.68 75.76Z" fill="white"/>
<path d="M156.161 70.1486C157.729 70.1321 158.983 71.3863 159 72.9541C159 74.4888 157.779 75.7431 156.26 75.7596C154.692 75.7926 153.405 74.5548 153.388 73.0036C153.372 71.4193 154.593 70.1651 156.161 70.1486Z" fill="white"/>
<path d="M12.6263 79.302C12.6097 81.0006 11.3389 82.3237 9.75443 82.3058C8.23599 82.27 7.01465 80.9291 7.01465 79.2663C7.01465 77.5677 8.269 76.2089 9.83695 76.2267C11.4049 76.2267 12.6428 77.6035 12.6263 79.302Z" fill="white"/>
<path d="M25.2529 79.2663C25.2529 80.9648 23.9985 82.3237 22.4306 82.3058C20.8956 82.3058 19.6578 80.9648 19.6413 79.3199C19.6248 77.6213 20.8461 76.2446 22.4141 76.2267C23.982 76.2089 25.2529 77.5677 25.2529 79.2663Z" fill="white"/>
<path d="M31.3325 79.2485C31.3325 80.9471 30.0781 82.306 28.5102 82.306C26.9752 82.306 25.7374 80.965 25.7209 79.32C25.7044 77.6214 26.9257 76.2446 28.4937 76.2267C30.0616 76.2089 31.3325 77.5677 31.3325 79.2485Z" fill="white"/>
<path d="M44.4265 79.2485C44.4265 80.9471 43.1721 82.306 41.6042 82.306C40.0692 82.306 38.8314 80.965 38.8149 79.32C38.7984 77.6214 40.0197 76.2446 41.5877 76.2267C43.1556 76.2089 44.4265 77.5677 44.4265 79.2485Z" fill="white"/>
<path d="M50.5056 79.302C50.4891 81.0006 49.2183 82.3237 47.6503 82.3058C46.1319 82.2879 44.894 80.9291 44.894 79.2663C44.894 77.5677 46.1319 76.2089 47.7163 76.2267C49.2678 76.2267 50.5222 77.6035 50.5056 79.302Z" fill="white"/>
<path d="M57.0529 79.2663C57.0529 80.9648 55.7986 82.3237 54.2306 82.3058C52.6957 82.3058 51.4578 80.9648 51.4413 79.3199C51.4248 77.6213 52.6462 76.2446 54.2141 76.2267C55.7821 76.2089 57.0529 77.5677 57.0529 79.2663Z" fill="white"/>
<path d="M63.1321 79.3019C63.1156 80.9827 61.8282 82.3237 60.2603 82.3058C58.7419 82.27 57.5205 80.929 57.5205 79.2662C57.5205 77.5676 58.7749 76.2266 60.3428 76.2266C61.9108 76.2444 63.1486 77.6033 63.1321 79.3019Z" fill="white"/>
<path d="M76.2262 79.302C76.2083 81.0006 74.8316 82.3237 73.133 82.3058C71.488 82.2879 70.1649 80.9291 70.147 79.2663C70.147 77.5677 71.488 76.2089 73.2045 76.2267C74.8852 76.2267 76.2441 77.6035 76.2262 79.302Z" fill="white"/>
<path d="M88.8528 79.2306C88.8693 80.9292 87.6151 82.306 86.0638 82.306C84.5291 82.306 83.2749 81.0007 83.2419 79.3379C83.2089 77.6393 84.4301 76.2446 85.9978 76.2267C87.5656 76.2089 88.8363 77.532 88.8528 79.2306Z" fill="white"/>
<path d="M98.6487 82.3058C97.0762 82.2879 95.8513 80.9113 95.8678 79.2129C95.9009 77.5145 97.1755 76.1915 98.748 76.2273C100.271 76.263 101.496 77.6218 101.479 79.2844C101.496 80.9828 100.221 82.3237 98.6487 82.3058Z" fill="white"/>
<path d="M104.915 82.3053C103.235 82.2694 101.912 80.8714 101.948 79.1687C102.001 77.4661 103.396 76.1577 105.112 76.2294C106.756 76.2831 108.061 77.6632 108.026 79.3301C108.008 80.9969 106.613 82.3411 104.915 82.3053Z" fill="white"/>
<path d="M111.333 76.2267C112.901 76.2446 114.122 77.6212 114.106 79.3196C114.073 81.0002 112.802 82.341 111.218 82.3053C109.699 82.2695 108.478 80.9108 108.494 79.2481C108.511 77.5497 109.765 76.2089 111.333 76.2267Z" fill="white"/>
<path d="M117.814 82.3058C116.246 82.2879 115.025 80.8936 115.041 79.1955C115.074 77.4973 116.345 76.1745 117.93 76.2281C119.448 76.2639 120.669 77.6224 120.653 79.2848C120.653 80.983 119.382 82.3237 117.814 82.3058Z" fill="white"/>
<path d="M156.161 82.3058C154.593 82.2879 153.372 80.9113 153.388 79.2129C153.421 77.5145 154.692 76.1915 156.26 76.2273C157.779 76.263 159 77.6218 159 79.2844C159 80.9828 157.729 82.3237 156.161 82.3058Z" fill="white"/>
<path d="M3.2404 88.385C1.6725 88.3685 0.45119 87.0942 0.467695 85.522C0.500703 83.9499 1.77153 82.7252 3.35593 82.7749C4.87432 82.808 6.09563 84.0657 6.07913 85.6048C6.07913 87.1604 4.8083 88.4016 3.2404 88.385Z" fill="white"/>
<path d="M9.82053 82.7734C11.3885 82.7734 12.6264 84.0278 12.6264 85.5957C12.6099 87.1307 11.3885 88.3685 9.85354 88.385C8.28555 88.4015 7.01465 87.1637 7.01465 85.5957C7.01465 84.0278 8.25254 82.7734 9.82053 82.7734Z" fill="white"/>
<path d="M28.4937 82.7736C30.0616 82.7571 31.3325 84.0113 31.3325 85.5791C31.3325 87.1138 30.1276 88.3681 28.5927 88.3846C27.0247 88.4176 25.7374 87.1798 25.7209 85.6286C25.7044 84.0443 26.9257 82.7901 28.4937 82.7736Z" fill="white"/>
<path d="M57.0528 85.5464C57.0693 87.1143 55.8151 88.3687 54.2473 88.3852C52.7125 88.3852 51.4583 87.1639 51.4418 85.6454C51.4088 84.0775 52.63 82.7901 54.1978 82.7736C55.7655 82.7571 57.0363 83.9949 57.0528 85.5464Z" fill="white"/>
<path d="M86.0307 88.3852C84.4627 88.3852 83.2249 87.1143 83.2414 85.5464C83.2579 83.9784 84.5287 82.7571 86.0967 82.7736C87.6151 82.7901 88.853 84.0445 88.853 85.5629C88.853 87.1308 87.5986 88.3852 86.0307 88.3852Z" fill="white"/>
<path d="M92.1594 88.385C90.5914 88.4015 89.3206 87.1472 89.3206 85.5957C89.3206 84.0278 90.5584 82.7734 92.1264 82.7734C93.6613 82.7734 94.8991 83.9948 94.9322 85.5297C94.9487 87.0977 93.7273 88.3685 92.1594 88.385Z" fill="white"/>
<path d="M98.69 82.7734C100.258 82.7899 101.496 84.0443 101.479 85.6123C101.463 87.1307 100.225 88.3685 98.69 88.385C97.122 88.4015 95.8677 87.1472 95.8677 85.5792C95.8677 84.0113 97.122 82.7734 98.69 82.7734Z" fill="white"/>
<path d="M108.026 85.5629C108.044 87.1308 106.685 88.3852 104.987 88.3852C103.324 88.3852 101.983 87.1639 101.948 85.6454C101.912 84.0775 103.253 82.8066 104.933 82.7736C106.632 82.7571 108.008 83.995 108.026 85.5629Z" fill="white"/>
<path d="M133.279 85.5957C133.279 87.1637 132.009 88.4015 130.441 88.385C128.906 88.3685 127.684 87.1307 127.668 85.6122C127.651 84.0443 128.889 82.7899 130.457 82.7734C132.025 82.7734 133.279 84.0278 133.279 85.5957Z" fill="white"/>
<path d="M152.453 85.612C152.436 87.1798 151.165 88.4176 149.597 88.3846C148.079 88.3681 146.841 87.1138 146.841 85.5955C146.841 84.0277 148.079 82.7734 149.647 82.7734C151.215 82.7734 152.469 84.0442 152.453 85.612Z" fill="white"/>
<path d="M3.25699 94.9321C1.68904 94.9321 0.451188 93.6612 0.467692 92.0933C0.484197 90.5253 1.75506 89.304 3.32301 89.3205C4.84144 89.3535 6.06279 90.5913 6.07929 92.1263C6.07929 93.6942 4.82493 94.9321 3.25699 94.9321Z" fill="white"/>
<path d="M9.7876 89.3205C11.3555 89.304 12.6099 90.5582 12.6264 92.126C12.6264 93.6607 11.4051 94.9149 9.88664 94.9314C8.31869 94.9644 7.03132 93.7267 7.01481 92.1755C6.99831 90.5912 8.21966 89.337 9.7876 89.3205Z" fill="white"/>
<path d="M19.1735 92.1591C19.1556 93.7106 17.7609 94.9484 16.0623 94.9319C14.4174 94.8989 13.0942 93.6611 13.0942 92.1261C13.0942 90.5582 14.4531 89.3203 16.1517 89.3203C17.8503 89.3368 19.1914 90.5912 19.1735 92.1591Z" fill="white"/>
<path d="M22.447 89.3203C24.015 89.3203 25.2529 90.5783 25.2529 92.1507C25.2364 93.7231 23.9655 94.9645 22.3975 94.9314C20.879 94.9149 19.6411 93.6735 19.6411 92.1341C19.6411 90.5783 20.879 89.3203 22.447 89.3203Z" fill="white"/>
<path d="M35.0735 94.9321C33.5056 94.9321 32.2512 93.6777 32.2677 92.1098C32.2677 90.5418 33.5221 89.304 35.1065 89.3205C36.6414 89.337 37.8627 90.5748 37.8792 92.0933C37.8957 93.6612 36.6414 94.9321 35.0735 94.9321Z" fill="white"/>
<path d="M41.637 89.3203C43.2049 89.3203 44.4428 90.5912 44.4263 92.1591C44.4098 93.6941 43.1719 94.9154 41.6535 94.9319C40.0856 94.9484 38.8147 93.6941 38.8147 92.1426C38.8147 90.5582 40.0525 89.3203 41.637 89.3203Z" fill="white"/>
<path d="M57.0528 92.1592C57.0363 93.7271 55.7654 94.9484 54.1975 94.9319C52.679 94.8989 51.4577 93.6611 51.4412 92.1262C51.4412 90.5583 52.6955 89.304 54.2635 89.3205C55.8314 89.3205 57.0693 90.5913 57.0528 92.1592Z" fill="white"/>
<path d="M63.1323 92.1262C63.1323 93.6942 61.8614 94.9321 60.2935 94.9321C58.7585 94.9156 57.5372 93.6942 57.5207 92.1592C57.5042 90.5912 58.742 89.3203 60.31 89.3203C61.8779 89.3203 63.1323 90.5582 63.1323 92.1262Z" fill="white"/>
<path d="M88.8523 92.192C88.8192 93.7432 87.5282 94.9644 85.9558 94.9314C84.4331 94.8984 83.2248 93.6277 83.2414 92.0929C83.2579 90.5252 84.5158 89.304 86.1048 89.3205C87.6441 89.337 88.8854 90.6242 88.8523 92.192Z" fill="white"/>
<path d="M98.7065 94.9319C97.1385 94.9484 95.8677 93.6941 95.8677 92.1426C95.8677 90.5747 97.1055 89.3203 98.6735 89.3203C100.208 89.3203 101.446 90.5417 101.479 92.0766C101.496 93.6446 100.274 94.9154 98.7065 94.9319Z" fill="white"/>
<path d="M114.106 92.1098C114.106 93.6777 112.868 94.9321 111.3 94.9321C109.766 94.9321 108.528 93.7107 108.495 92.1758C108.462 90.6078 109.7 89.337 111.267 89.3205C112.835 89.304 114.089 90.5418 114.106 92.1098Z" fill="white"/>
<path d="M133.279 92.1591C133.263 93.7271 131.975 94.9484 130.408 94.9319C128.889 94.8989 127.668 93.661 127.668 92.1261C127.668 90.5582 128.922 89.3203 130.49 89.3203C132.058 89.3203 133.296 90.5912 133.279 92.1591Z" fill="white"/>
<path d="M136.52 89.3205C138.088 89.304 139.359 90.5417 139.359 92.1095C139.359 93.6442 138.154 94.8984 136.636 94.9314C135.068 94.9644 133.78 93.7432 133.747 92.1755C133.731 90.6077 134.952 89.337 136.52 89.3205Z" fill="white"/>
<path d="M145.906 92.0933C145.922 93.6612 144.668 94.9156 143.1 94.9321C141.566 94.9321 140.311 93.7107 140.295 92.1923C140.262 90.6244 141.483 89.337 143.051 89.3205C144.619 89.304 145.889 90.5418 145.906 92.0933Z" fill="white"/>
<path d="M149.614 94.9319C148.046 94.9154 146.809 93.6447 146.842 92.0769C146.858 90.5092 148.145 89.288 149.713 89.321C151.232 89.354 152.453 90.6082 152.453 92.1429C152.453 93.6942 151.182 94.9484 149.614 94.9319Z" fill="white"/>
<path d="M153.389 92.0602C153.422 90.4926 154.709 89.288 156.276 89.321C157.827 89.354 159.048 90.6576 158.998 92.2417C158.949 93.7598 157.679 94.9644 156.144 94.9314C154.593 94.9149 153.356 93.6278 153.389 92.0602Z" fill="white"/>
<path d="M3.24858 101.479C1.67605 101.462 0.451142 100.192 0.467695 98.6238C0.500801 97.056 1.77537 95.8348 3.3479 95.8678C4.87076 95.9008 6.09568 97.1551 6.07913 98.6898C6.09568 100.258 4.8211 101.495 3.24858 101.479Z" fill="white"/>
<path d="M22.4634 101.479C20.8955 101.479 19.6411 100.221 19.6411 98.6649C19.6411 97.0923 20.8955 95.8508 22.4799 95.8674C24.0149 95.8839 25.2362 97.1089 25.2527 98.6483C25.2692 100.204 24.0314 101.479 22.4634 101.479Z" fill="white"/>
<path d="M50.5056 98.6401C50.5221 100.208 49.2679 101.462 47.7002 101.479C46.1654 101.479 44.9112 100.258 44.8947 98.7392C44.8617 97.1712 46.0829 95.8839 47.6507 95.8674C49.2184 95.8508 50.4891 97.0887 50.5056 98.6401Z" fill="white"/>
<path d="M69.6792 98.7061C69.6627 100.274 68.3919 101.495 66.8239 101.479C65.3055 101.462 64.0841 100.208 64.0676 98.6731C64.0676 97.1052 65.3055 95.8508 66.8899 95.8673C68.4414 95.8673 69.6957 97.1382 69.6792 98.7061Z" fill="white"/>
<path d="M73.1867 95.8672C74.8853 95.8672 76.2264 97.1252 76.2264 98.6978C76.2085 100.237 74.8853 101.462 73.2224 101.479C71.5238 101.495 70.147 100.254 70.147 98.6813C70.147 97.1252 71.488 95.8672 73.1867 95.8672Z" fill="white"/>
<path d="M82.3059 98.6895C82.3059 100.257 81.035 101.495 79.467 101.479C77.9321 101.462 76.7108 100.224 76.6943 98.706C76.6778 97.1381 77.9156 95.8837 79.4836 95.8672C81.0515 95.8672 82.3059 97.1215 82.3059 98.6895Z" fill="white"/>
<path d="M98.69 101.479C97.122 101.479 95.8677 100.225 95.8677 98.6731C95.8677 97.1051 97.122 95.8672 98.69 95.8672C100.225 95.8837 101.463 97.1051 101.479 98.6401C101.496 100.208 100.258 101.479 98.69 101.479Z" fill="white"/>
<path d="M127.2 98.6731C127.2 100.241 125.823 101.479 124.125 101.479C122.462 101.462 121.139 100.241 121.121 98.7061C121.103 97.1381 122.444 95.8672 124.143 95.8672C125.841 95.8672 127.2 97.1051 127.2 98.6731Z" fill="white"/>
<path d="M136.52 95.8673C138.088 95.8508 139.342 97.1051 139.359 98.6728C139.359 100.208 138.137 101.462 136.619 101.478C135.051 101.511 133.764 100.274 133.747 98.7223C133.731 97.1381 134.952 95.8839 136.52 95.8673Z" fill="white"/>
<path d="M143.1 101.479C141.532 101.479 140.278 100.225 140.294 98.6567C140.294 97.0887 141.549 95.8508 143.133 95.8674C144.668 95.8839 145.889 97.1217 145.906 98.6401C145.922 100.208 144.668 101.479 143.1 101.479Z" fill="white"/>
<path d="M156.178 101.479C154.61 101.479 153.372 100.208 153.388 98.6401C153.405 97.0722 154.676 95.8508 156.244 95.8674C157.762 95.8839 159 97.1382 159 98.6567C159 100.225 157.746 101.479 156.178 101.479Z" fill="white"/>
<path d="M54.2635 6.08051C52.6955 6.08051 51.4412 4.84263 51.4412 3.27463C51.4412 1.70664 52.6955 0.46875 54.2635 0.46875C55.7984 0.485255 57.0363 1.70664 57.0528 3.24162C57.0693 4.80962 55.8314 6.06401 54.2635 6.08051Z" fill="white"/>
<path d="M3.2404 108.025C1.6725 108.007 0.45119 106.612 0.467695 104.914C0.500703 103.215 1.77153 101.91 3.35593 101.946C4.87432 101.982 6.09563 103.341 6.07913 105.003C6.06262 106.702 4.8083 108.042 3.2404 108.025Z" fill="white"/>
<path d="M19.1737 105.003C19.1737 106.701 17.7969 108.042 16.0983 108.025C14.4354 108.007 13.1123 106.666 13.0944 105.021C13.0765 103.322 14.4175 101.963 16.1162 101.945C17.8148 101.945 19.1737 103.304 19.1737 105.003Z" fill="white"/>
<path d="M25.2527 105.021C25.2362 106.719 23.9654 108.042 22.3974 108.025C20.879 108.007 19.6576 106.648 19.6411 104.985C19.6411 103.286 20.879 101.928 22.4634 101.945C24.0149 101.945 25.2692 103.322 25.2527 105.021Z" fill="white"/>
<path d="M37.8793 105.003C37.8793 106.701 36.6085 108.042 35.0405 108.025C33.5056 108.007 32.2842 106.666 32.2677 105.021C32.2512 103.322 33.4891 101.963 35.057 101.945C36.625 101.945 37.8793 103.304 37.8793 105.003Z" fill="white"/>
<path d="M44.4265 105.003C44.4265 106.701 43.1556 108.042 41.5876 108.025C40.0527 108.007 38.8314 106.666 38.8149 105.021C38.7984 103.322 40.0362 101.963 41.6042 101.945C43.1721 101.945 44.4265 103.304 44.4265 105.003Z" fill="white"/>
<path d="M63.1323 105.003C63.1323 106.701 61.8614 108.042 60.2935 108.025C58.7585 108.007 57.5372 106.666 57.5207 105.021C57.5042 103.322 58.742 101.963 60.31 101.945C61.8779 101.945 63.1323 103.304 63.1323 105.003Z" fill="white"/>
<path d="M76.2264 105.003C76.2264 106.701 74.8496 108.042 73.151 108.025C71.4882 108.007 70.165 106.666 70.1471 105.021C70.1293 103.322 71.4703 101.963 73.1689 101.945C74.8675 101.945 76.2264 103.304 76.2264 105.003Z" fill="white"/>
<path d="M86.0307 101.945C87.5986 101.945 88.853 103.304 88.853 104.985C88.853 106.648 87.6316 107.989 86.0967 108.025C84.5287 108.042 83.2579 106.719 83.2414 105.021C83.2249 103.322 84.4627 101.945 86.0307 101.945Z" fill="white"/>
<path d="M98.6981 101.945C100.271 101.963 101.512 103.34 101.479 105.038C101.462 106.719 100.171 108.06 98.5988 108.024C97.0761 107.988 95.8513 106.63 95.8678 104.967C95.8513 103.268 97.1257 101.928 98.6981 101.945Z" fill="white"/>
<path d="M145.906 105.003C145.906 106.701 144.635 108.042 143.067 108.025C141.532 108.007 140.311 106.666 140.294 105.021C140.278 103.322 141.516 101.963 143.084 101.945C144.652 101.945 145.906 103.304 145.906 105.003Z" fill="white"/>
<path d="M152.453 105.02C152.436 106.719 151.165 108.06 149.597 108.024C148.079 108.006 146.841 106.647 146.841 105.003C146.841 103.304 148.079 101.945 149.647 101.945C151.215 101.945 152.469 103.322 152.453 105.02Z" fill="white"/>
<path d="M69.6794 3.29106C69.6794 4.859 68.4085 6.09686 66.8406 6.08035C65.3056 6.06385 64.0843 4.82599 64.0678 3.30756C64.0513 1.73961 65.2891 0.485255 66.8571 0.46875C68.425 0.46875 69.6794 1.72311 69.6794 3.29106Z" fill="white"/>
<path d="M54.2635 113.639C52.6955 113.639 51.4412 112.385 51.4412 110.817C51.4412 109.249 52.6955 108.011 54.28 108.028C55.8149 108.044 57.0363 109.265 57.0528 110.8C57.0693 112.368 55.8149 113.639 54.2635 113.639Z" fill="white"/>
<path d="M66.8735 108.027C68.4415 108.027 69.6794 109.298 69.6794 110.866C69.6629 112.401 68.4415 113.622 66.9065 113.639C65.3385 113.655 64.0676 112.418 64.0676 110.85C64.0676 109.282 65.3055 108.027 66.8735 108.027Z" fill="white"/>
<path d="M94.9322 110.8C94.9487 112.368 93.6944 113.639 92.1432 113.639C90.6084 113.639 89.3542 112.434 89.3212 110.899C89.2882 109.331 90.5094 108.044 92.0772 108.028C93.6449 108.011 94.9157 109.232 94.9322 110.8Z" fill="white"/>
<path d="M143.067 113.639C141.499 113.622 140.278 112.335 140.294 110.768C140.327 109.2 141.598 107.979 143.183 108.029C144.701 108.062 145.922 109.316 145.906 110.85C145.906 112.418 144.635 113.655 143.067 113.639Z" fill="white"/>
<path d="M152.453 110.866C152.436 112.434 151.149 113.655 149.581 113.639C148.062 113.606 146.841 112.368 146.841 110.833C146.841 109.265 148.095 108.027 149.663 108.027C151.231 108.027 152.469 109.298 152.453 110.866Z" fill="white"/>
<path d="M76.2262 3.30764C76.2083 4.87554 74.8316 6.09685 73.133 6.08035C71.488 6.06385 70.147 4.80952 70.147 3.27463C70.147 1.70673 71.488 0.452407 73.2045 0.468911C74.8852 0.468911 76.2441 1.73974 76.2262 3.30764Z" fill="white"/>
<path d="M82.3057 3.30732C82.2892 4.87513 81.0183 6.11288 79.4504 6.07987C77.9319 6.06337 76.6941 4.80912 76.6941 3.29081C76.6941 1.723 77.9319 0.46875 79.4999 0.46875C81.0678 0.46875 82.3222 1.7395 82.3057 3.30732Z" fill="white"/>
<path d="M64.0683 117.314C64.1013 115.746 65.3882 114.542 66.9556 114.575C68.5065 114.608 69.7274 115.911 69.6779 117.496C69.6284 119.014 68.358 120.218 66.8236 120.185C65.2727 120.169 64.0353 118.882 64.0683 117.314Z" fill="white"/>
<path d="M76.2262 117.429C76.2083 118.981 74.8137 120.218 73.1151 120.185C71.4701 120.152 70.147 118.915 70.147 117.38C70.147 115.812 71.5059 114.574 73.2045 114.574C74.9031 114.591 76.2441 115.845 76.2262 117.429Z" fill="white"/>
<path d="M86.0801 114.574C87.648 114.591 88.8693 115.862 88.8528 117.429C88.8198 118.981 87.549 120.218 85.9646 120.185C84.4462 120.152 83.2249 118.898 83.2414 117.363C83.2579 115.796 84.5122 114.558 86.0801 114.574Z" fill="white"/>
<path d="M159 117.413C158.983 118.981 157.712 120.218 156.144 120.185C154.626 120.169 153.388 118.915 153.388 117.396C153.388 115.828 154.626 114.574 156.194 114.574C157.762 114.574 159.016 115.845 159 117.413Z" fill="white"/>
<path d="M92.0935 0.468911C93.6615 0.452408 94.9323 1.70662 94.9323 3.27439C94.9323 4.80915 93.7275 6.06337 92.1925 6.07987C90.6246 6.11287 89.3372 4.87516 89.3207 3.3239C89.3042 1.73963 90.5256 0.485414 92.0935 0.468911Z" fill="white"/>
<path d="M76.2262 123.96C76.2083 125.528 74.8316 126.749 73.133 126.733C71.488 126.716 70.1649 125.462 70.147 123.927C70.147 122.359 71.488 121.105 73.2045 121.121C74.8852 121.121 76.2441 122.392 76.2262 123.96Z" fill="white"/>
<path d="M88.8528 123.96C88.8363 125.527 87.5654 126.765 85.9975 126.732C84.4791 126.716 83.2412 125.461 83.2412 123.943C83.2412 122.375 84.4791 121.121 86.047 121.121C87.615 121.121 88.8693 122.392 88.8528 123.96Z" fill="white"/>
<path d="M98.6736 121.121C100.242 121.121 101.479 122.375 101.479 123.943C101.463 125.511 100.192 126.749 98.624 126.733C97.1056 126.716 95.8677 125.478 95.8677 123.943C95.8677 122.375 97.1056 121.121 98.6736 121.121Z" fill="white"/>
<path d="M149.647 121.121C151.215 121.121 152.453 122.379 152.453 123.951C152.436 125.524 151.165 126.765 149.597 126.732C148.079 126.716 146.841 125.474 146.841 123.935C146.841 122.379 148.079 121.121 149.647 121.121Z" fill="white"/>
<path d="M159 123.943C158.983 125.511 157.729 126.749 156.145 126.733C154.626 126.716 153.388 125.478 153.388 123.943C153.372 122.375 154.626 121.121 156.194 121.121C157.762 121.121 159.016 122.375 159 123.943Z" fill="white"/>
<path d="M108.026 3.29106C108.026 4.859 106.65 6.09686 104.951 6.08035C103.288 6.06385 101.965 4.82599 101.947 3.30756C101.929 1.73961 103.27 0.485255 104.969 0.46875C106.668 0.46875 108.026 1.72311 108.026 3.29106Z" fill="white"/>
<path d="M54.247 127.668C55.815 127.668 57.0529 128.939 57.0529 130.507C57.0364 132.074 55.7655 133.312 54.1975 133.279C52.6791 133.263 51.4412 132.008 51.4412 130.49C51.4412 128.906 52.6791 127.668 54.247 127.668Z" fill="white"/>
<path d="M60.2935 127.668C61.8614 127.652 63.1323 128.889 63.1323 130.457C63.1323 131.992 61.9274 133.246 60.3925 133.279C58.8245 133.312 57.5372 132.091 57.5207 130.523C57.5042 128.955 58.7255 127.685 60.2935 127.668Z" fill="white"/>
<path d="M66.8735 127.668C68.4415 127.668 69.6794 128.939 69.6794 130.507C69.6629 132.074 68.392 133.312 66.824 133.279C65.3055 133.263 64.0676 132.008 64.0676 130.49C64.0676 128.922 65.3055 127.668 66.8735 127.668Z" fill="white"/>
<path d="M79.4835 127.668C81.0515 127.652 82.3059 128.906 82.3059 130.474C82.3059 132.008 81.0845 133.246 79.566 133.279C77.998 133.312 76.7106 132.074 76.6941 130.523C76.6941 128.939 77.9155 127.685 79.4835 127.668Z" fill="white"/>
<path d="M92.151 127.668C93.7234 127.685 94.9648 128.955 94.9317 130.523C94.9151 132.074 93.6241 133.312 92.0517 133.279C90.529 133.246 89.3042 131.992 89.3207 130.457C89.3042 128.889 90.5786 127.652 92.151 127.668Z" fill="white"/>
<path d="M98.69 133.28C97.122 133.28 95.8677 132.025 95.8677 130.474C95.8677 128.906 97.122 127.668 98.69 127.668C100.225 127.684 101.463 128.906 101.479 130.441C101.496 132.009 100.258 133.28 98.69 133.28Z" fill="white"/>
<path d="M152.453 130.441C152.469 132.009 151.215 133.263 149.647 133.28C148.112 133.28 146.858 132.058 146.842 130.54C146.809 128.972 148.03 127.685 149.598 127.668C151.165 127.652 152.436 128.889 152.453 130.441Z" fill="white"/>
<path d="M54.2141 133.746C55.7821 133.728 57.0364 135.087 57.0529 136.786C57.0529 138.448 55.8316 139.807 54.3131 139.825C52.7452 139.861 51.4578 138.52 51.4413 136.839C51.4248 135.123 52.6462 133.764 54.2141 133.746Z" fill="white"/>
<path d="M63.1321 136.821C63.1156 138.52 61.8447 139.861 60.2768 139.825C58.7584 139.807 57.5205 138.448 57.5205 136.803C57.5205 135.105 58.7584 133.746 60.3263 133.746C61.8943 133.746 63.1486 135.123 63.1321 136.821Z" fill="white"/>
<path d="M92.0854 133.746C93.6578 133.728 94.9323 135.069 94.9323 136.768C94.9323 138.43 93.724 139.789 92.2013 139.825C90.6288 139.861 89.3378 138.538 89.3212 136.839C89.2881 135.141 90.513 133.764 92.0854 133.746Z" fill="white"/>
<path d="M101.479 136.822C101.463 138.52 100.192 139.843 98.6075 139.825C97.089 139.79 95.8677 138.449 95.8677 136.786C95.8677 135.087 97.122 133.728 98.69 133.746C100.258 133.746 101.496 135.123 101.479 136.822Z" fill="white"/>
<path d="M104.951 139.825C103.253 139.807 101.912 138.431 101.948 136.732C101.966 135.034 103.36 133.711 105.059 133.747C106.703 133.783 108.026 135.141 108.026 136.786C108.026 138.484 106.65 139.843 104.951 139.825Z" fill="white"/>
<path d="M111.251 139.825C109.699 139.807 108.462 138.413 108.495 136.715C108.528 135.016 109.799 133.711 111.383 133.747C112.901 133.783 114.122 135.141 114.106 136.804C114.089 138.502 112.835 139.843 111.251 139.825Z" fill="white"/>
<path d="M117.864 139.827C116.296 139.827 115.041 138.569 115.041 137.013C115.041 135.44 116.296 134.198 117.88 134.215C119.415 134.232 120.636 135.457 120.653 136.996C120.669 138.552 119.432 139.827 117.864 139.827Z" fill="white"/>
<path d="M149.696 133.746C151.247 133.764 152.485 135.159 152.452 136.857C152.419 138.502 151.181 139.826 149.647 139.826C148.079 139.826 146.841 138.467 146.841 136.768C146.858 135.052 148.112 133.728 149.696 133.746Z" fill="white"/>
<path d="M159 136.786C159 138.484 157.729 139.826 156.161 139.826C154.626 139.808 153.405 138.484 153.388 136.822C153.372 135.123 154.61 133.746 156.178 133.746C157.746 133.746 159 135.105 159 136.786Z" fill="white"/>
<path d="M60.3263 139.828C61.8943 139.828 63.1486 141.082 63.1321 142.65C63.1156 144.185 61.8943 145.423 60.3593 145.44C58.7914 145.456 57.5205 144.218 57.5205 142.65C57.5205 141.082 58.7584 139.828 60.3263 139.828Z" fill="white"/>
<path d="M73.2224 139.828C74.921 139.845 76.2441 141.116 76.2262 142.683C76.1904 144.235 74.8137 145.472 73.0973 145.439C71.4524 145.406 70.1293 144.152 70.1472 142.617C70.165 141.05 71.5239 139.812 73.2224 139.828Z" fill="white"/>
<path d="M88.853 142.618C88.853 144.186 87.5949 145.44 86.0389 145.44C84.4994 145.44 83.2579 144.219 83.2414 142.684C83.2248 141.116 84.4498 139.845 86.0224 139.828C87.5784 139.812 88.853 141.05 88.853 142.618Z" fill="white"/>
<path d="M92.1429 139.828C93.7108 139.845 94.9487 141.099 94.9322 142.667C94.9157 144.185 93.6778 145.423 92.1429 145.44C90.5749 145.456 89.3206 144.202 89.3206 142.634C89.3206 141.066 90.5749 139.828 92.1429 139.828Z" fill="white"/>
<path d="M98.6571 145.44C97.0892 145.44 95.8513 144.169 95.8678 142.601C95.8843 141.033 97.1552 139.812 98.7232 139.828C100.242 139.845 101.479 141.099 101.479 142.618C101.479 144.186 100.225 145.44 98.6571 145.44Z" fill="white"/>
<path d="M130.441 145.44C128.873 145.423 127.651 144.153 127.668 142.569C127.701 141.001 128.972 139.78 130.556 139.83C132.075 139.863 133.296 141.117 133.279 142.651C133.279 144.219 132.009 145.456 130.441 145.44Z" fill="white"/>
<path d="M136.52 139.828C138.088 139.812 139.342 141.066 139.359 142.634C139.359 144.169 138.137 145.423 136.619 145.439C135.051 145.472 133.764 144.235 133.747 142.683C133.731 141.099 134.952 139.845 136.52 139.828Z" fill="white"/>
<path d="M145.906 142.601C145.922 144.169 144.668 145.423 143.1 145.44C141.566 145.44 140.311 144.219 140.295 142.7C140.262 141.132 141.483 139.845 143.051 139.828C144.619 139.812 145.889 141.05 145.906 142.601Z" fill="white"/>
<path d="M152.453 142.634C152.453 144.202 151.198 145.456 149.631 145.44C148.096 145.44 146.858 144.202 146.841 142.684C146.825 141.116 148.046 139.845 149.614 139.828C151.182 139.812 152.453 141.066 152.453 142.634Z" fill="white"/>
<path d="M156.21 145.44C154.643 145.44 153.388 144.185 153.388 142.634C153.388 141.066 154.643 139.828 156.21 139.828C157.745 139.845 158.983 141.066 159 142.601C159.016 144.169 157.778 145.44 156.21 145.44Z" fill="white"/>
<path d="M54.2962 146.375C55.8475 146.392 57.0853 147.679 57.0523 149.247C57.0193 150.765 55.7815 151.987 54.2467 151.987C52.6789 151.987 51.4412 150.732 51.4412 149.164C51.4577 147.58 52.7119 146.359 54.2962 146.375Z" fill="white"/>
<path d="M69.6792 149.214C69.6627 150.781 68.3919 152.019 66.8239 151.986C65.3055 151.97 64.0676 150.715 64.0676 149.197C64.0676 147.629 65.3055 146.375 66.8734 146.375C68.4414 146.375 69.6957 147.646 69.6792 149.214Z" fill="white"/>
<path d="M82.3059 149.181C82.3059 150.749 81.035 151.987 79.467 151.987C77.9321 151.97 76.7108 150.749 76.6943 149.214C76.6778 147.646 77.9156 146.375 79.4836 146.375C81.0515 146.375 82.3059 147.613 82.3059 149.181Z" fill="white"/>
<path d="M111.267 146.375C112.835 146.359 114.089 147.613 114.106 149.181C114.106 150.715 112.885 151.97 111.366 151.986C109.798 152.019 108.511 150.781 108.494 149.23C108.478 147.646 109.699 146.392 111.267 146.375Z" fill="white"/>
<path d="M120.653 149.148C120.669 150.716 119.415 151.97 117.847 151.987C116.313 151.987 115.075 150.765 115.042 149.247C115.009 147.679 116.23 146.392 117.798 146.375C119.366 146.359 120.636 147.597 120.653 149.148Z" fill="white"/>
<path d="M124.16 146.375C125.859 146.375 127.2 147.646 127.2 149.214C127.182 150.781 125.805 152.019 124.107 151.986C122.462 151.97 121.121 150.715 121.121 149.197C121.121 147.629 122.462 146.375 124.16 146.375Z" fill="white"/>
<path d="M133.279 149.181C133.279 150.749 132.009 151.987 130.441 151.987C128.906 151.97 127.684 150.749 127.668 149.214C127.651 147.646 128.889 146.375 130.457 146.375C132.025 146.375 133.279 147.613 133.279 149.181Z" fill="white"/>
<path d="M143.067 151.987C141.5 151.97 140.262 150.699 140.295 149.132C140.311 147.564 141.599 146.343 143.166 146.376C144.685 146.409 145.906 147.663 145.906 149.181C145.906 150.749 144.635 152.003 143.067 151.987Z" fill="white"/>
<path d="M152.453 149.214C152.436 150.781 151.165 152.019 149.597 151.986C148.079 151.97 146.841 150.715 146.841 149.197C146.841 147.629 148.079 146.375 149.647 146.375C151.215 146.375 152.469 147.646 152.453 149.214Z" fill="white"/>
<path d="M159 149.197C159 150.765 157.729 152.003 156.161 151.987C154.626 151.97 153.405 150.732 153.388 149.214C153.372 147.646 154.61 146.392 156.178 146.375C157.746 146.375 159 147.629 159 149.197Z" fill="white"/>
<path d="M54.247 152.922C55.815 152.922 57.0529 154.193 57.0529 155.761C57.0364 157.296 55.815 158.517 54.2801 158.533C52.7121 158.55 51.4412 157.312 51.4412 155.744C51.4412 154.176 52.6791 152.922 54.247 152.922Z" fill="white"/>
<path d="M69.6792 155.695C69.6957 157.263 68.4415 158.534 66.8903 158.534C65.3555 158.534 64.1013 157.329 64.0683 155.794C64.0353 154.226 65.2565 152.939 66.8242 152.922C68.392 152.906 69.6627 154.127 69.6792 155.695Z" fill="white"/>
<path d="M73.2045 158.534C71.5059 158.534 70.147 157.279 70.147 155.728C70.147 154.16 71.5059 152.922 73.2045 152.922C74.8673 152.938 76.2083 154.16 76.2262 155.695C76.2441 157.263 74.9031 158.534 73.2045 158.534Z" fill="white"/>
<path d="M94.9323 155.728C94.9323 157.296 93.678 158.55 92.11 158.533C90.5751 158.517 89.3372 157.296 89.3207 155.761C89.3042 154.193 90.5421 152.922 92.11 152.922C93.678 152.906 94.9323 154.16 94.9323 155.728Z" fill="white"/>
<path d="M105.022 152.922C106.721 152.939 108.044 154.209 108.026 155.794C107.99 157.312 106.65 158.534 104.987 158.534C103.288 158.534 101.929 157.279 101.947 155.711C101.965 154.143 103.324 152.906 105.022 152.922Z" fill="white"/>
<path d="M111.316 158.534C109.748 158.534 108.494 157.296 108.494 155.728C108.494 154.16 109.748 152.922 111.316 152.922C112.851 152.938 114.089 154.16 114.106 155.695C114.122 157.263 112.884 158.517 111.316 158.534Z" fill="white"/>
<path d="M120.653 155.761C120.636 157.329 119.365 158.55 117.798 158.533C116.279 158.517 115.058 157.263 115.041 155.728C115.041 154.16 116.296 152.906 117.864 152.922C119.432 152.922 120.669 154.193 120.653 155.761Z" fill="white"/>
<path d="M136.569 158.534C135.001 158.534 133.747 157.279 133.747 155.728C133.747 154.16 135.001 152.922 136.569 152.922C138.104 152.938 139.342 154.16 139.359 155.695C139.375 157.263 138.137 158.534 136.569 158.534Z" fill="white"/>
<path d="M156.161 158.533C154.594 158.517 153.356 157.246 153.389 155.678C153.405 154.111 154.693 152.89 156.26 152.923C157.779 152.956 159 154.21 159 155.728C159 157.296 157.729 158.55 156.161 158.533Z" fill="white"/>
<path d="M31.7928 22.232C31.7928 23.7431 31.8092 25.2543 31.7928 26.7655C31.76 29.7542 29.8077 31.7691 26.9039 31.7859C23.918 31.8027 20.9486 31.8027 17.9627 31.7859C15.0917 31.7691 13.1229 29.7542 13.1065 26.8158C13.0901 23.7431 13.0901 20.6536 13.1065 17.5809C13.1229 14.6929 15.1081 12.678 17.9135 12.6444C20.9486 12.6276 23.9836 12.6108 27.0187 12.6444C29.7913 12.678 31.76 14.6761 31.7928 17.5305C31.8092 19.0921 31.7928 20.6704 31.7928 22.232Z" fill="white"/>
<path d="M136.787 12.6325C138.33 12.6325 139.856 12.6157 141.4 12.6325C144.285 12.6661 146.315 14.6672 146.348 17.5428C146.382 20.6537 146.382 23.7647 146.348 26.8756C146.315 29.7512 144.285 31.7691 141.4 31.7859C138.33 31.8027 135.243 31.8027 132.174 31.7859C129.288 31.7691 127.259 29.7512 127.225 26.8756C127.192 23.7647 127.192 20.6537 127.225 17.5428C127.242 14.6672 129.288 12.6661 132.174 12.6325C133.717 12.6157 135.243 12.6325 136.787 12.6325Z" fill="white"/>
<path d="M22.1294 145.889C20.6196 145.889 19.1099 145.905 17.6002 145.889C14.7149 145.856 12.6852 143.905 12.6516 141.101C12.6181 138.067 12.6181 135.033 12.6516 132C12.6684 129.196 14.6981 127.228 17.6002 127.212C20.67 127.195 23.7565 127.195 26.8263 127.212C29.7115 127.228 31.7413 129.196 31.7748 132C31.8084 135.033 31.8084 138.067 31.7748 141.101C31.7413 143.905 29.7115 145.872 26.8263 145.905C25.2662 145.905 23.6894 145.889 22.1294 145.889Z" fill="white"/>
<path d="M121.121 117.419C121.121 120.473 120.949 120.645 117.853 120.645C117.372 120.645 116.873 120.662 116.392 120.645C115.205 120.593 114.621 119.976 114.586 118.792C114.569 117.814 114.569 116.853 114.586 115.875C114.621 114.812 115.223 114.177 116.306 114.125C117.286 114.091 118.249 114.108 119.229 114.125C120.502 114.142 121.103 114.777 121.121 116.047C121.121 116.51 121.121 116.973 121.121 117.419Z" fill="white"/>
</svg>
