<svg width="42" height="52" viewBox="0 0 42 52" fill="none" xmlns="http://www.w3.org/2000/svg">
<path fill-rule="evenodd" clip-rule="evenodd" d="M20.4521 0.0891079C20.8106 -0.0297142 21.1973 -0.0297023 21.5558 0.0891418L40.7836 6.46299C41.5116 6.70433 42.0039 7.39154 42.0039 8.1665V29.5961L42.0039 29.6033C42.0039 29.6086 42.0038 29.6146 42.0037 29.6213C42.0036 29.6348 42.0033 29.6513 42.0029 29.6708C42.002 29.7098 42.0003 29.7606 41.9973 29.8228C41.9912 29.9471 41.9795 30.117 41.9574 30.3283C41.9132 30.7508 41.8272 31.3394 41.6597 32.0608C41.3244 33.5047 40.6634 35.4775 39.3633 37.7084C36.7496 42.1933 31.632 47.5877 21.6969 51.8573C21.2541 52.0476 20.7539 52.0476 20.3111 51.8573C10.3741 47.5878 5.25539 42.1934 2.6412 37.7085C1.34083 35.4776 0.679704 33.5048 0.344332 32.0609C0.17679 31.3395 0.0906902 30.7509 0.0464877 30.3284C0.0243827 30.1171 0.0127384 29.9472 0.00663173 29.8228C0.00357802 29.7606 0.00190769 29.7098 0.00100743 29.6708C0.000557235 29.6513 0.000299462 29.6348 0.000157493 29.6213C8.66336e-05 29.6146 4.45688e-05 29.6086 2.2034e-05 29.6033L1.50232e-06 29.5961L0 8.1665C0 7.3915 0.49234 6.70426 1.22041 6.46296L20.4521 0.0891079ZM3.54441 9.46556V29.5852C3.54442 29.5858 3.54444 29.5864 3.54445 29.587C3.54464 29.5953 3.5452 29.6147 3.54668 29.645C3.54965 29.7054 3.55633 29.8087 3.57122 29.9511C3.60101 30.2358 3.66358 30.6759 3.79479 31.2409C4.05693 32.3694 4.5936 33.999 5.69441 35.8875C7.82761 39.5472 12.1553 44.3082 21.0038 48.2541C29.8504 44.3082 34.1772 39.5474 36.3099 35.8877C37.4105 33.9991 37.9471 32.3696 38.2092 31.2409C38.3403 30.676 38.4029 30.2358 38.4327 29.9511C38.4476 29.8088 38.4543 29.7054 38.4572 29.645C38.4587 29.6148 38.4593 29.5953 38.4595 29.587C38.4595 29.5864 38.4595 29.5857 38.4595 29.5852V9.46548L21.0039 3.67908L3.54441 9.46556Z" fill="black" stroke="white" stroke-width="0.6" stroke-linecap="round" stroke-linejoin="round"/>
<path fill-rule="evenodd" clip-rule="evenodd" d="M21.0007 13.5488C21.9795 13.5488 22.7729 14.3514 22.7729 15.3415V26.6338C22.7729 27.6239 21.9795 28.4265 21.0007 28.4265C20.022 28.4265 19.2285 27.6239 19.2285 26.6338V15.3415C19.2285 14.3514 20.022 13.5488 21.0007 13.5488Z" fill="black" stroke="white" stroke-width="0.6" stroke-linecap="round" stroke-linejoin="round"/>
</svg>
