<svg width="56" height="56" viewBox="0 0 56 56" fill="none" xmlns="http://www.w3.org/2000/svg">
<path d="M53.4202 42.344C52.5465 42.344 51.8381 43.0523 51.8381 43.9261V46.4646L45.4042 40.1014V24.73C45.4042 24.2738 45.1978 23.8093 44.8175 23.501C44.8151 23.499 44.813 23.4967 44.8104 23.4946L29.5833 11.3128V6.40018L31.3573 8.17424C31.9751 8.79199 32.9769 8.7921 33.5947 8.17424C34.2126 7.55638 34.2126 6.5547 33.5947 5.93683L29.1201 1.46213C28.505 0.846695 27.4988 0.845218 26.8822 1.46213L22.4076 5.93673C21.7897 6.55459 21.7897 7.55627 22.4076 8.17413C23.0253 8.79199 24.0271 8.79199 24.645 8.17413L26.4191 6.40018V11.3129L11.1918 23.4946C11.1892 23.4967 11.1872 23.499 11.1847 23.501C10.8163 23.7997 10.5981 24.2569 10.5981 24.73V40.1015L4.1642 46.4647V43.9262C4.1642 43.0524 3.45584 42.3441 2.5821 42.3441C1.70836 42.3441 1 43.0524 1 43.9262V50.2546C1 50.2709 1.0019 50.2869 1.00243 50.3031C1.02901 51.1763 1.75013 51.8363 2.58104 51.8367C2.58136 51.8367 2.58168 51.8367 2.5821 51.8367H8.91049C9.78423 51.8367 10.4926 51.1283 10.4926 50.2546C10.4926 49.3808 9.78423 48.6725 8.91049 48.6725H6.43166L12.2914 42.8772L27.0128 54.6543C27.5814 55.1092 28.4057 55.1212 28.9894 54.6543L43.7108 42.8772L49.5705 48.6725H47.0918C46.2181 48.6725 45.5097 49.3808 45.5097 50.2546C45.5097 51.1283 46.2181 51.8367 47.0918 51.8367H53.4202C53.4205 51.8367 53.4208 51.8367 53.4213 51.8367C54.2502 51.8362 54.9732 51.1776 54.9999 50.303C55.0004 50.2868 55.0023 50.2709 55.0023 50.2545V43.9261C55.0023 43.0523 54.2939 42.344 53.4202 42.344ZM26.4191 50.127L13.7623 40.0015V28.0218L26.4191 38.1472V50.127ZM28.0012 35.3607L14.7128 24.73L28.0012 14.0993L41.2895 24.7301L28.0012 35.3607ZM42.24 40.0015L29.5833 50.127V38.1472L42.24 28.0218V40.0015Z" fill="black" stroke="white" stroke-width="0.6"/>
</svg>
