<svg width="45" height="45" viewBox="0 0 45 45" fill="none" xmlns="http://www.w3.org/2000/svg">
<path fill-rule="evenodd" clip-rule="evenodd" d="M22.7395 3.80885C12.2844 3.80885 3.80885 12.2844 3.80885 22.7395C3.80885 33.1946 12.2844 41.6701 22.7395 41.6701C33.1946 41.6701 41.6701 33.1946 41.6701 22.7395C41.6701 12.2844 33.1946 3.80885 22.7395 3.80885ZM1 22.7395C1 10.7331 10.7331 1 22.7395 1C34.7459 1 44.479 10.7331 44.479 22.7395C44.479 34.7459 34.7459 44.479 22.7395 44.479C10.7331 44.479 1 34.7459 1 22.7395Z" fill="black" stroke="white" stroke-width="0.6" stroke-linecap="round" stroke-linejoin="round"/>
<path fill-rule="evenodd" clip-rule="evenodd" d="M18.0116 12.7745C18.0116 11.9989 18.6403 11.3701 19.416 11.3701H26.0605C26.8361 11.3701 27.4649 11.9989 27.4649 12.7745V18.0136H32.7029C33.4785 18.0136 34.1073 18.6424 34.1073 19.418V26.0604C34.1073 26.8361 33.4785 27.4648 32.7029 27.4648H27.4649V32.7049C27.4649 33.4806 26.8361 34.1094 26.0605 34.1094H19.416C18.6403 34.1094 18.0116 33.4806 18.0116 32.7049V27.4648H12.7736C11.9979 27.4648 11.3691 26.8361 11.3691 26.0604V19.418C11.3691 18.6424 11.9979 18.0136 12.7736 18.0136H18.0116V12.7745ZM20.8204 14.179V19.418C20.8204 20.1936 20.1916 20.8224 19.416 20.8224H14.178V24.656H19.416C20.1916 24.656 20.8204 25.2848 20.8204 26.0604V31.3005H24.6561V26.0604C24.6561 25.2848 25.2848 24.656 26.0605 24.656H31.2985V20.8224H26.0605C25.2848 20.8224 24.6561 20.1936 24.6561 19.418V14.179H20.8204Z" fill="black" stroke="white" stroke-width="0.6" stroke-linecap="round" stroke-linejoin="round"/>
</svg>
