<svg width="55" height="42" viewBox="0 0 55 42" fill="none" xmlns="http://www.w3.org/2000/svg">
<path d="M51.6889 7.49632V7.49591C51.6874 6.37456 51.2361 5.30028 50.4352 4.50842C49.6344 3.71667 48.5494 3.27181 47.4184 3.2703H47.418L7.58201 3.2703L7.58161 3.2703C6.45056 3.27181 5.3656 3.71667 4.56481 4.50842C3.76389 5.30028 3.31264 6.37456 3.31112 7.49591V7.49632L3.31112 34.5024L3.31112 34.5027C3.31226 35.6243 3.76334 36.6989 4.5643 37.4911C5.36514 38.2831 6.45032 38.7282 7.58161 38.7297H7.58201H47.418H47.4184C48.5497 38.7282 49.6349 38.2831 50.4357 37.4911C51.2367 36.6989 51.6877 35.6243 51.6889 34.5027V34.5024V7.49632ZM7.58201 0.3H47.418C49.3504 0.3 51.203 1.059 52.5684 2.40895C53.9336 3.75879 54.7 5.58884 54.7 7.49632V34.5024C54.7 36.41 53.9337 38.2402 52.5684 39.5902C51.2031 40.9404 49.3505 41.6997 47.418 41.7H7.58206C5.64953 41.6997 3.79694 40.9404 2.43158 39.5902C1.06634 38.2402 0.3 36.41 0.3 34.5024V7.49632C0.3 5.58884 1.06637 3.75879 2.43164 2.40895C3.79703 1.059 5.64961 0.3 7.58201 0.3Z" fill="black" stroke="white" stroke-width="0.6"/>
<path fill-rule="evenodd" clip-rule="evenodd" d="M13.1289 14.5195C13.1289 13.5336 13.9373 12.7344 14.9345 12.7344H40.0665C41.0637 12.7344 41.8721 13.5336 41.8721 14.5195C41.8721 15.5054 41.0637 16.3047 40.0665 16.3047H14.9345C13.9373 16.3047 13.1289 15.5054 13.1289 14.5195Z" fill="black" stroke="white" stroke-width="0.6" stroke-linecap="round" stroke-linejoin="round"/>
</svg>
