<svg width="46" height="39" viewBox="0 0 46 39" fill="none" xmlns="http://www.w3.org/2000/svg">
<path fill-rule="evenodd" clip-rule="evenodd" d="M9.5625 1.71693C9.5625 0.941283 10.1913 0.3125 10.9669 0.3125H34.8724C35.648 0.3125 36.2768 0.941283 36.2768 1.71693V31.8372C36.2768 32.6128 35.648 33.2416 34.8724 33.2416H10.9669C10.1913 33.2416 9.5625 32.6128 9.5625 31.8372V1.71693ZM12.3714 3.12135V30.4328H33.4679V3.12135H12.3714Z" fill="black"/>
<path fill-rule="evenodd" clip-rule="evenodd" d="M9.35547 1.71711C9.35547 0.828105 10.0762 0.107422 10.9652 0.107422H34.8706C35.7596 0.107422 36.4803 0.828105 36.4803 1.71711V31.8374C36.4803 32.7264 35.7596 33.4471 34.8706 33.4471H10.9652C10.0762 33.4471 9.35547 32.7264 9.35547 31.8374V1.71711ZM10.9652 0.517948C10.3029 0.517948 9.766 1.05483 9.766 1.71711V31.8374C9.766 32.4997 10.3029 33.0366 10.9652 33.0366H34.8706C35.5329 33.0366 36.0697 32.4997 36.0697 31.8374V1.71711C36.0697 1.05483 35.5329 0.517948 34.8706 0.517948H10.9652ZM12.1643 3.12154C12.1643 3.00818 12.2562 2.91628 12.3696 2.91628H33.4662C33.5795 2.91628 33.6714 3.00818 33.6714 3.12154V30.433C33.6714 30.5463 33.5795 30.6382 33.4662 30.6382H12.3696C12.2562 30.6382 12.1643 30.5463 12.1643 30.433V3.12154ZM12.5748 3.3268V30.2277H33.2609V3.3268H12.5748Z" fill="white"/>
<path fill-rule="evenodd" clip-rule="evenodd" d="M0 31.837C0 31.0614 0.628783 30.4326 1.40443 30.4326H44.434C45.2096 30.4326 45.8384 31.0614 45.8384 31.837C45.8384 32.6127 45.2096 33.2415 44.434 33.2415H1.40443C0.628783 33.2415 0 32.6127 0 31.837Z" fill="black"/>
<path fill-rule="evenodd" clip-rule="evenodd" d="M9.5625 37.2921C9.5625 36.5165 10.1913 35.8877 10.9669 35.8877H34.8724C35.648 35.8877 36.2768 36.5165 36.2768 37.2921C36.2768 38.0678 35.648 38.6965 34.8724 38.6965H10.9669C10.1913 38.6965 9.5625 38.0678 9.5625 37.2921Z" fill="black" stroke="white" stroke-width="0.6" stroke-linecap="round" stroke-linejoin="round"/>
<path fill-rule="evenodd" clip-rule="evenodd" d="M22.9201 7.35645C23.6957 7.35645 24.3245 7.98523 24.3245 8.76087V17.6077C24.3245 18.3834 23.6957 19.0121 22.9201 19.0121C22.1444 19.0121 21.5156 18.3834 21.5156 17.6077V8.76087C21.5156 7.98523 22.1444 7.35645 22.9201 7.35645Z" fill="black" stroke="white" stroke-width="0.6" stroke-linecap="round" stroke-linejoin="round"/>
</svg>
