<svg width="43" height="38" viewBox="0 0 43 38" fill="none" xmlns="http://www.w3.org/2000/svg">
<path fill-rule="evenodd" clip-rule="evenodd" d="M32.5635 0C35.5748 0 38.0497 2.33391 38.2786 5.28771C40.6896 5.96578 42.4629 8.18266 42.463 10.8074V32.2657C42.463 35.4276 39.8906 38 36.7287 38H5.73431C2.5724 38 0 35.4276 0 32.2657V5.73431C0 2.5724 2.5724 0 5.73431 0H32.5635ZM32.5635 2.6788H5.73431C4.04951 2.6788 2.6788 4.04951 2.6788 5.73431V5.95858C3.56415 5.39871 4.61164 5.07315 5.73431 5.07315H35.5461C35.243 3.7052 34.0213 2.6788 32.5635 2.6788ZM5.73431 35.3212H36.7286C38.4134 35.3212 39.7841 33.9505 39.7841 32.2657V27.7578H31.2433C27.8589 27.7578 25.1053 25.0043 25.1053 21.6198C25.1053 18.2353 27.8588 15.4817 31.2433 15.4817H39.7842V10.8074C39.7842 9.12258 38.4135 7.75187 36.7287 7.75187H5.73431C4.04951 7.75187 2.6788 9.12258 2.6788 10.8074V32.2657C2.6788 33.9505 4.04951 35.3212 5.73431 35.3212ZM31.2433 25.079H39.7841V18.1605H31.2433C29.3359 18.1605 27.7841 19.7123 27.7841 21.6198C27.7841 23.5273 29.3359 25.079 31.2433 25.079ZM33.1349 21.7226C33.1349 22.4928 32.5106 23.1171 31.7404 23.1171C30.9703 23.1171 30.3459 22.4928 30.3459 21.7226C30.3459 20.9525 30.9703 20.3281 31.7404 20.3281C32.5106 20.3281 33.1349 20.9525 33.1349 21.7226Z" fill="black"/>
</svg>
