<svg width="54" height="54" viewBox="0 0 54 54" fill="none" xmlns="http://www.w3.org/2000/svg">
<path d="M16.8271 3.3229L16.8268 3.3229C14.7205 3.32511 12.6998 4.14345 11.2083 5.60051C9.71667 7.05779 8.87633 9.03517 8.87405 11.0992V11.0994C8.87377 12.6395 9.34102 14.1444 10.2158 15.4238C11.0906 16.7032 12.3333 17.6994 13.7861 18.2874C15.2387 18.8754 16.8369 19.0292 18.3787 18.7296C19.9205 18.4301 21.3377 17.6904 22.4506 16.6031C23.5637 15.5157 24.3225 14.1295 24.6299 12.6192C24.9373 11.1089 24.7793 9.54355 24.1762 8.1214C23.5731 6.69933 22.5524 5.48507 21.2442 4.63136C19.936 3.77771 18.3989 3.32262 16.8271 3.3229ZM16.8271 0.3H16.8271C19.763 0.3 22.5773 1.43946 24.6512 3.46556C26.7249 5.49142 27.8886 8.23758 27.8886 11.0995V11.0995C27.8889 13.2343 27.2411 15.3217 26.0265 17.098C24.8119 18.8743 23.0845 20.2598 21.0622 21.0783C19.0398 21.8969 16.814 22.1112 14.6665 21.6939C12.5191 21.2767 10.5475 20.2469 9.00064 18.7357C7.4539 17.2246 6.40141 15.3003 5.97513 13.2063C5.54887 11.1124 5.76771 8.94202 6.6043 6.96923C7.44091 4.99637 8.8581 3.30905 10.6777 2.1215C12.4974 0.933896 14.6374 0.299742 16.8271 0.3Z" fill="black" stroke="white" stroke-width="0.6"/>
<path d="M42.6377 3.3229L42.6374 3.3229C40.531 3.32511 38.5101 4.1434 37.0184 5.60041C35.5265 7.05764 34.6859 9.035 34.6832 11.0991V11.0994C34.683 12.6394 35.1502 14.1443 36.0249 15.4237C36.8996 16.703 38.1423 17.6992 39.5949 18.2872C41.0475 18.8753 42.6456 19.0292 44.1873 18.7297C45.7291 18.4303 47.1463 17.6908 48.2593 16.6036C49.3724 15.5164 50.1313 14.1302 50.4389 12.6201C50.7465 11.1099 50.5887 9.54455 49.9858 8.12237C49.3829 6.70027 48.3624 5.48591 47.0544 4.63204C45.7465 3.77822 44.2095 3.3229 42.6377 3.3229ZM36.4883 2.1215C38.3079 0.933896 40.448 0.299742 42.6377 0.3C45.5735 0.300347 48.3876 1.43992 50.4614 3.46595C52.535 5.49175 53.6988 8.23771 53.6992 11.0995C53.6994 13.2343 53.0517 15.3217 51.8371 17.098C50.6225 18.8743 48.8951 20.2598 46.8728 21.0783C44.8504 21.8969 42.6246 22.1112 40.4771 21.6939C38.3296 21.2767 36.358 20.2469 34.8112 18.7357C33.2644 17.2246 32.212 15.3003 31.7857 13.2063C31.3594 11.1124 31.5783 8.94202 32.4148 6.96923C33.2515 4.99637 34.6686 3.30905 36.4883 2.1215Z" fill="black" stroke="white" stroke-width="0.6"/>
<path fill-rule="evenodd" clip-rule="evenodd" d="M2.82364 28.9831C4.63158 27.2169 7.08368 26.2246 9.6405 26.2246H23.0347C24.0588 26.2246 24.889 27.0356 24.889 28.0361C24.889 29.0365 24.0588 29.8475 23.0347 29.8475H9.6405C8.06721 29.8475 6.55836 30.4581 5.44588 31.5449C4.3334 32.6317 3.70841 34.1058 3.70841 35.6428V52.1887C3.70841 53.1892 2.87826 54.0002 1.85421 54.0002C0.830157 54.0002 0 53.1892 0 52.1887V35.6428C0 33.1449 1.01569 30.7494 2.82364 28.9831Z" fill="black" stroke="white" stroke-width="0.6" stroke-linecap="round" stroke-linejoin="round"/>
<path fill-rule="evenodd" clip-rule="evenodd" d="M29.8959 28.9831C31.7039 27.2169 34.156 26.2246 36.7128 26.2246H51.4805C52.5046 26.2246 53.3347 27.0356 53.3347 28.0361C53.3347 29.0365 52.5046 29.8475 51.4805 29.8475H36.7128C35.1395 29.8475 33.6306 30.4581 32.5182 31.5449C31.4057 32.6317 30.7807 34.1058 30.7807 35.6428V52.1887C30.7807 53.1892 29.9505 54.0002 28.9265 54.0002C27.9024 54.0002 27.0723 53.1892 27.0723 52.1887V35.6428C27.0723 33.1449 28.088 30.7494 29.8959 28.9831Z" fill="black" stroke="white" stroke-width="0.6" stroke-linecap="round" stroke-linejoin="round"/>
</svg>
