<svg width="41" height="53" viewBox="0 0 41 53" fill="none" xmlns="http://www.w3.org/2000/svg">
<path fill-rule="evenodd" clip-rule="evenodd" d="M28.4856 11.144C25.2804 9.52167 21.6437 8.95646 18.0973 9.52942C14.5509 10.1024 11.2772 11.7841 8.74591 14.3332C6.21464 16.8823 4.55596 20.1677 4.00788 23.718C3.45981 27.2684 4.05053 30.9011 5.69526 34.0948C6.05038 34.7844 5.77925 35.6313 5.08968 35.9864C4.40011 36.3415 3.55321 36.0704 3.19809 35.3808C1.2816 31.6594 0.593285 27.4264 1.23191 23.2895C1.87054 19.1526 3.80329 15.3243 6.75279 12.354C9.7023 9.38373 13.5169 7.42417 17.6493 6.75653C21.7816 6.08889 26.0193 6.74749 29.7541 8.63782C30.4461 8.98809 30.7232 9.83306 30.3729 10.5251C30.0226 11.2172 29.1777 11.4942 28.4856 11.144Z" fill="black" stroke="white" stroke-width="0.6" stroke-linecap="round" stroke-linejoin="round"/>
<path fill-rule="evenodd" clip-rule="evenodd" d="M36.5253 16.6366C37.2149 16.2815 38.0618 16.5526 38.417 17.2421C40.1906 20.6858 40.9157 24.5739 40.5023 28.4254C40.089 32.2768 38.5555 35.9226 36.0915 38.9115C33.6275 41.9003 30.3412 44.1012 26.6393 45.2416C22.9374 46.382 18.9824 46.412 15.2636 45.3277C14.519 45.1106 14.0914 44.331 14.3085 43.5863C14.5256 42.8417 15.3052 42.4141 16.0498 42.6312C19.2413 43.5616 22.6354 43.5359 25.8124 42.5572C28.9893 41.5785 31.8096 39.6898 33.9242 37.1248C36.0387 34.5597 37.3548 31.431 37.7095 28.1257C38.0642 24.8203 37.442 21.4836 35.9199 18.5283C35.5647 17.8387 35.8358 16.9918 36.5253 16.6366Z" fill="black" stroke="white" stroke-width="0.6" stroke-linecap="round" stroke-linejoin="round"/>
<path d="M23.8223 15.357L30.2837 9.55934L26.8121 1.4043L23.8223 15.357Z" fill="black" stroke="white" stroke-width="0.6" stroke-linecap="round" stroke-linejoin="round"/>
<path fill-rule="evenodd" clip-rule="evenodd" d="M26.6762 0.00646198C27.2857 -0.0520307 27.8628 0.291039 28.1026 0.854379L31.5742 9.00942C31.8095 9.56225 31.6671 10.2036 31.2199 10.6048L24.7585 16.4025C24.3056 16.8088 23.6427 16.8774 23.1163 16.5723C22.5899 16.2672 22.3198 15.6578 22.4473 15.0629L25.4372 1.1102C25.5654 0.511529 26.0668 0.0649546 26.6762 0.00646198Z" fill="black"/>
<path d="M18.9887 37.167L12.5273 42.9647L15.9989 51.1197L18.9887 37.167Z" fill="black" stroke="white" stroke-width="0.6" stroke-linecap="round" stroke-linejoin="round"/>
<path fill-rule="evenodd" clip-rule="evenodd" d="M19.6932 35.953C20.2196 36.2581 20.4897 36.8675 20.3622 37.4624L17.3723 51.4151C17.244 52.0138 16.7427 52.4604 16.1332 52.5188C15.5238 52.5773 14.9467 52.2343 14.7069 51.6709L11.2353 43.5159C11 42.9631 11.1424 42.3218 11.5896 41.9205L18.051 36.1228C18.5038 35.7165 19.1668 35.6479 19.6932 35.953Z" fill="black"/>
</svg>
