<svg width="144" height="96" viewBox="0 0 144 96" fill="none" xmlns="http://www.w3.org/2000/svg">
<path d="M46.0787 49.0195H0V95.1331H46.0787V49.0195Z" fill="#89B8E4"/>
<path d="M46.0787 0H0V46.1136H46.0787V0Z" fill="#89B8E4"/>
<path d="M95.0456 49.0195H48.9668V95.1331H95.0456V49.0195Z" fill="#3D71BA"/>
<path d="M95.0456 0H48.9668V46.1136H95.0456V0Z" fill="#3D71BA"/>
<path d="M34.1744 85.8306L23.0333 57.2812L11.904 86.2418C11.8776 86.3112 11.8652 86.3851 11.8674 86.4594C11.8697 86.5336 11.8866 86.6066 11.9172 86.6743C11.9477 86.742 11.9913 86.803 12.0454 86.8538C12.0996 86.9045 12.1633 86.9441 12.2327 86.9702C12.2986 86.9835 12.3664 86.9835 12.4322 86.9702C12.5468 86.9704 12.6588 86.9357 12.7532 86.8706C12.8476 86.8056 12.92 86.7132 12.9606 86.606L21.1785 65.3056L29.7133 86.606C29.7502 86.7132 29.8228 86.8045 29.919 86.8644C30.0152 86.9243 30.1291 86.9492 30.2416 86.9349C30.3184 86.9559 30.3994 86.9559 30.4763 86.9349C30.5459 86.9044 30.6088 86.8603 30.6613 86.8053C30.7138 86.7503 30.755 86.6854 30.7823 86.6144C30.8096 86.5433 30.8225 86.4676 30.8204 86.3916C30.8183 86.3155 30.801 86.2406 30.7698 86.1713L21.742 63.8488L23.0451 60.4769L33.1178 86.324C33.1751 86.4632 33.2848 86.5743 33.423 86.6336C33.5613 86.6929 33.7171 86.6956 33.8574 86.6412C33.931 86.6202 33.9994 86.5841 34.0583 86.5352C34.1172 86.4863 34.1654 86.4257 34.1996 86.3572C34.2338 86.2887 34.2535 86.2138 34.2572 86.1373C34.261 86.0608 34.2487 85.9843 34.2214 85.9128" fill="white"/>
<path d="M80.9335 57.6724H63.7934C63.644 57.6676 63.4951 57.6932 63.3559 57.7478C63.2166 57.8023 63.0899 57.8846 62.9834 57.9896C62.8758 58.0948 62.7909 58.2211 62.7344 58.3606C62.6778 58.5001 62.6507 58.6498 62.6547 58.8003V86.0925C62.6577 86.1697 62.6759 86.2455 62.7083 86.3156C62.7406 86.3857 62.7864 86.4488 62.8431 86.5012C62.8998 86.5535 62.9662 86.5942 63.0386 86.6208C63.111 86.6475 63.1881 86.6596 63.2652 86.6564C63.4193 86.6569 63.5678 86.599 63.6811 86.4944C63.7943 86.3898 63.8638 86.2462 63.8757 86.0925V74.1323H77.083C77.2363 74.1301 77.3833 74.0713 77.496 73.9673C77.6086 73.8632 77.679 73.7212 77.6934 73.5684C77.6873 73.4116 77.6199 73.2634 77.5057 73.1557C77.3916 73.048 77.2398 72.9895 77.083 72.9927H63.8757V70.643H77.083C77.2373 70.6379 77.3844 70.5766 77.4968 70.4706C77.6092 70.3646 77.6792 70.2212 77.6934 70.0673C77.6904 69.9901 77.6722 69.9143 77.6399 69.8442C77.6075 69.7741 77.5617 69.711 77.505 69.6587C77.4483 69.6063 77.3818 69.5656 77.3094 69.5389C77.237 69.5123 77.1601 69.5002 77.083 69.5033H63.8757V58.9295H81.004C81.16 58.9298 81.3101 58.8703 81.4236 58.7632C81.5371 58.6562 81.6055 58.5097 81.6145 58.3539C81.6031 58.1749 81.5262 58.0064 81.3984 57.8806C81.2706 57.7549 81.1009 57.6808 80.9219 57.6724" fill="white"/>
<path d="M144.001 49.0195H97.9219V95.1331H144.001V49.0195Z" fill="#254787"/>
<path d="M132.097 85.6157L120.921 57.0664L109.779 86.0152C109.726 86.157 109.73 86.3143 109.792 86.4529C109.853 86.5915 109.967 86.7002 110.108 86.7554C110.174 86.7687 110.242 86.7687 110.308 86.7554C110.422 86.754 110.533 86.7187 110.627 86.6538C110.721 86.5889 110.794 86.4975 110.836 86.3911L119.054 65.079L127.589 86.3911C127.626 86.4984 127.698 86.5896 127.794 86.6496C127.891 86.7095 128.005 86.7344 128.117 86.7201C128.194 86.7437 128.275 86.7437 128.352 86.7201C128.493 86.656 128.604 86.5384 128.659 86.3931C128.714 86.2477 128.709 86.0865 128.645 85.9447L119.617 63.6222L120.921 60.2503L130.993 86.0974C131.048 86.2387 131.157 86.3525 131.295 86.4141C131.434 86.4757 131.591 86.4801 131.733 86.4264C131.805 86.4039 131.873 86.3669 131.931 86.3177C131.989 86.2684 132.036 86.2079 132.07 86.1399C132.104 86.0718 132.124 85.9976 132.129 85.9216C132.133 85.8457 132.122 85.7696 132.097 85.698" fill="white"/>
<path d="M144.001 0H97.9219V46.1136H144.001V0Z" fill="#254787"/>
</svg>
