<svg width="160" height="126" viewBox="0 0 160 126" fill="none" xmlns="http://www.w3.org/2000/svg">
<g clip-path="url(#clip0_776:2670)">
<path d="M51.201 54.3867H0V105.577H51.201V54.3867Z" fill="#CCCCCC"/>
<path d="M51.201 0H0V51.1903H51.201V0Z" fill="#CCCCCC"/>
<path d="M105.599 54.3867H54.3984V105.577H105.599V54.3867Z" fill="#999999"/>
<path d="M105.599 0H54.3984V51.1903H105.599V0Z" fill="#999999"/>
<path d="M37.9651 95.2816L25.6 63.5898L13.2223 95.7366C13.1912 95.8132 13.1762 95.8953 13.1779 95.9779C13.1795 96.0606 13.1978 96.1421 13.2318 96.2175C13.2659 96.2928 13.315 96.3604 13.3759 96.4163C13.4369 96.4722 13.5087 96.5152 13.5867 96.5425C13.6591 96.5618 13.7352 96.5618 13.8076 96.5425C13.9375 96.5408 14.0635 96.5003 14.1701 96.4261C14.2767 96.352 14.3589 96.2477 14.4057 96.1265L23.5069 72.4812L32.9853 96.1265C33.0261 96.2452 33.1066 96.3461 33.2132 96.4124C33.3197 96.4787 33.4455 96.5063 33.57 96.4905C33.6791 96.4987 33.7886 96.4775 33.8868 96.4291C33.9849 96.3806 34.0682 96.3067 34.128 96.215C34.1878 96.1234 34.2222 96.0174 34.227 95.908C34.2318 95.7987 34.2068 95.6901 34.1553 95.5935L24.131 70.7654L25.574 67.0216L36.769 95.6845C36.8327 95.8387 36.953 95.9625 37.1055 96.0302C37.2579 96.098 37.4308 96.1046 37.5879 96.0486C37.6711 96.0256 37.7482 95.9853 37.8146 95.9303C37.881 95.8753 37.9352 95.8068 37.9733 95.7295C38.0114 95.6521 38.0325 95.5676 38.0355 95.4814C38.0386 95.3953 38.0236 95.3095 37.9911 95.2296" fill="white"/>
<path d="M89.9338 64.008H70.8863C70.5489 64.0025 70.2222 64.1283 69.9759 64.359C69.8551 64.4768 69.7606 64.6186 69.6979 64.7754C69.6352 64.9321 69.6059 65.1003 69.6121 65.2689V95.6218C69.6155 95.7071 69.6354 95.791 69.6712 95.8686C69.707 95.9462 69.7582 96.016 69.821 96.0739C69.8838 96.1319 69.9573 96.1768 70.0375 96.2063C70.1177 96.2358 70.2029 96.2492 70.2883 96.2457C70.4603 96.2464 70.6261 96.1829 70.7536 96.0674C70.8811 95.9519 70.9609 95.793 70.9771 95.6218V82.2847H85.6435C85.8162 82.285 85.9824 82.2191 86.1082 82.1007C86.2339 81.9822 86.3096 81.8202 86.3196 81.6477C86.3162 81.5624 86.2957 81.4785 86.2599 81.4009C86.2241 81.3233 86.1735 81.2535 86.1107 81.1956C86.0479 81.1376 85.9744 81.0926 85.8942 81.0632C85.814 81.0337 85.7288 81.0203 85.6435 81.0238H70.9771V78.424H85.6435C85.8141 78.4245 85.9783 78.3604 86.1037 78.2447C86.2291 78.129 86.3064 77.9701 86.3196 77.8C86.3179 77.7135 86.2988 77.6283 86.2637 77.5492C86.2287 77.4701 86.1781 77.3988 86.1152 77.3395C86.0522 77.2802 85.9784 77.234 85.8974 77.2037C85.8164 77.1734 85.7299 77.1596 85.6435 77.163H70.9771V65.4639H90.0252C90.1959 65.4644 90.3601 65.4004 90.4855 65.2846C90.6109 65.1689 90.6882 65.0101 90.7013 64.8399C90.6103 64.333 90.2978 64.073 89.9338 64.073" fill="white"/>
<path d="M160.014 54.3867H108.812V105.577H160.014V54.3867Z" fill="#666666"/>
<path d="M146.777 95.0628L134.399 63.3711L122.034 95.5048C122.001 95.5821 121.984 95.6655 121.984 95.7496C121.985 95.8337 122.003 95.9168 122.037 95.9937C122.071 96.0706 122.121 96.1396 122.183 96.1964C122.245 96.2532 122.319 96.2965 122.398 96.3237C122.471 96.3384 122.546 96.3384 122.619 96.3237C122.746 96.324 122.87 96.2856 122.975 96.2136C123.079 96.1416 123.16 96.0394 123.205 95.9207L132.306 72.2754L141.784 95.9207C141.826 96.038 141.907 96.1376 142.013 96.2036C142.119 96.2696 142.245 96.2981 142.369 96.2847C142.458 96.3097 142.553 96.3097 142.642 96.2847C142.719 96.2509 142.789 96.2022 142.847 96.1413C142.905 96.0804 142.951 96.0086 142.981 95.93C143.011 95.8514 143.025 95.7677 143.023 95.6835C143.02 95.5994 143.001 95.5165 142.967 95.4398L132.943 70.6116L134.386 66.8548L145.581 95.4528C145.642 95.6091 145.762 95.735 145.915 95.8032C146.069 95.8713 146.243 95.8762 146.4 95.8168C146.48 95.7919 146.554 95.7509 146.619 95.6964C146.683 95.642 146.735 95.5751 146.773 95.4998C146.811 95.4245 146.833 95.3424 146.838 95.2583C146.843 95.1743 146.831 95.0901 146.803 95.0109" fill="white"/>
<path d="M160.014 0H108.812V51.1903H160.014V0Z" fill="#666666"/>
<path d="M9.49072 125.739H8.39877L7.09859 122.372H2.32703L1.02686 125.739H-0.0390625L4.18652 115.027H5.29116L9.49072 125.739ZM4.77122 115.989L2.65208 121.553H6.8256L4.77122 115.989Z" fill="#CCCCCC"/>
<path d="M16.8897 125.741H16.0574V124.22C15.8502 124.763 15.4742 125.225 14.9851 125.539C14.4961 125.852 13.9199 126.001 13.3402 125.962C11.2599 125.962 9.93359 124.389 9.93359 121.881C9.93359 119.372 11.2339 117.799 13.3142 117.799C13.8791 117.768 14.4398 117.911 14.921 118.209C15.4022 118.506 15.7804 118.944 16.0053 119.463V115.121H16.8897V125.741ZM10.8567 121.842C10.8567 123.882 11.8578 125.182 13.457 125.182C15.0562 125.182 16.0574 123.882 16.0574 121.855C16.0574 120.191 15.2903 118.553 13.457 118.553C11.8968 118.553 10.8567 119.853 10.8567 121.842Z" fill="#CCCCCC"/>
<path d="M21.8302 125.74H20.8424L17.9297 118.031H18.9175L20.6729 122.724C20.9199 123.413 21.1413 124.115 21.3623 124.817C21.5834 124.089 21.8041 123.374 22.0512 122.646L23.6897 118.031H24.6128L21.8302 125.74Z" fill="#CCCCCC"/>
<path d="M32.1009 125.702C31.8676 125.786 31.6206 125.825 31.3727 125.819C30.4756 125.819 30.3849 125.117 30.3849 124.402C30.0986 124.897 29.6811 125.303 29.1787 125.576C28.6763 125.849 28.1086 125.978 27.5376 125.949C26.0034 125.949 25.0801 125.143 25.0801 123.791C25.0801 122.439 26.0161 121.594 27.8753 121.399C28.632 121.418 29.3846 121.281 30.0859 120.996C30.2679 120.866 30.3456 120.658 30.3456 120.268C30.3456 118.968 29.5787 118.591 28.3826 118.591C28.1239 118.553 27.8599 118.572 27.6093 118.647C27.3588 118.722 27.1276 118.85 26.9319 119.023C26.7363 119.197 26.581 119.411 26.4768 119.651C26.3725 119.89 26.3216 120.15 26.3282 120.411H25.4438C25.4383 120.029 25.5176 119.651 25.6749 119.302C25.8323 118.954 26.0644 118.645 26.3549 118.397C26.6453 118.149 26.9869 117.968 27.3554 117.866C27.7239 117.765 28.1101 117.746 28.4867 117.811C30.1899 117.811 31.2559 118.578 31.2559 120.034V124.22C31.2559 124.675 31.2558 125 31.7498 125C31.8658 125.022 31.985 125.022 32.1009 125V125.702ZM28.2918 122.075C27.3427 122.218 26.0425 122.439 26.0425 123.7C26.0425 124.597 26.7181 125.169 27.7712 125.169C28.1002 125.197 28.4322 125.158 28.7451 125.052C29.058 124.947 29.3452 124.777 29.5894 124.555C29.8337 124.333 30.0294 124.062 30.164 123.761C30.2986 123.459 30.3692 123.133 30.3716 122.803V121.503C30.0725 121.828 29.332 121.906 28.3178 122.036" fill="#CCCCCC"/>
<path d="M33.9736 119.487C34.1949 118.97 34.5684 118.532 35.0446 118.233C35.5207 117.933 36.0773 117.786 36.6393 117.81C36.9955 117.779 37.3542 117.827 37.6893 117.952C38.0245 118.076 38.3272 118.274 38.5762 118.53C38.8253 118.787 39.0145 119.096 39.1292 119.434C39.2439 119.773 39.2816 120.133 39.2397 120.488V125.688H38.3166V120.735C38.3166 119.149 37.5365 118.59 36.3923 118.59C35.0142 118.59 34.0129 119.526 34.0129 121.515V125.688H33.0898V117.979H33.9609L33.9736 119.487Z" fill="#CCCCCC"/>
<path d="M44.1286 125.962C42.0223 125.962 40.6445 124.389 40.6445 121.958C40.6445 119.527 42.0357 117.798 44.168 117.798C44.5466 117.768 44.9268 117.813 45.2878 117.931C45.6488 118.049 45.9828 118.237 46.2706 118.485C46.5584 118.733 46.7944 119.035 46.9645 119.375C47.1346 119.714 47.2359 120.084 47.2622 120.463H46.3258C46.2795 119.933 46.0309 119.442 45.6313 119.091C45.2318 118.74 44.7121 118.556 44.1807 118.578C42.5944 118.578 41.5803 119.878 41.5803 121.88C41.5803 123.882 42.5553 125.182 44.0765 125.182C44.372 125.188 44.6663 125.137 44.9419 125.03C45.2174 124.924 45.469 124.764 45.6827 124.56C45.8964 124.356 46.0675 124.112 46.1868 123.841C46.3061 123.571 46.3711 123.28 46.3779 122.985H47.301C47.2606 123.797 46.9057 124.562 46.3112 125.118C45.7167 125.674 44.9296 125.976 44.1159 125.962" fill="#CCCCCC"/>
<path d="M51.7331 126.002C49.6268 126.002 48.2617 124.429 48.2617 121.972C48.2617 119.515 49.6921 117.812 51.7204 117.812C53.9437 117.812 55.0356 119.71 55.0356 121.842V122.115H49.1327C49.1327 123.727 49.8608 125.235 51.7331 125.235C52.303 125.254 52.8588 125.055 53.2866 124.678C53.7143 124.301 53.9817 123.775 54.0344 123.207H54.9315C54.8466 123.994 54.4669 124.72 53.8687 125.238C53.2706 125.757 52.4982 126.029 51.7071 126.002H51.7331ZM51.7071 118.592C50.0688 118.592 49.4059 119.892 49.2369 121.348H54.1385C54.0345 119.632 53.1243 118.592 51.7071 118.592Z" fill="#CCCCCC"/>
<path d="M66.8281 115.937H61.1463V119.772H66.191V120.643H61.1463V125.739H60.1582V115.066H66.8281V115.937Z" fill="#CCCCCC"/>
<path d="M68.8059 116.561H67.8828V115.027H68.8059V116.561ZM68.8059 125.739H67.8828V118.043H68.8059V125.739Z" fill="#CCCCCC"/>
<path d="M71.4452 119.489C71.6701 118.975 72.0444 118.542 72.52 118.245C72.9957 117.948 73.5501 117.802 74.1103 117.825C74.4593 117.795 74.8105 117.842 75.1394 117.962C75.4684 118.083 75.7672 118.273 76.0149 118.521C76.2625 118.768 76.4534 119.067 76.5736 119.396C76.6938 119.725 76.7403 120.076 76.7107 120.425V125.624H75.7876V120.672C75.7876 119.086 75.0075 118.54 73.8634 118.54C72.4852 118.54 71.4973 119.463 71.4973 121.452V125.624H70.5742V117.916H71.4319L71.4452 119.489Z" fill="#CCCCCC"/>
<path d="M85.0713 125.7C84.8332 125.784 84.5818 125.823 84.3298 125.817C83.4327 125.817 83.3546 125.116 83.3546 124.414C83.0634 124.903 82.6448 125.304 82.1433 125.574C81.6419 125.844 81.0764 125.973 80.5073 125.947C78.9601 125.947 78.0371 125.141 78.0371 123.79C78.0371 122.438 78.9734 121.606 80.8457 121.411C81.5976 121.423 82.3444 121.286 83.0429 121.008C83.238 120.865 83.3026 120.657 83.3026 120.267C83.3026 118.967 82.5358 118.603 81.3396 118.603C81.0809 118.565 80.8169 118.584 80.5664 118.659C80.3158 118.733 80.0847 118.862 79.889 119.035C79.6933 119.209 79.5381 119.423 79.4338 119.662C79.3295 119.902 79.2787 120.162 79.2852 120.423H78.4009C78.3953 120.041 78.4746 119.662 78.632 119.314C78.7894 118.966 79.0214 118.657 79.3119 118.409C79.6024 118.16 79.944 117.979 80.3124 117.878C80.6809 117.777 81.0672 117.758 81.4437 117.823C83.147 117.823 84.213 118.59 84.213 120.046V124.219C84.213 124.687 84.2128 124.998 84.7069 124.998C84.8272 125.02 84.9509 125.02 85.0713 124.998V125.7ZM81.2488 122.087C80.2997 122.217 79.0122 122.438 79.0122 123.699C79.0122 124.596 79.6884 125.167 80.7416 125.167C81.0706 125.196 81.4019 125.157 81.7148 125.051C82.0277 124.945 82.3155 124.776 82.5598 124.554C82.8041 124.332 82.9997 124.061 83.1344 123.76C83.269 123.458 83.3396 123.132 83.3419 122.802V121.502C83.0559 121.84 82.3017 121.905 81.2876 122.048" fill="#CCCCCC"/>
<path d="M86.9169 119.486C87.144 118.972 87.5208 118.538 87.9987 118.241C88.4766 117.944 89.0333 117.798 89.5954 117.822C89.9448 117.79 90.297 117.836 90.627 117.955C90.957 118.074 91.2568 118.265 91.505 118.513C91.7531 118.761 91.9436 119.061 92.063 119.391C92.1824 119.721 92.2277 120.073 92.1957 120.422V125.622H91.2726V120.669C91.2726 119.083 90.5052 118.537 89.3611 118.537C87.9829 118.537 86.9817 119.46 86.9817 121.449V125.622H86.0586V117.913H86.9169V119.486Z" fill="#CCCCCC"/>
<path d="M97.0583 125.961C94.952 125.961 93.5742 124.388 93.5742 121.97C93.5742 119.552 94.9654 117.81 97.0976 117.81C97.8519 117.749 98.6 117.987 99.1793 118.474C99.7587 118.961 100.123 119.657 100.192 120.41H99.2428C99.1964 119.884 98.9492 119.396 98.5521 119.047C98.155 118.698 97.6384 118.516 97.1103 118.538C95.5241 118.538 94.51 119.838 94.51 121.84C94.51 123.842 95.485 125.129 97.0062 125.129C97.6019 125.139 98.1777 124.914 98.6086 124.503C99.0395 124.092 99.2905 123.527 99.3076 122.932H100.231C100.19 123.745 99.8354 124.509 99.2409 125.065C98.6464 125.621 97.8592 125.923 97.0456 125.909" fill="#CCCCCC"/>
<path d="M104.574 126.001C102.481 126.001 101.115 124.428 101.115 121.984C101.115 119.54 102.545 117.824 104.561 117.824C106.797 117.824 107.876 119.722 107.876 121.841V122.114H102.064C102.064 123.739 102.792 125.234 104.665 125.234C105.233 125.247 105.785 125.045 106.212 124.669C106.638 124.294 106.907 123.771 106.966 123.206H107.863C107.778 123.995 107.397 124.723 106.796 125.241C106.195 125.76 105.419 126.032 104.626 126.001H104.574ZM104.626 118.604C102.988 118.604 102.324 119.904 102.155 121.347H107.044C106.94 119.644 106.03 118.604 104.626 118.604Z" fill="#CCCCCC"/>
<path d="M121.682 125.741H120.643L119.342 122.387H114.571L113.271 125.741H112.191L116.417 115.043H117.522L121.682 125.741ZM116.963 116.005L114.857 121.556H119.017L116.963 116.005Z" fill="#CCCCCC"/>
<path d="M123.387 115.066H122.477V125.739H123.387V115.066Z" fill="#CCCCCC"/>
<path d="M126.092 115.066H125.182V125.739H126.092V115.066Z" fill="#CCCCCC"/>
<path d="M128.796 116.561H127.873V115.027H128.796V116.561ZM128.796 125.739H127.873V118.043H128.796V125.739Z" fill="#CCCCCC"/>
<path d="M137.182 125.7C136.948 125.785 136.701 125.824 136.453 125.817C135.556 125.817 135.465 125.116 135.465 124.414C135.177 124.903 134.761 125.304 134.261 125.575C133.762 125.845 133.198 125.974 132.631 125.947C131.084 125.947 130.16 125.141 130.16 123.79C130.16 122.438 131.096 121.606 132.969 121.411C133.721 121.423 134.467 121.286 135.166 121.008C135.266 120.915 135.342 120.798 135.388 120.669C135.433 120.54 135.446 120.402 135.426 120.267C135.426 118.967 134.672 118.603 133.463 118.603C133.204 118.565 132.941 118.584 132.69 118.659C132.439 118.733 132.208 118.862 132.012 119.035C131.816 119.209 131.661 119.423 131.557 119.662C131.453 119.902 131.402 120.162 131.408 120.423H130.525C130.519 120.041 130.598 119.662 130.755 119.314C130.912 118.966 131.144 118.657 131.435 118.409C131.725 118.16 132.067 117.979 132.435 117.878C132.804 117.777 133.19 117.758 133.567 117.823C135.27 117.823 136.336 118.59 136.336 120.046V124.219C136.336 124.687 136.336 124.998 136.831 124.998C136.946 125.021 137.066 125.021 137.182 124.998V125.7ZM133.372 122.087C132.423 122.217 131.135 122.438 131.135 123.699C131.135 124.596 131.798 125.167 132.865 125.167C133.194 125.196 133.525 125.157 133.838 125.051C134.151 124.945 134.439 124.776 134.683 124.554C134.927 124.332 135.123 124.061 135.257 123.76C135.392 123.458 135.463 123.132 135.465 122.802V121.502C135.179 121.84 134.425 121.905 133.411 122.048" fill="#CCCCCC"/>
<path d="M139.041 119.489C139.266 118.975 139.641 118.542 140.116 118.245C140.592 117.948 141.146 117.802 141.707 117.825C142.056 117.795 142.407 117.842 142.736 117.962C143.065 118.083 143.363 118.273 143.611 118.521C143.858 118.768 144.049 119.067 144.169 119.396C144.289 119.725 144.337 120.076 144.307 120.425V125.624H143.384V120.672C143.384 119.086 142.603 118.54 141.459 118.54C140.094 118.54 139.093 119.463 139.093 121.452V125.624H138.17V117.916H139.028L139.041 119.489Z" fill="#CCCCCC"/>
<path d="M149.246 125.961C147.14 125.961 145.762 124.388 145.762 121.97C145.762 119.552 147.153 117.81 149.285 117.81C150.039 117.749 150.788 117.987 151.367 118.474C151.947 118.961 152.311 119.657 152.38 120.41H151.431C151.385 119.884 151.137 119.396 150.74 119.047C150.342 118.698 149.826 118.516 149.298 118.538C147.712 118.538 146.698 119.838 146.698 121.84C146.698 123.842 147.673 125.129 149.194 125.129C149.79 125.139 150.366 124.914 150.797 124.503C151.228 124.092 151.479 123.527 151.496 122.932H152.419C152.378 123.745 152.024 124.509 151.429 125.065C150.835 125.621 150.047 125.923 149.234 125.909" fill="#CCCCCC"/>
<path d="M156.71 126.001C154.604 126.001 153.238 124.428 153.238 121.984C153.238 119.54 154.669 117.824 156.684 117.824C158.921 117.824 159.999 119.722 159.999 121.841V122.114H154.175C154.175 123.739 154.916 125.234 156.775 125.234C157.343 125.247 157.896 125.045 158.322 124.669C158.749 124.294 159.018 123.771 159.076 123.206H159.973C159.888 123.993 159.509 124.718 158.911 125.237C158.313 125.755 157.54 126.028 156.749 126.001H156.71ZM156.749 118.604C155.111 118.604 154.447 119.904 154.265 121.347H159.167C159.063 119.644 158.153 118.604 156.749 118.604Z" fill="#CCCCCC"/>
</g>
<defs>
<clipPath id="clip0_776:2670">
<rect width="160" height="126" fill="white"/>
</clipPath>
</defs>
</svg>
