<svg xmlns:dc="http://purl.org/dc/elements/1.1/" xmlns:cc="http://creativecommons.org/ns#" xmlns:rdf="http://www.w3.org/1999/02/22-rdf-syntax-ns#" xmlns:svg="http://www.w3.org/2000/svg" xmlns="http://www.w3.org/2000/svg" xmlns:sodipodi="http://sodipodi.sourceforge.net/DTD/sodipodi-0.dtd" xmlns:inkscape="http://www.inkscape.org/namespaces/inkscape" version="1.1" id="svg7222" xml:space="preserve" width="290" height="207.53333" viewBox="0 0 290 207.53333" sodipodi:docname="Maze_Primary_White_RGB.svg" inkscape:version="0.92.4 (5da689c313, 2019-01-14)"><metadata id="metadata7228"><rdf:RDF><cc:Work rdf:about=""><dc:format>image/svg+xml</dc:format><dc:type rdf:resource="http://purl.org/dc/dcmitype/StillImage"/><dc:title/></cc:Work></rdf:RDF></metadata><defs id="defs7226"><clipPath clipPathUnits="userSpaceOnUse" id="clipPath7238"><path d="M 0,155.65 H 1247.754 V 0 H 0 Z" id="path7236" inkscape:connector-curvature="0"/></clipPath></defs><sodipodi:namedview pagecolor="#ffffff" bordercolor="#666666" borderopacity="1" objecttolerance="10" gridtolerance="10" guidetolerance="10" inkscape:pageopacity="0" inkscape:pageshadow="2" inkscape:window-width="640" inkscape:window-height="480" id="namedview7224" showgrid="false" inkscape:zoom="0.23442195" inkscape:cx="831.83337" inkscape:cy="103.76666" inkscape:window-x="0" inkscape:window-y="0" inkscape:window-maximized="0" inkscape:current-layer="g7230"/><g id="g7230" inkscape:groupmode="layer" inkscape:label="Maze_Primary_White_RGB" transform="matrix(1.3333333,0,0,-1.3333333,0,207.53333)"><g id="g7232"><g id="g7234" clip-path="url(#clipPath7238)"><g id="g7240" transform="translate(109.1222,20.2842)"><path d="m 0,0 -41.232,41.23 18.579,18.58 17.815,-17.816 -14.435,-14.435 4.949,-4.95 14.436,14.436 14.436,-14.436 4.949,4.95 L 5.061,41.994 22.846,59.779 41.313,41.313 Z M -61.319,61.317 -42.74,79.896 -27.603,64.759 -46.182,46.181 Z M 46.262,46.262 27.795,64.729 42.963,79.896 61.43,61.43 Z M 43.004,125.466 99.466,69.004 63.417,32.955 c -1.061,-1.059 -2.788,-1.06 -3.849,0 l -8.356,8.357 15.167,15.167 6.159,-6.158 4.949,4.95 L 42.963,89.796 22.846,69.678 9.153,83.371 4.204,78.421 17.896,64.729 0.112,46.944 -17.704,64.759 Z m 11.615,-97.46 c 1.896,-1.896 4.384,-2.843 6.874,-2.843 2.488,0 4.979,0.947 6.873,2.843 l 41,40.998 -66.362,66.362 -65.657,-65.657 -20.087,20.087 -34.525,-34.525 4.95,-4.95 6.046,6.047 15.137,-15.138 -8.193,-8.193 c -1.061,-1.059 -2.788,-1.059 -3.849,-10e-4 l -36.048,36.05 56.38,56.38 33.933,-33.932 4.949,4.95 -38.882,38.882 -66.28,-66.28 40.999,-41 c 3.791,-3.787 9.958,-3.788 13.747,0.001 l 8.194,8.194 L 0,-9.9 46.263,36.362 Z" style="fill:#ffffff;fill-opacity:1;fill-rule:nonzero;stroke:none" id="path7242" inkscape:connector-curvature="0"/></g><g id="g7244" transform="translate(49.879,7.792)"><path d="m 0,0 c -1.061,-1.06 -2.788,-1.062 -3.849,-0.001 l -36.048,36.05 13.732,13.733 -4.949,4.949 -18.684,-18.682 41,-41 c 1.896,-1.894 4.384,-2.841 6.873,-2.841 2.489,0 4.98,0.947 6.874,2.842 l 26.958,26.959 -4.949,4.949 z" style="fill:#ffffff;fill-opacity:1;fill-rule:nonzero;stroke:none" id="path7246" inkscape:connector-curvature="0"/></g><g id="g7248" transform="translate(194.6925,57.5742)"><path d="m 0,0 13.732,-13.733 -36.048,-36.049 c -1.061,-1.06 -2.788,-1.061 -3.849,-0.001 l -26.958,26.959 -4.949,-4.949 26.958,-26.96 c 1.895,-1.894 4.384,-2.841 6.873,-2.841 2.489,0 4.979,0.947 6.874,2.842 l 41,40.999 L 4.949,4.949 Z" style="fill:#ffffff;fill-opacity:1;fill-rule:nonzero;stroke:none" id="path7250" inkscape:connector-curvature="0"/></g>
</g></g></g></svg>