<?xml version="1.0" encoding="UTF-8" standalone="no"?>
<!-- Created with Inkscape (http://www.inkscape.org/) -->

<svg
   xmlns:dc="http://purl.org/dc/elements/1.1/"
   xmlns:cc="http://creativecommons.org/ns#"
   xmlns:rdf="http://www.w3.org/1999/02/22-rdf-syntax-ns#"
   xmlns:svg="http://www.w3.org/2000/svg"
   xmlns="http://www.w3.org/2000/svg"
   xmlns:sodipodi="http://sodipodi.sourceforge.net/DTD/sodipodi-0.dtd"
   xmlns:inkscape="http://www.inkscape.org/namespaces/inkscape"
   version="1.1"
   id="svg4590"
   xml:space="preserve"
   width="1663.6667"
   height="207.53333"
   viewBox="0 0 1663.6667 207.53333"
   sodipodi:docname="Maze_Primary_Blue_RGB.svg"
   inkscape:version="0.92.4 (5da689c313, 2019-01-14)"><metadata
     id="metadata4596"><rdf:RDF><cc:Work
         rdf:about=""><dc:format>image/svg+xml</dc:format><dc:type
           rdf:resource="http://purl.org/dc/dcmitype/StillImage" /><dc:title></dc:title></cc:Work></rdf:RDF></metadata><defs
     id="defs4594"><clipPath
       clipPathUnits="userSpaceOnUse"
       id="clipPath4606"><path
         d="M 0,155.65 H 1247.754 V 0 H 0 Z"
         id="path4604"
         inkscape:connector-curvature="0" /></clipPath></defs><sodipodi:namedview
     pagecolor="#ffffff"
     bordercolor="#666666"
     borderopacity="1"
     objecttolerance="10"
     gridtolerance="10"
     guidetolerance="10"
     inkscape:pageopacity="0"
     inkscape:pageshadow="2"
     inkscape:window-width="1366"
     inkscape:window-height="705"
     id="namedview4592"
     showgrid="false"
     inkscape:zoom="0.32472223"
     inkscape:cx="915.28195"
     inkscape:cy="300.84091"
     inkscape:window-x="1912"
     inkscape:window-y="305"
     inkscape:window-maximized="1"
     inkscape:current-layer="g4598" /><g
     id="g4598"
     inkscape:groupmode="layer"
     inkscape:label="Maze_Primary_Blue_RGB"
     transform="matrix(1.3333333,0,0,-1.3333333,0,207.53333)"><g
       id="g4600"><g
         id="g4602"
         clip-path="url(#clipPath4606)"><g
           id="g4608"
           transform="translate(109.1222,20.2842)"><path
             d="m 0,0 -41.232,41.23 18.579,18.58 17.815,-17.816 -14.435,-14.435 4.949,-4.95 14.436,14.436 14.436,-14.436 4.949,4.95 L 5.061,41.994 22.846,59.779 41.313,41.313 Z M -61.319,61.317 -42.74,79.896 -27.603,64.759 -46.182,46.181 Z M 46.262,46.262 27.795,64.729 42.963,79.896 61.43,61.43 Z M 43.004,125.466 99.466,69.004 63.417,32.955 c -1.061,-1.059 -2.788,-1.06 -3.849,0 l -8.356,8.357 15.167,15.167 6.159,-6.158 4.949,4.95 L 42.963,89.796 22.846,69.678 9.153,83.371 4.204,78.421 17.896,64.729 0.112,46.944 -17.704,64.759 Z m 11.615,-97.46 c 1.896,-1.896 4.384,-2.843 6.874,-2.843 2.488,0 4.979,0.947 6.873,2.843 l 41,40.998 -66.362,66.362 -65.657,-65.657 -20.087,20.087 -34.525,-34.525 4.95,-4.95 6.046,6.047 15.137,-15.138 -8.193,-8.193 c -1.061,-1.059 -2.788,-1.059 -3.849,-10e-4 l -36.048,36.05 56.38,56.38 33.933,-33.932 4.949,4.95 -38.882,38.882 -66.28,-66.28 40.999,-41 c 3.791,-3.787 9.958,-3.788 13.747,0.001 l 8.194,8.194 L 0,-9.9 46.263,36.362 Z"
             style="fill:#00263e;fill-opacity:1;fill-rule:nonzero;stroke:none"
             id="path4610"
             inkscape:connector-curvature="0" /></g><g
           id="g4612"
           transform="translate(49.879,7.792)"><path
             d="m 0,0 c -1.061,-1.06 -2.788,-1.062 -3.849,-0.001 l -36.048,36.05 13.732,13.733 -4.949,4.949 -18.684,-18.682 41,-41 c 1.896,-1.894 4.384,-2.841 6.873,-2.841 2.489,0 4.98,0.947 6.874,2.842 l 26.958,26.959 -4.949,4.949 z"
             style="fill:#00263e;fill-opacity:1;fill-rule:nonzero;stroke:none"
             id="path4614"
             inkscape:connector-curvature="0" /></g><g
           id="g4616"
           transform="translate(194.6925,57.5742)"><path
             d="m 0,0 13.732,-13.733 -36.048,-36.049 c -1.061,-1.06 -2.788,-1.061 -3.849,-0.001 l -26.958,26.959 -4.949,-4.949 26.958,-26.96 c 1.895,-1.894 4.384,-2.841 6.873,-2.841 2.489,0 4.979,0.947 6.874,2.842 l 41,40.999 L 4.949,4.949 Z"
             style="fill:#00263e;fill-opacity:1;fill-rule:nonzero;stroke:none"
             id="path4618"
             inkscape:connector-curvature="0" /></g><g
           id="g4620"
           transform="translate(366.8438,41.5205)"><path
             d="M 0,0 V 35.066 L -16.416,0 h -8.856 L -41.688,34.778 V 0 h -10.585 v 51.411 h 13.392 L -20.593,12.385 -2.376,51.411 H 10.729 V 0 Z"
             style="fill:#00263e;fill-opacity:1;fill-rule:nonzero;stroke:none"
             id="path4622"
             inkscape:connector-curvature="0" /></g><g
           id="g4624"
           transform="translate(429.1251,82.9224)"><path
             d="M 0,0 -9.072,-20.593 H 9.072 Z m 18.073,-41.402 -5.112,11.664 H -12.96 L -18,-41.402 H -29.881 L -6.336,10.009 H 6.696 l 23.545,-51.411 z"
             style="fill:#00263e;fill-opacity:1;fill-rule:nonzero;stroke:none"
             id="path4626"
             inkscape:connector-curvature="0" /></g><g
           id="g4628"
           transform="translate(477.006,41.5205)"><path
             d="M 0,0 V 8.28 L 32.401,41.978 H 0.648 v 9.433 H 47.306 V 43.13 L 14.904,9.433 h 33.77 l 0,-9.433 z"
             style="fill:#00263e;fill-opacity:1;fill-rule:nonzero;stroke:none"
             id="path4630"
             inkscape:connector-curvature="0" /></g><g
           id="g4632"
           transform="translate(548.0714,41.5205)"><path
             d="M 0,0 V 51.411 H 43.058 V 41.978 H 11.521 V 31.177 H 41.545 V 21.744 H 11.521 V 9.433 H 44.642 V 0 Z"
             style="fill:#00263e;fill-opacity:1;fill-rule:nonzero;stroke:none"
             id="path4634"
             inkscape:connector-curvature="0" /></g><g
           id="g4636"
           transform="translate(672.0323,41.5205)"><path
             d="M 0,0 V 24.48 H -36.865 V 0 h -4.752 v 51.411 h 4.752 V 28.801 H 0 v 22.61 H 4.752 V 0 Z"
             style="fill:#00263e;fill-opacity:1;fill-rule:nonzero;stroke:none"
             id="path4638"
             inkscape:connector-curvature="0" /></g><g
           id="g4640"
           transform="translate(749.5782,67.2256)"><path
             d="m 0,0 c 0,7.104 -2.041,12.684 -6.12,16.741 -4.081,4.055 -9.745,6.084 -16.992,6.084 -4.658,0 -8.713,-0.889 -12.169,-2.664 -3.456,-1.777 -6.133,-4.392 -8.029,-7.848 C -45.206,8.857 -46.153,4.752 -46.153,0 c 0,-7.104 2.04,-12.686 6.12,-16.741 4.079,-4.057 9.744,-6.084 16.992,-6.084 4.655,0 8.713,0.888 12.169,2.664 3.456,1.775 6.131,4.392 8.028,7.848 C -0.948,-8.856 0,-4.753 0,0 m 4.968,0 c 0,-5.328 -1.116,-10.021 -3.348,-14.077 -2.232,-4.057 -5.461,-7.225 -9.684,-9.504 -4.225,-2.279 -9.216,-3.42 -14.977,-3.42 -5.568,0 -10.465,1.068 -14.688,3.204 -4.225,2.135 -7.513,5.243 -9.865,9.324 -2.352,4.079 -3.527,8.904 -3.527,14.473 0,5.329 1.115,10.02 3.348,14.077 2.232,4.055 5.46,7.223 9.684,9.504 4.223,2.279 9.216,3.42 14.977,3.42 5.567,0 10.464,-1.069 14.687,-3.204 4.224,-2.136 7.513,-5.245 9.864,-9.324 C 3.791,10.392 4.968,5.568 4.968,0"
             style="fill:#00263e;fill-opacity:1;fill-rule:nonzero;stroke:none"
             id="path4642"
             inkscape:connector-curvature="0" /></g><g
           id="g4644"
           transform="translate(813.6593,80.4741)"><path
             d="m 0,0 c -1.297,3.456 -3.289,5.928 -5.977,7.416 -2.688,1.487 -6.504,2.232 -11.448,2.232 -5.569,0 -9.828,-0.84 -12.78,-2.52 -2.952,-1.681 -4.429,-4.104 -4.429,-7.272 0,-2.833 1.045,-4.98 3.133,-6.444 2.088,-1.465 5.627,-2.557 10.62,-3.276 l 9.216,-1.297 c 6.049,-0.864 10.452,-2.448 13.213,-4.752 2.76,-2.304 4.139,-5.545 4.139,-9.72 0,-4.705 -1.908,-8.317 -5.723,-10.836 -3.817,-2.521 -9.253,-3.781 -16.309,-3.781 -14.881,0 -23.041,5.064 -24.48,15.193 h 4.895 c 0.768,-3.793 2.737,-6.588 5.905,-8.389 3.168,-1.8 7.728,-2.7 13.68,-2.7 5.663,0 9.937,0.888 12.817,2.664 2.88,1.775 4.32,4.416 4.32,7.921 0,2.88 -1.057,5.1 -3.168,6.66 -2.113,1.56 -5.665,2.7 -10.657,3.42 l -8.208,1.152 c -6.433,0.912 -11.077,2.459 -13.932,4.645 -2.857,2.184 -4.284,5.316 -4.284,9.396 0,4.416 1.943,7.859 5.832,10.333 3.888,2.472 9.288,3.708 16.2,3.708 6.239,0 11.076,-0.997 14.509,-2.988 C 0.515,8.772 2.999,5.473 4.536,0.864 Z"
             style="fill:#00263e;fill-opacity:1;fill-rule:nonzero;stroke:none"
             id="path4646"
             inkscape:connector-curvature="0" /></g><g
           id="g4648"
           transform="translate(864.2032,66.001)"><path
             d="m 0,0 c 9.983,0 14.977,3.865 14.977,11.593 0,7.489 -4.897,11.233 -14.689,11.233 H -18.433 V 0 Z M -23.185,-24.48 V 26.93 H 0.72 c 6.288,0 11.063,-1.321 14.329,-3.961 3.263,-2.639 4.895,-6.456 4.895,-11.448 0,-10.417 -6.696,-15.625 -20.088,-15.625 H -18.433 V -24.48 Z"
             style="fill:#00263e;fill-opacity:1;fill-rule:nonzero;stroke:none"
             id="path4650"
             inkscape:connector-curvature="0" /></g><path
           d="m 904.452,92.931 h 4.752 V 41.52 h -4.752 z"
           style="fill:#00263e;fill-opacity:1;fill-rule:nonzero;stroke:none"
           id="path4652"
           inkscape:connector-curvature="0" /><g
           id="g4654"
           transform="translate(949.7413,41.5205)"><path
             d="m 0,0 v 47.306 h -21.961 v 4.105 H 26.713 V 47.306 H 4.752 L 4.752,0 Z"
             style="fill:#00263e;fill-opacity:1;fill-rule:nonzero;stroke:none"
             id="path4656"
             inkscape:connector-curvature="0" /></g><g
           id="g4658"
           transform="translate(1007.4865,87.8901)"><path
             d="m 0,0 -12.816,-26.641 h 25.632 z m 22.321,-46.37 -7.56,15.624 h -29.449 l -7.56,-15.624 H -27.36 L -2.376,5.041 H 2.593 L 27.577,-46.37 Z"
             style="fill:#00263e;fill-opacity:1;fill-rule:nonzero;stroke:none"
             id="path4660"
             inkscape:connector-curvature="0" /></g><g
           id="g4662"
           transform="translate(1053.712,41.5205)"><path
             d="M 0,0 V 51.411 H 4.752 V 4.104 H 39.745 L 38.81,0 Z"
             style="fill:#00263e;fill-opacity:1;fill-rule:nonzero;stroke:none"
             id="path4664"
             inkscape:connector-curvature="0" /></g><path
           d="m 1112.897,92.931 h 4.752 V 41.52 h -4.752 z"
           style="fill:#00263e;fill-opacity:1;fill-rule:nonzero;stroke:none"
           id="path4666"
           inkscape:connector-curvature="0" /><g
           id="g4668"
           transform="translate(1158.1857,41.5205)"><path
             d="m 0,0 v 47.306 h -21.961 v 4.105 H 26.713 V 47.306 H 4.752 L 4.752,0 Z"
             style="fill:#00263e;fill-opacity:1;fill-rule:nonzero;stroke:none"
             id="path4670"
             inkscape:connector-curvature="0" /></g><g
           id="g4672"
           transform="translate(1221.0421,41.5205)"><path
             d="m 0,0 v 21.889 l -21.961,29.522 h 5.832 L 2.52,26.137 21.168,51.411 h 5.544 L 4.752,21.961 V 0 Z"
             style="fill:#00263e;fill-opacity:1;fill-rule:nonzero;stroke:none"
             id="path4674"
             inkscape:connector-curvature="0" /></g></g></g></g></svg>