<svg width="41" height="41" viewBox="0 0 41 41" fill="none" xmlns="http://www.w3.org/2000/svg">
<circle cx="20.5" cy="20.5" r="20.5" transform="rotate(90 20.5 20.5)" fill="#FF2929"/>
<path d="M25.6568 14.3432C24.1458 12.8322 22.1368 12 20 12C17.8631 12 15.8541 12.8322 14.3431 14.3432C12.8321 15.8542 12 17.8631 12 20C12 22.1369 12.8321 24.1458 14.3431 25.6569C15.8541 27.1678 17.8631 28 20 28C20.2588 28 20.4688 27.7901 20.4688 27.5312C20.4688 27.2724 20.2588 27.0625 20 27.0625C16.1057 27.0625 12.9375 23.8943 12.9375 20C12.9375 16.1057 16.1057 12.9375 20 12.9375C23.8942 12.9375 27.0625 16.1057 27.0625 20V21.8828C27.0625 22.6625 26.4282 23.2969 25.6484 23.2969C24.8687 23.2969 24.2344 22.6625 24.2344 21.8828V20C24.2344 17.6652 22.3348 15.7656 20 15.7656C17.6652 15.7656 15.7656 17.6652 15.7656 20C15.7656 22.3348 17.6652 24.2344 20 24.2344C21.3849 24.2344 22.6166 23.5661 23.3896 22.5351C23.6731 23.5153 24.5781 24.2344 25.6484 24.2344C26.9451 24.2344 28 23.1795 28 21.8828V20C28 17.8631 27.1678 15.8542 25.6568 14.3432ZM20 23.2969C18.1821 23.2969 16.7031 21.8179 16.7031 20C16.7031 18.1821 18.1821 16.7031 20 16.7031C21.8179 16.7031 23.2969 18.1821 23.2969 20C23.2969 21.8179 21.8179 23.2969 20 23.2969Z" fill="white" stroke="white" stroke-width="0.5"/>
</svg>
