<svg width="13" height="12" viewBox="0 0 13 12" fill="none" xmlns="http://www.w3.org/2000/svg">
<path d="M6.1496 0C6.30657 0 6.46119 0 6.61816 0C6.61816 0.42171 6.61816 0.843421 6.61816 1.26513C6.38388 1.28153 6.1496 1.28153 5.92 1.31902C4.71812 1.51113 3.71773 2.07107 2.95163 3.01523C2.10352 4.06482 1.76147 5.27138 1.93015 6.61382C2.05432 7.60016 2.45729 8.46466 3.13437 9.19094C4.0715 10.1984 5.24058 10.7091 6.61816 10.7302C6.61816 11.1519 6.61816 11.5736 6.61816 11.9953C6.45416 11.9953 6.29017 11.9953 6.12617 11.9953C6.10274 11.9859 6.07931 11.9742 6.05354 11.9719C5.79583 11.9297 5.53343 11.9039 5.28041 11.8454C2.87431 11.2995 1.05393 9.32683 0.683763 6.87622C0.66502 6.74736 0.641592 6.61851 0.618164 6.49199C0.618164 6.164 0.618164 5.836 0.618164 5.508C0.627535 5.48458 0.63925 5.46115 0.641592 5.43538C0.667364 5.25732 0.683762 5.07927 0.716562 4.90355C1.18279 2.38735 3.19997 0.445138 5.7396 0.0655991C5.87548 0.0445136 6.01371 0.0210855 6.1496 0Z" fill="#FEA81F"/>
<path d="M6.61816 1.26513C6.61816 0.843421 6.61816 0.42171 6.61816 0C6.78216 0 6.94616 0 7.11016 0C7.1289 0.0070285 7.14999 0.0187427 7.16873 0.0234283C7.40301 0.0585709 7.64198 0.0773135 7.87158 0.128856C9.2398 0.428739 10.3737 1.12222 11.264 2.20226C11.9551 3.041 12.3839 3.99922 12.5455 5.07692C12.569 5.22921 12.5924 5.37915 12.6158 5.53143C12.6158 5.85943 12.6158 6.18743 12.6158 6.51542C12.6088 6.53417 12.5947 6.55291 12.5924 6.57399C12.5666 6.75908 12.5502 6.9465 12.5151 7.12925C12.2316 8.55369 11.5287 9.73213 10.4065 10.6552C9.56779 11.344 8.60723 11.7704 7.53187 11.9321C7.38427 11.9531 7.23667 11.9766 7.08907 12C6.9321 12 6.77748 12 6.62051 12C6.62051 11.5783 6.62051 11.1566 6.62051 10.7349V10.7325C7.00473 10.7466 7.38193 10.695 7.75444 10.6013C8.74546 10.353 9.57248 9.83522 10.2355 9.0574C10.9079 8.26786 11.2734 7.35182 11.3507 6.32331C11.3882 5.836 11.346 5.35103 11.2242 4.8731C10.9548 3.81413 10.3948 2.94494 9.53734 2.27255C8.67752 1.60016 7.70524 1.26045 6.61816 1.26513Z" fill="#FE8701"/>
<path d="M6.61819 10.7302C5.2406 10.7091 4.07153 10.2007 3.1344 9.19095C2.45966 8.46467 2.05435 7.60016 1.93018 6.61383C1.7615 5.27138 2.10121 4.06482 2.95166 3.01523C3.71776 2.06873 4.71815 1.50879 5.92003 1.31902C6.14962 1.28154 6.38625 1.28154 6.61819 1.26514V1.26748C6.61819 1.86725 6.61819 2.46701 6.61819 3.06678C6.53619 3.06912 6.45419 3.07615 6.37219 3.07146C6.29254 3.06678 6.26208 3.09489 6.26442 3.17689C6.26911 3.35963 6.26208 3.54237 6.26911 3.72511C6.27145 3.81414 6.23865 3.84694 6.15665 3.86568C5.93643 3.9102 5.73963 4.0086 5.55454 4.13745C5.02272 4.50762 4.78141 5.69778 5.7326 6.07966C6.02077 6.19446 6.32299 6.27646 6.61819 6.37252C6.62053 6.3772 6.62288 6.38189 6.62522 6.38657C6.62288 6.43343 6.61819 6.47794 6.61819 6.5248C6.61585 6.80594 6.61585 7.08942 6.61351 7.37056V7.37525C6.14494 7.33308 5.71854 7.17142 5.33666 6.89965C5.28043 6.85983 5.26403 6.88794 5.24295 6.93011C5.15392 7.10348 5.07192 7.28154 4.97587 7.45022C4.91964 7.54862 4.95009 7.59079 5.03444 7.64233C5.38118 7.85553 5.75369 7.99844 6.15431 8.0617C6.23865 8.07576 6.27145 8.10856 6.26911 8.19759C6.26208 8.39907 6.27145 8.6029 6.26442 8.80672C6.26208 8.89106 6.28551 8.92855 6.37454 8.92386C6.45654 8.91684 6.53853 8.92386 6.62053 8.92386V8.92621C6.61819 9.52597 6.61819 10.1281 6.61819 10.7302C6.61585 10.7278 6.61819 10.7302 6.61819 10.7302Z" fill="#FEEA96"/>
<path d="M6.61816 3.06674C6.61816 2.46697 6.61816 1.86721 6.61816 1.26744C7.70757 1.26041 8.67985 1.60012 9.53499 2.27017C10.3925 2.94257 10.9547 3.81176 11.2218 4.87072C11.3437 5.34632 11.3835 5.83363 11.3483 6.32093C11.271 7.34944 10.9055 8.26783 10.2332 9.05502C9.57013 9.83284 8.74311 10.3506 7.75209 10.599C7.37958 10.6927 7.00238 10.7442 6.61816 10.7301C6.61816 10.128 6.6205 9.52828 6.6205 8.92617C6.69078 8.92617 6.76107 8.92617 6.83135 8.92617C6.96958 8.92617 6.96958 8.92617 6.96958 8.79262C6.96958 8.60051 6.97193 8.41074 6.96724 8.21863C6.9649 8.13195 7.00004 8.10383 7.08438 8.08275C7.28586 8.0312 7.49672 7.98435 7.67946 7.88829C8.11288 7.66104 8.2722 7.27213 8.25814 6.79887C8.24408 6.37013 8.03557 6.07025 7.66306 5.87814C7.33506 5.70946 6.97895 5.62277 6.6205 5.53843L6.61816 5.52906C6.61816 5.19872 6.61816 4.86838 6.61581 4.5357C6.61816 4.53101 6.61816 4.52867 6.6205 4.52398C6.64393 4.52867 6.66501 4.53804 6.68844 4.54038C7.06095 4.56615 7.39598 4.69501 7.69586 4.91055C7.75443 4.95272 7.76849 4.91289 7.78957 4.87541C7.8786 4.71141 7.96529 4.54507 8.059 4.38341C8.10586 4.30375 8.08711 4.25924 8.01214 4.21473C7.71226 4.04136 7.40066 3.90079 7.05627 3.8469C6.99301 3.83753 6.96724 3.80942 6.96958 3.7485C6.97192 3.63136 6.96958 3.51422 6.96958 3.39708C6.96958 3.05034 6.96958 3.05034 6.6205 3.08079L6.61816 3.06674Z" fill="#FED82B"/>
<path d="M6.62052 5.53613C6.97663 5.62047 7.33274 5.70716 7.66308 5.87584C8.03794 6.06796 8.24645 6.36784 8.25817 6.79658C8.27222 7.27217 8.11291 7.66108 7.67948 7.886C7.49674 7.98205 7.28589 8.02891 7.08441 8.08045C7.00006 8.10154 6.96492 8.12965 6.96726 8.21634C6.97195 8.40845 6.96961 8.59822 6.96961 8.79033C6.96961 8.92387 6.96961 8.92387 6.83138 8.92387C6.76109 8.92387 6.69081 8.92387 6.62052 8.92387V8.92153C6.61818 8.40611 6.61584 7.89068 6.61349 7.37526V7.37057C6.80326 7.37057 6.99069 7.36354 7.17109 7.28154C7.43349 7.16206 7.42646 6.76846 7.23435 6.63727C7.04692 6.50841 6.84544 6.42875 6.62521 6.38658C6.62287 6.3819 6.62052 6.37721 6.61818 6.37253C6.61818 6.09373 6.62052 5.81493 6.62052 5.53613Z" fill="#FE8700"/>
<path d="M6.62051 5.53612C6.62051 5.81492 6.61817 6.09371 6.61817 6.37251C6.32297 6.27646 6.02074 6.19446 5.73257 6.07966C4.78138 5.69778 5.02035 4.50762 5.55452 4.13745C5.7396 4.00859 5.9364 3.91019 6.15663 3.86568C6.23863 3.84928 6.27143 3.81414 6.26908 3.72511C6.26205 3.54237 6.27143 3.35963 6.2644 3.17689C6.26205 3.09489 6.29251 3.06677 6.37217 3.07146C6.45417 3.07614 6.53617 3.06912 6.61817 3.06677L6.62285 3.07849C6.62285 3.55877 6.62285 4.04139 6.62051 4.52167C6.61816 4.52636 6.61817 4.5287 6.61582 4.53339C6.47291 4.55916 6.32297 4.56619 6.18474 4.61304C6.02777 4.66693 5.9528 4.80047 5.93874 4.96681C5.92469 5.14018 5.99497 5.27841 6.1496 5.35104C6.29954 5.42366 6.4612 5.46818 6.61817 5.52675L6.62051 5.53612Z" fill="#FEA81F"/>
<path d="M6.6135 7.37522C6.61584 7.89065 6.61818 8.40607 6.62053 8.92149C6.53853 8.92149 6.45653 8.91447 6.37453 8.92149C6.2855 8.92852 6.26207 8.89104 6.26442 8.80435C6.2691 8.60053 6.26207 8.39904 6.2691 8.19522C6.27144 8.10619 6.23864 8.07339 6.1543 8.05933C5.75368 7.99608 5.38117 7.85082 5.03443 7.63996C4.95009 7.58842 4.91963 7.54625 4.97586 7.44785C5.07426 7.27917 5.15625 7.10111 5.24294 6.92774C5.26402 6.88323 5.28277 6.85746 5.33665 6.89729C5.72088 7.1714 6.14493 7.33305 6.6135 7.37522Z" fill="#FEA81F"/>
<path d="M6.62521 6.38647C6.84544 6.42865 7.04692 6.51065 7.23435 6.63716C7.42646 6.76836 7.43349 7.1643 7.17109 7.28144C6.99069 7.36344 6.80326 7.37047 6.61349 7.37047C6.61584 7.08933 6.61584 6.80584 6.61818 6.5247C6.61818 6.48019 6.62287 6.43333 6.62521 6.38647Z" fill="#FED72B"/>
<path d="M6.62051 4.51924C6.62051 4.03896 6.62051 3.55634 6.62286 3.07605C6.9696 3.0456 6.9696 3.0456 6.9696 3.39234C6.9696 3.50948 6.97194 3.62662 6.9696 3.74376C6.9696 3.80468 6.99537 3.83279 7.05628 3.84216C7.40068 3.89839 7.71228 4.03662 8.01216 4.20999C8.08947 4.2545 8.10587 4.29901 8.05902 4.37867C7.9653 4.54033 7.87862 4.70667 7.78959 4.87067C7.7685 4.91049 7.75445 4.94798 7.69588 4.90581C7.39599 4.68793 7.06097 4.56141 6.68846 4.53564C6.66503 4.53564 6.6416 4.52627 6.62051 4.51924Z" fill="#FE8700"/>
<path d="M6.61816 5.52437C6.46119 5.46814 6.29953 5.42128 6.14959 5.34866C5.99497 5.27603 5.92468 5.1378 5.93874 4.96443C5.9528 4.79809 6.02777 4.66455 6.18474 4.61066C6.32062 4.56381 6.47056 4.55678 6.61582 4.53101C6.61582 4.86369 6.61582 5.19403 6.61816 5.52437Z" fill="#FEE995"/>
</svg>
