<svg width="24" height="24" viewBox="0 0 24 24" fill="none" xmlns="http://www.w3.org/2000/svg">
<path fill-rule="evenodd" clip-rule="evenodd" d="M11.7484 1C14.6214 1 17.3214 2.117 19.3494 4.146C23.5414 8.338 23.5414 15.158 19.3494 19.35C17.2944 21.406 14.5274 22.494 11.7244 22.494C10.1964 22.494 8.65841 22.171 7.21941 21.505C6.79541 21.335 6.39841 21.175 6.11341 21.175C5.78541 21.177 5.34441 21.329 4.91841 21.476C4.04441 21.776 2.95641 22.15 2.15141 21.348C1.34941 20.545 1.71941 19.46 2.01741 18.587C2.16441 18.157 2.31541 17.713 2.31541 17.377C2.31541 17.101 2.18241 16.749 1.97841 16.242C0.105407 12.197 0.971407 7.322 4.14841 4.147C6.17641 2.118 8.87541 1 11.7484 1ZM11.7494 2.5C9.27641 2.5 6.95341 3.462 5.20841 5.208C2.47441 7.94 1.73041 12.135 3.35541 15.648C3.58941 16.227 3.81541 16.791 3.81541 17.377C3.81541 17.962 3.61441 18.551 3.43741 19.071C3.29141 19.499 3.07041 20.145 3.21241 20.287C3.35141 20.431 4.00141 20.204 4.43041 20.057C4.94541 19.881 5.52941 19.679 6.10841 19.675C6.68841 19.675 7.23541 19.895 7.81441 20.128C11.3614 21.768 15.5564 21.022 18.2894 18.29C21.8954 14.682 21.8954 8.813 18.2894 5.207C16.5434 3.461 14.2214 2.5 11.7494 2.5ZM15.6963 11.1627C16.2483 11.1627 16.6963 11.6097 16.6963 12.1627C16.6963 12.7157 16.2483 13.1627 15.6963 13.1627C15.1443 13.1627 14.6923 12.7157 14.6923 12.1627C14.6923 11.6097 15.1353 11.1627 15.6873 11.1627H15.6963ZM11.6875 11.1627C12.2395 11.1627 12.6875 11.6097 12.6875 12.1627C12.6875 12.7157 12.2395 13.1627 11.6875 13.1627C11.1355 13.1627 10.6835 12.7157 10.6835 12.1627C10.6835 11.6097 11.1255 11.1627 11.6785 11.1627H11.6875ZM7.67831 11.1627C8.23031 11.1627 8.67831 11.6097 8.67831 12.1627C8.67831 12.7157 8.23031 13.1627 7.67831 13.1627C7.12631 13.1627 6.67431 12.7157 6.67431 12.1627C6.67431 11.6097 7.11731 11.1627 7.66931 11.1627H7.67831Z" fill="white"/>
</svg>
