<svg width="12" height="12" viewBox="0 0 12 12" fill="none" xmlns="http://www.w3.org/2000/svg">
<path fill-rule="evenodd" clip-rule="evenodd" d="M10.9087 3.28604C10.9568 3.28604 11.0047 3.28516 11.0524 3.28343C10.3355 1.66262 8.85985 0.452357 7.07588 0.102905C7.41171 1.9143 8.99999 3.28604 10.9087 3.28604ZM6.01051 0L6.04833 0.000127069C6.34965 2.41635 8.41081 4.28604 10.9087 4.28604C11.0674 4.28604 11.2245 4.27848 11.3794 4.26371C11.472 4.66435 11.521 5.08171 11.521 5.51051C11.521 8.36128 9.35627 10.7064 6.58091 10.9919C6.26669 8.58979 4.21209 6.73515 1.72432 6.73515C1.36023 6.73515 1.00542 6.77488 0.663991 6.85023C0.55687 6.42135 0.5 5.97257 0.5 5.51051C0.5 2.46714 2.96714 0 6.01051 0ZM5.57197 11.0038C3.53533 10.8435 1.81005 9.57584 0.997897 7.80272C1.23325 7.75836 1.47607 7.73515 1.72432 7.73515C3.66292 7.73515 5.271 9.15025 5.57197 11.0038Z" fill="#FF2929"/>
</svg>
