<svg width="11" height="11" viewBox="0 0 11 11" fill="none" xmlns="http://www.w3.org/2000/svg">
<path d="M8.2397 0.00110968C8.11588 -0.00794307 7.99168 0.0386308 7.90343 0.132119L1.77679 6.65421C1.62166 6.81939 1.62591 7.0776 1.78607 7.23775L2.28011 7.73177L0.204595 9.80663C-0.0681982 10.0797 -0.0681982 10.5224 0.204595 10.7952C0.477388 11.0683 0.920148 11.0683 1.19322 10.7952L3.26819 8.7198L3.76223 9.21381C3.84384 9.2957 3.95104 9.33663 4.05865 9.33663C4.16179 9.33663 4.26502 9.29911 4.3458 9.22309L10.8677 3.09621C10.9929 2.97911 11.0337 2.79728 10.9708 2.63713C10.4809 1.3923 9.60297 0.514698 8.36198 0.0289492C8.32216 0.0132281 8.28098 0.00412728 8.2397 0.00110968ZM2.67534 0.463464C2.26447 0.463464 1.87857 0.623423 1.58845 0.91381C1.29805 1.20392 1.13808 1.5898 1.13808 2.00064C1.13808 2.41149 1.29805 2.79737 1.58845 3.08748C1.87857 3.37786 2.26447 3.53782 2.67534 3.53782C3.08593 3.53782 3.47183 3.37786 3.76223 3.08748C4.05263 2.79709 4.2126 2.41121 4.2126 2.00064C4.2126 1.5898 4.05263 1.20392 3.76223 0.91381C3.47211 0.623423 3.08621 0.463464 2.67534 0.463464Z" fill="white"/>
</svg>
