<svg width="12" height="11" viewBox="0 0 12 11" fill="none" xmlns="http://www.w3.org/2000/svg">
									<path d="M0.968751 4.78125C0.778127 4.78125 0.595311 4.85698 0.460519 4.99177C0.325726 5.12656 0.250003 5.30938 0.250003 5.5C0.250003 5.69062 0.325726 5.87344 0.460519 6.00823C0.595311 6.14303 0.778127 6.21875 0.968751 6.21875L9.29619 6.21875L6.20988 9.30363C6.14305 9.37045 6.09004 9.44979 6.05387 9.5371C6.01771 9.62441 5.99909 9.71799 5.99909 9.8125C5.99909 9.90701 6.01771 10.0006 6.05387 10.0879C6.09004 10.1752 6.14305 10.2546 6.20988 10.3214C6.2767 10.3882 6.35604 10.4412 6.44335 10.4774C6.53066 10.5135 6.62424 10.5322 6.71875 10.5322C6.81326 10.5322 6.90684 10.5135 6.99415 10.4774C7.08146 10.4412 7.1608 10.3882 7.22763 10.3214L11.5401 6.00888C11.6071 5.94211 11.6602 5.8628 11.6964 5.77547C11.7326 5.68815 11.7513 5.59454 11.7513 5.5C11.7513 5.40546 11.7326 5.31185 11.6964 5.22453C11.6602 5.13721 11.6071 5.05789 11.5401 4.99113L7.22763 0.678625C7.09266 0.543663 6.90962 0.467842 6.71875 0.467842C6.52789 0.467842 6.34484 0.543663 6.20988 0.678625C6.07491 0.813587 5.99909 0.996635 5.99909 1.1875C5.99909 1.37836 6.07491 1.56141 6.20988 1.69638L9.29619 4.78125L0.968751 4.78125Z" fill="white"/>
								</svg>
