<svg width="41" height="41" viewBox="0 0 41 41" fill="none" xmlns="http://www.w3.org/2000/svg">
<circle cx="20.5" cy="20.5" r="20.5" transform="rotate(90 20.5 20.5)" fill="#FF2929"/>
<path d="M27.8442 15.6999C25.4442 11.9999 20.5442 10.8999 16.7442 13.1999C13.0442 15.4999 11.8442 20.4999 14.2442 24.1999L14.4442 24.4999L13.6442 27.4999L16.6442 26.6999L16.9442 26.8999C18.2442 27.5999 19.6442 27.9999 21.0442 27.9999C22.5442 27.9999 24.0442 27.5999 25.3442 26.7999C29.0442 24.3999 30.1442 19.4999 27.8442 15.6999ZM25.7442 23.3999C25.3442 23.9999 24.8442 24.3999 24.1442 24.4999C23.7442 24.4999 23.2442 24.6999 21.2442 23.8999C19.5442 23.0999 18.1442 21.7999 17.1442 20.2999C16.5442 19.5999 16.2442 18.6999 16.1442 17.7999C16.1442 16.9999 16.4442 16.2999 16.9442 15.7999C17.1442 15.5999 17.3442 15.4999 17.5442 15.4999H18.0442C18.2442 15.4999 18.4442 15.4999 18.5442 15.8999C18.7442 16.3999 19.2442 17.5999 19.2442 17.6999C19.3442 17.7999 19.3442 17.9999 19.2442 18.0999C19.3442 18.2999 19.2442 18.4999 19.1442 18.5999C19.0442 18.6999 18.9442 18.8999 18.8442 18.9999C18.6442 19.0999 18.5442 19.2999 18.6442 19.4999C19.0442 20.0999 19.5442 20.6999 20.0442 21.1999C20.6442 21.6999 21.2442 22.0999 21.9442 22.3999C22.1442 22.4999 22.3442 22.4999 22.4442 22.2999C22.5442 22.0999 23.0442 21.5999 23.2442 21.3999C23.4442 21.1999 23.5442 21.1999 23.7442 21.2999L25.3442 22.0999C25.5442 22.1999 25.7442 22.2999 25.8442 22.3999C25.9442 22.6999 25.9442 23.0999 25.7442 23.3999Z" fill="white"/>
</svg>
