<svg width="11" height="11" viewBox="0 0 11 11" fill="none" xmlns="http://www.w3.org/2000/svg">
<circle cx="5.5" cy="5.5" r="5.15" stroke="#14E40F" stroke-width="0.7"/>
<path d="M5.256 6.96L5.104 4.6V3H5.944V4.6L5.792 6.96H5.256ZM5.52 8.688C5.376 8.688 5.25333 8.63733 5.152 8.536C5.05067 8.43467 5 8.312 5 8.168C5 8.024 5.05067 7.90133 5.152 7.8C5.25333 7.69867 5.376 7.648 5.52 7.648C5.66933 7.648 5.792 7.69867 5.888 7.8C5.98933 7.90133 6.04 8.024 6.04 8.168C6.04 8.312 5.98933 8.43467 5.888 8.536C5.792 8.63733 5.66933 8.688 5.52 8.688Z" fill="#14E40F"/>
</svg>
