<svg width="11" height="12" viewBox="0 0 11 12" fill="none" xmlns="http://www.w3.org/2000/svg">
<path d="M5.56023 0.796875C2.9655 0.796875 0.855347 2.93559 0.855347 5.56546C0.855347 8.19533 2.9655 10.334 5.56023 10.334C8.15496 10.334 10.2651 8.19533 10.2651 5.56546C10.2651 2.93559 8.15496 0.796875 5.56023 0.796875ZM9.19021 3.78394C9.44572 4.31974 9.5911 4.92251 9.5955 5.55653H8.50739C8.50739 5.09218 8.40166 4.65461 8.21223 4.26616L9.19021 3.78394ZM6.45011 1.57378C7.04923 1.7122 7.59989 1.98456 8.06686 2.36408L7.38844 3.23028C7.04923 2.95346 6.64834 2.757 6.20781 2.6543L6.45011 1.57378ZM4.65714 1.57824L4.89943 2.6543C4.4633 2.757 4.06242 2.95792 3.72321 3.23475L3.04039 2.37301C3.50735 1.99349 4.05802 1.71666 4.65714 1.57824ZM5.56023 2.91773C7.00077 2.91773 8.17258 4.10542 8.17258 5.56546C8.17258 7.0255 7.00077 8.21319 5.56023 8.21319C4.11969 8.21319 2.94787 7.0255 2.94787 5.56546C2.94787 4.10542 4.11969 2.91773 5.56023 2.91773ZM1.52496 5.56546C1.52496 4.93143 1.66592 4.33313 1.92143 3.79733L2.90382 4.27508C2.7188 4.668 2.61307 5.10557 2.61307 5.56546C2.61307 5.56546 2.61307 5.56546 2.61307 5.56993H1.52496V5.56546ZM3.0492 8.76237C2.57783 8.38285 2.19457 7.89617 1.93025 7.34252L2.91263 6.8603C3.10646 7.26661 3.38841 7.61935 3.73202 7.89618L3.0492 8.76237ZM5.56023 9.65537C5.25186 9.65537 4.9523 9.61965 4.66595 9.55268L4.90824 8.47662C5.1197 8.52573 5.33556 8.55253 5.56464 8.55253C5.78931 8.55253 6.00957 8.52573 6.22103 8.47662L6.46332 9.55268C6.16816 9.61965 5.8686 9.65537 5.56023 9.65537ZM8.07567 8.76237L7.39725 7.90064C7.74086 7.62381 8.0228 7.26661 8.21664 6.8603L9.19903 7.33806C8.9303 7.89618 8.54704 8.37839 8.07567 8.76237Z" fill="white"/>
<path d="M6.24736 5.53973C6.24736 5.14235 5.92577 4.81641 5.5337 4.81641C5.14163 4.81641 4.82004 5.14235 4.82004 5.53973C4.82004 5.93711 5.14163 6.26305 5.5337 6.26305C5.93018 6.26305 6.24736 5.93711 6.24736 5.53973ZM5.5337 5.76298C5.41476 5.76298 5.31343 5.66475 5.31343 5.53973C5.31343 5.41471 5.41035 5.31648 5.5337 5.31648C5.65264 5.31648 5.75397 5.41471 5.75397 5.53973C5.75397 5.66475 5.65705 5.76298 5.5337 5.76298Z" fill="white"/>
<path d="M7.47771 10.6211L6.87418 10.889L7.04159 11.2774H3.89178L4.05918 10.889L3.45566 10.6211L3.08561 11.4784C3.04156 11.5811 3.05037 11.7016 3.11204 11.7954C3.17371 11.8891 3.27504 11.9472 3.38957 11.9472H7.5482C7.65833 11.9472 7.76406 11.8891 7.82573 11.7954C7.88741 11.7016 7.89622 11.5811 7.85216 11.4784L7.47771 10.6211Z" fill="white"/>
</svg>
