<svg width="21" height="20" viewBox="0 0 21 20" fill="none" xmlns="http://www.w3.org/2000/svg">
<path d="M3.83335 15.8335H2.16669C2.16669 13.0721 4.40526 10.8335 7.16669 10.8335C9.92811 10.8335 12.1667 13.0721 12.1667 15.8335H10.5C10.5 13.9925 9.00764 12.5002 7.16669 12.5002C5.32574 12.5002 3.83335 13.9925 3.83335 15.8335ZM16.3334 13.3335H14.6667V10.8335H12.1667V9.16683H14.6667V6.66683H16.3334V9.16683H18.8334V10.8335H16.3334V13.3335ZM7.16669 10.0002C5.32574 10.0002 3.83335 8.50778 3.83335 6.66683C3.83335 4.82588 5.32574 3.3335 7.16669 3.3335C9.00764 3.3335 10.5 4.82588 10.5 6.66683C10.4977 8.50683 9.00668 9.99787 7.16669 10.0002ZM7.16669 5.00016C6.25618 5.00109 5.51493 5.73254 5.50188 6.64295C5.48883 7.55336 6.20883 8.30575 7.11893 8.33276C8.02903 8.35978 8.79238 7.65141 8.83335 6.74183V7.07516V6.66683C8.83335 5.74635 8.08716 5.00016 7.16669 5.00016Z" fill="white"/>
</svg>
