<svg width="12" height="11" viewBox="0 0 12 11" fill="none" xmlns="http://www.w3.org/2000/svg">
<path d="M2.57293 4.2431L2.51732 1.24938C2.55571 1.01083 2.81674 0.497958 3.55378 0.35483C3.74945 0.329499 4.16918 0.2266 4.52824 0.390464C4.62304 0.433724 4.63846 0.532231 4.69392 0.55377C4.74527 0.524763 4.81776 0.384858 4.88695 0.35483C5.10325 -0.0468759 6.25442 -0.166833 6.86831 0.309405C6.93149 0.35483 6.99977 0.541155 7.07051 0.618585C7.17169 0.587149 7.28135 0.498417 7.48088 0.35483C7.82303 0.108605 8.78991 0.146427 9.11238 0.55377C9.1803 0.61041 9.20618 0.762461 9.24321 0.868231L9.26543 0.921636C9.33887 0.907375 9.46855 0.776004 9.55861 0.768107C10.1927 0.55377 11.2567 0.867477 11.5 1.8756V6.07998C11.4649 6.38022 11.2432 6.98261 10.6406 7.82434C10.4358 8.11042 7.1255 8.17631 7.06313 8.25504C7.11769 8.30589 10.5826 8.28395 10.6406 8.3848C10.7867 8.63875 10.8917 9.10771 10.6939 9.56872C10.809 9.92654 10.809 10.7137 9.88772 11H4.59025C4.28315 10.9702 3.64591 10.7674 3.55378 10.1949V8.76363C3.55378 8.64435 3.59985 8.37003 3.78411 8.2269C2.86281 7.71999 0.951111 6.4378 0.674721 5.36434C0.444396 4.88725 0.260136 3.78993 1.3657 3.21742C1.89586 3.09386 2.42202 3.43735 2.52223 3.97241L2.57293 4.2431Z" fill="white"/>
</svg>
