<svg width="41" height="41" viewBox="0 0 41 41" fill="none" xmlns="http://www.w3.org/2000/svg">
<circle cx="20.5" cy="20.5" r="20.5" transform="rotate(90 20.5 20.5)" fill="#FF2929"/>
<path fill-rule="evenodd" clip-rule="evenodd" d="M29 21C29 25.418 25.418 29 21 29C16.582 29 13 25.418 13 21C13 16.582 16.582 13 21 13C25.418 13 29 16.582 29 21ZM21.2867 18.906C20.5087 19.2293 18.9533 19.8993 16.6213 20.9153C16.2427 21.066 16.044 21.2133 16.026 21.3573C15.9953 21.6013 16.3007 21.6973 16.7153 21.8273C16.772 21.8453 16.8307 21.8633 16.8907 21.8833C17.2993 22.016 17.8487 22.1713 18.134 22.1773C18.3933 22.1827 18.6827 22.076 19.002 21.8573C21.1807 20.386 22.3053 19.6427 22.376 19.6267C22.426 19.6153 22.4953 19.6007 22.542 19.6427C22.5887 19.684 22.584 19.7627 22.5793 19.784C22.5487 19.9127 21.3527 21.0253 20.7327 21.6013C20.5393 21.7807 20.4027 21.908 20.3747 21.9373C20.312 22.002 20.248 22.064 20.1867 22.1233C19.8067 22.4887 19.5227 22.7633 20.2027 23.2113C20.5293 23.4267 20.7907 23.6047 21.0513 23.782C21.336 23.976 21.62 24.1693 21.988 24.4107C22.0813 24.472 22.1707 24.5353 22.258 24.5973C22.5893 24.834 22.8873 25.046 23.2553 25.0127C23.4687 24.9927 23.69 24.792 23.802 24.1927C24.0667 22.7753 24.588 19.706 24.7087 18.4407C24.716 18.3356 24.7115 18.2301 24.6953 18.126C24.6856 18.042 24.6447 17.9646 24.5807 17.9093C24.4853 17.8313 24.3373 17.8147 24.2707 17.816C23.97 17.8213 23.5087 17.982 21.2867 18.906Z" fill="white"/>
</svg>
