<svg width="11" height="11" viewBox="0 0 11 11" fill="none" xmlns="http://www.w3.org/2000/svg">
<path d="M5.47902 0C4.71677 0 3.99238 0.166917 3.3322 0.449519C3.31573 0.45613 3.29598 0.45613 3.27951 0.46274C3.21201 0.477614 3.1478 0.509014 3.09512 0.555288C2.63744 0.778396 2.21927 1.06596 1.8439 1.40144C1.72207 1.44111 1.62659 1.53365 1.58049 1.65264C0.604207 2.64423 0 3.99775 0 5.5C0 7.31791 0.893963 8.92758 2.2522 9.92909C2.25713 9.93239 2.26043 9.939 2.26537 9.94231C2.29829 9.98032 2.33945 10.0117 2.3839 10.0349C2.3872 10.0365 2.39378 10.0332 2.39707 10.0349C2.8103 10.3191 3.25811 10.5455 3.74049 10.7091C3.74543 10.7108 3.74872 10.7207 3.75366 10.7224C3.76189 10.7273 3.77177 10.7323 3.78 10.7356C3.87878 10.8199 4.00884 10.8529 4.13561 10.8281C4.56366 10.9389 5.0164 11 5.47902 11C8.24323 11 10.5366 8.92924 10.9054 6.25361C11.0157 6.11809 11.0305 5.92969 10.9449 5.77764C10.9498 5.68344 10.958 5.5942 10.958 5.5C10.958 5.09676 10.9087 4.70177 10.8263 4.32332C10.8296 4.24564 10.8115 4.16632 10.7737 4.09856C10.5991 3.43089 10.2979 2.83098 9.90439 2.28726C9.88299 2.23768 9.85171 2.19306 9.81219 2.15505C8.80957 0.851112 7.24226 0 5.47902 0ZM5.47902 0.846154C6.29396 0.846154 7.05457 1.05934 7.71805 1.42788C7.11055 1.30889 6.53927 1.25766 6.01902 1.26923C5.86756 1.27254 5.72598 1.28576 5.58439 1.29567C5.02134 1.33699 4.54226 1.42623 4.17512 1.52043C4.05165 1.55183 3.96604 1.58158 3.8722 1.61298C3.84256 1.44441 3.81787 1.28906 3.80634 1.16346C4.32494 0.961839 4.88799 0.846154 5.47902 0.846154ZM3.00293 1.5601C3.13957 2.53185 3.60713 4.08534 5.00488 5.60577C4.87976 6.00406 4.73159 6.36268 4.57024 6.6899C3.8936 6.0933 2.51561 4.57617 2.41024 2.02284C2.59793 1.85592 2.79055 1.69561 3.00293 1.5601ZM6.04537 2.12861C6.9772 2.10712 8.1 2.24925 9.24585 2.80288C9.39896 3.01938 9.5389 3.2491 9.65415 3.49038C8.59061 3.07227 7.59128 2.94171 6.74341 2.94832C6.58701 2.94997 6.44213 2.95162 6.29561 2.96154C5.45598 3.01773 4.8353 3.1896 4.45171 3.33173C4.2953 3.01773 4.17512 2.72521 4.08293 2.44591C4.17183 2.41451 4.26238 2.37154 4.38585 2.34014C4.70854 2.25586 5.14317 2.17984 5.65024 2.14183C5.77701 2.13191 5.91037 2.13191 6.04537 2.12861ZM1.64634 2.89543C2.01841 5.39588 3.4886 6.87665 4.14878 7.43029C3.93476 7.75751 3.71909 8.03681 3.50341 8.27644C3.23177 8.0302 2.8136 7.59886 2.41024 7.00721C1.81756 6.13627 1.27921 4.92488 1.34341 3.41106C1.43396 3.23092 1.53439 3.0607 1.64634 2.89543ZM6.76976 3.79447C7.69171 3.78621 8.80628 3.9713 10.0098 4.58774C10.0559 4.82076 10.0921 5.05709 10.102 5.30168C9.45329 5.04552 8.4803 4.7811 7.25707 4.8125C6.75329 4.82572 6.20506 4.90174 5.6239 5.03726C5.33415 4.7216 5.1053 4.39769 4.89951 4.08534C5.23207 3.97957 5.73091 3.85066 6.36146 3.80769C6.49152 3.79943 6.63146 3.79612 6.76976 3.79447ZM7.82341 5.67188C8.18726 5.69005 8.5264 5.72972 8.82439 5.79087C8.78817 6.11148 8.69433 6.69982 8.42927 7.35096C8.05226 8.27479 7.36079 9.34405 6.05854 10.1142C5.86921 10.1373 5.67494 10.1538 5.47902 10.1538C5.37201 10.1538 5.26829 10.134 5.16293 10.1274C7.12537 8.52434 7.67689 6.49654 7.82341 5.67188ZM6.96732 5.6851C6.78457 6.57257 6.16061 8.52434 4.03024 9.91587C3.78494 9.83489 3.54457 9.74399 3.31902 9.625C3.44744 9.52088 3.58244 9.39198 3.72732 9.25481C3.81787 9.21514 3.8936 9.14573 3.93805 9.05649C4.29366 8.69126 4.67067 8.22191 5.01805 7.64183C5.05427 7.59886 5.08061 7.54928 5.09707 7.49639C5.36872 7.02209 5.62555 6.48498 5.82146 5.85697C6.22317 5.76442 6.60512 5.71319 6.96732 5.6851ZM0.856098 5.79087C1.08329 6.44366 1.3928 7.01382 1.7122 7.48317C2.14683 8.12109 2.58146 8.57061 2.89756 8.85817C2.77738 8.96064 2.66543 9.05153 2.56829 9.1226C1.58707 8.32767 0.938415 7.13777 0.856098 5.79087ZM9.65415 6.02885C9.80396 6.08338 9.94884 6.13627 10.0624 6.1875C9.88793 7.36914 9.27219 8.40535 8.38976 9.1226C8.75195 8.63341 9.01701 8.13101 9.20634 7.66827C9.48457 6.98407 9.60311 6.42383 9.65415 6.02885Z" fill="white"/>
</svg>
