<svg width="19" height="14" viewBox="0 0 19 14" fill="none" xmlns="http://www.w3.org/2000/svg">
<path fill-rule="evenodd" clip-rule="evenodd" d="M1.88462 0.5C1.11991 0.5 0.5 1.1467 0.5 1.94444V12.0556C0.5 12.8533 1.11991 13.5 1.88462 13.5H17.1154C17.8801 13.5 18.5 12.8533 18.5 12.0556V1.94444C18.5 1.1467 17.8801 0.5 17.1154 0.5H1.88462ZM5.26906 5.84715L3.68777 9.11357H4.81277L6.40193 5.82253V4.91155H3.41242V5.82253H5.26906V5.84715ZM9.75283 5.84715L8.17154 9.11357H9.29654L10.8857 5.82253V4.91155H7.89619V5.82253H9.75283V5.84715ZM14.2366 5.84715L12.6553 9.11357H13.7803L15.3695 5.82253V4.91155H12.38V5.82253H14.2366V5.84715Z" fill="white"/>
</svg>
