<svg width="8" height="5" viewBox="0 0 8 5" fill="none" xmlns="http://www.w3.org/2000/svg">
<path d="M7.17975 0.532583C7.08596 0.442095 6.95878 0.391261 6.82617 0.391261C6.69356 0.391261 6.56638 0.442095 6.4726 0.532583L3.99707 2.92183L1.52154 0.532583C1.42721 0.444659 1.30089 0.396008 1.16976 0.397108C1.03863 0.398208 0.913199 0.44897 0.820475 0.538462C0.727752 0.627955 0.675156 0.749016 0.674017 0.875573C0.672878 1.00213 0.723286 1.12405 0.814384 1.21509L3.64349 3.94559C3.73727 4.03608 3.86446 4.08691 3.99707 4.08691C4.12968 4.08691 4.25686 4.03608 4.35064 3.94559L7.17975 1.21509C7.2735 1.12457 7.32617 1.00182 7.32617 0.873835C7.32617 0.745847 7.2735 0.623098 7.17975 0.532583Z" fill="white"/>
</svg>
