<svg width="11" height="11" viewBox="0 0 11 11" fill="none" xmlns="http://www.w3.org/2000/svg">
<path fill-rule="evenodd" clip-rule="evenodd" d="M5.5 0C2.46744 0 0 2.35455 0 5.24837C0 8.14218 2.46744 10.4967 5.5 10.4967C8.53256 10.4967 11 8.14218 11 5.24837C11 2.35455 8.53256 0 5.5 0ZM5.84925 1.70512L7.26343 0.979533C8.0465 1.27541 8.72987 1.76023 9.24962 2.37691L8.91275 3.86089L7.83406 4.36539L5.84925 2.98572V1.70512ZM3.74824 0.975518L5.16242 1.70373V2.98564L3.17899 4.36531L2.0948 3.86015L1.75792 2.36699C2.27905 1.75162 2.9638 1.26943 3.74824 0.975518ZM1.5331 7.84233C1.08416 7.21908 0.791972 6.48628 0.711535 5.69443L1.87547 4.48797L2.93697 4.98328L3.73653 7.1502L3.06072 7.92302L1.5331 7.84233ZM6.72576 9.68384C6.3332 9.7829 5.92413 9.84063 5.49995 9.84063C4.98707 9.84063 4.49345 9.76191 4.02939 9.61955L3.59695 8.33501L4.28651 7.54447H6.71614L7.39332 8.30942L6.72576 9.68384ZM7.92961 7.90074L7.26479 7.14957L8.07536 4.98331L9.13204 4.4893L10.2891 5.69512C10.2197 6.37806 9.98936 7.01508 9.63942 7.57862L7.92961 7.90074Z" fill="#FF0000"/>
</svg>
