<svg width="12" height="11" viewBox="0 0 12 11" fill="none" xmlns="http://www.w3.org/2000/svg">
<path d="M11.1648 0.557143C10.8896 0.224274 10.4858 0.0219576 10.0568 0.00134418C9.62779 -0.0164699 9.20667 0.143348 8.90274 0.44695L6.58771 2.75947C6.13881 3.20788 5.7182 3.69242 5.33708 4.19986L4.3407 5.52701C3.9476 6.05049 3.5145 6.54954 3.05287 7.01041L1.78084 8.28107C1.37449 8.17164 0.933499 8.32484 0.681793 8.68061C0.395949 9.08397 0.452252 9.64028 0.815034 10.0027L1.49831 10.6852C1.70619 10.8929 1.97777 11 2.24731 11C2.44857 11 2.64907 10.9404 2.82155 10.8183C3.17796 10.5669 3.33133 10.1266 3.22203 9.72044L4.49381 8.44979C4.95544 7.98866 5.45478 7.55603 5.97882 7.16336L7.30741 6.16806C7.81541 5.78735 8.30048 5.36719 8.74937 4.91879L11.0295 2.64113C11.6002 2.07159 11.6595 1.15595 11.1648 0.557143ZM4.07243 0.178721C3.66703 0.178721 3.27823 0.339593 2.99157 0.625946C2.7049 0.912299 2.54386 1.30068 2.54386 1.70564C2.54386 2.11061 2.7049 2.49898 2.99157 2.78534C3.27823 3.07169 3.66703 3.23256 4.07243 3.23256C4.47784 3.23256 4.86664 3.07169 5.1533 2.78534C5.43996 2.49898 5.60101 2.11061 5.60101 1.70564C5.60101 1.30068 5.43996 0.912299 5.1533 0.625946C4.86664 0.339593 4.47784 0.178721 4.07243 0.178721Z" fill="white"/>
</svg>
