<svg width="12" height="13" viewBox="0 0 12 13" fill="none" xmlns="http://www.w3.org/2000/svg">
<path d="M6 0.5C2.688 0.5 0 3.188 0 6.5C0 9.812 2.688 12.5 6 12.5C9.312 12.5 12 9.812 12 6.5C12 3.188 9.312 0.5 6 0.5ZM6 11.3C3.354 11.3 1.2 9.146 1.2 6.5C1.2 3.854 3.354 1.7 6 1.7C8.646 1.7 10.8 3.854 10.8 6.5C10.8 9.146 8.646 11.3 6 11.3ZM6.186 5.984C5.124 5.714 4.782 5.42 4.782 4.982C4.782 4.478 5.256 4.124 6.042 4.124C6.87 4.124 7.182 4.52 7.206 5.108H8.232C8.202 4.304 7.71 3.566 6.738 3.326V2.3H5.34V3.314C4.434 3.506 3.708 4.094 3.708 5C3.708 6.074 4.602 6.614 5.904 6.926C7.074 7.202 7.308 7.616 7.308 8.048C7.308 8.366 7.074 8.882 6.048 8.882C5.088 8.882 4.71 8.45 4.656 7.898H3.624C3.684 8.918 4.44 9.494 5.34 9.68V10.7H6.744V9.698C7.656 9.524 8.376 9.002 8.382 8.036C8.376 6.716 7.242 6.26 6.186 5.984Z" fill="white"/>
</svg>
