<svg width="23" height="23" viewBox="0 0 23 23" fill="none" xmlns="http://www.w3.org/2000/svg">
<rect width="23" height="23" rx="11.5" fill="#FF2929"/>
<path d="M10.5489 6.42705C10.8483 5.50574 12.1517 5.50574 12.4511 6.42705L13.0716 8.33688C13.2055 8.7489 13.5894 9.02786 14.0227 9.02786H16.0308C16.9995 9.02786 17.4023 10.2675 16.6186 10.8369L14.994 12.0172C14.6435 12.2719 14.4968 12.7232 14.6307 13.1353L15.2512 15.0451C15.5506 15.9664 14.4961 16.7325 13.7124 16.1631L12.0878 14.9828C11.7373 14.7281 11.2627 14.7281 10.9122 14.9828L9.28761 16.1631C8.5039 16.7325 7.44942 15.9664 7.74878 15.0451L8.36932 13.1353C8.50319 12.7232 8.35653 12.2719 8.00604 12.0172L6.38144 10.8369C5.59773 10.2675 6.00051 9.02786 6.96923 9.02786H8.97735C9.41057 9.02786 9.79453 8.7489 9.9284 8.33688L10.5489 6.42705Z" fill="white"/>
</svg>
