<svg width="11" height="11" viewBox="0 0 11 11" fill="none" xmlns="http://www.w3.org/2000/svg">
<path d="M5.5 0C2.46676 0 0 2.46676 0 5.5C0 8.53324 2.46676 11 5.5 11C8.53324 11 11 8.53324 11 5.5C11 2.46676 8.53324 0 5.5 0ZM9.74344 3.44523C10.0421 4.0632 10.2121 4.75843 10.2172 5.4897H8.94523C8.94523 4.95412 8.82163 4.44944 8.60019 4.00141L9.74344 3.44523ZM6.54026 0.89607C7.24064 1.05571 7.88436 1.36985 8.43024 1.80759L7.63717 2.80665C7.24064 2.48736 6.772 2.26077 6.25702 2.14232L6.54026 0.89607ZM4.44429 0.901217L4.72753 2.14232C4.2177 2.26077 3.74906 2.49251 3.35253 2.8118L2.55431 1.81789C3.10019 1.38015 3.74392 1.06086 4.44429 0.901217ZM5.5 2.44616C7.18399 2.44616 8.55384 3.81601 8.55384 5.5C8.55384 7.18399 7.18399 8.55384 5.5 8.55384C3.81601 8.55384 2.44616 7.18399 2.44616 5.5C2.44616 3.81601 3.81601 2.44616 5.5 2.44616ZM0.782774 5.5C0.782774 4.76873 0.947565 4.07865 1.24625 3.46067L2.39466 4.0117C2.17837 4.46489 2.05477 4.96957 2.05477 5.5C2.05477 5.5 2.05477 5.5 2.05477 5.50515H0.782774V5.5ZM2.56461 9.18726C2.01358 8.74953 1.56554 8.1882 1.25656 7.54963L2.40496 6.99345C2.63155 7.46208 2.96114 7.86892 3.36283 8.18821L2.56461 9.18726ZM5.5 10.2172C5.13951 10.2172 4.78933 10.176 4.45459 10.0988L4.73783 8.85768C4.98502 8.91432 5.23736 8.94523 5.50515 8.94523C5.76779 8.94523 6.02528 8.91432 6.27247 8.85768L6.55571 10.0988C6.21068 10.176 5.86049 10.2172 5.5 10.2172ZM8.44054 9.18726L7.64747 8.19335C8.04916 7.87407 8.37875 7.46208 8.60534 6.99345L9.75375 7.54448C9.43961 8.18821 8.99157 8.74438 8.44054 9.18726Z" fill="white"/>
<path d="M4.36176 5.27203C4.50081 5.27203 4.77375 5.11754 5.18058 4.8034V6.98692C5.18058 7.11567 5.21148 7.21351 5.26813 7.27531C5.32478 7.34226 5.40718 7.37316 5.50502 7.37316C5.72646 7.37316 5.83461 7.21351 5.83461 6.88908V4.14422C5.83461 4.03093 5.80886 3.93823 5.75736 3.87129C5.70586 3.80434 5.63891 3.77344 5.55137 3.77344C5.47412 3.77344 5.42262 3.78889 5.39688 3.81464C5.37113 3.84554 5.30933 3.91763 5.22178 4.04638C5.13423 4.16997 5.03124 4.28327 4.91279 4.38627C4.7995 4.48926 4.63985 4.58196 4.44931 4.67465C4.32056 4.73645 4.22787 4.7828 4.17637 4.824C4.12487 4.86005 4.09912 4.92185 4.09912 5.00424C4.09912 5.07634 4.12487 5.13814 4.17637 5.18964C4.23817 5.24628 4.29482 5.27203 4.36176 5.27203Z" fill="white"/>
</svg>
