<svg width="18" height="18" viewBox="0 0 18 18" fill="none" xmlns="http://www.w3.org/2000/svg">
<path d="M9 0C4.03875 0 0 4.03875 0 9C0 13.9613 4.03875 18 9 18C13.9613 18 18 13.9613 18 9C18 4.03875 13.9613 0 9 0ZM15.7725 12.9938L12.9769 13.545L11.8912 12.2569L13.2188 8.54437L14.9456 7.695L16.8412 9.765C16.7288 10.935 16.3519 12.0319 15.7781 12.9938H15.7725ZM5.00625 13.5844L2.50312 13.4437C1.76625 12.375 1.28812 11.1206 1.15875 9.75938L3.06 7.68937L4.79812 8.53875L6.10875 12.2569L5.00625 13.5844ZM15.1369 4.07812L14.5856 6.62063L12.8194 7.48688L9.57375 5.11875V2.925L11.8856 1.68187C13.1681 2.18812 14.2875 3.02063 15.1369 4.07812ZM6.13125 1.67062L8.44312 2.91937V5.11875L5.1975 7.48688L3.42563 6.62063L2.87438 4.06125C3.72938 3.00375 4.84875 2.17688 6.13125 1.67625V1.67062ZM6.5925 16.4925L5.88375 14.2875L7.01438 12.9319H10.9913L12.0994 14.2425L11.0081 16.5994C10.3669 16.7681 9.6975 16.8694 9.00562 16.8694C8.1675 16.8694 7.3575 16.7344 6.59812 16.4925H6.5925Z" fill="white"/>
</svg>
