<svg width="12" height="8" viewBox="0 0 12 8" fill="none" xmlns="http://www.w3.org/2000/svg">
<path fill-rule="evenodd" clip-rule="evenodd" d="M4.79143 0.121154C4.87421 0.0281016 4.99866 -0.0157182 5.12106 0.00509142C6.04242 0.161741 6.93275 0.784081 7.34314 1.10363C8.81796 1.19397 9.85801 1.72277 10.5372 2.31738C10.8837 2.62078 11.1354 2.94056 11.3026 3.22605C11.4611 3.4967 11.5676 3.77782 11.5676 4C11.5676 4.22621 11.4625 4.50936 11.3027 4.78309C11.1351 5.07039 10.8826 5.38986 10.5352 5.69199C9.8543 6.28408 8.81223 6.80664 7.3346 6.89682C6.92089 7.21997 6.0366 7.83911 5.12111 7.9949C4.9987 8.01573 4.87424 7.97192 4.79145 7.87886C4.70866 7.78581 4.67913 7.65653 4.71323 7.53646L4.97651 6.60953C4.04028 6.27982 3.2339 5.61018 2.7071 5.1689C2.60076 5.25827 2.49146 5.34406 2.37938 5.42612C1.92109 5.7628 1.42454 5.94777 1.04965 6.04903C0.860835 6.10004 0.699273 6.13076 0.583575 6.14888C0.525633 6.15794 0.478928 6.16389 0.445749 6.16764C0.429152 6.16952 0.415915 6.17085 0.406324 6.17175C0.401528 6.1722 0.39764 6.17255 0.394697 6.1728L0.390995 6.1731L0.389683 6.17321C0.389683 6.17321 0.388734 6.17328 0.361491 5.81068C0.00849501 5.73233 0.00853144 5.73216 0.00853144 5.73216L0.00895612 5.73025L0.00980754 5.72646C0.0105061 5.72338 0.0114679 5.71919 0.0126982 5.71394C0.0151582 5.70344 0.0186948 5.6887 0.0233505 5.67014C0.0326564 5.63304 0.046466 5.58054 0.0651262 5.51603C0.102359 5.38733 0.159371 5.20918 0.239155 5.00923C0.361126 4.70355 0.544573 4.3256 0.806761 3.99617C0.544571 3.6668 0.361126 3.2889 0.239159 2.98325C0.159373 2.78331 0.10236 2.60517 0.0651271 2.47647C0.0464666 2.41196 0.0326568 2.35946 0.0233508 2.32236C0.0186951 2.3038 0.0151584 2.28906 0.0126983 2.27856C0.011468 2.27331 0.0105062 2.26912 0.00980759 2.26604L0.00895616 2.26225L0.00867705 2.261C0.00867705 2.261 0.00849501 2.26017 0.361491 2.18182C0.388734 1.81922 0.388937 1.81923 0.388937 1.81923L0.390995 1.8194L0.394697 1.8197C0.39764 1.81995 0.401528 1.8203 0.406324 1.82075C0.415915 1.82165 0.429152 1.82298 0.445749 1.82485C0.478928 1.82861 0.525633 1.83455 0.583575 1.84362C0.699273 1.86174 0.860835 1.89246 1.04965 1.94347C1.42455 2.04473 1.92113 2.22971 2.37944 2.56643C2.49318 2.64971 2.60408 2.73681 2.71194 2.82757C3.23812 2.38735 4.04174 1.71925 4.97647 1.39034L4.71323 0.46354C4.67913 0.343475 4.70866 0.214207 4.79143 0.121154ZM0.361491 2.18182L0.388937 1.81923C0.274921 1.81057 0.163347 1.85666 0.0884239 1.94354C0.0135003 2.03043 -0.0159595 2.14868 0.00867705 2.261L0.361491 2.18182ZM0.886732 2.65258C1.20478 2.74073 1.59928 2.89379 1.95321 3.15387C2.12957 3.28299 2.29869 3.42284 2.45869 3.57197C2.59043 3.69475 2.79179 3.70163 2.9315 3.58812C3.00739 3.52646 3.08742 3.45993 3.17133 3.39018C3.77811 2.88575 4.58802 2.21247 5.50692 1.9899C5.60269 1.9667 5.6849 1.9052 5.73454 1.8196C5.78418 1.73401 5.79694 1.63175 5.76988 1.53647L5.58779 0.895364C6.17974 1.13546 6.71957 1.53169 6.98361 1.74448C7.04344 1.7927 7.11697 1.82054 7.19357 1.82396C8.56833 1.88544 9.48935 2.36415 10.0625 2.86598C10.3511 3.11863 10.5525 3.37801 10.6797 3.59517C10.7433 3.70387 10.7866 3.7989 10.8131 3.87415C10.8263 3.91166 10.8346 3.94212 10.8394 3.9652C10.8443 3.98845 10.8446 3.99998 10.8446 3.99998C10.8446 4.03513 10.8141 4.18382 10.6793 4.41488C10.5523 4.63238 10.3511 4.89068 10.0623 5.14181C9.48871 5.64065 8.56538 6.11472 7.18475 6.17649C7.108 6.17993 7.03433 6.20787 6.97443 6.25627C6.70666 6.47264 6.17262 6.86507 5.58806 7.10369L5.76988 6.46353C5.79693 6.36828 5.78418 6.26606 5.73459 6.18048C5.68499 6.0949 5.60283 6.03338 5.5071 6.01014C4.58343 5.78591 3.76658 5.10589 3.15937 4.60039C3.07821 4.53283 3.0008 4.46838 2.92738 4.40856C2.7877 4.29475 2.58611 4.30148 2.45423 4.42434C2.29564 4.57209 2.12852 4.7103 1.95374 4.83825C1.5998 5.09833 1.20477 5.25177 0.886722 5.33992C0.89425 5.32027 0.902041 5.30033 0.910098 5.28014C1.05155 4.92562 1.26136 4.52903 1.54407 4.26057C1.61643 4.19186 1.65743 4.09619 1.65742 3.9961C1.65741 3.89602 1.61639 3.80036 1.54403 3.73166C1.26134 3.46332 1.05155 3.06681 0.910094 2.71232C0.902042 2.69215 0.894256 2.67222 0.886732 2.65258ZM0.361491 5.81068L0.00853144 5.73216C-0.0161051 5.84448 0.0135003 5.96207 0.0884239 6.04896C0.163347 6.13584 0.275667 6.18188 0.389683 6.17321L0.361491 5.81068Z" fill="white"/>
<path d="M0.886732 2.65258C1.20478 2.74073 1.59928 2.89379 1.95321 3.15387C2.12957 3.28299 2.29869 3.42284 2.45869 3.57197C2.59043 3.69475 2.79179 3.70163 2.9315 3.58812C3.00739 3.52646 3.08742 3.45993 3.17133 3.39018C3.77811 2.88575 4.58802 2.21247 5.50692 1.9899C5.60269 1.9667 5.6849 1.9052 5.73454 1.8196C5.78418 1.73401 5.79694 1.63175 5.76988 1.53647L5.58779 0.895364C6.17974 1.13546 6.71957 1.53169 6.98361 1.74448C7.04344 1.7927 7.11697 1.82054 7.19357 1.82396C8.56833 1.88544 9.48935 2.36415 10.0625 2.86598C10.3511 3.11863 10.5525 3.37801 10.6797 3.59517C10.7433 3.70387 10.7866 3.7989 10.8131 3.87415C10.8263 3.91166 10.8346 3.94212 10.8394 3.9652C10.8443 3.98845 10.8446 3.99998 10.8446 3.99998C10.8446 4.03513 10.8141 4.18382 10.6793 4.41488C10.5523 4.63238 10.3511 4.89068 10.0623 5.14181C9.48871 5.64065 8.56538 6.11472 7.18475 6.17649C7.108 6.17993 7.03433 6.20787 6.97443 6.25627C6.70666 6.47264 6.17262 6.86507 5.58806 7.10369L5.76988 6.46353C5.79693 6.36828 5.78418 6.26606 5.73459 6.18048C5.68499 6.0949 5.60283 6.03338 5.5071 6.01014C4.58343 5.78591 3.76658 5.10589 3.15937 4.60039C3.07821 4.53283 3.0008 4.46838 2.92738 4.40856C2.7877 4.29475 2.58611 4.30148 2.45423 4.42434C2.29564 4.57209 2.12852 4.7103 1.95374 4.83825C1.5998 5.09833 1.20477 5.25177 0.886722 5.33992C0.89425 5.32027 0.902041 5.30033 0.910098 5.28014C1.05155 4.92562 1.26136 4.52903 1.54407 4.26057C1.61643 4.19186 1.65743 4.09619 1.65742 3.9961C1.65741 3.89602 1.61639 3.80036 1.54403 3.73166C1.26134 3.46332 1.05155 3.06681 0.910094 2.71232C0.902042 2.69215 0.894256 2.67222 0.886732 2.65258Z" fill="white"/>
<path d="M9.40538 3.99894C9.5845 3.99894 9.7297 3.82954 9.7297 3.62057C9.7297 3.41159 9.5845 3.24219 9.40538 3.24219C9.22626 3.24219 9.08105 3.41159 9.08105 3.62057C9.08105 3.82954 9.22626 3.99894 9.40538 3.99894Z" fill="#242B35"/>
<path fill-rule="evenodd" clip-rule="evenodd" d="M8.68935 1.45466C8.85763 1.55387 8.91487 1.77287 8.81721 1.94381C8.46019 2.56869 8.27215 3.27835 8.27215 4.00084C8.27215 4.72334 8.46019 5.433 8.81721 6.05788C8.91487 6.22882 8.85763 6.44782 8.68935 6.54703C8.52107 6.64624 8.30548 6.58809 8.20781 6.41715C7.78844 5.68313 7.56757 4.84953 7.56757 4.00084C7.56757 3.15216 7.78844 2.31856 8.20781 1.58454C8.30548 1.4136 8.52107 1.35545 8.68935 1.45466Z" fill="#242B35"/>
</svg>
