<svg width="12" height="11" viewBox="0 0 12 11" fill="none" xmlns="http://www.w3.org/2000/svg">
<path d="M7.2341 3.60828C6.30598 2.58485 5.76973 1.12843 5.57723 0.0426743L5.57035 0.0065918C4.41192 0.0918777 3.28098 0.528148 2.35629 1.30556L6.00004 4.7826L7.2341 3.605V3.60828Z" fill="#FF2929"/>
<path d="M9.64369 1.30881C8.67775 0.492034 7.48494 0.0590441 6.2715 0C6.45369 0.974228 6.92463 2.24696 7.72213 3.14246L9.64369 1.30881Z" fill="#FF2929"/>
<path d="M11.5 4.98939C11.4416 3.83475 10.9844 2.69651 10.1284 1.77148L8.20686 3.60513C9.1453 4.36287 10.4791 4.81226 11.5 4.98939Z" fill="#FF2929"/>
<path d="M4.28127 6.42613L5.51533 5.24853L1.87158 1.77148C1.05345 2.65387 0.599705 3.73306 0.51033 4.8385L0.548143 4.84506C1.68252 5.02875 3.21221 5.54047 4.28471 6.42613H4.28127Z" fill="#FF2929"/>
<path d="M0.5 5.50757C0.558438 6.66221 1.01562 7.80045 1.87156 8.72547L3.79313 6.89182C2.85469 6.13409 1.52094 5.6847 0.5 5.50757Z" fill="#FF2929"/>
<path d="M2.35629 9.1879C3.32223 10.0047 4.51504 10.4377 5.72848 10.4967C5.54629 9.52248 5.07535 8.24975 4.27785 7.35425L2.35629 9.1879Z" fill="#FF2929"/>
<path d="M4.76588 6.88854C5.69057 7.91197 6.22682 9.36839 6.42276 10.4509L6.42963 10.4869C7.58807 10.4017 8.71901 9.96539 9.64369 9.18798L5.99995 5.71094L4.76588 6.88854Z" fill="#FF2929"/>
<path d="M7.71877 4.0708L6.48471 5.2484L10.1285 8.72545C10.9466 7.84306 11.4003 6.76387 11.4897 5.65843L11.4519 5.65187C10.3175 5.46818 8.78783 4.95646 7.71877 4.0708Z" fill="#FF2929"/>
</svg>
