<svg width="14" height="9" viewBox="0 0 14 9" fill="none" xmlns="http://www.w3.org/2000/svg">
<path d="M14 8.25C14 8.66421 13.6642 9 13.25 9H0.75C0.335786 9 0 8.66421 0 8.25C0 7.83579 0.335786 7.5 0.75 7.5H13.25C13.6642 7.5 14 7.83579 14 8.25ZM14 4.5C14 4.91421 13.6642 5.25 13.25 5.25H0.75C0.335786 5.25 0 4.91421 0 4.5C0 4.08579 0.335786 3.75 0.75 3.75H13.25C13.6642 3.75 14 4.08579 14 4.5ZM14 0.75C14 1.16421 13.6642 1.5 13.25 1.5H0.75C0.335786 1.5 0 1.16421 0 0.75C0 0.335786 0.335786 0 0.75 0H13.25C13.6642 0 14 0.335786 14 0.75Z" fill="white"/>
</svg>
