<svg width="11" height="11" viewBox="0 0 11 11" fill="none" xmlns="http://www.w3.org/2000/svg">
<path d="M1.21287 7.30939C1.20982 6.02047 2.26716 4.95703 3.55913 4.95703C4.8511 4.95703 5.90844 6.01437 5.90844 7.3033C5.90844 8.59526 4.85415 9.65261 3.56218 9.65565C2.27326 9.6587 1.21591 8.60441 1.21287 7.30939ZM3.73586 7.95233C3.81204 8.04069 3.86994 8.10163 3.92783 8.16867C4.08628 8.35454 4.28129 8.43072 4.51897 8.3515C4.73226 8.28141 4.88767 8.05897 4.909 7.8213C4.93337 7.55925 4.81453 7.36119 4.64085 7.18141C4.25996 6.78529 3.88212 6.38917 3.62312 5.89554C3.57741 5.80717 3.52866 5.8346 3.4921 5.90468C3.25442 6.36174 2.90401 6.72739 2.56273 7.10219C2.47132 7.20274 2.37686 7.30634 2.30373 7.41909C2.13309 7.68723 2.19403 8.02546 2.43475 8.20828C2.67852 8.39416 3.00456 8.36368 3.23004 8.13211C3.27575 8.08335 3.32146 8.03765 3.38849 7.96756C3.38849 8.03155 3.38849 8.06202 3.38849 8.08945C3.38849 8.32103 3.38545 8.5526 3.39154 8.78723C3.39459 8.89083 3.45858 8.95482 3.55304 8.96092C3.6475 8.96396 3.71758 8.90302 3.73282 8.80552C3.73891 8.76286 3.73586 8.72324 3.73586 8.68058C3.73586 8.44291 3.73586 8.21133 3.73586 7.95233Z" fill="white"/>
<path d="M6.79826 5.11613C6.98718 4.97901 7.17001 4.84799 7.35283 4.71392C7.41987 4.66516 7.48082 4.6804 7.54176 4.7261C7.70021 4.84189 7.8617 4.95768 8.0232 5.07652C8.08719 5.12223 8.15118 5.17098 8.2304 5.11613C8.31572 5.05519 8.28525 4.97597 8.25782 4.89979C8.19688 4.71696 8.13899 4.53109 8.075 4.34826C8.04453 4.2599 8.06586 4.19591 8.14203 4.14106C8.30658 4.02527 8.46807 3.90339 8.63262 3.7876C8.6966 3.74189 8.75755 3.684 8.71184 3.61087C8.68442 3.56516 8.60519 3.52555 8.5473 3.5225C8.34619 3.51336 8.14508 3.51641 7.94093 3.51945C7.84037 3.5225 7.78552 3.47984 7.7581 3.38538C7.70021 3.19646 7.63622 3.01059 7.57527 2.82167C7.5509 2.74854 7.52347 2.68455 7.43206 2.68455C7.34065 2.68455 7.31627 2.75463 7.29189 2.82472C7.234 3.00145 7.17001 3.17818 7.12126 3.35491C7.08774 3.47984 7.01766 3.52555 6.88968 3.51945C6.70076 3.51031 6.50879 3.51641 6.31987 3.51641C6.24674 3.51641 6.18275 3.5286 6.15533 3.61087C6.1279 3.69009 6.17666 3.73885 6.23455 3.7815C6.3991 3.90034 6.56059 4.01918 6.72513 4.13497C6.80436 4.18982 6.82873 4.25685 6.79522 4.35131C6.73732 4.5189 6.68247 4.68649 6.62153 4.87541C6.20103 4.3635 5.70436 3.97652 5.10713 3.71752C5.14674 3.36405 5.26558 3.04411 5.45754 2.74854C5.98774 1.93192 6.93538 1.52665 7.88912 1.71253C8.81544 1.89231 9.54675 2.62361 9.73567 3.56516C10.0099 4.92112 9.02264 6.23442 7.64536 6.35021C7.36198 6.37458 7.36198 6.37458 7.27666 6.10949C7.17001 5.75907 7.00851 5.43303 6.79826 5.11613Z" fill="white"/>
<path d="M9.20512 6.04297C9.41537 6.25322 9.61647 6.45737 9.82368 6.66762C9.15941 7.25876 8.37631 7.56042 7.45609 7.5848C7.45609 7.29533 7.45609 7.01195 7.45609 6.71333C8.09598 6.69505 8.69625 6.48784 9.20512 6.04297Z" fill="white"/>
<path d="M7.60547 0.453125C8.46475 0.504926 9.19605 0.809636 9.81461 1.36116C9.60741 1.57141 9.4063 1.77557 9.1991 1.98581C8.92181 1.74814 8.60796 1.55617 8.24841 1.45562C8.06863 1.40382 7.88275 1.38249 7.70297 1.33983C7.66641 1.33069 7.60852 1.30022 7.60852 1.27584C7.60547 1.00465 7.60547 0.736505 7.60547 0.453125Z" fill="white"/>
<path d="M1.79483 5.27488C1.58763 5.06767 1.38347 4.86352 1.17627 4.65327C1.80092 4.10175 2.53527 3.79399 3.38846 3.74219C3.38846 4.02252 3.38846 4.29371 3.38541 4.56186C3.38541 4.58319 3.34885 4.6228 3.32752 4.6228C2.74248 4.67765 2.23361 4.90313 1.79483 5.27488Z" fill="white"/>
<path d="M3.38838 10.8686C2.53214 10.8168 1.79779 10.5121 1.17314 9.9545C1.38339 9.74425 1.58449 9.54314 1.7917 9.33594C1.82826 9.36641 1.87397 9.39993 1.91663 9.43344C2.32189 9.74425 2.77591 9.92707 3.28477 9.98497C3.32134 9.98802 3.38533 10.0307 3.38533 10.0551C3.39142 10.3201 3.38838 10.5852 3.38838 10.8686Z" fill="white"/>
<path d="M3.73246 3.74219C4.59174 3.79704 5.32305 4.10174 5.94466 4.65632C5.7405 4.86047 5.53634 5.06158 5.32609 5.27488C5.30476 5.25964 5.27429 5.23527 5.24078 5.20784C4.82637 4.87876 4.35407 4.68374 3.82692 4.62889C3.79341 4.62585 3.73856 4.58623 3.73856 4.5649C3.73246 4.29371 3.73246 4.02557 3.73246 3.74219Z" fill="white"/>
<path d="M5.65221 1.95753C5.46634 1.77166 5.26219 1.5675 5.05498 1.3603C5.67354 0.808776 6.40485 0.504066 7.25499 0.449219C7.25499 0.74174 7.25499 1.02817 7.25499 1.29326C6.97161 1.37249 6.67908 1.42124 6.41399 1.53094C6.1428 1.64368 5.90207 1.81432 5.65221 1.95753Z" fill="white"/>
<path d="M5.93551 9.96317C5.32305 10.5421 4.43634 10.8529 3.73246 10.8621C3.73246 10.6549 3.73246 10.4477 3.73246 10.2374C3.73246 10.0089 3.73246 10.0058 3.96099 9.96926C4.45767 9.89004 4.8995 9.69198 5.28344 9.37203C5.29867 9.35984 5.31391 9.34766 5.31695 9.34766C5.52416 9.55486 5.72831 9.75597 5.93551 9.96317Z" fill="white"/>
<path d="M5.61593 9.10019C5.76523 8.83814 5.93282 8.59438 6.04252 8.32623C6.15222 8.06418 6.20402 7.77471 6.28324 7.48828C6.54224 7.48828 6.82562 7.48828 7.109 7.48828C7.17909 8.07028 6.66413 9.3074 6.20402 9.68828C6.00291 9.48413 5.79875 9.28302 5.61593 9.10019Z" fill="white"/>
<path d="M6.213 4.92578C6.76757 5.55044 7.07228 6.28174 7.12408 7.13493C6.8986 7.13493 6.68225 7.13493 6.46591 7.13493C6.25566 7.13493 6.25871 7.13493 6.22519 6.92468C6.15206 6.44628 5.96619 6.01359 5.66452 5.63271C5.64015 5.59919 5.61272 5.56872 5.59444 5.54129C5.7986 5.33714 5.99971 5.13603 6.213 4.92578Z" fill="white"/>
<path d="M0.908034 4.92188C1.11828 5.13212 1.31939 5.33323 1.52964 5.54348C1.14571 5.99141 0.92327 6.51551 0.874517 7.12493C0.585043 7.12493 0.298615 7.12493 0 7.12493C0.0487535 6.27783 0.353463 5.54653 0.908034 4.92188Z" fill="white"/>
<path d="M9.47341 2.25137C9.68061 2.04417 9.88172 1.84306 10.092 1.63281C10.6404 2.25137 10.9482 2.98268 11 3.83586C10.9482 3.83891 10.9025 3.845 10.8537 3.845C10.6404 3.845 10.4272 3.845 10.2139 3.845C10.1621 3.845 10.1194 3.84805 10.1133 3.77492C10.0615 3.20511 9.84821 2.70234 9.47646 2.26661C9.47341 2.25747 9.47036 2.24833 9.47341 2.25137Z" fill="white"/>
<path d="M10.0889 6.39522C9.88474 6.19106 9.68058 5.98691 9.47338 5.7797C9.73238 5.47804 9.93044 5.12763 10.031 4.7315C10.0706 4.5822 10.0858 4.42375 10.1194 4.27139C10.1255 4.24092 10.162 4.19522 10.1864 4.19522C10.4515 4.18912 10.7196 4.19217 10.9847 4.19217C11.0122 4.79245 10.6861 5.7797 10.0889 6.39522Z" fill="white"/>
<path d="M0.904988 9.6868C0.356511 9.06214 0.0487535 8.33389 0 7.47765C0.191967 7.47765 0.371746 7.47765 0.554572 7.47765C0.658173 7.47765 0.786151 7.44718 0.853187 7.49898C0.911082 7.54164 0.8928 7.67876 0.911082 7.77627C0.996401 8.23333 1.18227 8.64469 1.47784 9.00425C1.49612 9.02863 1.51441 9.04995 1.52964 9.06824C1.31939 9.27239 1.11524 9.47655 0.904988 9.6868Z" fill="white"/>
<path d="M4.78083 3.576C4.4944 3.51506 4.21711 3.46021 3.92459 3.39927C4.04038 2.72891 4.3329 2.14082 4.78692 1.62891C4.99412 1.83916 5.19523 2.04026 5.40243 2.25356C5.07639 2.62835 4.86614 3.07323 4.78083 3.576Z" fill="white"/>
</svg>
