<svg width="110" height="110" viewBox="0 0 110 110" fill="none" xmlns="http://www.w3.org/2000/svg">
<path d="M11.3925 47.3106L-2.87978e-06 44.1183L1.37056 39.3285C2.11681 36.7206 4.40424 35.953 8.23287 37.0258C10.5985 37.6887 12.0778 38.7076 12.6706 40.0826C12.9878 40.8148 13.0187 41.6275 12.7631 42.5208L11.3925 47.3106ZM7.60033 39.1776C5.71196 38.6485 4.45949 38.6192 3.84294 39.0897C3.56941 39.3014 3.37242 39.6177 3.25196 40.0387L2.54685 42.5029L10.064 44.6093L10.7691 42.1451C11.1364 40.8616 10.0801 39.8725 7.60033 39.1776Z" fill="#F07E2D"/>
<path d="M7.47724 26.5647C7.49395 26.2536 7.54792 25.9739 7.63915 25.7254C7.73642 25.4682 7.82733 25.2775 7.91187 25.1535C8.00245 25.0207 8.45817 24.3905 9.27902 23.2629C10.0909 22.1294 10.7304 21.3062 11.1974 20.7931L12.7548 21.8329L10.137 25.6725C9.91352 26.0002 9.85518 26.2577 9.96194 26.4449C10.051 26.5817 10.203 26.7219 10.4178 26.8653L11.9483 27.8872L14.7638 24.0442L16.3211 25.084L13.7607 29.0973L15.2913 30.1192C15.6314 30.3462 15.9006 30.3907 16.0991 30.2525C16.2433 30.1555 16.394 29.9918 16.551 29.7616L19.0783 26.0549L20.6222 27.0857C20.3829 27.5704 19.6998 28.7061 18.5728 30.4928L18.0243 31.3832C17.976 31.4541 17.9186 31.5382 17.8522 31.6356C17.7918 31.7242 17.7013 31.8378 17.5807 31.9764C17.4691 32.121 17.3006 32.2727 17.0751 32.4315C16.8496 32.5903 16.6154 32.7046 16.3724 32.7744C15.8087 32.9135 15.1911 32.759 14.5199 32.3108L8.66629 28.4026C7.8518 27.8588 7.45545 27.2461 7.47724 26.5647Z" fill="#F07E2D"/>
<path d="M24.6269 23.228L17.4043 13.8544L19.2418 12.4679L27.6616 15.6933L22.9945 9.63631L24.8061 8.26933L32.0288 17.6429L30.2171 19.0099L21.8337 15.8583L26.4515 21.8513L24.6269 23.228Z" fill="#F07E2D"/>
<path d="M33.5993 6.10778L32.9315 4.14614L41.2449 1.37504L41.9126 3.33668L38.7932 4.37649L41.9144 13.546L39.7631 14.2631L36.6419 5.09359L33.5993 6.10778Z" fill="#F07E2D"/>
<path d="M49.9284 11.6513L54.1154 5.26393e-06L56.687 0.0413183L60.344 11.8186L57.9342 11.7799L57.1357 9.17363L53.2541 9.11127L52.3544 11.6903L49.9284 11.6513ZM53.8851 7.1363L56.6346 7.18046L55.3772 2.96592L53.8851 7.1363Z" fill="#F07E2D"/>
<path d="M66.3761 10.8345L69.4769 1.90284L71.6186 2.63096L68.7228 10.9722C68.5896 11.3557 68.6161 11.6242 68.8023 11.7778C68.9342 11.8903 69.1328 11.9917 69.398 12.0819L73.2377 13.3872L72.5598 15.3401L67.9551 13.7747C66.4049 13.2477 65.8786 12.2676 66.3761 10.8345Z" fill="#F07E2D"/>
<path d="M84.2477 22.9184L93.069 15.1025L96.4246 18.8113C98.2517 20.8306 97.683 23.1536 94.7185 25.7803C92.8867 27.4032 91.2254 28.0946 89.7343 27.8545C88.9395 27.7279 88.2292 27.3188 87.6034 26.6272L84.2477 22.9184ZM93.2199 24.1001C94.6821 22.8045 95.3773 21.7732 95.3056 21.006C95.2712 20.664 95.1065 20.3301 94.8116 20.0041L93.0852 18.0961L87.2647 23.2533L88.9911 25.1613C89.8902 26.1551 91.2998 25.8013 93.2199 24.1001Z" fill="#F07E2D"/>
<path d="M104.057 30.7578C104.313 30.9388 104.522 31.1341 104.684 31.3435C104.851 31.5628 104.964 31.741 105.024 31.878C105.089 32.0249 105.38 32.7431 105.898 34.0328C106.426 35.3182 106.783 36.2933 106.969 36.9581L105.247 37.697L103.387 33.4531C103.228 33.0909 103.041 32.9039 102.824 32.8923C102.66 32.893 102.459 32.9443 102.221 33.0462L100.53 33.7724L102.287 38.1828L100.565 38.9217L98.5264 34.6323L96.8347 35.3585C96.4588 35.5198 96.2763 35.7203 96.2873 35.9599C96.2923 36.1322 96.3506 36.3456 96.4622 36.6002L98.2581 40.6972L96.5515 41.4298C96.2677 40.97 95.6685 39.7907 94.7539 37.8918L94.2909 36.9564C94.2566 36.8781 94.2158 36.7851 94.1686 36.6774C94.1257 36.5795 94.0777 36.4431 94.0245 36.2682C93.9615 36.0975 93.9229 35.8756 93.909 35.6024C93.895 35.3292 93.9236 35.0727 93.9948 34.8327C94.1793 34.2883 94.6425 33.8568 95.3845 33.5383L101.854 30.761C102.755 30.3746 103.489 30.3735 104.057 30.7578Z" fill="#F07E2D"/>
<path d="M97.6937 46.7256L109.478 45.5883L109.973 50.6067C110.087 51.7643 109.842 52.635 109.239 53.2186C108.696 53.7535 107.834 54.0779 106.653 54.1918C105.966 54.2581 105.369 54.2407 104.86 54.1397C104.353 54.0493 103.955 53.9108 103.665 53.7243C103.388 53.5473 103.164 53.3063 102.993 53.0011C102.759 52.6056 102.617 52.1529 102.566 51.6431C102.53 51.2713 102.519 50.6666 102.534 49.8289C102.549 48.9911 102.565 48.55 102.582 48.5054L97.9135 48.956L97.6937 46.7256ZM107.959 50.6241L107.702 48.0113L104.257 48.3438L104.514 50.9566C104.539 51.2115 104.608 51.4139 104.72 51.5639C104.97 51.9043 105.536 52.032 106.416 51.9471C107.52 51.8298 108.035 51.3888 107.959 50.6241Z" fill="#F07E2D"/>
<path d="M100.985 61.2886C101.369 61.301 101.803 61.3412 102.285 61.4091C102.768 61.4771 103.34 61.5877 104.001 61.741C104.673 61.8967 105.294 62.079 105.865 62.288C106.444 62.5098 106.922 62.7357 107.3 62.9657C107.688 63.1981 108.002 63.4626 108.241 63.7593C108.481 64.0561 108.658 64.3382 108.772 64.6057C108.884 64.8836 108.946 65.2049 108.959 65.5697C108.989 66.1465 108.934 66.731 108.794 67.3232C108.651 67.9259 108.537 68.3598 108.452 68.6251C108.365 68.9007 108.249 69.1807 108.104 69.465C107.967 69.7621 107.81 70.0052 107.632 70.1942C107.455 70.3831 107.24 70.5636 106.989 70.7356C106.746 70.9204 106.455 71.0502 106.116 71.1251C105.788 71.2025 105.416 71.2533 105 71.2775C104.169 71.326 103.234 71.2299 102.195 70.989C101.155 70.7481 100.362 70.5204 99.8145 70.3059C99.2752 70.1042 98.8156 69.8936 98.4356 69.674C98.0661 69.4569 97.7602 69.2051 97.5178 68.9188C97.2835 68.6453 97.1054 68.3684 96.9835 68.0881C96.8696 67.8205 96.8047 67.5096 96.7889 67.1552C96.7398 66.3328 96.9061 65.3027 97.2876 64.065C97.4715 63.4281 97.6609 62.9788 97.8558 62.7171C98.0506 62.4554 98.2421 62.2312 98.4302 62.0447C98.6264 61.8709 98.8414 61.7344 99.0753 61.6352C99.3198 61.5384 99.5997 61.4553 99.9151 61.3859C100.241 61.319 100.598 61.2865 100.985 61.2886ZM105.68 64.6126C105.42 64.4974 105.099 64.3792 104.718 64.258C104.337 64.1368 103.852 64.008 103.264 63.8718C102.676 63.7355 102.167 63.6395 101.737 63.5837C101.318 63.5304 100.95 63.5164 100.634 63.5418C100.316 63.5776 100.06 63.6772 99.8659 63.8405C99.5198 64.1329 99.2558 64.6636 99.0738 65.4325C98.9017 66.1598 98.9091 66.7369 99.0961 67.1638C99.3641 67.7629 100.406 68.273 102.223 68.6939C103.451 68.9786 104.281 69.0996 104.712 69.057C105.14 69.0248 105.452 68.971 105.647 68.8956C105.84 68.8307 106.007 68.7104 106.148 68.5349C106.361 68.2445 106.518 67.881 106.622 67.4446C106.725 67.0083 106.787 66.6993 106.808 66.5178C106.837 66.3491 106.848 66.16 106.842 65.9504C106.834 65.7513 106.786 65.5811 106.697 65.4401C106.617 65.3118 106.496 65.1687 106.334 65.0106C106.169 64.8629 105.952 64.7302 105.68 64.6126Z" fill="#F07E2D"/>
<path d="M96.5826 87.9551L98.1067 89.3654L92.1297 95.6905L90.6056 94.2801L92.8483 91.9068L85.7242 85.3142L87.2709 83.6774L94.3951 90.27L96.5826 87.9551Z" fill="#F07E2D"/>
<path d="M83.9491 101.163C83.7931 101.433 83.6181 101.659 83.424 101.84C83.2205 102.027 83.053 102.156 82.9213 102.229C82.7802 102.308 82.0878 102.668 80.8441 103.309C79.6056 103.96 78.6616 104.41 78.0122 104.661L77.0943 103.041L81.1713 100.778C81.5193 100.585 81.6881 100.381 81.6778 100.167C81.6604 100.005 81.5884 99.8125 81.4618 99.5891L80.5596 97.9976L76.3047 100.176L75.3867 98.5566L79.4913 96.113L78.5892 94.5215C78.3887 94.1678 78.1686 94.0086 77.9289 94.0438C77.7561 94.0662 77.5475 94.1453 77.303 94.2811L73.367 96.4659L72.457 94.8605C72.8903 94.5343 74.0149 93.8244 75.8307 92.7308L76.724 92.1799C76.7992 92.1381 76.8885 92.0885 76.992 92.0311C77.086 91.9789 77.2183 91.9177 77.3887 91.8476C77.5539 91.7681 77.7731 91.7076 78.0463 91.6661C78.3195 91.6246 78.5803 91.6266 78.8287 91.6722C79.3948 91.7985 79.8757 92.2106 80.2714 92.9086L83.7217 98.9954C84.2018 99.8423 84.2776 100.565 83.9491 101.163Z" fill="#F07E2D"/>
<path d="M64.4619 109.036C63.4467 109.236 62.6389 109.129 62.0384 108.715C61.3132 108.227 60.8229 107.35 60.5674 106.083C60.2697 104.608 60.3843 103.568 60.9111 102.963C61.0804 102.766 61.2136 102.637 61.311 102.574C61.4083 102.511 61.551 102.429 61.7393 102.326L58.6224 98.241L61.1287 97.7458L63.9252 101.715L65.9206 101.549L64.9991 96.9812L67.2198 96.5425L69.5379 108.033L64.4619 109.036ZM66.2531 103.279L63.6199 103.799C63.2075 103.881 62.9378 104.043 62.8108 104.285C62.6733 104.53 62.6689 104.972 62.7977 105.61C62.9265 106.248 63.1092 106.664 63.346 106.857C63.5849 107.06 63.8947 107.124 64.2754 107.048L66.9086 106.528L66.2531 103.279Z" fill="#F07E2D"/>
<path d="M53.3015 98.3838L51.7519 110L49.4747 109.703L45.8255 101.589L44.8242 109.095L42.5791 108.802L44.1287 97.1855L46.3738 97.4788L50.0497 105.515L51.0404 98.0884L53.3015 98.3838Z" fill="#F07E2D"/>
<path d="M37.2128 97.9704C37.1064 98.3371 36.9608 98.744 36.7759 99.191C36.5911 99.6381 36.3424 100.161 36.0299 100.759C35.7125 101.367 35.3812 101.92 35.0363 102.417C34.6768 102.919 34.3379 103.323 34.0196 103.63C33.6965 103.946 33.3599 104.183 33.0098 104.341C32.6598 104.499 32.3395 104.6 32.049 104.644C31.7489 104.683 31.4182 104.664 31.0568 104.588C30.4833 104.475 29.9231 104.279 29.376 103.999C28.8194 103.714 28.4212 103.498 28.1816 103.352C27.9324 103.2 27.686 103.02 27.4424 102.811C27.1842 102.607 26.9841 102.396 26.8421 102.179C26.7001 101.962 26.5755 101.712 26.4682 101.428C26.3463 101.15 26.2901 100.838 26.2996 100.494C26.3041 100.159 26.3454 99.7892 26.4233 99.3838C26.5793 98.573 26.9028 97.6974 27.3939 96.7572C27.885 95.817 28.3028 95.11 28.6475 94.6365C28.9776 94.1675 29.2969 93.7772 29.6055 93.4657C29.9092 93.1637 30.2313 92.9313 30.5717 92.7685C30.8976 92.6102 31.2131 92.5068 31.5181 92.4582C31.8086 92.4143 32.1298 92.4281 32.4815 92.4997C33.3009 92.654 34.2713 93.0661 35.3929 93.7361C35.9731 94.0689 36.3678 94.361 36.577 94.6124C36.7862 94.8639 36.9593 95.1028 37.0964 95.3294C37.2189 95.5605 37.3002 95.8007 37.3403 96.0499C37.3755 96.3085 37.3885 96.598 37.3793 96.9182C37.3652 97.248 37.3097 97.5987 37.2128 97.9704ZM32.7995 101.67C32.9765 101.448 33.1711 101.168 33.3835 100.832C33.5958 100.495 33.8409 100.061 34.1186 99.5288C34.3964 98.9969 34.6153 98.5312 34.7754 98.1317C34.9304 97.7417 35.0342 97.3916 35.0867 97.0815C35.1297 96.7665 35.0947 96.4959 34.9818 96.2696C34.7795 95.8653 34.3232 95.4815 33.613 95.1183C32.9412 94.7747 32.3728 94.6404 31.9079 94.7155C31.2541 94.8264 30.4982 95.7034 29.64 97.3464C29.0596 98.4576 28.7376 99.2256 28.6738 99.6503C28.6005 100.07 28.5769 100.383 28.6031 100.589C28.6198 100.79 28.6969 100.98 28.8346 101.159C29.0677 101.434 29.3857 101.675 29.7888 101.881C30.1919 102.087 30.48 102.223 30.6531 102.287C30.8116 102.356 30.9944 102.414 31.2016 102.459C31.3991 102.5 31.578 102.496 31.7381 102.445C31.8837 102.399 32.0539 102.318 32.2488 102.201C32.434 102.079 32.6176 101.902 32.7995 101.67Z" fill="#F07E2D"/>
<path d="M26.0423 87.8715L17.5172 96.0734L13.9505 92.443C13.1277 91.6056 12.7682 90.7708 12.8719 89.9386C12.9593 89.182 13.43 88.3929 14.284 87.5712C14.7809 87.0931 15.2608 86.7361 15.7236 86.5C16.1789 86.2563 16.5791 86.1179 16.9242 86.0848C17.2539 86.0515 17.5825 86.1016 17.9099 86.235C18.344 86.4001 18.7423 86.6671 19.1046 87.0359C19.3688 87.3049 19.7604 87.7726 20.2793 88.4391C20.7982 89.1056 21.065 89.4617 21.0796 89.5074L24.4571 86.258L26.0423 87.8715ZM15.5192 91.1804L17.3761 93.0705L19.8684 90.6727L18.0115 88.7826C17.8303 88.5982 17.6482 88.482 17.4651 88.434C17.0531 88.3221 16.5288 88.5725 15.8922 89.185C15.1 89.9621 14.9757 90.6272 15.5192 91.1804Z" fill="#F07E2D"/>
<path d="M17.0599 77.0287L6.75146 82.7931L5.63737 80.842L15.9458 75.0777L17.0599 77.0287Z" fill="#F07E2D"/>
<path d="M11.1867 70.2743L1.98628 72.7838L1.38454 70.6234L9.97678 68.2798C10.3718 68.1721 10.5808 67.9988 10.6038 67.7601C10.6232 67.5888 10.5957 67.3694 10.5212 67.1019L9.44232 63.2286L11.4539 62.6799L12.7477 67.3248C13.1832 68.8885 12.6629 69.8717 11.1867 70.2743Z" fill="#F07E2D"/>
</svg>
