<svg width="230" height="230" viewBox="0 0 230 230" fill="none" xmlns="http://www.w3.org/2000/svg">
<path d="M152.209 5.17448L145.651 31.4407L139.848 30.0002L145.36 7.92134L136.122 5.62789L130.609 27.7068L124.806 26.2663L131.364 0L152.209 5.17448Z" fill="#F2F2F2"/>
<path d="M171.166 16.8541C173.721 16.1791 176.782 17.0864 180.349 19.5759C183.916 22.0653 185.818 24.6223 186.057 27.2469C186.311 29.8501 184.896 33.3478 181.813 37.74C178.729 42.1323 175.91 44.6659 173.355 45.3409C170.816 45.9944 167.762 45.0765 164.195 42.587C160.629 40.0975 158.718 37.5512 158.465 34.9481C158.248 32.3385 159.681 28.8376 162.764 24.4453C165.847 20.0531 168.648 17.5227 171.166 16.8541ZM179.885 27.4882C180.02 26.0184 179.25 24.6986 177.574 23.5289C175.898 22.3591 174.38 22.0817 173.02 22.6967C171.681 23.3266 169.981 25.1093 167.921 28.0446C165.86 30.9799 164.762 33.1824 164.627 34.6522C164.513 36.1369 165.294 37.4642 166.97 38.634C168.646 39.8037 170.154 40.0736 171.492 39.4437C172.852 38.8287 174.563 37.0536 176.623 34.1183C178.684 31.183 179.771 28.9729 179.885 27.4882Z" fill="#F2F2F2"/>
<path d="M195.847 68.4402L192.543 71.4243C190.579 69.9425 188.601 67.8141 186.608 65.039C184.174 61.6496 183.312 58.6597 184.023 56.0693C184.734 53.4789 187.182 50.6896 191.367 47.7014C195.552 44.7131 198.989 43.3008 201.678 43.4642C204.366 43.6277 206.927 45.4041 209.361 48.7935C211.126 51.2508 212.456 53.6177 213.352 55.8943L209.422 58.0751C208.296 56.2833 206.874 54.1906 205.155 51.7969C204.014 50.2081 202.72 49.4812 201.275 49.6161C199.865 49.7571 197.78 50.8135 195.018 52.7854C192.256 54.7573 190.571 56.3933 189.962 57.6934C189.389 58.9994 189.673 60.4469 190.814 62.0356C192.929 64.9802 194.607 67.115 195.847 68.4402Z" fill="#F2F2F2"/>
<path d="M227.999 93.3461L201.868 100.68L200.237 94.9023L222.202 88.7377L221.264 85.4147C220.845 83.9294 219.889 83.3419 218.396 83.6522C214.391 84.4232 211.323 84.9446 209.192 85.2165C207.069 85.5135 205.194 85.578 203.566 85.4099C198.84 85.0789 196.133 82.7278 195.444 78.3568L199.796 76.6872C200.25 77.6195 200.76 78.3184 201.328 78.784C201.902 79.2748 202.665 79.5634 203.616 79.6498C205.096 79.7777 206.822 79.7144 208.794 79.4599C210.791 79.1983 213.7 78.6942 217.522 77.9476C221.387 77.1617 223.856 78.6694 224.929 82.4708L227.999 93.3461Z" fill="#F2F2F2"/>
<path d="M228.394 134.051L208.717 126.015C206.385 125.064 204.651 124.049 203.514 122.971C202.403 121.895 201.832 120.462 201.799 118.673C201.767 116.884 202.116 114.727 202.847 112.202L207.049 113.166C206.74 115.693 206.666 117.304 206.828 117.999C207.015 118.722 207.733 119.376 208.983 119.963L209.827 120.337L209.929 118.886C210.052 117.133 211.038 116.033 212.888 115.584L230 111.18L229.57 117.3L214.91 120.574C214.59 120.63 214.416 120.855 214.389 121.247L214.32 122.228L228.824 127.931L228.394 134.051Z" fill="#F2F2F2"/>
<path d="M198.852 140.198L218.83 148.123C220.415 148.752 221.509 149.764 222.111 151.158C222.713 152.551 222.709 154.015 222.097 155.547C220.001 160.8 218.382 164.468 217.241 166.551L213.245 164.67L216.695 156.023C216.976 155.318 217.021 154.744 216.83 154.302C216.654 153.895 216.2 153.545 215.468 153.255L196.625 145.78L198.852 140.198Z" fill="#F2F2F2"/>
<path d="M173.003 180.999L176.794 176.704L188.951 187.371C189.855 188.165 190.692 189.056 191.461 190.044L191.643 189.838C190.998 188.749 190.44 187.582 189.97 186.334L183.805 168.76L187.726 164.317L208.085 182.182L204.32 186.448L192.37 175.962C191.524 175.22 190.649 174.313 189.745 173.241L189.589 173.418C190.112 174.329 190.651 175.498 191.206 176.925L197.283 194.422L193.362 198.864L173.003 180.999Z" fill="#F2F2F2"/>
<path d="M151.112 195.283L159.527 220.998C156.062 222.373 152.76 223.571 149.62 224.592C145.509 225.93 142.347 225.914 140.134 224.545C137.897 223.184 135.957 219.994 134.314 214.975C132.672 209.956 132.352 206.239 133.353 203.824C134.33 201.417 136.874 199.545 140.985 198.207C144.125 197.186 147.5 196.211 151.112 195.283ZM152.492 218.71L146.797 201.306C146.373 201.444 145.684 201.654 144.729 201.937C143.757 202.254 142.997 202.501 142.449 202.679C140.53 203.303 139.421 204.338 139.122 205.782C138.798 207.235 139.189 209.65 140.295 213.029C141.4 216.408 142.514 218.589 143.635 219.571C144.739 220.586 146.25 220.782 148.169 220.158L152.492 218.71Z" fill="#F2F2F2"/>
<path d="M101.612 207.139L101.462 202.739C103.934 202.547 108.133 202.536 114.058 202.704C115.867 202.755 117.295 203.28 118.343 204.277C119.389 205.301 119.902 206.65 119.88 208.324L119.412 224.715C119.338 226.387 118.75 227.692 117.648 228.629C116.544 229.592 115.088 230.047 113.279 229.996C107.354 229.828 103.163 229.578 100.706 229.247L101.108 224.824L111.529 225.119C112.185 225.138 112.661 224.994 112.958 224.689C113.256 224.383 113.414 223.878 113.435 223.172L113.552 219.055L102.737 218.748L102.86 214.434L113.675 214.741L113.824 209.526C113.845 208.794 113.716 208.267 113.436 207.945C113.157 207.623 112.689 207.453 112.034 207.434L101.612 207.139Z" fill="#F2F2F2"/>
<path d="M60.4642 217.542L69.6811 194.389C70.2133 193.052 71.1376 192.644 72.4541 193.165L75.9279 194.54C76.4886 194.762 76.879 195.057 77.0992 195.426C77.3096 195.819 77.445 196.365 77.5053 197.064L78.7825 213.101C78.905 215.204 78.8992 216.707 78.7652 217.611L79.1675 217.77C79.4806 216.487 79.9275 215.116 80.5081 213.658L86.4592 198.708L91.7614 200.807L82.5445 223.96C82.0123 225.297 81.0758 225.7 79.735 225.17L76.3343 223.824C75.7736 223.602 75.388 223.294 75.1775 222.901C74.9574 222.533 74.8172 221.999 74.7569 221.3L73.5394 205.75C73.4138 204.294 73.3414 202.703 73.3222 200.979L72.9566 200.835C72.3481 202.789 71.86 204.227 71.4922 205.151L65.7299 219.626L60.4642 217.542Z" fill="#F2F2F2"/>
<path d="M31.5449 189.197L37.5422 194.612L52.4616 178.181L56.916 182.203L41.9966 198.633L47.9939 204.048L44.7254 207.647L28.2763 192.797L31.5449 189.197Z" fill="#F2F2F2"/>
<path d="M28.5394 158.083L33.2001 166.136L40.3509 164.285L43.4187 169.586L17.3566 175.57C16.8953 175.715 16.4413 175.689 15.9948 175.493C15.5483 175.297 15.2005 174.984 14.9514 174.554L12.1196 169.661C11.5558 168.687 11.6628 167.825 12.4403 167.076L30.6756 147.569L33.7237 152.835L28.5394 158.083ZM25.1675 161.518L19.1183 167.626C18.1398 168.552 17.4933 169.135 17.1788 169.377L17.7097 170.294C17.9631 170.208 18.3725 170.079 18.9378 169.904C19.5031 169.73 19.9304 169.605 20.2196 169.529L28.55 167.362L25.1675 161.518Z" fill="#F2F2F2"/>
<path d="M0.697435 138.963L20.5667 135.007C21.2611 134.869 21.7319 134.615 21.9789 134.246C22.2208 133.851 22.2673 133.282 22.1184 132.538L20.2929 123.421L24.7144 122.261C25.516 124.795 26.4071 128.511 27.3879 133.41C27.7986 135.461 27.5898 137.09 26.7612 138.295C25.9326 139.5 24.6567 140.274 22.9334 140.617L1.86818 144.81L0.697435 138.963Z" fill="#F2F2F2"/>
<path d="M25.9766 98.9951L0 91.1354C0.855566 87.5134 1.76315 84.1257 2.72274 80.9725C3.97936 76.8432 5.8051 74.2663 8.19998 73.2418C10.6025 72.1922 14.3386 72.4344 19.4085 73.9684C24.4783 75.5024 27.7194 77.3713 29.1319 79.5751C30.5519 81.7539 30.6336 84.9079 29.377 89.0372C28.4174 92.1904 27.2839 95.5097 25.9766 98.9951ZM5.91526 86.6939L23.4965 92.0134C23.626 91.588 23.848 90.9035 24.1625 89.9601C24.4595 88.9841 24.6918 88.2209 24.8593 87.6703C25.4457 85.7433 25.2307 84.2434 24.2141 83.1706C23.2052 82.0727 20.994 81.0074 17.5807 79.9746C14.1673 78.9418 11.7353 78.6023 10.2846 78.9559C8.81647 79.277 7.78919 80.401 7.20277 82.328L5.91526 86.6939Z" fill="#F2F2F2"/>
<path d="M44.3331 51.8643L48.0207 54.2369C46.7759 56.3579 44.4048 59.7826 40.9076 64.511C39.8398 65.9546 38.6005 66.8199 37.1897 67.1068C35.7579 67.3782 34.3629 67.0307 33.0045 66.0641L19.8484 56.3894C18.521 55.381 17.7864 54.1624 17.6445 52.7337C17.4816 51.2895 17.934 49.8456 19.0018 48.402C22.499 43.6736 25.0799 40.4032 26.7443 38.5908L30.1384 41.4259L23.9872 49.7424C23.6004 50.2655 23.4477 50.7347 23.5293 51.15C23.6109 51.5653 23.9349 51.9812 24.5014 52.3979L27.8062 54.8281L34.1895 46.1977L37.6516 48.7437L31.2683 57.3741L35.4543 60.4524C36.0419 60.8844 36.5466 61.0779 36.9686 61.0329C37.3906 60.988 37.7951 60.7039 38.1819 60.1809L44.3331 51.8643Z" fill="#F2F2F2"/>
<path d="M55.5326 47.3867L40.001 25.1868C41.8665 23.6022 44.6169 21.5455 48.2523 19.0168C51.3714 16.8471 53.8536 15.8698 55.699 16.0849C57.5659 16.285 59.4823 17.79 61.4481 20.5998C63.414 23.4096 64.2085 25.7109 63.8317 27.5036C63.4615 29.2598 61.8674 31.1181 59.0494 33.0782C57.6297 34.0658 56.1714 34.9526 54.6747 35.7387L60.4371 43.9751L55.5326 47.3867ZM52.2211 32.2317L55.6737 29.8301C56.9278 28.9259 57.6157 28.0807 57.7373 27.2946C57.8804 26.4935 57.4717 25.4066 56.5113 24.0338C55.5509 22.6611 54.669 21.9034 53.8656 21.7607C53.0838 21.603 52.0583 21.9656 50.7891 22.8484L47.3591 25.2822L52.2211 32.2317Z" fill="#F2F2F2"/>
<path d="M76.0648 7.72409C77.198 5.3433 79.8695 3.59915 84.0793 2.49164C88.2892 1.38412 91.4759 1.5871 93.6395 3.10056C95.7965 4.58873 97.5608 7.92477 98.9324 13.1087C100.304 18.2926 100.423 22.0749 99.2901 24.4557C98.1502 26.8112 95.4753 28.5427 91.2655 29.6502C87.0557 30.7577 83.8723 30.5674 81.7154 29.0792C79.5771 27.5591 77.8221 24.2071 76.4504 19.0232C75.0788 13.8393 74.9502 10.0729 76.0648 7.72409ZM89.8379 7.95496C88.8 6.90269 87.2919 6.63675 85.3138 7.15715C83.3357 7.67755 82.1429 8.65403 81.7353 10.0866C81.3531 11.5125 81.6203 13.9576 82.5369 17.422C83.4536 20.8863 84.4309 23.1447 85.4689 24.1969C86.5322 25.2425 88.0529 25.5051 90.031 24.9847C92.0091 24.4643 93.1893 23.4912 93.5715 22.0653C93.9791 20.6327 93.7246 18.1843 92.8079 14.7199C91.8912 11.2555 90.9012 9.00056 89.8379 7.95496Z" fill="#F2F2F2"/>
</svg>
