<svg width="84" height="84" viewBox="0 0 84 84" fill="none" xmlns="http://www.w3.org/2000/svg">
<path d="M42 2L50.9034 8.77215L62 7.35898L66.3245 17.6755L76.641 22L75.2278 33.0966L82 42L75.2278 50.9034L76.641 62L66.3245 66.3245L62 76.641L50.9034 75.2278L42 82L33.0966 75.2278L22 76.641L17.6755 66.3245L7.35898 62L8.77215 50.9034L2 42L8.77215 33.0966L7.35898 22L17.6755 17.6755L22 7.35898L33.0966 8.77215L42 2Z" stroke="#F07E2D" stroke-width="2"/>
<path d="M35.7391 49.2432L29.4783 43.1622L26 46.5405L35.7391 56L58 34.3784L54.5217 31L35.7391 49.2432Z" stroke="#F07E2D" stroke-width="2"/>
</svg>
