<svg width="80" height="77" viewBox="0 0 80 77" fill="none" xmlns="http://www.w3.org/2000/svg">
<path d="M5 7H1V1H79V7H75M5 7V42H75V7M5 7H75M18 35L29.5 23.5L39 33L58 14" stroke="#F07E2D" stroke-width="2"/>
<circle cx="40" cy="52" r="5" stroke="#F07E2D" stroke-width="2"/>
<circle cx="66" cy="52" r="5" stroke="#F07E2D" stroke-width="2"/>
<circle cx="14" cy="52" r="5" stroke="#F07E2D" stroke-width="2"/>
<path d="M29 66C29 62.6863 31.6863 60 35 60H45C48.3137 60 51 62.6863 51 66V76H29V66Z" stroke="#F07E2D" stroke-width="2"/>
<path d="M55 66C55 62.6863 57.6863 60 61 60H71C74.3137 60 77 62.6863 77 66V76H55V66Z" stroke="#F07E2D" stroke-width="2"/>
<path d="M3 66C3 62.6863 5.68629 60 9 60H19C22.3137 60 25 62.6863 25 66V76H3V66Z" stroke="#F07E2D" stroke-width="2"/>
</svg>
