<svg width="120" height="120" viewBox="0 0 120 120" fill="none" xmlns="http://www.w3.org/2000/svg">
<circle cx="60" cy="60" r="5" fill="#191919"/>
<path d="M67.8145 0.579685C68.5024 0.0114418 69.5675 -0.139031 71.0097 0.128267C72.4519 0.395564 73.3937 0.917999 73.8351 1.69557C74.2782 2.46441 74.3356 3.74458 74.0075 5.53609C73.6793 7.3276 73.1712 8.50747 72.4833 9.07572C71.7969 9.63522 70.7326 9.78132 69.2904 9.51403C67.8483 9.24673 66.9056 8.72866 66.4626 7.95983C66.0298 7.18387 65.9775 5.90013 66.3057 4.10862C66.6339 2.31711 67.1368 1.1408 67.8145 0.579685ZM71.9781 2.63897C71.8132 2.16567 71.392 1.86622 70.7143 1.74062C70.0367 1.61503 69.5327 1.74299 69.2023 2.1245C68.8806 2.50763 68.6101 3.29782 68.3908 4.49507C68.1715 5.69233 68.1442 6.5276 68.309 7.0009C68.4826 7.47581 68.9081 7.77607 69.5858 7.90167C70.2634 8.02726 70.7631 7.8985 71.0848 7.51537C71.4152 7.13385 71.69 6.34447 71.9094 5.14722C72.1287 3.94996 72.1516 3.11388 71.9781 2.63897Z" fill="#B8B8B8"/>
<path d="M81.5402 7.26106L82.8203 7.82089C83.9825 8.32918 84.7099 8.87088 85.0025 9.44599C85.2986 10.0129 85.2364 10.7828 84.8159 11.7557C84.5791 12.3034 84.3256 12.7223 84.0553 13.0124C83.785 13.3024 83.4687 13.4752 83.1065 13.5306C82.7478 13.5779 82.3814 13.5537 82.0072 13.4581C81.6294 13.3707 81.1561 13.2025 80.5872 12.9537C79.4168 12.4419 78.4046 11.9555 77.5506 11.4944L77.5018 11.4731L81.1591 3.01169C82.0941 3.35257 83.0614 3.7416 84.0611 4.1788C84.8738 4.53425 85.8164 4.98051 86.8889 5.51759L86.1225 6.88838L82.4042 5.26221L81.5402 7.26106ZM79.9395 10.9645L81.2195 11.5243C81.7316 11.7482 82.0984 11.8163 82.3199 11.7285C82.5496 11.6443 82.7705 11.3569 82.9825 10.8664C83.191 10.384 83.2493 10.0256 83.1574 9.79096C83.0772 9.55174 82.7811 9.32017 82.269 9.09624L80.989 8.53641L79.9395 10.9645Z" fill="#B8B8B8"/>
<path d="M98.733 13.387L93.2624 20.7563L91.6379 19.5361L96.2364 13.3416L95.3021 12.6398C94.8844 12.3261 94.5082 12.3651 94.1733 12.7568C93.262 13.7913 92.5498 14.565 92.0367 15.0779C91.5307 15.5961 91.0431 16.0006 90.5737 16.2913C89.2433 17.1774 88.0365 17.1026 86.953 16.067L87.7718 14.719C88.0848 14.8765 88.365 14.9594 88.6124 14.9678C88.8669 14.9815 89.13 14.9019 89.4017 14.7289C89.8234 14.4579 90.2714 14.0846 90.7457 13.6091C91.2253 13.1264 91.8986 12.3901 92.7659 11.4002C93.6366 10.3906 94.6063 10.2873 95.6752 11.0901L98.733 13.387Z" fill="#B8B8B8"/>
<path d="M101.794 26.426L99.784 23.9935L97.5131 25.0244L96.1902 23.4233L104.51 19.9207C104.655 19.8458 104.807 19.8283 104.967 19.8684C105.127 19.9084 105.26 19.9935 105.368 20.1235L106.589 21.6014C106.832 21.8957 106.846 22.1907 106.63 22.4866L101.686 30.0741L100.371 28.4832L101.794 26.426ZM102.718 25.0806L104.379 22.6854C104.651 22.3189 104.833 22.0862 104.924 21.9872L104.695 21.7101C104.615 21.7533 104.487 21.8203 104.309 21.9112C104.131 22.0021 103.996 22.0686 103.904 22.1106L101.259 23.3153L102.718 25.0806Z" fill="#B8B8B8"/>
<path d="M105.222 40.7104L106.945 39.6755L104.263 34.2141L102.398 34.9622L101.765 33.6715L104.865 32.1306L105.294 33.003C106.974 32.872 108.876 32.3726 111.002 31.5045C111.536 31.2886 112.042 31.2751 112.519 31.4642C113.004 31.6493 113.384 32.0208 113.658 32.5784L115.319 35.9604L108.428 39.3846L108.956 40.4602L105.855 42.001L105.222 40.7104ZM107.536 37.5681L113.12 34.7934L112.597 33.7298C112.48 33.4908 112.338 33.343 112.173 33.2866C112.019 33.2342 111.811 33.263 111.55 33.373C110.355 33.8481 109.35 34.189 108.535 34.3957C107.72 34.6024 106.919 34.7078 106.133 34.712L107.536 37.5681Z" fill="#B8B8B8"/>
<path d="M119.423 50.4074L110.462 52.3389L110.037 50.3403L114.036 49.4781L113.36 46.3039L109.36 47.166L108.937 45.1805L117.898 43.2491L118.321 45.2346L114.893 45.9736L115.569 49.1478L118.997 48.4089L119.423 50.4074Z" fill="#B8B8B8"/>
<path d="M113.204 62.2583L113.267 59.0993L110.882 58.3846L110.923 56.3052L119.484 59.131C119.642 59.1697 119.769 59.2567 119.863 59.392C119.958 59.5272 120.003 59.6793 120 59.8481L119.962 61.7675C119.954 62.1496 119.773 62.3816 119.418 62.4633L110.752 64.9426L110.793 62.8765L113.204 62.2583ZM114.777 61.8499L117.588 61.1331C118.032 61.0353 118.32 60.9789 118.453 60.9638L118.46 60.6039C118.372 60.5843 118.232 60.5504 118.038 60.5021C117.845 60.4537 117.7 60.4152 117.603 60.3866L114.822 59.5573L114.777 61.8499Z" fill="#B8B8B8"/>
<path d="M117.174 78.2722L108.323 75.9663L108.831 73.992L112.782 75.0213L113.589 71.8858L109.638 70.8565L110.143 68.8951L118.995 71.201L118.49 73.1624L115.103 72.2801L114.296 75.4157L117.682 76.2979L117.174 78.2722Z" fill="#B8B8B8"/>
<path d="M111.118 91.391L103.07 87.025L104.033 85.2301L107.625 87.1789L109.153 84.3281L105.561 82.3793L106.517 80.5961L114.565 84.962L113.609 86.7452L110.53 85.0748L109.001 87.9256L112.08 89.596L111.118 91.391Z" fill="#B8B8B8"/>
<path d="M95.8927 95.9494L97.2294 94.4339L99.8562 96.7781L100.744 95.771C101.084 95.3855 101.098 94.9756 100.784 94.5412L99.1906 92.2104L100.598 90.6151L102.197 93.04C102.648 93.6801 102.68 94.3265 102.293 94.9792L102.361 95.0223C102.837 94.6035 103.308 94.4178 103.774 94.4653C104.24 94.5254 104.738 94.7913 105.267 95.2631C106.007 95.9236 106.362 96.579 106.332 97.2292C106.296 97.886 105.888 98.6564 105.108 99.5405C104.123 100.657 103.331 101.495 102.732 102.053L95.8927 95.9494ZM101.016 97.8131L102.988 99.5735L103.913 98.5454C104.247 98.1665 104.41 97.8483 104.401 97.5907C104.386 97.3398 104.193 97.043 103.822 96.7002C103.445 96.364 103.12 96.1979 102.844 96.2019C102.563 96.2125 102.259 96.4039 101.931 96.7761L101.016 97.8131Z" fill="#B8B8B8"/>
<path d="M80.1113 104.464L81.1896 106.167L86.539 103.311L85.7416 101.459L87.0058 100.784L88.6268 103.857L87.7723 104.313C87.9512 105.998 88.5026 107.897 89.4268 110.009C89.6569 110.54 89.6849 111.048 89.5108 111.533C89.3409 112.026 88.9828 112.419 88.4365 112.71L85.1239 114.478L81.5216 107.649L80.4681 108.211L78.8471 105.138L80.1113 104.464ZM83.3008 106.7L86.2199 112.234L87.2617 111.678C87.4958 111.553 87.6385 111.406 87.6898 111.238C87.7374 111.082 87.7028 110.874 87.5859 110.614C87.0792 109.426 86.7113 108.425 86.4823 107.612C86.2533 106.799 86.1254 105.997 86.0985 105.206L83.3008 106.7Z" fill="#B8B8B8"/>
<path d="M71.0876 118.974L68.8849 110.047L70.8526 109.556L72.7041 117.059L73.8359 116.777C74.3417 116.651 74.5501 116.333 74.461 115.824C74.2425 114.46 74.0986 113.415 74.0291 112.691C73.951 111.969 73.9489 111.333 74.0226 110.783C74.1839 109.187 75.006 108.295 76.4889 108.108L77.0071 109.599C76.6876 109.743 76.4463 109.908 76.2831 110.095C76.1114 110.285 76.006 110.54 75.9669 110.861C75.9082 111.361 75.9115 111.946 75.9768 112.617C76.0443 113.296 76.184 114.286 76.3961 115.588C76.621 116.905 76.0862 117.726 74.7915 118.049L71.0876 118.974Z" fill="#B8B8B8"/>
<path d="M57.4584 110.731L59.4723 110.698L59.5293 114.23L60.8675 114.208C61.3798 114.199 61.6891 113.932 61.7955 113.406L62.4269 110.65L64.5468 110.615L63.8502 113.439C63.6859 114.206 63.2339 114.667 62.4942 114.821L62.5088 114.901C63.1372 114.97 63.5914 115.194 63.8714 115.572C64.1427 115.958 64.2841 116.507 64.2955 117.218C64.3116 118.213 64.0712 118.919 63.5743 119.336C63.0686 119.753 62.2283 119.971 61.0536 119.99C59.5696 120.015 58.4207 119.993 57.6068 119.927L57.4584 110.731ZM59.5544 115.789L59.5973 118.441L60.9754 118.432C61.4789 118.424 61.8219 118.329 62.0046 118.148C62.1783 117.968 62.2656 117.624 62.2662 117.118C62.2581 116.611 62.1596 116.257 61.9708 116.056C61.7732 115.855 61.427 115.758 60.9324 115.766L59.5544 115.789Z" fill="#B8B8B8"/>
<path d="M36.7214 115.257L39.7599 106.583L41.6596 107.256L39.1055 114.547L42.13 115.619L44.6841 108.328L46.5838 109.001L43.5453 117.676L36.7214 115.257Z" fill="#B8B8B8"/>
<path d="M35.3505 104.356L30.4217 112.102C29.6868 111.724 28.6869 111.128 27.422 110.314C26.3506 109.624 25.7296 108.976 25.5591 108.37C25.3811 107.76 25.604 106.964 26.2279 105.984C26.8517 105.004 27.4677 104.456 28.0757 104.341C28.6716 104.229 29.4531 104.484 30.4204 105.107C30.9115 105.423 31.3761 105.764 31.8142 106.13L33.6429 103.256L35.3505 104.356ZM31.0356 107.354L29.8525 106.593C29.4013 106.313 29.0452 106.205 28.7842 106.269C28.5232 106.333 28.2403 106.604 27.9355 107.083C27.6307 107.562 27.5041 107.934 27.5556 108.2C27.607 108.465 27.856 108.741 28.3024 109.029L29.4926 109.779L31.0356 107.354Z" fill="#B8B8B8"/>
<path d="M19.9411 103.344C19.0533 103.409 18.0967 102.915 17.0714 101.86C16.0461 100.805 15.5759 99.8325 15.6608 98.9411C15.7393 98.056 16.426 96.9766 17.7208 95.7029C19.0156 94.4293 20.1069 93.7598 20.9947 93.6943C21.8762 93.6351 22.8296 94.1328 23.8549 95.1875C24.8802 96.2421 25.3535 97.212 25.275 98.0972C25.184 98.9822 24.491 100.061 23.1962 101.335C21.9015 102.609 20.8164 103.278 19.9411 103.344ZM17.7189 99.247C17.5824 99.7294 17.755 100.218 18.2367 100.714C18.7185 101.209 19.2037 101.397 19.6923 101.277C20.1747 101.15 20.8486 100.662 21.7139 99.8103C22.5792 98.9592 23.0801 98.2924 23.2167 97.8101C23.347 97.3214 23.1713 96.8293 22.6896 96.3338C22.2078 95.8382 21.7257 95.6537 21.2433 95.7802C20.7547 95.9004 20.0777 96.3861 19.2124 97.2373C18.3471 98.0884 17.8493 98.7584 17.7189 99.247Z" fill="#B8B8B8"/>
<path d="M6.87621 88.7555L7.91377 88.1677C7.23408 86.791 6.99635 85.6884 7.20059 84.8599C7.39715 84.0357 8.09275 83.2801 9.28738 82.5931C10.4522 81.9434 11.4321 81.7497 12.227 82.0122C13.0176 82.267 13.8279 83.0452 14.6579 84.3469L15.6955 83.759L16.6889 85.5333L15.6514 86.1211C16.3311 87.4978 16.5765 88.596 16.3876 89.4158C16.1911 90.24 15.5125 90.9809 14.352 91.6384C13.153 92.3176 12.1522 92.5282 11.3497 92.27C10.5394 92.0163 9.72525 91.2402 8.90721 89.9419L7.86965 90.5298L6.87621 88.7555ZM14.2686 86.7976L10.1991 89.1031C10.6694 89.8346 11.1242 90.2491 11.5634 90.3465C11.9949 90.4482 12.5912 90.2836 13.352 89.8525C14.0745 89.4432 14.5005 89.0288 14.63 88.6092C14.7595 88.1896 14.639 87.5857 14.2686 86.7976ZM9.29653 87.4912L13.3661 85.1857C12.8881 84.4585 12.4371 84.0419 12.0133 83.9358C11.5817 83.834 11.0086 83.9856 10.2938 84.3906C9.54062 84.8173 9.09542 85.2426 8.95823 85.6666C8.81335 86.0949 8.92612 86.7031 9.29653 87.4912Z" fill="#B8B8B8"/>
<path d="M8.74757 70.7096L10.1554 70.2304C10.4618 71.0023 10.8852 72.3595 11.4255 74.3021C11.5897 74.8926 11.5632 75.4075 11.346 75.847C11.1203 76.2888 10.7352 76.5863 10.1908 76.7396L4.8566 78.2407C4.31212 78.3939 3.83371 78.3394 3.42135 78.0771C2.9981 77.8087 2.70555 77.3835 2.5437 76.8016C2.00342 74.859 1.66513 73.4778 1.52886 72.658L2.99229 72.3292L3.94196 75.7437C4.00146 75.9577 4.09535 76.0973 4.22362 76.1627C4.35189 76.2281 4.53087 76.2285 4.76057 76.1639L6.10049 75.7868L5.11869 72.2568L6.52242 71.8618L7.50422 75.3918L9.20145 74.9141C9.43966 74.8471 9.59672 74.7521 9.67263 74.6293C9.74853 74.5064 9.75674 74.338 9.69723 74.1241L8.74757 70.7096Z" fill="#B8B8B8"/>
<path d="M7.45374 59.5274L8.94078 59.2638C9.23584 60.0486 9.41809 61.0231 9.48752 62.1871C9.57233 63.6089 9.2786 64.63 8.60632 65.2502C7.93405 65.8705 6.72775 66.2331 4.98743 66.3381C3.24711 66.4432 2.00636 66.2282 1.26518 65.6933C0.524002 65.1583 0.111008 64.18 0.0262003 62.7582C-0.0352851 61.7274 0.0114473 60.8015 0.166397 59.9806L1.68736 60.0627C1.68613 60.7852 1.71546 61.6485 1.77535 62.6526C1.81511 63.3191 2.05442 63.7639 2.4933 63.9871C2.92281 64.202 3.71179 64.2748 4.86022 64.2055C6.00865 64.1361 6.78773 63.9687 7.19746 63.7032C7.59782 63.4293 7.77812 62.9592 7.73837 62.2927C7.66469 61.0575 7.56982 60.1358 7.45374 59.5274Z" fill="#B8B8B8"/>
<path d="M9.69548 52.805L9.4714 54.805L0.385621 53.775L0.609703 51.775L9.69548 52.805Z" fill="#B8B8B8"/>
<path d="M2.70885 44.8584C2.22989 44.1036 2.20821 43.022 2.64381 41.6135C3.07941 40.2049 3.70726 39.3265 4.52735 38.9782C5.339 38.6273 6.60945 38.7224 8.3387 39.2635C10.068 39.8046 11.1721 40.4526 11.651 41.2074C12.1215 41.9595 12.139 43.0398 11.7034 44.4483C11.2678 45.8569 10.6442 46.7366 9.83252 47.0875C9.01505 47.4273 7.74169 47.3267 6.01244 46.7856C4.28319 46.2444 3.18199 45.6021 2.70885 44.8584ZM5.23737 40.9453C4.75056 41.0536 4.40482 41.4386 4.20014 42.1005C3.99546 42.7623 4.06174 43.2809 4.39897 43.6563C4.73883 44.0232 5.48658 44.3875 6.64223 44.7491C7.79787 45.1108 8.6191 45.2374 9.10591 45.1292C9.59534 45.0125 9.9424 44.6232 10.1471 43.9613C10.3518 43.2995 10.2842 42.7851 9.9443 42.4182C9.60707 42.0428 8.86063 41.6743 7.70499 41.3127C6.54934 40.951 5.7268 40.8286 5.23737 40.9453Z" fill="#B8B8B8"/>
<path d="M10.5329 25.3746L18.3961 30.1572L17.3418 31.911L13.8319 29.7762L12.1575 32.5618L15.6674 34.6966L14.62 36.439L6.75681 31.6565L7.80418 29.9141L10.8127 31.7439L12.4871 28.9583L9.4786 27.1285L10.5329 25.3746Z" fill="#B8B8B8"/>
<path d="M23.1151 21.0494L20.9194 23.308L22.1709 25.4713L20.7256 26.958L16.4112 19.0039C16.3222 18.8667 16.2893 18.7162 16.3125 18.5526C16.3356 18.389 16.4059 18.2468 16.5233 18.1261L17.8574 16.7538C18.123 16.4806 18.413 16.4365 18.7274 16.6215L26.7292 20.7826L25.2931 22.2597L23.1151 21.0494ZM21.6914 20.2642L19.1551 18.8506C18.7651 18.6162 18.5166 18.4587 18.4095 18.3782L18.1594 18.6355C18.2102 18.7104 18.2896 18.832 18.3977 19.0005C18.5058 19.1689 18.5853 19.2968 18.6362 19.3842L20.0979 21.9034L21.6914 20.2642Z" fill="#B8B8B8"/>
<path d="M30.9058 6.73082L35.8432 14.4565L34.1401 15.5577L29.9899 9.06371L29.0104 9.69712C28.5725 9.98023 28.4771 10.3479 28.7241 10.8C29.3671 12.0193 29.8372 12.9601 30.1346 13.6223C30.4394 14.2797 30.6448 14.8801 30.7508 15.4234C31.1091 16.985 30.6172 18.0943 29.2751 18.7512L28.3083 17.5091C28.5643 17.2697 28.7395 17.0351 28.8338 16.8053C28.9356 16.5708 28.9536 16.2954 28.8879 15.9792C28.7835 15.4876 28.5932 14.9355 28.3171 14.3229C28.0361 13.7028 27.5872 12.8116 26.9702 11.6493C26.3363 10.4769 26.5796 9.52837 27.7001 8.80379L30.9058 6.73082Z" fill="#B8B8B8"/>
<path d="M42.303 11.6897L40.4423 12.43L37.0794 3.87744L38.9401 3.13716L42.303 11.6897Z" fill="#B8B8B8"/>
<path d="M51.1177 4.38269L51.1278 4.43502C51.8073 4.36517 52.3246 4.50364 52.6799 4.85045C53.0421 5.18684 53.2958 5.73008 53.4412 6.48017C53.617 7.38726 53.5072 8.05158 53.1119 8.47312C52.7165 8.89467 51.9683 9.2134 50.867 9.42932C49.2109 9.75404 47.9382 9.96737 47.0489 10.0693L45.2996 1.04201C46.0664 0.819225 47.1869 0.563321 48.661 0.274299C49.8489 0.041381 50.7047 0.045587 51.2285 0.286917C51.7506 0.519525 52.1004 1.09374 52.2778 2.00955C52.4046 2.6637 52.3796 3.18466 52.2027 3.57242C52.0241 3.95146 51.6625 4.22155 51.1177 4.38269ZM47.9525 4.35145L49.4092 4.06583C49.8861 3.97232 50.196 3.83007 50.339 3.63907C50.4907 3.44637 50.5217 3.11889 50.4322 2.65662C50.3443 2.20307 50.1906 1.92087 49.9711 1.80999C49.7603 1.69742 49.3861 1.69384 48.8485 1.79925L47.5063 2.04884L47.9525 4.35145ZM48.7156 8.28944L50.2243 7.99362C50.7793 7.88481 51.1369 7.73321 51.2972 7.53881C51.4559 7.33569 51.487 6.98555 51.3907 6.48839C51.2859 5.94763 51.116 5.60522 50.8811 5.46116C50.6445 5.30838 50.2436 5.28288 49.6783 5.38466L48.2085 5.67284L48.7156 8.28944Z" fill="#B8B8B8"/>
</svg>
