<svg width="539" height="546" viewBox="0 0 539 546" fill="none" xmlns="http://www.w3.org/2000/svg">
<path d="M5.99235 248.36L0.0569676 248.101C-0.126291 244.82 0.132492 240.901 0.833318 236.346C1.56131 231.614 2.73876 228.432 4.36568 226.802C5.95722 225.166 8.6104 224.633 12.3252 225.203C14.9787 225.609 16.9192 226.413 18.1469 227.613C19.3392 228.808 19.8731 230.516 19.7485 232.738L19.9608 232.771C20.6159 230.16 21.8441 228.415 23.6454 227.534C25.4114 226.648 27.8156 226.438 30.8582 226.905C34.5023 227.463 36.873 228.766 37.9703 230.814C39.0322 232.857 39.2263 236.067 38.5527 240.446C37.6834 246.096 36.4356 250.677 34.8092 254.187L29.3266 252.75C30.6508 248.615 31.5953 244.711 32.1603 241.039C32.4809 238.955 32.3771 237.512 31.8489 236.708C31.2908 235.863 30.0211 235.289 28.0398 234.985C25.9171 234.66 24.4244 234.829 23.562 235.492C22.7049 236.119 22.0753 237.505 21.6731 239.648L20.5893 246.693L14.9109 245.823L15.9866 238.831C16.2691 236.995 16.1613 235.695 15.663 234.932C15.1294 234.163 13.9781 233.643 12.2092 233.372C10.4048 233.096 9.14488 233.282 8.42934 233.931C7.71924 234.545 7.21207 235.841 6.90783 237.819C6.48408 240.573 6.17892 244.087 5.99235 248.36Z" fill="#F2F2F2"/>
<path d="M40.9663 191.389L36.8088 203.393L45.1164 209.095L42.3799 216.997L12.8868 195.536C12.3247 195.191 11.9452 194.701 11.7485 194.066C11.5518 193.431 11.5646 192.793 11.7868 192.151L14.3128 184.857C14.8157 183.405 15.8022 182.744 17.2723 182.873L53.7471 184.175L51.0281 192.026L40.9663 191.389ZM34.3995 190.995L22.675 190.238C20.8432 190.059 19.6618 189.916 19.131 189.809L18.6574 191.176C18.9723 191.361 19.4726 191.665 20.1584 192.091C20.8442 192.517 21.3556 192.844 21.6926 193.074L31.3823 199.706L34.3995 190.995Z" fill="#F2F2F2"/>
<path d="M41.505 129.08L73.7358 147.569L69.6284 154.703L42.5359 139.161L40.1735 143.264C39.1176 145.098 39.4569 146.596 41.1915 147.756C45.7857 150.929 49.2366 153.426 51.5442 155.245C53.8697 157.034 55.7298 158.804 57.1243 160.555C61.3265 165.488 61.6129 170.387 57.9834 175.252L52.1761 172.603C52.6561 171.266 52.8528 170.097 52.7662 169.096C52.6975 168.064 52.2501 167.042 51.4239 166.031C50.1314 164.462 48.4158 162.837 46.2771 161.156C44.1073 159.456 40.8253 157.098 36.4312 154.081C31.957 151.059 31.0711 147.202 33.7735 142.508L41.505 129.08Z" fill="#F2F2F2"/>
<path d="M103.619 111.333L98.4451 117.201L81.8546 102.628C80.6197 101.544 79.4777 100.326 78.4286 98.977L78.1805 99.2584C79.061 100.745 79.8218 102.34 80.4629 104.045L88.8774 128.053L83.5265 134.123L55.7414 109.717L60.8796 103.889L77.1883 118.214C78.3427 119.228 79.5367 120.467 80.7706 121.931L80.9832 121.69C80.2702 120.445 79.5346 118.848 78.7765 116.899L70.4828 92.9962L75.8337 86.9268L103.619 111.333Z" fill="#F2F2F2"/>
<path d="M130.432 43.6922L151.92 74.0146L115.51 99.7205L94.0224 69.3981L100.582 64.7667L118.644 90.2551L127.009 84.3493L108.947 58.8609L115.507 54.2295L133.569 79.7178L141.934 73.812L123.872 48.3236L130.432 43.6922Z" fill="#F2F2F2"/>
<path d="M181.447 50.3703L169.685 55.2186L170.914 65.2071L163.172 68.3984L159.726 32.1303C159.612 31.4814 159.729 30.873 160.075 30.3051C160.42 29.7373 160.908 29.3238 161.536 29.0648L168.682 26.119C170.105 25.5325 171.255 25.8315 172.132 27.0161L195.329 55.1423L187.637 58.3131L181.447 50.3703ZM177.391 45.2003L170.188 35.9352C169.108 34.4477 168.432 33.47 168.161 33.0019L166.821 33.5542C166.892 33.9117 166.994 34.4878 167.13 35.2825C167.265 36.0772 167.358 36.6766 167.409 37.0808L168.855 48.719L177.391 45.2003Z" fill="#F2F2F2"/>
<path d="M217.257 0.997915L222.414 -9.72201e-06C223.13 2.18657 222.855 4.23791 221.589 6.15398C220.316 8.03509 218.26 9.25054 215.418 9.80041C212.577 10.3503 210.196 9.99352 208.277 8.73015C206.35 7.43181 205.31 5.63506 205.155 3.3399L210.312 2.34203C210.729 5.24029 212.183 6.44835 214.674 5.96642C217.094 5.49804 217.955 3.84185 217.257 0.997915ZM237.595 45.8346L229.913 47.3213L225.71 25.6829C225.397 24.0723 225.239 22.4137 225.235 20.707L224.866 20.7782C224.653 22.4907 224.278 24.2161 223.743 25.9546L215.706 50.0705L207.761 51.6081L200.722 15.3691L208.351 13.8927L212.483 35.1634C212.775 36.669 212.962 38.3768 213.041 40.2868L213.357 40.2257C213.555 38.8069 213.95 37.0955 214.544 35.0915L222.611 11.1332L230.556 9.59569L237.595 45.8346Z" fill="#F2F2F2"/>
<path d="M281.264 13.6895L270.206 13.8687L270.699 44.1978L262.485 44.3309L261.992 14.0018L250.933 14.181L250.825 7.53643L281.156 7.04497L281.264 13.6895Z" fill="#F2F2F2"/>
<path d="M321.241 43.4616L320.547 49.4325C317.205 49.226 311.53 48.4409 303.52 47.0773C301.086 46.6627 299.256 45.6807 298.032 44.1313C296.814 42.5467 296.398 40.6274 296.783 38.3733L300.557 16.2908C300.942 14.0367 301.969 12.3813 303.639 11.3245C305.349 10.2385 307.404 9.89977 309.804 10.3083C317.813 11.672 323.429 12.8093 326.65 13.7201L325.312 19.6357L311.234 17.2388C310.352 17.0885 309.68 17.1918 309.22 17.5483C308.76 17.9048 308.448 18.5586 308.286 19.5095L307.338 25.0566L321.893 27.5347L320.9 33.3458L306.345 30.8677L305.144 37.894C304.976 38.8801 305.049 39.6176 305.365 40.1063C305.681 40.595 306.28 40.9144 307.162 41.0646L321.241 43.4616Z" fill="#F2F2F2"/>
<path d="M361.154 55.6708L359.777 61.6095C356.406 61.4733 352.512 60.6202 348.094 59.0502C342.699 57.1326 339.386 54.4379 338.155 50.9663C336.923 47.4946 337.49 42.4435 339.856 35.8129C342.221 29.1823 344.98 24.9102 348.133 22.9966C351.285 21.083 355.559 21.085 360.954 23.0026C364.865 24.3929 368.217 26.0204 371.01 27.8851L368.299 33.4069C365.628 32.2679 362.387 31.0212 358.577 29.6669C356.048 28.768 354.023 28.9585 352.502 30.2385C351.027 31.4968 349.51 34.3138 347.949 38.6893C346.388 43.0648 345.774 46.2222 346.108 48.1613C346.488 50.0788 347.943 51.487 350.472 52.3859C355.159 54.0518 358.72 55.1468 361.154 55.6708Z" fill="#F2F2F2"/>
<path d="M391.271 52.5082L396.023 55.2257C400.433 57.7478 403.049 60.2324 403.872 62.6796C404.726 65.1445 404.024 68.3454 401.764 72.2825C399.539 76.1575 397.217 78.3707 394.797 78.9219C392.377 79.4731 389.256 78.6563 385.436 76.4717C379.815 73.2569 375.6 70.6818 372.792 68.7465L372.606 68.6399L391.022 36.5545L398.104 40.6041L391.271 52.5082ZM382.623 67.5744L387.375 70.2919C389.269 71.3754 390.674 71.7669 391.589 71.4666C392.553 71.1531 393.613 69.9888 394.769 67.9738C395.926 65.9588 396.414 64.426 396.233 63.3755C396.083 62.3428 395.061 61.2847 393.167 60.2013L388.415 57.4838L382.623 67.5744Z" fill="#F2F2F2"/>
<path d="M471.907 99.6753L445.307 125.414L439.589 119.526L451.463 108.037L442.382 98.6869L430.508 110.176L424.828 104.327L451.428 78.5886L457.108 84.4374L446.931 94.2852L456.012 103.636L466.189 93.7879L471.907 99.6753Z" fill="#F2F2F2"/>
<path d="M474.782 150.063L467.843 139.417L458.233 142.461L453.665 135.454L488.744 125.395C489.363 125.164 489.983 125.166 490.606 125.401C491.229 125.636 491.726 126.038 492.096 126.607L496.313 133.075C497.152 134.363 497.07 135.546 496.065 136.625L472.639 164.562L468.101 157.6L474.782 150.063ZM479.127 145.132L486.924 136.36C488.19 135.026 489.028 134.183 489.439 133.831L488.649 132.618C488.31 132.753 487.761 132.96 487.004 133.239C486.246 133.518 485.673 133.72 485.284 133.844L474.09 137.406L479.127 145.132Z" fill="#F2F2F2"/>
<path d="M515.574 186.273L521.017 183.897C522.629 186.763 524.125 190.395 525.505 194.793C526.938 199.362 527.284 202.735 526.543 204.914C525.835 207.082 523.688 208.727 520.101 209.848C517.54 210.649 515.443 210.78 513.811 210.242C512.214 209.693 510.981 208.394 510.112 206.344L509.907 206.408C510.471 209.04 510.138 211.147 508.909 212.729C507.714 214.301 505.648 215.546 502.71 216.464C499.192 217.564 496.489 217.436 494.6 216.079C492.746 214.712 491.156 211.914 489.829 207.687C488.117 202.231 487.218 197.571 487.13 193.705L492.686 192.585C493.321 196.88 494.195 200.8 495.307 204.345C495.938 206.357 496.668 207.608 497.497 208.097C498.371 208.611 499.764 208.568 501.677 207.97C503.726 207.329 504.992 206.522 505.474 205.548C505.967 204.607 505.921 203.087 505.337 200.986L503.202 194.184L508.685 192.47L510.803 199.221C511.359 200.993 512.029 202.113 512.813 202.579C513.631 203.035 514.894 202.996 516.602 202.462C518.344 201.917 519.393 201.196 519.749 200.299C520.116 199.435 520 198.049 519.401 196.14C518.567 193.48 517.291 190.191 515.574 186.273Z" fill="#F2F2F2"/>
<path d="M518.783 252.173L518.571 252.199C518.653 254.952 517.949 256.994 516.456 258.323C515.003 259.683 512.753 260.547 509.705 260.916C506.02 261.362 503.39 260.729 501.816 259.017C500.242 257.306 499.182 254.204 498.636 249.712C497.816 242.956 497.331 237.774 497.18 234.168L533.857 229.73C534.527 232.879 535.227 237.46 535.957 243.473C536.546 248.319 536.28 251.761 535.161 253.798C534.078 255.832 531.676 257.074 527.955 257.524C525.297 257.845 523.217 257.594 521.715 256.771C520.248 255.944 519.271 254.411 518.783 252.173ZM519.827 239.449L520.549 245.392C520.785 247.337 521.265 248.625 521.989 249.255C522.717 249.921 524.02 250.14 525.898 249.913C527.741 249.69 528.916 249.153 529.424 248.302C529.936 247.486 530.059 245.982 529.793 243.789L529.182 238.317L519.827 239.449ZM503.828 241.385L504.575 247.54C504.85 249.803 505.354 251.286 506.086 251.987C506.854 252.683 508.248 252.909 510.268 252.665C512.465 252.399 513.886 251.815 514.531 250.911C515.212 250.003 515.43 248.398 515.187 246.094L514.459 240.099L503.828 241.385Z" fill="#F2F2F2"/>
<path d="M538.999 279.415L538.97 281.183C538.954 282.183 538.746 282.859 538.347 283.21C537.982 283.597 537.317 283.783 536.351 283.767L533.237 283.717C529.981 283.628 527.025 282.705 524.368 280.947L525.331 277.853C527.042 278.31 529.132 278.594 531.6 278.705C531.623 277.276 532.369 276.574 533.836 276.598L536.466 276.694C537.432 276.745 538.09 276.97 538.442 277.369C538.829 277.768 539.015 278.45 538.999 279.415Z" fill="#F2F2F2"/>
<path d="M495.93 325.123L497.169 317.071L511.232 319.227L512.055 313.877C512.37 311.828 511.519 310.415 509.502 309.636L498.986 305.259L500.29 296.783L511.031 301.466C513.965 302.639 515.487 304.752 515.596 307.805L515.923 307.801C516.627 305.342 517.824 303.682 519.514 302.82C521.233 302 523.508 301.806 526.339 302.24C530.301 302.847 532.941 304.282 534.259 306.544C535.572 308.842 535.866 312.339 535.144 317.036C534.231 322.969 533.366 327.535 532.547 330.735L495.93 325.123ZM517.441 320.179L528.002 321.797L528.902 316.296C529.212 314.283 529.07 312.852 528.476 312.002C527.878 311.187 526.572 310.608 524.561 310.263C522.545 309.954 521.072 310.108 520.145 310.725C519.211 311.377 518.593 312.692 518.288 314.67L517.441 320.179Z" fill="#F2F2F2"/>
<path d="M520.893 350.469L526.688 351.778C526.283 355.039 525.33 358.849 523.828 363.208C522.268 367.735 520.542 370.656 518.651 371.971C516.793 373.298 514.087 373.352 510.533 372.132C507.995 371.26 506.228 370.125 505.234 368.726C504.274 367.338 504.053 365.562 504.572 363.398L504.369 363.328C503.259 365.78 501.739 367.28 499.809 367.827C497.914 368.385 495.51 368.164 492.599 367.165C489.113 365.968 487.013 364.265 486.298 362.055C485.617 359.856 485.998 356.662 487.442 352.473C489.304 347.067 491.349 342.782 493.575 339.617L498.714 342.004C496.674 345.838 495.049 349.511 493.838 353.025C493.151 355.018 492.996 356.458 493.372 357.342C493.771 358.273 494.918 359.063 496.813 359.714C498.844 360.411 500.343 360.51 501.31 360.011C502.265 359.545 503.132 358.294 503.91 356.256L506.232 349.516L511.665 351.381L509.36 358.07C508.754 359.827 508.629 361.125 508.983 361.965C509.371 362.816 510.411 363.532 512.104 364.113C513.83 364.706 515.103 364.746 515.923 364.234C516.731 363.756 517.461 362.571 518.113 360.679C519.021 358.044 519.948 354.64 520.893 350.469Z" fill="#F2F2F2"/>
<path d="M486.433 402.217L486.246 402.113C485.82 402.652 485.405 403.137 485 403.566C484.626 404.012 484.192 404.384 483.698 404.681C483.185 405.008 482.739 405.291 482.36 405.53C481.98 405.768 481.444 405.919 480.752 405.982C480.073 406.094 479.533 406.181 479.129 406.242C478.708 406.334 478.035 406.327 477.111 406.22C476.169 406.144 475.427 406.077 474.885 406.02C474.374 405.98 473.491 405.834 472.237 405.584C470.965 405.364 469.98 405.182 469.282 405.037C468.615 404.91 467.472 404.681 465.853 404.349C464.71 404.12 463.845 403.943 463.258 403.82L467.429 396.385C474.124 397.834 478.286 398.605 479.916 398.697C482.426 398.831 484.279 398.27 485.476 397.014C485.947 396.54 486.384 395.945 486.786 395.228L488.071 392.937C486.776 392.54 485.675 392.089 484.77 391.582L473.62 385.35L477.608 378.243L509.931 396.311L505.944 403.418L496.809 398.312C495.591 397.631 494.38 396.791 493.177 395.791L491.944 397.988C490.703 400.202 490.654 402.263 491.798 404.172C492.925 406.112 495.569 409.187 499.73 413.397C499.913 413.581 500.043 413.715 500.12 413.799L496.053 421.047C491.536 416.228 488.893 413.297 488.125 412.254C486.301 409.801 485.463 407.53 485.609 405.442C485.703 404.47 485.977 403.396 486.433 402.217Z" fill="#F2F2F2"/>
<path d="M465.837 460.146L450.439 435.677C448.614 432.779 447.5 430.283 447.099 428.189C446.725 426.118 447.231 424.078 448.617 422.07C450.003 420.061 452.103 417.947 454.918 415.727L458.804 420.119C456.453 422.675 455.092 424.402 454.719 425.3C454.351 426.249 454.626 427.542 455.544 429.181L456.181 430.263L457.447 428.735C458.975 426.891 460.942 426.451 463.347 427.417L485.789 436.072L480.45 442.514L461.62 434.546C461.22 434.355 460.85 434.466 460.507 434.879L459.652 435.912L471.176 453.704L465.837 460.146Z" fill="#F2F2F2"/>
<path d="M429.706 484.145L433.641 488.589C431.403 490.999 428.398 493.534 424.628 496.194C420.711 498.957 417.6 500.32 415.295 500.284C413.01 500.276 410.784 498.741 408.614 495.677C407.065 493.489 406.297 491.537 406.31 489.822C406.343 488.136 407.204 486.566 408.892 485.113L408.768 484.938C406.431 486.28 404.32 486.61 402.434 485.928C400.569 485.275 398.749 483.693 396.972 481.184C394.844 478.179 394.137 475.571 394.852 473.361C395.587 471.18 397.767 468.811 401.391 466.254C406.068 462.955 410.237 460.671 413.896 459.402L416.668 464.337C412.767 466.257 409.297 468.29 406.257 470.434C404.533 471.651 403.564 472.728 403.351 473.665C403.13 474.653 403.598 475.963 404.755 477.597C405.994 479.348 407.152 480.303 408.229 480.462C409.277 480.641 410.713 480.132 412.537 478.932L418.369 474.818L421.684 479.501L415.897 483.584C414.377 484.656 413.515 485.636 413.31 486.524C413.127 487.441 413.552 488.629 414.585 490.088C415.638 491.576 416.647 492.351 417.612 492.414C418.548 492.498 419.835 491.962 421.472 490.808C423.752 489.199 426.497 486.979 429.706 484.145Z" fill="#F2F2F2"/>
<path d="M359.141 490.712L371.367 525.471C366.695 527.448 362.24 529.179 358 530.665C352.449 532.61 348.147 532.684 345.096 530.886C342.012 529.1 339.276 524.815 336.89 518.031C334.504 511.247 333.956 506.195 335.245 502.877C336.501 499.57 339.904 496.943 345.456 494.998C349.695 493.512 354.257 492.084 359.141 490.712ZM361.729 522.568L353.454 499.042C352.882 499.242 351.951 499.55 350.661 499.964C349.349 500.424 348.322 500.784 347.582 501.043C344.991 501.951 343.514 503.393 343.151 505.369C342.754 507.356 343.359 510.634 344.965 515.201C346.572 519.769 348.152 522.704 349.707 524.008C351.239 525.357 353.301 525.578 355.892 524.67L361.729 522.568Z" fill="#F2F2F2"/>
<path d="M292.142 514.235L290.849 508.361C294.119 507.493 299.751 506.44 307.744 505.202C310.185 504.824 312.232 505.176 313.885 506.258C315.544 507.375 316.567 509.06 316.953 511.314L320.394 533.451C320.71 535.716 320.245 537.614 318.998 539.145C317.756 540.711 315.915 541.683 313.474 542.061C305.48 543.299 299.794 543.999 296.414 544.161L295.855 538.119L309.915 535.942C310.799 535.805 311.403 535.494 311.726 535.011C312.049 534.527 312.137 533.808 311.989 532.855L311.124 527.294L296.534 529.554L295.628 523.728L310.219 521.469L309.124 514.425C308.97 513.437 308.666 512.761 308.211 512.397C307.756 512.034 307.086 511.921 306.202 512.058L292.142 514.235Z" fill="#F2F2F2"/>
<path d="M243.384 545.07L244.503 511.058C244.567 509.094 245.566 508.143 247.497 508.207L252.595 508.374C253.418 508.401 254.056 508.6 254.509 508.973C254.962 509.381 255.388 510.02 255.789 510.891L264.854 530.921C265.985 533.567 266.673 535.502 266.919 536.726L267.51 536.745C267.318 534.952 267.257 532.984 267.328 530.841L268.05 508.88L275.831 509.135L274.712 543.148C274.648 545.112 273.632 546.061 271.664 545.997L266.674 545.833C265.851 545.806 265.213 545.589 264.761 545.181C264.308 544.809 263.881 544.187 263.479 543.316L254.717 523.886C253.882 522.071 253.053 520.06 252.23 517.853L251.693 517.835C251.816 520.627 251.855 522.702 251.811 524.059L251.112 545.324L243.384 545.07Z" fill="#F2F2F2"/>
<path d="M194.627 529.178L205.412 531.628L212.155 502.051L220.165 503.87L213.422 533.447L224.206 535.897L222.729 542.376L193.15 535.658L194.627 529.178Z" fill="#F2F2F2"/>
<path d="M168.72 497.246L180.427 502.199L186.687 494.32L194.393 497.581L170.952 525.47C170.569 526.006 170.054 526.35 169.407 526.502C168.759 526.655 168.123 526.599 167.497 526.334L160.384 523.324C158.968 522.725 158.374 521.699 158.603 520.244L162.384 484.037L170.041 487.277L168.72 497.246ZM167.88 503.754L166.326 515.369C166.024 517.18 165.8 518.346 165.657 518.867L166.991 519.431C167.196 519.13 167.535 518.653 168.006 517.999C168.478 517.346 168.84 516.859 169.093 516.54L176.376 507.349L167.88 503.754Z" fill="#F2F2F2"/>
<path d="M124.136 504.305L139.111 481.103C139.634 480.292 139.832 479.59 139.703 478.998C139.545 478.386 139.029 477.799 138.156 477.238L127.459 470.359L130.516 464.93C133.769 466.554 138.268 469.214 144.016 472.909C146.423 474.457 147.826 476.209 148.224 478.165C148.622 480.121 148.172 482.105 146.873 484.118L130.997 508.717L124.136 504.305Z" fill="#F2F2F2"/>
<path d="M104.766 442.618L77.351 467.394C73.7072 463.855 70.3744 460.42 67.3526 457.089C63.3956 452.726 61.6562 448.789 62.1344 445.278C62.5886 441.74 65.491 437.554 70.8415 432.718C76.192 427.883 80.6532 425.415 84.2251 425.314C87.773 425.187 91.5254 427.304 95.4825 431.667C98.5042 434.998 101.599 438.648 104.766 442.618ZM76.2933 457.38L94.8478 440.612C94.4401 440.162 93.7939 439.423 92.9091 438.395C91.9738 437.363 91.2423 436.557 90.7147 435.975C88.8681 433.94 86.9601 433.138 84.9907 433.571C82.9973 433.977 80.1995 435.808 76.5972 439.063C72.9949 442.319 70.8925 444.917 70.2901 446.856C69.6372 448.793 70.2341 450.78 72.0807 452.816L76.2933 457.38Z" fill="#F2F2F2"/>
<path d="M57.2419 389.987L62.1728 386.531C64.236 389.208 67.381 393.989 71.6077 400.873C72.8982 402.975 73.3622 404.996 72.9998 406.936C72.6069 408.894 71.4431 410.486 69.5086 411.711L50.3729 423.416C48.4009 424.58 46.467 424.883 44.5709 424.325C42.6444 423.785 41.0359 422.464 39.7455 420.363C35.5187 413.478 32.679 408.51 31.2261 405.46L36.5955 402.616L44.0297 414.725C44.4973 415.487 45.017 415.923 45.589 416.034C46.161 416.145 46.8589 415.949 47.683 415.445L52.4898 412.504L44.7751 399.938L49.8108 396.858L57.5255 409.424L63.6141 405.7C64.4687 405.177 64.9762 404.636 65.1367 404.077C65.2972 403.518 65.1437 402.858 64.6761 402.096L57.2419 389.987Z" fill="#F2F2F2"/>
<path d="M55.8638 372.816L21.4103 386.129C19.9123 383.154 18.0745 378.859 15.8967 373.244C14.0283 368.426 13.5349 364.834 14.4165 362.469C15.2852 360.07 17.9 358.028 22.2607 356.343C26.6215 354.658 29.9294 354.354 32.1845 355.432C34.3933 356.488 36.3418 359.193 38.0298 363.546C38.8803 365.739 39.5847 367.95 40.1431 370.18L52.9259 365.241L55.8638 372.816ZM34.7004 372.283L32.6323 366.95C31.8387 365.002 30.9404 363.821 29.9375 363.406C28.9217 362.958 27.3485 363.146 25.218 363.969C23.0876 364.792 21.7979 365.711 21.3491 366.724C20.8873 367.705 21.0366 369.176 21.7969 371.136L23.915 376.45L34.7004 372.283Z" fill="#F2F2F2"/>
<path d="M8.36243 337.099C5.23032 335.314 3.12592 331.505 2.04923 325.672C0.972542 319.84 1.57865 315.532 3.86757 312.75C6.12129 309.974 10.8563 307.922 18.0726 306.595C25.2889 305.268 30.4631 305.497 33.5952 307.282C36.6921 309.074 38.7789 312.886 39.8556 318.719C40.9323 324.552 40.3438 328.856 38.0901 331.632C35.7947 334.379 31.0388 336.416 23.8225 337.744C16.6062 339.071 11.4529 338.856 8.36243 337.099ZM10.0999 318.415C8.55666 319.716 8.03799 321.737 8.5439 324.478C9.04982 327.218 10.2593 328.94 12.1722 329.641C14.0787 330.308 17.4433 330.198 22.2659 329.311C27.0885 328.424 30.2714 327.33 31.8147 326.029C33.3514 324.693 33.8669 322.654 33.3609 319.914C32.855 317.173 31.6488 315.469 29.7423 314.803C27.8294 314.101 24.4616 314.194 19.639 315.08C14.8164 315.967 11.6367 317.079 10.0999 318.415Z" fill="#F2F2F2"/>
</svg>
