<svg width="22" height="22" viewBox="0 0 22 22" fill="none" xmlns="http://www.w3.org/2000/svg">
<path d="M1 2.11111V1.11111C0.447715 1.11111 0 1.55883 0 2.11111H1ZM19.8889 21V22C20.4412 22 20.8889 21.5523 20.8889 21H19.8889ZM19.8889 16.5556H20.8889C20.8889 16.0033 20.4412 15.5556 19.8889 15.5556V16.5556ZM13.4172 15.5224L13.0458 16.4509L13.4172 15.5224ZM13.2222 15.4444L13.5936 14.516C13.2103 14.3627 12.7722 14.4606 12.4908 14.7626L13.2222 15.4444ZM5.44444 2.11111H6.44444C6.44444 1.55883 5.99673 1.11111 5.44444 1.11111V2.11111ZM6.47756 8.58279L7.40604 8.2114V8.2114L6.47756 8.58279ZM6.55556 8.77778L7.23743 9.50925C7.53939 9.22776 7.63734 8.78967 7.48403 8.40639L6.55556 8.77778ZM0 2.11111V3.22222H2V2.11111H0ZM18.7778 22H19.8889V20H18.7778V22ZM20.8889 21V16.5556H18.8889V21H20.8889ZM19.8889 15.5556H18.7817V17.5556H19.8889V15.5556ZM13.7886 14.594L13.5936 14.516L12.8508 16.3729L13.0458 16.4509L13.7886 14.594ZM12.4908 14.7626L9.71298 17.7424L11.1759 19.1061L13.9537 16.1263L12.4908 14.7626ZM1 3.11111H5.44444V1.11111H1V3.11111ZM4.44444 2.11111V3.21825H6.44444V2.11111H4.44444ZM5.54908 8.95418L5.62708 9.14917L7.48403 8.40639L7.40604 8.2114L5.54908 8.95418ZM5.87368 8.04631L2.89388 10.8241L4.25763 12.287L7.23743 9.50925L5.87368 8.04631ZM4.44444 3.21825C4.44444 5.18309 4.81936 7.12988 5.54908 8.95418L7.40604 8.2114C6.77081 6.62333 6.44444 4.92865 6.44444 3.21825H4.44444ZM18.7817 15.5556C17.0714 15.5556 15.3767 15.2292 13.7886 14.594L13.0458 16.4509C14.8701 17.1806 16.8169 17.5556 18.7817 17.5556V15.5556ZM0 3.22222C0 13.5929 8.4071 22 18.7778 22V20C9.51167 20 2 12.4883 2 3.22222H0ZM9.88889 2C15.4731 2 20 6.5269 20 12.1111H22C22 5.42233 16.5777 0 9.88889 0V2ZM11 7.55556C12.9023 7.55556 14.4444 9.09769 14.4444 11H16.4444C16.4444 7.99312 14.0069 5.55556 11 5.55556V7.55556Z" fill="#F07E2D"/>
</svg>
