<svg height="20px" viewBox="0 -63 475.77785 475" width="25px" xmlns="http://www.w3.org/2000/svg" fill='#939393'><path d="m7.003906 210.390625h21.886719v93.589844c0 3.617187 3 6.59375 7 6.960937v30.679688c-.101563 1.78125.542969 3.523437 1.777344 4.804687 1.238281 1.285157 2.953125 1.996094 4.734375 1.964844h99.195312c2.460938.125 4.792969-1.109375 6.078125-3.210937l19.464844-33.789063h141.5l19.464844 33.789063c1.28125 2.101562 3.613281 3.335937 6.078125 3.210937h99.191406c1.78125.03125 3.496094-.679687 4.734375-1.964844 1.234375-1.28125 1.878906-3.023437 1.78125-4.804687v-30.679688c4-.367187 7-3.34375 7-6.960937v-93.589844h21.882813c1.964843.085937 3.867187-.695313 5.207031-2.132813 1.339843-1.441406 1.980469-3.394531 1.753906-5.347656l-17.300781-158.152344c-2.753906-25.320312-24.191406-44.472656-49.660156-44.367187h-341.769532c-25.480468-.085937-46.914062 19.082031-49.664062 44.414063l-17.3007815 158.257812c-.2148435 1.914062.4257815 3.820312 1.7499995 5.21875 1.351563 1.421875 3.253907 2.191406 5.214844 2.109375zm211.886719-71h-121v-16.601563c0-13.90625 10.925781-25.398437 24.832031-25.398437h70.523438c13.90625 0 25.644531 11.488281 25.644531 25.398437zm-128.386719 14h323.355469c10.351563 0 19.03125 7.949219 19.03125 18.296875v125.703125h-390v-125.703125c0-10.351562 8.675781-18.296875 19.027344-18.296875zm287.386719-14h-121v-16.601563c0-13.90625 11.734375-25.398437 25.640625-25.398437h70.523438c13.90625 0 24.835937 11.488281 24.835937 25.398437zm-240.359375 195h-87.640625v-23h101.128906zm288.359375 0h-87.644531l-13.488282-23h101.132813zm-394.632813-288.25c2-18.191406 17.449219-31.914063 35.746094-31.75h341.769532c18.296874-.164063 33.746093 13.558594 35.746093 31.75l16.449219 150.25h-14.078125v-24.703125c0-18.070312-14.960937-32.296875-33.03125-32.296875h-21.96875v-16.601563c0-21.625-17.210937-39.398437-38.835937-39.398437h-70.523438c-21.625 0-39.640625 17.769531-39.640625 39.398437v16.601563h-10v-16.601563c0-21.625-18.019531-39.398437-39.644531-39.398437h-70.523438c-21.625 0-38.832031 17.769531-38.832031 39.398437v16.601563h-21.972656c-18.070313 0-33.027344 14.230469-33.027344 32.296875v24.703125h-14.082031zm0 0"/></svg>