<svg height="25px" viewBox="0 -4 486.6082 486" width="25px" xmlns="http://www.w3.org/2000/svg" fill='#939393'><path d="m30.570312 292.796875 24.792969 113.859375c5.132813 23.53125 26.335938 40.84375 50.421875 40.84375h1.523438v22.5c0 3.863281 3.234375 7.5 7.101562 7.5h61.335938c2.234375-.007812 4.332031-1.078125 5.648437-2.886719l19.832031-27.113281h84.167969l19.828125 27.113281c1.316406 1.808594 3.414063 2.878907 5.648438 2.886719h61.335937c3.867188 0 7.101563-3.636719 7.101563-7.5v-22.5h1.523437c24.085938 0 45.289063-17.3125 50.425781-40.84375l24.792969-113.742188c18.4375-2.535156 31.757813-18.921874 30.472657-37.488281-1.285157-18.566406-16.738282-32.960937-35.351563-32.925781h-72.375c-1.445313-9.148438-9.285156-15.910156-18.542969-16h-100.066406c-9.257812.089844-17.09375 6.851562-18.539062 16h-162.339844v-167.195312c0-22.644532 18.355468-41 41-41 22.644531 0 41 18.355468 41 41v24.195312h-9.792969c-14.957031.023438-27.097656 12.097656-27.207031 27.050781v10.949219h-4.066406c-1.839844-.019531-3.609376.703125-4.914063 2.003906-1.304687 1.300782-2.03125 3.070313-2.019531 4.910156v23.027344c-.035156 3.863282 3.070312 7.023438 6.933594 7.058594h96.804687c3.929687-.007812 7.144531-3.132812 7.261719-7.058594v-23.027344c-.128906-3.898437-3.359375-6.976562-7.261719-6.914062h-4.738281v-10.949219c.058594-7.136719-2.730469-14-7.746094-19.074219-5.011719-5.078124-11.839844-7.949218-18.976562-7.976562h-10.277344v-24.195312c0-30.375-24.625-55-55-55s-55 24.625-55 55v167.195312h-29.863282c-18.605468-.074219-34.074218 14.304688-35.3593745 32.863281-1.2890625 18.5625 12.0468745 34.9375 30.4843745 37.433594zm179.738282-152.296875h-83v-9h83zm-12-33.949219v10.949219h-60v-10.949219c.101562-7.226562 5.980468-13.035156 13.207031-13.050781h34.070313c3.421874.023438 6.695312 1.417969 9.082031 3.871094 2.390625 2.449218 3.703125 5.757812 3.640625 9.179687zm-26.113282 356.949219h-50.886718v-16h62.566406zm193.113282 0h-50.882813l-11.683593-16h62.566406zm52.269531-59.648438c-3.839844 17.242188-19.082031 29.539063-36.746094 29.648438h-275.046875c-17.664062-.109375-32.90625-12.40625-36.746094-29.648438l-24.066406-110.351562h196.335938v69.445312c0 3.863282 3.199218 6.554688 7.070312 6.554688h123.683594c3.867188 0 7.246094-2.691406 7.246094-6.554688v-69.445312h62.335937zm-162.269531-61.351562h110v13h-110zm217.300781-84.5c-.007813 11.84375-9.589844 21.453125-21.4375 21.5h-71.863281v-43h71.863281c11.847656.042969 21.429687 9.652344 21.4375 21.5zm-212.421875-37.5h100.066406c2.703125-.019531 4.933594 2.101562 5.054688 4.796875v103.203125h-110v-103.203125c.039062-2.664063 2.214844-4.804687 4.878906-4.796875zm-224.742188 16h205.863282v43h-205.863282c-11.875 0-21.5-9.628906-21.5-21.5 0-11.875 9.625-21.5 21.5-21.5zm0 0"/></svg>