<?xml version="1.0" encoding="utf-8"?>
<!-- Generator: Adobe Illustrator 22.0.1, SVG Export Plug-In . SVG Version: 6.00 Build 0)  -->
<svg version="1.1" id="Capa_1" xmlns="http://www.w3.org/2000/svg" xmlns:xlink="http://www.w3.org/1999/xlink" x="0px" y="0px"
	 width="25px" height="22px" viewBox="0 0 503.7 389.5" style="enable-background:new 0 0 503.7 389.5;" xml:space="preserve"
	 fill='#939393'>
<g>
	<g>
		<g>
			<path d="M205.1,259.7h-23.4l0-17.2c19.1-16.7,31.1-41.2,31.1-68.4v-29.9c6.1-30.6,3.3-53.3-8.3-67.5
				c-7.3-8.9-16.4-12.3-22.8-13.6V28.6c0-4.3-3.5-7.8-7.8-7.8c-3,0-6,0-9.1,0c-3.2,0-6.5,0-9.8,0c-37.6,0-79.8,2.4-104.8,30.8
				c-18,20.4-24.3,50.6-19.1,92.2V174c0,27.3,12.1,51.8,31.2,68.4v17.2H38.9C17.5,259.7,0,277.1,0,298.6v83.1c0,4.3,3.5,7.8,7.8,7.8
				h228.5c4.3,0,7.8-3.5,7.8-7.8v-83.1c0,0,0,0,0,0C244.1,277.1,226.6,259.7,205.1,259.7z M61.9,61.8c20.8-23.5,59-25.5,93.1-25.5
				c3.3,0,6.5,0,9.7,0c0.5,0,0.9,0,1.4,0v33.8c0,2.1,0.9,4.2,2.4,5.7c1.6,1.5,3.6,2.2,5.8,2.1c0.7,0,11-0.2,18.2,8.6
				c5.3,6.5,8,16.4,7.9,29.3l-3.4-6.8c-1.7-3.4-5.7-5.1-9.3-3.9c-0.5,0.1-46.6,14.8-73.2,14.8c-25.5,0-48.6-13.8-48.9-14
				c-3.4-2.1-7.9-1.2-10.3,2l-10.3,13.7C44.4,95.3,50.1,75.2,61.9,61.8z M46.7,174v-28.7l17.1-22.7c9.6,4.8,29.1,12.9,50.7,12.9
				c23.1,0,57.4-9.4,71.6-13.5l11.2,22.5V174c0,41.5-33.8,75.3-75.3,75.3C80.5,249.3,46.7,215.5,46.7,174z M166.2,253.4l0,9.9
				l-23.9,15.9l-12.4-6.2v-8.5C142.9,263.4,155.2,259.5,166.2,253.4z M114.2,264.5v8l-16.8,6.7l-19.5-15.6v-10.3
				C88.8,259.5,101.1,263.4,114.2,264.5z M228.5,298.6v75.3h0h-36.3v-23.4c0-4.3-3.5-7.8-7.8-7.8s-7.8,3.5-7.8,7.8v23.4H67.5v-23.4
				c0-4.3-3.5-7.8-7.8-7.8s-7.8,3.5-7.8,7.8v23.4H15.6v-75.3c0-12.9,10.5-23.4,23.4-23.4h28.4l23.8,19.1c0.1,0.1,0.2,0.1,0.2,0.1
				c0.2,0.2,0.4,0.3,0.7,0.4c0.1,0.1,0.3,0.2,0.4,0.2c0.2,0.1,0.4,0.2,0.7,0.3c0.2,0.1,0.3,0.1,0.5,0.2c0.3,0.1,0.5,0.1,0.8,0.2
				c0.1,0,0.3,0.1,0.4,0.1c0.4,0.1,0.8,0.1,1.2,0.1c0.3,0,0.5,0,0.8,0c0,0,0.1,0,0.1,0c0.2,0,0.4-0.1,0.6-0.1c0.1,0,0.2,0,0.3-0.1
				c0.2,0,0.3-0.1,0.5-0.1c0.1,0,0.2-0.1,0.3-0.1c0.1,0,0.1,0,0.2-0.1l22.7-9.1l17.5,8.7c0,0,0,0,0,0l0.1,0.1
				c0.1,0.1,0.2,0.1,0.3,0.1c0.2,0.1,0.3,0.1,0.5,0.2c0.2,0.1,0.4,0.1,0.6,0.2c0.1,0,0.2,0.1,0.3,0.1c0.3,0.1,0.6,0.1,0.8,0.2
				c0,0,0,0,0.1,0c0.3,0,0.6,0.1,0.9,0.1c0.4,0,0.7,0,1.1-0.1c0.2,0,0.3-0.1,0.5-0.1c0.2,0,0.4-0.1,0.6-0.1c0.2,0,0.3-0.1,0.5-0.2
				c0.2-0.1,0.4-0.1,0.6-0.2c0.1-0.1,0.3-0.1,0.4-0.2c0.2-0.1,0.4-0.2,0.6-0.3c0,0,0.1,0,0.1-0.1l29.2-19.5h28.8
				C218,275.2,228.5,285.7,228.5,298.6C228.5,298.6,228.5,298.6,228.5,298.6z"/>
		</g>
	</g>
	<g>
		<g>
			<path d="M503.7,122c0-67.3-54.8-122-122-122c-67.3,0-122,54.7-122,122v187v72.7c0,4.3,3.5,7.8,7.8,7.8h228.5
				c4.3,0,7.8-3.5,7.8-7.8V309c0,0,0,0,0,0L503.7,122C503.7,122,503.7,122,503.7,122z M488.1,309v64.9h0h-36.3v-23.4
				c0-4.3-3.5-7.8-7.8-7.8s-7.8,3.5-7.8,7.8v23.4H327.1v-23.4c0-4.3-3.5-7.8-7.8-7.8s-7.8,3.5-7.8,7.8v23.4h-36.3V309
				c0-12.9,10.5-23.4,23.4-23.4h23.9c3.8,29.3,28.9,51.9,59.2,51.9c30.3,0,55.4-22.7,59.2-51.9h23.9
				C477.6,285.6,488.1,296.1,488.1,309C488.1,309,488.1,309,488.1,309z M350.5,285.6c4.3,0,7.8-3.5,7.8-7.8v-16c7.5,2,15.3,3,23.4,3
				c8.1,0,15.9-1.1,23.4-3.1l0,16v0c0,0,0,0,0,0c0,0.1,0,0.3,0,0.4c0,0.1,0,0.3,0,0.4c0,0.1,0,0.2,0.1,0.4c0,0.1,0,0.3,0.1,0.4
				c0,0.1,0.1,0.2,0.1,0.4c0,0.1,0.1,0.3,0.1,0.4c0,0.1,0.1,0.3,0.1,0.4c0,0.1,0.1,0.2,0.1,0.3c0.1,0.2,0.2,0.4,0.3,0.5
				c0,0,0,0.1,0.1,0.1c1.1,2,3,3.4,5.3,3.9c0,0,0,0,0,0c0.2,0,0.4,0.1,0.6,0.1c0.1,0,0.1,0,0.2,0c0.2,0,0.3,0,0.5,0
				c0.1,0,0.2,0,0.3,0c0,0,0,0,0,0h12.3c-3.7,20.6-21.8,36.3-43.4,36.3s-39.7-15.7-43.4-36.3L350.5,285.6L350.5,285.6z M306.4,174
				v-33.8h0H457V174c0,41.5-33.8,75.3-75.3,75.3C340.1,249.3,306.4,215.5,306.4,174z M488.1,277.9c-6.5-4.9-14.6-7.8-23.4-7.8h-30.9
				c-0.1,0-0.2,0-0.3,0s-0.2,0-0.3,0h-12.7l0-14c30.7-14.6,51.9-45.9,51.9-82.1v-41.6c0-4.3-3.5-7.8-7.8-7.8h-13v-13
				c0-4.3-3.5-7.8-7.8-7.8s-7.8,3.5-7.8,7.8v13h-15.6v-13c0-4.3-3.5-7.8-7.8-7.8s-7.8,3.5-7.8,7.8v13h-15.6v-13
				c0-4.3-3.5-7.8-7.8-7.8s-7.8,3.5-7.8,7.8v13h-15.6v-13c0-4.3-3.5-7.8-7.8-7.8s-7.8,3.5-7.8,7.8v13h-15.6v-13
				c0-4.3-3.5-7.8-7.8-7.8s-7.8,3.5-7.8,7.8v13h-13c-4.3,0-7.8,3.5-7.8,7.8V174c0,36.2,21.3,67.5,51.9,82.1v14H330
				c-0.1,0-0.2,0-0.3,0c-0.1,0-0.2,0-0.3,0h-30.9c-8.8,0-16.9,2.9-23.4,7.8V122c0-58.7,47.8-106.4,106.4-106.4
				c58.7,0,106.5,47.8,106.5,106.4c0,0,0,0,0,0V277.9z"/>
		</g>
	</g>
</g>
</svg>
