<?xml version="1.0" encoding="utf-8"?>
<!-- Generator: Adobe Illustrator 22.0.1, SVG Export Plug-In . SVG Version: 6.00 Build 0)  -->
<svg version="1.1" id="Шар_1" xmlns="http://www.w3.org/2000/svg" xmlns:xlink="http://www.w3.org/1999/xlink" x="0px" y="0px"
	 viewBox="0 0 419.8 122" style="enable-background:new 0 0 419.8 122;" xml:space="preserve">
<style type="text/css">
	.st0{fill:#231F20;}
</style>
<g>
	<path class="st0" d="M0.2,82.1L17.8,0.7h9.5l17.6,81.3H34.7l-3.7-16H13.9l-3.4,16H0.2z M22.6,21.6l-6.9,35.3h13.6L22.6,21.6z"/>
	<path class="st0" d="M66.1,72.6c3,0,5.4-1.1,7-3.3c1.6-2.2,2.5-4.7,2.5-7.4c0-3.8-0.9-6.8-2.7-9c-1.8-2.2-4.8-5.3-9-9.2
		c-4.2-3.9-7.4-7.8-9.6-11.5c-2.2-3.8-3.3-8.4-3.3-14.1c0-3.4,0.8-6.5,2.3-9.2c1.6-2.8,3.8-5,6.6-6.6c2.8-1.6,6.1-2.4,10-2.4
		c6.6,0,12.6,2.8,17,5.1l-3.9,9.4c-4.7-3-8.9-4.5-12.6-4.5c-2.6,0-4.8,0.8-6.5,2.3c-1.8,1.5-2.6,3.7-2.6,6.6c0,4.2,0.9,7.6,2.7,10.1
		c1.8,2.5,4.8,5.7,9,9.6c4.2,3.9,7.4,7.5,9.6,11c2.1,3.4,3.2,7.7,3.2,12.9c0,5.8-1.5,10.7-4.6,14.7c-3.1,4-7.9,6-14.5,6
		c-8.6,0-13.9-4.3-18.7-6.9l4.9-8.3C57.4,71,61.9,72.6,66.1,72.6z"/>
	<path class="st0" d="M107.2,82.1V10.9H93.4V0.7h38v10.2h-13.8v71.2H107.2z"/>
	<path class="st0" d="M155.5-0.2c8.6,0,14.4,3.6,17.3,10.8c2.9,7.2,4.4,17.5,4.4,30.8c0,12.6-1.7,22.7-5.2,30.3
		c-3.5,7.6-9,11.3-16.5,11.3c-7.4,0-12.8-3.8-16.3-11.5c-3.5-7.7-5.2-17.7-5.2-30.1c0-8.7,0.6-16,1.7-22c1.1-6,3.3-10.8,6.5-14.3
		C145.3,1.6,149.8-0.2,155.5-0.2z M155.5,9.6c-4.7,0-7.7,2.7-9.3,8.1c-1.5,5.4-2.3,13.3-2.3,23.6c0,21.1,3.9,31.7,11.6,31.7
		c7.9,0,11.8-10.6,11.8-31.7c0-10.3-0.8-18.2-2.3-23.6C163.4,12.3,160.2,9.6,155.5,9.6z"/>
	<path class="st0" d="M200.8,42.6v39.5h-10.2V0.7h14.6c6.7,0,11.7,1.7,15.1,5c3.4,3.3,5,8.9,5,16.7c0,5.9-1.2,10.5-3.5,13.9
		c-2.4,3.4-5.9,5.3-10.5,5.8l17.7,40h-10.9L200.8,42.6z M200.8,36.1h3.8c3.5,0,6.1-1,7.9-2.9c1.8-1.9,2.6-5.6,2.6-11.1
		c0-4.1-0.8-7.1-2.3-9c-1.5-1.9-4.1-2.8-7.7-2.8h-4.3V36.1z"/>
	<path class="st0" d="M239.4,82.1V0.7h10.2v81.3H239.4z"/>
	<path class="st0" d="M261.3,82.1l17.6-81.3h9.5L306,82.1h-10.2l-3.7-16H275l-3.4,16H261.3z M283.7,21.6l-6.9,35.3h13.6L283.7,21.6z
		"/>
</g>
<g>
	<path class="st0" d="M331.1,48.3V28.3h4.3v8.1h8.7v-8.1h4.3v20.1h-4.3v-8.4h-8.7v8.4H331.1z"/>
	<path class="st0" d="M373.5,38.3c0,1.4-0.3,2.8-0.8,4.1c-0.5,1.3-1.3,2.4-2.3,3.4c-1,1-2.2,1.8-3.5,2.3c-1.3,0.5-2.7,0.8-4.1,0.8
		c-1.2,0-2.4-0.2-3.6-0.6c-1.2-0.4-2.3-1-3.2-1.8c-1.3-1-2.2-2.2-2.9-3.6c-0.7-1.4-1-2.9-1-4.5c0-1.4,0.3-2.8,0.8-4.1
		c0.5-1.3,1.3-2.4,2.3-3.4c1-1,2.2-1.7,3.5-2.3c1.3-0.5,2.7-0.8,4.1-0.8c1.4,0,2.8,0.3,4.1,0.8c1.3,0.5,2.5,1.3,3.5,2.3
		c1,1,1.8,2.1,2.3,3.4C373.2,35.6,373.5,36.9,373.5,38.3z M362.8,45.1c1.8,0,3.3-0.6,4.5-1.9c1.2-1.3,1.8-2.9,1.8-4.8
		c0-1.9-0.6-3.5-1.8-4.8c-1.2-1.3-2.7-1.9-4.5-1.9c-1.8,0-3.3,0.6-4.5,1.9c-1.2,1.3-1.8,2.9-1.8,4.8c0,1.9,0.6,3.5,1.8,4.8
		C359.4,44.4,360.9,45.1,362.8,45.1z"/>
	<path class="st0" d="M384.1,31.9v16.4h-4.3V31.9h-4.9v-3.6H389v3.6H384.1z"/>
	<path class="st0" d="M391.8,48.3V28.3h11.8v3.6h-7.5V36h7.5v3.6h-7.5v5h7.5v3.6H391.8z"/>
	<path class="st0" d="M407.8,48.3V28.3h4.3v16.4h6.9v3.6H407.8z"/>
	<path class="st0" d="M331.1,82.1V62h4.3v16.4h6.9v3.6H331.1z"/>
	<path class="st0" d="M348.5,82.1L341.1,62h4.7l3.9,12.5c0.1,0.3,0.2,0.7,0.3,1.4c0.2,0.7,0.3,1.5,0.5,2.4c0.1-0.9,0.2-1.6,0.4-2.3
		c0.1-0.7,0.3-1.2,0.4-1.6l4-12.4h4.7l-7.5,20.1H348.5z"/>
	<path class="st0" d="M362.3,82.1V62h4.3v20.1H362.3z"/>
	<path class="st0" d="M376.3,82.1L368.9,62h4.7l3.9,12.5c0.1,0.3,0.2,0.7,0.3,1.4c0.2,0.7,0.3,1.5,0.5,2.4c0.1-0.9,0.2-1.6,0.4-2.3
		c0.1-0.7,0.3-1.2,0.4-1.6l4-12.4h4.7l-7.5,20.1H376.3z"/>
</g>
<g>
	<path class="st0" d="M192.6,118.3c0.5,0.6,1.1,1.1,1.6,1.4c0.6,0.3,1.1,0.5,1.7,0.5c0.8,0,1.5-0.3,2-0.8s0.8-1.2,0.8-2
		c0-1-0.9-2.3-2.7-3.8l-0.3-0.2c-1.4-1.2-2.3-2.2-2.8-2.9s-0.6-1.5-0.6-2.3c0-1.2,0.4-2.3,1.2-3.1s1.9-1.2,3.1-1.2
		c0.5,0,1.1,0.1,1.6,0.2c0.5,0.1,1,0.4,1.5,0.7v2.2c-0.4-0.4-0.9-0.8-1.4-1c-0.5-0.2-1-0.3-1.5-0.3c-0.7,0-1.3,0.2-1.8,0.7
		c-0.5,0.5-0.7,1-0.7,1.7c0,1,0.8,2.1,2.5,3.5l0.1,0.1c1.6,1.3,2.6,2.3,3,3.1c0.5,0.8,0.7,1.6,0.7,2.5c0,1.4-0.4,2.6-1.3,3.5
		c-0.9,0.9-2,1.4-3.4,1.4c-0.6,0-1.3-0.1-1.9-0.3s-1.1-0.5-1.6-1V118.3z"/>
	<path class="st0" d="M204.2,97.2c0.5,0,0.9,0.2,1.2,0.5s0.5,0.7,0.5,1.1c0,0.4-0.2,0.8-0.5,1.1s-0.7,0.5-1.2,0.5
		c-0.4,0-0.8-0.2-1.1-0.5c-0.3-0.3-0.5-0.7-0.5-1.2s0.2-0.8,0.5-1.1C203.4,97.4,203.8,97.2,204.2,97.2z M203.1,104.2h2.2v17.6h-2.2
		V104.2z"/>
	<path class="st0" d="M209.6,104.2h2.2v1.6c0.4-0.6,0.9-1.1,1.4-1.4c0.6-0.3,1.2-0.5,1.9-0.5c1.2,0,2.1,0.4,2.7,1.3
		c0.6,0.9,0.9,2.3,0.9,4.3v12.2h-2.2v-12.5c0-1.4-0.2-2.3-0.5-2.8s-0.9-0.8-1.7-0.8c-0.8,0-1.5,0.4-1.9,1.1
		c-0.4,0.7-0.7,1.8-0.7,3.3v11.7h-2.2V104.2z"/>
	<path class="st0" d="M229.6,104.6v2.5c-0.3-0.4-0.7-0.7-1-0.9c-0.3-0.2-0.7-0.3-1.1-0.3c-1.1,0-1.9,0.6-2.5,1.8
		c-0.5,1.2-0.8,3.1-0.8,5.6c0,2.2,0.3,3.8,0.8,4.9c0.5,1.1,1.3,1.7,2.4,1.7c0.5,0,0.9-0.1,1.2-0.3s0.7-0.6,1-1v2.6
		c-0.4,0.3-0.8,0.5-1.2,0.6s-0.9,0.2-1.3,0.2c-1.5,0-2.8-0.8-3.6-2.3c-0.9-1.5-1.3-3.7-1.3-6.4c0-3.1,0.5-5.4,1.4-7
		c0.9-1.6,2.3-2.3,4.1-2.3c0.4,0,0.8,0.1,1.1,0.2S229.3,104.4,229.6,104.6z"/>
	<path class="st0" d="M241.2,113.5h-7.7v0.6c0,1.9,0.3,3.5,0.8,4.5c0.5,1.1,1.2,1.6,2.1,1.6c0.7,0,1.3-0.4,1.8-1.2s0.7-1.8,0.7-3.1
		h2.1c-0.1,1.9-0.5,3.4-1.4,4.5s-1.9,1.6-3.3,1.6c-1.6,0-2.9-0.8-3.7-2.3c-0.8-1.5-1.2-3.7-1.2-6.7c0-2.9,0.4-5.2,1.3-6.8
		s2.1-2.4,3.7-2.4c1.6,0,2.8,0.8,3.6,2.3c0.8,1.5,1.2,3.8,1.2,6.8V113.5z M239.1,111.7c0-1.9-0.2-3.3-0.7-4.3
		c-0.5-1-1.1-1.5-1.9-1.5c-0.9,0-1.6,0.5-2.1,1.5c-0.5,1-0.8,2.5-0.9,4.4H239.1z"/>
	<path class="st0" d="M255.4,97.8H252l0.5-2.2h5.2v26.2h-2.3V97.8z"/>
	<path class="st0" d="M273.9,112.5l-3.9,9.3h-2.5l5.5-12.6c-0.5,0.4-0.9,0.7-1.4,0.9s-1,0.3-1.5,0.3c-1.5,0-2.7-0.7-3.5-2
		c-0.9-1.3-1.3-3.1-1.3-5.3c0-2.4,0.5-4.3,1.5-5.7c1-1.4,2.3-2.1,3.9-2.1c1.8,0,3.2,0.7,4.2,2s1.5,3.2,1.5,5.5c0,1.5-0.2,3-0.6,4.6
		C275.3,109,274.7,110.7,273.9,112.5z M270.8,108.3c1,0,1.8-0.5,2.3-1.4s0.8-2.2,0.8-3.8c0-1.9-0.3-3.3-0.8-4.3
		c-0.6-1-1.4-1.5-2.4-1.5c-1,0-1.8,0.5-2.3,1.5c-0.5,1-0.8,2.4-0.8,4.2c0,1.7,0.3,3,0.8,3.9C269,107.8,269.8,108.3,270.8,108.3z"/>
	<path class="st0" d="M284,97.8h-3.4l0.5-2.2h5.2v26.2H284V97.8z"/>
	<path class="st0" d="M300.8,114.7h-7.3v-2.2l7-16.9h2.5v17h1.9v2.1H303v7.1h-2.2V114.7z M295.6,112.6h5.2v-4.3c0-1.6,0-3.2,0.1-5
		c0.1-1.7,0.2-3.6,0.4-5.5c-0.3,0.8-0.6,1.6-0.9,2.4c-0.3,0.8-0.6,1.7-1,2.6L295.6,112.6z"/>
</g>
</svg>
