<svg width="707" height="484" viewBox="0 0 707 484" fill="none" xmlns="http://www.w3.org/2000/svg">
<path d="M1.78259 483.182C-3.94287 423.5 4.2364 361.365 24.6844 303.318C45.1324 246.088 77.8492 192.128 121.199 146.345C163.731 100.561 216.896 63.7703 274.15 38.4257C332.222 13.0811 395.202 0.817581 459 2.09081e-05C521.98 2.6414e-05 585.778 13.0811 643.85 38.4258C701.922 63.7703 754.269 100.561 796.801 146.345C840.151 192.128 872.868 246.088 893.316 304.135C913.764 362.182 921.943 423.5 916.217 484C904.766 364.635 851.602 254.264 767.356 176.595C725.642 138.169 676.567 107.101 624.22 86.6622C571.873 66.223 515.436 55.5946 459 55.5946C402.564 55.5946 346.127 66.223 293.78 86.6621C241.433 107.101 192.358 138.169 150.644 176.595C67.2163 253.446 13.2335 363.818 1.78259 483.182Z" fill="#F8F8F8"/>
</svg>
