<svg width="1330" height="1247" viewBox="0 0 1330 1247" fill="none" xmlns="http://www.w3.org/2000/svg">
<path d="M1136.78 297.387C1167.3 367.789 1181.88 446.66 1179.93 525.392C1177.66 603.129 1159.18 681.722 1124.54 754.555C1090.9 827.065 1040.77 892.818 981.157 946.25C920.547 1000 848.804 1039.77 771.549 1065.92C694.965 1090.75 612.223 1099.98 531.602 1092.02C450.98 1084.07 372.803 1059.92 303.01 1020.95C232.222 982.303 171.136 929.511 123.356 866.904C75.5755 804.298 41.423 732.872 24.5012 656.959C85.5478 797.764 193.768 911.172 326.873 972.511C392.767 1002.84 464.707 1021.32 536.429 1025.56C608.152 1029.8 680.975 1020.49 749.602 998.235C818.228 975.982 882.659 940.789 938.244 895.265C993.829 849.74 1041.24 792.567 1076.79 729.337C1147.9 602.879 1169.98 447.222 1136.78 297.387Z" fill="#F8F8F8"/>
<path d="M25.2399 655.514C-5.28342 585.112 -19.8669 506.24 -17.9177 427.508C-15.9686 348.776 2.51323 270.183 37.1523 197.351C70.7967 124.841 120.921 59.0871 180.537 5.65561C241.148 -48.0983 312.89 -87.8619 390.145 -114.013C466.729 -138.846 549.471 -148.077 630.093 -140.12C710.714 -132.162 788.892 -108.013 858.685 -69.0439C929.472 -30.3978 990.558 22.3945 1038.34 85.001C1086.12 147.608 1120.27 219.033 1137.19 294.946C1075.15 154.464 965.937 41.3782 833.827 -20.2832C767.933 -50.6163 695.993 -69.0887 624.27 -73.3315C552.548 -77.5744 479.725 -68.2605 411.098 -46.0073C342.471 -23.754 278.04 11.4388 222.455 56.9631C166.87 102.487 119.46 159.661 83.9049 222.89C13.1184 350.344 -8.95273 506.001 25.2399 655.514Z" fill="#F8F8F8"/>
</svg>
