<svg width="693" height="533" viewBox="0 0 693 425" fill="none" xmlns="http://www.w3.org/2000/svg">
<path d="M-302.771 532.24C-312.712 470.617 -307.681 405.587 -289.05 344.044C-270.419 282.501 -238.188 224.445 -193.883 174.221C-150.468 124.049 -94.9269 82.5576 -34.2256 52.6998C27.3654 22.7916 95.1083 6.16404 164.453 1.37198C232.959 -2.52052 303.168 7.12046 367.912 29.8503C432.657 52.5802 491.886 87.55 540.997 132.465C590.999 177.33 629.943 231.342 655.797 290.358C681.65 349.373 694.361 412.543 691.897 475.723C671.126 352.527 605.541 241.248 509.961 165.749C462.196 128.424 406.883 99.195 348.671 81.2053C290.46 63.2155 228.41 55.6666 167.022 59.1547C105.634 62.6428 44.9064 77.1679 -10.762 101.628C-66.4303 126.089 -117.879 161.384 -160.862 203.865C-246.778 289.677 -298.631 407.628 -302.771 532.24Z" fill="black" fill-opacity="0.38"/>
</svg>
