<svg width="443" height="478" viewBox="0 0 543 578" fill="none" xmlns="http://www.w3.org/2000/svg">
<path d="M541.661 31.599C546.867 100.997 535.118 172.761 508.592 239.364C482.065 305.967 440.761 367.409 386.784 419.006C333.801 470.632 268.171 511.465 197.909 538.886C126.654 566.279 49.8228 578.336 -27.6667 577.094C-104.139 574.932 -181.222 557.575 -250.994 526.194C-320.766 494.814 -383.252 450.359 -433.556 395.813C-484.854 341.239 -523.001 277.551 -546.132 209.544C-569.262 141.537 -577.4 70.1593 -568.678 0.206874C-557.273 139.03 -494.954 268.858 -395.925 361.778C-346.398 407.764 -287.718 445.471 -224.754 470.967C-161.791 496.463 -93.5745 510.724 -25.0473 512.661C43.4799 514.599 112.318 504.213 176.477 482.311C240.637 460.409 301.135 426.071 352.909 382.949C456.482 295.757 525.259 169.636 541.661 31.599Z" fill="#F8F8F8"/>
</svg>
