<svg width="697" height="531" viewBox="0 0 697 531" fill="none" xmlns="http://www.w3.org/2000/svg">
<path d="M691.712 0.782878C701.414 62.4432 696.132 127.453 677.263 188.923C658.395 250.394 625.94 308.326 581.44 358.379C537.831 408.385 482.13 449.663 421.313 479.288C359.607 508.96 291.799 525.328 222.436 529.855C153.915 533.485 83.7429 523.576 19.0861 500.599C-45.5707 477.622 -104.664 442.426 -153.603 397.324C-203.431 352.268 -242.167 298.108 -267.793 238.995C-293.418 179.882 -305.886 116.665 -303.178 53.4952C-282.882 176.769 -217.726 288.296 -122.438 364.159C-74.8175 401.666 -19.6163 431.106 38.5257 449.318C96.6679 467.531 158.688 475.317 220.09 472.063C281.492 468.81 342.276 454.517 398.039 430.27C453.802 406.023 505.386 370.925 548.534 328.609C634.782 243.128 687.09 125.376 691.712 0.782878Z" fill="#F8F8F8"/>
</svg>
