<svg width="477" height="980" viewBox="0 0 477 980" fill="none" xmlns="http://www.w3.org/2000/svg">
<path d="M517.126 977.84C453.354 983.951 386.961 975.221 324.936 953.398C263.785 931.575 206.128 896.657 157.207 850.392C108.285 805 68.9738 748.259 41.8925 687.154C14.8111 625.176 1.70719 557.96 0.833597 489.871C0.8336 422.656 14.8111 354.567 41.8925 292.589C68.9738 230.611 108.285 174.743 157.207 129.351C206.128 83.0852 263.785 48.168 325.81 26.3447C387.835 4.52138 453.354 -4.20793 518 1.90259C390.455 14.1236 272.521 70.8642 189.529 160.776C148.471 205.296 115.274 257.672 93.4343 313.539C71.5945 369.407 60.2379 429.639 60.2379 489.871C60.2379 550.104 71.5945 610.336 93.4343 666.204C115.274 722.071 148.471 774.447 189.529 818.967C271.647 908.006 389.582 965.619 517.126 977.84Z" fill="#F8F8F8"/>
</svg>
