<svg width="607" height="700" viewBox="0 0 607 700" fill="none" xmlns="http://www.w3.org/2000/svg">
<path d="M606.369 540.216C573.591 563.095 534.472 578.577 493.402 585.489C452.333 592.401 409.314 590.744 367.307 580.145C325.589 570.029 285.359 550.704 250.359 525.228C215.07 499.27 185.675 466.143 162.665 428.794C140.421 391.66 125.515 349.769 119.783 307.247C114.05 264.725 117.014 221.838 128.688 181.799C140.073 141.278 159.981 104.355 186.606 73.3301C213.231 42.3051 246.096 17.4452 283.395 1.05098C218.128 47.2906 172.837 115.187 157.015 189.758C149.343 226.909 148.561 265.997 155.131 303.541C161.702 341.084 175.438 377.833 195.371 411.109C215.304 444.385 241.434 474.188 271.841 498.373C302.248 522.559 337.696 541.342 374.835 553.381C449.589 577.191 533.013 572.953 606.369 540.216Z" fill="black" fill-opacity="0.38"/>
</svg>
