<svg width="445" height="476" viewBox="0 0 545 576" fill="none" xmlns="http://www.w3.org/2000/svg">
<path d="M-568.792 547.996C-574.266 478.618 -562.794 406.809 -536.525 340.104C-510.256 273.399 -469.189 211.799 -415.413 159.994C-362.631 108.166 -297.159 67.0814 -227.004 39.3913C-155.857 11.7254 -79.0736 -0.625938 -1.58084 0.319781C74.8983 2.18927 152.047 19.2519 221.939 50.3654C291.83 81.479 354.486 125.695 405 180.049C456.507 234.427 494.9 297.97 518.293 365.888C541.685 433.807 550.098 505.154 541.647 575.14C529.706 436.36 466.887 306.77 367.501 214.229C317.798 168.432 258.973 130.949 195.913 105.694C132.852 80.4385 64.5818 66.4385 -3.95148 64.7632C-72.4848 63.088 -141.281 73.7374 -205.355 95.8849C-269.429 118.032 -329.792 152.602 -381.4 195.922C-484.634 283.511 -552.922 409.896 -568.792 547.996Z" fill="black" fill-opacity="0.42"/>
</svg>
