<svg width="24" height="24" viewBox="0 0 24 24" fill="none" xmlns="http://www.w3.org/2000/svg">
<path d="M20.8413 14.9902C20.9319 15.1476 20.9566 15.3345 20.9099 15.51C20.8632 15.6855 20.749 15.8354 20.5921 15.9269C20.4885 15.9897 20.3695 16.0224 20.2484 16.0215C20.1266 16.0225 20.0068 15.9913 19.9011 15.9309C19.7954 15.8705 19.7077 15.7831 19.6468 15.6777L18.0655 12.9449C17.1377 13.569 16.1167 14.0418 15.0405 14.3457L15.539 17.173C15.5691 17.3529 15.5275 17.5373 15.423 17.6868C15.3185 17.8362 15.1596 17.9387 14.9804 17.9722H14.8601C14.6983 17.9727 14.5415 17.9161 14.4173 17.8123C14.2931 17.7086 14.2095 17.5644 14.1812 17.405L13.6913 14.6207C13.1308 14.7042 12.565 14.7473 11.9984 14.7496C11.429 14.7498 10.8604 14.7096 10.2968 14.6293L9.80695 17.4136C9.77864 17.573 9.69503 17.7172 9.57085 17.8209C9.44666 17.9247 9.28986 17.9813 9.12805 17.9808H9.00773C8.8285 17.9473 8.66958 17.8448 8.56512 17.6954C8.46067 17.5459 8.41902 17.3614 8.44914 17.1816L8.95617 14.3457C7.87664 14.0438 6.85246 13.5709 5.92258 12.9449L4.33273 15.6949C4.27132 15.7979 4.18462 15.8836 4.08086 15.9437C3.97709 16.0039 3.85969 16.0365 3.73977 16.0386C3.61929 16.0382 3.50104 16.0061 3.39687 15.9456C3.29269 15.8851 3.20624 15.7983 3.14619 15.6938C3.08614 15.5894 3.05458 15.471 3.05469 15.3505C3.05479 15.2301 3.08656 15.1117 3.1468 15.0074L4.82258 12.1027C4.23698 11.6005 3.69902 11.0453 3.21555 10.4441C3.15841 10.3744 3.11571 10.2941 3.08994 10.2078C3.06417 10.1214 3.05584 10.0308 3.06544 9.94126C3.07504 9.85167 3.10237 9.76489 3.14585 9.68598C3.18933 9.60706 3.24807 9.53759 3.31867 9.48161C3.3878 9.424 3.4677 9.3807 3.55371 9.35423C3.63972 9.32777 3.73014 9.31867 3.8197 9.32747C3.90927 9.33627 3.99619 9.36278 4.07541 9.40547C4.15463 9.44816 4.22457 9.50618 4.28117 9.57615C4.81911 10.2468 5.43342 10.8525 6.11164 11.3808H6.12023C7.79838 12.6899 9.8701 13.3926 11.9984 13.3746C14.5163 13.3746 16.4499 12.4894 17.8679 11.3894H17.8851C18.5633 10.8611 19.1776 10.2554 19.7155 9.58474C19.7715 9.51414 19.841 9.45539 19.9199 9.41191C19.9988 9.36844 20.0856 9.3411 20.1752 9.33151C20.2648 9.32191 20.3554 9.33024 20.4417 9.35601C20.528 9.38178 20.6084 9.42448 20.678 9.48161C20.7486 9.53759 20.8074 9.60706 20.8509 9.68598C20.8943 9.76489 20.9217 9.85167 20.9313 9.94126C20.9409 10.0308 20.9325 10.1214 20.9068 10.2078C20.881 10.2941 20.8383 10.3744 20.7812 10.4441C20.2977 11.0453 19.7597 11.6005 19.1741 12.1027L20.8413 14.9902Z" fill="#707D9B"/>
</svg>
