<svg width="11" height="11" viewBox="0 0 11 11" fill="none" xmlns="http://www.w3.org/2000/svg">
<path d="M2.56178 11C3.97869 11 5.12922 9.78707 5.12922 8.29332C5.12922 7.30147 4.61913 6.42911 3.86533 5.95709C3.74631 5.88539 3.57063 5.94514 3.4006 5.98099C3.50828 5.62847 3.9787 4.26019 4.94219 2.98153C6.23441 1.26671 6.66466 1.04171 8.62566 0.442154C7.65649 1.17708 7.09541 2.31831 7.00472 3.77621C6.94238 4.77404 7.10674 5.64639 7.19742 6.02879C7.01606 6.04074 6.80069 5.95111 6.66466 6.08854C5.63315 7.11624 5.58782 8.83107 6.56265 9.91852C7.53748 11.006 9.16409 11.0538 10.1956 10.0261C11.2271 8.99838 11.2724 7.28355 10.2976 6.19609C9.6515 5.47312 8.71635 5.21022 7.86054 5.41934C7.76419 5.44324 7.69051 5.53884 7.62249 5.64639C7.41279 4.54699 7.12942 1.67899 9.50982 0.501908C9.60617 0.478008 9.67984 0.394357 9.69117 0.286807C9.70818 0.143407 9.61183 0.017925 9.48147 1.38835e-10C7.19742 -6.49866e-05 6.12105 0.597504 4.55678 2.68278C3.5026 4.08691 3.02653 5.55676 2.93018 5.87344C2.82249 5.74796 2.72615 5.59261 2.56746 5.59261C1.15055 5.59261 2.08501e-05 6.80555 2.08501e-05 8.2993C-0.00564678 9.78708 1.14488 11 2.56178 11Z" fill="white"/>
</svg>
