<svg width="14" height="14" viewBox="0 0 14 14" fill="none" xmlns="http://www.w3.org/2000/svg">
<path fill-rule="evenodd" clip-rule="evenodd" d="M7 0C3.14037 0 0 3.14037 0 7C0 10.8596 3.14037 14 7 14C10.8596 14 14 10.8596 14 7C14 3.14037 10.8596 0 7 0ZM7.44458 2.27427L9.24446 1.30652C10.2411 1.70114 11.1108 2.34777 11.7723 3.17027L11.3436 5.14952L9.97071 5.82239L7.44458 3.98227V2.27427ZM4.77043 1.30123L6.5703 2.27248V3.98223L4.04593 5.82236L2.66605 5.14861L2.2373 3.15711C2.90055 2.33636 3.77205 1.69323 4.77043 1.30123ZM1.95114 10.4599C1.37977 9.62867 1.00789 8.6513 0.905518 7.59518L2.38689 5.98605L3.73789 6.64668L4.75552 9.5368L3.89539 10.5675L1.95114 10.4599ZM8.56025 12.9157C8.06062 13.0478 7.54 13.1248 7.00012 13.1248C6.34737 13.1248 5.71912 13.0198 5.1285 12.8299L4.57812 11.1167L5.45575 10.0623H8.548L9.40987 11.0826L8.56025 12.9157ZM10.092 10.5375L9.24585 9.53562L10.2775 6.64637L11.6223 5.98749L13.095 7.59574C13.0066 8.50662 12.7135 9.35624 12.2681 10.1079L10.092 10.5375Z" fill="#FF0000"/>
</svg>
