<svg width="12" height="12" viewBox="0 0 12 12" fill="none" xmlns="http://www.w3.org/2000/svg">
<path d="M5.99998 11.0855C3.02769 11.0855 0.618164 8.80865 0.618164 6.00002C0.618164 3.19139 3.02769 0.914551 5.99998 0.914551C8.97228 0.914551 11.3818 3.19139 11.3818 6.00002C11.3784 8.80732 8.97087 11.0823 5.99998 11.0855ZM5.99998 2.36754C3.87691 2.36754 2.15583 3.99386 2.15583 6.00002C2.15583 8.00618 3.87691 9.6325 5.99998 9.6325C8.12305 9.6325 9.84414 8.00618 9.84414 6.00002C9.84414 3.99386 8.12305 2.36754 5.99998 2.36754ZM5.99998 8.17951C4.72614 8.17951 3.69349 7.20372 3.69349 6.00002C3.69349 4.79632 4.72614 3.82053 5.99998 3.82053C7.27382 3.82053 8.30648 4.79632 8.30648 6.00002C8.30648 6.57806 8.06347 7.13242 7.63092 7.54115C7.19837 7.94988 6.6117 8.17951 5.99998 8.17951Z" fill="white"/>
</svg>
