<svg width="16" height="16" viewBox="0 0 16 16" fill="none" xmlns="http://www.w3.org/2000/svg">
<path d="M7.1655 1C3.76593 1 1 3.76593 1 7.1655C1 10.5653 3.76593 13.331 7.1655 13.331C10.5653 13.331 13.331 10.5653 13.331 7.1655C13.331 3.76593 10.5653 1 7.1655 1ZM7.1655 12.1928C4.39349 12.1928 2.13825 9.93753 2.13825 7.16553C2.13825 4.39352 4.39349 2.13825 7.1655 2.13825C9.9375 2.13825 12.1927 4.39349 12.1927 7.1655C12.1927 9.9375 9.9375 12.1928 7.1655 12.1928Z" fill="#838C9D" stroke="#838C9D" stroke-width="0.5"/>
<path d="M14.8336 14.0313L11.5706 10.7683C11.3483 10.546 10.9882 10.546 10.7659 10.7683C10.5435 10.9905 10.5435 11.3509 10.7659 11.5731L14.0289 14.836C14.14 14.9472 14.2855 15.0028 14.4312 15.0028C14.5767 15.0028 14.7224 14.9472 14.8336 14.836C15.0559 14.6139 15.0559 14.2534 14.8336 14.0313Z" fill="#838C9D" stroke="#838C9D" stroke-width="0.5"/>
</svg>
