<svg width="11" height="12" viewBox="0 0 11 12" fill="none" xmlns="http://www.w3.org/2000/svg">
<path fill-rule="evenodd" clip-rule="evenodd" d="M1.00012 5.13672H3.71084V6.78732C3.71084 7.3396 4.15856 7.78732 4.71084 7.78732H6.36154V10.4981C6.36154 11.0504 5.91382 11.4981 5.36154 11.4981H1.00012C0.447836 11.4981 0.00012207 11.0504 0.00012207 10.4981V6.13672C0.00012207 5.58443 0.447837 5.13672 1.00012 5.13672ZM1.72294 7.65474C2.16211 7.65474 2.51812 7.29873 2.51812 6.85957C2.51812 6.4204 2.16211 6.06439 1.72294 6.06439C1.28378 6.06439 0.927767 6.4204 0.927767 6.85957C0.927767 7.29873 1.28378 7.65474 1.72294 7.65474ZM3.31334 9.24518C3.75251 9.24518 4.10852 8.88916 4.10852 8.45C4.10852 8.01084 3.75251 7.65482 3.31334 7.65482C2.87418 7.65482 2.51817 8.01084 2.51817 8.45C2.51817 8.88916 2.87418 9.24518 3.31334 9.24518ZM5.69875 10.0403C5.69875 10.4795 5.34274 10.8355 4.90358 10.8355C4.46441 10.8355 4.1084 10.4795 4.1084 10.0403C4.1084 9.60114 4.46441 9.24512 4.90358 9.24512C5.34274 9.24512 5.69875 9.60114 5.69875 10.0403Z" fill="white"/>
<path fill-rule="evenodd" clip-rule="evenodd" d="M5.63872 0.367188C5.08643 0.367188 4.63872 0.814902 4.63872 1.36719V5.7286C4.63872 6.28089 5.08643 6.7286 5.63872 6.7286H10.0001C10.5524 6.7286 11.0001 6.28089 11.0001 5.7286V1.36719C11.0001 0.814903 10.5524 0.367188 10.0001 0.367188H5.63872ZM6.33963 2.84107C6.7666 2.84107 7.11273 2.49494 7.11273 2.06797C7.11273 1.641 6.7666 1.29488 6.33963 1.29488C5.91266 1.29488 5.56654 1.641 5.56654 2.06797C5.56654 2.49494 5.91266 2.84107 6.33963 2.84107ZM6.3396 5.93343C6.76656 5.93343 7.11269 5.58731 7.11269 5.16034C7.11269 4.73337 6.76656 4.38725 6.3396 4.38725C5.91263 4.38725 5.5665 4.73337 5.5665 5.16034C5.5665 5.58731 5.91263 5.93343 6.3396 5.93343ZM8.6588 3.61417C8.6588 4.04113 8.31267 4.38726 7.8857 4.38726C7.45874 4.38726 7.11261 4.04113 7.11261 3.61417C7.11261 3.1872 7.45874 2.84107 7.8857 2.84107C8.31267 2.84107 8.6588 3.1872 8.6588 3.61417ZM9.43195 5.93343C9.85891 5.93343 10.205 5.58731 10.205 5.16034C10.205 4.73337 9.85891 4.38725 9.43195 4.38725C9.00498 4.38725 8.65885 4.73337 8.65885 5.16034C8.65885 5.58731 9.00498 5.93343 9.43195 5.93343ZM10.205 2.06799C10.205 2.49496 9.85891 2.84108 9.43195 2.84108C9.00498 2.84108 8.65885 2.49496 8.65885 2.06799C8.65885 1.64102 9.00498 1.2949 9.43195 1.2949C9.85891 1.2949 10.205 1.64102 10.205 2.06799Z" fill="white"/>
</svg>
