<svg width="41" height="41" viewBox="0 0 41 41" fill="none" xmlns="http://www.w3.org/2000/svg">
<circle cx="20.5" cy="20.5" r="20.5" transform="rotate(90 20.5 20.5)" fill="#FF2929"/>
<path d="M29.2963 23.6574C29.2409 23.8991 29.2016 24.146 29.127 24.3814C28.8332 25.3117 28.2454 26.029 27.4794 26.6128C27.366 26.6994 27.2463 26.7776 27.1297 26.8602C27.1203 26.8669 27.115 26.8785 27.0967 26.9022C27.4365 27.5838 27.78 28.2725 28.1436 29.0009C28.0516 28.9674 27.998 28.9505 27.9466 28.9286C27.0721 28.5543 26.1962 28.1836 25.3253 27.8013C25.148 27.7236 24.9836 27.7044 24.7943 27.7405C23.0828 28.0675 21.4754 27.7807 20.0001 26.858C19.0555 26.2671 18.3534 25.4573 18.0269 24.3662C17.721 23.3434 17.842 22.3604 18.365 21.4381C19.0559 20.2206 20.1372 19.4814 21.4423 19.0643C23.0412 18.5533 24.6357 18.6069 26.194 19.2393C27.2865 19.6829 28.1824 20.3783 28.7827 21.4149C29.0422 21.8629 29.2003 22.3457 29.2655 22.8593C29.2722 22.9116 29.2852 22.9625 29.2954 23.0143C29.2963 23.2287 29.2963 23.443 29.2963 23.6574ZM22.7206 22.1532C22.7183 21.6869 22.3311 21.301 21.8653 21.3006C21.3994 21.3001 21.0113 21.6851 21.0082 22.1514C21.005 22.6239 21.4003 23.0178 21.8724 23.0129C22.3387 23.008 22.7228 22.6186 22.7206 22.1532ZM25.3034 21.3006C24.838 21.2952 24.4463 21.6771 24.4383 22.1433C24.4307 22.6087 24.8103 23.0022 25.2766 23.0129C25.7487 23.0237 26.148 22.6342 26.1507 22.1612C26.1534 21.6958 25.7693 21.3059 25.3034 21.3006Z" fill="white"/>
<path d="M24.61 17.6103C24.0334 17.6103 23.5028 17.5755 22.9784 17.6166C20.9749 17.7724 19.2384 18.5161 17.9262 20.0793C17.0106 21.1695 16.597 22.4402 16.7587 23.8739C16.7765 24.0315 16.8109 24.1874 16.848 24.4027C16.3826 24.2875 15.9462 24.2039 15.5282 24.0664C15.2772 23.9837 15.0735 23.9931 14.8355 24.1021C14.2035 24.3915 13.5594 24.6546 12.9203 24.9279C12.873 24.948 12.8234 24.9645 12.7269 25.0003C13.0355 24.3808 13.325 23.8002 13.6068 23.2347C13.2647 22.9431 12.9132 22.6769 12.6001 22.371C11.7635 21.5532 11.2227 20.5701 11.052 19.404C10.898 18.3517 11.0882 17.3495 11.5934 16.4191C12.4268 14.885 13.7448 13.9345 15.3768 13.4062C17.1517 12.8314 18.9302 12.8644 20.6778 13.5196C22.2424 14.1065 23.4836 15.0904 24.2299 16.621C24.384 16.9381 24.4849 17.2816 24.61 17.6103ZM16.4322 16.4415C16.4335 15.9756 16.049 15.5871 15.5831 15.5826C15.1177 15.5786 14.7265 15.9614 14.7198 16.4272C14.7131 16.8993 15.1052 17.2959 15.5778 17.295C16.044 17.2937 16.4308 16.9073 16.4322 16.4415ZM20.1526 17.295C20.6189 17.2932 21.0048 16.906 21.0057 16.4401C21.0066 15.9743 20.6216 15.5862 20.1553 15.5826C19.6828 15.579 19.2888 15.9743 19.2933 16.4464C19.2978 16.9127 19.6872 17.2968 20.1526 17.295Z" fill="white"/>
</svg>
