<svg width="9" height="10" viewBox="0 0 9 10" fill="none" xmlns="http://www.w3.org/2000/svg">
<path d="M8.5 0H0.5C0.2235 0 0 0.235263 0 0.526316V1.88947C0 2.16474 0.1065 2.43526 0.2915 2.63L3 5.48105V9.47368C3 9.65632 3.09 9.82526 3.2375 9.92158C3.3175 9.97368 3.4085 10 3.5 10C3.5765 10 3.653 9.98158 3.7235 9.94474L5.7235 8.89211C5.893 8.80263 6 8.62053 6 8.42105V5.48105L8.7085 2.63C8.8935 2.43526 9 2.16474 9 1.88947V0.526316C9 0.235263 8.7765 0 8.5 0ZM5.1465 4.89105C5.0525 4.98947 5 5.12316 5 5.26316V8.09579L4 8.62211V5.26316C4 5.12316 3.9475 4.98947 3.8535 4.89105L1 1.88947V1.05263H8.0005L8.0015 1.88579L5.1465 4.89105Z" fill="white"/>
</svg>
