<svg width="11" height="12" viewBox="0 0 11 12" fill="none" xmlns="http://www.w3.org/2000/svg">
<path d="M5.86564 0.796875C6.10938 0.833453 6.35427 0.862192 6.5963 0.907479C7.56125 1.08775 8.66941 1.67648 9.30126 2.34968C8.92863 2.71633 8.55542 3.08327 8.17734 3.45572C7.46015 2.79297 6.6152 2.43765 5.62934 2.388C5.62934 1.85356 5.62934 1.32522 5.62934 0.796875C5.70811 0.796875 5.78687 0.796875 5.86564 0.796875Z" fill="white"/>
<path d="M10.9997 6.73921C10.9711 6.94648 10.949 7.1552 10.9121 7.36103C10.7196 8.43281 10.2559 9.36786 9.52638 10.1679C9.51435 10.181 9.50061 10.1923 9.49459 10.1978C9.12597 9.82451 8.75963 9.45379 8.38442 9.07379C9.0283 8.35733 9.38031 7.49921 9.429 6.5C9.95716 6.5 10.4782 6.5 10.9992 6.5C10.9997 6.57954 10.9997 6.65937 10.9997 6.73921Z" fill="white"/>
<path d="M10.9997 6.24127C10.4813 6.24127 9.9626 6.24127 9.43072 6.24127C9.38116 5.24816 9.03288 4.38771 8.38356 3.66661C8.75533 3.2898 9.12138 2.91822 9.50318 2.53125C9.65928 2.72865 9.82941 2.92402 9.97778 3.13536C10.5635 3.96881 10.8992 4.89719 10.9811 5.91846C10.984 5.95388 10.9934 5.98842 11 6.02355C10.9997 6.09612 10.9997 6.1687 10.9997 6.24127Z" fill="white"/>
<path d="M5.37153 0.796875C5.37153 1.32232 5.37153 1.84776 5.37153 2.38713C4.39168 2.43794 3.54273 2.79094 2.82983 3.45108C2.45834 3.07398 2.09201 2.70269 1.70935 2.31427C1.91471 2.14909 2.11635 1.97055 2.33403 1.81466C3.14919 1.23058 4.05686 0.89819 5.05246 0.815164C5.08053 0.812842 5.10774 0.802971 5.13552 0.796875C5.214 0.796875 5.29276 0.796875 5.37153 0.796875Z" fill="white"/>
<path d="M5.9103 7.39592C5.95069 7.61742 5.98677 7.82382 6.0263 8.02965C6.07814 8.3002 5.99709 8.40094 5.7227 8.40123C5.55457 8.40152 5.38615 8.40326 5.21802 8.40065C5.02727 8.39745 4.93418 8.29004 4.96397 8.09845C4.99948 7.87085 5.04445 7.64471 5.08168 7.4386C4.91098 7.4743 4.74256 7.5373 4.57329 7.53962C4.15884 7.54543 3.85036 7.34251 3.67937 6.96163C3.5078 6.57989 3.55506 6.20337 3.83919 5.89943C4.30921 5.39634 4.80128 4.91474 5.28733 4.42732C5.41336 4.30104 5.5855 4.29988 5.71181 4.42616C6.20073 4.91561 6.69395 5.40128 7.16826 5.90495C7.48934 6.24576 7.49536 6.77294 7.21753 7.14685C6.93941 7.52075 6.44419 7.64761 6.02458 7.45224C5.99193 7.43714 5.96014 7.4206 5.9103 7.39592Z" fill="white"/>
<path d="M9.27686 10.4292C8.2615 11.384 7.04994 11.8923 5.64104 11.948C5.64104 11.415 5.64104 10.891 5.64104 10.3549C6.60914 10.3061 7.45523 9.95366 8.16211 9.30078C8.53274 9.67614 8.90108 10.0489 9.27686 10.4292Z" fill="white"/>
<path d="M5.36268 10.3546C5.36268 10.8919 5.36268 11.4127 5.36268 11.9477C3.95606 11.892 2.74421 11.3851 1.72513 10.4295C2.09833 10.0509 2.46639 9.67817 2.83873 9.30078C3.54276 9.95076 4.38827 10.3043 5.36268 10.3546Z" fill="white"/>
<path d="M2.61989 9.07926C2.24669 9.45723 1.88007 9.82823 1.50543 10.2076C0.556516 9.17186 0.0555657 7.94361 0 6.51562C0.524723 6.51562 1.04143 6.51562 1.57102 6.51562C1.62 7.4948 1.96599 8.35264 2.61989 9.07926Z" fill="white"/>
<path d="M2.61474 3.66804C1.96542 4.3932 1.61942 5.24726 1.57159 6.22934C1.04801 6.22934 0.533889 6.22934 0 6.22934C0.052415 4.80485 0.554225 3.57572 1.50142 2.53906C1.87549 2.91848 2.24354 3.29181 2.61474 3.66804Z" fill="white"/>
</svg>
