<svg width="10" height="12" viewBox="0 0 10 12" fill="none" xmlns="http://www.w3.org/2000/svg">
<path d="M6.6 0.796875H0.733333C0.33 0.796875 0 1.13134 0 1.54014V11.2025C0 11.6113 0.33 11.9458 0.733333 11.9458H6.6C7.00333 11.9458 7.33333 11.6113 7.33333 11.2025V1.54014C7.33333 1.13134 7.00333 0.796875 6.6 0.796875ZM4.49167 7.48624C4.334 7.48624 4.18 7.45651 4.03333 7.4082V8.2295H4.4C4.60167 8.2295 4.76667 8.39673 4.76667 8.60113C4.76667 8.80553 4.60167 8.97276 4.4 8.97276H2.93333C2.73167 8.97276 2.56667 8.80553 2.56667 8.60113C2.56667 8.39673 2.73167 8.2295 2.93333 8.2295H3.3V7.4082C3.15333 7.45651 2.99933 7.48624 2.84167 7.48624C2.07167 7.48624 1.46667 6.90277 1.46667 6.15951C1.46667 5.18212 2.99933 4.12669 3.47233 3.82939C3.58967 3.75506 3.74 3.75134 3.861 3.82939C4.19467 4.0375 5.86667 5.13753 5.86667 6.16323C5.86667 6.90649 5.26167 7.48996 4.49167 7.48996V7.48624Z" fill="white"/>
<path d="M9.08604 1.97423L8.06671 1.69922V8.69704L9.60305 2.88472C9.70938 2.48708 9.47471 2.08201 9.08604 1.97423Z" fill="white"/>
</svg>
