<svg width="41" height="41" viewBox="0 0 41 41" fill="none" xmlns="http://www.w3.org/2000/svg">
<circle cx="20.5" cy="20.5" r="20.5" transform="rotate(90 20.5 20.5)" fill="#FF2929"/>
<path d="M20.8728 25.8151C18.2533 25.8151 17.056 24.4604 17.056 23.4676C17.056 23.2311 17.152 23.0044 17.3208 22.8409C17.4042 22.7604 17.5033 22.698 17.6119 22.6576C17.7205 22.6173 17.8363 22.5997 17.952 22.6062C19.0728 22.6062 18.7795 24.3129 20.8728 24.3129C21.9422 24.3129 22.5706 23.6587 22.5706 23.0462C22.5706 22.6773 22.3626 22.256 21.6568 22.0871L19.32 21.4889C17.4435 21.0044 17.1164 19.9449 17.1164 18.9627C17.1164 16.9245 18.9546 16.1858 20.704 16.1858C22.3164 16.1858 24.2328 17.0889 24.2328 18.3111C24.2328 18.8373 23.7991 19.12 23.2951 19.12C22.3368 19.12 22.4977 17.7547 20.5724 17.7547C19.6151 17.7547 19.1102 18.2107 19.1102 18.848C19.1102 19.4853 19.856 19.7013 20.5093 19.8462L22.2346 20.2418C24.1244 20.6738 24.6266 21.7982 24.6266 22.8756C24.6266 24.5333 23.3617 25.8133 20.8702 25.8133M28.1048 22.3093C28.1813 21.8738 28.2186 21.4329 28.2186 20.992C28.2247 19.8999 27.9931 18.8195 27.54 17.8259C27.0869 16.8322 26.4231 15.9489 25.5946 15.2373C24.774 14.5324 23.807 14.0186 22.7634 13.7333C21.7199 13.448 20.626 13.3982 19.5608 13.5876C18.9015 13.2012 18.1508 12.9984 17.3866 13C16.613 13.0069 15.8549 13.2175 15.1886 13.6106C14.5223 14.0037 13.9713 14.5654 13.5911 15.2391C13.2059 15.9177 13.0024 16.6842 13 17.4645C12.9977 18.2448 13.1967 19.0124 13.5777 19.6933C13.3637 20.8793 13.4361 22.0993 13.7889 23.2517C14.1417 24.404 14.7648 25.4554 15.6062 26.3182C16.4395 27.1723 17.4692 27.8096 18.6053 28.1744C19.7414 28.5393 20.9496 28.6207 22.1244 28.4116C22.783 28.7975 23.5326 29.0007 24.296 29C25.0693 28.993 25.8272 28.7825 26.4933 28.3895C27.1594 27.9966 27.7104 27.4352 28.0906 26.7618C28.4762 26.0837 28.6802 25.3175 28.6827 24.5374C28.6852 23.7574 28.4861 22.9899 28.1048 22.3093Z" fill="white"/>
</svg>
