<svg width="12" height="11" viewBox="0 0 12 11" fill="none" xmlns="http://www.w3.org/2000/svg">
<path fill-rule="evenodd" clip-rule="evenodd" d="M6.39442 3.36221H2.43316L5.53525 0.260123C5.88208 -0.0867074 6.44441 -0.0867077 6.79124 0.260123L10.7437 4.21261C11.0906 4.55944 11.0906 5.12176 10.7437 5.46859L7.81541 8.39691V4.78319C7.81541 3.99841 7.17921 3.36221 6.39442 3.36221ZM6.90606 2.90846C7.21821 2.59631 7.21821 2.09022 6.90606 1.77807C6.59391 1.46592 6.08782 1.46592 5.77568 1.77807C5.46353 2.09022 5.46353 2.59631 5.77568 2.90846C6.08782 3.2206 6.59391 3.2206 6.90606 2.90846ZM9.29243 4.16445C9.60458 4.47659 9.60458 4.98268 9.29243 5.29483C8.98028 5.60698 8.47419 5.60698 8.16205 5.29483C7.8499 4.98268 7.8499 4.47659 8.16205 4.16445C8.47419 3.8523 8.98028 3.8523 9.29243 4.16445ZM0.888114 3.71746C0.397622 3.71746 0 4.11508 0 4.60558V10.1119C0 10.6024 0.397623 11 0.888115 11H6.57205C7.06254 11 7.46016 10.6024 7.46016 10.1119V4.60558C7.46016 4.11508 7.06254 3.71746 6.57205 3.71746H0.888114ZM2.04266 6.55943C2.48411 6.55943 2.84197 6.20157 2.84197 5.76012C2.84197 5.31868 2.48411 4.96082 2.04266 4.96082C1.60122 4.96082 1.24336 5.31868 1.24336 5.76012C1.24336 6.20157 1.60122 6.55943 2.04266 6.55943ZM6.2168 5.76012C6.2168 6.20157 5.85894 6.55943 5.4175 6.55943C4.97606 6.55943 4.6182 6.20157 4.6182 5.76012C4.6182 5.31868 4.97606 4.96082 5.4175 4.96082C5.85894 4.96082 6.2168 5.31868 6.2168 5.76012ZM5.4175 9.93426C5.85894 9.93426 6.2168 9.5764 6.2168 9.13496C6.2168 8.69352 5.85894 8.33566 5.4175 8.33566C4.97606 8.33566 4.6182 8.69352 4.6182 9.13496C4.6182 9.5764 4.97606 9.93426 5.4175 9.93426ZM2.84197 9.13496C2.84197 9.5764 2.48411 9.93426 2.04266 9.93426C1.60122 9.93426 1.24336 9.5764 1.24336 9.13496C1.24336 8.69352 1.60122 8.33566 2.04266 8.33566C2.48411 8.33566 2.84197 8.69352 2.84197 9.13496Z" fill="white"/>
</svg>
