<svg width="24" height="24" viewBox="0 0 24 24" fill="none" xmlns="http://www.w3.org/2000/svg">
<path fill-rule="evenodd" clip-rule="evenodd" d="M7.8218 1C8.2368 1 8.5718 1.336 8.5718 1.75C8.5718 2.076 8.8488 2.341 9.1898 2.341H10.2468C11.8198 2.346 13.1048 3.61 13.1118 5.159L13.1119 5.37701C14.1328 5.3823 15.1602 5.39333 16.1902 5.4101C19.8412 5.4101 22.5002 8.0191 22.5002 11.6121V16.2621C22.5002 19.8521 19.8452 22.4601 16.1842 22.4631C14.7162 22.4871 13.2362 22.5001 11.7542 22.5001C10.2712 22.5001 8.7862 22.4871 7.3102 22.4631C3.6592 22.4631 1.0002 19.8541 1.0002 16.2621V11.6121C1.0002 8.0191 3.6592 5.4101 7.3232 5.4101C8.72787 5.38611 10.1611 5.37386 11.6114 5.37337L11.6118 5.163C11.6088 4.439 10.9948 3.844 10.2438 3.841H9.1898C8.0228 3.841 7.0718 2.903 7.0718 1.75C7.0718 1.336 7.4078 1 7.8218 1ZM11.7012 6.8731C10.2252 6.8731 8.7672 6.8861 7.3352 6.9101C4.5282 6.9101 2.5002 8.8881 2.5002 11.6121V16.2621C2.5002 18.9851 4.5282 20.9631 7.3232 20.9631C10.2702 21.0121 13.2412 21.0121 16.1652 20.9631H16.1782C18.9722 20.9631 21.0002 18.9851 21.0002 16.2621V11.6121C21.0002 8.8881 18.9722 6.9101 16.1782 6.9101C14.6742 6.8861 13.1792 6.8731 11.7012 6.8731ZM8.5981 11.3147C9.0121 11.3147 9.3481 11.6507 9.3481 12.0647L9.3472 13.186L10.5088 13.1866C10.9228 13.1866 11.2588 13.5226 11.2588 13.9366C11.2588 14.3506 10.9228 14.6866 10.5088 14.6866L9.3472 14.686L9.3481 15.8097C9.3481 16.2237 9.0121 16.5597 8.5981 16.5597C8.1841 16.5597 7.8481 16.2237 7.8481 15.8097L7.8472 14.686L6.6878 14.6866C6.2738 14.6866 5.9378 14.3506 5.9378 13.9366C5.9378 13.5226 6.2738 13.1866 6.6878 13.1866L7.8472 13.186L7.8481 12.0647C7.8481 11.6507 8.1841 11.3147 8.5981 11.3147ZM16.9297 15.003C17.3437 15.003 17.6797 15.339 17.6797 15.753C17.6797 16.167 17.3437 16.503 16.9297 16.503H16.8227C16.4087 16.503 16.0727 16.167 16.0727 15.753C16.0727 15.339 16.4087 15.003 16.8227 15.003H16.9297ZM15.1162 11.4288C15.5302 11.4288 15.8662 11.7648 15.8662 12.1788C15.8662 12.5928 15.5302 12.9288 15.1162 12.9288H15.0092C14.5952 12.9288 14.2592 12.5928 14.2592 12.1788C14.2592 11.7648 14.5952 11.4288 15.0092 11.4288H15.1162Z" fill="white"/>
</svg>
