<svg width="9" height="13" viewBox="0 0 9 13" fill="none" xmlns="http://www.w3.org/2000/svg">
<path d="M5.22361 11.8085C5.393 11.7027 5.5 11.4864 5.5 11.2497V7.88941C5.5 7.72372 5.55268 7.56482 5.64645 7.44766L8.707 3.62364C8.8945 3.38936 9 3.07138 9 2.73965V1.12473C9 0.779253 8.7765 0.5 8.5 0.5H0.5C0.2235 0.5 0 0.779253 0 1.12473V2.73965C0 3.07138 0.1055 3.38936 0.293 3.62364L3.35355 7.44766C3.44732 7.56482 3.5 7.72372 3.5 7.88941V11.8745C3.5 12.3389 3.89116 12.6409 4.22361 12.4332L5.22361 11.8085Z" fill="white"/>
</svg>
