<svg width="12" height="11" viewBox="0 0 12 11" fill="none" xmlns="http://www.w3.org/2000/svg">
<path d="M10.7313 1.40254C10.3229 1.40254 9.98974 1.73571 9.98974 2.14411C9.98974 2.39668 10.1187 2.62237 10.3122 2.75672V4.12702H9.25354V3.15437C9.25354 2.52565 8.74304 2.01514 8.11432 2.01514H6.45922V1.41866H5.38447V0.741573C5.38447 0.333171 5.0513 0 4.6429 0H4.61066C4.20226 0 3.86908 0.333171 3.86908 0.741573V1.41866H2.79434V2.01514H1.13923C0.5105 2.01514 0 2.52565 0 3.15437V6.0938C0 6.72252 0.5105 7.23302 1.13923 7.23302H1.38643V9.41475H0.311685V11H8.93649V9.41475H7.86175V7.23302H8.10894C8.73766 7.23302 9.24816 6.72252 9.24816 6.0938V4.92233H10.7045C10.9248 4.92233 11.1021 4.74499 11.1021 4.52467V2.78896C11.3224 2.65999 11.4729 2.41817 11.4729 2.14411C11.4729 1.73571 11.1397 1.40254 10.7313 1.40254ZM3.14363 6.44309H1.13386C0.940409 6.44309 0.784558 6.28725 0.784558 6.0938V3.15437C0.784558 2.96092 0.940409 2.80508 1.13386 2.80508H3.14363V6.44309ZM5.72301 6.44309H3.54128V2.80508H5.72301V6.44309ZM8.45286 6.09917C8.45286 6.29262 8.29703 6.44846 8.10357 6.44846H6.11529V2.81045H8.10357C8.29703 2.81045 8.45286 2.96629 8.45286 3.15975V6.09917Z" fill="white"/>
<path d="M1.31138 3.77898C1.35975 3.81122 1.42961 3.82734 1.52096 3.82734H2.413C2.27329 4.00468 2.14968 4.18738 2.04758 4.36471C1.94548 4.54205 1.8595 4.71938 1.79501 4.89134C1.72515 5.0633 1.6768 5.20839 1.64993 5.33198C1.61769 5.45558 1.60695 5.55231 1.60695 5.62216C1.60695 5.71352 1.62843 5.78338 1.66605 5.83174C1.70904 5.8801 1.76277 5.9016 1.82725 5.9016C1.89711 5.9016 1.95623 5.8801 1.99922 5.83711C2.04221 5.79412 2.07445 5.71352 2.09594 5.60067C2.10669 5.55231 2.11744 5.48245 2.13356 5.38572C2.14431 5.29437 2.16043 5.21914 2.17118 5.16003C2.18193 5.10091 2.20341 5.03105 2.23028 4.9397C2.29477 4.74087 2.36463 4.56892 2.43987 4.43457C2.5151 4.29486 2.59033 4.18201 2.66019 4.08528C2.73005 3.99393 2.79453 3.90795 2.85364 3.83272C2.90737 3.75748 2.93962 3.693 2.93962 3.64464C2.93962 3.5694 2.91812 3.51029 2.86976 3.47805C2.82139 3.44581 2.74616 3.42969 2.63869 3.42969H1.52633C1.44035 3.42969 1.37049 3.44043 1.32212 3.46193C1.27376 3.48342 1.2469 3.53179 1.2469 3.61239C1.24153 3.693 1.26302 3.74674 1.31138 3.77898Z" fill="white"/>
<path d="M3.84199 3.77898C3.89035 3.81122 3.96022 3.82734 4.05157 3.82734H4.94361C4.8039 4.00468 4.6803 4.18738 4.5782 4.36471C4.4761 4.54205 4.39012 4.71938 4.32564 4.89134C4.26115 5.0633 4.20741 5.20839 4.18054 5.33198C4.14829 5.45558 4.13755 5.55231 4.13755 5.62216C4.13755 5.71352 4.15905 5.78338 4.20204 5.83174C4.24503 5.8801 4.29876 5.9016 4.36324 5.9016C4.4331 5.9016 4.49221 5.8801 4.5352 5.83711C4.57819 5.79412 4.61043 5.71352 4.63193 5.60067C4.64267 5.55231 4.65343 5.48245 4.66955 5.38572C4.68029 5.29437 4.69642 5.21914 4.70717 5.16003C4.71791 5.10091 4.7394 5.03105 4.76627 4.9397C4.83075 4.74087 4.90062 4.56892 4.97585 4.43457C5.05109 4.30023 5.12632 4.18201 5.19618 4.08528C5.26604 3.99393 5.33051 3.90795 5.38962 3.83272C5.44336 3.75748 5.4756 3.693 5.4756 3.64464C5.4756 3.5694 5.45411 3.51029 5.40574 3.47805C5.35738 3.44581 5.28215 3.42969 5.17468 3.42969H4.06231C3.97634 3.42969 3.90647 3.44043 3.85811 3.46193C3.80975 3.48342 3.78289 3.53179 3.78289 3.61239C3.77214 3.693 3.79363 3.74674 3.84199 3.77898Z" fill="white"/>
<path d="M7.92637 3.48586C7.87801 3.45362 7.80278 3.4375 7.69531 3.4375H6.58294C6.49696 3.4375 6.4271 3.44825 6.37874 3.46974C6.33038 3.49124 6.30352 3.5396 6.30352 3.62021C6.30352 3.69006 6.32501 3.7438 6.37338 3.78142C6.42174 3.81366 6.49159 3.82978 6.58294 3.82978H7.47498C7.33527 4.00711 7.21167 4.18982 7.10957 4.36715C7.00747 4.54449 6.92149 4.72182 6.85701 4.89378C6.79252 5.06574 6.73879 5.21083 6.71192 5.33442C6.67968 5.45802 6.66893 5.55474 6.66893 5.6246C6.66893 5.71596 6.69042 5.78581 6.73341 5.83418C6.7764 5.88254 6.83014 5.90404 6.89463 5.90404C6.96449 5.90404 7.02359 5.88254 7.06657 5.83955C7.10956 5.79656 7.14181 5.71596 7.16868 5.60311C7.17942 5.55474 7.19018 5.48489 7.2063 5.38816C7.21704 5.29681 7.23317 5.22157 7.24392 5.16246C7.25466 5.10335 7.27615 5.03349 7.30302 4.94214C7.3675 4.74331 7.43737 4.57135 7.5126 4.43701C7.58783 4.30267 7.66307 4.18445 7.73293 4.08772C7.80279 3.99637 7.86726 3.91039 7.92637 3.83515C7.98011 3.75992 8.01235 3.69544 8.01235 3.64707C8.00161 3.57722 7.97474 3.51811 7.92637 3.48586Z" fill="white"/>
</svg>
