<svg width="19" height="18" viewBox="0 0 19 18" fill="none" xmlns="http://www.w3.org/2000/svg">
<path fill-rule="evenodd" clip-rule="evenodd" d="M6.4963 10.6528L8.11955 12.5417H11.0182L12.5255 10.5347C13.9168 10.1569 16.1971 8.80324 17.1633 8.17361C19.3663 6.63889 18.4387 4.15972 17.2793 3.6875C16.1198 3.21528 15.4628 3.41204 15.0763 3.56944V1.91667H15.3082C15.4628 1.87731 15.772 1.68056 15.772 1.20833C15.772 0.736111 15.4628 0.539352 15.3082 0.5H3.7136C3.559 0.539352 3.24981 0.736111 3.24981 1.20833C3.24981 1.68056 3.7136 1.87731 3.94549 1.91667V3.56946C2.09035 2.8139 1.00819 4.12038 0.699001 4.86807C-0.506838 7.7014 4.06144 9.90511 6.4963 10.6528ZM13.8008 8.52785C14.1873 6.91442 15.3313 3.9709 16.8154 5.10424C18.2995 6.23757 15.424 7.85886 13.8008 8.52785ZM5.05372 8.42692C4.66723 6.8135 3.52323 3.86998 2.03912 5.00331C0.555011 6.13664 3.43047 7.75794 5.05372 8.42692ZM5.36987 16.7917C5.36987 16.4005 5.687 16.0834 6.07821 16.0834H13.0097C13.4009 16.0834 13.718 16.4005 13.718 16.7917C13.718 17.1829 13.4009 17.5001 13.0097 17.5001H6.07821C5.687 17.5001 5.36987 17.1829 5.36987 16.7917ZM8.19043 13.9583C7.01682 13.9583 6.06543 14.9096 6.06543 16.0833H13.0222C13.0222 14.9096 12.0708 13.9583 10.8972 13.9583H8.19043Z" fill="white"/>
</svg>
