<svg width="11" height="11" viewBox="0 0 11 11" fill="none" xmlns="http://www.w3.org/2000/svg">
<path fill-rule="evenodd" clip-rule="evenodd" d="M5.5 0C2.46744 0 0 2.46744 0 5.5C0 8.53256 2.46744 11 5.5 11C8.53256 11 11 8.53256 11 5.5C11 2.46744 8.53256 0 5.5 0Z" fill="white"/>
<path fill-rule="evenodd" clip-rule="evenodd" d="M5.84912 1.78772L7.26331 1.02734C8.04637 1.33741 8.72975 1.84547 9.2495 2.49172L8.91262 4.04684L7.83393 4.57553L5.84912 3.12972V1.78772Z" fill="#242B35"/>
<path fill-rule="evenodd" clip-rule="evenodd" d="M3.74813 1.02344L5.16231 1.78656V3.12994L3.17888 4.57575L2.09469 4.04638L1.75781 2.48162C2.27894 1.83675 2.96369 1.33144 3.74813 1.02344Z" fill="#242B35"/>
<path fill-rule="evenodd" clip-rule="evenodd" d="M1.53299 8.21831C1.08405 7.56519 0.791863 6.79725 0.711426 5.96744L1.87536 4.70312L2.93686 5.22219L3.73643 7.493L3.06061 8.30287L1.53299 8.21831Z" fill="rgba(1,1,1,0)"/>
<path fill-rule="evenodd" clip-rule="evenodd" d="M6.72598 10.1482C6.33342 10.252 5.92436 10.3125 5.50017 10.3125C4.98729 10.3125 4.49367 10.23 4.02961 10.0808L3.59717 8.73469L4.28673 7.90625H6.71636L7.39354 8.70788L6.72598 10.1482Z" fill="#242B35"/>
<path fill-rule="evenodd" clip-rule="evenodd" d="M7.92946 8.27812L7.26465 7.49094L8.07521 5.22081L9.1319 4.70312L10.289 5.96675C10.2195 6.68244 9.98921 7.35 9.63927 7.94056L7.92946 8.27812Z" fill="#242B35"/>
</svg>
