<svg width="19" height="18" viewBox="0 0 19 18" fill="none" xmlns="http://www.w3.org/2000/svg">
<path d="M9.5 0C4.53652 0 0.5 4.03652 0.5 9C0.5 13.9635 4.53652 18 9.5 18C14.4635 18 18.5 13.9635 18.5 9C18.5 4.03652 14.4635 0 9.5 0ZM16.4438 5.63764C16.9326 6.64888 17.2107 7.78652 17.2191 8.98315H15.1376C15.1376 8.10674 14.9354 7.2809 14.573 6.54776L16.4438 5.63764ZM11.2023 1.4663C12.3483 1.72753 13.4017 2.24157 14.2949 2.95787L12.9972 4.5927C12.3483 4.07023 11.5815 3.69944 10.7388 3.50562L11.2023 1.4663ZM7.77248 1.47472L8.23596 3.50562C7.40169 3.69944 6.63483 4.07866 5.98596 4.60113L4.67977 2.97472C5.57303 2.25843 6.62641 1.73595 7.77248 1.47472ZM9.5 4.00281C12.2556 4.00281 14.4972 6.24438 14.4972 9C14.4972 11.7556 12.2556 13.9972 9.5 13.9972C6.74438 13.9972 4.50281 11.7556 4.50281 9C4.50281 6.24438 6.74438 4.00281 9.5 4.00281ZM1.7809 9C1.7809 7.80337 2.05056 6.67416 2.53932 5.66292L4.41854 6.56461C4.06461 7.30618 3.86236 8.13202 3.86236 9C3.86236 9 3.86236 9 3.86236 9.00843H1.7809V9ZM4.69663 15.0337C3.79495 14.3174 3.0618 13.3989 2.55618 12.3539L4.43539 11.4438C4.80618 12.2107 5.3455 12.8764 6.00281 13.3989L4.69663 15.0337ZM9.5 16.7191C8.91011 16.7191 8.33708 16.6517 7.78933 16.5253L8.25281 14.4944C8.65731 14.5871 9.07023 14.6376 9.50843 14.6376C9.9382 14.6376 10.3596 14.5871 10.764 14.4944L11.2275 16.5253C10.6629 16.6517 10.0899 16.7191 9.5 16.7191ZM14.3118 15.0337L13.014 13.4073C13.6713 12.8848 14.2107 12.2107 14.5815 11.4438L16.4607 12.3455C15.9466 13.3989 15.2135 14.309 14.3118 15.0337Z" fill="white"/>
<path d="M7.63751 8.62913C7.86504 8.62913 8.31167 8.37632 8.9774 7.86227V11.4353C8.9774 11.646 9.02796 11.8061 9.12066 11.9072C9.21335 12.0168 9.34819 12.0673 9.5083 12.0673C9.87066 12.0673 10.0476 11.8061 10.0476 11.2752V6.78362C10.0476 6.59823 10.0055 6.44654 9.92122 6.33699C9.83695 6.22744 9.7274 6.17688 9.58414 6.17688C9.45773 6.17688 9.37347 6.20216 9.33133 6.2443C9.2892 6.29486 9.18807 6.41283 9.04481 6.62351C8.90155 6.82576 8.73302 7.01115 8.5392 7.17969C8.3538 7.34823 8.09256 7.49991 7.78077 7.6516C7.57009 7.75272 7.41841 7.82857 7.33414 7.89598C7.24987 7.95497 7.20773 8.05609 7.20773 8.19092C7.20773 8.3089 7.24987 8.41003 7.33414 8.4943C7.43526 8.58699 7.52796 8.62913 7.63751 8.62913Z" fill="white"/>
</svg>
