<svg width="11" height="7" viewBox="0 0 11 7" fill="none" xmlns="http://www.w3.org/2000/svg">
<path fill-rule="evenodd" clip-rule="evenodd" d="M4.7417 0.232366H5.36144V0.576387C4.58874 0.748496 4.04024 2.00664 3.84013 2.68444L2.85643 2.62393C2.43984 2.66075 2.35158 3.07309 2.35953 3.27465L2.71328 4.32886L2.04822 4.5191V3.68175C2.04822 3.56144 1.91423 3.53744 1.84724 3.54048C1.33729 3.53896 0.283966 3.53683 0.150322 3.54048C0.016679 3.54412 -0.00500884 3.6696 0.000852636 3.73188V6.63477C0.0149203 6.76601 0.112223 6.78971 0.159115 6.78515C0.27195 6.78059 0.536306 6.77421 0.691051 6.78515C0.817523 6.79409 0.81056 6.64717 0.801644 6.45904C0.796924 6.35944 0.791656 6.24829 0.805352 6.1426C0.837004 5.89834 1.01197 5.80689 1.0955 5.7917C1.31531 5.78714 1.79361 5.78076 1.94836 5.7917C2.1031 5.80264 2.07941 5.53341 2.04822 5.39743L3.02771 5.32433C3.15926 5.61052 3.12759 5.67756 3.09499 5.67514L2.72895 5.90136H1.15216C0.988844 5.90136 0.957401 6.0181 0.962094 6.07648C0.959747 6.25647 0.956462 6.65294 0.962094 6.79888C0.967725 6.94482 1.13808 6.99103 1.22255 6.9959C4.04529 6.98374 9.71893 6.96671 9.83156 6.9959C9.94419 7.02509 10.0146 6.89131 10.0357 6.82077V6.06188C10.0357 5.93929 9.8996 5.88432 9.83156 5.87216H8.2618C8.19141 5.84054 8.02528 5.76125 7.92392 5.69703C7.83703 5.64199 7.90254 5.45077 7.96441 5.32374L8.95178 5.39743C8.92059 5.53341 8.8969 5.80264 9.05165 5.7917C9.20639 5.78076 9.68469 5.78714 9.9045 5.7917C9.98803 5.80689 10.163 5.89833 10.1946 6.1426C10.2083 6.24829 10.2031 6.35944 10.1984 6.45904C10.1894 6.64717 10.1825 6.79409 10.3089 6.78515C10.4637 6.77421 10.7281 6.78059 10.8409 6.78515C10.8878 6.78971 10.9851 6.76601 10.9991 6.63477V3.73188C11.005 3.6696 10.9833 3.54412 10.8497 3.54048C10.716 3.53683 9.66271 3.53896 9.15276 3.54048C9.08576 3.53744 8.95178 3.56144 8.95178 3.68175V4.5191L8.28672 4.32886L8.64047 3.27465C8.64842 3.07309 8.56015 2.66075 8.14357 2.62393L7.15033 2.68502C6.69979 1.1111 6.03242 0.633549 5.61198 0.566437V0.232366H6.21853V0H4.7417V0.232366ZM7.66283 5.30114L6.72205 5.22452L6.50065 5.98121C6.66307 5.98121 6.81003 6.35203 6.8632 6.53744H6.37013C6.12649 6.12854 5.68853 5.99624 5.5 5.98121C5.31147 5.99624 4.87351 6.12854 4.62987 6.53744H4.1368C4.18997 6.35203 4.33693 5.98121 4.49935 5.98121L4.27795 5.22452L3.32429 5.30219L3.30521 5.30362C3.40074 5.49666 3.49892 5.82148 3.27801 5.90136L2.93309 6.07648L3.33432 6.61645H7.67754L8.05063 6.09837L7.67754 5.87216C7.62358 5.8454 7.52409 5.75687 7.55788 5.61677C7.58628 5.49901 7.63324 5.37301 7.66283 5.30114ZM6.55911 2.72791C6.34243 2.77493 5.88284 2.8283 5.5 2.71903C5.09274 2.83527 4.59863 2.76746 4.40248 2.71903L4.3951 2.71857C4.49033 1.83465 5.17457 1.61351 5.50908 1.61416C6.32864 1.6955 6.54873 2.37413 6.55911 2.72791ZM4.07206 3.03858C3.71921 3.03258 3.69848 3.28592 3.73223 3.41335L3.89129 3.97549L2.98025 4.24532C2.91036 4.02546 2.74598 3.52128 2.64765 3.26344C2.54932 3.0056 2.72236 2.88618 2.82118 2.85869L4.07206 2.94114V3.03858ZM3.97078 4.22279L4.20216 4.94982L3.20435 5.00979L3.04528 4.53009L3.97078 4.22279ZM3.82164 2.28617C3.83058 2.09156 4.16805 1.51006 4.33567 1.24363H1.96665V1.67223L1.62024 2.28617H3.82164ZM6.64883 1.24363C6.81645 1.51006 7.15392 2.09156 7.16286 2.28617H9.36426L9.01785 1.67223V1.24363H6.64883ZM6.94686 3.03859C7.2997 3.03259 7.32043 3.28593 7.28669 3.41335L7.12762 3.97549L8.03866 4.24532C8.10856 4.02546 8.27293 3.52128 8.37126 3.26345C8.4696 3.00561 8.29655 2.88618 8.19773 2.8587L6.94686 2.94115V3.03859ZM7.04813 4.2228L6.81675 4.94982L7.81456 5.00979L7.97363 4.5301L7.04813 4.2228ZM1.49901 6.13309C1.35023 6.13309 1.22963 6.25369 1.22963 6.40247C1.22963 6.55124 1.35023 6.67184 1.49901 6.67184H2.1973C2.34607 6.67184 2.46668 6.55124 2.46668 6.40247C2.46668 6.25369 2.34607 6.13309 2.1973 6.13309H1.49901ZM8.52846 6.39538C8.52846 6.24661 8.64906 6.126 8.79783 6.126H9.49613C9.6449 6.126 9.7655 6.24661 9.7655 6.39538C9.7655 6.54415 9.6449 6.66476 9.49613 6.66476H8.79783C8.64906 6.66476 8.52846 6.54415 8.52846 6.39538Z" fill="white"/>
</svg>
