<svg width="12" height="11" viewBox="0 0 12 11" fill="none" xmlns="http://www.w3.org/2000/svg">
<path fill-rule="evenodd" clip-rule="evenodd" d="M1.21604 10.3383C2.70047 11.7701 6.02194 10.8037 8.66281 8.16287C11.3037 5.522 12.2701 2.20053 10.8382 0.716097L8.32909 3.22522L7.97554 2.87167L10.4491 0.398089C8.84168 -0.62777 5.79473 0.379692 3.33718 2.83724C0.87963 5.2948 -0.127831 8.34174 0.898028 9.94918L3.16231 7.68489L3.51587 8.03845L1.21604 10.3383ZM5.04575 3.43449L6.22923 4.61797L5.01326 5.83395L3.72514 4.54583L3.37158 4.89939L4.6597 6.1875L3.79013 7.05708L4.14368 7.41063L5.01326 6.54106L6.0921 7.61991L6.44566 7.26635L5.36681 6.1875L6.58279 4.97153L7.557 5.94574L7.91055 5.59219L6.93634 4.61797L7.70128 3.85303L7.34773 3.49948L6.58279 4.26442L5.3993 3.08094L5.04575 3.43449Z" fill="white"/>
</svg>
