<svg width="16" height="16" viewBox="0 0 16 16" fill="none" xmlns="http://www.w3.org/2000/svg">
<path d="M7.16507 1C3.76551 1 0.999573 3.76593 0.999573 7.1655C0.999573 10.5653 3.76551 13.331 7.16507 13.331C10.5648 13.331 13.3306 10.5653 13.3306 7.1655C13.3306 3.76593 10.5648 1 7.16507 1ZM7.16507 12.1928C4.39307 12.1928 2.13782 9.93753 2.13782 7.16553C2.13782 4.39352 4.39307 2.13825 7.16507 2.13825C9.93708 2.13825 12.1923 4.39349 12.1923 7.1655C12.1923 9.9375 9.93708 12.1928 7.16507 12.1928Z" fill="#838C9D" stroke="#838C9D" stroke-width="0.5"/>
<path d="M14.8337 14.0274L11.5707 10.7644C11.3483 10.5421 10.9883 10.5421 10.7659 10.7644C10.5436 10.9866 10.5436 11.347 10.7659 11.5692L14.0289 14.8321C14.1401 14.9433 14.2856 14.9989 14.4313 14.9989C14.5768 14.9989 14.7225 14.9433 14.8337 14.8321C15.056 14.61 15.056 14.2495 14.8337 14.0274Z" fill="#838C9D" stroke="#838C9D" stroke-width="0.5"/>
</svg>
