<svg width="24" height="24" viewBox="0 0 24 24" fill="none" xmlns="http://www.w3.org/2000/svg">
<path fill-rule="evenodd" clip-rule="evenodd" d="M13.9759 2C14.0189 2 14.0611 2.00363 14.1022 2.0106L14.2373 2.0114C14.4413 2.0114 14.6363 2.0944 14.7783 2.2414L19.8443 7.5184C19.9773 7.6574 20.0524 7.8444 20.0524 8.0374V17.2274C20.0683 19.7364 18.1123 21.7754 15.5993 21.8654H7.45931C5.01908 21.8129 3.06202 19.8411 3.00168 17.4256L3.00131 6.4904C3.06031 4.0094 5.10831 2.0114 7.57031 2.0114L13.8496 2.0106C13.8907 2.00363 13.9329 2 13.9759 2ZM13.2253 3.511L7.57331 3.5114C5.91631 3.5114 4.54031 4.8534 4.50131 6.5084V17.2274C4.46531 18.9284 5.80531 20.3284 7.49031 20.3654H15.5733C17.2423 20.3054 18.5633 18.9284 18.5524 17.2324L18.5523 8.983L16.5439 8.984C14.7129 8.979 13.2259 7.487 13.2259 5.659L13.2253 3.511ZM11.1417 9.1589C11.3487 9.1589 11.5362 9.2429 11.672 9.37865L11.673 9.3793L14.019 11.7353C14.311 12.0293 14.31 12.5033 14.017 12.7953C13.723 13.0873 13.248 13.0873 12.956 12.7933L11.8913 11.724L11.8917 15.9499C11.8917 16.3639 11.5557 16.6999 11.1417 16.6999C10.7277 16.6999 10.3917 16.3639 10.3917 15.9499L10.3913 11.724L9.32801 12.7933C9.18201 12.9413 8.98901 13.0143 8.79701 13.0143C8.60601 13.0143 8.41401 12.9413 8.26801 12.7953C7.97501 12.5033 7.97301 12.0293 8.26601 11.7353L10.61 9.3793L10.6435 9.34846C10.6579 9.33559 10.6729 9.32327 10.6883 9.31153L10.61 9.3793C10.6379 9.35131 10.6679 9.32609 10.6997 9.30364C10.8232 9.2126 10.9762 9.1589 11.1417 9.1589ZM14.7253 4.352L14.7259 5.659C14.7259 6.663 15.5419 7.481 16.5459 7.484L17.7303 7.483L14.7253 4.352Z" fill="white"/>
</svg>
