<?xml version="1.0" standalone="no"?>
<!DOCTYPE svg PUBLIC "-//W3C//DTD SVG 1.1//EN" "http://www.w3.org/Graphics/SVG/1.1/DTD/svg11.dtd" >
<svg xmlns="http://www.w3.org/2000/svg" xmlns:xlink="http://www.w3.org/1999/xlink" version="1.1">
<metadata>
Created by FontForge 20170731 at Mon Aug 28 22:33:51 2006
 By Aleksey,,,
Copyright (c) 1994 Carter &#38; Cone Type Inc. All rights reserved.
</metadata>
<defs>
<font id="BigCaslon-Rom" horiz-adv-x="500" >
  <font-face 
    font-family="BigCaslon"
    font-weight="500"
    font-stretch="normal"
    units-per-em="1000"
    panose-1="2 0 6 4 8 0 0 2 0 3"
    ascent="800"
    descent="-200"
    x-height="473"
    cap-height="720"
    bbox="-148 -259 1250 934"
    underline-thickness="20"
    underline-position="-173"
    unicode-range="U+0020-FB02"
  />
<missing-glyph 
 />
    <glyph glyph-name=".notdef" 
 />
    <glyph glyph-name=".null" horiz-adv-x="0" 
 />
    <glyph glyph-name="nonmarkingreturn" horiz-adv-x="333" 
 />
    <glyph glyph-name="space" unicode=" " horiz-adv-x="210" 
 />
    <glyph glyph-name="exclam" unicode="!" horiz-adv-x="303" 
d="M219 562q-45 -102 -55 -371h-12q-11 275 -59 371q0 47 21.5 98.5t42.5 51.5q19 0 40.5 -52t21.5 -98zM216 55q0 -26 -16.5 -41.5t-42.5 -15.5t-43 16.5t-17 42.5t17 43.5t43 17.5t42.5 -18t16.5 -45z" />
    <glyph glyph-name="quotedbl" unicode="&#x22;" horiz-adv-x="356" 
d="M292 676q0 -8 -6.5 -41.5t-16.5 -92.5t-16 -118h-12q-6 59 -15.5 117t-16 91.5t-6.5 42.5q0 21 14 36t30 15t30.5 -15t14.5 -35zM153 676q0 -8 -6.5 -41.5t-16.5 -92.5t-16 -118h-12q-6 59 -15.5 117t-16 91.5t-6.5 42.5q0 21 14 36t30 15t30.5 -15t14.5 -35z" />
    <glyph glyph-name="numbersign" unicode="#" horiz-adv-x="749" 
d="M660 431l-28 -69h-149l-44 -127h158l-28 -68h-154l-70 -197l-24 6l68 191h-121l-70 -197l-24 6l68 191h-151l28 68h147l45 127h-157l27 69h154l71 197l24 -6l-67 -191h119l71 197l24 -6l-69 -191h152zM460 362h-125l-47 -127h127z" />
    <glyph glyph-name="dollar" unicode="$" horiz-adv-x="482" 
d="M438 145q0 -57 -42.5 -97.5t-111.5 -51.5l1 -143h-19l1 141q-9 -1 -28 -1h-22l1 -140h-19l1 142q-73 7 -115.5 38.5t-42.5 81.5q0 21 15 36.5t35 15.5q37 0 46 -35q-6 -16 -6 -34q0 -73 68 -87v222q-8 2 -24 8l-17 6q-47 18 -76.5 52t-29.5 81q0 61 41 100.5t106 49.5
l-1 118h19l-1 -116q8 1 25 1t25 -1l-1 116h19l-1 -118q63 -9 102 -39.5t39 -77.5q0 -21 -14 -36.5t-35 -15.5q-35 0 -44 35q6 16 6 34q0 67 -54 84v-217l39 -13q54 -17 84.5 -53t30.5 -86zM200 321v193q-73 -21 -73 -97q0 -66 73 -96zM267 301v216q-14 2 -26 2q-10 0 -24 -2
v-201q25 -8 50 -15zM267 10v204q-19 7 -50 14v-219q6 -1 21 -1q13 0 29 2zM359 116q0 66 -75 93v-195q36 11 55.5 38t19.5 64z" />
    <glyph glyph-name="ampersand" unicode="&#x26;" horiz-adv-x="854" 
d="M875 484q-40 -5 -75 -22t-69.5 -49.5t-57.5 -58t-62 -74t-59 -72.5q45 -60 77 -93q30 -31 56 -46t62 -15t66.5 24.5t49.5 55.5l9 -4q-16 -47 -74 -96t-122 -49q-104 0 -197 143q-36 -51 -99 -94.5t-136 -43.5q-90 0 -143.5 52t-53.5 128q0 134 196 232q-8 9 -27 28
t-26.5 27t-20 24.5t-17.5 29.5t-9.5 32t-4.5 40q0 64 53.5 106.5t118.5 42.5q58 0 102 -33.5t44 -93.5q0 -24 -10.5 -48t-21 -38.5t-32 -32t-27 -21.5t-22.5 -15q47 -37 108 -105q53 -60 92 -126q113 144 113 195q0 17 -8.5 28.5t-19 17.5t-31.5 10t-33.5 4.5l-37.5 1.5v12
l349 8v-12zM383 585q0 48 -26 86.5t-65 38.5q-33 0 -50.5 -26t-17.5 -54q0 -51 27 -89q18 -26 83 -83q49 52 49 127zM472 139q-39 65 -109 148q-32 38 -109 106q-102 -84 -102 -183q0 -62 39.5 -105t101.5 -43q58 0 95 17.5t84 59.5z" />
    <glyph glyph-name="quotesingle" unicode="'" horiz-adv-x="222" 
d="M155 676q0 -8 -6.5 -41.5t-16.5 -92.5t-16 -118h-12q-6 59 -15.5 117t-16 91.5t-6.5 42.5q0 21 14 36t30 15t30.5 -15t14.5 -35z" />
    <glyph glyph-name="parenleft" unicode="(" horiz-adv-x="313" 
d="M293 -130l-13 -13q-51 38 -88 73.5t-76 89t-59.5 123t-20.5 152.5q0 80 19.5 148t57 121t75.5 90t91 77l14 -13q-220 -164 -220 -423q0 -149 63 -254t157 -171z" />
    <glyph glyph-name="parenright" unicode=")" horiz-adv-x="313" 
d="M277 295q0 -83 -20.5 -152.5t-59.5 -123t-76 -89t-88 -73.5l-13 13q94 66 157 171t63 254q0 259 -220 423l14 13q53 -40 91 -77t75.5 -90t57 -121t19.5 -148z" />
    <glyph glyph-name="asterisk" unicode="*" horiz-adv-x="388" 
d="M348 470l-4 -6q-37 1 -69 21q-13 8 -68 56l-10 -5q2 -9 10 -38.5t8 -46.5q0 -35 -18 -73h-8q-17 35 -17 73q0 19 8 48t9 37l-9 4q-9 -7 -31 -26.5t-36 -28.5q-31 -19 -70 -20l-4 6q20 31 53 49q13 8 25 12t31 8.5t27 6.5v13q-11 4 -28.5 8.5t-30.5 9t-24 11.5
q-35 20 -52 50l3 7q37 -1 70 -22q20 -13 39.5 -31.5t26.5 -24.5l10 6q-2 9 -7 26.5t-7.5 31t-2.5 27.5q0 37 17 72h8q18 -37 18 -72q0 -16 -8 -47t-9 -38l11 -6q9 7 20 18.5t21 20.5t25 17q37 21 69 22l4 -7q-16 -27 -53 -50q-13 -8 -26 -12.5t-29 -8.5t-27 -8v-13
q8 -2 27 -6.5t30.5 -8.5t24.5 -12q23 -14 33 -23t20 -27z" />
    <glyph glyph-name="plus" unicode="+" horiz-adv-x="700" 
d="M575 241h-205v-206h-40v206h-205v39h205v205h40v-205h205v-39z" />
    <glyph glyph-name="comma" unicode="," horiz-adv-x="243" 
d="M206 -1q0 -78 -89 -141l-7 7q64 56 64 125q0 18 -7.5 34.5t-17.5 18.5q-2 -20 -15 -32.5t-35 -12.5q-21 0 -34.5 14.5t-13.5 37.5q0 27 18.5 43.5t45.5 16.5q40 0 65.5 -33t25.5 -78z" />
    <glyph glyph-name="hyphen" unicode="-" horiz-adv-x="256" 
d="M243 225h-231v70h231v-70z" />
    <glyph glyph-name="period" unicode="." horiz-adv-x="243" 
d="M182 54q0 -26 -16 -41.5t-42 -15.5t-43 16.5t-17 42.5t17 43.5t43 17.5t42 -18t16 -45z" />
    <glyph glyph-name="slash" unicode="/" horiz-adv-x="311" 
d="M353 747l-371 -891l-33 12l371 892z" />
    <glyph glyph-name="zero" unicode="0" horiz-adv-x="533" 
d="M506 243q0 -105 -70.5 -176.5t-166.5 -71.5q-41 0 -82 15t-77.5 44t-59.5 79t-23 113q0 96 69.5 166t175.5 70q94 0 164 -65t70 -174zM458 238q0 83 -54 142.5t-137 59.5q-82 0 -137 -60t-55 -142t55.5 -141.5t138.5 -59.5t136 59t53 142z" />
    <glyph glyph-name="one" unicode="1" horiz-adv-x="316" 
d="M281 0h-239v11q31 1 53.5 12t22.5 32v364q0 21 -24 31.5t-56 11.5v11h243v-11q-31 -1 -55.5 -12t-24.5 -32v-364q0 -41 80 -43v-11z" />
    <glyph glyph-name="two" unicode="2" horiz-adv-x="436" 
d="M437 134l-50 -134h-341l-3 8q37 31 59.5 51t59.5 56.5t58 64t37.5 61.5t16.5 63q0 44 -25 75.5t-70 31.5q-88 0 -146 -94l-10 6q29 55 86.5 107.5t122.5 52.5q51 0 84 -31.5t33 -84.5q0 -23 -5.5 -45.5t-19.5 -46.5t-24 -40t-34.5 -41.5t-34.5 -35.5t-40.5 -38t-36.5 -34
v-2h180q33 0 53 8.5t25 16.5t15 28z" />
    <glyph glyph-name="three" unicode="3" horiz-adv-x="396" 
d="M370 -3q0 -109 -87 -179t-208 -70q-32 0 -59 16.5t-27 45.5q0 38 37 38q18 0 35 -18.5t37 -37t44 -18.5q12 1 32 7.5t47.5 23t46.5 52t19 84.5q0 69 -52.5 113t-126.5 44h-13l-3 6q4 3 13 10q35 27 54.5 43.5t46.5 45t39.5 58t12.5 62.5q0 40 -30 64.5t-75 24.5
q-84 0 -123 -61l-9 5q60 127 165 127q68 0 111 -36t43 -92q0 -48 -33 -87t-106 -97q69 -14 119 -62t50 -112z" />
    <glyph glyph-name="four" unicode="4" horiz-adv-x="551" 
d="M525 5h-136v-233h-88v233h-294q-9 0 -11 2t2 10l48 67l312 399h29v-401h138v-77zM301 82v297l-235 -297h235z" />
    <glyph glyph-name="five" unicode="5" horiz-adv-x="393" 
d="M385 511q-18 -48 -43 -134h-239l-17 -186q36 6 69 6q104 0 161 -57.5t57 -146.5q0 -102 -74.5 -173.5t-160.5 -71.5q-56 0 -97 20.5t-41 62.5q0 16 10.5 27.5t25.5 11.5q21 0 35 -15.5t21.5 -34t26.5 -34t48 -15.5q61 0 93 54t32 126q0 81 -39 119t-91 38q-44 0 -65 -16
t-35 -52l-10 2l44 431h213q31 0 42.5 9t21.5 33z" />
    <glyph glyph-name="six" unicode="6" horiz-adv-x="512" 
d="M487 237q0 -98 -65.5 -168.5t-167.5 -70.5q-92 0 -159.5 75.5t-67.5 174.5q0 85 43.5 167.5t111 143.5t144 105t149.5 64l8 -12q-85 -38 -161.5 -108t-126.5 -169q31 10 71 10q97 0 159 -61.5t62 -150.5zM396 196q-1 58 -16 109t-51 88t-88 37q-36 0 -56 -21
q-67 -73 -67 -206q0 -89 37.5 -139t101.5 -50q63 0 101 47t38 135z" />
    <glyph glyph-name="seven" unicode="7" horiz-adv-x="444" 
d="M459 473q-7 -17 -51.5 -125.5t-114 -282.5t-123.5 -315l-67 3q228 457 303 635h-271q-37 0 -63 -15.5t-35 -30t-19 -36.5q-1 -3 -2 -5l-12 4l65 168h390z" />
    <glyph glyph-name="eight" unicode="8" horiz-adv-x="486" 
d="M453 193q0 -85 -64 -142t-155 -57q-75 0 -136.5 46.5t-61.5 117.5q0 30 11.5 56t36.5 50.5t44 39t52 37.5q-65 45 -100.5 89.5t-35.5 109.5q0 77 61 132t138 55q90 0 145 -45t55 -111q0 -54 -40 -97t-111 -86q32 -18 50.5 -30t49 -37.5t46 -57.5t15.5 -70zM375 571
q0 59 -35 99t-95 40q-53 0 -90.5 -32t-37.5 -87q0 -30 11.5 -57.5t24.5 -45t39.5 -38t40 -28.5t42.5 -25q100 57 100 174zM371 138q0 64 -43 108t-131 87q-43 -25 -66 -74t-23 -96q0 -71 39.5 -111.5t102.5 -40.5q62 0 91.5 37.5t29.5 89.5z" />
    <glyph glyph-name="nine" unicode="9" horiz-adv-x="512" 
d="M486 231q0 -89 -40 -173.5t-104.5 -146.5t-140 -106t-150.5 -64l-6 15q198 82 287 290q-36 -15 -86 -15q-101 0 -160.5 62.5t-59.5 156.5q0 95 66 164t162 69q97 0 164.5 -75t67.5 -177zM393 261q0 84 -36 145t-103 61q-64 0 -102.5 -45.5t-38.5 -125.5q0 -58 16.5 -112
t54.5 -93t89 -39q47 0 67 25q53 67 53 184z" />
    <glyph glyph-name="colon" unicode=":" horiz-adv-x="263" 
d="M192 364q0 -24 -17 -40.5t-41 -16.5t-41.5 16t-17.5 41t17.5 41t41.5 16q23 0 40.5 -17t17.5 -40zM192 54q0 -24 -17 -40.5t-41 -16.5t-41.5 15.5t-17.5 41.5q0 25 17.5 41t41.5 16q23 0 40.5 -17t17.5 -40z" />
    <glyph glyph-name="semicolon" unicode=";" horiz-adv-x="263" 
d="M174 250q0 -24 -16.5 -39.5t-39.5 -15.5t-40 15t-17 40q0 24 17 39.5t40 15.5t39.5 -16.5t16.5 -38.5zM201 8q0 -59 -39.5 -102.5t-88.5 -48.5l-3 10q43 7 70.5 40.5t27.5 76.5q0 33 -16 39q-12 -30 -44 -30q-21 0 -34.5 15t-13.5 36q0 23 17.5 39t41.5 16q32 0 57 -26.5
t25 -64.5z" />
    <glyph glyph-name="less" unicode="&#x3c;" horiz-adv-x="1000" 
d="M953 121h-36l-171 132h-31l171 -132h-37l-171 132h-31l171 -132h-37l-171 132h-30l170 -132h-36l-170 131h-371q99 -106 107 -146l-6 -4q-139 106 -232 159v4q50 29 90.5 55.5t64.5 44.5t77 59l6 -4q-8 -43 -107 -148h371l170 131h36l-170 -132h30l171 132h37l-171 -132
h31l171 132h37l-171 -132h31l171 132h36l-173 -132h27v-18h-27z" />
    <glyph glyph-name="equal" unicode="=" horiz-adv-x="700" 
d="M555 300h-410v39h410v-39zM555 186h-410v39h410v-39z" />
    <glyph glyph-name="greater" unicode="&#x3e;" horiz-adv-x="1000" 
d="M958 261q-93 -53 -232 -159l-6 4q8 40 107 146h-371l-170 -131h-36l170 132h-30l-171 -132h-37l171 132h-31l-171 -132h-37l171 132h-31l-171 -132h-36l173 132h-27v18h27l-173 132h36l171 -132h31l-171 132h37l171 -132h31l-171 132h37l171 -132h30l-170 132h36
l170 -131h371q-99 105 -107 148l6 4q53 -41 77 -59t64.5 -44.5t90.5 -55.5v-4z" />
    <glyph glyph-name="question" unicode="?" horiz-adv-x="383" 
d="M311 447q0 -116 -33 -146q-32 -30 -149 -53v-81h-18v175q70 12 101 22q43 13 61 36t18 70q0 101 -125 101q-10 0 -56 -4v156h17v-49q47 0 76 -8.5t54 -32.5q54 -49 54 -186zM192 55q0 -26 -16.5 -41.5t-42.5 -15.5t-43 16.5t-17 42.5t17 43.5t43 17.5t42.5 -18t16.5 -45z
" />
    <glyph glyph-name="at" unicode="@" horiz-adv-x="868" 
d="M825 337q0 -131 -88 -225t-221 -94q-43 0 -75 17l71 164l-6 2q-60 -74 -128.5 -127.5t-126.5 -53.5q-49 0 -49 50q0 51 38 121t91.5 129t114.5 100.5t103 41.5q30 0 54 -30l25 35h59l-170 -408q1 0 12 -1.5t17 -1.5q115 0 186.5 85t71.5 200q0 114 -80.5 186t-202.5 72
q-116 0 -213.5 -66t-150.5 -169t-53 -215q0 -142 90.5 -226t233.5 -84q84 0 151.5 27.5t134.5 83.5l8 -9q-125 -120 -311 -120q-160 0 -258.5 96t-98.5 249q0 123 60 228t164 167t225 62q136 0 229 -80t93 -206zM570 389q0 21 -12 37t-32 16q-34 0 -93 -61.5t-104.5 -143
t-45.5 -133.5q0 -16 9.5 -26.5t26.5 -10.5q34 0 93.5 54t108.5 132t49 136z" />
    <glyph glyph-name="A" unicode="A" horiz-adv-x="704" 
d="M736 0h-292v10q70 8 70 46q0 31 -72 220h-266q-4 -10 -25 -62t-32 -80q-21 -54 -21 -76q0 -39 83 -48v-10h-215v11q23 3 43 13t25 16q22 22 62 110q67 149 206 479l-10 22q53 23 88 83h8q170 -455 210 -562q14 -39 42 -98q5 -10 14 -21.5t31.5 -25.5t50.5 -15v-12z
M434 297q-45 119 -121 309q-108 -260 -128 -309h249z" />
    <glyph glyph-name="B" unicode="B" horiz-adv-x="745" 
d="M684 197q0 -66 -37 -112t-87 -65q-54 -20 -176 -20h-345v10q59 9 84 38q16 20 18 108q2 74 2 207q0 115 -1 195q-2 103 -20 122q-23 25 -72 30v10h337q83 0 139 -21q53 -20 85 -60t32 -97q0 -63 -41.5 -105t-111.5 -56v-4q79 -9 136.5 -56.5t57.5 -123.5zM528 542
q0 49 -25 88.5t-64 56.5q-45 20 -115 20q-43 0 -64 -7q-4 -23 -6 -71q-2 -62 -2 -253q75 0 93 1q88 5 135.5 50t47.5 115zM567 186q0 56 -35 100.5t-89 62.5q-39 12 -94 12h-97q0 -173 1 -217q2 -82 18 -103q21 -26 79 -26q80 0 129 25q88 46 88 146z" />
    <glyph glyph-name="C" unicode="C" horiz-adv-x="776" 
d="M727 489l-12 -1q-28 99 -102.5 164.5t-172.5 65.5q-131 0 -210 -108.5t-79 -252.5q0 -148 80.5 -246.5t210.5 -98.5q100 0 176 67t96 157h12l-3 -220h-12q-12 17 -25.5 31t-17.5 14q-1 0 -12 -7t-31 -16.5t-46.5 -19.5t-65.5 -17t-81 -7q-184 0 -294 102.5t-110 265.5
q0 109 59 202q48 76 132.5 123.5t206.5 47.5q45 0 86 -7t68 -17.5t47 -21t31 -17.5t12 -7q4 0 19.5 16t26.5 32h11v-224z" />
    <glyph glyph-name="D" unicode="D" horiz-adv-x="852" 
d="M822 370q0 -87 -26 -154t-66.5 -107t-97.5 -65.5t-111.5 -34.5t-114.5 -9h-365v10q59 7 84 37q14 16 16 109q2 74 2 207v195q0 99 -15 117q-23 28 -83 35v10q16 0 121 0.5t191 0.5q133 0 188 -11q40 -8 73 -23q204 -90 204 -317zM699 368q0 117 -69 213.5t-171 114.5
q-47 9 -103 9q-59 0 -97 -8q-7 -65 -7 -340q0 -158 1 -202q2 -89 22 -109q31 -31 108 -31q61 0 101 12q106 30 160.5 119t54.5 222z" />
    <glyph glyph-name="E" unicode="E" horiz-adv-x="711" 
d="M703 191l-50 -191h-612v10q57 9 82 38q16 20 18 108q2 74 2 207v195q0 105 -17 123q-14 14 -29 19.5t-47 9.5v10h552l68 -165l-10 -5q-81 100 -152 136q-42 20 -175 20q-54 0 -76 -5q-5 -53 -5 -182v-78.5v-48.5l1 -16q91 0 126 8q57 13 80 44t36 94h12v-315h-12
q-22 83 -59 117q-34 31 -91 34q-40 2 -91 2q-2 -18 -2 -97q0 -93 1 -119q2 -83 15 -103q17 -26 117 -26q53 0 99 6q63 8 111 48t97 125z" />
    <glyph glyph-name="F" unicode="F" horiz-adv-x="656" 
d="M674 552l-10 -5q-88 109 -150 140q-40 19 -165 19q-44 0 -86 -3q-7 -28 -9 -77q-2 -62 -2 -250q91 0 129 8q35 7 57 19.5t33.5 33.5t16 37.5t9.5 47.5h12v-322h-12q-24 90 -59 122q-36 32 -91 36q-27 2 -95 2q0 -172 1 -216q2 -83 15 -103q19 -28 93 -31v-10h-320v10
q57 9 82 38q16 20 18 108q2 74 2 207v195q0 105 -17 123q-14 14 -29 19.5t-47 9.5v10h556z" />
    <glyph glyph-name="G" unicode="G" horiz-adv-x="825" 
d="M791 333q-52 -7 -66 -29q-9 -14 -9 -80v-146q-26 -20 -114 -52.5t-171 -32.5q-189 0 -296 98t-107 270q0 63 26 136t88 133q107 104 288 104q45 0 87 -7t70 -17t49 -19.5t32.5 -16.5t12.5 -7q3 0 33 41h9v-218h-12q-21 88 -80 151q-73 76 -194 76q-128 0 -207 -105
t-79 -253q0 -159 74.5 -254.5t206.5 -95.5q109 0 155 70q16 25 16 114q0 83 -24 109q-23 26 -81 31v10h293v-10z" />
    <glyph glyph-name="H" unicode="H" horiz-adv-x="900" 
d="M850 0h-307v10q75 6 95 37q6 9 8 83q1 43 1 226h-395v-215q0 -80 10 -94q24 -33 77 -37v-10h-295v10q59 9 83 37q12 14 14 109q2 74 2 207v195q0 99 -15 117q-25 29 -81 35v10h298v-10q-89 -12 -91 -80q-2 -62 -2 -254h395q0 176 -1 220q-2 58 -12 73q-26 39 -87 41v10
h301v-10q-62 -8 -81 -44q-10 -19 -10 -110v-171q0 -152 1 -249q0 -74 9 -87q21 -32 83 -39v-10z" />
    <glyph glyph-name="I" unicode="I" horiz-adv-x="399" 
d="M349 0h-303v10q57 9 83 39q12 14 14 107q2 74 2 207v195q0 99 -15 117q-25 29 -81 35v10h299v-10q-64 -9 -82 -43q-4 -8 -6.5 -21t-3 -21t-1 -27.5t-0.5 -22.5q-1 -68 -1 -208v-226q0 -80 10 -94q11 -15 36 -25t49 -12v-10z" />
    <glyph glyph-name="J" unicode="J" horiz-adv-x="399" 
d="M380 710q-66 -9 -84 -43q-8 -16 -11 -92q-1 -68 -1 -208v-235q0 -56 -58 -100q-64 -49 -130 -49q-36 0 -61.5 18t-25.5 53q0 23 17.5 38.5t41.5 15.5q20 0 34.5 -14.5t14.5 -34.5q0 -40 -49 -47v-3q12 -16 31 -16q46 0 63 57q10 37 12 106q1 37 1 207v195q0 103 -14 120
q-21 24 -89 32v10h308v-10z" />
    <glyph glyph-name="K" unicode="K" horiz-adv-x="767" 
d="M805 0h-225q-12 7 -20 16q-158 184 -241 275q-40 43 -52 43q-10 0 -16 -15q0 -134 1 -178q2 -72 17 -92q25 -34 96 -39v-10h-321v10q62 9 83 34q13 15 15 112q1 37 1 207v195q0 97 -16 116q-26 30 -80 36v10h310v-10q-22 -3 -30.5 -4.5t-25.5 -8.5t-24.5 -18.5t-14.5 -34
t-8 -54.5q-2 -61 -2 -244q33 19 105.5 90.5t130.5 135.5q44 50 44 79q0 49 -66 59v10h268v-10q-46 -4 -95 -37.5t-114 -93.5q-47 -45 -166 -166q29 -38 279 -316q18 -21 46 -44t35 -26q35 -14 86 -17v-10z" />
    <glyph glyph-name="L" unicode="L" horiz-adv-x="708" 
d="M713 206l-37 -206h-642v10q64 10 88 38q17 21 19 108q2 74 2 207v194q0 97 -15 115q-27 31 -87 38v10h319v-10q-103 -14 -105 -88q-3 -93 -3 -246q0 -139 1 -230q2 -88 13 -104q7 -10 44.5 -18.5t77.5 -8.5q93 0 146 15q31 8 55.5 22.5t40 29t30.5 39t22.5 41t20.5 47.5z
" />
    <glyph glyph-name="M" unicode="M" horiz-adv-x="991" 
d="M959 0h-343v11q41 2 71 17.5t40 37.5q11 24 13 72q2 88 2 250v283q-64 -143 -230 -513q-19 -40 -59 -141h-6q-56 131 -121 279t-110.5 249t-49.5 110q-2 -350 -2 -449q0 -44 1.5 -68t8 -50t19.5 -39.5t35.5 -24t57.5 -14.5v-10h-261v10q67 13 91 56t27 148q4 114 4 227
q0 137 -1 175q-2 79 -99 94v10h213l239 -544q97 208 241 544h213v-10q-72 -1 -92 -55q-9 -24 -11 -124q-1 -64 -1 -184q0 -142 1 -220q0 -48 11 -69q3 -6 12 -15t33 -20.5t53 -12.5v-10z" />
    <glyph glyph-name="N" unicode="N" horiz-adv-x="875" 
d="M846 710q-72 -10 -94 -62q-9 -20 -13 -142q-5 -142 -5 -227q0 -38 0.5 -136t0.5 -137q0 -11 -10 -11q-8 0 -18 12q-103 118 -274 319.5t-268 309.5v-422q0 -123 15 -153q20 -41 99 -51v-10h-246v10q64 8 86 44q21 32 24 160q4 114 4 227q0 133 -1 171q-3 28 -13.5 47
t-27.5 29t-31.5 14.5t-33.5 7.5v10h203l474 -554v340q0 106 -10 134q-20 58 -109 70v10h248v-10z" />
    <glyph glyph-name="O" unicode="O" horiz-adv-x="808" 
d="M779 365q0 -158 -110.5 -265t-266.5 -107q-155 0 -264 104.5t-109 263.5q0 167 112 268t274 101q164 0 264 -107.5t100 -257.5zM655 364q0 85 -26.5 162.5t-85.5 132t-140 54.5q-63 0 -112 -31t-78.5 -82.5t-44.5 -113t-15 -128.5q0 -145 66.5 -246.5t186.5 -101.5
q79 0 137.5 54.5t85 133.5t26.5 166z" />
    <glyph glyph-name="P" unicode="P" horiz-adv-x="656" 
d="M636 512q0 -69 -40.5 -116.5t-101.5 -69.5q-69 -25 -242 -25q0 -113 1 -157q0 -5 0.5 -15.5t0.5 -14.5t0.5 -12.5t1 -12.5t1 -10.5t2 -10.5t3.5 -8.5t4 -8.5q25 -38 95 -41v-10h-320v10q63 9 84 36q14 17 16 110q2 74 2 207v195q0 103 -17 121q-20 21 -89 31v10
q7 0 124.5 1t159.5 1q144 0 213 -38q46 -25 74 -69.5t28 -102.5zM528 517q0 57 -29 102.5t-78 68.5q-41 19 -107 19q-15 0 -51 -4q-7 -30 -9 -77q-2 -62 -2 -311q97 0 144 16q63 21 97.5 71.5t34.5 114.5z" />
    <glyph glyph-name="Q" unicode="Q" horiz-adv-x="808" 
d="M779 365q0 -140 -88 -239t-223 -124q0 -53 39 -82t94 -29q41 0 72 13l5 -8q-69 -49 -153 -49q-83 0 -136.5 37t-62.5 117q-127 27 -212 125t-85 235q0 169 130 280q104 89 256 89q164 0 264 -107.5t100 -257.5zM655 364q0 85 -26.5 162.5t-85.5 132t-140 54.5
q-63 0 -112 -31t-78.5 -82.5t-44.5 -113t-15 -128.5q0 -92 30 -171.5t89 -130t134 -50.5q65 0 115 32.5t78 86.5t42 114.5t14 124.5z" />
    <glyph glyph-name="R" unicode="R" horiz-adv-x="762" 
d="M797 0h-205q-22 23 -38 47q-4 6 -20 29q-11 17 -32.5 49t-32 47.5t-30 41.5t-42.5 52q-52 59 -93 68q-15 3 -52 5q0 -150 1 -194q0 -5 0.5 -15.5t0.5 -14.5t0.5 -12.5t1 -12.5t1 -10.5t2 -10.5t3.5 -8.5t4 -8.5q26 -39 95 -42v-10h-320v10q63 9 84 36q14 17 16 110
q2 74 2 207v195q0 103 -17 121q-22 23 -79 31v10q4 0 118 0.5t156 0.5q55 0 84.5 -1.5t66 -8.5t63.5 -21q98 -52 98 -162q0 -69 -46 -115t-119 -69v-3q29 -15 64 -64q14 -20 53.5 -77.5t57.5 -82.5q36 -52 71 -76t83 -31v-10zM518 534q0 105 -98 151q-45 21 -106 21
q-27 0 -54 -3q-4 -22 -6 -77q-2 -62 -2 -274q88 0 145 18q62 19 91.5 63t29.5 101z" />
    <glyph glyph-name="S" unicode="S" horiz-adv-x="605" 
d="M558 197q0 -95 -72.5 -150.5t-188.5 -55.5q-36 0 -68.5 4.5t-53.5 11t-36 13.5t-23.5 11.5t-9.5 4.5q-5 0 -31 -35h-9l-3 199h10q18 -53 53.5 -100.5t70.5 -65.5q52 -27 99 -27q74 0 120 41t46 109q0 52 -30 81.5t-85 50.5q-30 11 -72.5 25.5t-74.5 26.5q-55 22 -93.5 71
t-38.5 110q0 102 69 155.5t171 53.5q34 0 63.5 -5t48 -12t32 -14t20.5 -12t8 -5q8 0 30 36h11v-185h-11q-28 77 -79.5 129t-123.5 52q-65 0 -107.5 -37.5t-42.5 -103.5q0 -93 115 -136q30 -12 76 -27t67 -23q143 -52 143 -191z" />
    <glyph glyph-name="T" unicode="T" horiz-adv-x="737" 
d="M750 535l-9 -3q-15 34 -40.5 72.5t-42.5 54.5q-35 33 -108 34q-51 1 -127 1q-1 -68 -1 -327v-222q0 -78 11 -93q20 -30 92 -42v-10h-325v10q22 2 35 5t30.5 12.5t31.5 25.5q12 13 14 107q2 74 2 203v331q-76 0 -127 -1q-70 -1 -108 -37q-17 -16 -41.5 -53t-39.5 -71l-9 3
l32 190q49 -11 99 -12q101 -2 250 -2q48 0 250 2q44 1 99 17z" />
    <glyph glyph-name="U" unicode="U" horiz-adv-x="834" 
d="M824 710q-70 -10 -92 -62q-12 -27 -14 -151q0 -28 -2.5 -99.5t-3.5 -116.5q-3 -104 -30 -161q-64 -132 -262 -132q-59 0 -106.5 12.5t-77 30.5t-51 45.5t-32 50t-16 51.5t-6.5 43t-1 31q0 14 0.5 73t0.5 100v133q0 99 -15 117q-25 29 -81 35v10h298v-10q-89 -12 -91 -80
q-2 -69 -2 -172q0 -138 1 -202q2 -108 58 -171t155 -63q47 0 84.5 10.5t62 26t42.5 41.5t27.5 49.5t15 58.5t6.5 59t2 60q1 12 0 91v79q0 112 -11 143q-20 58 -107 70v10h248v-10z" />
    <glyph glyph-name="V" unicode="V" horiz-adv-x="667" 
d="M702 709q-23 -3 -43 -14t-25 -17q-24 -24 -59 -108q-79 -189 -189 -477l-49 -102h-12q-92 235 -219 557q-25 62 -47 105q-29 54 -91 56v11h301v-10q-79 -12 -79 -51q0 -10 15 -53.5t40.5 -111.5t48.5 -127t52 -131.5t37 -93.5q72 181 150 389q32 87 32 123q0 45 -96 56
v10h233v-11z" />
    <glyph glyph-name="W" unicode="W" horiz-adv-x="991" 
d="M1021 710q-21 -3 -39.5 -13t-23.5 -16q-34 -33 -59 -110q-20 -58 -78.5 -227t-85.5 -251l-42 -98h-10q-38 105 -95.5 268t-82.5 231q-18 -51 -67 -191t-74 -208l-44 -100h-12q-43 117 -111.5 296.5t-97.5 257.5q-29 75 -43 105q-28 53 -86 55v11h284v-10q-74 -6 -74 -51
q0 -16 32.5 -107t89.5 -238t62 -162q50 132 129 372q-36 94 -53 130q-26 53 -98 55v11h313v-10q-93 -12 -93 -51q0 -7 15 -53t39 -114t46.5 -131t45.5 -125.5t28 -77.5q54 143 133 399q18 58 18 98q0 45 -86 55v10h220v-10z" />
    <glyph glyph-name="X" unicode="X" horiz-adv-x="708" 
d="M734 710q-48 -10 -86.5 -40.5t-86.5 -88.5q-107 -129 -153 -185q5 -6 83 -118t95 -136q28 -40 38 -54t29.5 -36t35.5 -30.5t37 -11.5v-10h-324v10q92 10 92 49q0 22 -43 87q-30 48 -120 174q-93 -110 -139 -173q-36 -51 -36 -78q0 -26 28.5 -40.5t63.5 -18.5v-10h-267v10
q77 20 173 127q3 3 166 199q-7 10 -79 111t-93 131q-48 67 -74.5 93.5t-68.5 38.5v10h326v-10q-95 -11 -95 -49q0 -19 46 -86q61 -89 114 -164q29 33 128 161q40 52 40 80q0 42 -91 58v10h261v-10z" />
    <glyph glyph-name="Y" unicode="Y" horiz-adv-x="649" 
d="M682 710q-27 -4 -47 -13t-39 -29t-30 -35.5t-35 -50.5q-14 -21 -75.5 -115.5t-78.5 -120.5v-201q0 -80 11 -95q20 -29 85 -40v-10h-308v10q21 2 32 4.5t26 11.5t29 25q12 13 14 109q2 74 2 160q-2 3 -34.5 56t-70.5 114.5t-55 87.5q-25 39 -36 54.5t-29 37.5t-34 30.5
t-36 9.5v10h305v-10q-21 -2 -31 -3.5t-26 -6t-23 -12.5t-7 -20q0 -16 45 -93q3 -6 130 -213q67 99 134 211q36 60 36 86q0 7 -1.5 12.5t-5 10t-7 8t-10 6t-10.5 4.5t-12.5 3.5t-12.5 2.5t-13.5 2.5t-12.5 1.5v10h231v-10z" />
    <glyph glyph-name="Z" unicode="Z" horiz-adv-x="694" 
d="M695 225l-72 -225h-603l-4 7l506 695q-196 0 -246 -2q-66 -3 -124 -48q-26 -20 -66 -66.5t-61 -81.5l-11 4l73 213q41 -3 569 -3l3 -6l-505 -694q66 -1 171 -1q51 0 99 5q150 17 260 207z" />
    <glyph glyph-name="bracketleft" unicode="[" horiz-adv-x="286" 
d="M276 -107h-227v827h227v-24h-199v-779h199v-24z" />
    <glyph glyph-name="backslash" unicode="\" horiz-adv-x="311" 
d="M362 -132l-33 -12l-371 891l33 13z" />
    <glyph glyph-name="bracketright" unicode="]" horiz-adv-x="286" 
d="M237 -107h-227v24h199v779h-199v24h227v-827z" />
    <glyph glyph-name="asciicircum" unicode="^" horiz-adv-x="850" 
d="M883 579q0 -69 -44 -110.5t-112 -41.5q-63 0 -115 20l-2 -2q58 -76 58 -159q0 -124 -97 -207t-226 -83q-143 0 -234 81t-91 193q0 50 20 87.5t49 55.5t53 26.5t40 8.5q-15 21 -22.5 33t-16 35.5t-8.5 49.5q0 64 43.5 109.5t102.5 45.5q61 0 94 -34t33 -84
q0 -25 -17.5 -42t-42.5 -17q-18 0 -32.5 13t-14.5 31t12 31.5t30 13.5q23 0 34 -18h2q7 10 7 20q0 50 -71 50q-54 0 -94.5 -49.5t-40.5 -110.5q0 -57 20 -76q40 0 65 -8q19 -6 34.5 -22t15.5 -35q0 -13 -10 -21.5t-24 -8.5q-13 0 -28 13t-33 35.5t-26 30.5q-10 2 -21 2
q-34 0 -64.5 -43t-30.5 -95q0 -92 78.5 -149.5t177.5 -57.5q95 0 154 29q72 35 107 93t35 121q0 121 -88 121q-50 0 -83 -21.5t-33 -65.5q0 -21 12.5 -36t31.5 -15q12 0 18 3l1 4q-12 9 -17 13.5t-8.5 11t-3.5 15.5q0 21 14 32.5t36 11.5q23 0 35.5 -15.5t12.5 -38.5
q0 -28 -20.5 -45.5t-49.5 -17.5q-33 0 -54.5 24t-21.5 58q0 59 77 104q63 36 139 36q29 0 51.5 -0.5t38.5 -0.5q130 0 130 94q0 48 -21.5 67.5t-61.5 19.5q-20 0 -31 -13l1 -4q13 -2 23 -12.5t10 -24.5q0 -25 -15.5 -38.5t-40.5 -13.5t-40 17.5t-15 42.5q0 30 29 50t62 20
q53 0 94 -39t41 -98z" />
    <glyph glyph-name="underscore" unicode="_" 
d="M500 -131h-500v34h500v-34z" />
    <glyph glyph-name="grave" unicode="`" 
d="M305 520l-10 -6l-137 153v5q17 24 46 24z" />
    <glyph glyph-name="a" unicode="a" horiz-adv-x="448" 
d="M465 98q-2 -40 -30.5 -70.5t-68.5 -30.5q-37 0 -62 22.5t-25 69.5l-2 1q-21 -35 -58.5 -63t-85.5 -28q-37 0 -65 23.5t-28 71.5q0 51 78 101q53 34 106.5 63t54.5 30v103q0 5 -5.5 14.5t-25 20.5t-47.5 11q-30 0 -57.5 -18.5t-27.5 -32.5v-45q0 -13 -14.5 -24.5
t-31.5 -11.5q-16 0 -27.5 11.5t-11.5 26.5q0 5 1 9.5t2.5 8.5t5 8.5t5.5 7t7 6.5l7.5 6t8 5.5t7.5 4.5t8 5t7 4q53 31 105.5 53t77.5 22q26 0 49 -13.5t33 -33.5q6 -11 6 -59t-1 -121t-1 -118q0 -74 51 -74q40 0 49 34h6zM279 118v154q-9 -7 -58 -34t-75.5 -52.5
t-26.5 -56.5q0 -27 18.5 -47.5t46.5 -20.5q54 0 83 29q12 11 12 28z" />
    <glyph glyph-name="b" unicode="b" horiz-adv-x="538" 
d="M519 242q0 -102 -67 -173.5t-168 -71.5q-113 0 -183 60h-5l-24 -54h-7v623q-19 13 -58 33v6l134 61h8l-3 -356l2 -1q18 43 70 78.5t106 35.5q89 0 142 -71t53 -170zM427 228q0 81 -40.5 136.5t-118.5 55.5q-54 0 -86.5 -29t-33.5 -49q-1 -16 -1 -71q0 -53 1 -78
q3 -76 36.5 -128t102.5 -52q62 0 101 60.5t39 154.5z" />
    <glyph glyph-name="c" unicode="c" horiz-adv-x="432" 
d="M441 143q-18 -62 -73 -105t-127 -43q-96 0 -158.5 71.5t-62.5 175.5q0 97 65 169t161 72q71 0 124.5 -32.5t53.5 -86.5q0 -21 -15.5 -36.5t-36.5 -15.5q-17 0 -30.5 10t-17.5 25q5 14 5 34q0 39 -20.5 62.5t-60.5 23.5q-61 0 -102 -58t-41 -141q0 -91 46 -146.5
t124 -55.5q60 0 96.5 20t61.5 61z" />
    <glyph glyph-name="d" unicode="d" horiz-adv-x="546" 
d="M533 39l-148 -44h-6v102h-1q-58 -100 -167 -100q-79 0 -135.5 64t-56.5 175q0 106 71 176.5t184 70.5q50 0 105 -17q-2 41 -2 179l-82 31v6l159 44h8v-649q13 -8 71 -31v-7zM378 135v238q-21 40 -55 65.5t-64 25.5q-73 0 -110 -62.5t-37 -152.5q0 -88 42 -150.5
t116 -62.5q40 0 70 28t38 71z" />
    <glyph glyph-name="e" unicode="e" horiz-adv-x="435" 
d="M433 152q-9 -54 -61 -104.5t-127 -50.5q-100 0 -163 73.5t-63 180.5q0 90 60 161t152 71q82 0 135 -42t59 -123h-321q0 -4 -1 -18t-1 -22q0 -90 49 -151t137 -61q49 0 87 25t50 63zM326 376q0 38 -26 64t-68 26q-49 0 -85.5 -49t-40.5 -85q31 0 155 2q35 0 51 6
q14 16 14 36z" />
    <glyph glyph-name="f" unicode="f" horiz-adv-x="270" 
d="M379 675q0 -19 -12 -33.5t-30 -14.5q-21 0 -37.5 15.5t-31 34t-26.5 22.5q-8 0 -17.5 -3t-21.5 -12t-21 -29t-10 -49q-3 -54 -3 -133h118l-13 -44h-106v-390q1 -8 7 -13t19.5 -8t22 -4t27.5 -3q7 -1 10 -1v-10h-255v10q86 8 86 32v387h-72l11 44h62q0 112 16 145
q23 47 77.5 77.5t117.5 30.5q33 0 57.5 -12.5t24.5 -38.5z" />
    <glyph glyph-name="g" unicode="g" horiz-adv-x="525" 
d="M535 428q0 -15 -10.5 -26.5t-25.5 -11.5q-20 0 -101 48l-4 -4q13 -20 19 -29.5t11.5 -27.5t5.5 -38q0 -77 -54.5 -117.5t-152.5 -40.5q-8 0 -28.5 2t-34.5 2q-32 -2 -51 -15t-19 -33q0 -53 103 -53h160q68 0 110 -40t42 -101q0 -80 -75 -137.5t-186 -57.5
q-108 0 -169 32.5t-61 89.5q0 10 3.5 20t7.5 17.5t13.5 17.5t15.5 15.5t20 15t19.5 13.5t22 14t20.5 13v2q-106 16 -106 92q0 37 34 67t84 36v3q-93 37 -93 134q0 64 55.5 108.5t138.5 44.5q71 0 129 -31q19 -6 41 -6q17 0 39 11.5t38 11.5q17 0 28 -12t11 -29zM350 339
q0 54 -28.5 91t-80.5 37q-49 0 -77.5 -41t-28.5 -97q0 -58 30.5 -95.5t74.5 -37.5q51 0 80.5 42t29.5 101zM438 -98q0 58 -41 79q-43 22 -146 22q-28 0 -79 -8q-83 -21 -83 -95q0 -58 56.5 -93.5t114.5 -35.5q56 0 90 12q37 14 62.5 46t25.5 73z" />
    <glyph glyph-name="h" unicode="h" horiz-adv-x="524" 
d="M514 0h-206v11q63 3 63 27v250q0 65 -20.5 100t-72.5 35q-68 0 -101 -48q-9 -12 -9 -30v-307q0 -6 2.5 -10.5t5.5 -7t10 -4.5t11 -2.5t13.5 -1.5t13.5 -2v-10h-199v10q19 2 30 4t20.5 9t9.5 19v568q0 13 -10 21q-5 4 -13 8.5t-18.5 10.5t-16.5 9v6l134 61h8l-3 -347l2 -1
q19 37 64.5 71t106.5 34q116 0 116 -153v-295q0 -19 54 -25q3 -1 5 -1v-9z" />
    <glyph glyph-name="i" unicode="i" horiz-adv-x="254" 
d="M177 641q0 -23 -15.5 -38.5t-38.5 -15.5q-22 0 -38 16t-16 38t15.5 37.5t38.5 15.5t38.5 -15.5t15.5 -37.5zM233 0h-215v10q21 2 32.5 4t23.5 9t12 19v343q0 18 -10 25q-22 15 -48 23v6l135 44h6v-447q2 -9 9.5 -14.5t13.5 -7t21 -2.5t20 -2v-10z" />
    <glyph glyph-name="j" unicode="j" horiz-adv-x="246" 
d="M179 639q0 -23 -15.5 -38.5t-38.5 -15.5q-22 0 -38 16t-16 38t15.5 37.5t38.5 15.5t38.5 -15.5t15.5 -37.5zM172 -63q0 -55 -62.5 -117.5t-129.5 -62.5q-33 0 -58.5 17t-25.5 45q0 48 50 48q19 0 31 -12.5t16 -28t13.5 -28.5t24.5 -14q18 4 29.5 15.5t16 34t6 35.5
t2.5 41q3 78 3 134v325q0 12 -10 21q-9 7 -53 32v7l140 54h6q0 -25 0.5 -264.5t0.5 -281.5z" />
    <glyph glyph-name="k" unicode="k" horiz-adv-x="488" 
d="M528 0h-242v10q16 1 24.5 2t15.5 5.5t7 13.5q0 18 -120 184q-17 22 -29 22q-11 0 -16 -3v-196q0 -6 2.5 -10.5t5.5 -7t10 -4.5t11 -2.5t13.5 -1.5t13.5 -2v-10h-199v10q19 2 30 4t20.5 9t9.5 19v565q0 15 -9 22q-4 3 -49 27v6l133 61h8v-478q63 52 128 115.5t65 76.5
q0 24 -80 26v10h245v-10q-100 -11 -148 -52q-32 -28 -121 -109q101 -154 151 -222q35 -46 59 -64q20 -6 61 -6v-10z" />
    <glyph glyph-name="l" unicode="l" horiz-adv-x="246" 
d="M240 0h-233v11q45 3 60.5 9.5t15.5 22.5v575q0 14 -10 21q-42 24 -57 31v6l143 47h7v-685q0 -6 1 -10t4.5 -6.5t7 -4t11 -2.5t13.5 -1.5t17 -1t20 -1.5v-11z" />
    <glyph glyph-name="m" unicode="m" horiz-adv-x="794" 
d="M782 0h-197v11q30 2 42.5 7t12.5 20v255q0 127 -93 127q-30 0 -51 -14.5t-50 -47.5v-323q0 -7 4.5 -12t15 -7.5t15.5 -3.5t19 -3v-9h-197v11q31 2 45 7t14 20v256q0 126 -93 126q-31 0 -51.5 -12.5t-49.5 -43.5v-328q1 -7 4.5 -12t9.5 -7.5t11 -3l15 -1.5t15 -2v-10h-194
v10q56 5 56 32v342q0 14 -10 21q-23 13 -45 23v8l131 47h6v-108l2 -1q24 42 67.5 75.5t92.5 33.5q47 0 77 -31.5t37 -84.5h3q20 42 65.5 79t95.5 37q56 0 86.5 -41.5t30.5 -108.5v-298q0 -19 53 -25q3 -1 5 -1v-9z" />
    <glyph glyph-name="n" unicode="n" horiz-adv-x="521" 
d="M512 0h-204v11q31 2 45 7t14 20v252q0 129 -96 129q-31 0 -52.5 -12.5t-51.5 -42.5v-328q1 -8 4.5 -12.5t9.5 -7t10.5 -3t14.5 -1.5t15 -2v-10h-193v10q56 5 56 32v344q0 14 -10 21q-23 13 -45 23v6l131 47h6v-108l2 -1q26 42 70 75.5t93 33.5q57 0 88.5 -42.5
t31.5 -111.5v-294q0 -18 55 -25q4 -1 6 -1v-9z" />
    <glyph glyph-name="o" unicode="o" horiz-adv-x="511" 
d="M492 245q0 -102 -69.5 -176t-164.5 -74q-41 0 -81.5 15.5t-76.5 44.5t-58.5 78.5t-22.5 111.5q0 95 68 166.5t173 71.5q89 0 160.5 -63.5t71.5 -174.5zM399 246q0 51 -12.5 98.5t-47.5 85t-86 37.5q-63 0 -102 -69.5t-39 -158.5q0 -99 36.5 -163.5t110.5 -64.5
q48 0 81.5 40.5t46 91.5t12.5 103z" />
    <glyph glyph-name="p" unicode="p" horiz-adv-x="534" 
d="M514 265q0 -114 -76 -187t-204 -73q-42 0 -72 6q2 -84 2 -206q1 -7 7.5 -11.5t16.5 -7t19 -3.5t21 -2t18 -2v-11h-248v11q82 8 82 34v556q0 14 -10 21q-16 9 -61 29v6l147 58h6v-112l1 -2q84 114 168 114q88 0 135.5 -65t47.5 -153zM424 236q0 80 -38.5 131t-111.5 51
q-46 0 -78.5 -29t-32.5 -47q0 -14 -0.5 -43t-0.5 -39q0 -79 1 -110q2 -25 7 -44.5t16.5 -39.5t33.5 -31t54 -11q60 0 105 61t45 151z" />
    <glyph glyph-name="q" unicode="q" horiz-adv-x="548" 
d="M543 -232h-240v11q5 1 18.5 2.5t22 2.5t19 4t17 7.5t7.5 10.5q0 178 3 304l-2 1q-18 -44 -65 -78t-108 -34q-87 0 -141.5 70.5t-54.5 168.5q0 101 67 173t169 72q115 0 175 -55h3l31 55h7v-670q0 -27 72 -34v-11zM388 138q1 20 1 80q0 47 -1 69q-3 77 -35 128.5
t-101 51.5q-63 0 -102.5 -60.5t-39.5 -154.5q0 -80 42 -136t118 -56q53 0 85 29t33 49z" />
    <glyph glyph-name="r" unicode="r" horiz-adv-x="357" 
d="M367 430q0 -21 -12.5 -36t-30.5 -15q-23 0 -42 18t-37 18q-23 0 -43.5 -27.5t-33.5 -63.5v-288q3 -9 14 -14t21 -6.5t27 -3t23 -2.5v-10h-224v10q56 5 56 32v338q0 14 -10 21q-36 21 -45 25v6l131 51h6l-2 -139h2q37 86 77 116q30 23 63 23q25 0 42.5 -15t17.5 -38z" />
    <glyph glyph-name="s" unicode="s" horiz-adv-x="382" 
d="M369 146q0 -74 -53.5 -112t-133.5 -38q-82 0 -155 33v132h8q10 -30 20.5 -51.5t27.5 -47t42.5 -39t56.5 -13.5q49 0 77 28t28 84q0 31 -19.5 51.5t-53.5 27.5q-60 12 -97 24q-38 13 -61.5 46t-23.5 76q0 60 47 98t114 38q69 0 135 -26l12 -124l-8 -2q-32 70 -63.5 104
t-83.5 34q-36 0 -63.5 -25t-27.5 -68q0 -34 19 -51.5t55 -25.5q15 -4 48 -11t45 -10q46 -11 77 -47t31 -85z" />
    <glyph glyph-name="t" unicode="t" horiz-adv-x="324" 
d="M351 473l-31 -61h-152v-263q0 -97 79 -97q54 0 81 39l6 -3q-14 -37 -49 -64.5t-92 -27.5q-41 0 -75 27.5t-34 59.5q0 67 1 178.5t1 150.5h-73v11l145 137h8v-87h185z" />
    <glyph glyph-name="u" unicode="u" horiz-adv-x="523" 
d="M506 25l-142 -28h-7v103l-1 1q-27 -42 -68.5 -74t-91.5 -32q-125 0 -125 151v244q0 39 -5 49q-3 7 -8 11t-13.5 6.5t-13 3t-17 1.5t-14.5 1v11h155v-291q0 -68 21 -98.5t74 -30.5q37 0 60 16t47 46v285q0 35 -10 49q-16 7 -75 13v11h168v-395q0 -14 10 -21q10 -6 56 -26
v-6z" />
    <glyph glyph-name="v" unicode="v" horiz-adv-x="443" 
d="M493 462q-80 0 -103 -55q-52 -125 -124 -307q-40 -89 -44 -98q-3 -8 -10 -8q-6 0 -9 9q-81 210 -129 334q-38 92 -43 102q-21 21 -66 23v11h243v-11q-3 0 -12 -1t-14.5 -2t-14 -2t-14 -3.5t-11.5 -5.5t-8.5 -7.5t-2.5 -10.5q0 -15 122 -323q116 291 116 320q0 11 -4 18
t-14.5 10.5t-16 5t-20 2t-15.5 0.5v10h194v-11z" />
    <glyph glyph-name="w" unicode="w" horiz-adv-x="739" 
d="M765 462q-18 -1 -25.5 -2t-22.5 -6.5t-25.5 -17.5t-19.5 -32q-63 -142 -129 -301q-29 -62 -46 -99q-4 -8 -9 -8q-7 0 -9 9q-75 224 -113 334l-95 -248q-11 -21 -23 -50.5t-15 -36.5q-4 -8 -10 -8q-5 0 -9 9q-74 181 -155 376q-19 44 -29 60q-22 19 -64 21v11h227v-11
q-55 -6 -67 -19q3 -18 134 -333q53 131 96 254q-12 37 -33 75q-1 1 -4 5t-6 6t-8.5 5t-15.5 4.5t-23 2.5v11h228v-11q-4 -1 -15 -2t-19.5 -2.5t-18 -4.5t-14.5 -9t-5 -14q0 -19 108 -315q30 69 72.5 176.5t42.5 131.5q0 17 -12.5 26t-21.5 10t-29 3v11h183v-11z" />
    <glyph glyph-name="x" unicode="x" horiz-adv-x="458" 
d="M483 462q-4 0 -16.5 -1t-15.5 -1.5t-13.5 -3.5t-16 -8.5t-16.5 -14.5t-23 -23t-27 -33q-33 -41 -84 -113q15 -31 29 -56t35 -59t32 -53q33 -58 52 -70.5t59 -14.5v-11h-233v11h6t8 0.5t8 1.5t8 3.5t7 5.5t6.5 8.5t3.5 12.5q-1 7 -3.5 15.5t-7.5 20t-9.5 20.5t-12 23.5
t-12.5 23.5t-14.5 26t-14.5 25q-5 -7 -21.5 -30.5t-25.5 -37.5t-21.5 -32.5t-18 -31.5t-5.5 -20q6 -20 19 -26.5t42 -7.5v-11h-197v11h11t10.5 0.5t9.5 1t10.5 2t11 4t12.5 6.5t13 9.5t15 13t16.5 17.5t19.5 22q39 47 92 123q-21 35 -53.5 92.5t-53.5 92.5q-11 19 -31 43
q-21 16 -79 24v11h241v-11q-41 -4 -51 -27q2 -12 26.5 -60.5t54.5 -99.5q87 129 88 151q-3 20 -17 27t-44 9v11h191v-11z" />
    <glyph glyph-name="y" unicode="y" horiz-adv-x="416" 
d="M443 462q-23 -1 -33 -2.5t-24 -11.5t-20 -30q-75 -237 -184 -588q-23 -72 -79 -72q-21 0 -37.5 13t-16.5 32q0 20 12.5 33t31.5 13q6 0 12.5 -2t10.5 -3.5t10.5 -7t9 -7t10 -9l8.5 -8.5h2q29 76 50 158q-3 8 -32 86.5t-73 198.5t-67 183q-20 22 -70 24v11h220v-11
q-19 -3 -27 -5t-16.5 -8.5t-8.5 -18.5q0 -15 115 -330q98 314 98 333q0 12 -10 18.5t-19 8t-27 2.5v11h154v-11z" />
    <glyph glyph-name="z" unicode="z" horiz-adv-x="433" 
d="M437 149l-13 -154h-9q-6 7 -75 7q-67 0 -160.5 -0.5t-155.5 -0.5l-3 7l279 445h-135q-68 0 -92.5 -21t-45.5 -84l-10 2l18 138l9 1q11 -18 59 -18q188 0 301 1l1 -9l-282 -444h151q38 0 65.5 10t44 31t25 40t18.5 50z" />
    <glyph glyph-name="braceleft" unicode="{" horiz-adv-x="286" 
d="M205 179q0 -36 -17 -65.5t-37.5 -46.5t-37.5 -42t-17 -52q0 -12 3 -21t6 -15t12 -10t13 -6.5t16.5 -3.5t16 -1h17.5h16q5 -10 5 -20q0 -18 -21 -18q-30 0 -71 35.5t-41 76.5q0 30 15.5 55.5t33.5 41t33.5 40t15.5 53.5q0 51 -41 83t-86 32v12q46 0 86.5 31t40.5 84
q0 29 -15.5 54t-34.5 40t-34.5 40.5t-15.5 55.5q0 41 41.5 76.5t72.5 35.5q21 0 21 -18q0 -10 -5 -20q-2 0 -17 0.5t-20 0t-18 -2t-18.5 -5.5t-13 -10t-10.5 -16t-3 -24q0 -27 17 -52t37.5 -42t37.5 -46.5t17 -65.5q0 -45 -33 -76.5t-85 -44.5v-2q51 -12 84.5 -44t33.5 -77z
" />
    <glyph glyph-name="bar" unicode="|" horiz-adv-x="808" 
d="M1250 -132q-42 -34 -114 -55.5t-153 -22.5q-58 -1 -103.5 10.5t-120.5 38.5q-57 21 -148 57t-154 58q-17 6 -39.5 14t-42 15t-42.5 15q-136 36 -220 131t-84 232q0 169 130 280q104 89 256 89q164 0 264 -107t100 -257q0 -111 -65 -199.5t-172 -137.5v-2q69 -17 100 -28
q43 -16 134.5 -53t135.5 -52.5t112 -31t128 -15.5q43 0 92 31zM655 365q0 85 -26.5 162t-85.5 131.5t-140 54.5q-63 0 -112 -31t-78.5 -82.5t-44.5 -113t-15 -128.5q0 -143 70 -248t184 -105q64 6 113.5 40.5t78 86.5t42.5 111t14 122z" />
    <glyph glyph-name="braceright" unicode="}" horiz-adv-x="286" 
d="M247 295q-45 0 -86 -32t-41 -83q0 -29 15.5 -53.5t33.5 -40t33.5 -41t15.5 -55.5q0 -41 -41 -76.5t-71 -35.5q-9 0 -15 5t-6 13q0 10 5 20h16h17.5t16 1t16.5 3.5t13 6.5t12 10t6 15t3 21q0 27 -17 52t-37.5 42t-37.5 46.5t-17 65.5q0 45 33.5 77t84.5 44v2
q-52 13 -85 44.5t-33 76.5q0 36 17 65.5t37.5 46.5t37.5 42t17 52q0 12 -3 21t-6.5 15t-12 10t-13 6.5t-16.5 3.5t-16 1h-18h-15q-5 10 -5 20q0 18 21 18q31 0 72.5 -35.5t41.5 -76.5q0 -30 -15.5 -55.5t-34.5 -40.5t-34.5 -40t-15.5 -54q0 -53 40.5 -84t86.5 -31v-12z" />
    <glyph glyph-name="asciitilde" unicode="~" horiz-adv-x="318" 
d="M294 331h-271v68h271v-68z" />
    <glyph glyph-name="nbspace" unicode="&#xa0;" horiz-adv-x="105" 
 />
    <glyph glyph-name="exclamdown" unicode="&#xa1;" horiz-adv-x="303" 
d="M206 669q0 -26 -17 -43.5t-43 -17.5t-42.5 18t-16.5 45q0 26 16.5 41.5t42.5 15.5t43 -16.5t17 -42.5zM210 150q0 -47 -21.5 -98.5t-42.5 -51.5q-19 0 -40.5 52t-21.5 98q46 105 55 371h12q1 -43 4 -82.5t6.5 -70.5t7.5 -58.5t8.5 -49t8.5 -38t8.5 -29.5t7 -21t5.5 -14.5
t3 -7.5z" />
    <glyph glyph-name="cent" unicode="&#xa2;" horiz-adv-x="526" 
d="M481 150q-19 -62 -72 -105t-127 -43q-28 0 -53 6l-34 -136l-19 4l36 137q-69 23 -110.5 84.5t-41.5 144.5q0 94 65 164t161 70q20 0 41 -3l27 116l20 -5l-30 -114q50 -11 84 -38.5t34 -68.5q0 -21 -14.5 -36.5t-35.5 -15.5q-37 0 -46 35q6 16 6 34q0 50 -34 69l-92 -371
q31 -14 68 -14q106 0 159 90zM321 455q-15 4 -35 4q-62 0 -102.5 -55.5t-40.5 -135.5q0 -61 22.5 -110.5t63.5 -73.5z" />
    <glyph glyph-name="sterling" unicode="&#xa3;" horiz-adv-x="678" 
d="M700 666q0 -13 -11.5 -23.5t-24.5 -10.5q-16 0 -25.5 9t-14.5 31q-3 11 -4 14.5t-5.5 12.5t-12 12.5t-18.5 3.5q-65 0 -128 -152q-49 -116 -157 -408h134l-11 -34h-136q-16 -53 -51 -102.5t-64 -75.5l2 -4q13 1 45 4t53 3q44 0 76 -14.5t47 -32t37 -32t47 -14.5
q26 0 51 18.5t25 40.5q0 9 -9.5 13.5t-21.5 6t-21.5 10t-9.5 25.5q0 18 13 31t32 13q22 0 34.5 -14.5t12.5 -34.5q0 -61 -47 -102.5t-123 -41.5q-34 0 -65.5 16t-52 36t-51 36t-63.5 16h-37q-20 -33 -54.5 -58.5t-73.5 -25.5q-17 0 -30 7.5t-13 21.5q0 19 21 29.5t65.5 21
t66.5 18.5q48 89 77 188h-92l9 31h93q28 83 123 334q38 101 104.5 170.5t145.5 69.5q45 0 79 -14.5t34 -48.5z" />
    <glyph glyph-name="currency" unicode="&#xa4;" horiz-adv-x="700" 
d="M575 241h-450v40h450v-40z" />
    <glyph glyph-name="yen" unicode="&#xa5;" horiz-adv-x="520" 
d="M520 535q-25 -4 -44.5 -16.5t-31.5 -26.5t-33 -45q-40 -59 -110 -172l-1 -33l158 1v-20l-158 1v-54l158 1v-20l-157 1q0 -103 8 -114q17 -22 65 -29v-9h-238v9q18 2 24.5 3.5t19 7.5t22.5 18q11 13 11 114l-157 -1v20l158 -1v54l-158 -1v20l158 -1l-1 20
q-85 139 -115 183q-35 50 -56.5 69.5t-50.5 20.5v9h238v-9q-15 -2 -22 -3t-18.5 -4t-16.5 -8.5t-5 -13.5q0 -9 32 -64q45 -75 94 -150q33 51 88 148q24 42 24 60q0 6 -1.5 11t-6 8.5t-8 5.5t-11 4t-11 2.5t-12.5 2t-11 1.5v9h176v-9z" />
    <glyph glyph-name="brokenbar" unicode="&#xa6;" horiz-adv-x="243" 
d="M142 389h-41v395h41v-395zM142 -136h-41v395h41v-395z" />
    <glyph glyph-name="section" unicode="&#xa7;" horiz-adv-x="468" 
d="M407 123q0 -71 -26 -133t-65.5 -101t-84 -61t-83.5 -22q-35 0 -59.5 18t-24.5 50q0 22 14 38.5t35 16.5q26 0 53 -37t45 -48q28 4 57.5 23t29.5 46q0 26 -15.5 51.5t-42.5 59.5q-5 5 -7 8q-13 16 -42.5 49t-46.5 56.5t-34 55.5q-39 74 -39 151q0 92 40.5 182.5t103.5 146
t124 55.5q25 0 40.5 -18.5t15.5 -44.5q0 -24 -16 -41.5t-37 -17.5q-22 0 -35.5 12.5t-28.5 37.5q-18 2 -24 2q-28 0 -53 -21.5t-25 -48.5q0 -24 11 -50t23.5 -43t36.5 -46q11 -13 29.5 -34.5t28 -33t23.5 -30.5t27 -39q52 -79 52 -189zM380 54q0 45 -12.5 77.5t-42.5 80.5
q-18 29 -35.5 53t-45 59t-40.5 52q-3 3 -13.5 17t-13 17.5t-11 15t-11.5 17t-9 15.5t-10 19t-8 19h-8q-16 -42 -16 -84q0 -70 45 -138q24 -36 68 -88.5t62 -76.5q3 -4 12.5 -16.5t12.5 -16t10.5 -14t10.5 -15.5t8 -14.5t8 -16.5t6 -16.5t5 -18.5h8q20 28 20 73z" />
    <glyph glyph-name="dieresis" unicode="&#xa8;" 
d="M380 600q0 -19 -13.5 -32.5t-32.5 -13.5t-32.5 13.5t-13.5 32.5t13.5 32.5t32.5 13.5t32.5 -13.5t13.5 -32.5zM213 600q0 -19 -13.5 -32.5t-32.5 -13.5t-32.5 13.5t-13.5 32.5t13.5 32.5t32.5 13.5t32.5 -13.5t13.5 -32.5z" />
    <glyph glyph-name="copyright" unicode="&#xa9;" horiz-adv-x="1000" 
d="M878 230q0 -158 -112 -270.5t-270 -112.5t-270.5 112.5t-112.5 270.5t112.5 270.5t270.5 112.5t270 -112.5t112 -270.5zM847 230q0 146 -102.5 249t-248.5 103q-147 0 -249.5 -103t-102.5 -249q0 -147 102.5 -250t249.5 -103q146 0 248.5 103t102.5 250zM689 166l-3 -161
h-9q-26 33 -28 33l-7 -4q-6 -4 -18 -10t-27.5 -12t-38 -10t-46.5 -4q-120 0 -187 65t-67 169q0 68 37 126q71 110 216 110q24 0 47 -4t39 -10t27.5 -12t18.5 -10l7 -4q7 0 30 30h9v-158h-11q-10 40 -27 68q-54 85 -138 85q-79 0 -121.5 -66.5t-42.5 -157.5t44 -153t121 -62
q65 0 108 45t56 107h11z" />
    <glyph glyph-name="ordfeminine" unicode="&#xaa;" horiz-adv-x="248" 
d="M262 446q-2 -24 -16.5 -40t-37.5 -16q-20 0 -33 10.5t-13 29.5h-3q-30 -40 -73 -40q-20 0 -35.5 12.5t-15.5 37.5q0 29 41 53q19 11 36.5 20t30.5 15.5l17 8.5v52q0 2 -3 6.5t-12.5 9t-22.5 4.5q-15 0 -28.5 -7.5t-13.5 -14.5v-23q0 -8 -8.5 -14.5t-18.5 -6.5t-16.5 6.5
t-6.5 15.5q0 17 33 35q67 37 97 37q14 0 27.5 -7.5t18.5 -16.5q3 -7 3 -31t-0.5 -61.5t-0.5 -59.5q0 -34 23 -34q18 0 24 19h7zM160 451v73q-5 -3 -18 -9.5t-19 -10t-15.5 -10t-14 -11t-8 -12t-3.5 -14.5q0 -13 8.5 -22t22.5 -9q28 0 42 13q5 5 5 12z" />
    <glyph glyph-name="guillemotleft" unicode="&#xab;" horiz-adv-x="393" 
d="M347 99l-7 -5l-167 159v5l167 159l6 -5l-86 -156zM227 106l-7 -5l-167 152v5l167 152l6 -5l-86 -149z" />
    <glyph glyph-name="logicalnot" unicode="&#xac;" horiz-adv-x="700" 
d="M570 55h-43v206h-404v39h447v-245z" />
    <glyph glyph-name="registered" unicode="&#xae;" horiz-adv-x="514" 
d="M470 594q0 -88 -62.5 -150t-150.5 -62t-150.5 62t-62.5 150t62.5 150t150.5 62q89 0 151 -62t62 -150zM314 656q0 34 -31 49q-10 5 -34 5q-13 0 -17 -1q-2 -8 -2 -25v-84q32 0 46 4q38 13 38 52zM451 594q0 80 -57.5 137t-136.5 57t-136 -57t-57 -137t56.5 -137
t136.5 -57q97 0 156 76h-73q-6 9 -19 29q-30 44 -45 62q-16 18 -29 21q-4 1 -17 1v-58q0 -26 4 -33q8 -12 33 -12v-10h-117v10q21 0 31 10q7 8 7 39v126q0 33 -7 40q-9 8 -29 11v8q4 0 44 1t54 1q51 0 75 -11q35 -16 35 -57q0 -23 -16.5 -38.5t-41.5 -21.5v-1q11 -10 22 -23
q17 -20 39 -53q25 -29 56 -32q32 47 32 109z" />
    <glyph glyph-name="macron" unicode="&#xaf;" 
d="M391 576h-281v45h281v-45z" />
    <glyph glyph-name="degree" unicode="&#xb0;" horiz-adv-x="408" 
d="M345 584q0 -58 -41 -99.5t-101 -41.5q-59 0 -99.5 41t-40.5 100q0 60 41 100.5t100 40.5q58 0 99.5 -41.5t41.5 -99.5zM304 584q0 42 -29 71.5t-71 29.5q-41 0 -71 -29.5t-30 -71.5t29.5 -72t71.5 -30t71 30t29 72z" />
    <glyph glyph-name="plusminus" unicode="&#xb1;" horiz-adv-x="792" 
d="M782 0h-231v11q45 3 59.5 9.5t14.5 22.5v388h-187v-393q1 -7 6.5 -12t15 -8t17.5 -4t20.5 -2t17.5 -2v-10h-236v10q76 7 76 32v387h-187v-391q1 -7 6.5 -12t15 -8t17 -4t20 -2t17.5 -2v-10h-235v10q76 7 76 32v387h-72l16 43h57q0 86 14 120q24 58 79 94.5t118 36.5
q94 0 125 -66q61 68 145 68q69 0 110 -30l25 35h6v-693q0 -13 13 -17.5t47 -7.5q9 -1 14 -1v-11zM626 472v166q-30 50 -77 68q-8 0 -17 -1.5t-25.5 -8.5t-29.5 -20t-23.5 -39t-12.5 -61q-3 -54 -3 -104h188zM357 472v153q-2 19 -23.5 46.5t-55.5 33.5q-11 0 -23 -3.5
t-31.5 -14.5t-34 -40.5t-17.5 -72.5q-4 -54 -4 -102h189z" />
    <glyph glyph-name="twosuperior" unicode="&#xb2;" horiz-adv-x="267" 
d="M274 468l-37 -74h-205l-2 8q24 14 36.5 21t38 25.5t39.5 33t26 35.5t12 41q0 26 -18 42.5t-46 16.5q-60 0 -79 -59h-8q1 47 30.5 74t73.5 27q41 0 69.5 -22.5t28.5 -63.5q0 -21 -9 -33q-41 -53 -113 -101v-2h96q18 0 31 7t16 11t11 17z" />
    <glyph glyph-name="threesuperior" unicode="&#xb3;" horiz-adv-x="242" 
d="M235 408q0 -53 -40.5 -84t-95.5 -31q-39 0 -63.5 14.5t-24.5 37.5q0 27 38 27q21 -64 72 -64q7 0 20.5 4.5t29 22t15.5 44.5q0 35 -23.5 60t-60.5 33l-3 7q36 24 51.5 42.5t15.5 49.5q0 21 -16.5 34t-41.5 13q-57 0 -73 -52h-8q0 43 28.5 68t68.5 25q37 0 64 -20t27 -53
q0 -11 -4 -16q-20 -30 -57 -62q31 -14 56 -40t25 -60z" />
    <glyph glyph-name="acute" unicode="&#xb4;" 
d="M346 667l-140 -153l-10 6l104 176q29 0 46 -24v-5z" />
    <glyph glyph-name="mu" unicode="&#xb5;" horiz-adv-x="630" 
d="M598 184q0 -100 -38 -149q-31 -40 -79 -40q-75 0 -75 112q0 19 5 44h-3q-29 -72 -80 -114.5t-112 -42.5q-42 0 -67 33t-25 93q0 11 4 39h-9q-41 -103 -60 -280q1 -12 9 -39.5t8 -35.5q0 -24 -10.5 -38t-24.5 -14q-17 0 -28.5 11t-11.5 32q0 52 42 197q11 37 26.5 85.5
t25.5 80.5t13 45q2 7 5.5 34.5t8 66t8.5 63.5q12 76 31 98q17 18 39 18q14 0 22.5 -5.5t11 -17t3 -21t-4 -27t-6.5 -25t-7 -23.5q-10 -32 -30.5 -81t-28.5 -74q-10 -28 -10 -49q0 -38 23.5 -59.5t60.5 -21.5q50 0 95 60.5t63 120.5q1 4 5.5 26t10 50.5t8.5 43.5q0 2 3 14.5
t4 17t4.5 16.5t6 17.5t8 14t11 12.5t14 7t17.5 3q15 0 24 -5.5t11 -17.5t3 -20.5t-3.5 -25.5t-5.5 -21.5t-6 -18.5q-17 -52 -38 -102t-32 -75.5t-11 -31.5q0 -43 19 -65.5t45 -22.5q40 0 63.5 25t34.5 83h10z" />
    <glyph glyph-name="paragraph" unicode="&#xb6;" horiz-adv-x="530" 
d="M476 709q-83 0 -83 -58v-585q0 -113 -59.5 -189.5t-177.5 -76.5q-36 0 -64.5 20.5t-28.5 51.5q0 20 16 36t38 16t36.5 -12.5t14.5 -30.5q0 -23 -15 -33q14 -21 60 -21q72 0 107.5 72.5t35.5 189.5v144h-37q-111 0 -186.5 71t-75.5 181q0 106 78.5 171t224.5 65
q19 0 60.5 -0.5t55.5 -0.5v-11z" />
    <glyph glyph-name="periodcentered" unicode="&#xb7;" horiz-adv-x="263" 
d="M192 258q0 -26 -16 -41.5t-42 -15.5t-43 16.5t-17 42.5t17 43.5t43 17.5t42 -18t16 -45z" />
    <glyph glyph-name="cedilla" unicode="&#xb8;" 
d="M330 -134q0 -42 -35.5 -66t-69.5 -24q-76 0 -76 45q0 11 8 20t23 9q20 0 29 -11q0 -4 -0.5 -11t-0.5 -9q0 -31 22 -31q19 0 31.5 14.5t12.5 40.5q0 56 -73 80l80 83h20l-45 -49q23 -9 39.5 -22.5t23 -27.5t9 -23.5t2.5 -17.5z" />
    <glyph glyph-name="onesuperior" unicode="&#xb9;" horiz-adv-x="201" 
d="M189 394h-157v10q38 3 47 11q5 6 5 34q0 5 0.5 33t0.5 42v72q0 31 -5 37q-8 7 -47 10v10h156v-10q-43 -4 -48 -13q-4 -6 -4 -31q0 -7 -0.5 -32.5t-0.5 -40.5v-81q0 -25 4 -30q3 -4 21 -7.5t28 -3.5v-10z" />
    <glyph glyph-name="ordmasculine" unicode="&#xba;" horiz-adv-x="280" 
d="M276 516q0 -52 -37 -89t-88 -37q-47 0 -87 33.5t-40 92.5q0 48 36 84.5t92 36.5q47 0 85.5 -32.5t38.5 -88.5zM221 517q0 40 -17.5 73.5t-54.5 33.5q-32 0 -51.5 -34.5t-19.5 -76.5q0 -48 18.5 -79t55.5 -31q35 0 52 36t17 78z" />
    <glyph glyph-name="guillemotright" unicode="&#xbb;" horiz-adv-x="393" 
d="M341 253l-167 -152l-7 5l87 150l-86 149l6 5l167 -152v-5zM221 253l-167 -159l-7 5l87 157l-86 156l6 5l167 -159v-5z" />
    <glyph glyph-name="onequarter" unicode="&#xbc;" 
d="M36 274h432v-27h-432v27zM364 332h-210v11q26 1 47 9t21 24v270q0 29 -71 32v11h213v-11q-71 -3 -71 -33v-270q0 -29 71 -32v-11zM430 -78h-94v-116h-66v116h-194l-2 7l30 42l217 236h13v-238h96v-47zM270 -31v159l-148 -159h148z" />
    <glyph glyph-name="onehalf" unicode="&#xbd;" 
d="M36 274h432v-27h-432v27zM364 332h-210v11q26 1 47 9t21 24v270q0 29 -71 32v11h213v-11q-71 -3 -71 -33v-270q0 -29 71 -32v-11zM446 -64l-41 -111h-282l-1 9q44 35 63.5 51t56 50.5t53 63.5t16.5 56q0 34 -20.5 57t-57.5 23q-70 0 -116 -69l-10 5q71 122 170 122
q44 0 72.5 -26t28.5 -66q0 -24 -8.5 -47t-18 -39t-31 -36.5t-33.5 -30.5t-39.5 -31t-36.5 -28v-1h147q12 0 21.5 1.5t17 5t12 6.5t9.5 9.5t6.5 9t5.5 10.5l5 10z" />
    <glyph glyph-name="threequarters" unicode="&#xbe;" 
d="M399 443q0 -57 -50 -89.5t-118 -32.5q-46 0 -76 15.5t-30 40.5q0 33 49 33q1 -2 7 -13.5t9 -16.5t10.5 -15t15 -15t19 -9t24.5 -4q8 0 23.5 5.5t33 24t17.5 45.5q0 74 -102 88l-1 7q42 27 59.5 47.5t17.5 50.5q0 23 -18 38t-46 15q-67 0 -85 -57l-9 1q2 49 37 76.5
t80 27.5q43 0 74.5 -24t31.5 -60q0 -16 -11.5 -30t-22 -20.5t-42.5 -26.5q41 -13 72 -40t31 -62zM468 247h-432v27h432v-27zM430 -78h-94v-116h-66v116h-194l-2 7l30 42l217 236h13v-238h96v-47zM270 -31v159l-148 -159h148z" />
    <glyph glyph-name="questiondown" unicode="&#xbf;" horiz-adv-x="383" 
d="M310 669q0 -26 -17 -43.5t-43 -17.5t-42.5 18t-16.5 45q0 26 16.5 41.5t42.5 15.5t43 -16.5t17 -42.5zM273 -5h-17v49q-47 0 -76 8.5t-54 32.5q-54 49 -54 186q0 116 33 146q32 30 149 53v81h18v-175q-70 -12 -101 -22q-43 -13 -61 -36t-18 -70q0 -101 125 -101
q10 0 56 4v-156z" />
    <glyph glyph-name="Agrave" unicode="&#xc0;" horiz-adv-x="704" 
d="M428 767l-11 -7l-176 143v5q14 26 51 26zM736 0h-292v10q70 8 70 46q0 31 -72 220h-266q-4 -10 -25 -62t-32 -80q-21 -54 -21 -76q0 -39 83 -48v-10h-215v11q23 3 43 13t25 16q22 22 62 110q67 149 206 479l-10 22q53 23 88 83h8q170 -455 210 -562q14 -39 42 -98
q5 -10 14 -21.5t31.5 -25.5t50.5 -15v-12zM434 297q-45 119 -121 309q-108 -260 -128 -309h249z" />
    <glyph glyph-name="Aacute" unicode="&#xc1;" horiz-adv-x="704" 
d="M473 903l-176 -143l-11 7l136 167q37 0 51 -26v-5zM736 0h-292v10q70 8 70 46q0 31 -72 220h-266q-4 -10 -25 -62t-32 -80q-21 -54 -21 -76q0 -39 83 -48v-10h-215v11q23 3 43 13t25 16q22 22 62 110q67 149 206 479l-10 22q53 23 88 83h8q170 -455 210 -562
q14 -39 42 -98q5 -10 14 -21.5t31.5 -25.5t50.5 -15v-12zM434 297q-45 119 -121 309q-108 -260 -128 -309h249z" />
    <glyph glyph-name="Acircumflex" unicode="&#xc2;" horiz-adv-x="704" 
d="M470 761l-13 -7l-101 104l-100 -104l-13 7l106 163h15zM736 0h-292v10q70 8 70 46q0 31 -72 220h-266q-4 -10 -25 -62t-32 -80q-21 -54 -21 -76q0 -39 83 -48v-10h-215v11q23 3 43 13t25 16q22 22 62 110q67 149 206 479l-10 22q53 23 88 83h8q170 -455 210 -562
q14 -39 42 -98q5 -10 14 -21.5t31.5 -25.5t50.5 -15v-12zM434 297q-45 119 -121 309q-108 -260 -128 -309h249z" />
    <glyph glyph-name="Atilde" unicode="&#xc3;" horiz-adv-x="704" 
d="M536 888q-12 -49 -38.5 -78t-78.5 -29l-107 21q-44 0 -58 -6.5t-27 -41.5h-14q25 102 114 102l105 -21q43 0 62.5 9.5t26.5 43.5h15zM736 0h-292v10q70 8 70 46q0 31 -72 220h-266q-4 -10 -25 -62t-32 -80q-21 -54 -21 -76q0 -39 83 -48v-10h-215v11q23 3 43 13t25 16
q22 22 62 110q67 149 206 479l-10 22q53 23 88 83h8q170 -455 210 -562q14 -39 42 -98q5 -10 14 -21.5t31.5 -25.5t50.5 -15v-12zM434 297q-45 119 -121 309q-108 -260 -128 -309h249z" />
    <glyph glyph-name="Adieresis" unicode="&#xc4;" horiz-adv-x="704" 
d="M496 815q0 -19 -13.5 -32.5t-32.5 -13.5t-32.5 13.5t-13.5 32.5t13.5 32.5t32.5 13.5t32.5 -13.5t13.5 -32.5zM320 815q0 -19 -13.5 -32.5t-32.5 -13.5t-32.5 13.5t-13.5 32.5t13.5 32.5t32.5 13.5t32.5 -13.5t13.5 -32.5zM736 0h-292v10q70 8 70 46q0 31 -72 220h-266
q-4 -10 -25 -62t-32 -80q-21 -54 -21 -76q0 -39 83 -48v-10h-215v11q23 3 43 13t25 16q22 22 62 110q67 149 206 479l-10 22q53 23 88 83h8q170 -455 210 -562q14 -39 42 -98q5 -10 14 -21.5t31.5 -25.5t50.5 -15v-12zM434 297q-45 119 -121 309q-108 -260 -128 -309h249z
" />
    <glyph glyph-name="Aring" unicode="&#xc5;" horiz-adv-x="704" 
d="M424 819q0 -32 -21.5 -53.5t-55.5 -21.5t-55.5 21t-21.5 54q0 32 22.5 53.5t54.5 21.5q33 0 55 -21t22 -54zM396 819q0 23 -13.5 38.5t-35.5 15.5t-35.5 -15.5t-13.5 -38.5t13.5 -38.5t35.5 -15.5t35.5 15.5t13.5 38.5zM736 0h-292v10q70 8 70 46q0 31 -72 220h-266
q-4 -10 -25 -62t-32 -80q-21 -54 -21 -76q0 -39 83 -48v-10h-215v11q23 3 43 13t25 16q22 22 62 110q67 149 206 479l-10 22q53 23 88 83h8q170 -455 210 -562q14 -39 42 -98q5 -10 14 -21.5t31.5 -25.5t50.5 -15v-12zM434 297q-45 119 -121 309q-108 -260 -128 -309h249z
" />
    <glyph glyph-name="AE" unicode="&#xc6;" horiz-adv-x="1016" 
d="M1007 199l-40 -199h-576v10q30 5 46.5 11t30.5 22q11 12 13 113q2 46 2 131h-268q-32 -48 -77 -123q-48 -77 -48 -106q0 -39 74 -48v-10h-222v11q35 4 65 29q32 26 91 110q157 229 365 539q-28 15 -81 21v10h544l49 -166l-10 -5q-33 43 -49.5 62.5t-39.5 41t-45 32.5
q-44 21 -169 21q-36 0 -71 -5v-327q81 0 115 8q56 13 77.5 43.5t35.5 94.5h12v-315h-12q-23 88 -56 118t-91 33q-40 2 -81 2q0 -170 1 -214q2 -89 12 -103q17 -26 95 -26q53 0 99 6q62 8 109 51.5t89 129.5zM483 308v369h-5q-107 -152 -248 -369h253z" />
    <glyph glyph-name="Ccedilla" unicode="&#xc7;" horiz-adv-x="776" 
d="M727 489l-12 -1q-28 99 -102.5 164.5t-172.5 65.5q-131 0 -210 -108.5t-79 -252.5q0 -148 80.5 -246.5t210.5 -98.5q100 0 176 67t96 157h12l-3 -220h-12q-12 17 -25.5 31t-17.5 14q-1 0 -11 -6.5t-29 -15.5t-44 -18.5t-62 -17t-76 -8.5l-28 -40q45 -11 67.5 -38.5
t22.5 -55.5q0 -44 -38 -70t-74 -26q-84 0 -84 48q0 12 8 21.5t24 9.5q21 0 31 -12q0 -5 -0.5 -12t-0.5 -9q0 -33 27 -33q20 0 34 16t14 43q0 29 -22.5 50t-63.5 28l66 80q-184 1 -292.5 102.5t-108.5 264.5q0 109 59 202q48 76 132.5 123.5t206.5 47.5q45 0 86 -7t68 -17.5
t47 -21t31 -17.5t12 -7q4 0 19.5 16t26.5 32h11v-224z" />
    <glyph glyph-name="Egrave" unicode="&#xc8;" horiz-adv-x="711" 
d="M443 767l-11 -7l-176 143v5q14 26 51 26zM703 191l-50 -191h-612v10q57 9 82 38q16 20 18 108q2 74 2 207v195q0 105 -17 123q-14 14 -29 19.5t-47 9.5v10h552l68 -165l-10 -5q-81 100 -152 136q-42 20 -175 20q-56 0 -71 -5q-7 -37 -8 -72q-2 -62 -2 -253q93 0 127 8
q57 13 80 44t36 94h12v-315h-12q-22 83 -59 117q-34 31 -91 34q-40 2 -93 2q0 -172 1 -216q2 -83 15 -103q17 -26 117 -26q53 0 99 6q63 8 111 48t97 125z" />
    <glyph glyph-name="Eacute" unicode="&#xc9;" horiz-adv-x="711" 
d="M498 903l-176 -143l-11 7l136 167q37 0 51 -26v-5zM703 191l-50 -191h-612v10q57 9 82 38q16 20 18 108q2 74 2 207v195q0 105 -17 123q-14 14 -29 19.5t-47 9.5v10h552l68 -165l-10 -5q-81 100 -152 136q-42 20 -175 20q-56 0 -71 -5q-7 -37 -8 -72q-2 -62 -2 -253
q93 0 127 8q57 13 80 44t36 94h12v-315h-12q-22 83 -59 117q-34 31 -91 34q-40 2 -93 2q0 -172 1 -216q2 -83 15 -103q17 -26 117 -26q53 0 99 6q63 8 111 48t97 125z" />
    <glyph glyph-name="Ecircumflex" unicode="&#xca;" horiz-adv-x="711" 
d="M494 771l-13 -7l-101 104l-100 -104l-13 7l106 163h15zM703 191l-50 -191h-612v10q57 9 82 38q16 20 18 108q2 74 2 207v195q0 105 -17 123q-14 14 -29 19.5t-47 9.5v10h552l68 -165l-10 -5q-81 100 -152 136q-42 20 -175 20q-56 0 -71 -5q-7 -37 -8 -72q-2 -62 -2 -253
q93 0 127 8q57 13 80 44t36 94h12v-315h-12q-22 83 -59 117q-34 31 -91 34q-40 2 -93 2q0 -172 1 -216q2 -83 15 -103q17 -26 117 -26q53 0 99 6q63 8 111 48t97 125z" />
    <glyph glyph-name="Edieresis" unicode="&#xcb;" horiz-adv-x="711" 
d="M520 830q0 -19 -13.5 -32.5t-32.5 -13.5t-32.5 13.5t-13.5 32.5t13.5 32.5t32.5 13.5t32.5 -13.5t13.5 -32.5zM343 830q0 -19 -13.5 -32.5t-32.5 -13.5t-32.5 13.5t-13.5 32.5t13.5 32.5t32.5 13.5t32.5 -13.5t13.5 -32.5zM703 191l-50 -191h-612v10q57 9 82 38
q16 20 18 108q2 74 2 207v195q0 105 -17 123q-14 14 -29 19.5t-47 9.5v10h552l68 -165l-10 -5q-81 100 -152 136q-42 20 -175 20q-56 0 -71 -5q-7 -37 -8 -72q-2 -62 -2 -253q93 0 127 8q57 13 80 44t36 94h12v-315h-12q-22 83 -59 117q-34 31 -91 34q-40 2 -93 2
q0 -172 1 -216q2 -83 15 -103q17 -26 117 -26q53 0 99 6q63 8 111 48t97 125z" />
    <glyph glyph-name="Igrave" unicode="&#xcc;" horiz-adv-x="399" 
d="M256 767l-11 -7l-170 143v5q14 26 50 26zM349 0h-303v10q57 9 83 39q12 14 14 107q2 74 2 207v195q0 99 -15 117q-25 29 -81 35v10h299v-10q-64 -9 -82 -43q-4 -8 -6.5 -21t-3 -21t-1 -27.5t-0.5 -22.5q-1 -68 -1 -208v-226q0 -80 10 -94q11 -15 36 -25t49 -12v-10z" />
    <glyph glyph-name="Iacute" unicode="&#xcd;" horiz-adv-x="399" 
d="M322 903l-170 -143l-11 7l131 167q36 0 50 -26v-5zM349 0h-303v10q57 9 83 39q12 14 14 107q2 74 2 207v195q0 99 -15 117q-25 29 -81 35v10h299v-10q-64 -9 -82 -43q-4 -8 -6.5 -21t-3 -21t-1 -27.5t-0.5 -22.5q-1 -68 -1 -208v-226q0 -80 10 -94q11 -15 36 -25t49 -12
v-10z" />
    <glyph glyph-name="Icircumflex" unicode="&#xce;" horiz-adv-x="399" 
d="M306 771l-13 -7l-96 104l-95 -104l-13 7l101 163h15zM349 0h-303v10q57 9 83 39q12 14 14 107q2 74 2 207v195q0 99 -15 117q-25 29 -81 35v10h299v-10q-64 -9 -82 -43q-4 -8 -6.5 -21t-3 -21t-1 -27.5t-0.5 -22.5q-1 -68 -1 -208v-226q0 -80 10 -94q11 -15 36 -25
t49 -12v-10z" />
    <glyph glyph-name="Idieresis" unicode="&#xcf;" horiz-adv-x="399" 
d="M329 830q0 -19 -13.5 -32.5t-32.5 -13.5t-32.5 13.5t-13.5 32.5t13.5 32.5t32.5 13.5t32.5 -13.5t13.5 -32.5zM162 830q0 -19 -13.5 -32.5t-32.5 -13.5t-32.5 13.5t-13.5 32.5t13.5 32.5t32.5 13.5t32.5 -13.5t13.5 -32.5zM349 0h-303v10q57 9 83 39q12 14 14 107
q2 74 2 207v195q0 99 -15 117q-25 29 -81 35v10h299v-10q-64 -9 -82 -43q-4 -8 -6.5 -21t-3 -21t-1 -27.5t-0.5 -22.5q-1 -68 -1 -208v-226q0 -80 10 -94q11 -15 36 -25t49 -12v-10z" />
    <glyph glyph-name="Eth" unicode="&#xd0;" horiz-adv-x="852" 
d="M822 370q0 -87 -26 -154t-66.5 -107t-97.5 -65.5t-111.5 -34.5t-114.5 -9h-365v10q59 7 84 37q14 16 16 109q2 70 2 198l-114 -1v27l114 -1v179q0 99 -15 117q-23 28 -83 35v10h56t119.5 0.5t136.5 0.5q133 0 188 -11q40 -8 73 -23q204 -90 204 -317zM699 368
q0 117 -69 213.5t-171 114.5q-47 9 -103 9q-59 0 -97 -8q-7 -63 -7 -318l179 1v-27l-179 1q0 -156 1 -199q2 -89 22 -109q31 -31 108 -31q61 0 101 12q106 30 160.5 119t54.5 222z" />
    <glyph glyph-name="Ntilde" unicode="&#xd1;" horiz-adv-x="875" 
d="M638 898q-12 -49 -38.5 -78t-78.5 -29l-107 21q-44 0 -58 -6.5t-27 -41.5h-14q25 102 114 102l105 -21q43 0 62.5 9.5t26.5 43.5h15zM846 710q-72 -10 -94 -62q-9 -20 -13 -142q-5 -142 -5 -227q0 -38 0.5 -136t0.5 -137q0 -11 -10 -11q-8 0 -18 12q-103 118 -274 319.5
t-268 309.5v-422q0 -123 15 -153q20 -41 99 -51v-10h-246v10q64 8 86 44q21 32 24 160q4 114 4 227q0 133 -1 171q-3 28 -13.5 47t-27.5 29t-31.5 14.5t-33.5 7.5v10h203l474 -554v340q0 106 -10 134q-20 58 -109 70v10h248v-10z" />
    <glyph glyph-name="Ograve" unicode="&#xd2;" horiz-adv-x="808" 
d="M491 767l-11 -7l-176 143v5q14 26 51 26zM779 365q0 -158 -110.5 -265t-266.5 -107q-155 0 -264 104.5t-109 263.5q0 167 112 268t274 101q164 0 264 -107.5t100 -257.5zM655 364q0 85 -26.5 162.5t-85.5 132t-140 54.5q-63 0 -112 -31t-78.5 -82.5t-44.5 -113
t-15 -128.5q0 -145 66.5 -246.5t186.5 -101.5q79 0 137.5 54.5t85 133.5t26.5 166z" />
    <glyph glyph-name="Oacute" unicode="&#xd3;" horiz-adv-x="808" 
d="M514 903l-176 -143l-11 7l136 167q37 0 51 -26v-5zM779 365q0 -158 -110.5 -265t-266.5 -107q-155 0 -264 104.5t-109 263.5q0 167 112 268t274 101q164 0 264 -107.5t100 -257.5zM655 364q0 85 -26.5 162.5t-85.5 132t-140 54.5q-63 0 -112 -31t-78.5 -82.5t-44.5 -113
t-15 -128.5q0 -145 66.5 -246.5t186.5 -101.5q79 0 137.5 54.5t85 133.5t26.5 166z" />
    <glyph glyph-name="Ocircumflex" unicode="&#xd4;" horiz-adv-x="808" 
d="M518 771l-13 -7l-101 104l-100 -104l-13 7l106 163h15zM779 365q0 -158 -110.5 -265t-266.5 -107q-155 0 -264 104.5t-109 263.5q0 167 112 268t274 101q164 0 264 -107.5t100 -257.5zM655 364q0 85 -26.5 162.5t-85.5 132t-140 54.5q-63 0 -112 -31t-78.5 -82.5
t-44.5 -113t-15 -128.5q0 -145 66.5 -246.5t186.5 -101.5q79 0 137.5 54.5t85 133.5t26.5 166z" />
    <glyph glyph-name="Otilde" unicode="&#xd5;" horiz-adv-x="808" 
d="M570 898q-12 -49 -38.5 -78t-78.5 -29l-107 21q-44 0 -58 -6.5t-27 -41.5h-14q25 102 114 102l105 -21q43 0 62.5 9.5t26.5 43.5h15zM779 365q0 -158 -110.5 -265t-266.5 -107q-155 0 -264 104.5t-109 263.5q0 167 112 268t274 101q164 0 264 -107.5t100 -257.5zM655 364
q0 85 -26.5 162.5t-85.5 132t-140 54.5q-63 0 -112 -31t-78.5 -82.5t-44.5 -113t-15 -128.5q0 -145 66.5 -246.5t186.5 -101.5q79 0 137.5 54.5t85 133.5t26.5 166z" />
    <glyph glyph-name="Odieresis" unicode="&#xd6;" horiz-adv-x="808" 
d="M542 830q0 -19 -13.5 -32.5t-32.5 -13.5t-32.5 13.5t-13.5 32.5t13.5 32.5t32.5 13.5t32.5 -13.5t13.5 -32.5zM365 830q0 -19 -13.5 -32.5t-32.5 -13.5t-32.5 13.5t-13.5 32.5t13.5 32.5t32.5 13.5t32.5 -13.5t13.5 -32.5zM779 365q0 -158 -110.5 -265t-266.5 -107
q-155 0 -264 104.5t-109 263.5q0 167 112 268t274 101q164 0 264 -107.5t100 -257.5zM655 364q0 85 -26.5 162.5t-85.5 132t-140 54.5q-63 0 -112 -31t-78.5 -82.5t-44.5 -113t-15 -128.5q0 -145 66.5 -246.5t186.5 -101.5q79 0 137.5 54.5t85 133.5t26.5 166z" />
    <glyph glyph-name="multiply" unicode="&#xd7;" horiz-adv-x="700" 
d="M544 94l-27 -28l-166 168l-167 -168l-28 28l168 167l-168 166l28 27l166 -168l166 168l28 -28l-168 -166z" />
    <glyph glyph-name="Oslash" unicode="&#xd8;" horiz-adv-x="808" 
d="M779 365q0 -158 -110.5 -265t-266.5 -107q-113 0 -206 59l-61 -88l-19 13l64 86q-70 50 -110.5 127t-40.5 171q0 167 112 268t274 101q114 0 199 -55l53 76l19 -13l-55 -74q71 -51 109.5 -130t38.5 -169zM577 622q-65 91 -174 91q-63 0 -112 -31t-78.5 -82.5t-44.5 -113
t-15 -128.5q0 -150 63 -245zM655 364q0 143 -65 242l-361 -508q66 -88 177 -88q79 0 137.5 54.5t85 133.5t26.5 166z" />
    <glyph glyph-name="Ugrave" unicode="&#xd9;" horiz-adv-x="834" 
d="M496 767l-11 -7l-176 143v5q14 26 51 26zM824 710q-70 -10 -92 -62q-12 -27 -14 -151q0 -28 -2.5 -99.5t-3.5 -116.5q-3 -104 -30 -161q-64 -132 -262 -132q-59 0 -106.5 12.5t-77 30.5t-51 45.5t-32 50t-16 51.5t-6.5 43t-1 31q0 14 0.5 73t0.5 100v133q0 99 -15 117
q-25 29 -81 35v10h298v-10q-89 -12 -91 -80q-2 -53 -2 -172q0 -138 1 -202q2 -108 58 -171t155 -63q47 0 84.5 10.5t62 26t42.5 41.5t27.5 49.5t15 58.5t6.5 59t2 60q1 12 0 91v79q0 112 -11 143q-20 58 -107 70v10h248v-10z" />
    <glyph glyph-name="Uacute" unicode="&#xda;" horiz-adv-x="834" 
d="M575 903l-176 -143l-11 7l136 167q37 0 51 -26v-5zM824 710q-70 -10 -92 -62q-12 -27 -14 -151q0 -28 -2.5 -99.5t-3.5 -116.5q-3 -104 -30 -161q-64 -132 -262 -132q-59 0 -106.5 12.5t-77 30.5t-51 45.5t-32 50t-16 51.5t-6.5 43t-1 31q0 14 0.5 73t0.5 100v133
q0 99 -15 117q-25 29 -81 35v10h298v-10q-89 -12 -91 -80q-2 -65 -2 -172q0 -138 1 -202q2 -108 58 -171t155 -63q47 0 84.5 10.5t62 26t42.5 41.5t27.5 49.5t15 58.5t6.5 59t2 60q1 12 0 91v79q0 112 -11 143q-20 58 -107 70v10h248v-10z" />
    <glyph glyph-name="Ucircumflex" unicode="&#xdb;" horiz-adv-x="834" 
d="M564 771l-13 -7l-101 104l-100 -104l-13 7l106 163h15zM824 710q-70 -10 -92 -62q-12 -27 -14 -151q0 -28 -2.5 -99.5t-3.5 -116.5q-3 -104 -30 -161q-64 -132 -262 -132q-59 0 -106.5 12.5t-77 30.5t-51 45.5t-32 50t-16 51.5t-6.5 43t-1 31q0 14 0.5 73t0.5 100v133
q0 99 -15 117q-25 29 -81 35v10h298v-10q-89 -12 -91 -80q-2 -55 -2 -172q0 -138 1 -202q2 -108 58 -171t155 -63q47 0 84.5 10.5t62 26t42.5 41.5t27.5 49.5t15 58.5t6.5 59t2 60q1 12 0 91v79q0 112 -11 143q-20 58 -107 70v10h248v-10z" />
    <glyph glyph-name="Udieresis" unicode="&#xdc;" horiz-adv-x="834" 
d="M585 830q0 -19 -13.5 -32.5t-32.5 -13.5t-32.5 13.5t-13.5 32.5t13.5 32.5t32.5 13.5t32.5 -13.5t13.5 -32.5zM408 830q0 -19 -13.5 -32.5t-32.5 -13.5t-32.5 13.5t-13.5 32.5t13.5 32.5t32.5 13.5t32.5 -13.5t13.5 -32.5zM824 710q-70 -10 -92 -62q-12 -27 -14 -151
q0 -28 -2.5 -99.5t-3.5 -116.5q-3 -104 -30 -161q-64 -132 -262 -132q-59 0 -106.5 12.5t-77 30.5t-51 45.5t-32 50t-16 51.5t-6.5 43t-1 31q0 14 0.5 73t0.5 100v133q0 99 -15 117q-25 29 -81 35v10h298v-10q-89 -12 -91 -80q-2 -75 -2 -172q0 -138 1 -202q2 -108 58 -171
t155 -63q47 0 84.5 10.5t62 26t42.5 41.5t27.5 49.5t15 58.5t6.5 59t2 60q1 12 0 91v79q0 112 -11 143q-20 58 -107 70v10h248v-10z" />
    <glyph glyph-name="Yacute" unicode="&#xdd;" horiz-adv-x="649" 
d="M476 903l-176 -143l-11 7l136 167q37 0 51 -26v-5zM682 710q-27 -4 -47 -13t-39 -29t-30 -35.5t-35 -50.5q-14 -21 -75.5 -115.5t-78.5 -120.5v-201q0 -80 11 -95q20 -29 85 -40v-10h-308v10q21 2 32 4.5t26 11.5t29 25q12 13 14 109q2 74 2 160q-106 174 -160 258
q-25 39 -36 54.5t-29 37.5t-34 30.5t-36 9.5v10h305v-10q-21 -2 -31 -3.5t-26 -6t-23 -12.5t-7 -20q0 -16 45 -93q3 -6 130 -213q67 99 134 211q36 60 36 86q0 7 -1.5 12.5t-5 10t-7 8t-10 6t-10.5 4.5t-12.5 3.5t-12.5 2.5t-13.5 2.5t-12.5 1.5v10h231v-10z" />
    <glyph glyph-name="Thorn" unicode="&#xde;" horiz-adv-x="656" 
d="M633 383q0 -69 -41 -120t-101 -72q-69 -25 -239 -25q0 -94 13 -115q25 -38 98 -41v-10h-322v10q63 9 84 36q14 17 16 110q2 74 2 207v195q0 103 -17 121q-20 21 -89 31v10h315v-10q-65 -7 -85 -32q-15 -18 -15 -89q18 0 38.5 0.5t27.5 0.5q144 0 213 -36
q102 -54 102 -171zM522 384q0 57 -28 102.5t-76 68.5q-41 19 -111 19q-27 0 -54 -3q-1 -37 -1 -391q94 0 141 16q62 21 95.5 72t33.5 116z" />
    <glyph glyph-name="germandbls" unicode="&#xdf;" horiz-adv-x="536" 
d="M527 138q0 -62 -46 -101.5t-122 -39.5q-67 0 -110 24v118h9q18 -54 51 -90.5t74 -36.5q36 0 56 26t20 64q0 49 -32 75q-13 11 -45.5 34.5t-50.5 38.5q-68 56 -68 112q0 27 11 45t36 41q8 7 23.5 20t20 18.5t12.5 19.5t10 34t2 50q0 51 -26.5 82.5t-73.5 36.5
q-8 0 -16.5 -1.5t-24.5 -8.5t-28 -20t-22.5 -39t-13.5 -61q-5 -67 -5 -106v-434q0 -22 56 -29v-10h-215v10q76 7 76 32v387h-72v11l73 41q0 82 14 116q24 58 79 94.5t118 36.5q42 0 72.5 -12t44.5 -32t20 -38.5t6 -37.5q0 -33 -10.5 -57.5t-26 -39.5t-31 -29t-26 -33.5
t-10.5 -44.5q0 -43 46 -83q15 -12 38.5 -29.5t36.5 -27.5q37 -29 53.5 -55.5t16.5 -70.5z" />
    <glyph glyph-name="agrave" unicode="&#xe0;" horiz-adv-x="448" 
d="M285 520l-10 -6l-137 153v5q17 24 46 24zM465 98q0 -40 -29 -70.5t-70 -30.5q-37 0 -62 22.5t-25 69.5l-2 1q-21 -35 -58.5 -63t-85.5 -28q-37 0 -65 23.5t-28 71.5q0 51 78 101q53 34 106.5 63t54.5 30v103q0 5 -5.5 14.5t-25 20.5t-47.5 11q-30 0 -57.5 -18.5
t-27.5 -32.5v-45q0 -13 -14.5 -24.5t-31.5 -11.5q-16 0 -27.5 11.5t-11.5 26.5q0 5 1 9.5t2.5 8.5t5 8.5t5.5 7t7 6.5l7.5 6t8 5.5t7.5 4.5t8 5t7 4q53 31 105.5 53t77.5 22q26 0 49 -13.5t33 -33.5q6 -11 6 -59t-1 -121t-1 -118q0 -74 51 -74q40 0 49 34h6zM279 118v154
q-9 -7 -58 -34t-75.5 -52.5t-26.5 -56.5q0 -27 18.5 -47.5t46.5 -20.5q54 0 83 29q12 11 12 28z" />
    <glyph glyph-name="aacute" unicode="&#xe1;" horiz-adv-x="448" 
d="M328 667l-140 -153l-10 6l104 176q29 0 46 -24v-5zM465 98q0 -40 -29 -70.5t-70 -30.5q-37 0 -62 22.5t-25 69.5l-2 1q-21 -35 -58.5 -63t-85.5 -28q-37 0 -65 23.5t-28 71.5q0 51 78 101q53 34 106.5 63t54.5 30v103q0 5 -5.5 14.5t-25 20.5t-47.5 11q-30 0 -57.5 -18.5
t-27.5 -32.5v-45q0 -13 -14.5 -24.5t-31.5 -11.5q-16 0 -27.5 11.5t-11.5 26.5q0 5 1 9.5t2.5 8.5t5 8.5t5.5 7t7 6.5l7.5 6t8 5.5t7.5 4.5t8 5t7 4q53 31 105.5 53t77.5 22q26 0 49 -13.5t33 -33.5q6 -11 6 -59t-1 -121t-1 -118q0 -74 51 -74q40 0 49 34h6zM279 118v154
q-9 -7 -58 -34t-75.5 -52.5t-26.5 -56.5q0 -27 18.5 -47.5t46.5 -20.5q54 0 83 29q12 11 12 28z" />
    <glyph glyph-name="acircumflex" unicode="&#xe2;" horiz-adv-x="448" 
d="M317 528l-12 -7l-91 111l-90 -111l-12 7l95 170h15zM465 98q0 -40 -29 -70.5t-70 -30.5q-37 0 -62 22.5t-25 69.5l-2 1q-21 -35 -58.5 -63t-85.5 -28q-37 0 -65 23.5t-28 71.5q0 51 78 101q53 34 106.5 63t54.5 30v103q0 5 -5.5 14.5t-25 20.5t-47.5 11
q-30 0 -57.5 -18.5t-27.5 -32.5v-45q0 -13 -14.5 -24.5t-31.5 -11.5q-16 0 -27.5 11.5t-11.5 26.5q0 5 1 9.5t2.5 8.5t5 8.5t5.5 7t7 6.5l7.5 6t8 5.5t7.5 4.5t8 5t7 4q53 31 105.5 53t77.5 22q26 0 49 -13.5t33 -33.5q6 -11 6 -59t-1 -121t-1 -118q0 -74 51 -74q40 0 49 34
h6zM279 118v154q-9 -7 -58 -34t-75.5 -52.5t-26.5 -56.5q0 -27 18.5 -47.5t46.5 -20.5q54 0 83 29q12 11 12 28z" />
    <glyph glyph-name="atilde" unicode="&#xe3;" horiz-adv-x="448" 
d="M364 665q-12 -48 -37 -75.5t-76 -27.5l-87 19q-31 0 -42 -1.5t-21 -11t-19 -33.5h-13q24 98 110 98l85 -19q41 0 60 9.5t26 41.5h14zM465 98q0 -40 -29 -70.5t-70 -30.5q-37 0 -62 22.5t-25 69.5l-2 1q-21 -35 -58.5 -63t-85.5 -28q-37 0 -65 23.5t-28 71.5q0 51 78 101
q53 34 106.5 63t54.5 30v103q0 5 -5.5 14.5t-25 20.5t-47.5 11q-30 0 -57.5 -18.5t-27.5 -32.5v-45q0 -13 -14.5 -24.5t-31.5 -11.5q-16 0 -27.5 11.5t-11.5 26.5q0 5 1 9.5t2.5 8.5t5 8.5t5.5 7t7 6.5l7.5 6t8 5.5t7.5 4.5t8 5t7 4q53 31 105.5 53t77.5 22q26 0 49 -13.5
t33 -33.5q6 -11 6 -59t-1 -121t-1 -118q0 -74 51 -74q40 0 49 34h6zM279 118v154q-9 -7 -58 -34t-75.5 -52.5t-26.5 -56.5q0 -27 18.5 -47.5t46.5 -20.5q54 0 83 29q12 11 12 28z" />
    <glyph glyph-name="adieresis" unicode="&#xe4;" horiz-adv-x="448" 
d="M348 600q0 -19 -13.5 -32.5t-32.5 -13.5t-32.5 13.5t-13.5 32.5t13.5 32.5t32.5 13.5t32.5 -13.5t13.5 -32.5zM191 600q0 -19 -13.5 -32.5t-32.5 -13.5t-32.5 13.5t-13.5 32.5t13.5 32.5t32.5 13.5t32.5 -13.5t13.5 -32.5zM465 98q0 -40 -29 -70.5t-70 -30.5
q-37 0 -62 22.5t-25 69.5l-2 1q-21 -35 -58.5 -63t-85.5 -28q-37 0 -65 23.5t-28 71.5q0 51 78 101q53 34 106.5 63t54.5 30v103q0 5 -5.5 14.5t-25 20.5t-47.5 11q-30 0 -57.5 -18.5t-27.5 -32.5v-45q0 -13 -14.5 -24.5t-31.5 -11.5q-16 0 -27.5 11.5t-11.5 26.5q0 5 1 9.5
t2.5 8.5t5 8.5t5.5 7t7 6.5l7.5 6t8 5.5t7.5 4.5t8 5t7 4q53 31 105.5 53t77.5 22q26 0 49 -13.5t33 -33.5q6 -11 6 -59t-1 -121t-1 -118q0 -74 51 -74q40 0 49 34h6zM279 118v154q-9 -7 -58 -34t-75.5 -52.5t-26.5 -56.5q0 -27 18.5 -47.5t46.5 -20.5q54 0 83 29
q12 11 12 28z" />
    <glyph glyph-name="aring" unicode="&#xe5;" horiz-adv-x="448" 
d="M305 592q0 -31 -21 -51.5t-53 -20.5q-33 0 -53.5 20t-20.5 52q0 31 21.5 51.5t52.5 20.5q32 0 53 -20.5t21 -51.5zM465 98q0 -40 -29 -70.5t-70 -30.5q-37 0 -62 22.5t-25 69.5l-2 1q-21 -35 -58.5 -63t-85.5 -28q-37 0 -65 23.5t-28 71.5q0 51 78 101q53 34 106.5 63
t54.5 30v103q0 5 -5.5 14.5t-25 20.5t-47.5 11q-30 0 -57.5 -18.5t-27.5 -32.5v-45q0 -13 -14.5 -24.5t-31.5 -11.5q-16 0 -27.5 11.5t-11.5 26.5q0 5 1 9.5t2.5 8.5t5 8.5t5.5 7t7 6.5l7.5 6t8 5.5t7.5 4.5t8 5t7 4q53 31 105.5 53t77.5 22q26 0 49 -13.5t33 -33.5
q6 -11 6 -59t-1 -121t-1 -118q0 -74 51 -74q40 0 49 34h6zM278 592q0 22 -13 37t-34 15t-34 -14.5t-13 -37.5q0 -22 13 -37t34 -15t34 15t13 37zM279 118v154q-9 -7 -58 -34t-75.5 -52.5t-26.5 -56.5q0 -27 18.5 -47.5t46.5 -20.5q54 0 83 29q12 11 12 28z" />
    <glyph glyph-name="ae" unicode="&#xe6;" horiz-adv-x="687" 
d="M684 153q-9 -54 -61 -105t-127 -51q-64 0 -115.5 34t-75.5 86q-33 -50 -79.5 -85t-96.5 -35q-36 0 -63.5 24t-27.5 72q0 52 77 102q35 22 95 54.5t68 37.5v104q0 5 -5.5 14.5t-25 20.5t-47.5 11q-30 0 -57 -18t-27 -33v-45q0 -13 -14.5 -24.5t-31.5 -11.5
q-16 0 -27.5 11.5t-11.5 26.5q0 5 1 9.5t2.5 8.5t5 8.5t5.5 7t7 6.5l7.5 6t8 5.5t7.5 4.5t8 5t7 4q53 32 105 53.5t77 21.5q27 0 50.5 -14.5t32.5 -36.5q56 51 129 51q86 0 136.5 -43t53.5 -122h-315q0 -4 -0.5 -18.5t-0.5 -23.5q0 -94 47.5 -152t133.5 -58q48 0 86.5 25.5
t50.5 63.5zM576 376q0 38 -25 64t-66 26q-54 0 -89 -46.5t-36 -85.5h151q35 0 51 6q14 16 14 36zM278 103v168q-10 -7 -59 -34t-76 -53t-27 -56q0 -27 18.5 -48t46.5 -21q66 0 97 44z" />
    <glyph glyph-name="ccedilla" unicode="&#xe7;" horiz-adv-x="432" 
d="M441 143q-11 -36 -42.5 -72t-66.5 -60l-76 -57q74 -28 74 -88q0 -42 -35.5 -66t-69.5 -24q-76 0 -76 45q0 11 8 20t23 9q20 0 29 -11q0 -4 -0.5 -11t-0.5 -9q0 -31 22 -31q19 0 31.5 14.5t12.5 40.5q0 56 -73 80l96 80q-22 -7 -56 -7q-95 0 -158 71t-63 175q0 97 65 169
t161 72q71 0 124.5 -32.5t53.5 -86.5q0 -21 -15.5 -36.5t-36.5 -15.5q-17 0 -30.5 10t-17.5 25q5 14 5 34q0 39 -20.5 62.5t-60.5 23.5q-61 0 -102 -58t-41 -141q0 -91 46.5 -147.5t123.5 -56.5q60 0 96.5 20.5t61.5 62.5z" />
    <glyph glyph-name="egrave" unicode="&#xe8;" horiz-adv-x="435" 
d="M283 520l-10 -6l-137 153v5q17 24 46 24zM433 152q-9 -54 -61 -104.5t-127 -50.5q-100 0 -163 73.5t-63 180.5q0 90 60 161t152 71q82 0 135 -42t59 -123h-321q0 -4 -1 -18t-1 -22q0 -90 49 -151t137 -61q49 0 87 25t50 63zM326 376q0 38 -26 64t-68 26q-49 0 -85.5 -49
t-40.5 -85q31 0 155 2q35 0 51 6q14 16 14 36z" />
    <glyph glyph-name="eacute" unicode="&#xe9;" horiz-adv-x="435" 
d="M340 667l-140 -153l-10 6l104 176q29 0 46 -24v-5zM433 152q-9 -54 -61 -104.5t-127 -50.5q-100 0 -163 73.5t-63 180.5q0 90 60 161t152 71q82 0 135 -42t59 -123h-321q0 -4 -1 -18t-1 -22q0 -90 49 -151t137 -61q49 0 87 25t50 63zM326 376q0 38 -26 64t-68 26
q-49 0 -85.5 -49t-40.5 -85q31 0 155 2q35 0 51 6q14 16 14 36z" />
    <glyph glyph-name="ecircumflex" unicode="&#xea;" horiz-adv-x="435" 
d="M342 528l-12 -7l-91 111l-90 -111l-12 7l95 170h15zM433 152q-9 -54 -61 -104.5t-127 -50.5q-100 0 -163 73.5t-63 180.5q0 90 60 161t152 71q82 0 135 -42t59 -123h-321q0 -4 -1 -18t-1 -22q0 -90 49 -151t137 -61q49 0 87 25t50 63zM326 376q0 38 -26 64t-68 26
q-49 0 -85.5 -49t-40.5 -85q31 0 155 2q35 0 51 6q14 16 14 36z" />
    <glyph glyph-name="edieresis" unicode="&#xeb;" horiz-adv-x="435" 
d="M356 600q0 -19 -13.5 -32.5t-32.5 -13.5t-32.5 13.5t-13.5 32.5t13.5 32.5t32.5 13.5t32.5 -13.5t13.5 -32.5zM198 600q0 -19 -13.5 -32.5t-32.5 -13.5t-32.5 13.5t-13.5 32.5t13.5 32.5t32.5 13.5t32.5 -13.5t13.5 -32.5zM433 152q-9 -54 -61 -104.5t-127 -50.5
q-100 0 -163 73.5t-63 180.5q0 90 60 161t152 71q82 0 135 -42t59 -123h-321q0 -4 -1 -18t-1 -22q0 -90 49 -151t137 -61q49 0 87 25t50 63zM326 376q0 38 -26 64t-68 26q-49 0 -85.5 -49t-40.5 -85q31 0 155 2q35 0 51 6q14 16 14 36z" />
    <glyph glyph-name="igrave" unicode="&#xec;" horiz-adv-x="254" 
d="M171 520l-10 -6l-137 153v5q17 24 46 24zM233 0h-215v10q21 2 32.5 4t23.5 9t12 19v347q0 16 -10 21q-25 13 -48 22v7l135 44h6v-447q2 -9 9.5 -14.5t13.5 -7t21 -2.5t20 -2v-10z" />
    <glyph glyph-name="iacute" unicode="&#xed;" horiz-adv-x="254" 
d="M207 667l-140 -153l-10 6l104 176q29 0 46 -24v-5zM233 0h-215v10q21 2 32.5 4t23.5 9t12 19v347q0 16 -10 21q-25 13 -48 22v7l135 44h6v-447q2 -9 9.5 -14.5t13.5 -7t21 -2.5t20 -2v-10z" />
    <glyph glyph-name="icircumflex" unicode="&#xee;" horiz-adv-x="254" 
d="M218 527l-12 -7l-85 113l-86 -112l-12 7l91 170h15zM233 0h-215v10q21 2 32.5 4t23.5 9t12 19v347q0 16 -10 21q-25 13 -48 22v7l135 44h6v-447q2 -9 9.5 -14.5t13.5 -7t21 -2.5t20 -2v-10z" />
    <glyph glyph-name="idieresis" unicode="&#xef;" horiz-adv-x="254" 
d="M237 600q0 -19 -13.5 -32.5t-32.5 -13.5t-32.5 13.5t-13.5 32.5t13.5 32.5t32.5 13.5t32.5 -13.5t13.5 -32.5zM95 600q0 -19 -13.5 -32.5t-32.5 -13.5t-32.5 13.5t-13.5 32.5t13.5 32.5t32.5 13.5t32.5 -13.5t13.5 -32.5zM233 0h-215v10q21 2 32.5 4t23.5 9t12 19v347
q0 16 -10 21q-25 13 -48 22v7l135 44h6v-447q2 -9 9.5 -14.5t13.5 -7t21 -2.5t20 -2v-10z" />
    <glyph glyph-name="eth" unicode="&#xf0;" horiz-adv-x="502" 
d="M482 277q0 -122 -66.5 -202t-164.5 -80q-102 0 -167 71.5t-65 172.5q0 93 62.5 156.5t160.5 63.5q53 0 103 -16q-12 42 -43.5 90t-62.5 76l-115 -79l-15 21l114 73q-63 60 -139 89l4 14q83 -15 177 -74l97 68l17 -20l-93 -62q89 -67 142.5 -161.5t53.5 -200.5zM392 233
q0 123 -41 177q-8 10 -35 19t-50 9q-77 0 -116 -68t-39 -160q0 -93 38 -146t100 -53q69 0 106 57.5t37 164.5z" />
    <glyph glyph-name="ntilde" unicode="&#xf1;" horiz-adv-x="522" 
d="M422 665q-12 -48 -37 -75.5t-76 -27.5l-91 19q-31 0 -42 -1.5t-21 -11t-19 -33.5h-13q24 98 110 98l89 -19q41 0 60 9.5t26 41.5h14zM512 0h-204v11q31 2 45 7t14 20v252q0 129 -96 129q-31 0 -52.5 -12.5t-51.5 -42.5v-328q1 -8 4 -12.5t8.5 -7t9.5 -3t13.5 -1.5
t14.5 -2v-10h-189v10q56 5 56 32v344q0 14 -10 21q-23 13 -45 23v6l131 47h6v-108l2 -1q26 42 70 75.5t93 33.5q57 0 88.5 -42.5t31.5 -111.5v-294q0 -18 55 -25q4 -1 6 -1v-9z" />
    <glyph glyph-name="ograve" unicode="&#xf2;" horiz-adv-x="511" 
d="M311 520l-10 -6l-137 153v5q17 24 46 24zM492 245q0 -102 -69.5 -176t-164.5 -74q-41 0 -81.5 15.5t-76.5 44.5t-58.5 78.5t-22.5 111.5q0 95 68 166.5t173 71.5q89 0 160.5 -63.5t71.5 -174.5zM399 246q0 51 -12.5 98.5t-47.5 85t-86 37.5q-63 0 -102 -69.5t-39 -158.5
q0 -99 36.5 -163.5t110.5 -64.5q48 0 81.5 40.5t46 91.5t12.5 103z" />
    <glyph glyph-name="oacute" unicode="&#xf3;" horiz-adv-x="511" 
d="M352 667l-140 -153l-10 6l104 176q29 0 46 -24v-5zM492 245q0 -102 -69.5 -176t-164.5 -74q-41 0 -81.5 15.5t-76.5 44.5t-58.5 78.5t-22.5 111.5q0 95 68 166.5t173 71.5q89 0 160.5 -63.5t71.5 -174.5zM399 246q0 51 -12.5 98.5t-47.5 85t-86 37.5q-63 0 -102 -69.5
t-39 -158.5q0 -99 36.5 -163.5t110.5 -64.5q48 0 81.5 40.5t46 91.5t12.5 103z" />
    <glyph glyph-name="ocircumflex" unicode="&#xf4;" horiz-adv-x="511" 
d="M359 528l-12 -7l-91 111l-90 -111l-12 7l95 170h15zM492 245q0 -102 -69.5 -176t-164.5 -74q-41 0 -81.5 15.5t-76.5 44.5t-58.5 78.5t-22.5 111.5q0 95 68 166.5t173 71.5q89 0 160.5 -63.5t71.5 -174.5zM399 246q0 51 -12.5 98.5t-47.5 85t-86 37.5q-63 0 -102 -69.5
t-39 -158.5q0 -99 36.5 -163.5t110.5 -64.5q48 0 81.5 40.5t46 91.5t12.5 103z" />
    <glyph glyph-name="otilde" unicode="&#xf5;" horiz-adv-x="511" 
d="M404 665q-12 -48 -37 -75.5t-76 -27.5l-91 19q-31 0 -42 -1.5t-21 -11t-19 -33.5h-13q24 98 110 98l89 -19q41 0 60 9.5t26 41.5h14zM492 245q0 -102 -69.5 -176t-164.5 -74q-41 0 -81.5 15.5t-76.5 44.5t-58.5 78.5t-22.5 111.5q0 95 68 166.5t173 71.5
q89 0 160.5 -63.5t71.5 -174.5zM399 246q0 51 -12.5 98.5t-47.5 85t-86 37.5q-63 0 -102 -69.5t-39 -158.5q0 -99 36.5 -163.5t110.5 -64.5q48 0 81.5 40.5t46 91.5t12.5 103z" />
    <glyph glyph-name="odieresis" unicode="&#xf6;" horiz-adv-x="511" 
d="M386 600q0 -19 -13.5 -32.5t-32.5 -13.5t-32.5 13.5t-13.5 32.5t13.5 32.5t32.5 13.5t32.5 -13.5t13.5 -32.5zM219 600q0 -19 -13.5 -32.5t-32.5 -13.5t-32.5 13.5t-13.5 32.5t13.5 32.5t32.5 13.5t32.5 -13.5t13.5 -32.5zM492 245q0 -102 -69.5 -176t-164.5 -74
q-41 0 -81.5 15.5t-76.5 44.5t-58.5 78.5t-22.5 111.5q0 95 68 166.5t173 71.5q89 0 160.5 -63.5t71.5 -174.5zM399 246q0 51 -12.5 98.5t-47.5 85t-86 37.5q-63 0 -102 -69.5t-39 -158.5q0 -99 36.5 -163.5t110.5 -64.5q48 0 81.5 40.5t46 91.5t12.5 103z" />
    <glyph glyph-name="divide" unicode="&#xf7;" horiz-adv-x="700" 
d="M403 411q0 -24 -14.5 -40.5t-37.5 -16.5q-24 0 -39 15.5t-15 39.5q0 23 15 38t39 15q23 0 37.5 -14t14.5 -37zM575 241h-450v40h450v-40zM403 110q0 -23 -14.5 -37t-37.5 -14q-24 0 -39 15t-15 38q0 24 15 39.5t39 15.5q23 0 37.5 -16.5t14.5 -40.5z" />
    <glyph glyph-name="oslash" unicode="&#xf8;" horiz-adv-x="511" 
d="M492 245q0 -102 -69.5 -176t-164.5 -74q-75 0 -139 45l-64 -93l-15 11l67 91q-88 72 -88 196q0 95 68 166.5t173 71.5q71 0 132 -41l57 82l15 -10l-59 -81q87 -68 87 -188zM360 403q-40 64 -107 64q-63 0 -102.5 -69.5t-39.5 -158.5q0 -86 29 -149zM400 246q0 77 -31 142
l-221 -313q39 -64 111 -64q48 0 81.5 40.5t46.5 91.5t13 103z" />
    <glyph glyph-name="ugrave" unicode="&#xf9;" horiz-adv-x="523" 
d="M295 520l-10 -6l-137 153v5q17 24 46 24zM506 25l-142 -28h-7v103l-1 1q-27 -42 -68.5 -74t-91.5 -32q-125 0 -125 151v244q0 39 -5 49q-3 7 -8 11t-13.5 6.5t-13 3t-17 1.5t-14.5 1v11h155v-291q0 -68 21 -98.5t74 -30.5q37 0 60 16t47 46v285q0 35 -10 49q-16 7 -75 13
v11h168v-395q0 -14 10 -21q10 -6 56 -26v-6z" />
    <glyph glyph-name="uacute" unicode="&#xfa;" horiz-adv-x="523" 
d="M360 667l-140 -153l-10 6l104 176q29 0 46 -24v-5zM506 25l-142 -28h-7v103l-1 1q-27 -42 -68.5 -74t-91.5 -32q-125 0 -125 151v244q0 39 -5 49q-3 7 -8 11t-13.5 6.5t-13 3t-17 1.5t-14.5 1v11h155v-291q0 -68 21 -98.5t74 -30.5q37 0 60 16t47 46v285q0 35 -10 49
q-16 7 -75 13v11h168v-395q0 -15 10 -21q8 -5 56 -26v-6z" />
    <glyph glyph-name="ucircumflex" unicode="&#xfb;" horiz-adv-x="523" 
d="M358 528l-12 -7l-91 111l-90 -111l-12 7l95 170h15zM506 25l-142 -28h-7v103l-1 1q-27 -42 -68.5 -74t-91.5 -32q-125 0 -125 151v244q0 39 -5 49q-3 7 -8 11t-13.5 6.5t-13 3t-17 1.5t-14.5 1v11h155v-291q0 -68 21 -98.5t74 -30.5q37 0 60 16t47 46v285q0 35 -10 49
q-16 7 -75 13v11h168v-395q0 -14 10 -21q10 -6 56 -26v-6z" />
    <glyph glyph-name="udieresis" unicode="&#xfc;" horiz-adv-x="523" 
d="M379 600q0 -19 -13.5 -32.5t-32.5 -13.5t-32.5 13.5t-13.5 32.5t13.5 32.5t32.5 13.5t32.5 -13.5t13.5 -32.5zM212 600q0 -19 -13.5 -32.5t-32.5 -13.5t-32.5 13.5t-13.5 32.5t13.5 32.5t32.5 13.5t32.5 -13.5t13.5 -32.5zM506 25l-142 -28h-7v103l-1 1
q-27 -42 -68.5 -74t-91.5 -32q-125 0 -125 151v244q0 39 -5 49q-3 7 -8 11t-13.5 6.5t-13 3t-17 1.5t-14.5 1v11h155v-291q0 -68 21 -98.5t74 -30.5q37 0 60 16t47 46v285q0 35 -10 49q-16 7 -75 13v11h168v-395q0 -14 10 -21q10 -6 56 -26v-6z" />
    <glyph glyph-name="yacute" unicode="&#xfd;" horiz-adv-x="416" 
d="M336 667l-140 -153l-10 6l104 176q29 0 46 -24v-5zM443 462q-23 -1 -33 -2.5t-24 -11.5t-20 -30q-75 -237 -184 -588q-23 -72 -79 -72q-21 0 -37.5 13t-16.5 32q0 20 12.5 33t31.5 13q6 0 12.5 -2t10.5 -3.5t10.5 -7t9 -7t10 -9l8.5 -8.5h2q29 76 50 158q-3 8 -32 86.5
t-73 198.5t-67 183q-20 22 -70 24v11h220v-11q-19 -3 -27 -5t-16.5 -8.5t-8.5 -18.5q0 -15 115 -330q98 314 98 333q0 12 -10 18.5t-19 8t-27 2.5v11h154v-11z" />
    <glyph glyph-name="thorn" unicode="&#xfe;" horiz-adv-x="526" 
d="M506 264q0 -114 -76 -187t-204 -73q-34 0 -72 9q2 -84 2 -207q3 -20 73 -26q3 0 5 -0.5t4 -0.5v-11h-248v11q82 8 82 34v813l-63 33v6l139 61h8l-3 -355l2 -1q28 48 71 80.5t96 32.5q87 0 135.5 -66t48.5 -153zM416 235q0 80 -38.5 131.5t-111.5 51.5q-48 0 -79.5 -28.5
t-31.5 -47.5v-192q4 -127 111 -127q60 0 105 61t45 151z" />
    <glyph glyph-name="ydieresis" unicode="&#xff;" horiz-adv-x="416" 
d="M357 600q0 -19 -13.5 -32.5t-32.5 -13.5t-32.5 13.5t-13.5 32.5t13.5 32.5t32.5 13.5t32.5 -13.5t13.5 -32.5zM199 600q0 -19 -13.5 -32.5t-32.5 -13.5t-32.5 13.5t-13.5 32.5t13.5 32.5t32.5 13.5t32.5 -13.5t13.5 -32.5zM443 462q-23 -1 -33 -2.5t-24 -11.5t-20 -30
q-75 -237 -184 -588q-23 -72 -79 -72q-21 0 -37.5 13t-16.5 32q0 20 12.5 33t31.5 13q6 0 12.5 -2t10.5 -3.5t10.5 -7t9 -7t10 -9l8.5 -8.5h2q29 76 50 158q-3 8 -32 86.5t-73 198.5t-67 183q-20 22 -70 24v11h220v-11q-19 -3 -27 -5t-16.5 -8.5t-8.5 -18.5q0 -15 115 -330
q98 314 98 333q0 12 -10 18.5t-19 8t-27 2.5v11h154v-11z" />
    <glyph glyph-name="dotlessi" unicode="&#x131;" horiz-adv-x="254" 
d="M233 0h-215v10q21 2 32.5 4t23.5 9t12 19v347q0 16 -10 21q-25 13 -48 22v7l135 44h6v-447q2 -9 9.5 -14.5t13.5 -7t21 -2.5t20 -2v-10z" />
    <glyph glyph-name="Lslash" unicode="&#x141;" horiz-adv-x="708" 
d="M713 206l-37 -206h-642v10q64 10 88 38q17 21 19 108q2 68 2 183l-119 -39l-8 26l127 39v192q0 97 -15 115q-27 31 -87 38v10h319v-10q-103 -14 -105 -88q-3 -86 -3 -223l165 51l8 -27l-173 -50q0 -137 1 -227q2 -88 13 -104q7 -10 44.5 -18.5t77.5 -8.5q93 0 146 15
q31 8 55.5 22.5t40 29t30.5 39t22.5 41t20.5 47.5z" />
    <glyph glyph-name="lslash" unicode="&#x142;" horiz-adv-x="256" 
d="M269 463l-98 -36v-388q0 -16 12.5 -21t61.5 -7v-11h-233v11q45 3 60.5 9.5t15.5 22.5v356l-90 -35l-9 23l99 36v195q0 14 -10 21q-42 24 -57 31v6l143 47h7v-271l89 35z" />
    <glyph glyph-name="OE" unicode="&#x152;" horiz-adv-x="980" 
d="M957 184l-48 -184h-376q-9 0 -61 -1.5t-75 -1.5q-153 0 -260.5 105t-107.5 258q0 161 110.5 262t279.5 101q30 0 72.5 -1.5t53.5 -1.5h313l65 -158l-10 -5q-74 91 -149 129q-38 19 -251 19v-2q110 -23 183 -113t80 -201q35 13 46.5 34.5t20.5 72.5q1 3 1.5 5.5t0.5 5.5
h12v-285h-12q-1 3 -5 19.5t-5 20l-5 17.5t-6.5 18.5t-8 14.5t-10.5 15t-12.5 10.5t-16.5 9.5q-7 -115 -80 -205.5t-180 -121.5v-3q48 -2 115 -2q63 0 109 6q64 8 110.5 45t95.5 121zM665 379q-4 115 -48.5 197t-120.5 121q-2 -52 -2 -321zM384 363q0 57 -0.5 180t-0.5 164
q-112 -11 -171 -112t-59 -238q0 -138 60 -236.5t170 -108.5q1 68 1 351zM665 360h-171q0 -304 1 -335q80 40 124.5 126.5t45.5 208.5z" />
    <glyph glyph-name="oe" unicode="&#x153;" horiz-adv-x="792" 
d="M789 152q-9 -54 -59.5 -104.5t-123.5 -50.5q-116 0 -175 104q-69 -106 -181 -106q-54 0 -105 25.5t-88.5 84.5t-37.5 140q0 95 65.5 166.5t166.5 71.5q54 0 103 -24t80 -72q61 96 159 96q80 0 131.5 -42t57.5 -123h-311q0 -4 -1 -18t-1 -22q0 -90 47 -151t132 -61
q47 0 83.5 25t48.5 63zM684 376q0 38 -25 64t-65 26q-49 0 -84.5 -49t-36.5 -85q28 0 148 2q37 0 51 6q12 13 12 36zM386 246q0 38 -7.5 75t-23 71t-44 54.5t-66.5 20.5q-61 0 -97 -69t-36 -159q0 -100 33.5 -164t104.5 -64q47 0 79 39.5t44.5 90t12.5 105.5z" />
    <glyph glyph-name="Scaron" unicode="&#x160;" horiz-adv-x="605" 
d="M434 927l-106 -163h-15l-106 163l13 7l101 -104l100 104zM558 197q0 -95 -72.5 -150.5t-188.5 -55.5q-36 0 -68.5 4.5t-53.5 11t-36 13.5t-23.5 11.5t-9.5 4.5q-5 0 -31 -35h-9l-3 199h10q18 -53 53.5 -100.5t70.5 -65.5q52 -27 99 -27q74 0 120 41t46 109q0 52 -30 81.5
t-85 50.5q-30 11 -72.5 25.5t-74.5 26.5q-55 22 -93.5 71t-38.5 110q0 102 69 155.5t171 53.5q34 0 63.5 -5t48 -12t32 -14t20.5 -12t8 -5q8 0 30 36h11v-185h-11q-28 77 -79.5 129t-123.5 52q-65 0 -107.5 -37.5t-42.5 -103.5q0 -93 115 -136q30 -12 76 -27t67 -23
q143 -52 143 -191z" />
    <glyph glyph-name="scaron" unicode="&#x161;" horiz-adv-x="382" 
d="M298 686l-95 -170h-15l-95 170l12 7l90 -111l91 111zM369 146q0 -74 -53.5 -112t-133.5 -38q-82 0 -155 33v132h8q10 -30 20.5 -51.5t27.5 -47t42.5 -39t56.5 -13.5q49 0 77 28t28 84q0 31 -19.5 51.5t-53.5 27.5q-60 12 -97 24q-38 13 -61.5 46t-23.5 76q0 60 47 98
t114 38q69 0 135 -26l12 -124l-8 -2q-32 70 -63.5 104t-83.5 34q-36 0 -63.5 -25t-27.5 -68q0 -34 19 -51.5t55 -25.5q15 -4 48 -11t45 -10q46 -11 77 -47t31 -85z" />
    <glyph glyph-name="Ydieresis" unicode="&#x178;" horiz-adv-x="649" 
d="M490 830q0 -19 -13.5 -32.5t-32.5 -13.5t-32.5 13.5t-13.5 32.5t13.5 32.5t32.5 13.5t32.5 -13.5t13.5 -32.5zM313 830q0 -19 -13.5 -32.5t-32.5 -13.5t-32.5 13.5t-13.5 32.5t13.5 32.5t32.5 13.5t32.5 -13.5t13.5 -32.5zM682 710q-27 -4 -47 -13t-39 -29t-30 -35.5
t-35 -50.5q-14 -21 -75.5 -115.5t-78.5 -120.5v-201q0 -80 11 -95q20 -29 85 -40v-10h-308v10q21 2 32 4.5t25.5 11.5t29.5 25q12 13 14 109q2 74 2 160q-2 3 -34.5 56t-70.5 114.5t-55 87.5q-25 39 -36 54.5t-29 37.5t-34 30.5t-36 9.5v10h305v-10q-21 -2 -31 -3.5t-26 -6
t-23 -12.5t-7 -20q0 -16 45 -93q3 -6 130 -213q67 99 134 211q36 60 36 86q0 7 -1.5 12.5t-5 10t-7 8t-10 6t-10.5 4.5t-12.5 3.5t-12.5 2.5t-13.5 2.5t-12.5 1.5v10h231v-10z" />
    <glyph glyph-name="Zcaron" unicode="&#x17d;" horiz-adv-x="694" 
d="M466 927l-106 -163h-15l-106 163l13 7l101 -104l100 104zM695 225l-72 -225h-603l-4 7l506 695q-196 0 -246 -2q-66 -3 -124 -48q-26 -20 -66 -66.5t-61 -81.5l-11 4l73 213q41 -3 569 -3l3 -6l-505 -694q60 -1 171 -1q51 0 99 5q150 17 260 207z" />
    <glyph glyph-name="zcaron" unicode="&#x17e;" horiz-adv-x="433" 
d="M319 686l-95 -170h-15l-95 170l12 7l90 -111l91 111zM437 149l-13 -154h-9q-6 7 -75 7q-67 0 -160.5 -0.5t-155.5 -0.5l-3 7l279 445h-135q-68 0 -92.5 -21t-45.5 -84l-10 2l18 138l9 1q11 -18 59 -18q188 0 301 1l1 -9l-282 -444h151q38 0 65.5 10t44 31t25 40t18.5 50z
" />
    <glyph glyph-name="florin" unicode="&#x192;" horiz-adv-x="538" 
d="M537 612q0 -16 -8 -27t-22 -11q-16 0 -35 7q-12 40 -26.5 59t-42.5 19q-82 0 -128 -234q-1 -9 -2 -12h140l-11 -34h-136q-13 -55 -27.5 -125t-27.5 -123t-32 -116q-12 -39 -29 -74t-41.5 -69t-59.5 -54t-75 -20q-32 0 -57 15.5t-25 42.5q0 13 9.5 22t22.5 9q27 0 36 -27
q14 -40 43 -40q14 0 25.5 8t22 26t18.5 35.5t16.5 48.5t14 53t14.5 60q48 212 68 331h-97l9 31h96q23 121 82.5 193t151.5 72q53 0 83 -17.5t30 -48.5z" />
    <glyph glyph-name="circumflex" unicode="&#x2c6;" 
d="M353 528l-12 -7l-91 111l-90 -111l-12 7l95 170h15z" />
    <glyph glyph-name="caron" unicode="&#x2c7;" 
d="M353 686l-95 -170h-15l-95 170l12 7l90 -111l91 111z" />
    <glyph glyph-name="breve" unicode="&#x2d8;" 
d="M358 673q0 -68 -28 -101q-31 -38 -82 -38t-82 38q-28 33 -28 101v11h13q3 -48 29 -73.5t68 -25.5t68 25.5t29 73.5h13v-11z" />
    <glyph glyph-name="dotaccent" unicode="&#x2d9;" 
d="M301 603q0 -21 -15 -36t-36 -15q-20 0 -35.5 15.5t-15.5 35.5q0 21 15 35.5t36 14.5t36 -14.5t15 -35.5z" />
    <glyph glyph-name="ring" unicode="&#x2da;" 
d="M324 592q0 -31 -21 -51.5t-53 -20.5q-33 0 -53.5 20t-20.5 52q0 31 21.5 51.5t52.5 20.5q32 0 53 -20.5t21 -51.5zM297 592q0 22 -13 37t-34 15t-34 -14.5t-13 -37.5q0 -22 13 -37t34 -15t34 15t13 37z" />
    <glyph glyph-name="ogonek" unicode="&#x2db;" 
d="M347 -142q-11 -29 -36 -53t-61 -24q-35 0 -59 22t-24 55q0 23 10 44.5t30 42t33 31.5t36 29h15v-2q-67 -58 -67 -119q0 -24 13.5 -41.5t40.5 -17.5q17 0 28.5 5.5t17.5 11.5t15 20z" />
    <glyph glyph-name="tilde" unicode="&#x2dc;" 
d="M398 665q-12 -48 -37 -75.5t-76 -27.5l-91 19q-31 0 -42 -1.5t-21 -11t-19 -33.5h-13q24 98 110 98l89 -19q41 0 60 9.5t26 41.5h14z" />
    <glyph glyph-name="hungarumlaut" unicode="&#x2dd;" 
d="M400 667l-136 -149l-11 6l103 172q13 0 23 -4.5t12.5 -7.5t8.5 -12v-5zM281 667l-120 -151l-11 6l87 174q13 0 23 -4.5t12.5 -7.5t8.5 -12v-5z" />
    <glyph glyph-name="pi" unicode="&#x3c0;" horiz-adv-x="680" 
d="M654 495q-17 -41 -35 -71t-27 -34q-10 -4 -63 -4q-23 0 -36 1q-14 -40 -30.5 -109t-16.5 -112q0 -45 14.5 -67t37.5 -22q62 0 79 94h12q-12 -91 -44 -134q-30 -41 -78 -41q-28 0 -47 11.5t-28 30t-12.5 36.5t-3.5 37q0 79 58 279l-137 8q-16 -78 -61 -213
q-45 -133 -69 -165q-18 -25 -45 -25q-18 0 -29.5 11.5t-11.5 28.5q0 21 12.5 34.5t32.5 25t26 17.5q41 45 70 109.5t55 176.5q-17 0 -46 -2q-38 -2 -66.5 -18t-44 -40.5t-23 -49.5t-8.5 -50h-9q-1 4 -3.5 15.5t-4 23t-1.5 23.5q0 62 30 103q29 42 72.5 55.5t107.5 13.5
q23 0 112 -3.5t131 -3.5q69 0 84 6q14 5 20 10t18 18z" />
    <glyph glyph-name="endash" unicode="&#x2013;" horiz-adv-x="460" 
d="M421 237h-382v46h382v-46z" />
    <glyph glyph-name="emdash" unicode="&#x2014;" horiz-adv-x="890" 
d="M798 237h-706v46h706v-46z" />
    <glyph glyph-name="quoteleft" unicode="&#x2018;" horiz-adv-x="126" 
d="M118 581q0 -23 -18 -37t-42 -14q-33 0 -55 23.5t-22 57.5q0 48 37 78.5t88 30.5v-10q-74 -14 -74 -70q0 -15 6 -29q16 12 39 12q18 0 29.5 -13t11.5 -29z" />
    <glyph glyph-name="quoteright" unicode="&#x2019;" horiz-adv-x="126" 
d="M145 642q0 -48 -37 -78.5t-88 -30.5v10q74 14 74 70q0 15 -6 29q-16 -12 -39 -12q-18 0 -29.5 13t-11.5 29q0 24 18 37.5t42 13.5q33 0 55 -23.5t22 -57.5z" />
    <glyph glyph-name="quotesinglbase" unicode="&#x201a;" horiz-adv-x="106" 
d="M135 24q0 -48 -37 -78.5t-88 -30.5v10q74 14 74 70q0 15 -6 29q-16 -12 -39 -12q-18 0 -29.5 13t-11.5 29q0 24 18 37.5t42 13.5q33 0 55 -23.5t22 -57.5z" />
    <glyph glyph-name="quotedblleft" unicode="&#x201c;" horiz-adv-x="267" 
d="M258 581q0 -24 -17 -37.5t-41 -13.5q-33 0 -53.5 23.5t-20.5 57.5q0 48 36 78.5t86 30.5v-10q-36 -7 -53.5 -23t-17.5 -47q0 -20 6 -29q16 12 34 12t29.5 -13t11.5 -29zM116 581q0 -24 -17 -37.5t-41 -13.5q-33 0 -53.5 23.5t-20.5 57.5q0 48 36 78.5t86 30.5v-10
q-36 -7 -53.5 -23t-17.5 -47q0 -18 6 -29q16 12 34 12t29.5 -13t11.5 -29z" />
    <glyph glyph-name="quotedblright" unicode="&#x201d;" horiz-adv-x="267" 
d="M283 642q0 -48 -36 -78.5t-86 -30.5v10q36 7 53.5 23t17.5 47q0 19 -6 29q-16 -12 -34 -12t-29.5 13t-11.5 29q0 24 17 37.5t41 13.5q33 0 53.5 -23.5t20.5 -57.5zM141 642q0 -48 -36 -78.5t-86 -30.5v10q36 7 53.5 23t17.5 47q0 20 -6 29q-16 -12 -34 -12t-29.5 13
t-11.5 29q0 24 17 37.5t41 13.5q33 0 53.5 -23.5t20.5 -57.5z" />
    <glyph glyph-name="quotedblbase" unicode="&#x201e;" horiz-adv-x="247" 
d="M273 24q0 -48 -36 -78.5t-86 -30.5v10q36 7 53.5 23t17.5 47q0 19 -6 29q-16 -12 -34 -12t-29.5 13t-11.5 29q0 24 17 37.5t41 13.5q33 0 53.5 -23.5t20.5 -57.5zM131 24q0 -48 -36 -78.5t-86 -30.5v10q36 7 53.5 23t17.5 47q0 20 -6 29q-16 -12 -34 -12t-29.5 13
t-11.5 29q0 24 17 37.5t41 13.5q33 0 53.5 -23.5t20.5 -57.5z" />
    <glyph glyph-name="dagger" unicode="&#x2020;" horiz-adv-x="388" 
d="M354 555q0 -17 -12 -29.5t-29 -12.5q-15 0 -27 9.5t-15 23.5h-69l1 -265q14 -2 23 -14.5t9 -27.5q0 -17 -12 -29.5t-29 -12.5t-29 12.5t-12 29.5q0 15 9 27.5t23 14.5l1 265h-67q-3 -14 -15.5 -23.5t-27.5 -9.5q-17 0 -29 12.5t-12 29.5t12.5 29t28.5 12q15 0 27.5 -9.5
t15.5 -23.5h67v82q-14 3 -23.5 15t-9.5 27q0 17 12.5 29t28.5 12t28.5 -12t12.5 -29q0 -15 -9.5 -27t-23.5 -15v-82h69q3 14 15 23.5t27 9.5q17 0 29 -12t12 -29z" />
    <glyph glyph-name="daggerdbl" unicode="&#x2021;" horiz-adv-x="388" 
d="M354 565q0 -17 -12 -29.5t-29 -12.5q-15 0 -27 9.5t-15 23.5h-69v-176h59q3 14 15 23.5t27 9.5q17 0 29 -12.5t12 -29.5t-12 -29t-29 -12q-15 0 -27 9.5t-15 23.5h-59v-102q14 -3 23.5 -15t9.5 -27q0 -17 -12.5 -29t-28.5 -12t-28.5 12t-12.5 29q0 15 9.5 27t23.5 15v102
h-57q-3 -14 -15.5 -23.5t-27.5 -9.5q-16 0 -28.5 12t-12.5 29t12 29.5t29 12.5q15 0 27.5 -9.5t15.5 -23.5h57v176h-67q-3 -14 -15.5 -23.5t-27.5 -9.5q-17 0 -29 12.5t-12 29.5t12.5 29t28.5 12q15 0 27.5 -9.5t15.5 -23.5h67v72q-14 3 -23.5 15t-9.5 27q0 17 12.5 29
t28.5 12t28.5 -12t12.5 -29q0 -15 -9.5 -27t-23.5 -15v-72h69q3 14 15 23.5t27 9.5q17 0 29 -12t12 -29z" />
    <glyph glyph-name="bullet" unicode="&#x2022;" horiz-adv-x="556" 
d="M453 262q0 -72 -51.5 -123t-123.5 -51t-123 51t-51 123t51 123t123 51q73 0 124 -51t51 -123z" />
    <glyph glyph-name="ellipsis" unicode="&#x2026;" horiz-adv-x="755" 
d="M665 55q0 -25 -16.5 -41.5t-41.5 -16.5t-41.5 16.5t-16.5 41.5t16.5 41.5t41.5 16.5t41.5 -16.5t16.5 -41.5zM435 55q0 -25 -16.5 -41.5t-41.5 -16.5t-41.5 16.5t-16.5 41.5t16.5 41.5t41.5 16.5t41.5 -16.5t16.5 -41.5zM205 55q0 -25 -16.5 -41.5t-41.5 -16.5
t-41.5 16.5t-16.5 41.5t16.5 41.5t41.5 16.5t41.5 -16.5t16.5 -41.5z" />
    <glyph glyph-name="perthousand" unicode="&#x2030;" horiz-adv-x="950" 
d="M308 526q0 -58 -38 -97t-89 -39q-48 0 -89.5 35.5t-41.5 102.5q0 53 38 91.5t94 38.5q50 0 88 -36t38 -96zM550 624l-425 -617l-24 15l425 618zM607 132q0 -58 -38 -97t-89 -39q-48 0 -89.5 35.5t-41.5 102.5q0 53 38 91.5t94 38.5q50 0 88 -36t38 -96zM274 523
q0 44 -26.5 76t-67.5 32t-68 -32.5t-27 -75.5t27 -74.5t69 -31.5q41 0 67 31.5t26 74.5zM573 129q0 44 -26.5 76t-67.5 32t-68 -32.5t-27 -75.5t27 -74.5t69 -31.5q41 0 67 31.5t26 74.5zM908 132q0 -58 -38 -97t-89 -39q-48 0 -89.5 35.5t-41.5 102.5q0 53 38 91.5t94 38.5
q50 0 88 -36t38 -96zM874 129q0 44 -26.5 76t-67.5 32t-68 -32.5t-27 -75.5t27 -74.5t69 -31.5q41 0 67 31.5t26 74.5z" />
    <glyph glyph-name="guilsinglleft" unicode="&#x2039;" horiz-adv-x="284" 
d="M234 99l-7 -5l-180 159v5l180 159l6 -5l-94 -156z" />
    <glyph glyph-name="guilsinglright" unicode="&#x203a;" horiz-adv-x="284" 
d="M237 253l-180 -159l-7 5l95 157l-94 156l6 5l180 -159v-5z" />
    <glyph glyph-name="fraction" unicode="&#x2044;" horiz-adv-x="110" 
d="M301 624l-425 -617l-24 15l425 618z" />
    <glyph glyph-name="trademark" unicode="&#x2122;" horiz-adv-x="647" 
d="M281 652l-8 -2q-20 40 -25 45q-12 11 -37 11h-33q0 -11 -0.5 -46t-0.5 -48v-76q0 -25 4 -32q9 -13 35 -13v-9h-121v9q20 0 34 15q4 6 4 31q0 3 0.5 25.5t0.5 47.5q0 13 -0.5 47.5t-0.5 48.5h-33q-23 0 -36 -13q-14 -10 -30 -43l-7 2l13 73q3 -1 8.5 -3t11.5 -3t14 -1h165
q16 0 33 7zM618 482h-125v9q25 2 34.5 12.5t9.5 31.5v162q-8 -18 -31.5 -71t-40.5 -90q-3 -5 -20 -48h-8q-36 81 -92 202v-138q1 -25 2.5 -34.5t10.5 -17t29 -9.5v-9h-99v9q43 7 43 64v125q0 25 -36 32v8h82l79 -171q40 85 75 171h85v-9q-27 -3 -32 -20q-2 -7 -4 -40
q-1 -20 -1 -54q0 -41 1 -66q1 -13 2.5 -20t10 -13t25.5 -6v-10z" />
    <glyph glyph-name="partialdiff" unicode="&#x2202;" horiz-adv-x="717" 
d="M739 473l-27 -61h-154v-263q0 -97 79 -97q52 0 81 41l6 -3q-13 -37 -48.5 -65.5t-92.5 -28.5q-41 0 -73 26.5t-36 60.5q0 24 1 141.5t1 187.5h-61v11q69 25 100 71.5t31 93.5q0 54 -37 90.5t-107 36.5q-75 0 -112 -43.5t-37 -94.5q0 -11 0.5 -20t2 -17.5t2 -13t4 -12.5
t4 -10t4.5 -11t5 -10q49 -1 73 -17t24 -39q0 -16 -14.5 -29.5t-34.5 -13.5q-19 0 -37 35q-11 19 -22 49q-68 0 -113.5 -56t-45.5 -144q0 -89 45.5 -145.5t122.5 -56.5q40 0 68.5 9t47.5 28.5t26.5 31t19.5 35.5l10 -4q-19 -68 -73 -119.5t-132 -51.5q-95 0 -157.5 71.5
t-62.5 175.5q0 96 64.5 168t176.5 72q-24 48 -24 94q0 64 45.5 108.5t121.5 44.5q75 0 119.5 -41t44.5 -128q0 -39 -8 -87h179z" />
    <glyph glyph-name="Delta" unicode="&#x2206;" horiz-adv-x="374" 
d="M351 710q-64 -9 -82 -43q-8 -16 -11 -92q-1 -68 -1 -208v-233q0 -76 -18 -135t-44 -92.5t-59 -55t-58.5 -28.5t-47.5 -7q-38 0 -65 17t-27 48q0 25 14 39.5t40 14.5q24 0 38 -16t23.5 -40t16.5 -31q8 -2 14 -2q54 0 61 138q3 58 3 379v195q0 101 -15 119
q-14 16 -32.5 22.5t-56.5 10.5v10h307v-10z" />
    <glyph glyph-name="summation" unicode="&#x2211;" horiz-adv-x="692" 
d="M714 473l-23 -60h-152v-264q0 -97 79 -97q46 0 79 45l7 -4q-13 -38 -48 -67.5t-92 -29.5q-42 0 -75.5 28t-33.5 65q0 24 0.5 138.5t0.5 184.5h-68v11q71 25 105.5 71.5t34.5 91.5q0 55 -37.5 92t-106.5 37q-74 0 -111.5 -44t-37.5 -94q0 -17 1 -29t4.5 -23t4.5 -14.5
t8 -16t8 -14.5l61 -17l8 -128l-8 -2q-37 76 -71 123q-26 13 -60 13q-41 0 -69.5 -24.5t-28.5 -68.5q0 -34 19 -51t53 -26l30 -7.5t38 -9t28 -6.5q45 -11 75 -46t30 -84q0 -73 -54.5 -111.5t-132.5 -38.5t-152 32v134h8q50 -152 144 -152q49 0 78 28.5t29 83.5
q0 30 -19.5 50.5t-52.5 27.5q-60 12 -99 25q-37 13 -60 45.5t-23 76.5q0 60 46 98t112 38q32 0 56 -2q-28 39 -28 95q0 62 46.5 107.5t121.5 45.5q74 0 118.5 -42t44.5 -129q0 -43 -12 -85h177z" />
    <glyph glyph-name="minus" unicode="&#x2212;" horiz-adv-x="700" 
d="M575 241h-450v40h450v-40z" />
    <glyph glyph-name="infinity" unicode="&#x221e;" horiz-adv-x="793" 
d="M772 0h-215v10q21 2 32.5 4t23.5 9t12 19v369q0 19 -15 19h-170v-392q1 -7 6.5 -12t15 -8t17 -4t20 -2t17.5 -2v-10h-233v10q74 7 74 32v386h-189v-390q1 -7 6.5 -12t14.5 -8t16.5 -4t19.5 -2t17 -2v-10h-233v10q76 7 76 32v386h-72l24 44h49q0 86 14 120q24 58 79 94.5
t118 36.5q13 0 25 -1.5t21 -3t17.5 -6t14 -7t12.5 -8.5t10 -8.5t8.5 -10t7 -9.5t6.5 -10t5 -9q26 37 65.5 57.5t82.5 20.5q63 0 94 -18t31 -45q0 -19 -12.5 -31t-26.5 -12q-31 0 -42 13.5t-20.5 36t-28.5 35.5q-6 2 -20 2q-34 0 -67.5 -34.5t-36.5 -101.5q-3 -54 -3 -101
h235q17 5 25 24h8v-460q2 -9 9.5 -14.5t13.5 -7t21 -2.5t20 -2v-10zM358 472v156q-3 13 -9.5 26.5t-25.5 29.5t-45 20q-8 0 -16.5 -1.5t-24.5 -8.5t-28.5 -20t-23 -39t-13.5 -61q-4 -54 -4 -102h190z" />
    <glyph glyph-name="approxequal" unicode="&#x2248;" horiz-adv-x="726" 
d="M713 127q0 -60 -35.5 -98t-87.5 -38q-67 0 -101.5 33t-59.5 102q-26 -35 -42.5 -53.5t-43 -41t-58.5 -32t-73 -9.5q-77 0 -129 51.5t-52 122.5q0 70 39.5 112t102.5 72q-35 30 -52 57.5t-17 69.5q0 58 47 98t109 40q66 0 110.5 -29.5t44.5 -86.5q0 -56 -43.5 -88
t-101.5 -33q67 -40 101 -66q11 -9 19.5 -15.5t16.5 -13.5t13 -10.5t11.5 -10.5t8.5 -9t8.5 -9.5t7.5 -8.5t9.5 -11t9.5 -12q25 34 35 48.5t23 39.5t13 41q0 26 -25 39.5t-64 13.5v12h247v-10q-49 -11 -75.5 -26.5t-60.5 -53.5q-13 -14 -41.5 -54t-44.5 -60q4 -6 46 -85
q31 -57 82 -57q43 0 67 25t24 71h10q2 -18 2 -27zM340 488q0 47 -20 80t-61 33q-34 0 -54 -29t-20 -73q0 -37 13 -62.5t52 -52.5h11q38 0 58.5 31t20.5 73zM422 134q-16 34 -55 71q-35 33 -87 70q-11 8 -98 66q-70 -30 -70 -136q0 -67 42 -106.5t109 -39.5q105 0 159 75z
" />
    <glyph glyph-name="notequal" unicode="&#x2260;" horiz-adv-x="539" 
d="M648 676q0 -18 -11.5 -30t-30.5 -12q-26 0 -52.5 31t-42.5 35q-9 0 -18 -3t-21.5 -12t-21 -30.5t-10.5 -53.5q-2 -36 -2 -129h118l-16 -43h-103v-391q1 -7 7.5 -12t17.5 -8t20.5 -4t22 -2t18.5 -2v-10h-244v10q75 7 75 32v387h-186v-391q4 -23 76 -28v-10h-235v10
q76 7 76 32v387h-72l16 43h57q0 86 14 120q24 58 79 94.5t118 36.5q101 0 117 -51q66 56 152 56q33 0 57.5 -13t24.5 -39zM375 624q-15 3 -26 15t-17 25.5t-20 25.5t-34 14q-8 0 -16.5 -1.5t-24.5 -8.5t-28.5 -20t-23 -39t-13.5 -61q-4 -54 -4 -102h188q0 116 19 152z" />
    <glyph glyph-name="lessequal" unicode="&#x2264;" 
d="M411 496l-4 -6q-43 8 -148 107v-371l131 -170v-36l-132 170v-30l132 -171v-37l-132 171v-31l132 -171v-37l-132 171v-31l132 -171v-36l-132 173v-27h-18v27l-132 -173v36l132 171v31l-132 -171v37l132 171v31l-132 -171v37l132 171v30l-132 -170v36l131 170v371
q-106 -99 -146 -107l-4 6q92 120 159 232h4q59 -101 159 -232z" />
    <glyph glyph-name="greaterequal" unicode="&#x2265;" 
d="M409 50q-103 -138 -159 -232h-4q-72 116 -159 232l4 6q43 -8 148 -107v371l-131 170v36l132 -170v30l-132 171v37l132 -171v31l-132 171v37l132 -171v31l-132 171v36l132 -173v27h18v-27l132 173v-36l-132 -171v-31l132 171v-37l-132 -171v-31l132 171v-37l-132 -171v-30
l132 170v-36l-131 -170v-371q106 99 146 107z" />
    <glyph glyph-name="lozenge" unicode="&#x25ca;" horiz-adv-x="556" 
d="M477 262l-199 -205l-198 205l198 204z" />
    <glyph glyph-name="fi" unicode="&#xfb01;" horiz-adv-x="520" 
d="M499 0h-215v10q21 2 32.5 4t23.5 9t12 19v369q0 17 -15 20h-169v-393q1 -7 6.5 -12t15 -8t17 -4t20 -2t17.5 -2v-10h-235v10q76 7 76 32v387h-76l16 44h61q0 90 14 124q25 60 79.5 95.5t118.5 35.5q57 0 92 -17t35 -46q0 -19 -12.5 -31t-26.5 -12q-28 0 -40.5 15.5
t-22 38.5t-25.5 34q-14 0 -26.5 -1t-30.5 -8.5t-31 -21t-23.5 -39t-13.5 -61.5q-4 -54 -4 -106h231l29 11h6v-448q2 -9 9.5 -14.5t13.5 -7t21 -2.5t20 -2v-10z" />
    <glyph glyph-name="fl" unicode="&#xfb02;" horiz-adv-x="520" 
d="M510 0h-233v11q45 3 60.5 9.5t15.5 22.5v388h-185v-393q1 -7 6.5 -12t15 -8t17.5 -4t20.5 -2t17.5 -2v-10h-236v10q76 7 76 32v387h-75l16 44h60q0 87 14 121q24 60 79 95.5t118 35.5q67 0 108 -30l25 35h6v-692q0 -6 1 -10t4.5 -6.5t7 -4t11 -2.5t13.5 -1.5t17 -1
t20 -1.5v-11zM354 473v165q-30 51 -75 68q-8 0 -16.5 -1.5t-24.5 -8.5t-28.5 -20t-23 -39t-13.5 -61q-4 -54 -4 -103h185z" />
    <glyph glyph-name="NUL" horiz-adv-x="0" 
 />
    <glyph glyph-name="HT" horiz-adv-x="0" 
 />
    <glyph glyph-name="CR" horiz-adv-x="0" 
 />
    <glyph glyph-name="percent" horiz-adv-x="647" 
d="M308 526q0 -58 -38 -97t-89 -39q-48 0 -89.5 35.5t-41.5 102.5q0 53 38 91.5t94 38.5q50 0 88 -36t38 -96zM550 624l-425 -617l-24 15l425 618zM607 132q0 -58 -38 -97t-89 -39q-48 0 -89.5 35.5t-41.5 102.5q0 53 38 91.5t94 38.5q50 0 88 -36t38 -96zM274 523
q0 44 -26.5 76t-67.5 32t-68 -32.5t-27 -75.5t27 -74.5t69 -31.5q41 0 67 31.5t26 74.5zM573 129q0 44 -26.5 76t-67.5 32t-68 -32.5t-27 -75.5t27 -74.5t69 -31.5q41 0 67 31.5t26 74.5z" />
    <glyph glyph-name="apple" horiz-adv-x="700" 
d="M544 94l-27 -28l-166 168l-167 -168l-28 28l168 167l-168 166l28 27l166 -168l166 168l28 -28l-168 -166z" />
    </font>
</defs>
</svg>
