<svg width="36" height="35" viewBox="0 0 36 35" fill="none" xmlns="http://www.w3.org/2000/svg">
<rect x="0.5" width="35" height="35" rx="17.5" fill="#FF2929"/>
<path d="M21.913 9.5C21.6089 9.5 21.3154 9.53306 21.0326 9.5876C20.8201 9.62727 20.678 9.84711 20.7147 10.0769C20.7514 10.3083 20.9547 10.462 21.1671 10.4223C21.4147 10.3744 21.6624 10.3463 21.913 10.3463C24.2945 10.3463 26.2174 12.4256 26.2174 15.0008C26.2174 15.5579 26.1226 16.0901 25.9545 16.5893C25.9025 16.7331 25.9254 16.895 26.0156 17.014C26.1073 17.1331 26.2495 17.1893 26.3901 17.1612C26.5307 17.1331 26.6454 17.024 26.6897 16.8785C26.8869 16.2934 27 15.6636 27 15.0008C27 11.9678 24.7179 9.5 21.913 9.5ZM21.913 12.0388C21.7464 12.0388 21.589 12.057 21.4392 12.0851C21.2267 12.1264 21.083 12.3446 21.1213 12.576C21.1579 12.8058 21.3612 12.9595 21.5737 12.9198C21.6883 12.8983 21.8015 12.8851 21.913 12.8851C22.9983 12.8851 23.8696 13.8273 23.8696 15.0008C23.8696 15.2537 23.8268 15.495 23.7488 15.7231C23.6754 15.943 23.7809 16.186 23.9842 16.2653C24.1875 16.3446 24.4122 16.2322 24.4856 16.0124C24.591 15.6983 24.6522 15.3579 24.6522 15.0008C24.6522 13.3694 23.4217 12.0388 21.913 12.0388ZM16.5036 12.2107C15.2471 12.1843 13.3517 13.257 11.6627 15.0488C9.98285 16.8653 9 18.7694 9 20.4091C9 23.5959 12.7678 25.5 16.4944 25.5C21.3261 25.5 24.5605 22.4901 24.5605 20.0983C24.5605 18.6372 23.4141 17.8388 22.3899 17.4851C22.1454 17.3959 21.9818 17.3529 22.1041 16.9975C22.1851 16.786 22.3043 16.3826 22.3043 15.8471C22.3043 15.2388 21.913 14.7116 21.1304 14.6174C20.7422 14.5711 19.1739 14.5777 18.133 15.0488C18.133 15.0488 17.5583 15.3165 17.7218 14.8289C18.0092 13.8554 17.9679 13.057 17.517 12.614C17.2724 12.3479 16.9239 12.219 16.5036 12.2107ZM16.1658 17.0884C19.2198 17.0884 21.6945 18.7727 21.6945 20.8521C21.6945 22.9298 19.2198 24.614 16.1658 24.614C13.1133 24.614 10.6386 22.9298 10.6386 20.8521C10.6386 18.7727 13.1133 17.0884 16.1658 17.0884ZM15.7561 17.9727C14.5746 17.9826 13.4266 18.6818 12.9283 19.7595C12.3139 21.1298 12.8871 22.6355 14.3606 23.1215C15.8341 23.6521 17.5934 22.8554 18.2079 21.3959C18.8208 19.981 18.0443 18.4769 16.5708 18.0802C16.3018 18.0041 16.0282 17.9711 15.7561 17.9727ZM16.366 19.7612C16.5922 19.7612 16.7756 19.9579 16.7756 20.2025C16.7756 20.4471 16.5922 20.6455 16.366 20.6455C16.1398 20.6455 15.9564 20.4471 15.9564 20.2025C15.9564 19.9579 16.1398 19.7612 16.366 19.7612ZM14.6418 20.2025C14.7702 20.2041 14.8986 20.2256 15.0194 20.2702C15.5436 20.4504 15.7041 20.9876 15.3816 21.4355C15.1004 21.8835 14.4569 22.1066 13.9723 21.8835C13.4908 21.6603 13.3701 21.1215 13.6513 20.7198C13.8623 20.3826 14.2551 20.1975 14.6418 20.2025Z" fill="white"/>
</svg>
