<svg width="36" height="35" viewBox="0 0 36 35" fill="none" xmlns="http://www.w3.org/2000/svg">
<rect x="0.5" width="35" height="35" rx="17.5" fill="#FF2929"/>
<path fill-rule="evenodd" clip-rule="evenodd" d="M26.587 12.7448C26.7121 12.3155 26.587 12 25.9915 12H24.0222C23.5215 12 23.2907 12.2725 23.1655 12.5731C23.1655 12.5731 22.1641 15.0848 20.7455 16.7163C20.2865 17.1886 20.0779 17.3388 19.8275 17.3388C19.7024 17.3388 19.5212 17.1885 19.5212 16.7592V12.7448C19.5212 12.2296 19.3759 12 18.9586 12H15.8641C15.5512 12 15.363 12.2391 15.363 12.4658C15.363 12.9542 16.0723 13.0668 16.1454 14.4408V17.4247C16.1454 18.0789 16.0306 18.1976 15.7802 18.1976C15.1127 18.1976 13.4888 15.6746 12.5257 12.7878C12.337 12.2267 12.1476 12 11.6444 12H9.67516C9.11253 12 9 12.2725 9 12.5731C9 13.1098 9.6676 15.7717 12.1085 19.2924C13.7357 21.6967 16.0284 23 18.1146 23C19.3663 23 19.5212 22.7105 19.5212 22.2119V20.3947C19.5212 19.8158 19.6398 19.7002 20.0362 19.7002C20.3282 19.7002 20.8289 19.8505 21.9972 21.0098C23.3324 22.3837 23.5525 23 24.3036 23H26.2728C26.8354 23 27.1167 22.7105 26.9544 22.1393C26.7768 21.5699 26.1394 20.7439 25.2935 19.7646C24.8345 19.2065 24.1461 18.6054 23.9374 18.3048C23.6453 17.9185 23.7288 17.7467 23.9374 17.4032C23.9374 17.4032 26.3366 13.9255 26.587 12.7448Z" fill="white"/>
</svg>
