<svg width="36" height="35" viewBox="0 0 36 35" fill="none" xmlns="http://www.w3.org/2000/svg">
<rect x="0.5" width="35" height="35" rx="17.5" fill="#FF2929"/>
<path d="M15.6522 9.5C11.9837 9.5 9 12.1637 9 15.4386C9 17.1872 9.80554 18.7599 11.276 19.899L10.2442 23.1402L13.471 21.0492C14.3667 21.3436 15.4596 21.4476 16.5143 21.326C17.3702 23.0602 19.3038 24.2441 21.5217 24.2441C22.1958 24.2441 22.8195 24.1113 23.3988 23.9306L26.0783 25.5L25.3308 22.8171C26.3397 21.9404 27 20.7197 27 19.3294C27 16.7857 24.886 14.7571 22.2065 14.4579C21.6807 11.6102 18.9263 9.5 15.6522 9.5ZM13.3043 12.7765C13.7354 12.7765 14.087 13.1444 14.087 13.5956C14.087 14.0467 13.7354 14.4147 13.3043 14.4147C12.8733 14.4147 12.5217 14.0467 12.5217 13.5956C12.5217 13.1444 12.8733 12.7765 13.3043 12.7765ZM18 12.7765C18.431 12.7765 18.7826 13.1444 18.7826 13.5956C18.7826 14.0467 18.431 14.4147 18 14.4147C17.569 14.4147 17.2174 14.0467 17.2174 13.5956C17.2174 13.1444 17.569 12.7765 18 12.7765ZM21.5217 15.2338C24.1615 15.2338 26.2174 17.0912 26.2174 19.3294C26.2174 20.5405 25.6274 21.6028 24.6537 22.3579L24.4351 22.5291L24.7913 23.8074L23.5195 23.0602L23.3544 23.1178C22.8072 23.3098 22.1821 23.425 21.5217 23.425C18.882 23.425 16.8261 21.5676 16.8261 19.3294C16.8261 17.0912 18.882 15.2338 21.5217 15.2338ZM19.7609 17.6912C19.4475 17.6912 19.1739 17.9776 19.1739 18.3055C19.1739 18.6335 19.4475 18.9199 19.7609 18.9199C20.0742 18.9199 20.3478 18.6335 20.3478 18.3055C20.3478 17.9776 20.0742 17.6912 19.7609 17.6912ZM23.2826 17.6912C22.9693 17.6912 22.6957 17.9776 22.6957 18.3055C22.6957 18.6335 22.9693 18.9199 23.2826 18.9199C23.596 18.9199 23.8696 18.6335 23.8696 18.3055C23.8696 17.9776 23.596 17.6912 23.2826 17.6912Z" fill="white"/>
</svg>
