<svg width="36" height="35" viewBox="0 0 36 35" fill="none" xmlns="http://www.w3.org/2000/svg">
<rect x="0.5" width="35" height="35" rx="17.5" fill="#FF2929"/>
<path d="M26 12.7341C23.0108 12.1413 21.7691 9.66436 21.5219 8.5H18.7468V21.3876C18.615 23.4411 16.8786 23.9016 16.0269 23.8751C13.5653 23.7269 12.8949 22.155 12.8674 21.3876C12.9773 18.9318 15.0196 18.2296 16.0269 18.1855V15.5657C10.642 15.735 9.79047 19.5175 10.0378 21.3876C10.4994 25.41 14.0374 26.5882 16.0269 26.4949C20.156 26.4461 21.2196 23.0195 21.357 21.3876V13.5809C22.8516 15.5286 25.0751 15.8215 26 15.7245V12.7341Z" fill="white"/>
</svg>
