<svg width="36" height="35" viewBox="0 0 36 35" fill="none" xmlns="http://www.w3.org/2000/svg">
<rect x="0.5" width="35" height="35" rx="17.5" fill="#FF2929"/>
<path fill-rule="evenodd" clip-rule="evenodd" d="M26.2202 10.0158L9.32491 16.3424C8.8917 16.5089 8.8917 17.0917 9.32491 17.1749L13.4838 18.6733L15.0433 23.5848C15.13 23.9178 15.5632 24.0011 15.8231 23.8346L18.1625 22.0032C18.4224 21.8367 18.769 21.8367 19.0289 22.0032L23.1877 24.9168C23.4477 25.0832 23.8809 25 23.9675 24.667L27 10.6817C26.9134 10.1823 26.5668 9.93253 26.2202 10.0158ZM23.0144 13.3456L16.343 19.256C16.083 19.5058 15.9964 19.7555 15.9097 20.0885L15.6498 21.6702C15.6498 21.9199 15.3032 21.9199 15.2166 21.6702L14.3502 18.7566C14.2635 18.4236 14.4368 18.0906 14.6968 17.8409L22.7545 13.0959C22.9278 13.0126 23.1011 13.1791 23.0144 13.3456Z" fill="white"/>
</svg>
