<svg width="26" height="26" viewBox="0 0 26 26" fill="none" xmlns="http://www.w3.org/2000/svg">
<path d="M23.7503 13.0187C23.7503 18.7713 19.0863 23.4354 13.3337 23.4354C7.58106 23.4354 2.91699 18.7713 2.91699 13.0187C2.91699 7.26611 7.58106 2.60205 13.3337 2.60205C19.0863 2.60205 23.7503 7.26611 23.7503 13.0187Z" fill="url(#paint0_linear_5515_87797)"/>
<path d="M7.66074 9.5354L8.41595 11.8583H10.8581L8.8821 13.2937L9.6373 15.6172L7.66074 14.1812L5.6847 15.6172L6.43991 13.2937L4.46387 11.8583H6.90605L7.66074 9.5354Z" fill="url(#paint1_linear_5515_87797)"/>
<path d="M15.5334 14.0095L15.8173 14.784L16.6417 14.7538L15.9928 15.2632L16.2766 16.0376L15.5917 15.5778L14.9423 16.0871L15.1683 15.2934L14.4834 14.8335L15.3079 14.8027L15.5334 14.0095Z" fill="url(#paint2_linear_5515_87797)"/>
<path d="M15.0743 10.7458L15.6482 11.3391L16.3894 10.9766L16.0029 11.7057L16.5763 12.2985L15.7638 12.1563L15.3769 12.8849L15.2612 12.0677L14.4487 11.9255L15.1899 11.563L15.0743 10.7458Z" fill="url(#paint3_linear_5515_87797)"/>
<path d="M12.4502 8.75267L13.2075 9.07923L13.7528 8.45996L13.6757 9.28131L14.4335 9.6084L13.6283 9.78913L13.5517 10.611L13.1309 9.90111L12.3257 10.0818L12.871 9.46257L12.4502 8.75267Z" fill="url(#paint4_linear_5515_87797)"/>
<path d="M13.708 16.3621L13.6757 17.1865L14.4502 17.472L13.656 17.6959L13.6242 18.5209L13.1653 17.835L12.3716 18.0595L12.882 17.411L12.4231 16.7251L13.1976 17.0105L13.708 16.3621Z" fill="url(#paint5_linear_5515_87797)"/>
<defs>
<linearGradient id="paint0_linear_5515_87797" x1="5.96803" y1="5.65309" x2="20.6993" y2="20.3843" gradientUnits="userSpaceOnUse">
<stop stop-color="#F44F5A"/>
<stop offset="0.443" stop-color="#EE3D4A"/>
<stop offset="1" stop-color="#E52030"/>
</linearGradient>
<linearGradient id="paint1_linear_5515_87797" x1="4.46387" y1="12.576" x2="10.8581" y2="12.576" gradientUnits="userSpaceOnUse">
<stop stop-color="#FEDE00"/>
<stop offset="1" stop-color="#FFD000"/>
</linearGradient>
<linearGradient id="paint2_linear_5515_87797" x1="14.4834" y1="15.0481" x2="16.6417" y2="15.0481" gradientUnits="userSpaceOnUse">
<stop stop-color="#FEDE00"/>
<stop offset="1" stop-color="#FFD000"/>
</linearGradient>
<linearGradient id="paint3_linear_5515_87797" x1="14.4487" y1="11.8156" x2="16.5763" y2="11.8156" gradientUnits="userSpaceOnUse">
<stop stop-color="#FEDE00"/>
<stop offset="1" stop-color="#FFD000"/>
</linearGradient>
<linearGradient id="paint4_linear_5515_87797" x1="12.3257" y1="9.53548" x2="14.4335" y2="9.53548" gradientUnits="userSpaceOnUse">
<stop stop-color="#FEDE00"/>
<stop offset="1" stop-color="#FFD000"/>
</linearGradient>
<linearGradient id="paint5_linear_5515_87797" x1="12.3716" y1="17.4412" x2="14.4502" y2="17.4412" gradientUnits="userSpaceOnUse">
<stop stop-color="#FEDE00"/>
<stop offset="1" stop-color="#FFD000"/>
</linearGradient>
</defs>
</svg>
