<svg width="36" height="35" viewBox="0 0 36 35" fill="none" xmlns="http://www.w3.org/2000/svg">
<rect x="0.5" width="35" height="35" rx="17.5" fill="#FF2929"/>
<path d="M18.5939 26.5C17.0406 26.5 15.6675 26.2994 14.4746 25.8981C13.2817 25.5016 12.2792 24.9164 11.467 24.1425C10.6548 23.3686 10.0406 22.4204 9.62437 21.2978C9.20812 20.1752 9 18.8901 9 17.4427C9 16.043 9.21066 14.7914 9.63198 13.6879C10.0584 12.5844 10.6751 11.6481 11.4822 10.879C12.2944 10.1051 13.2792 9.51513 14.4365 9.10908C15.599 8.70303 16.9137 8.5 18.3807 8.5C19.8071 8.5 21.0558 8.71975 22.1269 9.15924C23.203 9.59395 24.1015 10.1839 24.8223 10.9291C25.5482 11.6696 26.0914 12.5032 26.4518 13.4299C26.8173 14.3567 27 15.3121 27 16.2962C27 16.9889 26.9645 17.6911 26.8934 18.4029C26.8223 19.1146 26.6726 19.7691 26.4442 20.3662C26.2157 20.9586 25.8629 21.4363 25.3858 21.7994C24.9137 22.1624 24.2741 22.3439 23.467 22.3439C23.1117 22.3439 22.7208 22.2914 22.2944 22.1863C21.868 22.0812 21.4898 21.9068 21.1599 21.6632C20.8299 21.4196 20.6345 21.0924 20.5736 20.6815H20.4822C20.3604 20.9586 20.1726 21.2213 19.9188 21.4697C19.6701 21.7182 19.3426 21.9164 18.9365 22.0645C18.5355 22.2126 18.0457 22.2771 17.467 22.258C16.8071 22.2341 16.2259 22.0955 15.7234 21.8424C15.2208 21.5844 14.7995 21.2357 14.4594 20.7962C14.1244 20.3519 13.8706 19.8384 13.698 19.2556C13.5305 18.668 13.4467 18.035 13.4467 17.3567C13.4467 16.7118 13.5482 16.1218 13.7513 15.5868C13.9543 15.0518 14.236 14.5836 14.5964 14.1823C14.9619 13.7811 15.3883 13.461 15.8756 13.2221C16.368 12.9785 16.8985 12.828 17.467 12.7707C17.9746 12.7229 18.4365 12.7444 18.8528 12.8352C19.269 12.9212 19.6117 13.0525 19.8807 13.2293C20.1497 13.4013 20.3198 13.5924 20.3909 13.8025H20.4822V13H22.0964V19.4777C22.0964 19.879 22.2157 20.2325 22.4543 20.5382C22.6929 20.8439 23.0406 20.9968 23.4975 20.9968C24.0152 20.9968 24.4112 20.8296 24.6853 20.4952C24.9645 20.1608 25.1548 19.6449 25.2563 18.9475C25.3629 18.25 25.4162 17.3567 25.4162 16.2675C25.4162 15.6274 25.3223 14.9968 25.1345 14.3758C24.9518 13.75 24.6726 13.1648 24.297 12.6202C23.9264 12.0756 23.4569 11.5955 22.8883 11.1799C22.3198 10.7643 21.6523 10.4395 20.8858 10.2054C20.1244 9.96656 19.2589 9.84713 18.2893 9.84713C17.0964 9.84713 16.0279 10.0215 15.0838 10.3702C14.1447 10.7142 13.3452 11.2182 12.6853 11.8822C12.0305 12.5414 11.5305 13.3439 11.1853 14.2898C10.8452 15.2309 10.6751 16.301 10.6751 17.5C10.6751 18.7182 10.8452 19.8002 11.1853 20.746C11.5305 21.6919 12.0381 22.4897 12.7081 23.1393C13.3832 23.789 14.2183 24.2811 15.2132 24.6154C16.2081 24.9546 17.3553 25.1242 18.6548 25.1242C19.2132 25.1242 19.764 25.074 20.3071 24.9737C20.8503 24.8734 21.3299 24.7635 21.7462 24.6441C22.1624 24.5247 22.4619 24.4363 22.6447 24.379L23.0711 25.6975C22.7563 25.8217 22.3452 25.9459 21.8376 26.0701C21.335 26.1943 20.797 26.297 20.2234 26.3782C19.6548 26.4594 19.1117 26.5 18.5939 26.5ZM17.7107 20.7962C18.3909 20.7962 18.9416 20.6672 19.3629 20.4092C19.7843 20.1513 20.0914 19.7619 20.2843 19.2412C20.4772 18.7205 20.5736 18.0637 20.5736 17.2707C20.5736 16.4682 20.467 15.8424 20.2538 15.3933C20.0406 14.9443 19.7259 14.629 19.3096 14.4475C18.8934 14.2659 18.3807 14.1752 17.7716 14.1752C17.1929 14.1752 16.698 14.3185 16.2868 14.6051C15.8807 14.8869 15.5685 15.2643 15.3503 15.7373C15.1371 16.2054 15.0305 16.7166 15.0305 17.2707C15.0305 17.8822 15.1168 18.4578 15.2893 18.9976C15.4619 19.5326 15.7437 19.9674 16.1345 20.3018C16.5254 20.6314 17.0508 20.7962 17.7107 20.7962Z" fill="white"/>
</svg>
