<svg width="62" height="17" viewBox="0 0 62 17" fill="none" xmlns="http://www.w3.org/2000/svg">
<g clip-path="url(#clip0_35_75242)">
<path d="M10.1454 7.22754V8.57485C10.0928 8.57485 9.77702 8.60101 9.15862 8.60101C8.64548 8.60101 8.26392 8.57485 8.13234 8.57485V7.22754C6.13242 7.3191 4.64563 7.6592 4.64563 8.07778C4.64563 8.49636 6.13242 8.83646 8.13234 8.92802C8.26392 8.92802 8.63233 8.95419 9.14546 8.95419C9.79018 8.95419 10.0928 8.94111 10.1454 8.92802C12.1454 8.83646 13.6321 8.49636 13.6321 8.07778C13.6321 7.6592 12.1454 7.3191 10.1454 7.22754Z" fill="white"/>
<path d="M9.27705 0.0332031C4.76406 0.0332031 1.09314 3.66963 1.09314 8.16937C1.09314 12.6691 4.7509 16.3055 9.27705 16.3055C13.8032 16.3055 17.461 12.6691 17.461 8.16937C17.461 3.66963 13.8032 0.0332031 9.27705 0.0332031ZM10.1586 9.25507V13.1269H8.14551V9.25507C5.88244 9.15042 4.18513 8.70568 4.18513 8.16937C4.18513 7.63306 5.88244 7.18832 8.14551 7.08368V5.88026H5.35614V4.03588H12.9348V5.88026H10.1454V7.08368C12.4085 7.18832 14.1058 7.63306 14.1058 8.16937C14.1058 8.70568 12.4085 9.15042 10.1586 9.25507Z" fill="white"/>
<path d="M24.5528 4.62456V6.57358H26.4607V8.03861H24.5397V11.021C24.5397 11.675 24.9081 12.002 25.4344 12.002C25.6975 12.002 26.0133 11.9236 26.2633 11.7928L26.737 13.2447C26.2502 13.4409 25.8423 13.5194 25.316 13.5325C23.816 13.5848 22.8292 12.7346 22.8292 11.021V8.05169H21.5398V6.57358H22.8292V4.80769L24.5528 4.62456ZM57.4859 6.48201L57.6174 7.27993C58.1569 6.42969 58.8674 6.29888 59.5647 6.29888C60.2752 6.29888 60.9726 6.57358 61.341 6.95291L60.5647 8.43103C60.2095 8.14325 59.8937 7.98629 59.3279 7.98629C58.4332 7.98629 57.6043 8.45719 57.6043 9.72601V13.3624H55.8938V6.48201H57.4859ZM53.2887 9.1243C53.1702 8.23482 52.4729 7.79008 51.4861 7.79008C50.5651 7.79008 49.8019 8.23482 49.5519 9.1243H53.2887ZM49.5256 10.537C49.644 11.3873 50.3809 12.002 51.5913 12.002C52.2229 12.002 53.0518 11.7666 53.4465 11.3611L54.5386 12.4337C53.8149 13.1924 52.6176 13.5456 51.565 13.5456C49.1835 13.5456 47.7625 12.0805 47.7625 9.8699C47.7625 7.777 49.1967 6.27272 51.4466 6.27272C53.7623 6.27272 55.2096 7.69851 54.9465 10.5239H49.5256V10.537ZM41.9733 3.59119V7.41074C42.5917 6.61282 43.3548 6.37737 44.1311 6.37737C46.0915 6.37737 46.9731 7.69851 46.9731 9.72601V13.3755H45.2626V9.75217C45.2626 8.49643 44.6048 7.96012 43.6837 7.96012C42.6706 7.96012 41.9733 8.81037 41.9733 9.84374V13.3755H40.2628V3.60427L41.9733 3.59119ZM37.4208 4.54607V6.49509H39.3286V7.96012H37.4076V10.9294C37.4076 11.5835 37.7761 11.9105 38.3024 11.9105C38.5655 11.9105 38.8813 11.832 39.1313 11.7012L39.6049 13.1531C39.1181 13.3494 38.7102 13.4278 38.1839 13.4409C36.684 13.4932 35.6972 12.643 35.6972 10.9294V7.97321H34.4078V6.49509H35.6972V4.7292L37.4208 4.54607ZM32.6841 9.1243C32.5657 8.23482 31.8684 7.79008 30.8816 7.79008C29.9605 7.79008 29.1974 8.23482 28.9474 9.1243H32.6841ZM28.9211 10.537C29.0395 11.3873 29.7763 12.002 30.9868 12.002C31.6184 12.002 32.4473 11.7666 32.842 11.3611L33.9341 12.4337C33.1973 13.1924 32.0131 13.5456 30.9605 13.5456C28.579 13.5456 27.158 12.0805 27.158 9.8699C27.158 7.777 28.5922 6.27272 30.8421 6.27272C33.1578 6.27272 34.6051 7.69851 34.342 10.5239H28.9211V10.537Z" fill="white"/>
</g>
<defs>
<clipPath id="clip0_35_75242">
<rect width="60.7083" height="16.2723" fill="white" transform="translate(0.645813 0.0332031)"/>
</clipPath>
</defs>
</svg>
