<svg width="62" height="13" viewBox="0 0 62 13" fill="none" xmlns="http://www.w3.org/2000/svg">
<g clip-path="url(#clip0_35_75225)">
<path d="M6.42949 6.88269L6.05316 8.3733C6.52853 8.48945 7.97444 8.93469 8.19231 8.10228C8.41019 7.21179 6.90486 6.99884 6.42949 6.88269Z" fill="#838C9D"/>
<path d="M6.94451 4.83069L6.60779 6.18579C7.00393 6.28258 8.21215 6.66975 8.41022 5.89541C8.60829 5.10171 7.34064 4.92748 6.94451 4.83069Z" fill="#838C9D"/>
<path d="M8.50939 0.80429C5.1224 -0.0281262 1.67599 1.98516 0.8441 5.31483C-0.00759906 8.62514 2.05232 11.9935 5.45912 12.8066C8.84611 13.639 12.2925 11.6063 13.1442 8.29604C13.9761 4.98573 11.9162 1.61735 8.50939 0.80429ZM9.77704 5.91494C9.678 6.51506 9.34129 6.80543 8.88573 6.92158C9.51955 7.23132 9.83646 7.73464 9.51955 8.56706C9.14322 9.61242 8.2519 9.70921 7.06349 9.47691L6.78619 10.6191L6.09294 10.4448L6.37024 9.3414C6.19198 9.30268 6.01372 9.24461 5.81565 9.20589L5.53835 10.3287L4.84511 10.1545L5.14221 9.03166C4.98375 8.99295 4.80549 8.95423 4.64704 8.91551L3.73592 8.70257L4.07263 7.92823C4.07263 7.92823 4.58762 8.06374 4.58762 8.04438C4.78569 8.0831 4.86491 7.96695 4.90453 7.88951L5.36009 6.10853C5.37989 6.10853 5.41951 6.12789 5.43931 6.12789C5.41951 6.10853 5.37989 6.10853 5.36009 6.10853L5.677 4.83086C5.677 4.69535 5.63738 4.50177 5.36009 4.44369C5.37989 4.44369 4.86491 4.32754 4.86491 4.32754L5.04318 3.59192L5.99391 3.82422C6.13256 3.86294 6.29101 3.90165 6.42966 3.92101L6.70696 2.79822L7.4002 2.97245L7.12291 4.07588C7.30117 4.1146 7.49924 4.15332 7.6775 4.21139L7.9548 3.12731L8.64804 3.30154L8.37074 4.42434C9.26206 4.65664 9.89588 5.10188 9.77704 5.91494Z" fill="#838C9D"/>
<path d="M19.2247 4.36615C19.7397 4.36615 20.1755 4.46294 20.5518 4.63717C20.9281 4.8114 21.245 5.06306 21.4827 5.35343C21.7204 5.66317 21.9185 6.01162 22.0373 6.41815C22.1562 6.82468 22.2156 7.26993 22.2156 7.73453C22.2156 8.4508 22.0769 9.12835 21.7996 9.78654C21.5223 10.4254 21.1658 10.9868 20.6904 11.4707C20.2151 11.9547 19.6605 12.3225 19.0267 12.5935C18.373 12.8645 17.6798 13.0001 16.9271 13.0001C16.8281 13.0001 16.6696 13.0001 16.4121 13.0001C16.1546 13.0001 15.8972 12.9807 15.5802 12.9226C15.2633 12.8839 14.9464 12.8258 14.5899 12.729C14.2334 12.6516 13.9165 12.5354 13.5995 12.3806L16.3923 0.997766L18.888 0.610596L17.8977 4.65653C18.1155 4.55973 18.3334 4.4823 18.5315 4.44358C18.7494 4.38551 18.9672 4.36615 19.2247 4.36615ZM17.1252 11.0642C17.5015 11.0642 17.858 10.9674 18.175 10.7932C18.5117 10.619 18.789 10.3867 19.0267 10.0769C19.2643 9.78654 19.4624 9.43808 19.6011 9.07027C19.7397 8.70246 19.8189 8.29593 19.8189 7.8894C19.8189 7.38608 19.7397 6.99891 19.5614 6.70853C19.3832 6.41815 19.0663 6.28264 18.6107 6.28264C18.4523 6.28264 18.274 6.302 18.0165 6.36008C17.7788 6.41815 17.5609 6.51495 17.3629 6.68917L16.3131 10.9868C16.3725 11.0061 16.4319 11.0061 16.4914 11.0255C16.531 11.0448 16.5904 11.0448 16.6498 11.0448C16.7092 11.0448 16.7687 11.0448 16.8479 11.0448C16.9271 11.0448 17.0262 11.0642 17.1252 11.0642Z" fill="#838C9D"/>
<path d="M24.7905 12.7871H22.4136L24.4141 4.54034H26.8108L24.7905 12.7871ZM25.9393 3.5337C25.6026 3.5337 25.3055 3.43691 25.048 3.24332C24.7707 3.04974 24.6518 2.75936 24.6518 2.35283C24.6518 2.13989 24.6914 1.92694 24.7905 1.73336C24.8895 1.53977 25.0083 1.36555 25.147 1.23004C25.3055 1.09453 25.4639 0.978375 25.662 0.900941C25.86 0.823507 26.0779 0.78479 26.2958 0.78479C26.6325 0.78479 26.9296 0.881583 27.1871 1.07517C27.4446 1.26875 27.5833 1.55913 27.5833 1.96566C27.5833 2.1786 27.5436 2.39155 27.4446 2.58513C27.3456 2.77872 27.2267 2.95294 27.0881 3.08845C26.9296 3.22396 26.7712 3.34012 26.5731 3.41755C26.375 3.49498 26.1572 3.5337 25.9393 3.5337Z" fill="#838C9D"/>
<path d="M28.8905 2.48842L31.3862 2.12061L30.7524 4.54042H33.4065L32.9311 6.45692H30.277L29.5838 9.32198C29.5243 9.55428 29.4847 9.78658 29.4649 9.99953C29.4451 10.2125 29.4847 10.3867 29.5441 10.5416C29.6036 10.6964 29.7224 10.8126 29.8809 10.89C30.0393 10.9675 30.277 11.0255 30.5939 11.0255C30.8514 11.0255 31.1089 11.0062 31.3466 10.9481C31.5843 10.9094 31.8219 10.8319 32.0794 10.7545L32.2577 12.5355C31.9408 12.6516 31.5843 12.7484 31.2079 12.8259C30.8316 12.9033 30.3958 12.942 29.8809 12.942C29.148 12.942 28.5736 12.8259 28.1577 12.6129C27.7417 12.4 27.4644 12.1096 27.2862 11.7418C27.1079 11.374 27.0485 10.9481 27.0683 10.4641C27.0881 9.98017 27.1673 9.47685 27.2862 8.93481L28.8905 2.48842Z" fill="#838C9D"/>
<path d="M33.3273 9.49612C33.3273 8.77985 33.4461 8.12166 33.6838 7.48283C33.9215 6.86336 34.2582 6.30196 34.6939 5.83736C35.1297 5.37275 35.6645 5.00494 36.2983 4.73392C36.9123 4.4629 37.6254 4.32739 38.3979 4.32739C38.8732 4.32739 39.309 4.36611 39.6853 4.4629C40.0616 4.55969 40.4182 4.67585 40.7153 4.81136L39.9032 6.63106C39.6853 6.55362 39.4674 6.47619 39.2297 6.39875C38.9921 6.32132 38.7148 6.30196 38.378 6.30196C37.5858 6.30196 36.9519 6.57298 36.4964 7.09566C36.0408 7.6377 35.8031 8.35397 35.8031 9.24446C35.8031 9.7865 35.922 10.2124 36.1597 10.5415C36.3974 10.8706 36.8331 11.0254 37.4669 11.0254C37.7838 11.0254 38.0809 10.9867 38.3582 10.9286C38.6553 10.8706 38.9128 10.7931 39.1307 10.6963L39.309 12.5548C39.0119 12.6709 38.6751 12.7677 38.3186 12.8645C37.9621 12.9419 37.5263 13 37.0114 13C36.3577 13 35.7833 12.9032 35.3278 12.7096C34.8722 12.516 34.4959 12.2644 34.1988 11.9547C33.9017 11.6256 33.6838 11.2577 33.5451 10.8319C33.3867 10.406 33.3273 9.96072 33.3273 9.49612Z" fill="#838C9D"/>
<path d="M43.8646 13C43.2902 13 42.8149 12.9226 42.3791 12.7484C41.9632 12.5741 41.6264 12.3418 41.3491 12.0514C41.0718 11.7417 40.8738 11.3933 40.7351 10.9867C40.5965 10.5802 40.537 10.1156 40.537 9.61227C40.537 8.9928 40.6361 8.35397 40.854 7.73449C41.052 7.11502 41.3689 6.53426 41.7849 6.0503C42.181 5.54698 42.696 5.14045 43.2704 4.81136C43.8646 4.50162 44.5381 4.32739 45.2907 4.32739C45.8453 4.32739 46.3405 4.40483 46.7564 4.57905C47.1724 4.75328 47.5289 4.98558 47.8062 5.27596C48.0835 5.5857 48.2816 5.93415 48.4202 6.34068C48.5589 6.74721 48.6381 7.21181 48.6381 7.71513C48.6381 8.33461 48.5391 8.97344 48.341 9.59291C48.1429 10.2124 47.8458 10.7738 47.4497 11.2771C47.0535 11.7804 46.5584 12.187 45.9642 12.516C45.3303 12.8451 44.6371 13 43.8646 13ZM45.053 6.2826C44.6965 6.2826 44.3994 6.3794 44.1221 6.57298C43.8448 6.76657 43.6269 7.01823 43.4487 7.32796C43.2704 7.6377 43.1318 7.96679 43.0327 8.31525C42.9337 8.68306 42.8941 9.01216 42.8941 9.34125C42.8941 9.86393 42.9733 10.2705 43.1516 10.5608C43.3298 10.8512 43.6269 11.0061 44.0825 11.0061C44.439 11.0061 44.7361 10.9093 45.0134 10.7157C45.2709 10.5221 45.5086 10.2705 45.6869 9.96072C45.8651 9.65099 46.0038 9.32189 46.1028 8.97344C46.2018 8.60563 46.2415 8.27653 46.2415 7.94744C46.2415 7.42476 46.1622 7.01823 45.984 6.72785C45.8057 6.43747 45.5086 6.2826 45.053 6.2826Z" fill="#838C9D"/>
<path d="M51.1932 12.7871H48.8163L50.8169 4.54034H53.2135L51.1932 12.7871ZM52.3618 3.5337C52.0251 3.5337 51.728 3.43691 51.4705 3.24332C51.213 3.04974 51.0743 2.75936 51.0743 2.35283C51.0743 2.13989 51.114 1.92694 51.213 1.73336C51.312 1.53977 51.4309 1.36555 51.5695 1.23004C51.728 1.09453 51.8864 0.978375 52.0845 0.900941C52.2826 0.823507 52.5004 0.78479 52.7183 0.78479C53.055 0.78479 53.3521 0.881583 53.6096 1.07517C53.8671 1.26875 54.0058 1.55913 54.0058 1.96566C54.0058 2.1786 53.9662 2.39155 53.8671 2.58513C53.7681 2.77872 53.6492 2.95294 53.5106 3.08845C53.3521 3.22396 53.1937 3.34012 52.9956 3.41755C52.7975 3.49498 52.5797 3.5337 52.3618 3.5337Z" fill="#838C9D"/>
<path d="M54.9367 4.9082C55.115 4.85012 55.3131 4.79205 55.5309 4.73397C55.7488 4.6759 55.9865 4.59846 56.2638 4.54039C56.5411 4.48231 56.8382 4.44359 57.1749 4.40488C57.5116 4.36616 57.888 4.3468 58.3237 4.3468C59.5716 4.3468 60.4431 4.69526 60.9184 5.41152C61.3938 6.12779 61.473 7.09571 61.1759 8.33466L60.0865 12.7871H57.6899L58.7397 8.43145C58.7991 8.16043 58.8585 7.88941 58.8981 7.63775C58.9377 7.38609 58.9377 7.15379 58.8981 6.9602C58.8585 6.76662 58.7595 6.61175 58.601 6.4956C58.4426 6.37945 58.2049 6.32137 57.888 6.32137C57.571 6.32137 57.2541 6.36009 56.9372 6.41816L55.3725 12.8065H52.9758L54.9367 4.9082Z" fill="#838C9D"/>
</g>
<defs>
<clipPath id="clip0_35_75225">
<rect width="60.7083" height="12.3895" fill="white" transform="translate(0.645813 0.610596)"/>
</clipPath>
</defs>
</svg>
