<svg width="63" height="17" viewBox="0 0 63 17" fill="none" xmlns="http://www.w3.org/2000/svg">
<path d="M15.9624 16.3387L15.9065 0.00286028L16.7328 0L16.7887 16.3358L15.9624 16.3387ZM24.591 2.09703L24.5907 2.01519L27.8962 2.0038L27.9242 10.1716C27.9155 11.2594 27.4783 12.2998 26.7074 13.0673C25.9364 13.8348 24.894 14.2673 23.8062 14.271C22.7183 14.2747 21.6729 13.8494 20.8968 13.0872C20.1206 12.325 19.6763 11.2876 19.6602 10.1999L22.9658 10.1885C22.9665 10.4077 23.0543 10.6175 23.2098 10.772C23.3653 10.9264 23.5758 11.0127 23.7949 11.012C24.0141 11.0112 24.2239 10.9235 24.3784 10.768C24.5328 10.6125 24.6192 10.402 24.6184 10.1829L24.591 2.09703ZM36.5419 6.35915C36.9186 6.76537 37.2059 7.24613 37.3852 7.77034C37.5819 8.35422 37.6795 8.9669 37.6739 9.58298C37.6744 9.74226 37.6686 9.88718 37.6574 10.0137C37.6555 10.1232 37.6334 10.2314 37.5923 10.3329L37.5018 10.5147L31.7845 10.5343C31.8119 10.6604 31.8542 10.7829 31.9106 10.899C32.113 11.3211 32.4684 11.6504 32.9046 11.8202C33.1313 11.9083 33.3727 11.9521 33.6159 11.9493C34.0192 11.9773 34.4195 11.8621 34.7463 11.6241L34.88 11.5097L37.3054 12.1685L37.0483 12.5456C36.8161 12.8844 36.5292 13.1822 36.1993 13.4269C35.8502 13.6842 35.4621 13.8839 35.0498 14.0184C34.589 14.1663 34.1076 14.2398 33.6237 14.2362C33.0463 14.2402 32.473 14.1377 31.9328 13.9337C31.4025 13.7339 30.9188 13.4276 30.5116 13.0336C30.0932 12.6226 29.7608 12.1326 29.5335 11.592C29.2802 10.9801 29.1539 10.3232 29.1621 9.66101C29.1521 9.03051 29.268 8.40436 29.5032 7.81929C29.7191 7.28929 30.0359 6.80626 30.4358 6.39697C30.8244 6.00381 31.2856 5.68972 31.7937 5.47209C32.2991 5.25357 32.8436 5.13985 33.3942 5.1378C34.004 5.12705 34.6102 5.23287 35.1803 5.44957C35.6957 5.64847 36.1607 5.95911 36.5418 6.35915H36.5419ZM31.8542 8.49204L35.0254 8.48118C35.0069 8.40738 34.9837 8.33484 34.9559 8.26401C34.8893 8.0949 34.7874 7.94189 34.6572 7.8151C34.5119 7.67642 34.3406 7.56796 34.1531 7.49602C33.9181 7.40971 33.6687 7.36897 33.4184 7.37599C33.1894 7.37278 32.9622 7.41689 32.751 7.50555C32.5647 7.58537 32.3956 7.7003 32.2528 7.84407C32.1155 7.98496 32.0031 8.14815 31.9204 8.32667C31.8953 8.38052 31.8732 8.43573 31.8541 8.49204H31.8542ZM52.3273 6.37112C52.7368 6.78149 53.0604 7.26931 53.2793 7.8061C53.5103 8.3793 53.6273 8.99206 53.6236 9.61005C53.631 10.2301 53.5185 10.8458 53.2922 11.4232C53.0786 11.9651 52.7581 12.4585 52.3498 12.8739C51.942 13.2838 51.4577 13.6095 50.9243 13.8327C49.7743 14.2958 48.4904 14.3003 47.3371 13.8454C46.7995 13.6285 46.3114 13.305 45.9022 12.8945C45.496 12.4804 45.1757 11.9901 44.9597 11.4518C44.7294 10.876 44.6126 10.2611 44.6159 9.64098C44.6079 9.02303 44.7206 8.40947 44.9479 7.83475C45.1616 7.29856 45.4783 6.80942 45.8801 6.39496C46.2865 5.98165 46.7724 5.65485 47.3084 5.43421C48.4585 4.97164 49.7422 4.96743 50.8954 5.42245C51.4302 5.64183 51.9167 5.96416 52.3273 6.37112H52.3273ZM50.8716 10.598C50.9832 10.284 51.0365 9.95215 51.0287 9.61895C51.0346 9.28892 50.9793 8.96066 50.8656 8.65079C50.7706 8.39989 50.6255 8.171 50.439 7.97809C50.2687 7.80467 50.063 7.66994 49.836 7.58305C49.3637 7.40738 48.8438 7.40915 48.3727 7.58802C48.1494 7.6748 47.9482 7.81007 47.7836 7.98407C47.5995 8.18268 47.4547 8.41439 47.3569 8.66694C47.241 8.97509 47.1858 9.30272 47.1943 9.63182C47.1885 9.96412 47.2462 10.2945 47.3642 10.6052C47.4623 10.8595 47.6085 11.0925 47.7949 11.2914C47.9629 11.4667 48.1665 11.6038 48.392 11.6937C48.8591 11.8779 49.3791 11.8762 49.845 11.6889C50.0728 11.5955 50.2789 11.4561 50.4503 11.2794C50.6362 11.0837 50.7796 10.8518 50.8716 10.598H50.8716ZM62.4262 7.21131C62.5608 7.63914 62.6287 8.08516 62.6275 8.53367L62.6458 13.8919L60.0676 13.9007L60.0504 8.86923C60.0614 8.49186 59.9514 8.12086 59.7365 7.81044C59.4608 7.56121 59.1001 7.42722 58.7285 7.43609C58.357 7.44496 58.0031 7.59601 57.7396 7.85811C57.497 8.18541 57.3735 8.58578 57.3896 8.99286L57.4065 13.9099L54.8283 13.9188L54.7988 5.30979L57.3272 5.3011L57.3289 5.77602C57.5036 5.6263 57.6978 5.50099 57.9062 5.40354C58.3581 5.19272 58.8488 5.07776 59.3473 5.0659C59.8459 5.05405 60.3415 5.14557 60.8029 5.33468C61.1988 5.50704 61.5492 5.76928 61.8261 6.10061C62.0947 6.42942 62.2982 6.80632 62.4258 7.21121L62.4262 7.21131ZM43.0281 11.699C43.1943 11.6778 43.2421 11.6676 43.2528 11.6647L43.6637 11.5609L43.6712 13.7694L43.4641 13.8522C43.0496 14.0046 42.6095 14.0752 42.1682 14.0601C41.8045 14.0795 41.4405 14.0271 41.097 13.9058C40.7535 13.7846 40.4373 13.5968 40.1665 13.3532C39.9111 13.0932 39.7125 12.7831 39.5832 12.4424C39.4539 12.1017 39.3967 11.7379 39.4153 11.374L39.4027 7.69841L38.4111 7.7018L38.4031 5.36588L39.3944 5.36249L39.3864 2.92827L41.9481 2.91942L41.9565 5.35365L43.6258 5.34793L43.6338 7.68384L41.9645 7.68957L41.976 11.0546C41.9565 11.242 42.0097 11.4297 42.1247 11.579C42.284 11.6913 42.4785 11.7422 42.6724 11.7224C42.7914 11.7218 42.9102 11.714 43.0281 11.699ZM1.48619 5.40921C1.47062 5.41351 1.45412 5.41313 1.43877 5.40811C1.42341 5.40308 1.40987 5.39365 1.39985 5.38098C1.38982 5.36831 1.38375 5.35297 1.3824 5.33687C1.38104 5.32077 1.38446 5.30462 1.39223 5.29046C1.79361 4.55731 2.33984 3.9134 2.99773 3.39785C3.65563 2.8823 4.41146 2.50587 5.21932 2.29142C6.02929 2.07293 6.87499 2.01995 7.7059 2.13564C8.53681 2.25133 9.33588 2.53332 10.0554 2.96476C10.0693 2.97287 10.0806 2.98495 10.0877 2.99946C10.0948 3.01396 10.0974 3.03025 10.0952 3.04626C10.093 3.06226 10.0861 3.07725 10.0754 3.08934C10.0647 3.10142 10.0506 3.11005 10.035 3.11413L1.48619 5.40921ZM11.9749 4.76612C12.7459 5.88971 13.117 7.23984 13.0284 8.59967C13.0272 8.61683 13.0205 8.63315 13.0095 8.64637C12.9985 8.65959 12.9837 8.66904 12.967 8.6734L1.80316 11.6706C1.7865 11.6751 1.76886 11.6743 1.75264 11.6685C1.73642 11.6626 1.7224 11.6519 1.71248 11.6377C0.941243 10.5141 0.570097 9.16384 0.658664 7.80387C0.659985 7.78674 0.666604 7.77044 0.677604 7.75724C0.688605 7.74404 0.703441 7.73458 0.720055 7.73019L11.8842 4.73312C11.9008 4.7286 11.9185 4.72934 11.9347 4.73525C11.951 4.74116 11.965 4.75194 11.9749 4.76612ZM12.2009 10.9946C12.2165 10.9903 12.233 10.9907 12.2483 10.9957C12.2636 11.0008 12.2772 11.0102 12.2872 11.0229C12.2972 11.0356 12.3032 11.0509 12.3046 11.067C12.3059 11.0831 12.3025 11.0992 12.2947 11.1134C11.8934 11.8465 11.3472 12.4904 10.6894 13.006C10.0315 13.5215 9.27571 13.898 8.46789 14.1124C7.65792 14.3309 6.81221 14.3839 5.98131 14.2682C5.1504 14.1526 4.35133 13.8706 3.63185 13.4392C3.6179 13.431 3.60668 13.419 3.59959 13.4045C3.5925 13.39 3.58987 13.3737 3.59203 13.3577C3.59419 13.3417 3.60104 13.3267 3.61172 13.3147C3.6224 13.3026 3.63643 13.2939 3.65203 13.2898L12.2009 10.9946Z" fill="#838C9D"/>
</svg>
