<svg width="57" height="13" viewBox="0 0 57 13" fill="none" xmlns="http://www.w3.org/2000/svg">
<path d="M10.8467 7.68027C10.7535 7.16969 10.4273 6.70553 9.96121 6.38062C10.4273 6.05571 10.7535 5.59155 10.8467 5.03455C10.8933 4.38473 11.0332 3.08508 10.8467 2.43525C10.6603 1.78543 9.9146 0.85711 9.07568 0.717861C7.11819 0.532197 5.11409 0.532197 3.1566 0.717861C2.27106 0.85711 1.24571 0.996357 0.5 2.853V10.2331C0.5 10.2331 1.29232 12.1362 3.1566 12.2755C4.69463 12.4147 9.40193 12.2755 9.40193 12.2755C10.1476 12.1362 10.7069 11.5792 10.8467 10.8366C10.94 9.8154 10.9866 8.74784 10.8467 7.68027ZM2.27106 3.64207C2.31767 2.99225 2.78374 2.43525 3.43624 2.38884C4.64802 2.24959 7.8639 2.38884 8.46979 2.38884C8.79604 2.38884 9.07568 2.62092 9.07568 2.94583C9.07568 2.94583 9.07568 2.94583 9.07568 2.99225C9.07568 2.99225 9.12229 3.92057 9.12229 4.84889C9.16889 5.22022 8.88925 5.59155 8.51639 5.68438H2.27106V3.64207ZM9.35532 10.0011C9.35532 10.326 9.12229 10.6045 8.79604 10.6045C8.19015 10.6045 4.78784 10.7901 3.48284 10.6045C2.83035 10.6045 2.31767 10.0939 2.27106 9.44408V7.40177H8.79604C9.16889 7.54102 9.40193 7.91235 9.35532 8.28368V10.0011Z" fill="#707D9B"/>
<path d="M20.261 7.67999H13.1768V9.76871C13.1302 10.0472 13.3166 10.3257 13.5962 10.3721C13.6428 10.3721 13.6894 10.3721 13.736 10.3721H20.261V12.4144H13.1768C12.1514 12.2752 11.3591 11.3933 11.4057 10.3257V2.43498C11.5455 1.41383 12.4311 0.624756 13.4564 0.624756H20.3076V2.38856H14.0623C13.5496 2.38856 13.1768 2.80631 13.1768 3.27047V5.63769H20.261" fill="#707D9B"/>
<path d="M20.6812 0.624756V2.34215H24.2699V12.368H26.041V2.38856H29.2569V0.624756H20.6812Z" fill="#707D9B"/>
<path d="M33.265 0.625488H30.2356V12.3687H33.265V0.625488Z" fill="#707D9B"/>
<path d="M41.7004 5.26682H37.9719C37.9719 5.26682 37.0864 5.35965 37.0864 4.15283C37.0864 2.94602 37.9719 3.03885 37.9719 3.03885H43.891V0.671631H36.7601C33.7773 0.671631 33.8239 4.01359 33.8239 4.15283C33.8239 4.29208 33.7773 7.63404 36.7601 7.63404H40.4887C40.4887 7.63404 41.3742 7.54121 41.3742 8.74802C41.3742 9.95484 40.5353 9.90842 40.5353 9.90842H34.5696V12.2756H41.7004C44.7299 12.2756 44.6367 8.88727 44.6367 8.79444C44.6367 8.70161 44.7299 5.26682 41.7004 5.26682Z" fill="#707D9B"/>
<path d="M48.3193 3.87461V12.3687H45.4297V2.3893C45.3365 1.50739 45.989 0.71832 46.8745 0.625488C46.9677 0.625488 47.0609 0.625488 47.1541 0.625488H49.8107C50.603 0.857568 51.2089 1.55381 51.3021 2.3893C51.675 4.06027 53.213 8.23772 53.3529 8.84113C53.3995 8.98038 53.4927 9.11962 53.6325 9.11962C54.0054 9.11962 53.9587 8.84113 53.9587 8.84113V0.625488H56.6153V10.9298C56.6153 10.9298 56.8018 12.3687 55.4502 12.3687C55.4502 12.3687 52.98 12.6008 52.2343 12.0902C51.8614 11.8582 51.6284 11.2083 51.3021 10.6049C50.0438 8.14489 49.7641 5.63842 48.9252 3.87461C48.8786 3.78178 48.7388 3.59611 48.5989 3.59611C48.3193 3.5497 48.3193 3.78178 48.3193 3.87461Z" fill="#707D9B"/>
<path d="M33.2646 0.625H30.2351V12.3683H33.2646V0.625Z" fill="#707D9B"/>
<path d="M41.7 5.26633H37.9715C37.9715 5.26633 37.0859 5.35916 37.0859 4.15235C37.0859 2.94553 37.9715 3.03836 37.9715 3.03836H43.8905V0.671143H36.7597C33.7768 0.671143 33.8234 4.0131 33.8234 4.15235C33.8234 4.29159 33.7768 7.63355 36.7597 7.63355H40.4882C40.4882 7.63355 41.3738 7.54072 41.3738 8.74753C41.3738 9.95435 40.5348 9.90794 40.5348 9.90794H34.5691V12.2752H41.7C44.7295 12.2752 44.6362 8.88678 44.6362 8.79395C44.6362 8.70112 44.7295 5.26633 41.7 5.26633Z" fill="#707D9B"/>
<path d="M48.319 3.87388V12.368H45.4294V2.38857C45.3362 1.50666 45.9887 0.717588 46.8742 0.624756C46.9674 0.624756 47.0606 0.624756 47.1538 0.624756H49.8104C50.6027 0.856836 51.2086 1.55308 51.3018 2.38857C51.6747 4.05954 53.2127 8.23699 53.3526 8.84039C53.3992 8.97964 53.4924 9.11889 53.6322 9.11889C54.005 9.11889 53.9584 8.84039 53.9584 8.84039V0.624756H56.615V10.9291C56.615 10.9291 56.8015 12.368 55.4499 12.368C55.4499 12.368 52.9797 12.6001 52.234 12.0895C51.8611 11.8574 51.6281 11.2076 51.3018 10.6042C50.0435 8.14415 49.7638 5.63769 48.9249 3.87388C48.8783 3.78105 48.7385 3.59538 48.5986 3.59538C48.319 3.54897 48.319 3.78105 48.319 3.87388Z" fill="#707D9B"/>
</svg>
