<svg width="73" height="14" viewBox="0 0 73 14" fill="none" xmlns="http://www.w3.org/2000/svg">
<path d="M20.066 7.8475C20.066 5.7919 21.365 5.75388 23.1191 5.75388H23.3188C25.0278 5.75388 25.9649 6.04428 25.9649 8.03451V9.4196C25.9649 11.086 25.5399 11.796 23.2587 11.796H22.8232C20.6592 11.796 20.0675 11.1939 20.0675 9.53363C20.066 9.53515 20.066 7.8475 20.066 7.8475ZM20.066 12.2673H20.1021C20.6397 12.985 21.6293 13.356 22.8442 13.356H23.4735C26.0174 13.356 27.8781 12.7007 27.8766 9.73281V7.92047C27.8766 5.17309 26.6782 4.19698 23.5531 4.19698H22.5814C21.2164 4.19698 20.455 4.66527 20.0991 5.17309H20.066V0.780608H18.1543V13.0762H20.0675L20.066 12.2673Z" fill="#838C9D"/>
<path d="M51.0666 4.41256H48.4986V3.6189C48.4986 2.86173 48.9882 2.25357 50.0334 2.25357L51.9406 2.25661V0.778767L49.4042 0.780287C47.8709 0.780287 46.5839 1.58915 46.5839 3.62954V4.41408H45.5537V5.96794H46.5839V13.3511H48.4986V5.96794H51.0666V4.41256" fill="#838C9D"/>
<path d="M40.0111 10.5003C40.0111 12.5422 41.2996 13.3511 42.8329 13.3511H45.2086V11.7942H43.2999C42.2562 11.7942 41.9258 11.2651 41.9258 10.5079V5.96642H44.4968V4.40952H41.9258V0.777247H40.0141V4.41104H38.9839V5.96642H40.0141L40.0111 10.5003Z" fill="#838C9D"/>
<path d="M62.0459 2.74658H63.9577V0.779165L62.0444 0.780685L62.0459 2.74658Z" fill="#838C9D"/>
<path d="M62.0444 13.354H63.9577V4.19351H62.0444V13.354Z" fill="#838C9D"/>
<path d="M30.7467 7.68742C30.7467 5.9283 31.5561 5.75193 33.5294 5.75193H33.9154C36.1364 5.75193 36.4233 6.31904 36.4233 7.47456L36.4248 7.96565L30.7452 7.96869L30.7467 7.68742ZM32.8326 13.354H34.5536C36.8708 13.354 37.9295 12.609 38.1998 11.3075L36.4969 10.786C36.2145 11.5873 35.5327 11.7971 34.0325 11.7971H33.591C31.1416 11.7971 30.7437 11.4824 30.7422 9.52712L30.7467 9.5256H38.338V7.83186C38.338 4.76518 36.7657 4.19502 34.2518 4.19502H33.3162C31.3264 4.19502 28.9146 4.54776 28.9146 7.66765V9.82968C28.9161 12.8599 31.0065 13.3555 32.8326 13.354Z" fill="#838C9D"/>
<path d="M58.4344 10.6173C58.4344 11.4778 57.8517 11.7971 55.5871 11.7971H55.0765C53.1512 11.7971 52.908 11.4216 52.908 10.6781V10.1961C52.908 9.33555 53.387 9.01018 54.9819 9.01018H55.8334C57.2856 9.01018 58.4359 9.29906 58.4359 10.263V10.6173H58.4344ZM56.0556 4.19351H55.3408C52.7458 4.19351 51.621 5.00237 51.5474 6.21262L53.3705 6.82534C53.4546 5.99824 54.3932 5.75345 55.8138 5.75345C57.9283 5.75345 58.4284 5.87661 58.4284 7.42439V8.26518H58.3908C57.9133 7.62052 57.26 7.45328 55.6036 7.45328H54.8557C52.4139 7.45328 50.9902 8.06904 50.9902 10.0258V10.5853C50.9932 12.2015 51.5999 13.354 54.1514 13.354H56.0091C57.8547 13.354 58.0394 13.0469 58.4043 12.5117H58.4329V13.3494H60.3446V7.46088C60.3461 4.89898 58.6642 4.19351 56.0556 4.19351Z" fill="#838C9D"/>
<path d="M69.7935 4.19351C68.9435 4.19351 68.077 4.51888 67.5394 5.40984H67.4703V4.19351L65.6592 4.19503V13.354H67.5724V7.8425C67.5724 6.72956 68.2031 5.75193 69.6899 5.75193C70.7516 5.75193 71.2637 6.04385 71.3778 6.35098L72.5837 5.52843C72.2849 4.69524 71.4859 4.19351 69.7935 4.19351Z" fill="#838C9D"/>
<path d="M14.6301 0.809085H9.67736V3.32537H7.02979L12.1537 9.38574L17.2792 3.32537H14.6301V0.809085Z" fill="#838C9D"/>
<path d="M0.5 10.78H3.14908V13.2979H8.10183V10.7785H10.7509L5.62846 4.72271L0.5 10.78Z" fill="#838C9D"/>
</svg>
