<svg width="188" height="61" viewBox="0 0 188 61" fill="none" xmlns="http://www.w3.org/2000/svg">
<path d="M38.247 0.104233L28.0159 25.8063V25.7872L22.2406 39.843V39.8622L22.1259 40.1108L22.145 40.149L16.7521 57.6662L27.1936 57.628L47.2542 8.95845L50.773 0.104233H38.247Z" fill="#FF2929"/>
<path d="M22.126 40.1108L22.2216 39.8813L11.7228 15.4223H0L16.408 56.5762L16.7523 57.6662L22.1451 40.149L22.126 40.1108Z" fill="#FF2929"/>
<path d="M79.095 59.0622C79.095 49.749 79.095 40.4741 79.095 31.1227C79.2289 31.2374 79.3245 31.2948 79.3819 31.3713C82.2122 34.6032 85.0425 37.8542 87.8728 41.0861C88.064 41.3155 88.1214 41.545 88.1214 41.8319C88.1214 44.1267 88.1214 46.4215 88.1214 48.7164C88.1214 48.9267 88.1214 49.1371 88.1214 49.3666C88.3126 49.3857 88.4273 49.4048 88.5612 49.4048C90.3779 49.4048 92.1756 49.4239 93.9923 49.4048C95.3118 49.3857 96.6313 49.2327 97.9126 48.8502C99.2513 48.4486 100.38 47.7219 101.278 46.651C103.172 44.3753 104.281 41.7554 104.644 38.8295C104.912 36.6685 104.74 34.5075 104.166 32.4039C103.076 28.4071 100.437 26.1123 96.421 25.3282C95.2545 25.0987 94.0688 25.0414 92.8831 25.0414C88.5612 25.0414 84.2393 25.0414 79.9173 25.0414C79.6687 25.0414 79.4201 25.0414 79.1333 25.0414C79.1333 21.8095 79.1333 18.6541 79.1333 15.4413C79.2863 15.4222 79.4393 15.384 79.5731 15.384C84.7174 15.384 89.8425 15.3266 94.9867 15.4413C98.7732 15.5178 102.426 16.3593 105.792 18.2334C109.903 20.5091 112.58 23.9704 114.091 28.388C114.856 30.6063 115.239 32.9012 115.392 35.2342C115.545 37.7012 115.449 40.1681 115.028 42.6159C114.512 45.6375 113.345 48.3913 111.471 50.82C110.477 52.1204 109.444 53.3825 108.201 54.4534C105.6 56.6909 102.56 57.9913 99.1939 58.5841C97.4537 58.8901 95.6752 59.0431 93.9158 59.0431C89.154 59.0622 84.3731 59.0431 79.6114 59.0431C79.4201 59.0813 79.2863 59.0813 79.095 59.0622Z" fill="white"/>
<path d="M117.17 25.0606C117.17 21.8096 117.17 18.6733 117.17 15.4796C117.323 15.4605 117.476 15.4223 117.61 15.4223C122.773 15.4223 127.917 15.384 133.081 15.4796C136.045 15.537 138.952 16.1107 141.725 17.2581C146.869 19.3809 150.292 23.1291 152.109 28.3498C152.893 30.5873 153.275 32.9012 153.428 35.2534C153.581 37.4909 153.505 39.7283 153.18 41.9467C152.702 45.2168 151.554 48.2192 149.508 50.8583C148.647 51.9674 147.787 53.0766 146.754 54.0328C144.058 56.538 140.845 57.9914 137.231 58.6416C135.49 58.9475 133.712 59.1005 131.953 59.1005C127.21 59.1197 122.448 59.1005 117.706 59.1005C117.533 59.1005 117.361 59.0814 117.17 59.0623C117.17 49.7682 117.17 40.4933 117.17 31.1419C117.304 31.2566 117.419 31.314 117.495 31.4096C120.306 34.6415 123.117 37.8542 125.948 41.0861C126.139 41.3156 126.216 41.5451 126.196 41.8319C126.196 44.1268 126.196 46.4216 126.196 48.7164C126.196 48.9268 126.196 49.1371 126.196 49.3858C126.388 49.4049 126.541 49.4431 126.674 49.4431C128.491 49.4431 130.289 49.4622 132.106 49.424C133.425 49.4049 134.745 49.2519 136.026 48.8694C137.326 48.4678 138.416 47.7794 139.296 46.7276C141.228 44.4519 142.337 41.8128 142.7 38.8678C142.968 36.7068 142.796 34.5459 142.222 32.4423C141.151 28.4454 138.512 26.1315 134.477 25.3474C133.291 25.1179 132.086 25.0606 130.882 25.0606C126.579 25.0606 122.276 25.0606 117.973 25.0606C117.725 25.0606 117.476 25.0606 117.17 25.0606Z" fill="white"/>
<path d="M187.545 16.7801C187.373 17.0096 187.258 17.1434 187.143 17.2773C184.734 20.1076 182.324 22.9379 179.934 25.7682C179.685 26.055 179.436 26.1889 179.035 26.1697C176.052 26.1506 173.087 26.1697 170.104 26.1697C169.454 26.1697 168.823 26.2462 168.23 26.4948C166.432 27.2215 165.457 29.4208 166.126 31.2375C166.318 31.773 166.643 32.1937 167.102 32.5188C167.637 32.8821 168.211 33.2646 168.804 33.5323C169.798 33.9913 170.831 34.4311 171.864 34.8136C173.642 35.4638 175.382 36.1905 177.065 37.0128C178.04 37.4909 178.978 38.0455 179.915 38.581C180.106 38.6766 180.259 38.8487 180.412 38.9825C182.286 40.6845 183.414 42.769 183.682 45.3125C183.95 47.8559 183.701 50.3228 182.649 52.675C181.062 56.2511 178.308 58.4695 174.617 59.6169C172.954 60.1332 171.252 60.3818 169.511 60.3818C163.679 60.3627 157.827 60.3818 151.994 60.3818C151.746 60.3818 151.497 60.3818 151.153 60.3818C151.287 60.1906 151.344 60.0759 151.42 59.9802C153.849 57.1117 156.278 54.2623 158.707 51.3938C158.936 51.126 159.185 51.0495 159.51 51.0495C162.474 51.0495 165.419 51.0687 168.383 51.0495C168.957 51.0495 169.55 50.9922 170.104 50.82C172.017 50.2081 173.107 48.0471 172.495 46.1156C172.303 45.5419 171.978 45.0638 171.481 44.7196C170.907 44.318 170.315 43.9356 169.683 43.6487C168.173 42.9985 166.624 42.4248 165.094 41.7937C162.895 40.8758 160.714 39.977 158.707 38.6766C158.362 38.4471 158.037 38.1411 157.731 37.8351C155.895 36.0375 154.977 33.8192 154.805 31.2757C154.671 29.2678 154.863 27.3172 155.551 25.4048C156.966 21.4653 159.758 18.9602 163.698 17.6406C165.61 17.0096 167.599 16.7418 169.607 16.7227C175.421 16.6844 181.253 16.7036 187.067 16.7036C187.201 16.7609 187.315 16.7609 187.545 16.7801Z" fill="white"/>
<path d="M32.8542 34.0487C33.6766 28.5793 36.4304 24.0853 40.7523 20.643C41.5172 20.0311 42.3204 19.4765 43.1236 18.9793L43.3531 18.4438C41.5172 19.2279 39.7387 20.2797 38.075 21.6183C33.7531 25.0797 31.0184 29.5546 30.1769 35.024C29.5076 39.4033 30.0048 43.381 31.5921 46.9571L33.2367 42.9794C32.51 40.2256 32.3762 37.2423 32.8542 34.0487Z" fill="#E12828"/>
<path d="M77.221 33.7809C76.3987 28.3115 73.6449 23.8175 69.323 20.3752C64.3508 16.3975 58.6329 14.925 52.3221 15.6708C49.1667 16.0533 46.2217 16.9903 43.487 18.5011C43.487 18.5011 43.1619 18.6732 42.9898 18.788C42.5308 19.0557 41.6129 19.7441 41.6129 19.7441C41.4217 19.878 41.2304 20.031 41.0392 20.184C36.526 23.741 33.6766 28.3498 32.816 33.9912C32.4145 36.6685 32.4145 39.212 32.8543 41.6024L32.816 41.6789C32.8925 41.9657 32.9499 42.2335 33.0264 42.5203C33.0838 42.7498 33.1411 42.9793 33.1985 43.1897L33.2176 43.1514C35.3404 50.1506 39.8344 55.0845 46.891 57.7045C50.6775 59.1196 54.5978 59.2917 58.5755 58.6606C62.8018 57.9913 66.6265 56.3849 69.8584 53.5738C75.8441 48.3148 78.4067 41.698 77.221 33.7809ZM64.6568 44.1267C63.2417 46.8231 61.0616 48.6973 58.0401 49.3283C53.8137 50.2271 49.989 49.4048 46.8528 46.2686C45.1316 44.5666 44.1563 42.4247 43.6974 40.0725C43.0663 36.8598 43.4105 33.7426 44.9213 30.8358C46.891 27.0685 50.0655 25.0796 54.311 24.7545C54.6361 24.7354 54.9803 24.7163 55.2863 24.6972C59.6464 24.7354 62.9166 26.6478 64.848 30.549C67.0664 35.0813 67.009 39.6518 64.6568 44.1267Z" fill="white"/>
<path d="M18.2248 48.6399C18.1674 48.7738 22.1833 39.9578 22.2216 39.8813L11.7036 15.4223C11.7227 15.4223 18.6072 38.6574 18.2248 48.6399Z" fill="#E12828"/>
<path d="M88.1214 49.3475C88.1214 49.118 88.1214 48.9268 88.1214 48.7164C88.1214 46.4216 88.1214 44.1267 88.1214 41.8319C88.1214 41.545 88.0831 41.3156 87.8728 41.0861C85.0425 37.8542 82.2122 34.6032 79.3819 31.3713C79.3054 31.2948 79.2289 31.2374 79.095 31.1227C79.095 31.1609 79.095 31.1801 79.095 31.2183C80.8735 33.7618 85.4441 40.761 88.1214 49.3475Z" fill="#DFDCDC"/>
<path d="M126.177 49.3475C126.177 49.118 126.177 48.9268 126.177 48.7164C126.177 46.4216 126.177 44.1267 126.177 41.8319C126.177 41.545 126.139 41.3156 125.929 41.0861C123.099 37.8542 120.268 34.6032 117.438 31.3713C117.361 31.2948 117.285 31.2374 117.151 31.1227C117.151 31.1609 117.151 31.1801 117.151 31.2183C118.949 33.7618 123.519 40.761 126.177 49.3475Z" fill="#DFDCDC"/>
<path d="M163.64 51.1068C162.264 51.1068 160.906 51.1068 159.529 51.1068C159.204 51.1068 158.955 51.1833 158.726 51.451C156.297 54.3196 153.868 57.1881 151.44 60.0375C151.363 60.1331 151.306 60.2479 151.172 60.4391C153.639 58.1634 158.056 54.4343 163.64 51.1068Z" fill="#DFDCDC"/>
</svg>
