<svg width="92" height="30" viewBox="0 0 92 30" fill="none" xmlns="http://www.w3.org/2000/svg">
<path d="M19.4542 0.339966L14.4958 12.7962V12.7869L11.6969 19.5989V19.6082L11.6413 19.7287L11.6505 19.7472L9.03696 28.2367L14.0973 28.2182L23.8195 4.63106L25.5248 0.339966H19.4542Z" fill="#838C9D"/>
<path d="M11.6413 19.7287L11.6876 19.6175L6.59946 7.76367H0.918152L8.87012 27.7085L9.03695 28.2368L11.6505 19.7472L11.6413 19.7287Z" fill="#838C9D"/>
<path d="M39.2507 28.9133C39.2507 24.3998 39.2507 19.9048 39.2507 15.3727C39.3156 15.4283 39.3619 15.4561 39.3897 15.4932C40.7614 17.0595 42.1331 18.635 43.5047 20.2013C43.5974 20.3126 43.6252 20.4238 43.6252 20.5628C43.6252 21.675 43.6252 22.7871 43.6252 23.8993C43.6252 24.0012 43.6252 24.1032 43.6252 24.2144C43.7179 24.2237 43.7735 24.2329 43.8384 24.2329C44.7188 24.2329 45.59 24.2422 46.4705 24.2329C47.11 24.2237 47.7495 24.1495 48.3704 23.9642C49.0192 23.7695 49.566 23.4174 50.0016 22.8983C50.9192 21.7954 51.4567 20.5257 51.6328 19.1077C51.7625 18.0604 51.6791 17.0131 51.4011 15.9937C50.8728 14.0566 49.5938 12.9445 47.6475 12.5645C47.0822 12.4533 46.5076 12.4255 45.933 12.4255C43.8384 12.4255 41.7438 12.4255 39.6492 12.4255C39.5287 12.4255 39.4083 12.4255 39.2692 12.4255C39.2692 10.8592 39.2692 9.32994 39.2692 7.77291C39.3434 7.76365 39.4175 7.74511 39.4824 7.74511C41.9755 7.74511 44.4593 7.71731 46.9524 7.77291C48.7875 7.80999 50.5577 8.21778 52.1889 9.12605C54.1815 10.2289 55.479 11.9065 56.2112 14.0474C56.5819 15.1225 56.7673 16.2346 56.8414 17.3653C56.9156 18.5609 56.8692 19.7565 56.6653 20.9428C56.4151 22.4071 55.8497 23.7417 54.9415 24.9188C54.4595 25.549 53.9591 26.1607 53.3566 26.6797C52.0962 27.7641 50.6226 28.3943 48.9914 28.6816C48.148 28.8299 47.2861 28.904 46.4334 28.904C44.1257 28.9133 41.8087 28.904 39.5009 28.904C39.4083 28.9226 39.3434 28.9226 39.2507 28.9133Z" fill="#838C9D"/>
<path d="M57.7034 12.4348C57.7034 10.8592 57.7034 9.33924 57.7034 7.79148C57.7775 7.78221 57.8517 7.76367 57.9166 7.76367C60.4189 7.76367 62.912 7.74513 65.4144 7.79148C66.8509 7.81928 68.2597 8.09732 69.6036 8.6534C72.0967 9.68215 73.7556 11.4987 74.6361 14.0289C75.0161 15.1132 75.2014 16.2347 75.2756 17.3746C75.3497 18.459 75.3127 19.5433 75.1551 20.6184C74.9234 22.2033 74.3673 23.6583 73.3756 24.9373C72.9586 25.4749 72.5415 26.0124 72.041 26.4758C70.7343 27.6899 69.1772 28.3943 67.4256 28.7094C66.5822 28.8577 65.7202 28.9319 64.8676 28.9319C62.5691 28.9411 60.2614 28.9319 57.9629 28.9319C57.8795 28.9319 57.7961 28.9226 57.7034 28.9133C57.7034 24.4091 57.7034 19.9141 57.7034 15.382C57.7683 15.4376 57.8239 15.4654 57.861 15.5117C59.2234 17.078 60.5858 18.6351 61.9574 20.2014C62.0501 20.3126 62.0872 20.4238 62.0779 20.5628C62.0779 21.675 62.0779 22.7872 62.0779 23.8993C62.0779 24.0013 62.0779 24.1032 62.0779 24.2237C62.1706 24.233 62.2447 24.2515 62.3096 24.2515C63.1901 24.2515 64.0613 24.2608 64.9417 24.2422C65.5812 24.233 66.2207 24.1588 66.8417 23.9735C67.4719 23.7788 68.0002 23.4452 68.4265 22.9354C69.3626 21.8325 69.9001 20.5536 70.0762 19.1263C70.206 18.079 70.1226 17.0317 69.8445 16.0122C69.3255 14.0752 68.0465 12.9538 66.091 12.5738C65.5164 12.4626 64.9325 12.4348 64.3486 12.4348C62.2633 12.4348 60.178 12.4348 58.0927 12.4348C57.9722 12.4348 57.8517 12.4348 57.7034 12.4348Z" fill="#838C9D"/>
<path d="M91.8098 8.42171C91.7264 8.53293 91.6707 8.59781 91.6151 8.66268C90.4474 10.0344 89.2796 11.406 88.1211 12.7777C88.0006 12.9167 87.8801 12.9816 87.6855 12.9723C86.2397 12.9631 84.8031 12.9723 83.3573 12.9723C83.0422 12.9723 82.7364 13.0094 82.4491 13.1299C81.5779 13.4821 81.1052 14.5479 81.4296 15.4283C81.5222 15.6879 81.6798 15.8917 81.9022 16.0493C82.1617 16.2254 82.4398 16.4108 82.7271 16.5405C83.209 16.7629 83.7095 16.9761 84.21 17.1615C85.0719 17.4766 85.9153 17.8288 86.7309 18.2273C87.2036 18.459 87.6577 18.7278 88.1118 18.9873C88.2045 19.0336 88.2786 19.117 88.3528 19.1819C89.2611 20.0068 89.8079 21.017 89.9376 22.2496C90.0674 23.4823 89.9469 24.6778 89.4372 25.8178C88.6679 27.5509 87.3333 28.626 85.5446 29.1821C84.7383 29.4323 83.9134 29.5528 83.07 29.5528C80.2433 29.5436 77.4072 29.5528 74.5805 29.5528C74.46 29.5528 74.3395 29.5528 74.1727 29.5528C74.2376 29.4601 74.2654 29.4045 74.3025 29.3582C75.4795 27.968 76.6565 26.5871 77.8336 25.1969C77.9448 25.0671 78.0653 25.03 78.2228 25.03C79.6594 25.03 81.0866 25.0393 82.5232 25.03C82.8012 25.03 83.0885 25.0022 83.3573 24.9188C84.2841 24.6222 84.8124 23.5749 84.5158 22.6389C84.4231 22.3608 84.2656 22.1291 84.0246 21.9623C83.7466 21.7677 83.4593 21.5823 83.1534 21.4433C82.4213 21.1282 81.6705 20.8501 80.9291 20.5443C79.8633 20.0994 78.8067 19.6638 77.8336 19.0336C77.6667 18.9224 77.5092 18.7741 77.3609 18.6258C76.4712 17.7546 76.0263 16.6795 75.9429 15.4469C75.878 14.4737 75.9707 13.5284 76.3043 12.6016C76.9902 10.6924 78.3433 9.47827 80.2525 8.83878C81.1793 8.53293 82.1432 8.40318 83.1164 8.39391C85.9338 8.37537 88.7606 8.38464 91.5781 8.38464C91.6429 8.41245 91.6985 8.41245 91.8098 8.42171Z" fill="#838C9D"/>
<path d="M16.8406 16.7907C17.2391 14.1401 18.5737 11.9621 20.6683 10.2939C21.039 9.99727 21.4283 9.7285 21.8176 9.48753L21.9288 9.22803C21.039 9.60802 20.1771 10.1178 19.3708 10.7665C17.2762 12.444 15.9509 14.6128 15.5431 17.2634C15.2187 19.3858 15.4597 21.3135 16.2289 23.0467L17.026 21.1189C16.6738 19.7843 16.6089 18.3385 16.8406 16.7907Z" fill="#838C9D"/>
<path d="M38.3425 16.661C37.944 14.0103 36.6094 11.8323 34.5148 10.1641C32.1051 8.23632 29.334 7.52268 26.2755 7.88413C24.7463 8.06949 23.319 8.52363 21.9937 9.2558C21.9937 9.2558 21.8361 9.33921 21.7527 9.39482C21.5303 9.52457 21.0854 9.85822 21.0854 9.85822C20.9927 9.9231 20.9 9.99724 20.8074 10.0714C18.6201 11.7952 17.2392 14.0288 16.8221 16.7629C16.6275 18.0604 16.6275 19.2931 16.8406 20.4516L16.8221 20.4887C16.8592 20.6277 16.887 20.7574 16.9241 20.8965C16.9519 21.0077 16.9797 21.1189 17.0075 21.2208L17.0167 21.2023C18.0455 24.5944 20.2235 26.9855 23.6434 28.2553C25.4785 28.9411 27.3784 29.0245 29.3061 28.7187C31.3544 28.3943 33.208 27.6158 34.7743 26.2534C37.6752 23.7047 38.9171 20.4979 38.3425 16.661ZM32.2534 21.675C31.5676 22.9818 30.511 23.89 29.0466 24.1959C26.9984 24.6315 25.1448 24.2329 23.6248 22.713C22.7907 21.8881 22.3181 20.8501 22.0956 19.7101C21.7898 18.1531 21.9566 16.6424 22.6888 15.2337C23.6434 13.4079 25.1819 12.444 27.2394 12.2864C27.3969 12.2772 27.5638 12.2679 27.712 12.2586C29.8252 12.2772 31.41 13.204 32.3461 15.0947C33.4212 17.2912 33.3934 19.5062 32.2534 21.675Z" fill="#838C9D"/>
<path d="M9.75061 23.8622C9.72281 23.9271 11.6691 19.6546 11.6876 19.6175L6.59021 7.76367C6.59948 7.76367 9.93597 19.0243 9.75061 23.8622Z" fill="#838C9D"/>
<path d="M43.6252 24.2051C43.6252 24.0939 43.6252 24.0012 43.6252 23.8993C43.6252 22.7871 43.6252 21.6749 43.6252 20.5628C43.6252 20.4238 43.6067 20.3125 43.5047 20.2013C42.1331 18.635 40.7614 17.0595 39.3897 15.4932C39.3527 15.4561 39.3156 15.4283 39.2507 15.3727C39.2507 15.3912 39.2507 15.4005 39.2507 15.419C40.1126 16.6517 42.3277 20.0438 43.6252 24.2051Z" fill="#838C9D"/>
<path d="M62.0686 24.2051C62.0686 24.0939 62.0686 24.0012 62.0686 23.8993C62.0686 22.7871 62.0686 21.6749 62.0686 20.5628C62.0686 20.4238 62.0501 20.3125 61.9481 20.2013C60.5765 18.635 59.2048 17.0595 57.8331 15.4932C57.7961 15.4561 57.759 15.4283 57.6941 15.3727C57.6941 15.3912 57.6941 15.4005 57.6941 15.419C58.5653 16.6517 60.7804 20.0438 62.0686 24.2051Z" fill="#838C9D"/>
<path d="M80.2247 25.0578C79.5574 25.0578 78.8994 25.0578 78.2321 25.0578C78.0745 25.0578 77.954 25.0949 77.8428 25.2246C76.6658 26.6148 75.4887 28.005 74.3117 29.386C74.2746 29.4323 74.2468 29.4879 74.1819 29.5806C75.3775 28.4777 77.5184 26.6704 80.2247 25.0578Z" fill="#838C9D"/>
</svg>
