<svg width="87" height="15" viewBox="0 0 87 15" fill="none" xmlns="http://www.w3.org/2000/svg">
<rect x="0.359741" y="0.558838" width="86.2684" height="13.8823" rx="6.94114" fill="#707D9B"/>
<path d="M71.3934 7.81439C71.4515 7.11377 71.2436 6.43123 70.811 5.89587L70.7862 5.86279C70.3114 5.29372 69.5992 4.96738 68.8322 4.96738C68.2195 4.96738 67.6145 5.16671 67.0829 5.5437C66.4664 5.98134 65.8657 6.98235 65.2827 7.95375L65.1302 8.20793C64.4472 9.34383 63.7412 10.5185 62.8059 11.1829C61.9636 11.7796 60.9968 12.0949 60.01 12.0949C58.6789 12.0949 57.4397 11.5072 56.6104 10.4824C55.8558 9.54834 55.4971 8.36658 55.6004 7.15473L57.4483 7.32195C57.3904 8.02243 57.5984 8.70497 58.0308 9.24027L58.0556 9.27336C58.5303 9.84242 59.2426 10.1688 60.0097 10.1688C60.6223 10.1688 61.2272 9.96944 61.7591 9.59245C62.3752 9.155 62.9756 8.15477 63.5592 7.1824L63.7122 6.92725C64.3951 5.79164 65.1009 4.61742 66.036 3.95322C66.8781 3.35658 67.845 3.04126 68.8319 3.04126C70.163 3.04126 71.4022 3.6289 72.2315 4.65375C72.9861 5.58795 73.3449 6.76971 73.2415 7.98141L71.3934 7.81439Z" fill="#242B35"/>
<path d="M73.2415 7.15473C73.3449 8.36643 72.9861 9.54824 72.2315 10.4824C71.4021 11.5072 70.163 12.0949 68.8319 12.0949C67.845 12.0949 66.8782 11.7796 66.036 11.1829C65.1009 10.5187 64.3951 9.34446 63.7122 8.2089L63.5592 7.95375C62.9756 6.98143 62.3752 5.9812 61.7591 5.5437C61.2272 5.16675 60.6223 4.96738 60.0097 4.96738C59.2426 4.96738 58.5303 5.29372 58.0556 5.86279L58.0308 5.89587C57.5984 6.43123 57.3904 7.11372 57.4483 7.8142L55.6004 7.98141C55.4971 6.76952 55.8558 5.58776 56.6104 4.65375C57.4398 3.62895 58.6789 3.04126 60.01 3.04126C60.9968 3.04126 61.9636 3.35658 62.8059 3.95322C63.7411 4.61762 64.4472 5.79231 65.1302 6.92822L65.2827 7.1824C65.8657 8.1538 66.4663 9.15481 67.0829 9.59245C67.6145 9.96939 68.2195 10.1688 68.8322 10.1688C69.5992 10.1688 70.3114 9.84242 70.7862 9.27336L70.811 9.24027C71.2436 8.70492 71.4515 8.02243 71.3934 7.32175L73.2415 7.15473Z" fill="#242B35"/>
<path d="M35.2481 12.1281C31.8496 12.1281 30.63 9.7096 30.6182 7.63842C30.6115 6.35833 31.0835 5.14812 31.9131 4.31791C32.7406 3.48881 33.8939 3.05078 35.2481 3.05078C36.4615 3.05078 37.5711 3.51058 38.457 4.3807L38.5818 4.50326L37.8707 5.18489C37.6984 5.34973 37.4668 5.44042 37.2187 5.44042C37.043 5.44042 36.8706 5.39278 36.7202 5.30237C36.2755 5.03533 35.7802 4.8998 35.2481 4.8998C34.4331 4.8998 33.7732 5.14745 33.2867 5.63598C32.7949 6.13051 32.5164 6.85943 32.5225 7.63571C32.5345 8.92543 33.2568 10.3036 35.248 10.3036C35.7617 10.3036 36.3159 10.1462 36.7685 9.87173L36.7981 9.85374C36.9481 9.76478 37.1194 9.71743 37.2929 9.71743C37.5607 9.71743 37.8184 9.82926 37.9999 10.0242L38.6871 10.7151L38.5648 10.8351C37.703 11.6811 36.5561 12.1281 35.2481 12.1281Z" fill="#242B35"/>
<path d="M44.8543 11.9489V8.56198H41.0745V11.9489H39.1458V4.19017C39.1458 3.66096 39.5783 3.23047 40.1099 3.23047C40.6411 3.23047 41.0732 3.66096 41.0732 4.19017L41.0745 6.76124H44.8541L44.8554 4.18954C44.8554 3.66062 45.2878 3.23047 45.8195 3.23047C46.3509 3.23047 46.7834 3.66096 46.7834 4.19017V11.9489H44.8543V11.9489Z" fill="#242B35"/>
<path d="M78.7619 11.9373L75.8065 8.84963V11.9371H73.8782L73.8764 4.17411C73.8764 3.64534 74.3081 3.21533 74.8385 3.21533C75.3695 3.21533 75.8014 3.64485 75.8014 4.17285L75.8073 6.48616L78.4829 3.52248C78.6541 3.32673 78.902 3.21533 79.1643 3.21533C79.6634 3.21533 80.0693 3.61965 80.0693 4.11669C80.0693 4.33595 79.9901 4.5467 79.8465 4.71028L77.1445 7.62932L81.3092 11.9392L78.7619 11.9373Z" fill="#242B35"/>
<path d="M26.285 11.9368V4.99495L23.6165 4.99336L23.6181 4.17799C23.6181 3.64908 24.0505 3.21907 24.5819 3.21907L29.9192 3.21704C30.451 3.21704 30.8837 3.64738 30.8837 4.17645L30.8846 4.99229L28.2143 4.99481V11.9368H26.285Z" fill="#242B35"/>
<path d="M21.8213 4.10724C21.5809 3.56715 21.0423 3.21802 20.4493 3.21802C19.8604 3.21802 19.3238 3.56333 19.0824 4.09761L15.548 11.9371H17.6414L18.3623 10.3572H22.5395L23.2483 11.9371H25.3542L21.8213 4.10724ZM19.1503 8.5444L20.4511 5.57423L21.7524 8.5444H19.1503Z" fill="#242B35"/>
<path d="M13.1595 11.9362V6.19525L10.7375 9.49428H10.1637L7.74203 6.19554V11.9361H5.81348V4.34207C5.81348 3.62292 6.3961 3.03784 7.11219 3.03784C7.54003 3.03784 7.94018 3.24859 8.18269 3.60192L10.4506 6.71086L12.7208 3.59844C12.9623 3.24636 13.3608 3.03784 13.7889 3.03784C14.5053 3.03784 15.0882 3.62292 15.0882 4.34207V11.9362H13.1595Z" fill="#242B35"/>
<path d="M54.4441 7.4348L54.3792 7.36617L54.4343 7.28965C54.7082 6.9084 54.8732 6.46321 54.9112 6.0023C54.9702 5.28614 54.7327 4.59963 54.242 4.06931C53.7321 3.518 52.9995 3.2019 52.2321 3.2019H48.699C48.1502 3.2019 47.7037 3.64642 47.7037 4.19299V11.9362L52.4944 11.935C53.9733 11.935 55.1763 10.7365 55.1763 9.26316C55.1764 8.58333 54.9163 7.93393 54.4441 7.4348ZM49.6081 4.9876H52.2117C52.6549 4.9876 53.0156 5.34694 53.0156 5.78846C53.0156 6.23012 52.655 6.58945 52.2121 6.58945L49.6081 6.58993V4.9876ZM52.3831 10.1494L49.6081 10.1501V8.37733H52.3826C52.873 8.37733 53.272 8.77468 53.272 9.26321C53.272 9.75189 52.8732 10.1494 52.3831 10.1494Z" fill="#242B35"/>
</svg>
