<svg width="73" height="9" viewBox="0 0 73 9" fill="none" xmlns="http://www.w3.org/2000/svg">
<path fill-rule="evenodd" clip-rule="evenodd" d="M2.30675 0.623139C2.11688 0.679317 1.87831 0.793611 1.7765 0.877032C1.25619 1.30321 0.869081 2.77875 1.04436 3.6678C1.1902 4.40756 1.43637 4.57307 3.16744 5.09599C4.05818 5.36502 4.86858 5.58513 4.96842 5.58513C5.2157 5.58513 5.33247 6.00538 5.16884 6.30698C5.04128 6.54223 4.92426 6.55373 2.65338 6.55373H0.271615L0.143929 7.00776C0.0736461 7.25753 0.0158744 7.6388 0.0155065 7.85528L0.0147705 8.24877H3.18571C6.28588 8.24877 6.36598 8.2426 6.77345 7.97187C7.2772 7.63722 7.5024 7.05837 7.58372 5.88782C7.68295 4.46193 7.36907 4.09192 5.74043 3.71478C3.74381 3.25239 3.2181 2.98457 3.45372 2.54992C3.57209 2.33162 3.73375 2.31612 5.89093 2.31612H8.20143L8.28177 1.80156C8.32593 1.51848 8.39437 1.10998 8.43374 0.893498L8.5055 0.500006L5.57864 0.510418C3.96901 0.516109 2.49662 0.566839 2.30675 0.623139ZM9.79904 1.3778C9.69135 1.86064 9.48308 2.90939 9.33613 3.70848C9.18931 4.50757 8.90855 5.8274 8.7123 6.64139C8.51604 7.45537 8.35549 8.20446 8.35549 8.30616C8.35549 8.45799 8.55014 8.49092 9.44616 8.49092C10.6558 8.49092 10.617 8.52143 10.7568 7.46191C10.7831 7.26226 10.8608 6.82639 10.9292 6.49331C10.9977 6.16024 11.0676 5.75161 11.0845 5.58513L11.1153 5.28245L12.758 5.24855L14.4008 5.21465L14.3133 5.91446C14.2109 6.73425 14.1782 6.91417 14.0865 7.1591C14.0491 7.25899 13.9871 7.60151 13.9485 7.9203L13.8785 8.5L15.0114 8.46513L16.1442 8.43038L16.2831 7.82501C16.3595 7.49206 16.5704 6.3479 16.7516 5.28245C17.2042 2.62256 17.344 1.9529 17.4465 1.9529C17.5246 1.9529 17.8001 0.91069 17.8001 0.615148C17.8001 0.550857 17.3108 0.500006 16.6924 0.500006C15.4998 0.500006 15.5164 0.490562 15.4188 1.22645C15.3879 1.45952 15.3067 1.86815 15.2384 2.13451C15.1702 2.40087 15.0813 2.82318 15.0411 3.07284L14.9678 3.52687H13.3078H11.6477L11.7123 3.19391C11.7477 3.01085 11.8122 2.61578 11.8556 2.31612C11.8989 2.01646 12.0124 1.53786 12.1075 1.25248C12.2026 0.967111 12.2805 0.681133 12.2805 0.616843C12.2805 0.550131 11.7903 0.500006 11.1377 0.500006H9.99493L9.79904 1.3778ZM21.6339 0.795185C21.2918 1.07935 20.6763 2.04383 19.7019 3.82289C19.4486 4.2854 19.1103 4.88472 18.9502 5.15471C18.7901 5.42471 18.4002 6.0951 18.0838 6.64453C17.7497 7.2246 17.4282 7.64376 17.317 7.64413C17.1242 7.64497 16.6356 8.35047 16.7499 8.46319C16.8262 8.5385 17.2526 8.25749 17.7474 7.80564C18.4671 7.14833 19.0961 6.61245 19.5009 6.31158C19.7249 6.1451 20.2129 5.76929 20.5854 5.47641C21.1726 5.01475 21.2504 4.98194 21.1707 5.22966C21.1202 5.38681 20.9404 5.62291 20.7711 5.75427C20.6019 5.88576 20.0987 6.2801 19.653 6.63073C19.2074 6.98124 18.6826 7.39072 18.487 7.54049C17.8645 8.01728 18.3413 7.91449 19.7164 7.27558C20.4501 6.93463 21.3265 6.5277 21.6638 6.37139C22.0011 6.21508 22.5807 5.96688 22.9517 5.82002C23.3228 5.67303 23.8471 5.45389 24.117 5.33294C24.822 5.01681 27.021 4.12195 27.2818 4.04495C27.4626 3.99155 27.4902 4.03211 27.4336 4.26784C27.3391 4.66218 27.0159 6.44985 26.8731 7.36844C26.8086 7.78324 26.7416 8.19187 26.7243 8.2765C26.6836 8.47518 28.6649 8.56296 28.8971 8.37275C28.9833 8.30217 29.0836 7.98652 29.1199 7.67149C29.1899 7.06491 29.3537 6.18772 29.6563 4.80033C29.7576 4.33552 29.8707 3.70896 29.9077 3.40797C30.0469 2.27072 29.9934 2.30389 31.6282 2.34252C33.0431 2.37605 33.0717 2.38223 33.1123 2.66494C33.1776 3.12078 33.0271 3.70485 32.7758 3.97121C32.5885 4.16965 32.3308 4.22946 31.4103 4.28843C30.7864 4.32826 30.2154 4.42052 30.1414 4.49353C29.9268 4.70541 30.0097 5.83963 30.2744 6.31158C30.4051 6.54465 30.7443 7.09554 31.0279 7.53564L31.5437 8.33594L32.2947 8.41343C33.307 8.51792 34.2362 8.51126 34.2362 8.39963C34.2362 8.34938 33.8798 7.79099 33.4442 7.15862L32.6522 6.00889L33.3634 5.93831C33.7709 5.89787 34.2122 5.76856 34.3969 5.63562C35.4043 4.91039 35.7915 1.89551 34.9802 1.0946C34.705 0.823033 34.5192 0.769154 33.6209 0.700384C33.0487 0.656555 31.7917 0.622775 30.8278 0.625197C29.864 0.627618 29.036 0.606915 28.988 0.579068C28.7902 0.46441 28.3622 0.750388 28.168 1.12681C28.0538 1.34813 27.8643 2.01792 27.7469 2.61542L27.5335 3.7017L26.7951 3.73233C26.3891 3.74916 25.7055 3.84384 25.2761 3.94264C24.8468 4.04156 24.49 4.11105 24.4834 4.09713C24.4525 4.03235 24.1765 2.5665 24.1139 2.13451C24.0754 1.86815 24.0176 1.57442 23.9856 1.4818C23.9536 1.38918 24.0173 1.17802 24.1272 1.01251C24.4073 0.590448 24.2154 0.504122 22.9918 0.501822C22.1066 0.500248 21.9477 0.534512 21.6339 0.795185ZM47.856 0.839862C47.6195 1.07329 47.4641 1.42659 47.3193 2.05981C47.207 2.55004 47.116 3.03991 47.1169 3.14827C47.1185 3.35664 46.8538 4.66194 46.5571 5.90768C46.3413 6.8138 46.3254 8.02599 46.5265 8.22456C46.7325 8.42784 52.5145 8.42845 53.0838 8.22528C53.9802 7.90528 54.5791 5.45353 53.9332 4.74899C53.6594 4.4503 53.6889 4.34279 54.1086 4.10694C54.5867 3.83839 54.7204 3.46379 54.7182 2.39906C54.7162 1.42453 54.5499 0.988662 54.1032 0.786952C53.9228 0.705469 52.6649 0.622049 50.9945 0.580763L48.1889 0.511266L47.856 0.839862ZM56.9657 0.677501C56.5494 0.856207 56.3976 1.21156 56.1883 2.49773C55.9705 3.83573 55.7101 5.2253 55.5947 5.66504C55.3835 6.47055 55.3059 7.6842 55.4431 8.03689L55.5725 8.36985H58.826H62.0795V7.97551C62.0795 7.75866 62.1309 7.40452 62.1936 7.18852L62.3076 6.79588H60.0433C58.3429 6.79588 57.765 6.75822 57.7237 6.64453C57.6934 6.56136 57.7096 6.22077 57.7596 5.88782L57.8506 5.28245L60.1394 5.24952L62.4283 5.21658L62.5606 4.60794C62.7863 3.56912 62.9612 3.64794 60.4314 3.64794H58.1699L58.2333 3.19391C58.2682 2.94426 58.3568 2.61736 58.4303 2.46747C58.5616 2.19977 58.6027 2.19505 60.793 2.19505H63.0219L63.1535 1.74102C63.2259 1.49136 63.3218 1.10998 63.3667 0.893498L63.4482 0.500006L60.4027 0.504728C58.0831 0.50836 57.2638 0.549525 56.9657 0.677501ZM63.9744 0.954035C63.971 1.20381 63.9434 1.57151 63.9131 1.77129L63.858 2.13451L65.3115 2.16878C66.7432 2.20243 66.764 2.20703 66.6989 2.47146C66.6626 2.61905 66.4327 3.72059 66.1882 4.91922C65.9435 6.11786 65.6642 7.36723 65.5673 7.6957C65.4705 8.02406 65.3913 8.33728 65.3913 8.39188C65.3913 8.44636 65.9122 8.49092 66.549 8.49092H67.7067L67.7842 7.91582C67.8267 7.59957 67.9368 6.95933 68.0286 6.49319C68.1205 6.02706 68.2817 5.18256 68.3869 4.61654C68.492 4.05051 68.6376 3.27419 68.7105 2.89123L68.8431 2.19505H70.3005H71.7579L71.8856 1.74102C71.9559 1.49136 72.0137 1.10998 72.014 0.893498L72.0148 0.500006H67.9977H63.9807L63.9744 0.954035ZM37.3512 0.925946C37.2474 1.0825 37.0895 1.60917 37.0004 2.09625C36.9114 2.58346 36.7161 3.63583 36.5665 4.43493C36.417 5.23402 36.2733 6.05127 36.2475 6.25104C36.2216 6.45082 36.1158 6.98512 36.0126 7.4383C35.9093 7.89148 35.8569 8.31367 35.8963 8.37663C36.0073 8.55388 38.0046 8.52058 38.1231 8.33958C38.1776 8.2564 38.305 7.69788 38.4063 7.09856L38.5906 6.00889L40.6723 5.9871C43.1168 5.96143 43.4239 5.91736 43.8451 5.53198C44.5376 4.89852 44.9201 2.55452 44.4948 1.54996C44.1829 0.812983 44.0577 0.785742 40.6412 0.71007L37.5401 0.641421L37.3512 0.925946ZM52.1976 2.19202C52.5686 2.33126 52.6263 2.8279 52.3212 3.25772C52.1428 3.50943 52.0385 3.52687 50.7159 3.52687H49.3015L49.3879 3.0123C49.5424 2.09117 49.5683 2.07397 50.7913 2.07397C51.3917 2.07397 52.0245 2.12713 52.1976 2.19202ZM42.1586 2.45633C42.4648 2.75913 42.1825 3.86006 41.7575 4.01952C41.4633 4.12994 38.7746 4.1837 38.7746 4.07921C38.7746 3.94022 39.1679 2.37351 39.2262 2.28041C39.2627 2.22205 39.8917 2.19263 40.6241 2.2149C41.6611 2.24663 42.0005 2.30002 42.1586 2.45633ZM22.3895 3.31499C22.4201 3.46488 22.4721 3.78669 22.505 4.03042L22.5648 4.47331L21.977 4.51471L21.3893 4.556L21.7676 3.79929C22.1738 2.98639 22.3019 2.88663 22.3895 3.31499ZM24.2396 5.63586C23.189 6.11096 22.4611 6.54102 22.4611 6.68679C22.4611 6.74672 22.6731 6.79588 22.9321 6.79588H23.403L23.565 7.6434L23.7271 8.49092H24.8577H25.9885L25.8933 7.97635C25.8409 7.6934 25.7316 7.0804 25.6505 6.61427C25.3655 4.98012 25.4934 5.06887 24.2396 5.63586ZM51.6229 5.29819C51.8415 5.35606 51.8989 5.45813 51.8989 5.78878C51.8989 6.63097 51.8147 6.6748 50.1978 6.6748C49.402 6.6748 48.725 6.6495 48.6936 6.6185C48.6622 6.58751 48.6925 6.26061 48.7609 5.89206L48.8852 5.22191L50.1161 5.2236C50.793 5.22445 51.4711 5.25811 51.6229 5.29819Z" fill="white"/>
</svg>
