<svg width="86" height="28" viewBox="0 0 86 28" fill="none" xmlns="http://www.w3.org/2000/svg">
<path d="M17.2072 9.45274C17.181 9.51324 17.1651 9.57778 17.1298 9.6845C17.2261 9.63387 17.2813 9.60976 17.3311 9.57801C18.8324 8.61453 20.5557 8.00908 22.3552 7.81288C25.3249 7.47824 28.0162 8.13642 30.3602 9.91834C32.3937 11.4642 33.6841 13.4715 34.0743 15.9211C34.6383 19.4612 33.4297 22.4259 30.5972 24.7715C29.0768 26.0306 27.2758 26.7511 25.2863 27.0502C23.4168 27.3313 21.5691 27.248 19.79 26.6182C16.2386 25.3611 14.0645 22.9296 13.1649 19.4473L17.2072 9.45274ZM23.7534 11.8625C23.6046 11.8697 23.4489 11.874 23.2937 11.8853C21.3022 12.0311 19.8074 12.9209 18.8788 14.6077C18.161 15.9116 17.9982 17.3031 18.2987 18.7418C18.5193 19.7975 18.9806 20.7491 19.7875 21.5146C21.2638 22.9152 23.0653 23.2824 25.0527 22.8804C26.4737 22.5929 27.498 21.7532 28.1638 20.5485C29.2692 18.5486 29.2977 16.5012 28.2506 14.4809C27.345 12.7337 25.8075 11.8837 23.7534 11.8625Z" fill="white"/>
<path d="M34.9571 27.2384V14.738C35.0058 14.7723 35.0522 14.8096 35.0958 14.8497C36.4267 16.2987 37.7577 17.7476 39.0889 19.1963C39.1721 19.288 39.2136 19.4074 39.2043 19.5281C39.2012 20.5551 39.2026 21.5821 39.2026 22.6092V22.9035C39.2886 22.9118 39.3499 22.9228 39.4112 22.9229C40.2629 22.9231 41.1147 22.9288 41.9663 22.9187C42.5896 22.9185 43.2098 22.8363 43.8093 22.6745C44.4297 22.505 44.9815 22.1608 45.3921 21.6874C46.2848 20.6704 46.8015 19.4978 46.9746 18.189C47.0985 17.2271 47.0219 16.2515 46.749 15.3178C46.2394 13.5323 44.9975 12.4991 43.0999 12.1521C42.5498 12.059 41.9915 12.0159 41.4328 12.0233C39.3996 12.0223 37.3665 12.0221 35.3333 12.0229H34.9632V7.73111C35.033 7.71888 35.1036 7.71078 35.1745 7.70687C37.5923 7.71097 40.0107 7.68406 42.4275 7.73269C44.2125 7.76861 45.9304 8.14525 47.5087 8.98009C49.4405 10.0019 50.6998 11.5509 51.411 13.5212C51.7696 14.5148 51.9549 15.5401 52.0243 16.5873C52.1035 17.6909 52.0453 18.7996 51.851 19.8902C51.6036 21.2417 51.0612 22.4709 50.1768 23.5641C49.7066 24.1453 49.222 24.7097 48.6346 25.1889C47.4074 26.1902 45.978 26.7721 44.3967 27.0401C43.5756 27.1767 42.7434 27.2449 41.9098 27.2441C39.666 27.2494 37.4223 27.2508 35.1785 27.2481C35.1148 27.2481 35.0511 27.2427 34.9571 27.2384Z" fill="white"/>
<path d="M52.8759 12.0229V7.73467C52.9448 7.72078 53.0147 7.71155 53.0851 7.70707C55.512 7.71114 57.9393 7.69352 60.3656 7.73144C61.7611 7.75139 63.1402 8.02075 64.431 8.52544C66.8547 9.47156 68.4616 11.1499 69.3184 13.4894C69.6847 14.4897 69.8713 15.5239 69.9425 16.58C70.012 17.5793 69.9722 18.5827 69.8237 19.5742C69.6019 21.0392 69.0586 22.3782 68.0991 23.5579C67.6953 24.0545 67.2893 24.5464 66.8043 24.9753C65.5327 26.0998 64.0197 26.7502 62.3226 27.0392C61.5015 27.1762 60.6694 27.2447 59.8357 27.2439C57.6011 27.2495 55.3665 27.2509 53.1319 27.2479C53.0519 27.2479 52.9719 27.2398 52.8778 27.2346V14.7443C52.9305 14.7807 52.9805 14.8205 53.0273 14.8636C54.3522 16.306 55.6771 17.7485 57.0019 19.191C57.0867 19.2813 57.1303 19.4 57.1231 19.5208C57.119 20.5478 57.1208 21.5749 57.1208 22.6019C57.1208 22.6963 57.1208 22.7908 57.1208 22.9013C57.2094 22.91 57.2793 22.9227 57.3492 22.9228C58.2009 22.9232 59.0527 22.9291 59.9043 22.9183C60.5276 22.9176 61.1477 22.8337 61.7465 22.6691C62.3483 22.5023 62.8845 22.1694 63.2873 21.7127C64.1929 20.6936 64.7162 19.5142 64.8919 18.1962C65.0166 17.2345 64.9409 16.2588 64.6692 15.3249C64.1621 13.5387 62.9227 12.503 61.0257 12.1532C60.4666 12.0584 59.8991 12.0149 59.3312 12.0232C57.3072 12.0225 55.2832 12.0224 53.2592 12.0229L52.8759 12.0229Z" fill="white"/>
<path d="M86 8.31389C85.916 8.41502 85.8674 8.47741 85.8146 8.53643C84.6825 9.80375 83.5511 11.0717 82.4204 12.3401C82.3718 12.4011 82.308 12.4498 82.2349 12.4818C82.1617 12.5138 82.0814 12.5282 82.001 12.5236C80.5997 12.5172 79.1983 12.521 77.797 12.5195C77.4942 12.5134 77.193 12.5637 76.9106 12.6676C76.0627 12.9945 75.6048 13.9766 75.9179 14.794C76.0042 15.0261 76.1659 15.226 76.3797 15.3648C76.6328 15.5364 76.9 15.6881 77.1788 15.8187C77.6511 16.028 78.1329 16.2209 78.6216 16.3927C79.4554 16.6826 80.2732 17.0125 81.0718 17.3811C81.5312 17.5951 81.9716 17.8463 82.4171 18.0867C82.5014 18.1389 82.5795 18.1998 82.65 18.268C83.5343 19.0295 84.0623 19.9654 84.1888 21.0998C84.3158 22.2374 84.1949 23.3434 83.7051 24.3964C82.9616 25.995 81.6615 26.9928 79.9274 27.5059C79.1482 27.7365 78.3365 27.8522 77.5204 27.8491C74.7727 27.8434 72.025 27.8426 69.2773 27.8469H68.8827C68.9209 27.7841 68.9626 27.7233 69.0076 27.6646C70.1505 26.3832 71.2931 25.1015 72.4355 23.8197C72.5433 23.6982 72.66 23.6672 72.8164 23.6676C74.2085 23.6715 75.6008 23.6752 76.9929 23.6651C77.2668 23.6681 77.5398 23.6328 77.803 23.5604C78.7072 23.2896 79.2137 22.3177 78.9262 21.4572C78.8462 21.2044 78.678 20.9849 78.4493 20.8351C78.1784 20.659 77.9011 20.4807 77.602 20.3573C76.8889 20.0633 76.1584 19.8076 75.4402 19.5244C74.4087 19.1176 73.3765 18.7093 72.437 18.1252C72.2731 18.0145 72.1208 17.8889 71.9824 17.7501C71.1182 16.9447 70.6826 15.9565 70.6076 14.816C70.5487 13.9203 70.6345 13.0409 70.9565 12.1926C71.6248 10.4315 72.9356 9.30524 74.7867 8.72159C75.6861 8.44562 76.6259 8.30679 77.571 8.31025C80.3095 8.29614 83.0481 8.30459 85.7866 8.30455C85.8395 8.30453 85.8924 8.30902 86 8.31389Z" fill="white"/>
<path d="M21.6287 0.849121H15.7361L10.8078 12.6149L19.9681 4.81534L21.6287 0.849121Z" fill="white"/>
<path d="M19.9681 4.81534L10.8078 12.6149L10.5333 26.5899L19.9681 4.81534Z" fill="#C4C4C4"/>
<path d="M10.9161 12.3478L10.5333 26.5899L8.14949 18.7524L10.9161 12.3478Z" fill="#C4C4C4"/>
<path d="M5.51755 13.3678L5.34345 25.7971L5.61701 26.6104L8.29429 18.8511L5.51755 13.3678Z" fill="#C4C4C4"/>
<path d="M8.20016 18.6323L5.61701 26.6104L10.5333 26.5899L8.20016 18.6323Z" fill="white"/>
<path d="M5.51755 13.3678H0L5.51755 26.273V13.3678Z" fill="white"/>
</svg>
