<svg width="71" height="23" viewBox="0 0 71 23" fill="none" xmlns="http://www.w3.org/2000/svg">
<path d="M1.18313 14.0466C2.37413 14.6888 3.68421 15.031 5.01502 15.0475C6.59934 15.0366 7.43292 14.3213 7.42652 13.2441C7.42046 12.2168 6.69256 11.6338 4.8552 10.937C2.31406 9.99994 0.652561 8.49363 0.638369 6.09511C0.621781 3.28003 2.78221 1.11159 6.38127 1.08669C7.7192 1.05034 9.04875 1.32488 10.2801 1.89175L9.52837 4.90753C8.53008 4.3941 7.43655 4.13378 6.33114 4.14642C4.83717 4.15677 4.11709 4.89616 4.12215 5.75314C4.12839 6.80544 4.99204 7.26387 6.96628 8.05836C9.66577 9.11693 10.9429 10.6258 10.9567 12.9506C10.9729 15.7169 9.01736 18.0802 4.82939 18.1092C3.08651 18.1212 1.36294 17.6429 0.5 17.1356L1.18313 14.0466Z" fill="#838C9D"/>
<path d="M15.704 2.48989C15.71 3.51824 14.9905 4.35535 13.8579 4.36317C12.7722 4.37068 12.0428 3.54362 12.0589 2.51511C12.0305 1.43905 12.7501 0.62589 13.8588 0.618219C14.9685 0.610508 15.6745 1.41385 15.704 2.48989ZM12.2397 17.8125L12.1689 5.84373L15.6103 5.81994L15.6812 17.7887L12.2397 17.8125Z" fill="#838C9D"/>
<path d="M17.4269 9.62631C17.418 8.13255 17.3653 6.86036 17.314 5.8083L20.3019 5.78762L20.4701 7.42676L20.5384 7.42627C20.9136 6.82395 21.4214 6.33196 22.0161 5.99457C22.6109 5.65717 23.2739 5.48497 23.9455 5.49346C26.209 5.47779 27.9163 7.08136 27.9371 10.6059L27.9791 17.7039L24.5386 17.7277L24.4994 11.0951C24.4902 9.55254 23.9854 8.5037 22.7412 8.51229C21.79 8.51887 21.2283 9.2323 21.0057 9.91945C20.9095 10.2183 20.8654 10.5339 20.8757 10.8502L20.9165 17.7528L17.4751 17.7766L17.4269 9.62631Z" fill="#838C9D"/>
<path d="M40.2797 5.64926C40.2391 6.40793 40.1997 7.41168 40.2102 9.19938L40.25 15.8808C40.2634 18.1817 39.8444 20.069 38.6061 21.2774C37.3907 22.4119 35.7402 22.7661 34.1097 22.7774C32.6611 22.7874 31.1201 22.4792 30.1202 21.8742L30.7828 19.0545C31.7721 19.6323 32.8783 19.9359 34.0028 19.938C35.6322 19.9268 36.8716 18.9635 36.8587 16.7613L36.8541 15.978L36.809 15.9784C36.1587 16.9864 35.0985 17.5567 33.8302 17.5655C31.0909 17.5844 29.1303 15.1994 29.11 11.7475C29.0872 7.90509 31.3814 5.44176 34.0975 5.42297C35.6147 5.41246 36.57 6.11541 37.1417 7.09104L37.1869 7.09073L37.2918 5.66993L40.2797 5.64926ZM36.7767 10.5445C36.7778 10.3139 36.7538 10.084 36.7055 9.8594C36.45 8.8826 35.7897 8.22546 34.8386 8.23201C33.5944 8.24063 32.5822 9.47237 32.5951 11.6507C32.6056 13.4374 33.4286 14.8268 34.8775 14.8168C35.2923 14.8143 35.6948 14.6625 36.0209 14.3854C36.3473 14.1084 36.5789 13.7218 36.6795 13.2866C36.763 12.968 36.7993 12.6372 36.7873 12.3063L36.7767 10.5445Z" fill="#838C9D"/>
<path d="M43.1426 1.32218C44.328 1.07661 45.5325 0.953489 46.7394 0.954474C48.7091 0.940854 49.9794 1.29978 50.9347 2.12527C51.7311 2.75556 52.2124 3.73182 52.2199 5.02921C52.2293 6.61958 51.2643 8.02139 49.6607 8.66924L49.661 8.71807C51.1122 9.09966 52.8176 10.3854 52.8322 12.8327C52.8447 13.4501 52.7381 14.0636 52.5194 14.634C52.3005 15.2045 51.9743 15.7194 51.5613 16.146C50.5031 17.2057 48.7863 17.7069 46.2957 17.7241C45.2744 17.7393 44.2531 17.6811 43.2386 17.55L43.1426 1.32218ZM45.1521 8.06373L46.94 8.05137C49.023 8.03694 50.2381 6.85372 50.2287 5.26325C50.2172 3.32907 48.8543 2.58015 46.8626 2.59392C46.2783 2.58135 45.6946 2.63449 45.1206 2.75246L45.1521 8.06373ZM45.1989 15.9698C45.7469 16.0456 46.2997 16.0745 46.852 16.0561C48.8886 16.042 50.7632 15.2218 50.7489 12.8223C50.7358 10.5712 48.9421 9.6529 46.7911 9.66776L45.1618 9.67905L45.1989 15.9698Z" fill="#838C9D"/>
<path d="M55.2542 11.9832C55.3168 14.8957 57.0444 16.0825 59.0362 16.0688C60.462 16.0589 61.3213 15.7839 62.0656 15.4359L62.4149 16.9762C61.7146 17.3238 60.518 17.7237 58.7741 17.7358C55.4008 17.7591 53.3719 15.3745 53.3508 11.8001C53.3296 8.22671 55.2605 5.39918 58.4522 5.37709C62.029 5.35239 63.0003 8.74777 63.0132 10.9261C63.0115 11.2618 62.9906 11.5971 62.9509 11.93L55.2542 11.9832ZM61.0857 10.4003C61.0997 9.02997 60.5443 6.90426 58.3027 6.91974C56.2881 6.93377 55.4168 8.94671 55.2673 10.4405L61.0857 10.4003Z" fill="#838C9D"/>
<path d="M67.8346 2.1792L67.8546 5.58119L70.7073 5.56147L70.717 7.20068L67.8643 7.22042L67.9023 13.6089C67.9109 15.0777 68.3002 15.9071 69.4099 15.8995C69.7989 15.9026 70.1865 15.8507 70.563 15.745L70.6636 17.3597C70.0982 17.5783 69.4999 17.6821 68.8996 17.6659C67.9715 17.6723 67.222 17.3586 66.7429 16.775C66.1735 16.1421 65.9634 15.0912 65.9551 13.6961L65.9168 7.23393L64.2192 7.24567L64.2095 5.60644L65.9071 5.59473L65.8905 2.75572L67.8346 2.1792Z" fill="#838C9D"/>
</svg>
