<svg width="53" height="19" viewBox="0 0 53 19" fill="none" xmlns="http://www.w3.org/2000/svg">
<path d="M39.4668 11.2109C39.6076 11.6386 39.983 11.9237 40.4054 11.9237H40.4523C40.9686 11.8761 41.344 11.4485 41.344 10.8783C41.344 10.6883 41.2971 10.4507 41.2032 10.3082C41.0624 10.1181 40.8747 9.97555 40.64 9.88052C40.5462 9.88052 40.4523 9.83301 40.3585 9.83301C39.7953 9.83301 39.3729 10.2606 39.3729 10.8783C39.4198 11.0209 39.4668 11.1159 39.4668 11.2109Z" fill="white"/>
<path d="M45.2394 0.234619L35.4307 4.84356L37.4488 9.88014C37.6834 9.40499 38.0589 9.02487 38.5282 8.83481C38.5282 8.7873 38.4813 8.7873 38.4813 8.73978C38.1058 8.45469 37.8242 7.97954 37.7304 7.5044C37.6365 7.07676 37.6834 6.64913 37.8711 6.26901C38.0119 5.84138 38.2935 5.46126 38.622 5.22368C39.1383 4.84356 39.7484 4.60599 40.4054 4.6535C41.1094 4.6535 41.8134 4.89108 42.3766 5.36623C43.1744 6.12646 43.5029 7.64694 42.5643 8.59724C42.4704 8.69227 42.4235 8.73978 42.3296 8.83481V8.88233C42.752 9.07239 43.0805 9.35748 43.3152 9.7376C43.456 9.54754 43.5968 9.35748 43.7845 9.21493C43.9722 9.07239 44.16 8.92984 44.3477 8.83481C43.3152 7.97955 43.3621 6.8867 43.7376 6.12646C44.3946 4.60599 46.6473 4.13084 48.0083 5.22368C49.0878 6.07895 49.3224 7.88452 48.1961 8.7873C48.1491 8.83481 48.1491 8.83481 48.1491 8.88233C49.7448 9.59505 49.9795 11.8758 48.6654 13.1112C47.4452 14.2515 45.3802 14.299 44.0661 13.2537C43.7845 13.0161 43.5968 12.7785 43.4091 12.4935C43.2683 12.6835 43.0805 12.8736 42.8928 13.0636C42.8459 13.1112 42.752 13.2062 42.7051 13.2537C42.6112 13.3487 42.5174 13.3962 42.3766 13.4913C42.3766 13.4913 42.3296 13.4913 42.3296 13.5388C41.9072 13.8239 41.4379 13.9664 40.9217 14.0139C40.3585 14.0615 39.8423 14.0139 39.326 13.8239C39.2791 13.8239 39.1852 13.7764 39.1383 13.7764C39.0914 13.7764 39.0914 13.7288 39.0444 13.7288L39.9361 16.0096L47.1166 18.7654L52.2791 7.02925L45.2394 0.234619Z" fill="white"/>
<path d="M46.2249 11.971C46.7411 11.971 47.1635 11.4959 47.1635 10.9257C47.1635 10.308 46.7881 9.88037 46.178 9.88037C45.6148 9.88037 45.1924 10.308 45.1924 10.9257C45.1924 11.5434 45.6148 11.971 46.2249 11.971Z" fill="white"/>
<path d="M45.3801 7.31446C45.3801 7.78961 45.7086 8.12221 46.1779 8.16973C46.6472 8.16973 47.0227 7.78961 47.0227 7.31446C47.0227 6.88682 46.6472 6.5067 46.2248 6.5067C45.7086 6.45919 45.3801 6.83931 45.3801 7.31446Z" fill="white"/>
<path d="M40.4054 8.16986C40.734 8.16986 41.0625 7.93228 41.2033 7.59968C41.2502 7.50465 41.2502 7.40962 41.2502 7.31459C41.2502 6.83944 40.9217 6.50684 40.4054 6.50684C40.3585 6.50684 40.3585 6.50684 40.3116 6.50684C39.8892 6.55435 39.5607 6.88695 39.5607 7.31459C39.5607 7.3621 39.5607 7.40962 39.5607 7.45713C39.7015 7.88477 40.03 8.12234 40.4054 8.16986Z" fill="white"/>
<path d="M38.1997 16.057H0.279083V14.7266H37.6834L38.1997 16.057Z" fill="white"/>
<path d="M4.22126 4.60645H2.90718H0.466743V11.0685V13.9669H2.90718V11.0685H4.22126C6.00465 11.0685 7.4126 9.59551 7.4126 7.83746C7.4126 6.07941 6.00465 4.60645 4.22126 4.60645ZM4.17433 9.02533H2.67252V6.64959H4.17433C4.83137 6.64959 5.34761 7.17225 5.34761 7.83746C5.34761 8.50267 4.83137 9.02533 4.17433 9.02533Z" fill="white"/>
<path d="M13.6544 6.88716V4.60645H10.2754H7.83495V6.88716V8.17006V10.4508V11.6862V13.9669H10.2754H13.6544V11.6862H10.2754V10.4508H13.6544V8.17006H10.2754V6.88716H13.6544Z" fill="white"/>
<path d="M19.8964 4.60645V9.73805L16.705 4.60645H14.4054V5.12911V13.9669H16.705V8.83527L19.8964 13.9669H22.196V4.60645H19.8964Z" fill="white"/>
<path d="M29.7519 4.60645H27.4523H25.0119H22.7122V6.88716H25.0119V13.9669H27.4523V6.88716H29.7519V4.60645Z" fill="white"/>
<path d="M34.0697 4.60645H34.0228H31.7232H31.6762L28.438 13.9669H30.7845L32.8964 7.93249L33.7881 10.4983H32.7556L32.1925 12.4464H34.4452L34.9614 13.9669H37.308L34.0697 4.60645Z" fill="white"/>
</svg>
