<svg width="112" height="22" viewBox="0 0 112 22" fill="none" xmlns="http://www.w3.org/2000/svg">
<path d="M79.6836 7.07531C79.4475 7.06008 79.2951 7.03723 79.1352 7.03723C77.6729 7.03723 76.2183 7.03723 74.756 7.03723C74.2686 7.03723 74.2305 6.99915 74.2305 6.51934C74.2305 5.39217 74.1239 5.51403 75.2206 5.51403C76.9113 5.50641 78.5945 5.51403 80.2852 5.51403C80.7574 5.51403 80.7803 5.48356 80.7879 5.01899C80.7879 3.72426 80.7879 2.42954 80.7879 1.13481C80.7879 0.677849 80.8412 0.624537 81.2905 0.639769C81.6714 0.647385 82.0521 0.677849 82.4253 0.723545C82.6538 0.75401 82.73 0.868249 82.5396 1.08911C82.4406 1.19574 82.3796 1.37852 82.3796 1.52323C82.3644 2.70371 82.3796 3.8842 82.3644 5.06468C82.3568 5.41502 82.4939 5.52926 82.8366 5.52164C84.7939 5.51403 86.7436 5.51403 88.7009 5.51403C89.295 5.51403 89.3102 5.52926 89.3102 6.13854C89.3102 7.09816 89.3864 7.03723 88.4344 7.03723C86.934 7.03723 85.4413 7.03723 83.9409 7.03723C83.5297 7.03723 83.4611 7.13624 83.6134 7.51704C84.8092 10.4873 86.4161 13.1986 88.7086 15.4606C88.9142 15.6662 89.1503 15.8414 89.3788 16.0241C89.6225 16.2145 89.6986 16.3973 89.4169 16.6334C89.2036 16.8086 89.0208 17.0295 88.8228 17.2275C88.5105 17.5397 88.4344 17.5321 88.0993 17.2275C86.8426 16.0622 85.7916 14.7218 84.9539 13.2367C84.0323 11.6221 83.2098 9.95417 82.3796 8.37004C82.3796 8.38527 82.3644 8.51474 82.3644 8.64422C82.3644 10.7158 82.3644 12.7797 82.3644 14.8513C82.3644 15.4149 82.4177 15.4758 82.9965 15.4834C83.8191 15.491 84.6492 15.4834 85.4717 15.491C85.9516 15.491 86.0125 15.552 86.0201 16.047C86.0353 16.9533 86.0353 16.9533 85.1138 16.9533C84.3522 16.9533 83.5906 16.9609 82.829 16.9533C82.4863 16.9457 82.3568 17.0828 82.3568 17.4255C82.372 18.5527 82.3644 19.6875 82.3568 20.8146C82.3568 21.3858 82.2882 21.4468 81.717 21.4468C80.6889 21.4468 80.7727 21.5458 80.7727 20.51C80.7727 19.5351 80.7727 18.5527 80.7727 17.5778C80.7727 16.9914 80.7422 16.9609 80.1405 16.9609C79.2875 16.9609 78.4421 16.9609 77.5892 16.9609C77.1093 16.9609 77.056 16.9 77.0408 16.4049C77.0256 15.5063 77.0332 15.4986 77.9395 15.4986C78.6783 15.4986 79.4094 15.5063 80.1481 15.491C80.7346 15.4758 80.7727 15.4225 80.7727 14.8513C80.7727 12.795 80.7727 10.7386 80.7727 8.6823C80.7727 8.54521 80.7727 8.41574 80.7727 8.22533C80.1634 9.46675 79.615 10.6625 79.0057 11.8201C77.9928 13.7317 76.7666 15.5063 75.213 17.0218C74.497 17.7225 74.6113 17.7758 73.9411 17.0295C73.408 16.4354 73.3927 16.4583 74.002 15.9023C75.2891 14.7218 76.4087 13.389 77.2769 11.8734C78.0613 10.5101 78.7468 9.10118 79.4627 7.70744C79.5541 7.51704 79.5922 7.32664 79.6836 7.07531Z" fill="white"/>
<path d="M101.528 10.1452C103.585 10.1452 105.641 10.1452 107.69 10.1452C108.207 10.1452 108.261 10.1985 108.261 10.7087C108.261 13.7399 108.261 16.7711 108.261 19.8023C108.261 20.5867 107.872 21.097 107.08 21.1732C106.06 21.2722 105.032 21.2874 104.011 21.3255C103.737 21.3331 103.531 21.2113 103.455 20.9066C103.402 20.7162 103.318 20.5258 103.227 20.343C103.082 20.046 103.211 19.9546 103.501 19.9622C104.247 19.9698 105.001 19.9622 105.747 19.9622C105.885 19.9622 106.029 19.9546 106.166 19.9622C106.463 19.9698 106.608 19.8328 106.6 19.5281C106.593 19.0331 106.6 18.538 106.6 18.043C106.593 17.5784 106.555 17.5327 106.06 17.5327C104.331 17.5327 102.61 17.5327 100.881 17.5327C99.548 17.5327 98.2152 17.5327 96.8824 17.5327C96.4331 17.5327 96.3874 17.5784 96.3798 18.043C96.3722 18.9417 96.3798 19.848 96.3798 20.7467C96.3798 21.2569 96.2884 21.3407 95.7705 21.3407C94.689 21.3407 94.788 21.4397 94.788 20.3659C94.788 17.1824 94.788 13.9989 94.788 10.8154C94.788 10.1452 94.7956 10.1452 95.4735 10.1452C97.4917 10.1452 99.51 10.1452 101.528 10.1452ZM101.513 11.5313C99.9669 11.5313 98.4209 11.5389 96.8748 11.5237C96.5169 11.5237 96.3569 11.6455 96.3874 12.0111C96.4026 12.2472 96.3874 12.4909 96.395 12.7346C96.4026 13.2373 96.4407 13.2753 96.9357 13.283C98.596 13.283 100.256 13.283 101.917 13.283C103.31 13.283 104.704 13.283 106.098 13.283C106.547 13.283 106.593 13.2297 106.6 12.7727C106.6 12.529 106.6 12.2929 106.6 12.0492C106.593 11.5694 106.562 11.5313 106.075 11.5313C104.552 11.5313 103.029 11.5313 101.513 11.5313ZM101.498 16.2532C102.838 16.2532 104.186 16.2608 105.527 16.2532C106.76 16.2456 106.585 16.4284 106.593 15.187C106.6 14.5853 106.578 14.5701 105.976 14.5701C103.166 14.5701 100.348 14.5625 97.5298 14.5701C96.2198 14.5701 96.395 14.4025 96.3874 15.7277C96.3798 16.238 96.4102 16.2532 96.9357 16.2532C98.4513 16.2532 99.9745 16.2532 101.498 16.2532Z" fill="white"/>
<path d="M29.8452 12.2922C29.8376 12.4522 29.8224 12.6121 29.8224 12.772C29.8224 15.4224 29.8224 18.0804 29.8224 20.7308C29.8224 21.3325 29.7995 21.3477 29.1978 21.3553C28.2382 21.3553 28.2839 21.4315 28.2839 20.449C28.2839 17.6463 28.2839 14.836 28.2839 12.0333C28.2839 11.8962 28.2839 11.7591 28.2839 11.6144C28.2458 11.5992 28.2154 11.5839 28.1773 11.5687C27.9717 11.9724 27.766 12.3684 27.5604 12.772C26.6769 14.4704 25.7326 16.1383 24.4835 17.6082C24.3997 17.7072 24.316 17.7986 24.2246 17.8824C24.0646 18.0271 23.9352 17.9966 23.8285 17.8062C23.661 17.5244 23.5011 17.235 23.3183 16.9609C23.1659 16.7324 23.1736 16.5496 23.3563 16.3516C24.4607 15.1482 25.3822 13.8154 26.159 12.3836C26.7074 11.3707 27.1872 10.3197 27.6746 9.27628C27.8498 8.90309 27.7432 8.77362 27.3167 8.77362C26.2657 8.77362 25.207 8.77362 24.156 8.77362C23.8895 8.77362 23.5315 8.8117 23.4782 8.49944C23.4173 8.11864 23.4934 7.70738 23.5696 7.31896C23.5848 7.25041 23.8819 7.1971 24.0494 7.1971C25.2832 7.18949 26.5094 7.18949 27.7432 7.18949C28.2458 7.18949 28.2839 7.15141 28.2839 6.64113C28.2839 5.68913 28.2763 4.73712 28.2839 3.78512C28.2839 3.46525 28.2078 3.36624 27.8574 3.4424C26.9435 3.64803 26.0143 3.80797 25.1004 3.98314C24.7882 4.04407 24.4759 4.08976 24.1713 4.15831C23.9275 4.21162 23.7828 4.11261 23.6915 3.89936C23.6077 3.70134 23.5163 3.50333 23.4554 3.2977C23.3792 3.0616 23.4934 2.93213 23.7219 2.88643C24.4683 2.74173 25.2147 2.61225 25.9534 2.45232C26.5703 2.32284 27.1948 2.19337 27.7965 2.00297C28.9998 1.62217 30.1955 1.20329 31.3989 0.807252C31.437 0.79202 31.4674 0.784404 31.5055 0.769172C32.5184 0.31221 32.8916 0.388372 33.6304 1.2109C33.8436 1.43938 33.8055 1.58409 33.5161 1.6831C32.3737 2.08675 31.2237 2.4904 30.0889 2.92451C29.9747 2.97021 29.8376 3.15299 29.8376 3.27485C29.8147 4.47056 29.83 5.65867 29.8224 6.85438C29.8224 7.16664 30.0051 7.1971 30.2489 7.1971C31.4065 7.1971 32.5565 7.1971 33.7141 7.1971C34.2701 7.1971 34.3158 7.2428 34.3158 7.80639C34.3234 8.78124 34.3234 8.78124 33.3257 8.78124C32.3509 8.78124 31.3684 8.78124 30.3936 8.78124C29.8528 8.78124 29.8681 8.81932 29.8147 9.32959C29.7386 10.0607 29.9594 10.5558 30.5916 11.0127C31.7035 11.8276 32.7088 12.7873 33.7675 13.6707C34.0721 13.9221 34.133 14.1505 33.8665 14.4628C33.7294 14.6227 33.6304 14.8208 33.5085 15.0035C33.3333 15.2625 33.1582 15.2777 32.9221 15.0492C32.0919 14.2267 31.2466 13.4194 30.4088 12.6121C30.2641 12.475 30.1042 12.3608 29.9518 12.2389C29.9138 12.2541 29.8833 12.277 29.8452 12.2922Z" fill="white"/>
<path d="M12.0999 11.2343C12.0923 11.3943 12.0771 11.5466 12.0771 11.7065C12.0771 13.9761 12.0771 16.2533 12.0771 18.5229C12.0771 18.9265 12.0542 19.3302 12.0162 19.7338C11.9324 20.6097 11.5821 21.0666 10.7214 21.1732C9.70089 21.2951 8.67273 21.3027 7.65218 21.3408C7.37039 21.3484 7.1876 21.2037 7.13429 20.8914C7.08859 20.6553 6.98197 20.4345 6.89819 20.2136C6.75349 19.81 6.78395 19.7567 7.22568 19.7567C7.9492 19.7567 8.67273 19.7567 9.39625 19.7567C10.4168 19.7567 10.4168 19.7567 10.4168 18.7361C10.4168 14.9509 10.4168 11.1734 10.4168 7.38823C10.4168 6.80179 10.4168 6.80179 9.82275 6.79418C8.07106 6.79418 6.31937 6.79418 4.56769 6.79418C4.06503 6.79418 3.97364 6.70278 3.95079 6.20013C3.90509 5.17958 3.95079 5.12627 4.97895 5.12627C7.11144 5.12627 9.24393 5.12627 11.3764 5.12627C11.9781 5.12627 12.1152 5.23289 12.0847 5.83456C12.039 6.86272 12.4655 7.76903 12.8082 8.68295C13.1129 9.49025 13.4861 10.2671 13.8516 11.0439C14.0649 11.4933 14.1867 11.5237 14.5523 11.2039C15.9765 9.94721 17.3931 8.68295 18.8097 7.41108C19.0077 7.23591 19.16 7.01504 19.3504 6.82464C19.4951 6.67232 19.6703 6.61901 19.8607 6.76371C20.2339 7.04551 20.6223 7.31207 20.9878 7.60148C21.1402 7.72333 21.2392 7.86804 20.9955 8.02036C20.6375 8.24884 20.2796 8.47732 19.9521 8.74388C18.3679 10.0081 16.7914 11.28 15.2073 12.5443C14.9636 12.7347 14.9331 12.887 15.1159 13.1383C16.5858 15.1947 18.406 16.8473 20.6984 17.9593C20.9498 18.0811 21.2011 18.1954 21.46 18.2944C21.7038 18.3934 21.7342 18.5457 21.5819 18.7361C21.361 19.0179 21.1326 19.2845 20.9117 19.5663C20.7441 19.7871 20.5614 19.8176 20.3176 19.7033C18.9011 19.0484 17.6139 18.203 16.4639 17.1444C14.8493 15.6592 13.6079 13.8923 12.6026 11.9502C12.4731 11.7065 12.3665 11.4552 12.2523 11.2039C12.1837 11.2191 12.1456 11.2267 12.0999 11.2343Z" fill="white"/>
<path d="M105.542 4.17405C106.722 5.02704 107.819 5.77341 108.87 6.58833C109.601 7.15191 110.279 7.78404 110.964 8.40856C111.269 8.68273 111.246 8.78936 110.934 9.04069C110.066 9.73375 110.066 9.73375 109.258 8.98738C109.053 8.79698 108.855 8.59896 108.626 8.43902C108.489 8.34001 108.306 8.26385 108.146 8.27147C106.501 8.32478 104.856 8.40094 103.211 8.46187C102.853 8.4771 102.503 8.4771 102.145 8.48472C99.3193 8.56088 96.4938 8.63704 93.6682 8.72082C93.5159 8.72843 93.356 8.79698 93.2113 8.87314C92.998 8.97976 92.8457 8.95691 92.7619 8.72082C92.6477 8.40094 92.5258 8.08107 92.4116 7.7612C92.2745 7.36516 92.3735 7.21284 92.7924 7.20522C93.493 7.19761 94.1861 7.18999 94.8868 7.19761C95.2067 7.19761 95.4427 7.08337 95.6255 6.82442C96.1358 6.08567 96.6613 5.35453 97.1792 4.61577C97.2477 4.51677 97.2706 4.38729 97.3087 4.27305C97.1792 4.23497 97.0573 4.16643 96.9279 4.16643C95.2523 4.15881 93.5768 4.15881 91.9013 4.15881C91.3758 4.15881 91.3225 4.1055 91.2996 3.57238C91.2615 2.69654 91.2615 2.69654 92.1222 2.69654C94.7497 2.69654 97.3772 2.69654 100.005 2.69654C100.568 2.69654 100.584 2.6813 100.584 2.11772C100.584 1.67599 100.591 1.22664 100.584 0.784913C100.576 0.457424 100.698 0.327951 101.041 0.358415C101.429 0.396495 101.825 0.396497 102.213 0.419345C102.305 0.426961 102.396 0.480272 102.488 0.510736C102.457 0.602128 102.449 0.716368 102.389 0.76968C102.084 1.05147 102.198 1.40943 102.191 1.73692C102.175 2.6813 102.183 2.6813 103.12 2.6813C105.762 2.6813 108.398 2.6813 111.04 2.6813C111.596 2.6813 111.627 2.71177 111.627 3.26012C111.634 4.13597 111.634 4.13597 110.766 4.13597C109.22 4.13597 107.666 4.13597 106.12 4.13597C105.96 4.14358 105.801 4.15881 105.542 4.17405ZM105.161 4.18166C104.902 4.15881 104.757 4.14358 104.612 4.14358C103.257 4.14358 101.894 4.15881 100.538 4.13597C99.7991 4.12073 99.2584 4.38729 98.8471 5.00419C98.4739 5.56016 98.0322 6.07044 97.6209 6.60356C97.5372 6.7178 97.4838 6.8625 97.4153 6.99198C97.5676 7.03006 97.7199 7.10622 97.8723 7.0986C98.7633 7.08337 99.6468 7.04529 100.53 7.03006C102.472 6.99959 104.414 6.97674 106.349 6.94628C106.448 6.94628 106.539 6.92343 106.753 6.90058C106.524 6.70257 106.379 6.55025 106.212 6.42839C105.648 6.02474 105.069 5.62871 104.498 5.22506C104.163 4.98896 104.171 4.87472 104.506 4.63862C104.689 4.50915 104.871 4.37968 105.161 4.18166Z" fill="white"/>
<path d="M56.3726 11.4475C59.1524 11.4475 61.9323 11.4475 64.7121 11.4475C65.3671 11.4475 65.39 11.4704 65.39 12.133C65.39 14.5853 65.39 17.0301 65.39 19.4825C65.39 20.0003 65.3366 20.5639 64.8416 20.8229C64.3999 21.059 63.8668 21.1961 63.3717 21.2341C62.5263 21.3027 61.6733 21.2798 60.8203 21.257C60.6756 21.257 60.4852 21.0971 60.4091 20.96C60.272 20.7086 60.1882 20.4268 60.0968 20.145C59.9902 19.8176 60.1958 19.7414 60.4624 19.7414C61.3154 19.7414 62.1608 19.749 63.0138 19.7414C63.7144 19.7414 63.7754 19.6881 63.7754 18.9874C63.783 17.1215 63.783 15.2556 63.7754 13.3896C63.7754 12.8641 63.7144 12.8108 63.1813 12.8108C58.6345 12.8108 54.0954 12.8108 49.5486 12.8108C48.9546 12.8108 48.9393 12.8184 48.9393 13.4353C48.9393 15.8725 48.9393 18.3096 48.9393 20.7467C48.9393 21.3027 48.9013 21.3331 48.3605 21.3408C47.34 21.3484 47.34 21.3484 47.34 20.3202C47.34 17.5784 47.34 14.8367 47.34 12.0949C47.34 11.4932 47.3933 11.4399 47.9873 11.4399C50.7824 11.4475 53.5775 11.4475 56.3726 11.4475Z" fill="white"/>
<path d="M71.277 8.87296C70.8201 9.50509 70.3631 10.1448 69.8985 10.7694C69.6244 11.1349 69.3273 11.4853 69.0532 11.8432C68.8628 12.0945 68.6952 12.0336 68.5505 11.8051C68.3906 11.5462 68.2535 11.272 68.1011 11.0131C67.9641 10.777 67.9869 10.579 68.1773 10.3581C69.8148 8.49978 71.0486 6.3749 72.0996 4.14341C72.5794 3.11524 72.983 2.04138 73.4095 0.990373C73.5695 0.601955 73.6761 0.541026 74.0645 0.678115C74.3996 0.799971 74.7347 0.906596 75.0698 1.02084C75.2754 1.08938 75.3592 1.27978 75.1764 1.37879C74.7423 1.60727 74.7119 2.05662 74.5367 2.41457C74.0493 3.44273 73.5923 4.48613 73.1201 5.52191C73.0211 5.74277 72.9145 5.93318 73.2191 6.09311C73.2724 6.12358 73.3258 6.31398 73.2953 6.33682C72.9221 6.63385 73.0135 7.05273 73.0135 7.42592C73.0059 11.7518 73.0059 16.0777 73.0059 20.4036C73.0059 20.5712 73.0059 20.7311 73.0059 20.8987C72.9983 21.3785 72.9602 21.4166 72.4804 21.4242C71.3989 21.4394 71.3989 21.4394 71.3989 20.3503C71.3989 16.6946 71.3989 13.0465 71.3989 9.39085C71.3989 9.2233 71.376 9.04813 71.3608 8.88058C71.3456 8.88058 71.3151 8.87296 71.277 8.87296Z" fill="white"/>
<path d="M43.5768 0.952388C43.1122 1.27988 43.2188 1.73684 43.2188 2.15572C43.2188 7.79158 43.2188 13.4274 43.2188 19.0633C43.2188 19.2537 43.2265 19.4441 43.2112 19.6345C43.1427 20.4875 42.6705 21.0816 41.8023 21.1882C40.6979 21.3253 39.5784 21.3481 38.4664 21.4167C38.2151 21.4319 38.0704 21.2948 37.9866 21.0587C37.88 20.7617 37.7505 20.4723 37.6363 20.1829C37.5068 19.8706 37.5754 19.7564 37.9105 19.7564C38.8625 19.7487 39.8145 19.7564 40.7665 19.7564C41.49 19.7564 41.5509 19.6954 41.5509 18.9795C41.5509 13.1761 41.5509 7.38032 41.5509 1.5769C41.5509 1.42458 41.5281 1.26464 41.5662 1.11994C41.5966 1.01332 41.688 0.845764 41.7718 0.838148C42.3658 0.769604 42.9599 0.731524 43.5768 0.952388Z" fill="white"/>
<path d="M56.3257 5.27889C58.1916 5.27889 60.0499 5.27889 61.9158 5.27889C62.5175 5.27889 62.5632 5.32458 62.5632 5.93387C62.5632 7.08389 62.5632 8.24152 62.5632 9.39154C62.5632 9.92466 62.4946 9.99321 61.9768 9.99321C58.2144 9.99321 54.4445 9.99321 50.6822 9.99321C50.21 9.99321 50.1567 9.9399 50.1567 9.4677C50.1567 8.23391 50.1567 7.00773 50.1567 5.77393C50.1567 5.31697 50.2024 5.27127 50.6593 5.27127C52.5481 5.27889 54.4369 5.27889 56.3257 5.27889ZM56.2723 8.78987C57.6432 8.78987 59.0141 8.78987 60.3774 8.78987C60.8191 8.78987 60.88 8.72895 60.8877 8.28722C60.8953 7.88357 60.8953 7.47992 60.8877 7.06865C60.8877 6.55076 60.8343 6.50507 60.3241 6.50507C58.5267 6.50507 56.7217 6.50507 54.9243 6.50507C54.0332 6.50507 53.1498 6.50507 52.2587 6.50507C51.7713 6.50507 51.6951 6.58123 51.6875 7.04581C51.6799 7.44184 51.6799 7.83026 51.6875 8.22629C51.7027 8.72895 51.7789 8.79749 52.2739 8.79749C53.6067 8.78988 54.9395 8.78987 56.2723 8.78987Z" fill="white"/>
<path d="M56.242 3.98334C53.1347 3.98334 50.0273 3.98334 46.92 3.98334C46.2726 3.98334 46.2726 3.97573 46.2726 3.32075C46.2726 2.5363 46.2726 2.5363 47.0342 2.5363C49.6085 2.5363 52.1827 2.5363 54.7569 2.5363C55.3129 2.5363 55.3357 2.50583 55.3357 1.95748C55.3357 1.56144 55.3357 1.17303 55.3357 0.776994C55.3357 0.495201 55.4728 0.350496 55.7546 0.358112C56.1887 0.373344 56.6152 0.388578 57.0493 0.419042C57.1483 0.426658 57.2473 0.502817 57.3387 0.548513C57.2854 0.639905 57.2321 0.731298 57.1864 0.82269C57.1255 0.952163 57.0265 1.08164 57.0189 1.21111C56.996 1.50052 57.0265 1.79754 57.0036 2.08695C56.9808 2.44491 57.156 2.54391 57.4834 2.54391C58.4583 2.5363 59.4408 2.54391 60.4156 2.54391C62.1901 2.54391 63.9647 2.54391 65.7392 2.54391C66.2571 2.54391 66.2952 2.58961 66.2952 3.11512C66.3028 3.99096 66.3028 3.99096 65.4422 3.99096C62.3805 3.98334 59.3113 3.98334 56.242 3.98334Z" fill="white"/>
<path d="M56.3267 14.3341C57.5681 14.3341 58.8171 14.3341 60.0585 14.3341C60.7135 14.3341 60.7288 14.3493 60.7288 15.0271C60.7288 16.1847 60.7288 17.3348 60.7288 18.4924C60.7288 19.1855 60.7059 19.2083 60.0281 19.2083C57.9946 19.2083 55.9687 19.2083 53.9353 19.2083C53.3488 19.2083 53.3488 19.2083 53.3412 19.8024C53.3336 20.3736 53.2879 20.4193 52.7015 20.4269C51.8256 20.4269 51.8256 20.4269 51.8256 19.5663C51.8256 18.0431 51.8256 16.5198 51.8256 14.9966C51.8256 14.395 51.8789 14.3341 52.473 14.3341C53.7677 14.3341 55.0472 14.3341 56.3267 14.3341ZM56.2658 17.9212C57.1035 17.9212 57.9413 17.9136 58.7714 17.9212C59.0989 17.9288 59.2284 17.7917 59.2208 17.4719C59.2056 16.9616 59.2132 16.4589 59.2208 15.9486C59.2208 15.6821 59.1142 15.5526 58.84 15.5526C57.1416 15.5526 55.4432 15.5526 53.7449 15.5526C53.4783 15.5526 53.3488 15.6745 53.3564 15.941C53.3641 16.4361 53.3717 16.9311 53.3488 17.4262C53.3336 17.7841 53.4707 17.9288 53.8363 17.9212C54.6436 17.9136 55.4585 17.9212 56.2658 17.9212Z" fill="white"/>
<path d="M4.59814 9.46001C5.58823 9.46001 6.57831 9.42193 7.5684 9.48286C7.9492 9.50571 8.31477 9.7418 8.68034 9.90174C8.71842 9.91697 8.73365 10.0617 8.7108 10.1302C8.15483 11.6382 7.65217 13.169 6.82964 14.5628C5.66439 16.5429 4.18688 18.2413 2.2981 19.5741C1.83353 19.9016 1.76498 19.894 1.37656 19.4903C1.23948 19.3456 1.09477 19.2009 0.950066 19.0562C0.660657 18.7744 0.660657 18.6526 0.988146 18.4393C2.49612 17.4721 3.76038 16.2383 4.73523 14.7608C5.39783 13.7478 5.9081 12.6359 6.45646 11.5544C6.62401 11.2193 6.50215 11.0746 6.10612 11.0746C4.65907 11.0746 3.21203 11.0746 1.76498 11.0746C1.49081 11.0746 1.11 11.1355 1.04146 10.8157C0.965299 10.4349 1.03384 10.016 1.09477 9.62756C1.10239 9.55902 1.37656 9.49047 1.52888 9.49047C2.54182 9.46001 3.56998 9.46763 4.59814 9.46001C4.59814 9.46763 4.59814 9.46763 4.59814 9.46001Z" fill="white"/>
<path d="M35.9307 9.42877C35.9307 7.58569 35.9307 5.75023 35.9307 3.90715C35.9307 3.75483 35.9383 3.60251 35.9459 3.45019C35.9687 3.19124 36.1058 3.06177 36.3724 3.077C36.7684 3.09985 37.1568 3.1227 37.5453 3.16078C37.7585 3.18363 37.8575 3.28264 37.7357 3.52635C37.629 3.7396 37.53 3.98331 37.53 4.21941C37.5148 7.83702 37.5224 11.4546 37.5224 15.0646C37.5224 15.7577 37.492 15.7882 36.7837 15.7882C35.9307 15.7882 35.9307 15.7882 35.9307 14.9504C35.9307 13.1073 35.9307 11.2642 35.9307 9.42877Z" fill="white"/>
<path d="M6.98958 0.297516C7.46939 0.419372 7.9035 0.510764 8.33 0.632621C10.4168 1.22667 12.4731 1.88165 14.4533 2.78796C14.6742 2.88696 14.895 2.98597 15.1083 3.08498C15.3367 3.19161 15.3977 3.35916 15.2834 3.58003C15.1311 3.8999 14.9712 4.21977 14.8265 4.53964C14.7122 4.79859 14.5371 4.83667 14.301 4.73004C13.3413 4.30355 12.397 3.84659 11.4221 3.45055C10.5691 3.10021 9.69327 2.80319 8.80981 2.51378C8.05582 2.26245 7.2866 2.05682 6.51739 1.82834C6.22036 1.73695 6.09089 1.57701 6.28129 1.27237C6.42599 1.04389 6.51738 0.792558 6.66209 0.571693C6.74587 0.457453 6.88296 0.381292 6.98958 0.297516Z" fill="white"/>
</svg>
