<svg width="60" height="14" viewBox="0 0 60 14" fill="none" xmlns="http://www.w3.org/2000/svg">
<path d="M11.4392 8.48248C11.3407 7.94242 10.9958 7.45145 10.503 7.10778C10.9958 6.7641 11.3407 6.27314 11.4392 5.68398C11.4885 4.99662 11.6363 3.62192 11.4392 2.93457C11.2421 2.24721 10.4537 1.26528 9.56676 1.11799C7.49718 0.921607 5.37831 0.921607 3.30873 1.11799C2.37248 1.26528 1.28841 1.41257 0.5 3.37644V11.1828C0.5 11.1828 1.33769 13.1958 3.30873 13.343C4.93483 13.4903 9.91169 13.343 9.91169 13.343C10.7001 13.1958 11.2914 12.6066 11.4392 11.821C11.5378 10.7409 11.5871 9.6117 11.4392 8.48248ZM2.37248 4.21108C2.42176 3.52373 2.91452 2.93457 3.60438 2.88547C4.88555 2.73818 8.28559 2.88547 8.92618 2.88547C9.27111 2.88547 9.56676 3.13095 9.56676 3.47463C9.56676 3.47463 9.56676 3.47463 9.56676 3.52373C9.56676 3.52373 9.61604 4.50566 9.61604 5.48759C9.66531 5.88036 9.36966 6.27313 8.97545 6.37133H2.37248V4.21108ZM9.86242 10.9373C9.86242 11.281 9.61604 11.5756 9.27111 11.5756C8.63052 11.5756 5.03338 11.772 3.65366 11.5756C2.96379 11.5756 2.42176 11.0355 2.37248 10.3482V8.1879H9.27111C9.66531 8.33519 9.91169 8.72796 9.86242 9.12074V10.9373Z" fill="white"/>
<path d="M21.3928 8.48221H13.9029V10.6916C13.8536 10.9861 14.0507 11.2807 14.3464 11.3298C14.3956 11.3298 14.4449 11.3298 14.4942 11.3298H21.3928V13.4901H13.9029C12.8188 13.3428 11.9811 12.4099 12.0304 11.2807V2.9343C12.1782 1.85417 13.1145 1.01953 14.1985 1.01953H21.4421V2.8852H14.8391C14.2971 2.8852 13.9029 3.32707 13.9029 3.81804V6.32196H21.3928" fill="white"/>
<path d="M21.8364 1.01953V2.8361H25.6307V13.441H27.5032V2.8852H30.9032V1.01953H21.8364Z" fill="white"/>
<path d="M35.1409 1.02002H31.938V13.4415H35.1409V1.02002Z" fill="white"/>
<path d="M44.0601 5.92941H40.118C40.118 5.92941 39.1818 6.0276 39.1818 4.75109C39.1818 3.47458 40.118 3.57277 40.118 3.57277H46.3761V1.06885H38.8368C35.6832 1.06885 35.7325 4.6038 35.7325 4.75109C35.7325 4.89838 35.6832 8.43334 38.8368 8.43334H42.7789C42.7789 8.43334 43.7152 8.33514 43.7152 9.61165C43.7152 10.8882 42.8282 10.8391 42.8282 10.8391H36.5209V13.343H44.0601C47.263 13.343 47.1645 9.75894 47.1645 9.66075C47.1645 9.56256 47.263 5.92941 44.0601 5.92941Z" fill="white"/>
<path d="M51.0572 4.45678V13.4415H48.0021V2.88569C47.9035 1.95285 48.5934 1.11821 49.5296 1.02002C49.6282 1.02002 49.7267 1.02002 49.8253 1.02002H52.634C53.4717 1.2655 54.1123 2.00195 54.2108 2.88569C54.605 4.65317 56.2311 9.07186 56.379 9.71011C56.4282 9.8574 56.5268 10.0047 56.6746 10.0047C57.0688 10.0047 57.0195 9.71011 57.0195 9.71011V1.02002H59.8283V11.9195C59.8283 11.9195 60.0254 13.4415 58.5964 13.4415C58.5964 13.4415 55.9847 13.6869 55.1963 13.1469C54.8021 12.9014 54.5557 12.214 54.2108 11.5758C52.8804 8.97367 52.5847 6.32245 51.6977 4.45678C51.6485 4.35859 51.5006 4.1622 51.3528 4.1622C51.0572 4.1131 51.0572 4.35859 51.0572 4.45678Z" fill="white"/>
<path d="M35.1409 1.02002H31.938V13.4415H35.1409V1.02002Z" fill="white"/>
<path d="M44.0601 5.9299H40.118C40.118 5.9299 39.1818 6.02809 39.1818 4.75158C39.1818 3.47507 40.118 3.57326 40.118 3.57326H46.3761V1.06934H38.8368C35.6832 1.06934 35.7325 4.60429 35.7325 4.75158C35.7325 4.89887 35.6832 8.43382 38.8368 8.43382H42.7789C42.7789 8.43382 43.7152 8.33563 43.7152 9.61214C43.7152 10.8887 42.8282 10.8396 42.8282 10.8396H36.5209V13.3435H44.0601C47.263 13.3435 47.1645 9.75943 47.1645 9.66124C47.1645 9.56305 47.263 5.9299 44.0601 5.9299Z" fill="white"/>
<path d="M51.0572 4.45678V13.4415H48.0021V2.88569C47.9035 1.95285 48.5934 1.11821 49.5296 1.02002C49.6282 1.02002 49.7267 1.02002 49.8253 1.02002H52.634C53.4717 1.2655 54.1123 2.00195 54.2108 2.88569C54.605 4.65317 56.2311 9.07186 56.379 9.71011C56.4282 9.8574 56.5268 10.0047 56.6746 10.0047C57.0688 10.0047 57.0195 9.71011 57.0195 9.71011V1.02002H59.8283V11.9195C59.8283 11.9195 60.0254 13.4415 58.5964 13.4415C58.5964 13.4415 55.9847 13.6869 55.1963 13.1469C54.8021 12.9014 54.5557 12.214 54.2108 11.5758C52.8804 8.97367 52.5847 6.32245 51.6977 4.45678C51.6485 4.35859 51.5006 4.1622 51.3528 4.1622C51.0572 4.1131 51.0572 4.35859 51.0572 4.45678Z" fill="white"/>
</svg>
