<svg width="83" height="11" viewBox="0 0 83 11" fill="none" xmlns="http://www.w3.org/2000/svg">
<path d="M73.2714 10.2908C72.1244 10.2908 70.9773 10.2924 69.8303 10.2898C69.4849 10.2987 69.1417 10.2343 68.8252 10.1012C68.452 9.93475 68.1467 9.65416 67.956 9.30304C67.7654 8.95191 67.7005 8.54992 67.7713 8.15956C67.892 7.42956 68.2927 6.86244 68.8511 6.38395C69.1864 6.08138 69.5664 5.82805 69.9782 5.6321C70.0806 5.5863 70.0689 5.53407 69.9957 5.47062C69.7887 5.30358 69.6236 5.09345 69.513 4.85608C69.2676 4.28594 69.3591 3.73217 69.6111 3.19048C70.0185 2.31554 70.715 1.7136 71.5777 1.26693C72.241 0.922593 72.9838 0.745997 73.7369 0.753657C75.9073 0.759504 78.078 0.755469 80.2486 0.75813C80.6923 0.742627 81.1317 0.848542 81.5158 1.06364C82.3245 1.54634 82.6225 2.47377 82.258 3.36279C81.9072 4.21843 81.2774 4.84232 80.485 5.32945C80.3995 5.38199 80.3129 5.43286 80.2257 5.48294C80.1312 5.53722 80.1222 5.59791 80.1977 5.67737C80.2791 5.7609 80.3557 5.8488 80.4267 5.94065C80.819 6.46226 80.8225 7.02966 80.6275 7.61624C80.4352 8.15321 80.104 8.63406 79.6654 9.01339C79.1836 9.46617 78.608 9.81567 77.9764 10.039C77.5302 10.2023 77.0576 10.2882 76.5804 10.2927C75.4775 10.2869 74.3746 10.2908 73.2714 10.2908ZM76.0054 3.05413V3.05568C75.1323 3.05568 74.2593 3.05011 73.3863 3.05776C73.1279 3.06333 72.88 3.15697 72.6866 3.32206C72.4929 3.48716 72.3665 3.71303 72.3292 3.95956C72.3126 4.05268 72.3303 4.14853 72.3793 4.2303C72.4284 4.3121 72.5057 4.37465 72.5978 4.40703C72.6888 4.44083 72.7855 4.45729 72.8827 4.45545C74.62 4.45482 76.3573 4.4574 78.0946 4.45209C78.3307 4.44999 78.5593 4.37095 78.7429 4.2278C78.9264 4.08466 79.0545 3.88584 79.1059 3.66368C79.137 3.55646 79.1332 3.44268 79.0953 3.33756C79.021 3.14823 78.8627 3.05472 78.6116 3.05447C77.7429 3.05358 76.874 3.05347 76.0054 3.05413ZM74.644 6.61885V6.62177C73.775 6.62177 72.9058 6.6188 72.0367 6.62292C71.8027 6.62079 71.5747 6.69527 71.3903 6.83418C71.2059 6.97307 71.076 7.16816 71.0212 7.38759C70.9297 7.72848 71.125 7.98937 71.4919 7.99019C73.2346 7.99394 74.9774 7.99384 76.7201 7.98979C76.9565 7.99567 77.1883 7.92543 77.379 7.79016C77.5694 7.65489 77.7078 7.4623 77.7721 7.24279C77.8816 6.9022 77.6991 6.64498 77.3308 6.62276C77.2605 6.61854 77.1897 6.61901 77.1192 6.61898C76.2941 6.61875 75.469 6.61872 74.644 6.61885Z" fill="#707D9B"/>
<path d="M46.7173 10.2907C45.6141 10.2907 44.5109 10.2907 43.4077 10.2908C42.9872 10.3065 42.5691 10.2205 42.1915 10.0408C41.8709 9.86307 41.6108 9.59949 41.4425 9.28206C41.2744 8.96463 41.2052 8.60694 41.2436 8.25235C41.3512 7.4512 41.7947 6.84102 42.407 6.32789C42.7172 6.05552 43.0648 5.82566 43.4402 5.64481C43.5608 5.58977 43.5646 5.5326 43.4475 5.43294C43.2756 5.28912 43.1348 5.11372 43.0338 4.91698C42.9327 4.72027 42.8733 4.50609 42.8589 4.287C42.8406 3.92907 42.9153 3.57241 43.076 3.24927C43.466 2.37181 44.1413 1.75504 44.9977 1.30221C45.7102 0.928524 46.5111 0.739179 47.322 0.752622C49.4752 0.761207 51.6287 0.751843 53.7822 0.75996C54.3975 0.762289 54.9643 0.927114 55.3944 1.37976C55.8883 1.89919 56.0217 2.51005 55.809 3.17962C55.5538 3.98225 55.018 4.58986 54.3288 5.08384C54.1374 5.22102 53.935 5.34182 53.7318 5.46165C53.5852 5.5482 53.5768 5.58186 53.7002 5.70132C53.9372 5.91975 54.1071 6.19691 54.1918 6.50236C54.3125 6.96483 54.2267 7.40404 54.0303 7.8289C53.6359 8.68238 52.9694 9.28692 52.134 9.73555C51.4271 10.1197 50.626 10.3135 49.8148 10.2966C48.7825 10.2806 47.7499 10.2928 46.7173 10.2928V10.2907ZM48.9892 4.45654V4.45433C49.8535 4.45433 50.7178 4.46058 51.5818 4.45186C52.0577 4.44703 52.3881 4.2131 52.5747 3.79386C52.7749 3.3441 52.4883 3.045 52.0637 3.04894C50.7189 3.06141 49.3741 3.05174 48.0293 3.05148C47.6502 3.05141 47.2707 3.04848 46.8918 3.05714C46.6467 3.05829 46.4095 3.14129 46.221 3.29203C46.0322 3.44276 45.9034 3.65187 45.8565 3.8838C45.787 4.19485 45.9608 4.42321 46.291 4.45063C46.37 4.45719 46.4495 4.45627 46.529 4.4563C47.3492 4.45667 48.1693 4.45675 48.9892 4.45654ZM48.1568 6.61872V6.62151C47.283 6.62151 46.4092 6.61604 45.5356 6.62361C45.3057 6.6172 45.0807 6.68766 44.8985 6.82303C44.7163 6.9584 44.5885 7.15036 44.5365 7.36633C44.4499 7.70033 44.591 7.91564 44.9413 7.97648C45.0241 7.98906 45.1077 7.9946 45.1913 7.99305C46.224 7.9941 47.2566 7.99431 48.2889 7.99368C48.9331 7.99352 49.5776 7.99833 50.2218 7.99053C50.4713 7.99153 50.714 7.91101 50.9101 7.76212C51.106 7.61325 51.2441 7.40474 51.3015 7.17058C51.3179 7.1184 51.3236 7.0636 51.3179 7.00934C51.3122 6.95509 51.2953 6.90246 51.2683 6.85451C51.2413 6.80656 51.2048 6.76426 51.161 6.73001C51.1169 6.69577 51.0662 6.67027 51.012 6.65501C50.8973 6.62269 50.7777 6.6105 50.6587 6.61912C49.8246 6.61833 48.9906 6.6182 48.1568 6.61872Z" fill="#707D9B"/>
<path d="M18.7686 10.2932C17.2903 10.2932 15.812 10.2932 14.3338 10.2931C13.986 10.2931 13.9571 10.2559 14.0722 9.94283C14.2811 9.37461 14.5057 8.81178 14.7009 8.23876C14.7751 8.0208 14.8957 7.94391 15.1528 7.94333C15.722 7.94212 16.2913 7.94566 16.8605 7.94577C19.0227 7.94614 21.1849 7.94656 23.3471 7.94703C23.6332 7.94732 23.9192 7.98597 24.2051 7.94102C24.7048 7.86242 25.033 7.57608 25.2149 7.13722C25.323 6.87682 25.1716 6.65185 24.8882 6.59405C24.7969 6.57853 24.7043 6.57228 24.6117 6.57541C22.6084 6.57443 20.605 6.579 18.6016 6.56908C18.1076 6.56664 17.6127 6.51706 17.157 6.30464C16.3996 5.95162 16.0558 5.31318 16.2062 4.5154C16.3585 3.70787 16.6281 2.94011 17.1835 2.30038C17.8814 1.47221 18.8782 0.928859 19.9741 0.779161C20.4377 0.72083 20.9052 0.695786 21.3727 0.704236C24.1924 0.703021 27.0121 0.703511 29.8318 0.705707C30.1592 0.705805 30.1935 0.750122 30.0854 1.04621C29.8759 1.61883 29.6651 2.19094 29.4526 2.76254C29.3755 2.97066 29.2695 3.04263 29.0372 3.052C28.9844 3.05412 28.9312 3.05291 28.8784 3.05297C25.9836 3.05297 23.0889 3.05315 20.1941 3.05352C20.0883 3.05006 19.9824 3.05467 19.8773 3.0673C19.6444 3.10377 19.4304 3.21263 19.2677 3.3773C19.105 3.54196 19.0026 3.7534 18.9761 3.97937C18.9479 4.2118 19.0532 4.35602 19.2904 4.40332C19.4723 4.43696 19.6574 4.4525 19.8426 4.44972C21.8769 4.44875 23.9112 4.44583 25.9454 4.45179C26.3756 4.45355 26.7992 4.55437 27.1808 4.7458C27.8427 5.07406 28.1007 5.71076 28.0403 6.35151C27.9662 7.2269 27.6044 8.05669 27.0073 8.72005C26.2115 9.61195 25.2082 10.1382 23.9817 10.2471C23.5819 10.2826 23.181 10.2937 22.7796 10.2935C21.4426 10.2928 20.1056 10.2927 18.7686 10.2932Z" fill="#707D9B"/>
<path d="M35.7865 0.759153C37.344 0.759153 38.9018 0.75468 40.4593 0.761687C40.9733 0.763996 41.4677 0.855788 41.8956 1.1632C42.4867 1.588 42.8147 2.44752 42.5352 3.15436C42.2244 3.94183 41.6791 4.62313 40.9676 5.11244C40.7965 5.23326 40.6168 5.34074 40.4353 5.4461C40.2839 5.53415 40.2804 5.56259 40.4065 5.68152C40.7963 6.0493 41.0055 6.4905 40.9627 7.01927C40.9167 7.57478 40.6919 8.10258 40.3199 8.52902C39.5073 9.48361 38.4769 10.0833 37.1964 10.2586C37.0523 10.2779 36.9068 10.2874 36.7614 10.287C33.6858 10.2886 30.6103 10.289 27.5347 10.2882C27.1733 10.2882 27.1561 10.2645 27.2801 9.93513C27.4934 9.36835 27.7094 8.80245 27.9202 8.2348C27.9426 8.15849 27.9886 8.09071 28.0526 8.04085C28.1163 7.99098 28.1948 7.96146 28.2768 7.95639C28.3468 7.94959 28.4176 7.94802 28.4882 7.94802C31.2856 7.94762 34.0833 7.94768 36.881 7.94823C37.0487 7.956 37.2163 7.93176 37.3745 7.87693C37.5461 7.81275 37.6965 7.70464 37.8095 7.56417C37.9223 7.4237 37.9931 7.25624 38.0146 7.07983C38.0315 6.98435 38.0125 6.88618 37.961 6.80297C37.9095 6.71977 37.8291 6.65696 37.7341 6.62581C37.6123 6.58674 37.4846 6.56909 37.3563 6.57369C35.3531 6.57455 33.3497 6.57471 31.3466 6.57424C31.0388 6.57424 31.0227 6.54906 31.13 6.26923C31.3169 5.78346 31.5038 5.29773 31.6846 4.80997C31.7952 4.51208 31.872 4.45396 32.2065 4.45417C33.1642 4.45478 34.1217 4.45559 35.0791 4.45659C36.103 4.45703 37.1266 4.45701 38.1503 4.45651C38.287 4.46113 38.424 4.45084 38.5583 4.42581C38.7648 4.37605 38.9519 4.2692 39.0963 4.11838C39.2409 3.9676 39.3365 3.77939 39.3717 3.57692C39.3828 3.51374 39.3796 3.44904 39.3624 3.38714C39.3453 3.32527 39.3145 3.26766 39.2722 3.21818C39.23 3.16873 39.1775 3.12858 39.1178 3.10045C39.0579 3.07233 38.9928 3.05688 38.9263 3.05515C38.8514 3.05056 38.7762 3.05156 38.7013 3.05156C35.9039 3.0514 33.1062 3.05135 30.3085 3.0514C29.9435 3.0514 29.9258 3.02596 30.0492 2.70175C30.2614 2.1436 30.4728 1.5851 30.683 1.02625C30.7642 0.811325 30.8443 0.755713 31.087 0.755665C32.6535 0.75534 34.22 0.755284 35.7865 0.755499V0.759153Z" fill="#707D9B"/>
<path d="M62.3288 0.756896C63.8773 0.756896 65.4261 0.75697 66.9749 0.75712C67.387 0.746649 67.7956 0.835465 68.1633 1.01553C68.7754 1.33088 69.0873 1.83428 69.1186 2.49855C69.1507 3.18261 68.8187 3.73513 68.4098 4.25256C68.0067 4.73884 67.5093 5.14456 66.9449 5.44687C66.7938 5.5329 66.788 5.56113 66.9139 5.68098C67.2383 5.96874 67.4429 6.36068 67.4892 6.78336C67.5074 7.07251 67.4584 7.36198 67.3454 7.63044C67.0411 8.43663 66.4745 9.03757 65.7418 9.50418C65.1287 9.90339 64.4281 10.1603 63.6945 10.2548C63.3835 10.2876 63.07 10.2993 62.757 10.2898C62.0428 10.2816 61.328 10.2602 60.6138 10.2718C58.4257 10.3073 56.2377 10.2763 54.0496 10.2877C53.6892 10.2895 53.6718 10.2672 53.7911 9.94759C54.0057 9.37228 54.2239 8.79818 54.4402 8.22339C54.4617 8.15126 54.5055 8.08715 54.5657 8.0396C54.6259 7.99204 54.6998 7.96326 54.7774 7.95711C54.8477 7.95039 54.9179 7.94727 54.9885 7.94776C57.808 7.94732 60.6275 7.94805 63.4469 7.94997C63.6619 7.962 63.8754 7.90835 64.0571 7.79666C64.2385 7.68495 64.3791 7.52091 64.4583 7.32784C64.6495 6.93181 64.4943 6.64618 64.0473 6.58244C63.9816 6.57509 63.9154 6.57236 63.8493 6.5743C61.8461 6.57391 59.843 6.57378 57.8398 6.57393C57.5762 6.57393 57.5457 6.52772 57.6377 6.2872C57.8284 5.78931 58.0185 5.2912 58.204 4.79155C58.3078 4.51264 58.3854 4.45392 58.699 4.454C60.4771 4.45445 62.2552 4.45521 64.0334 4.45628C64.2982 4.45636 64.5629 4.45938 64.8277 4.453C65.066 4.45195 65.2973 4.37464 65.4852 4.2332C65.6729 4.09177 65.8069 3.89421 65.8657 3.6715C65.9641 3.32806 65.7655 3.06597 65.3959 3.0526C65.3343 3.05037 65.2722 3.05121 65.2107 3.05121C62.4219 3.05115 59.6335 3.05099 56.8448 3.05074C56.7699 3.05226 56.695 3.04868 56.6206 3.04002C56.4861 3.02151 56.4586 2.98278 56.5019 2.85975C56.5694 2.66681 56.6454 2.47644 56.7182 2.2851C56.8819 1.85455 57.0458 1.42403 57.2098 0.993559C57.2825 0.801954 57.3504 0.755454 57.5634 0.755415C59.1517 0.755103 60.7402 0.755045 62.3285 0.755239L62.3288 0.756896Z" fill="#707D9B"/>
<path d="M11.2965 7.74225C10.2892 7.70742 9.35833 7.71845 8.42796 7.72778C7.6297 7.73573 6.83152 7.74211 6.03329 7.74088C5.68509 7.74035 5.33693 7.72775 4.98871 7.72468C4.74383 7.7225 4.6729 7.77465 4.58808 7.99673C4.33092 8.66999 4.07329 9.34307 3.81523 10.016C3.7221 10.2585 3.66395 10.2958 3.39584 10.2958C2.61491 10.2959 1.83398 10.2959 1.05304 10.2958C1.01774 10.2958 0.982406 10.2964 0.947162 10.295C0.759161 10.2878 0.714294 10.2329 0.777051 10.0632C0.963344 9.5594 1.15496 9.05736 1.34437 8.55461C1.99073 6.83876 2.63701 5.12289 3.28321 3.407C3.57305 2.63675 3.85991 1.86542 4.14986 1.09526C4.2647 0.790195 4.34917 0.734983 4.68791 0.734944C7.03072 0.734681 9.37358 0.72444 11.7163 0.740275C12.5674 0.746024 13.4187 0.738579 14.2698 0.755154C14.7082 0.76219 15.1315 0.910294 15.4725 1.17592C15.8136 1.44155 16.0527 1.80946 16.152 2.22116C16.2235 2.5646 16.1957 2.92039 16.0717 3.24965C15.8515 3.90836 15.6034 4.55796 15.3466 5.20417C15.0912 5.84712 14.6196 6.33036 14.0735 6.75415C13.419 7.28083 12.6202 7.61341 11.7738 7.71168C11.5902 7.73182 11.4046 7.73563 11.2965 7.74225ZM8.53789 5.34348C9.4243 5.34348 10.3107 5.34377 11.1971 5.34432C11.4005 5.34492 11.6015 5.30159 11.7853 5.21746C12.3944 4.9428 12.6826 4.44604 12.7843 3.83719C12.8445 3.47669 12.6979 3.23683 12.3986 3.1227C12.2617 3.07435 12.1164 3.05176 11.9706 3.05617C11.3841 3.05735 10.7976 3.05746 10.2111 3.05653C9.04688 3.05565 7.88269 3.05465 6.71848 3.05351C6.49308 3.0534 6.43748 3.08566 6.37187 3.25737C6.1329 3.88244 5.895 4.50791 5.6581 5.13371C5.59118 5.3106 5.61645 5.34322 5.81254 5.34332C6.72101 5.34372 7.62945 5.34377 8.53789 5.34348Z" fill="#707D9B"/>
</svg>
