<svg width="81" height="23" viewBox="0 0 81 23" fill="none" xmlns="http://www.w3.org/2000/svg">
<path d="M1.32634 13.6376C2.38292 14.1154 4.00503 14.5923 5.67757 14.5869C7.47787 14.5811 8.42718 13.9129 8.42311 12.9029C8.41922 11.9396 7.59382 11.391 5.50806 10.7325C2.62332 9.84672 0.739787 8.42982 0.730719 6.18098C0.720068 3.54161 3.18147 1.51468 7.27115 1.50155C9.22646 1.49527 10.668 1.85782 11.6991 2.26748L10.836 5.09277C9.70317 4.60854 8.46137 4.36137 7.20522 4.37007C5.50755 4.3755 4.68715 5.06671 4.69039 5.8702C4.69437 6.85681 5.6743 7.28905 7.91544 8.03958C10.9797 9.03972 12.4265 10.458 12.4353 12.6377C12.4458 15.2313 10.2166 17.4416 5.45769 17.4569C3.47725 17.4632 1.52009 17.0098 0.541016 16.5318L1.32634 13.6376Z" fill="white"/>
<path d="M17.8606 2.84357C17.8645 3.80776 17.0444 4.59053 15.7573 4.59466C14.5236 4.59862 13.6973 3.82113 13.7185 2.85687C13.6893 1.84791 14.5094 1.08756 15.7693 1.08351C17.0303 1.07947 17.8303 1.83462 17.8606 2.84357ZM13.879 17.1998L13.8338 5.978L17.7444 5.96545L17.7896 17.1872L13.879 17.1998Z" fill="white"/>
<path d="M19.7968 9.53824C19.7911 8.13772 19.735 6.94482 19.6797 5.95837L23.075 5.94747L23.2614 7.48474L23.3389 7.48449C23.8502 6.77091 25.132 5.68861 27.2161 5.68192C29.7882 5.67366 31.7235 7.18195 31.7368 10.4866L31.7636 17.1415L27.8541 17.1541L27.829 10.9354C27.8232 9.48915 27.2526 8.50436 25.8387 8.5089C24.7579 8.51236 24.1176 9.17964 23.8625 9.82326C23.7607 10.0301 23.7108 10.3741 23.7121 10.6955L23.7382 17.1673L19.8276 17.1798L19.7968 9.53824Z" fill="white"/>
<path d="M45.7758 5.87552C45.7273 6.58668 45.6798 7.52768 45.6866 9.20379L45.7118 15.4682C45.7205 17.6255 45.2386 19.3938 43.8282 20.5232C42.4437 21.5834 40.5672 21.9109 38.7146 21.9168C37.0682 21.9221 35.318 21.6287 34.1836 21.0587L34.9448 18.4169C35.7445 18.8282 37.135 19.2591 38.6012 19.2544C40.4528 19.2485 41.8641 18.3489 41.8558 16.2841L41.8528 15.5497L41.8015 15.5499C41.0596 16.4931 39.8532 17.0249 38.4121 17.0295C35.2995 17.0395 33.0785 14.7978 33.0655 11.5614C33.051 7.95875 35.6652 5.65571 38.7516 5.64579C40.4754 5.64025 41.5589 6.30198 42.2057 7.21836L42.257 7.2182L42.3804 5.88642L45.7758 5.87552ZM41.7809 10.4552C41.7828 10.239 41.7563 10.0234 41.7019 9.81267C41.4144 8.89611 40.6662 8.27813 39.5854 8.2816C38.1715 8.28614 37.0179 9.4381 37.0261 11.4805C37.0329 13.1557 37.9639 14.4607 39.6103 14.4554C40.6136 14.4522 41.4092 13.8526 41.6625 13.0259C41.7652 12.7733 41.7888 12.406 41.7876 12.1071L41.7809 10.4552Z" fill="white"/>
<path d="M49.042 1.82585C50.0184 1.63866 51.5615 1.49636 53.1304 1.49132C55.3685 1.48414 56.8109 1.82427 57.8939 2.60093C58.7969 3.19412 59.3411 4.11079 59.346 5.32724C59.352 6.81837 58.2513 8.12992 56.4272 8.7328L56.4274 8.77858C58.0752 9.14048 60.0093 10.3507 60.0185 12.6453C60.0239 13.9767 59.4362 14.9876 58.5648 15.7482C57.3592 16.7387 55.4067 17.2037 52.577 17.2128C51.4161 17.2241 50.2557 17.1666 49.1034 17.0408L49.042 1.82585ZM51.3056 8.15222L53.3374 8.1457C55.7043 8.1381 57.0885 7.03212 57.0825 5.54099C57.0752 3.72755 55.5286 3.02149 53.2654 3.02875C52.2359 3.03206 51.6455 3.10216 51.2855 3.17243L51.3056 8.15222ZM51.3355 15.5649C51.7725 15.6326 52.4157 15.653 53.2137 15.6504C55.5282 15.643 57.6606 14.8794 57.6515 12.6296C57.643 10.519 55.6077 9.65292 53.1634 9.66076L51.3117 9.66671L51.3355 15.5649Z" fill="white"/>
<path d="M62.7738 11.8563C62.8361 14.5871 64.7959 15.7048 67.0592 15.6975C68.6793 15.6923 69.6565 15.4369 70.5035 15.1128L70.8958 16.5578C70.0991 16.8818 68.738 17.2533 66.7565 17.2597C62.9234 17.272 60.6249 15.0305 60.6114 11.6792C60.5979 8.32883 62.8002 5.68331 66.427 5.67167C70.4915 5.65862 71.5852 8.84482 71.5935 10.8872C71.5904 11.2019 71.5658 11.5162 71.5197 11.8283L62.7738 11.8563ZM69.4047 10.3888C69.4246 9.10402 68.7997 7.10942 66.2527 7.1176C63.9633 7.12494 62.9676 9.00983 62.7931 10.41L69.4047 10.3888Z" fill="white"/>
<path d="M77.0989 2.70068L77.1118 5.89035L80.3531 5.87995L80.3593 7.41686L77.118 7.42727L77.1422 13.417C77.1477 14.7942 77.5876 15.5729 78.8485 15.5688C79.2905 15.5729 79.7311 15.5253 80.1592 15.4273L80.269 16.9414C79.8318 17.1035 79.138 17.2207 78.2635 17.2235C77.2088 17.2269 76.3583 16.9306 75.8156 16.3821C75.1702 15.7871 74.9348 14.8013 74.9295 13.4932L74.9051 7.43437L72.9759 7.44057L72.9697 5.90365L74.8989 5.89746L74.8881 3.23567L77.0989 2.70068Z" fill="white"/>
</svg>
