<svg width="61" height="27" viewBox="0 0 61 27" fill="none" xmlns="http://www.w3.org/2000/svg">
<path d="M56.3931 13.9767C56.6979 14.1198 56.9661 14.2116 57.1957 14.3624C57.4734 14.5445 57.4815 14.8285 57.3064 15.1094C57.0101 15.5853 56.6923 16.0314 56.2047 16.339C56.0813 16.4167 56.0128 16.5809 55.8788 16.7577C56.7278 16.9827 57.4228 17.3557 57.7015 18.1473C57.9444 18.1051 58.1691 18.0608 58.3955 18.0281C58.856 17.9617 59.1523 18.3185 59.5207 18.4841C59.8726 18.6423 60.1257 18.9186 60.26 19.2972C60.3609 19.5809 60.2171 19.8231 59.938 19.9559C59.3812 20.2207 58.9667 19.9883 58.567 19.6382C58.381 19.4751 58.2085 19.2937 58.0084 19.1502C57.7852 18.9906 57.6963 19.043 57.6587 19.3077C57.62 19.5805 57.7223 19.8842 57.4579 20.1131C57.4214 20.1447 57.5103 20.3219 57.466 20.4112C57.4108 20.5166 57.3465 20.6186 57.3036 20.7286C57.2755 20.8007 57.279 20.8854 57.266 20.9638C57.143 21.7122 57.0632 21.8145 56.3355 21.9347C55.9801 21.9934 55.6124 22.0757 55.2556 21.8785C55.0745 21.7786 54.8998 21.7129 54.9016 21.458C54.9019 21.392 54.8088 21.3136 54.7427 21.2605C54.581 21.1301 54.4101 21.0109 54.227 20.8752C54.1802 20.9466 54.1398 21.0081 54.099 21.0696C54.0902 21.0415 54.0815 21.013 54.0727 20.9849C53.8762 21.0341 53.6821 21.0984 53.4831 21.129C53.0012 21.2035 52.5013 21.3772 52.0415 21.1259C51.8911 21.0436 51.7997 20.7694 51.7768 20.5718C51.7656 20.4738 51.9698 20.349 52.0809 20.2407C52.1227 20.1999 52.2036 20.1827 52.2215 20.137C52.3628 19.777 52.7168 19.7844 52.9959 19.7275C53.5914 19.6058 54.2034 19.5661 54.8007 19.4519C55.0243 19.409 55.245 19.2775 55.4335 19.14C55.6704 18.9671 55.6781 18.5811 55.4869 18.3618C55.3856 18.2457 54.9775 18.2598 54.7968 18.4191C54.5462 18.6409 54.2555 18.6925 53.9412 18.6925C53.5981 18.6922 53.3932 18.3765 53.4505 18.0559C53.5468 17.5163 53.9633 17.1961 54.2442 16.7844C54.4168 16.5317 54.6418 16.3148 54.8383 16.0775C54.884 16.0223 54.9097 15.9502 54.9395 15.8954C54.6625 15.8736 54.401 15.8947 54.1662 15.8247C53.8371 15.727 53.7377 15.4746 53.8874 15.1653C54.047 14.8355 54.3071 14.6207 54.6636 14.4738C55.1062 14.2914 55.5164 14.0277 55.9337 13.7869C56.7598 13.3102 57.582 12.8269 58.4036 12.3425C58.516 12.276 58.6148 12.1867 58.7199 12.1083C58.7076 12.0721 58.695 12.0356 58.6827 11.9994C58.4398 12.038 58.1912 12.0556 57.9553 12.1196C57.3925 12.2725 56.9992 12.7052 56.5267 13.0086C56.2683 13.1745 55.9625 13.2814 55.6641 13.3661C55.4222 13.435 55.2594 13.2712 55.2088 12.9766C55.1916 12.8754 55.1842 12.7727 55.1723 12.6708C55.1448 12.6652 55.1174 12.6595 55.09 12.6539C55.0573 12.733 55.0106 12.8093 54.9944 12.8919C54.8534 13.6125 54.3845 14.0386 53.7356 14.3047C53.6902 14.3233 53.6357 14.3427 53.5907 14.3339C53.1513 14.2502 52.8124 14.4197 52.4968 14.7135C52.4071 14.7969 52.2247 14.8046 52.0848 14.8042C51.8956 14.8039 51.8587 14.6636 51.9048 14.5079C52.0109 14.149 52.1702 13.7992 52.2278 13.4333C52.3111 12.9025 52.6381 12.5133 52.9312 12.1154C53.1422 11.8289 53.4617 11.6194 53.744 11.3888C54.5121 10.7606 54.775 10.042 54.4439 9.12981C54.3606 8.89991 54.2302 8.76703 53.9725 8.69531C53.3355 8.51814 53.2213 8.55857 53.616 7.89171C53.9855 7.26809 54.3448 6.63815 54.6959 6.00398C54.7641 5.88059 54.7722 5.72381 54.8105 5.5832C54.8513 5.43345 54.8692 5.27069 54.9417 5.13781C55.1118 4.826 55.2651 4.77573 55.6096 4.89455C55.9112 4.9986 56.2153 5.10722 56.3467 5.44329C56.5345 5.92313 56.2887 6.55483 55.8036 6.83008C55.6827 6.89863 55.5614 6.97456 55.4306 7.0171C54.9332 7.1781 54.7996 7.58623 54.7381 8.03443C54.7255 8.12583 54.7736 8.26082 54.8418 8.32234C55.1846 8.63134 55.2788 9.04755 55.3638 9.46728C55.4327 9.80721 55.5002 9.83885 55.7758 9.60684C56.3411 9.13086 56.9264 8.68688 57.6168 8.40354C57.7908 8.33218 57.9655 8.24957 58.148 8.21477C58.2629 8.19297 58.4011 8.23024 58.5146 8.27629C58.7006 8.35116 58.8841 8.4408 59.0504 8.55154C59.1323 8.60602 59.2268 8.72344 59.2244 8.80991C59.2107 9.29819 59.1576 9.77733 58.8883 10.2129C58.7333 10.4635 58.6377 10.7507 58.5104 11.0189C58.3737 11.3076 58.4679 11.438 58.7955 11.4369C59.2405 11.4355 59.6856 11.4489 60.1306 11.4594C60.3384 11.4643 60.4621 11.5652 60.4906 11.7811C60.5173 11.9857 60.4969 12.1765 60.2832 12.2567C59.7844 12.4437 59.2694 12.5896 58.7783 12.7935C58.02 13.1077 57.2748 13.4533 56.5288 13.796C56.4571 13.8287 56.4209 13.9377 56.3931 13.9767ZM55.0584 11.599C55.1357 11.5849 55.2028 11.5923 55.2412 11.5628C55.5955 11.2882 55.9977 11.2038 56.4381 11.2144C56.7278 11.2214 56.9865 11.1195 57.1363 10.8428C57.3655 10.4203 57.5971 9.9988 57.8147 9.57028C57.8509 9.49892 57.82 9.39311 57.82 9.29327C57.536 9.30557 57.2453 9.68874 57.0839 9.15969C56.5084 9.50419 55.9214 9.80053 55.457 10.2698C55.4732 10.2976 55.489 10.3257 55.5052 10.3535C55.5857 10.3394 55.6662 10.3254 55.7881 10.3043C55.4458 10.7071 55.1136 11.0604 55.0584 11.599ZM53.4715 12.469C53.4483 12.4581 53.4251 12.4472 53.4023 12.4363C53.2691 12.5544 53.1481 12.7509 53.0001 12.7741C52.7291 12.8163 52.6342 12.996 52.5379 13.1868C52.5115 13.2396 52.5787 13.3394 52.6029 13.4174C52.6736 13.3865 52.7572 13.37 52.8107 13.3204C52.8623 13.2726 52.8824 13.1911 52.9393 13.0789C52.9393 13.2266 52.9358 13.3155 52.9404 13.4037C52.945 13.4937 52.958 13.5837 52.9675 13.6758C53.113 13.5433 53.236 13.4431 53.345 13.3296C53.4898 13.1784 53.4687 13.0462 53.287 12.9731C53.3513 12.7959 53.4114 12.6325 53.4715 12.469ZM55.6971 20.2375C55.6236 20.1296 55.5073 19.9257 55.4869 19.9349C55.3016 20.0185 55.1276 20.1317 54.9645 20.2551C54.9336 20.2787 54.9378 20.421 54.9715 20.4456C55.1322 20.563 55.3087 20.659 55.4795 20.7627C55.5438 20.6073 55.6085 20.4516 55.6971 20.2375Z" fill="white"/>
<path d="M33.2461 12.8542C33.2932 12.9425 33.3783 13.0321 33.3857 13.1274C33.4173 13.539 33.5122 13.6578 33.9028 13.7907C33.9756 13.8153 34.0434 13.9419 34.0592 14.0312C34.1046 14.2902 34.1489 14.5549 34.139 14.8154C34.1341 14.9458 34.0202 15.0777 33.94 15.1982C33.7618 15.4665 33.5741 15.7284 33.3903 15.9927C33.4089 16.0261 33.4275 16.0595 33.4461 16.0932C33.591 16.0507 33.7513 16.0342 33.8778 15.96C34.1499 15.8011 34.4079 15.6169 34.6663 15.4352C34.9581 15.2299 34.9268 14.6558 34.6157 14.4516C34.4849 14.3658 34.3496 14.2871 34.145 14.1616C34.4589 14.0097 34.7331 13.9166 34.9627 13.7584C35.5258 13.3706 36.0724 13.5689 36.6244 13.7587C36.7143 13.7897 36.7977 13.8526 36.8725 13.9144C37.0669 14.0747 37.2525 14.0456 37.4441 13.9109C37.9538 13.5527 38.4446 13.1597 38.9852 12.8567C39.2471 12.7101 39.605 12.734 39.953 12.6753C39.9263 12.9843 39.9523 13.2019 39.6032 13.2609C39.4138 13.2929 39.2057 13.4009 39.1079 13.6719C39.0485 13.8375 38.7694 13.9591 38.5645 14.0315C37.9451 14.2502 37.5661 14.7173 37.2279 15.2373C37.0349 15.5343 37.1397 15.8472 37.2423 16.1266C37.3141 16.3224 37.5271 16.2483 37.6832 16.1681C38.0695 15.9702 38.4755 16.0577 38.8608 16.1319C38.9814 16.1551 39.1199 16.4022 39.1424 16.5622C39.2703 17.4663 38.7314 18.0794 38.163 18.6679C37.8674 18.9741 37.538 19.2535 37.4142 19.6831C37.3819 19.7949 37.3499 19.9218 37.371 20.0315C37.4392 20.3833 37.3464 20.6558 37.0402 20.8502C37.016 20.8656 36.9956 20.8906 36.9812 20.9156C36.9727 20.93 36.9797 20.9532 36.9797 21.0056C37.8097 20.9419 38.6383 20.8533 39.469 20.8214C40.2947 20.7894 41.1226 20.8143 41.9321 20.8143C41.9244 20.9729 41.923 21.1124 41.9079 21.2502C41.9019 21.3058 41.8784 21.3898 41.8397 21.406C41.5831 21.5142 41.3205 21.6886 41.0593 21.69C40.3784 21.6935 39.6953 21.5659 39.0165 21.5902C38.2565 21.6172 37.4944 21.7181 36.7442 21.8506C35.5937 22.0538 34.4554 22.328 33.3059 22.5393C32.6162 22.6662 31.917 22.7618 31.2178 22.8114C30.8712 22.836 30.5049 22.7586 30.1678 22.6588C30.0398 22.6208 29.9379 22.3994 29.8872 22.2415C29.8658 22.1748 29.9888 22.031 30.0778 21.9645C30.6933 21.5047 31.4069 21.3455 32.1581 21.2625C32.6359 21.2098 33.1006 21.0477 33.5766 20.9658C34.1605 20.8656 34.7029 20.6734 35.1855 20.3306C35.2604 20.2775 35.3515 20.1394 35.3293 20.0824C35.2959 19.997 35.1722 19.9422 35.0797 19.8863C34.9479 19.8065 34.8083 19.739 34.6737 19.6631C34.3872 19.501 34.0912 19.353 33.8191 19.1699C33.4838 18.9442 33.4848 18.3547 33.8001 18.0966C34.1678 17.7957 34.5331 17.4923 34.9008 17.1914C35.1542 16.984 35.1845 16.5562 34.9307 16.3579C34.8674 16.3087 34.6864 16.3411 34.6023 16.3987C34.08 16.7576 33.5681 17.1324 33.0563 17.5061C32.7062 17.762 32.3156 17.7672 31.918 17.6874C31.6878 17.641 31.4523 17.5813 31.2449 17.4765C31.1492 17.4284 31.0529 17.2515 31.0638 17.144C31.1137 16.6539 31.1313 16.1435 31.2927 15.6865C31.511 15.0671 31.8474 14.4888 32.1388 13.8958C32.208 13.7548 32.2777 13.6005 32.3884 13.4961C32.5244 13.3678 32.7083 13.2912 32.863 13.1804C32.9797 13.0971 33.0823 12.9955 33.2461 12.8542ZM32.3641 21.7659C32.6531 21.7476 32.9368 21.7466 33.2152 21.7076C33.5776 21.6566 33.9337 21.5634 34.2958 21.51C34.7162 21.4481 35.1416 21.4197 35.5624 21.3578C35.8165 21.3205 36.07 21.2611 36.3147 21.1827C36.3959 21.1567 36.4486 21.0421 36.5143 20.9679C36.4366 20.9124 36.3593 20.8098 36.2813 20.8094C35.993 20.8076 35.8482 20.6625 35.7824 20.402C35.7736 20.3672 35.742 20.3383 35.7079 20.287C35.3413 20.4684 34.9416 20.5658 34.7001 20.9363C34.6463 21.0189 34.5296 21.0787 34.4297 21.11C34.0068 21.2428 33.579 21.361 33.2159 21.4664C33.1002 21.3715 33.0324 21.2699 32.9737 21.2748C32.5114 21.3131 32.3993 21.401 32.3641 21.7659ZM37.8132 17.4621C37.6677 17.4326 37.5478 17.3707 37.5028 17.4055C37.3573 17.518 37.21 17.6502 37.1228 17.8077C37.082 17.8811 37.1611 18.0411 37.222 18.1392C37.2434 18.174 37.4199 18.1729 37.4448 18.1349C37.5675 17.9493 37.6624 17.7458 37.8132 17.4621Z" fill="white"/>
<path d="M18.6523 11.5938C18.6084 11.353 18.5922 11.102 18.5124 10.8735C18.4291 10.6351 18.4625 10.459 18.6267 10.2748C18.9047 9.96336 19.168 9.6389 19.4345 9.31725C19.4939 9.24553 19.5396 9.16222 19.6373 9.01598C19.4749 9.02969 19.3884 9.0209 19.3132 9.04586C18.8334 9.20475 18.3496 9.35451 17.8807 9.54152C17.6427 9.63644 17.4743 9.58898 17.2761 9.45399C16.7273 9.07996 16.187 8.68449 15.6024 8.37479C15.0484 8.08126 14.9465 8.02325 15.0192 8.73019C15.0519 9.04832 14.9609 9.24131 14.6677 9.39739C14.2831 9.60163 13.9372 9.87724 13.56 10.0976C13.4655 10.1528 13.2957 10.1567 13.1951 10.11C12.7455 9.89973 12.3019 9.6744 11.8723 9.42657C11.769 9.36681 11.6944 9.20792 11.6649 9.08102C11.6227 8.89927 11.6582 8.6996 11.6167 8.51786C11.5556 8.2521 11.6846 8.15508 11.9075 8.10446C12.6024 7.94697 13.309 7.84679 14.0089 7.9997C14.3907 8.08301 14.6863 7.92131 15.0168 7.83343C16.3238 7.48646 17.6635 7.39718 19.0067 7.34445C19.5034 7.32511 20.0011 7.31597 20.4982 7.31562C20.7271 7.31562 20.8206 7.17782 20.8691 6.99573C21.0955 6.14115 21.1904 5.27322 21.0814 4.39263C21.0143 3.85092 20.9215 3.31237 20.8276 2.68945C20.9408 2.82022 21.0213 2.8951 21.08 2.98404C21.6751 3.88502 22.0502 4.86966 22.187 5.94253C22.2235 6.22798 22.2344 6.5201 22.3061 6.79641C22.3357 6.9096 22.4826 7.01154 22.599 7.07904C23.1484 7.39717 23.7277 7.66891 24.2547 8.01974C24.9384 8.47462 25.5016 9.06801 25.9617 9.75315C25.9934 9.80025 26.0152 9.85439 26.0872 9.99324C25.9375 9.92575 25.8619 9.90255 25.7979 9.86142C24.9338 9.30389 24.0276 8.83775 23.0271 8.57446C22.96 8.55688 22.8932 8.53227 22.8247 8.52559C22.4918 8.49361 22.0924 8.3428 21.8446 8.47462C21.6168 8.59555 21.5511 9.02266 21.415 9.31514C21.0209 10.1616 20.6543 11.0222 20.2251 11.85C19.9112 12.4557 19.5157 13.0192 19.1564 13.6014C19.1202 13.6597 19.0829 13.7174 19.046 13.7754C19.0214 13.7638 18.9972 13.7525 18.9726 13.7409C18.9262 13.3683 18.8798 12.996 18.8277 12.5795C18.2073 12.9043 17.8276 12.435 17.4146 12.2237C16.5769 11.7948 16.7052 12.0711 16.6612 11.0802C16.6479 10.7817 16.6359 10.4833 16.6257 10.1845C16.6173 9.93067 16.9003 9.59812 17.1467 9.60163C17.2268 9.60269 17.3323 9.68143 17.3805 9.75455C17.7278 10.2833 18.0642 10.819 18.402 11.354C18.4572 11.4412 18.5029 11.5347 18.5528 11.6251C18.5862 11.6145 18.6193 11.6043 18.6523 11.5938Z" fill="white"/>
<path d="M33.8602 12.264C33.7477 12.4046 33.6616 12.5122 33.5755 12.6201C33.7709 12.25 33.5031 12.1498 33.2577 11.9793C32.5255 11.4703 32.1216 10.7549 32.0467 9.85884C32.0154 9.48446 31.9388 9.11148 31.9395 8.73816C31.9398 8.4376 31.9985 8.12965 32.0811 7.83894C32.1504 7.59532 32.105 7.32429 32.3627 7.11618C32.7002 6.84375 32.9508 6.78504 33.3132 7.04412C33.4419 7.13622 33.5709 7.23219 33.7126 7.29933C33.7804 7.33132 33.9024 7.33027 33.9558 7.28808C34.011 7.24449 34.0546 7.11794 34.0314 7.05396C33.8472 6.546 34.2462 6.27356 34.4708 5.93293C34.5179 5.86157 34.6199 5.82606 34.6659 5.75435C34.9415 5.32513 35.3518 5.19858 35.8355 5.16307C36.2141 5.1353 36.585 5.00277 36.9636 4.97289C37.198 4.95426 37.4515 5.0091 37.6775 5.08644C38.2055 5.26713 38.465 5.70373 38.4256 6.2697C38.4171 6.38887 38.4062 6.51014 38.4189 6.62791C38.511 7.47615 38.1658 8.24179 37.9827 9.04012C37.8459 9.63702 37.7742 10.2487 37.6712 10.8533C37.61 11.2126 37.5351 11.5697 37.4845 11.9304C37.4645 12.0728 37.4803 12.2247 37.5039 12.3681C37.5436 12.6113 37.4729 12.8019 37.2276 12.8497C36.959 12.9024 36.6922 13.0877 36.4004 12.894C36.3368 12.8518 36.2253 12.8774 36.136 12.8789C35.678 12.8855 35.4221 12.6855 35.3349 12.2289C35.2959 12.0246 35.2867 11.8148 35.2586 11.6081C35.2305 11.3996 35.125 11.2513 34.8997 11.3367C34.5524 11.4685 34.203 11.6088 33.8848 11.7972C33.74 11.8823 33.6222 12.0876 33.8602 12.264ZM35.7634 7.66458C35.7462 7.55806 35.7392 7.44909 35.7107 7.34609C35.5996 6.94288 35.3145 6.86484 35.0055 7.13904C34.8589 7.2691 34.6821 7.36612 34.5426 7.50217C34.4782 7.56509 34.4227 7.70114 34.4473 7.77671C34.4849 7.89272 34.5689 7.95846 34.7471 7.89588C35.0618 7.78515 35.4006 7.74262 35.7634 7.66458ZM34.6354 10.0437C34.6913 10.0578 34.7471 10.0719 34.8027 10.0859C34.8389 9.97239 34.8755 9.85884 34.9117 9.7453C34.8392 9.74284 34.7169 9.71612 34.7039 9.74248C34.6603 9.83283 34.655 9.9418 34.6354 10.0437ZM35.5318 9.86622C35.3806 9.80189 35.3022 9.73827 35.2597 9.7569C35.1806 9.79135 35.1229 9.87396 35.0561 9.93653C35.1096 9.96993 35.1693 10.0378 35.2154 10.0293C35.2969 10.0146 35.3704 9.95375 35.5318 9.86622Z" fill="white"/>
<path d="M16.5674 26.4779C16.8529 25.9576 17.1587 25.4472 17.4185 24.9143C17.776 24.1806 18.0449 23.4171 18.11 22.59C18.1325 22.3049 18.0193 22.191 17.7785 22.0834C16.6272 21.5695 15.4756 21.0548 14.3429 20.5022C13.8638 20.2684 13.4265 19.9461 12.9783 19.6522C12.8321 19.5562 12.7108 19.4223 12.5171 19.2522C12.6739 19.2342 12.754 19.2152 12.8338 19.217C13.8606 19.2384 14.879 19.1875 15.8795 18.9217C15.9734 18.8968 16.121 18.986 16.2142 19.0595C16.5492 19.3242 16.8708 19.6058 17.1988 19.8793C17.2782 19.9457 17.364 20.0048 17.4466 20.0674C17.4719 20.0547 17.4976 20.0417 17.5229 20.029C17.5032 19.9211 17.4958 19.8093 17.4617 19.7063C17.325 19.2929 17.1854 18.8806 17.0357 18.4717C16.9351 18.1972 16.8227 17.9297 17.1348 17.6769C17.1056 17.6615 17.0768 17.646 17.0476 17.6305C16.9647 17.684 16.8821 17.7377 16.7988 17.7908C16.4226 18.0302 16.056 18.2865 15.6672 18.5037C15.2608 18.7308 14.8808 18.5055 14.8569 18.0415C14.834 17.5943 14.8291 17.1461 14.8056 16.699C14.795 16.5014 14.8474 16.3661 15.0302 16.2581C15.3982 16.0413 15.7607 15.8124 16.1059 15.5614C16.3228 15.4036 16.5028 15.4015 16.7309 15.5298C17.1201 15.7488 17.5282 15.9337 17.9205 16.1474C18.1216 16.2567 18.239 16.1931 18.3237 16.0093C18.4147 15.8121 18.5002 15.612 18.6693 15.3979C18.7385 15.663 18.844 15.9249 18.8707 16.1942C18.9863 17.3606 19.0841 18.529 19.1772 19.6975C19.2103 20.1127 19.218 20.5307 19.224 20.9476C19.2268 21.1473 19.3069 21.2531 19.4975 21.3149C20.2895 21.5712 21.1054 21.5944 21.9202 21.5361C22.5031 21.4946 23.0803 21.3775 23.6607 21.296C23.6958 21.291 23.7331 21.3002 23.8417 21.3083C23.7176 21.4046 23.6473 21.4661 23.5703 21.5185C22.554 22.2089 21.4249 22.5801 20.2083 22.7021C20.0894 22.714 19.9706 22.7278 19.8515 22.7341C19.6637 22.7439 19.5548 22.8265 19.475 23.0104C18.8999 24.3381 18.1012 25.4968 16.8947 26.3362C16.7991 26.4027 16.6965 26.4582 16.597 26.519C16.5875 26.5046 16.5773 26.4913 16.5674 26.4779Z" fill="white"/>
<path d="M11.3704 18.8267C9.99208 19.2271 8.61337 19.2925 7.23255 19.3396C6.83532 19.353 6.43914 19.392 6.04191 19.3994C5.83802 19.4033 5.74592 19.4838 5.68229 19.6753C5.42567 20.4477 5.40739 21.2435 5.45731 22.0394C5.49 22.5632 5.59757 23.0824 5.67034 23.6037C5.68335 23.6972 5.69002 23.7914 5.69987 23.8853C5.66999 23.8986 5.64011 23.912 5.61023 23.925C5.41407 23.6013 5.18944 23.2908 5.02774 22.9509C4.58375 22.019 4.31131 21.0375 4.27862 19.9994C4.27229 19.8012 4.17703 19.7031 3.9995 19.6272C2.74524 19.09 1.6481 18.3381 0.810403 17.2431C0.684906 17.0793 0.576986 16.9017 0.5 16.6849C0.553433 16.7116 0.610381 16.733 0.659947 16.7654C1.70048 17.4463 2.80113 17.988 4.03501 18.2189C4.13238 18.2372 4.23327 18.2376 4.331 18.2548C4.65793 18.3121 4.79291 18.1855 4.93001 17.8614C5.3979 16.7559 5.89708 15.6598 6.45637 14.5982C6.80544 13.9359 7.29723 13.3499 7.69728 12.7122C7.81855 12.5185 7.83824 12.2633 7.92015 12.0422C8.06463 11.6527 8.21227 11.2639 8.37995 10.8839C8.41124 10.8125 8.56275 10.7278 8.6197 10.7496C8.71074 10.7847 8.82429 10.8993 8.83237 10.989C8.88088 11.5338 8.90971 12.0808 8.92483 12.6278C8.92729 12.7132 8.84503 12.8292 8.76839 12.8837C8.48541 13.0859 8.19504 13.2799 7.89413 13.4539C7.69235 13.5706 7.60588 13.726 7.6456 13.945C7.73102 14.4129 7.82312 14.8797 7.92085 15.3452C7.9676 15.568 8.04881 15.7849 8.08326 16.0092C8.09732 16.1003 8.05267 16.2233 7.99256 16.2982C7.71345 16.6479 7.41851 16.9844 7.13271 17.3289C7.06135 17.415 7.00405 17.5131 6.94043 17.6059C6.9566 17.6294 6.97277 17.6526 6.98859 17.6762C7.20267 17.6185 7.41921 17.5686 7.63048 17.5011C7.98061 17.389 8.32757 17.2652 8.67524 17.1461C8.89038 17.0722 8.92307 16.9594 8.78456 16.7685C8.63376 16.5604 8.49736 16.3386 8.38241 16.1087C8.3339 16.0117 8.30718 15.8109 8.35675 15.7747C8.50404 15.6668 8.73781 15.5125 8.85944 15.5635C9.38006 15.7818 9.87783 16.0577 10.3693 16.3379C10.4526 16.3853 10.4976 16.5548 10.5053 16.6718C10.5345 17.1186 10.5609 17.5675 10.5493 18.0147C10.5408 18.3395 10.6463 18.5416 10.963 18.6383C11.1054 18.6812 11.2351 18.7628 11.3704 18.8267Z" fill="white"/>
<path d="M2.23926 5.62093C2.63895 5.39349 3.0281 5.1446 3.44044 4.94353C4.31927 4.5143 5.2663 4.33151 6.23302 4.2496C6.44569 4.23167 6.5378 4.13817 6.61795 3.9501C7.18954 2.60548 8.01564 1.45597 9.2344 0.617569C9.31385 0.563081 9.39892 0.51703 9.5325 0.506836C9.44673 0.653073 9.36587 0.802123 9.27483 0.945197C8.7064 1.84125 8.26347 2.7918 8.03989 3.83374C7.98787 4.07524 7.9847 4.32764 7.96291 4.57547C7.94217 4.80959 8.14324 4.84053 8.28878 4.90415C8.9704 5.20085 9.67346 5.4536 10.3361 5.78756C11.2209 6.23365 12.0801 6.73212 12.9392 7.22708C13.1572 7.35258 13.3343 7.54908 13.5301 7.71325C13.521 7.74313 13.5115 7.77266 13.5024 7.80254C13.412 7.80254 13.3217 7.79867 13.232 7.80324C12.4087 7.84402 11.5858 7.88655 10.7629 7.92839C10.753 7.92874 10.7418 7.92804 10.7333 7.93261C10.2204 8.20293 9.83833 7.99096 9.47907 7.61798C9.28678 7.41831 9.05653 7.25555 8.83893 7.08084C8.76792 7.02389 8.6839 6.98241 8.60586 6.9339C8.58161 6.95042 8.55735 6.96695 8.53345 6.98382C8.65789 7.37402 8.75034 7.77863 8.91415 8.15126C9.1416 8.66801 9.13175 9.07473 8.78901 9.58903C8.34924 10.2489 8.09227 11.0307 7.75656 11.7594C7.71684 11.8455 7.675 11.9306 7.63422 12.0164C7.59767 12.0192 7.56075 12.022 7.5242 12.0251C7.41276 11.5892 7.24965 11.1593 7.19973 10.7164C7.05349 9.41361 6.94803 8.10626 6.83695 6.79997C6.81516 6.54335 6.83554 6.28286 6.84152 6.02414C6.84574 5.85329 6.78422 5.75029 6.6088 5.69616C5.8386 5.45958 5.05117 5.37837 4.25248 5.45008C3.59371 5.50949 2.93775 5.60195 2.28074 5.67963C2.26668 5.65995 2.25297 5.64026 2.23926 5.62093Z" fill="white"/>
<path d="M49.2029 12.4706C49.2152 12.2798 49.2472 12.0878 49.2352 11.8983C49.2117 11.525 49.1758 11.1513 49.1157 10.7829C49.1045 10.714 48.9315 10.6008 48.8756 10.6219C48.5121 10.7583 48.1539 10.7348 47.8534 10.5242C47.6797 10.4026 47.5345 10.1685 47.4913 9.96105C47.466 9.84048 47.6403 9.64045 47.7711 9.53183C48.0956 9.2615 48.439 9.01191 48.7881 8.77357C49.3126 8.41536 49.8729 8.39076 50.4554 8.63191C50.6094 8.69589 50.7728 8.74053 50.9352 8.7799C51.2794 8.86251 51.4995 9.4443 51.3392 9.8004C51.0505 10.4427 50.8523 11.0944 50.8199 11.8231C50.8003 12.2664 50.8456 12.7701 50.5633 13.2029C50.493 13.3108 50.6266 13.5502 50.6628 13.7302C50.6952 13.8915 50.7215 14.0543 50.7521 14.2164C50.7918 14.428 50.841 14.6378 50.8688 14.8509C50.8808 14.9426 50.879 15.1029 50.8326 15.1251C50.5131 15.2766 50.19 15.4383 49.8494 15.5219C49.423 15.6267 49.1544 15.4421 48.9572 15.0294C48.8904 14.8902 48.7849 14.7693 48.697 14.6403C48.6658 14.6375 48.6341 14.635 48.6028 14.6322C48.522 14.8568 48.3895 15.0769 48.3698 15.3065C48.3009 16.116 48.2928 16.9309 48.2154 17.7398C48.1827 18.0829 48.4854 18.2516 48.5171 18.543C48.6067 18.5223 48.7382 18.5314 48.7789 18.4752C48.9519 18.2365 49.0978 17.9781 49.302 17.6484C49.2679 17.9647 49.2384 18.201 49.2184 18.4383C49.1941 18.7248 49.1793 19.0116 49.1579 19.2985C49.1294 19.6788 49.0567 20.023 48.6127 20.1492C48.4548 20.1942 48.3198 20.3147 48.1697 20.3914C47.8843 20.5373 47.6941 20.5014 47.5387 20.2251C47.3324 19.8574 47.1746 19.4689 47.3742 19.0376C47.3946 18.9933 47.414 18.9427 47.4136 18.8952C47.3957 17.0715 47.3665 15.2481 47.364 13.4243C47.3637 13.1231 47.4765 12.8208 47.5433 12.5206C47.5753 12.3775 47.634 12.24 47.6597 12.0963C47.7135 11.7925 47.9314 11.6702 48.1926 11.6002C48.4239 11.5384 48.5241 11.7089 48.6383 11.8667C48.792 12.079 48.9646 12.2776 49.1291 12.4819C49.1533 12.4777 49.1783 12.4742 49.2029 12.4706Z" fill="white"/>
<path d="M14.9819 13.9823C15.0888 14.2903 14.9408 14.4576 14.6834 14.6046C14.3045 14.8208 13.9537 15.0858 13.5737 15.2995C13.4605 15.3632 13.2668 15.3755 13.1497 15.3227C12.7163 15.128 12.293 14.9076 11.8807 14.671C11.7721 14.6088 11.6603 14.458 11.648 14.3381C11.5973 13.8344 11.5699 13.3271 11.5664 12.8209C11.5657 12.7 11.6603 12.5365 11.7619 12.4641C12.1334 12.199 12.5307 11.9705 12.9093 11.7146C13.0935 11.5898 13.2488 11.5663 13.4545 11.6823C13.8689 11.9164 14.307 12.1097 14.72 12.3463C14.816 12.4012 14.8954 12.5579 14.9067 12.675C14.9489 13.1098 14.9598 13.5475 14.9819 13.9823Z" fill="white"/>
</svg>
