<svg width="67" height="22" viewBox="0 0 67 22" fill="none" xmlns="http://www.w3.org/2000/svg">
<g clip-path="url(#clip0_4788_111623)">
<path d="M1.31314 13.259C2.42648 13.8768 3.65114 14.2059 4.89518 14.2218C6.3762 14.2113 7.15542 13.5232 7.14944 12.487C7.14377 11.4987 6.46333 10.9379 4.74578 10.2676C2.37033 9.36626 0.817174 7.91726 0.803907 5.61C0.788401 2.90203 2.80796 0.816091 6.17234 0.792132C7.42303 0.757169 8.66589 1.02126 9.81699 1.56656L9.11423 4.46761C8.18104 3.97371 7.15882 3.72329 6.12548 3.73545C4.72892 3.74541 4.0558 4.45667 4.06053 5.28104C4.06636 6.29331 4.87369 6.73429 6.71921 7.49855C9.24268 8.51685 10.4365 9.96832 10.4494 12.2047C10.4646 14.8657 8.63655 17.1391 4.72165 17.167C3.09242 17.1786 1.48123 16.7184 0.674561 16.2304L1.31314 13.259Z" fill="white"/>
<path d="M14.8873 2.14036C14.8929 3.12958 14.2204 3.93484 13.1615 3.94236C12.1467 3.94959 11.4648 3.15399 11.4799 2.16462C11.4533 1.1295 12.126 0.347276 13.1624 0.339897C14.1997 0.332479 14.8598 1.10526 14.8873 2.14036ZM11.6489 16.88L11.5827 5.3666L14.7997 5.3437L14.866 16.8571L11.6489 16.88Z" fill="white"/>
<path d="M16.497 9.00324C16.4888 7.56631 16.4395 6.34252 16.3915 5.33049L19.1846 5.3106L19.3419 6.88738L19.4056 6.8869C19.7564 6.3075 20.231 5.83423 20.787 5.50967C21.343 5.18511 21.9628 5.01946 22.5906 5.02763C24.7065 5.01256 26.3025 6.55512 26.3219 9.94558L26.3612 16.7735L23.145 16.7964L23.1084 10.4161C23.0998 8.93228 22.6279 7.92334 21.4648 7.9316C20.5757 7.93794 20.0506 8.62422 19.8425 9.28523C19.7526 9.57274 19.7114 9.87631 19.721 10.1805L19.7591 16.8206L16.5421 16.8435L16.497 9.00324Z" fill="white"/>
<path d="M37.8594 5.17873C37.8214 5.90854 37.7845 6.8741 37.7944 8.59378L37.8316 15.021C37.8441 17.2343 37.4524 19.0499 36.2949 20.2123C35.1587 21.3036 33.6159 21.6444 32.0917 21.6552C30.7375 21.6648 29.297 21.3683 28.3623 20.7864L28.9817 18.0739C29.9065 18.6298 30.9406 18.9218 31.9918 18.9239C33.5149 18.913 34.6735 17.9864 34.6614 15.868L34.6572 15.1145L34.6149 15.1149C34.007 16.0845 33.016 16.6331 31.8304 16.6416C29.2697 16.6598 27.437 14.3655 27.418 11.045C27.3966 7.34873 29.5412 4.97912 32.0802 4.96105C33.4986 4.95094 34.3916 5.62714 34.926 6.56565L34.9682 6.56535L35.0663 5.19862L37.8594 5.17873ZM34.5847 9.88774C34.5858 9.66593 34.5634 9.44474 34.5182 9.22869C34.2793 8.28905 33.6621 7.65691 32.7731 7.66321C31.6099 7.67151 30.6638 8.85639 30.6758 10.9518C30.6857 12.6705 31.455 14.0071 32.8094 13.9975C33.1971 13.9951 33.5734 13.849 33.8783 13.5825C34.1834 13.316 34.3998 12.9441 34.4939 12.5255C34.5719 12.2191 34.6059 11.9008 34.5946 11.5825L34.5847 9.88774Z" fill="white"/>
<path d="M40.5359 1.01423C41.644 0.778004 42.77 0.659567 43.8982 0.660515C45.7395 0.647413 46.9269 0.992685 47.8199 1.78677C48.5644 2.39307 49.0144 3.33219 49.0213 4.58022C49.0301 6.11008 48.128 7.45856 46.629 8.08175L46.6293 8.12873C47.9859 8.4958 49.58 9.73259 49.5937 12.0868C49.6054 12.6807 49.5057 13.2709 49.3013 13.8196C49.0967 14.3683 48.7918 14.8637 48.4057 15.2741C47.4165 16.2934 45.8116 16.7755 43.4834 16.7921C42.5287 16.8067 41.574 16.7507 40.6257 16.6246L40.5359 1.01423ZM42.4144 7.49929L44.0857 7.4874C46.0329 7.47351 47.1688 6.33531 47.1599 4.80536C47.1493 2.94477 45.8752 2.22434 44.0133 2.23758C43.4671 2.2255 42.9215 2.27661 42.385 2.39009L42.4144 7.49929ZM42.4582 15.1046C42.9704 15.1775 43.4872 15.2052 44.0034 15.1875C45.9073 15.174 47.6596 14.3851 47.6463 12.0768C47.634 9.91138 45.9572 9.02799 43.9465 9.04229L42.4234 9.05314L42.4582 15.1046Z" fill="white"/>
<path d="M51.858 11.2729C51.9165 14.0745 53.5315 15.2162 55.3934 15.203C56.7262 15.1935 57.5294 14.929 58.2252 14.5942L58.5518 16.0759C57.8971 16.4103 56.7786 16.795 55.1484 16.8066C51.9951 16.829 50.0984 14.5351 50.0787 11.0967C50.0589 7.6593 51.8639 4.93935 54.8475 4.9181C58.191 4.89434 59.099 8.16054 59.111 10.256C59.1094 10.5789 59.0899 10.9014 59.0528 11.2217L51.858 11.2729ZM57.3093 9.75019C57.3224 8.432 56.8032 6.38716 54.7077 6.40206C52.8245 6.41555 52.01 8.35191 51.8703 9.78884L57.3093 9.75019Z" fill="white"/>
<path d="M63.6188 1.83984L63.6375 5.1124L66.3042 5.09343L66.3133 6.67027L63.6466 6.68927L63.6821 12.8347C63.6902 14.2476 64.0541 15.0455 65.0914 15.0381C65.4551 15.0411 65.8174 14.9911 66.1693 14.8895L66.2634 16.4427C65.7348 16.653 65.1756 16.7529 64.6144 16.7373C63.7468 16.7434 63.0462 16.4417 62.5984 15.8803C62.0661 15.2715 61.8697 14.2606 61.8619 12.9186L61.8261 6.70226L60.2392 6.71356L60.2301 5.13669L61.817 5.12542L61.8015 2.39443L63.6188 1.83984Z" fill="white"/>
</g>
<defs>
<clipPath id="clip0_4788_111623">
<rect width="66" height="22" fill="white" transform="translate(0.387085)"/>
</clipPath>
</defs>
</svg>
