<svg width="63" height="23" viewBox="0 0 63 23" fill="none" xmlns="http://www.w3.org/2000/svg">
<path d="M47.0446 13.5341C47.2118 14.042 47.6578 14.3806 48.1594 14.3806H48.2152C48.8283 14.3242 49.2743 13.8163 49.2743 13.139C49.2743 12.9133 49.2185 12.6311 49.1071 12.4618C48.9398 12.2361 48.7169 12.0668 48.4381 11.9539C48.3267 11.9539 48.2152 11.8975 48.1037 11.8975C47.4348 11.8975 46.9331 12.4054 46.9331 13.139C46.9888 13.3083 47.0446 13.4212 47.0446 13.5341Z" fill="white"/>
<path d="M53.9011 0.49707L42.251 5.9713L44.6479 11.9535C44.9266 11.3891 45.3726 10.9376 45.93 10.7119C45.93 10.6554 45.8742 10.6554 45.8742 10.599C45.4283 10.2604 45.0938 9.69604 44.9824 9.13169C44.8709 8.62377 44.9266 8.11585 45.1496 7.66437C45.3168 7.15645 45.6513 6.70497 46.0415 6.42279C46.6546 5.9713 47.3793 5.68913 48.1597 5.74556C48.9958 5.74556 49.8319 6.02774 50.5009 6.59209C51.4485 7.49506 51.8387 9.30099 50.7238 10.4297C50.6123 10.5426 50.5566 10.599 50.4451 10.7119V10.7683C50.9468 10.9941 51.337 11.3327 51.6157 11.7842C51.7829 11.5584 51.9502 11.3327 52.1731 11.1634C52.3961 10.9941 52.6191 10.8247 52.842 10.7119C51.6157 9.69604 51.6714 8.39803 52.1174 7.49506C52.8978 5.68913 55.5734 5.12477 57.19 6.42279C58.472 7.43863 58.7507 9.58317 57.4129 10.6554C57.3572 10.7119 57.3572 10.7119 57.3572 10.7683C59.2524 11.6148 59.5311 14.3237 57.9703 15.7911C56.521 17.1455 54.0684 17.202 52.5076 15.9604C52.1731 15.6782 51.9502 15.396 51.7272 15.0574C51.56 15.2831 51.337 15.5089 51.114 15.7346C51.0583 15.7911 50.9468 15.9039 50.8911 15.9604C50.7796 16.0732 50.6681 16.1297 50.5009 16.2425C50.5009 16.2425 50.4451 16.2425 50.4451 16.299C49.9434 16.6376 49.386 16.8069 48.7728 16.8633C48.1039 16.9198 47.4908 16.8633 46.8776 16.6376C46.8219 16.6376 46.7104 16.5812 46.6546 16.5812C46.5989 16.5812 46.5989 16.5247 46.5431 16.5247L47.6022 19.2336L56.1308 22.5069L62.2625 8.56733L53.9011 0.49707Z" fill="white"/>
<path d="M55.0715 14.4368C55.6847 14.4368 56.1864 13.8724 56.1864 13.1952C56.1864 12.4615 55.7405 11.9536 55.0158 11.9536C54.3469 11.9536 53.8452 12.4615 53.8452 13.1952C53.8452 13.9289 54.3469 14.4368 55.0715 14.4368Z" fill="white"/>
<path d="M54.0684 8.90607C54.0684 9.47042 54.4586 9.86547 55.016 9.92191C55.5734 9.92191 56.0193 9.47042 56.0193 8.90607C56.0193 8.39815 55.5734 7.94667 55.0717 7.94667C54.4586 7.89023 54.0684 8.34171 54.0684 8.90607Z" fill="white"/>
<path d="M48.1596 9.92202C48.5498 9.92202 48.94 9.63984 49.1072 9.24479C49.163 9.13192 49.163 9.01905 49.163 8.90618C49.163 8.34182 48.7728 7.94678 48.1596 7.94678C48.1039 7.94678 48.1039 7.94678 48.0481 7.94678C47.5464 8.00321 47.1562 8.39826 47.1562 8.90618C47.1562 8.96261 47.1562 9.01905 47.1562 9.07549C47.3235 9.5834 47.7137 9.86558 48.1596 9.92202Z" fill="white"/>
<path d="M45.5399 19.2897H0.5V17.7095H44.9267L45.5399 19.2897Z" fill="white"/>
<path d="M5.18254 5.68945H3.62175H0.723145V13.3647V16.8072H3.62175V13.3647H5.18254C7.30075 13.3647 8.97302 11.6152 8.97302 9.52706C8.97302 7.43895 7.30075 5.68945 5.18254 5.68945ZM5.1268 10.9379H3.34304V8.11618H5.1268C5.90719 8.11618 6.52036 8.73697 6.52036 9.52706C6.52036 10.3172 5.90719 10.9379 5.1268 10.9379Z" fill="white"/>
<path d="M16.3867 8.39835V5.68945H12.3732H9.47461V8.39835V9.92211V12.631V14.0983V16.8072H12.3732H16.3867V14.0983H12.3732V12.631H16.3867V9.92211H12.3732V8.39835H16.3867Z" fill="white"/>
<path d="M23.8002 5.68945V11.7845L20.0097 5.68945H17.2783V6.31024V16.8072H20.0097V10.7122L23.8002 16.8072H26.5316V5.68945H23.8002Z" fill="white"/>
<path d="M35.5064 5.68945H32.775H29.8764H27.145V8.39835H29.8764V16.8072H32.775V8.39835H35.5064V5.68945Z" fill="white"/>
<path d="M40.6344 5.68945H40.5787H37.8473H37.7915L33.9453 16.8072H36.7324L39.2408 9.63993L40.3 12.6874H39.0736L38.4047 15.0013H41.0803L41.6935 16.8072H44.4806L40.6344 5.68945Z" fill="white"/>
</svg>
