<svg width="49" height="21" viewBox="0 0 49 21" fill="none" xmlns="http://www.w3.org/2000/svg">
<path d="M45.1905 10.8736C45.4361 10.9889 45.6523 11.0628 45.8372 11.1844C46.061 11.3311 46.0676 11.56 45.9265 11.7864C45.6877 12.1699 45.4316 12.5294 45.0386 12.7773C44.9392 12.8399 44.884 12.9722 44.776 13.1147C45.4602 13.296 46.0203 13.5966 46.2449 14.2346C46.4407 14.2006 46.6217 14.1649 46.8041 14.1385C47.1752 14.085 47.4141 14.3725 47.7109 14.506C47.9945 14.6335 48.1985 14.8561 48.3067 15.1612C48.388 15.3898 48.2721 15.585 48.0472 15.6921C47.5985 15.9054 47.2645 15.7182 46.9424 15.436C46.7925 15.3046 46.6534 15.1584 46.4922 15.0428C46.3123 14.9142 46.2407 14.9564 46.2103 15.1697C46.1792 15.3896 46.2616 15.6343 46.0486 15.8187C46.0191 15.8442 46.0908 15.987 46.0551 16.059C46.0106 16.144 45.9588 16.2261 45.9242 16.3148C45.9016 16.3729 45.9044 16.4411 45.8939 16.5043C45.7948 17.1074 45.7304 17.1899 45.144 17.2868C44.8576 17.3341 44.5613 17.4004 44.2738 17.2414C44.1279 17.161 43.9871 17.108 43.9885 16.9026C43.9888 16.8494 43.9137 16.7862 43.8604 16.7434C43.7301 16.6383 43.5924 16.5423 43.4448 16.4329C43.4072 16.4904 43.3746 16.54 43.3417 16.5896C43.3346 16.5669 43.3276 16.544 43.3205 16.5213C43.1621 16.561 43.0057 16.6128 42.8454 16.6375C42.457 16.6975 42.0542 16.8375 41.6836 16.6349C41.5624 16.5686 41.4887 16.3477 41.4703 16.1884C41.4612 16.1094 41.6258 16.0088 41.7153 15.9216C41.7491 15.8887 41.8142 15.8748 41.8287 15.838C41.9425 15.5479 42.2278 15.5539 42.4528 15.508C42.9327 15.41 43.4259 15.3779 43.9072 15.2859C44.0874 15.2513 44.2653 15.1454 44.4171 15.0346C44.608 14.8952 44.6143 14.5842 44.4602 14.4074C44.3786 14.3139 44.0497 14.3252 43.9041 14.4536C43.7021 14.6323 43.4678 14.674 43.2145 14.674C42.938 14.6737 42.7729 14.4193 42.8191 14.1609C42.8967 13.7261 43.2324 13.468 43.4587 13.1363C43.5978 12.9326 43.7791 12.7578 43.9375 12.5666C43.9743 12.5221 43.995 12.464 44.0191 12.4198C43.7958 12.4022 43.5851 12.4192 43.3958 12.3629C43.1307 12.2841 43.0505 12.0807 43.1712 11.8314C43.2998 11.5657 43.5094 11.3926 43.7967 11.2742C44.1534 11.1271 44.484 10.9147 44.8202 10.7206C45.486 10.3365 46.1486 9.94695 46.8106 9.55657C46.9013 9.50303 46.9809 9.43107 47.0656 9.3679C47.0557 9.33872 47.0455 9.30926 47.0356 9.28008C46.8398 9.31124 46.6395 9.32541 46.4494 9.37696C45.9959 9.5002 45.6789 9.84893 45.2981 10.0934C45.0899 10.2271 44.8435 10.3132 44.6029 10.3815C44.408 10.437 44.2769 10.305 44.2361 10.0676C44.2222 9.98604 44.2162 9.90332 44.2066 9.82117C44.1845 9.81663 44.1624 9.8121 44.1403 9.80757C44.114 9.87131 44.0763 9.93278 44.0633 9.99936C43.9497 10.5801 43.5718 10.9235 43.0488 11.1379C43.0123 11.1529 42.9683 11.1685 42.9321 11.1614C42.578 11.094 42.3049 11.2305 42.0505 11.4674C41.9782 11.5345 41.8312 11.5407 41.7185 11.5405C41.5661 11.5402 41.5363 11.4271 41.5734 11.3017C41.659 11.0124 41.7873 10.7305 41.8338 10.4356C41.9009 10.0079 42.1644 9.69425 42.4006 9.37357C42.5706 9.14268 42.8281 8.97384 43.0556 8.788C43.6746 8.28176 43.8865 7.70271 43.6196 6.96757C43.5525 6.78229 43.4474 6.67521 43.2397 6.61742C42.7264 6.47464 42.6343 6.50722 42.9525 5.96981C43.2502 5.46725 43.5397 4.95959 43.8228 4.44853C43.8777 4.3491 43.8842 4.22275 43.9151 4.10943C43.948 3.98875 43.9624 3.85758 44.0208 3.7505C44.1579 3.49922 44.2814 3.45871 44.559 3.55446C44.8021 3.63832 45.0471 3.72585 45.1531 3.99668C45.3044 4.38337 45.1064 4.89245 44.7154 5.11427C44.618 5.16951 44.5202 5.2307 44.4148 5.26498C44.014 5.39473 43.9063 5.72363 43.8568 6.08483C43.8466 6.15848 43.8854 6.26727 43.9403 6.31684C44.2165 6.56586 44.2925 6.90127 44.361 7.23953C44.4165 7.51347 44.4709 7.53897 44.693 7.35199C45.1486 6.96841 45.6202 6.61062 46.1766 6.38228C46.3169 6.32478 46.4577 6.2582 46.6047 6.23015C46.6973 6.21259 46.8087 6.24262 46.9002 6.27973C47.05 6.34007 47.1979 6.41231 47.3319 6.50155C47.3979 6.54546 47.4741 6.64008 47.4721 6.70977C47.4611 7.10326 47.4183 7.48939 47.2013 7.84039C47.0764 8.04238 46.9993 8.27383 46.8968 8.48998C46.7866 8.72256 46.8625 8.82766 47.1265 8.82681C47.4852 8.82568 47.8438 8.83644 48.2025 8.84494C48.3699 8.84891 48.4696 8.93021 48.4925 9.10415C48.5141 9.26903 48.4976 9.42286 48.3254 9.48745C47.9234 9.63816 47.5084 9.75573 47.1126 9.92004C46.5016 10.1733 45.901 10.4518 45.2998 10.728C45.242 10.7543 45.2129 10.8422 45.1905 10.8736ZM44.1148 8.95741C44.1772 8.94608 44.2313 8.95203 44.2621 8.92823C44.5477 8.70698 44.8718 8.63899 45.2268 8.64749C45.4602 8.65315 45.6687 8.571 45.7894 8.34805C45.9741 8.00753 46.1608 7.66786 46.3361 7.32253C46.3653 7.26502 46.3404 7.17975 46.3404 7.0993C46.1115 7.10921 45.8772 7.418 45.7472 6.99164C45.2834 7.26927 44.8103 7.50809 44.4361 7.88628C44.4491 7.90866 44.4619 7.93133 44.4749 7.95371C44.5398 7.94237 44.6046 7.93104 44.7029 7.91404C44.427 8.2387 44.1593 8.52341 44.1148 8.95741ZM42.8361 9.65856C42.8174 9.64978 42.7987 9.64099 42.7802 9.63221C42.6729 9.7274 42.5754 9.88576 42.4562 9.90445C42.2377 9.93845 42.1612 10.0832 42.0836 10.237C42.0624 10.2795 42.1165 10.36 42.136 10.4229C42.193 10.3979 42.2604 10.3846 42.3035 10.3447C42.3451 10.3062 42.3613 10.2404 42.4071 10.1501C42.4071 10.2691 42.4043 10.3407 42.408 10.4118C42.4117 10.4844 42.4222 10.5569 42.4298 10.6311C42.5471 10.5243 42.6462 10.4436 42.7341 10.3521C42.8508 10.2302 42.8338 10.1237 42.6873 10.0648C42.7392 9.92202 42.7876 9.79029 42.8361 9.65856ZM44.6296 15.919C44.5704 15.8321 44.4766 15.6678 44.4602 15.6751C44.3109 15.7425 44.1706 15.8338 44.0392 15.9332C44.0143 15.9522 44.0177 16.0669 44.0449 16.0867C44.1743 16.1814 44.3165 16.2587 44.4542 16.3423C44.5061 16.2171 44.5582 16.0916 44.6296 15.919Z" fill="white"/>
<path d="M26.537 9.96915C26.575 10.0403 26.6435 10.1125 26.6495 10.1893C26.675 10.521 26.7515 10.6168 27.0662 10.7238C27.1248 10.7437 27.1795 10.8457 27.1923 10.9176C27.2288 11.1264 27.2645 11.3397 27.2566 11.5496C27.2526 11.6547 27.1608 11.761 27.0962 11.8581C26.9526 12.0743 26.8013 12.2853 26.6532 12.4984C26.6682 12.5253 26.6832 12.5522 26.6982 12.5794C26.8149 12.5451 26.9441 12.5318 27.0461 12.472C27.2654 12.344 27.4733 12.1955 27.6815 12.0491C27.9166 11.8836 27.8914 11.421 27.6407 11.2564C27.5353 11.1873 27.4263 11.1238 27.2614 11.0227C27.5144 10.9003 27.7353 10.8253 27.9203 10.6978C28.3742 10.3853 28.8147 10.5451 29.2595 10.6981C29.332 10.723 29.3991 10.7737 29.4595 10.8236C29.6161 10.9527 29.7657 10.9292 29.9201 10.8207C30.3309 10.532 30.7263 10.2153 31.162 9.97113C31.3731 9.853 31.6615 9.87226 31.9419 9.82495C31.9204 10.074 31.9414 10.2493 31.6601 10.2969C31.5074 10.3227 31.3397 10.4097 31.2609 10.6281C31.213 10.7615 30.9881 10.8595 30.8229 10.9179C30.3238 11.0941 30.0184 11.4706 29.7459 11.8896C29.5903 12.129 29.6748 12.3811 29.7575 12.6063C29.8153 12.7641 29.9869 12.7043 30.1127 12.6397C30.4241 12.4802 30.7513 12.5508 31.0618 12.6106C31.1589 12.6293 31.2705 12.8284 31.2887 12.9573C31.3918 13.6859 30.9575 14.18 30.4994 14.6542C30.2612 14.901 29.9957 15.1262 29.896 15.4724C29.8699 15.5625 29.8442 15.6647 29.8612 15.7531C29.9161 16.0367 29.8413 16.2563 29.5946 16.4129C29.575 16.4254 29.5586 16.4455 29.547 16.4656C29.5402 16.4772 29.5459 16.4959 29.5459 16.5381C30.2147 16.4869 30.8824 16.4155 31.5519 16.3897C32.2173 16.3639 32.8845 16.384 33.5369 16.384C33.5306 16.5118 33.5295 16.6242 33.5173 16.7353C33.5125 16.7801 33.4935 16.8478 33.4624 16.8608C33.2556 16.948 33.044 17.0886 32.8335 17.0897C32.2847 17.0925 31.7343 16.9897 31.1873 17.0092C30.5748 17.0311 29.9606 17.1124 29.3561 17.2192C28.4288 17.3829 27.5115 17.6039 26.5852 17.7741C26.0294 17.8764 25.4659 17.9535 24.9024 17.9934C24.6231 18.0132 24.3279 17.9509 24.0562 17.8704C23.9531 17.8399 23.871 17.6614 23.8302 17.5342C23.8129 17.4804 23.912 17.3645 23.9837 17.3109C24.4797 16.9404 25.0548 16.8121 25.6602 16.7452C26.0452 16.7027 26.4197 16.5721 26.8033 16.5061C27.2739 16.4254 27.711 16.2704 28.0999 15.9942C28.1603 15.9514 28.2337 15.8401 28.2158 15.7942C28.1889 15.7254 28.0892 15.6812 28.0147 15.6361C27.9084 15.5718 27.796 15.5174 27.6875 15.4562C27.4566 15.3256 27.2181 15.2064 26.9988 15.0588C26.7285 14.8769 26.7294 14.4018 26.9835 14.1939C27.2798 13.9514 27.5741 13.7069 27.8705 13.4644C28.0747 13.2973 28.0991 12.9525 27.8945 12.7927C27.8436 12.7531 27.6977 12.7791 27.63 12.8256C27.209 13.1148 26.7965 13.4168 26.384 13.718C26.1019 13.9242 25.7871 13.9284 25.4667 13.8641C25.2812 13.8267 25.0914 13.7786 24.9242 13.6942C24.8472 13.6553 24.7696 13.5128 24.7783 13.4262C24.8186 13.0313 24.8327 12.6199 24.9628 12.2516C25.1387 11.7525 25.4098 11.2865 25.6446 10.8085C25.7005 10.6949 25.7565 10.5706 25.8458 10.4864C25.9554 10.383 26.1036 10.3213 26.2282 10.232C26.3223 10.1649 26.405 10.083 26.537 9.96915ZM25.8262 17.1509C26.0591 17.1362 26.2877 17.1353 26.5121 17.1039C26.8042 17.0628 27.0911 16.9877 27.3829 16.9447C27.7217 16.8948 28.0645 16.8718 28.4036 16.822C28.6084 16.792 28.8127 16.7441 29.0099 16.6809C29.0753 16.6599 29.1178 16.5676 29.1708 16.5078C29.1082 16.4631 29.0459 16.3803 28.983 16.38C28.7507 16.3786 28.6339 16.2616 28.581 16.0517C28.5739 16.0237 28.5484 16.0004 28.5209 15.9591C28.2254 16.1053 27.9033 16.1837 27.7087 16.4823C27.6654 16.5489 27.5713 16.5971 27.4909 16.6223C27.1501 16.7293 26.8053 16.8245 26.5127 16.9095C26.4194 16.833 26.3648 16.7512 26.3175 16.7551C25.9449 16.786 25.8546 16.8568 25.8262 17.1509ZM30.2175 13.6825C30.1003 13.6587 30.0037 13.6089 29.9674 13.6369C29.8501 13.7276 29.7314 13.8341 29.6612 13.961C29.6283 14.0202 29.692 14.1491 29.741 14.2282C29.7583 14.2562 29.9005 14.2554 29.9207 14.2248C30.0195 14.0752 30.096 13.9112 30.2175 13.6825Z" fill="white"/>
<path d="M14.7759 8.95338C14.7405 8.75932 14.7275 8.55705 14.6632 8.37291C14.596 8.18084 14.6229 8.03891 14.7552 7.89047C14.9793 7.63947 15.1915 7.37799 15.4062 7.11878C15.4541 7.06099 15.4909 6.99385 15.5697 6.876C15.4388 6.88705 15.3691 6.87996 15.3085 6.90008C14.9218 7.02812 14.532 7.14881 14.1541 7.29952C13.9623 7.37601 13.8266 7.33776 13.6668 7.22898C13.2246 6.92756 12.7892 6.60885 12.3181 6.35927C11.8716 6.12272 11.7894 6.07598 11.8481 6.64568C11.8744 6.90206 11.801 7.05759 11.5648 7.18337C11.2549 7.34796 10.9761 7.57006 10.6721 7.74769C10.5959 7.79216 10.4591 7.79528 10.3781 7.7576C10.0157 7.58819 9.65823 7.4066 9.31204 7.20688C9.22876 7.15872 9.1687 7.03067 9.1449 6.92841C9.11091 6.78194 9.13952 6.62103 9.10609 6.47457C9.0568 6.2604 9.16077 6.18221 9.34037 6.14142C9.90044 6.01451 10.4699 5.93377 11.0339 6.057C11.3415 6.12414 11.5798 5.99383 11.8461 5.923C12.8994 5.64339 13.979 5.57144 15.0615 5.52894C15.4618 5.51336 15.8629 5.506 16.2635 5.50571C16.4479 5.50571 16.5232 5.39466 16.5623 5.24792C16.7448 4.55923 16.8213 3.85979 16.7334 3.15014C16.6793 2.71359 16.6046 2.27958 16.5289 1.77759C16.6201 1.88297 16.685 1.94331 16.7323 2.01499C17.2119 2.74106 17.5142 3.53457 17.6244 4.39917C17.6539 4.62921 17.6626 4.86462 17.7204 5.08729C17.7442 5.17851 17.8627 5.26066 17.9564 5.31506C18.3992 5.57144 18.8661 5.79042 19.2907 6.07315C19.8417 6.43973 20.2956 6.91792 20.6664 7.47006C20.6919 7.50802 20.7095 7.55165 20.7675 7.66355C20.6468 7.60916 20.5859 7.59046 20.5344 7.55732C19.838 7.10801 19.1077 6.73237 18.3015 6.52018C18.2474 6.50602 18.1935 6.48619 18.1383 6.4808C17.87 6.45503 17.5482 6.33349 17.3485 6.43973C17.1649 6.53718 17.1119 6.88138 17.0023 7.11708C16.6847 7.79925 16.3892 8.49275 16.0433 9.1599C15.7904 9.64801 15.4717 10.1021 15.1821 10.5713C15.153 10.6183 15.1229 10.6647 15.0932 10.7115C15.0734 10.7021 15.0538 10.6931 15.034 10.6837C14.9966 10.3834 14.9592 10.0834 14.9173 9.74773C14.4173 10.0095 14.1113 9.6313 13.7784 9.46104C13.1033 9.11542 13.2067 9.33809 13.1713 8.53949C13.1606 8.29897 13.1509 8.05846 13.1427 7.81766C13.1359 7.61312 13.364 7.34513 13.5626 7.34796C13.6272 7.34881 13.7121 7.41227 13.751 7.47119C14.0308 7.89727 14.302 8.329 14.5742 8.76017C14.6187 8.83043 14.6555 8.90579 14.6957 8.97859C14.7226 8.97009 14.7493 8.96188 14.7759 8.95338Z" fill="white"/>
<path d="M27.0315 9.49345C26.9409 9.60677 26.8715 9.69346 26.8021 9.78043C26.9596 9.48212 26.7437 9.40138 26.546 9.26399C25.9559 8.85378 25.6304 8.27728 25.57 7.55517C25.5448 7.25346 25.4831 6.95289 25.4836 6.65203C25.4839 6.40982 25.5312 6.16166 25.5978 5.92737C25.6536 5.73105 25.6171 5.51263 25.8247 5.34492C26.0967 5.12537 26.2987 5.07806 26.5907 5.28685C26.6944 5.36107 26.7984 5.43841 26.9126 5.49252C26.9672 5.5183 27.0655 5.51745 27.1086 5.48345C27.1531 5.44833 27.1882 5.34634 27.1695 5.29478C27.0211 4.88542 27.3426 4.66587 27.5236 4.39136C27.5616 4.33385 27.6437 4.30524 27.6808 4.24745C27.9029 3.90155 28.2335 3.79956 28.6234 3.77095C28.9285 3.74857 29.2273 3.64177 29.5324 3.61769C29.7214 3.60268 29.9257 3.64687 30.1078 3.70919C30.5333 3.85481 30.7424 4.20666 30.7107 4.66276C30.7039 4.75879 30.6951 4.85653 30.7053 4.95143C30.7795 5.63501 30.5013 6.25202 30.3537 6.89538C30.2435 7.37641 30.1857 7.86934 30.1027 8.3566C30.0534 8.64613 29.9931 8.93395 29.9523 9.22461C29.9361 9.33934 29.9489 9.46173 29.9679 9.57731C29.9999 9.77335 29.9429 9.92689 29.7452 9.96542C29.5288 10.0079 29.3137 10.1572 29.0786 10.0011C29.0273 9.96712 28.9375 9.9878 28.8656 9.98893C28.4964 9.99431 28.2902 9.83312 28.22 9.46512C28.1885 9.30053 28.1811 9.13141 28.1585 8.96483C28.1358 8.79684 28.0508 8.67729 27.8692 8.74613C27.5893 8.85236 27.3078 8.9654 27.0514 9.11724C26.9347 9.1858 26.8397 9.35124 27.0315 9.49345ZM28.5653 5.78686C28.5514 5.70102 28.5457 5.6132 28.5228 5.5302C28.4333 5.20526 28.2035 5.14237 27.9545 5.36334C27.8364 5.46816 27.6939 5.54634 27.5814 5.65598C27.5296 5.70669 27.4848 5.81632 27.5046 5.87723C27.535 5.97072 27.6027 6.02369 27.7463 5.97327C27.9998 5.88403 28.2729 5.84975 28.5653 5.78686ZM27.6562 7.70418C27.7012 7.71551 27.7463 7.72684 27.791 7.73818C27.8202 7.64667 27.8497 7.55517 27.8789 7.46367C27.8205 7.46168 27.7219 7.44015 27.7114 7.4614C27.6763 7.53421 27.6721 7.62203 27.6562 7.70418ZM28.3786 7.56112C28.2568 7.50928 28.1936 7.458 28.1593 7.47301C28.0956 7.50078 28.0491 7.56735 27.9953 7.61778C28.0384 7.64469 28.0865 7.69936 28.1236 7.69257C28.1894 7.68067 28.2486 7.63166 28.3786 7.56112Z" fill="white"/>
<path d="M13.0963 20.9484C13.3264 20.5291 13.5728 20.1178 13.7822 19.6883C14.0703 19.0971 14.287 18.4818 14.3394 17.8152C14.3576 17.5854 14.2663 17.4936 14.0723 17.4069C13.1445 16.9928 12.2164 16.578 11.3037 16.1327C10.9175 15.9443 10.5651 15.6845 10.2039 15.4477C10.0861 15.3704 9.98834 15.2624 9.83224 15.1253C9.95859 15.1109 10.0232 15.0956 10.0875 15.097C10.915 15.1143 11.7357 15.0732 12.5419 14.859C12.6176 14.8389 12.7366 14.9109 12.8116 14.9701C13.0816 15.1834 13.3408 15.4103 13.6051 15.6307C13.6692 15.6842 13.7383 15.7318 13.8049 15.7823C13.8252 15.7721 13.8459 15.7616 13.8663 15.7514C13.8505 15.6644 13.8445 15.5743 13.817 15.4913C13.7068 15.1582 13.5944 14.8259 13.4737 14.4964C13.3927 14.2751 13.302 14.0596 13.5536 13.8559C13.5301 13.8434 13.5068 13.8309 13.4833 13.8185C13.4165 13.8615 13.3499 13.9049 13.2827 13.9477C12.9796 14.1406 12.6841 14.3471 12.3708 14.5222C12.0433 14.7052 11.7371 14.5236 11.7178 14.1496C11.6994 13.7893 11.6955 13.4281 11.6765 13.0678C11.668 12.9085 11.7102 12.7995 11.8575 12.7125C12.1541 12.5377 12.4462 12.3533 12.7244 12.151C12.8992 12.0238 13.0442 12.0221 13.2281 12.1255C13.5417 12.302 13.8706 12.451 14.1867 12.6233C14.3488 12.7114 14.4434 12.6601 14.5117 12.5119C14.585 12.353 14.6539 12.1918 14.7901 12.0193C14.8459 12.2329 14.9309 12.4439 14.9525 12.6609C15.0457 13.6009 15.1244 14.5426 15.1995 15.4842C15.2261 15.8188 15.2324 16.1556 15.2372 16.4916C15.2394 16.6525 15.304 16.7378 15.4576 16.7877C16.0958 16.9942 16.7534 17.0129 17.41 16.9659C17.8797 16.9324 18.3449 16.8381 18.8126 16.7724C18.8409 16.7684 18.871 16.7758 18.9585 16.7823C18.8585 16.8599 18.8018 16.9095 18.7398 16.9517C17.9208 17.5081 17.0109 17.8072 16.0304 17.9055C15.9346 17.9152 15.8389 17.9262 15.7429 17.9313C15.5916 17.9392 15.5038 18.0058 15.4394 18.154C14.976 19.224 14.3323 20.1577 13.3601 20.8342C13.283 20.8877 13.2003 20.9325 13.1201 20.9815C13.1125 20.9699 13.1043 20.9591 13.0963 20.9484Z" fill="white"/>
<path d="M8.90764 14.7823C7.79686 15.1049 6.68578 15.1576 5.57301 15.1956C5.25289 15.2064 4.93362 15.2378 4.6135 15.2438C4.44919 15.2469 4.37497 15.3117 4.32369 15.4661C4.11689 16.0885 4.10216 16.7299 4.14239 17.3713C4.16873 17.7934 4.25542 18.2118 4.31406 18.6319C4.32454 18.7073 4.32993 18.7832 4.33786 18.8589C4.31378 18.8696 4.2897 18.8804 4.26562 18.8909C4.10754 18.63 3.92652 18.3798 3.7962 18.1059C3.4384 17.3549 3.21885 16.5639 3.19251 15.7273C3.18741 15.5676 3.11064 15.4885 2.96757 15.4273C1.95679 14.9945 1.07263 14.3885 0.397547 13.506C0.296412 13.374 0.209441 13.231 0.1474 13.0562C0.19046 13.0777 0.236354 13.095 0.276298 13.1211C1.11484 13.6698 2.00183 14.1063 2.99619 14.2925C3.07466 14.3072 3.15596 14.3075 3.23472 14.3214C3.49818 14.3675 3.60696 14.2656 3.71745 14.0044C4.09451 13.1134 4.49678 12.2301 4.9475 11.3746C5.22881 10.8408 5.62514 10.3686 5.94752 9.85469C6.04526 9.6986 6.06112 9.49293 6.12713 9.31474C6.24356 9.00085 6.36255 8.68753 6.49768 8.38129C6.52289 8.32378 6.64499 8.25551 6.69088 8.27307C6.76426 8.3014 6.85576 8.39376 6.86227 8.46599C6.90137 8.9051 6.9246 9.3459 6.93678 9.7867C6.93876 9.85554 6.87247 9.94903 6.81072 9.99294C6.58267 10.1558 6.34867 10.3122 6.10617 10.4524C5.94356 10.5465 5.87387 10.6717 5.90588 10.8482C5.97472 11.2253 6.04894 11.6015 6.1277 11.9766C6.16538 12.1562 6.23082 12.331 6.25858 12.5117C6.26991 12.5851 6.23393 12.6842 6.18549 12.7446C5.96056 13.0264 5.72287 13.2975 5.49256 13.5752C5.43505 13.6446 5.38887 13.7236 5.3376 13.7984C5.35063 13.8174 5.36366 13.8361 5.37641 13.8551C5.54893 13.8086 5.72344 13.7684 5.8937 13.714C6.17586 13.6236 6.45547 13.5239 6.73564 13.4279C6.90902 13.3684 6.93536 13.2774 6.82375 13.1236C6.70221 12.9559 6.5923 12.7771 6.49966 12.5919C6.46057 12.5137 6.43904 12.3519 6.47898 12.3227C6.59768 12.2358 6.78607 12.1114 6.88409 12.1525C7.30364 12.3284 7.70479 12.5508 8.10083 12.7766C8.16797 12.8148 8.20423 12.9514 8.21046 13.0457C8.23397 13.4058 8.25522 13.7675 8.24587 14.1279C8.23907 14.3896 8.32406 14.5525 8.57931 14.6304C8.69404 14.665 8.79858 14.7307 8.90764 14.7823Z" fill="white"/>
<path d="M1.54893 4.13989C1.87104 3.9566 2.18464 3.75603 2.51694 3.59399C3.22517 3.24809 3.98836 3.10077 4.76742 3.03477C4.93881 3.02032 5.01303 2.94496 5.07762 2.7934C5.53826 1.70981 6.20399 0.783444 7.18617 0.107792C7.25019 0.0638817 7.31875 0.0267702 7.4264 0.0185547C7.35727 0.136404 7.29212 0.25652 7.21874 0.37182C6.76066 1.09393 6.40371 1.85995 6.22354 2.69963C6.18161 2.89425 6.17906 3.09766 6.1615 3.29738C6.14478 3.48605 6.30683 3.51098 6.42411 3.56226C6.97341 3.80136 7.54 4.00504 8.074 4.27417C8.78705 4.63367 9.47942 5.03538 10.1718 5.43425C10.3474 5.53539 10.4902 5.69375 10.648 5.82604C10.6406 5.85012 10.633 5.87392 10.6256 5.898C10.5528 5.898 10.48 5.89488 10.4078 5.89857C9.74429 5.93143 9.08111 5.96571 8.41792 5.99942C8.40999 5.9997 8.40092 5.99914 8.39412 6.00282C7.9808 6.22067 7.67286 6.04985 7.38334 5.74927C7.22838 5.58836 7.04282 5.4572 6.86746 5.3164C6.81024 5.27051 6.74253 5.23708 6.67964 5.19799C6.66009 5.2113 6.64055 5.22462 6.62128 5.23821C6.72157 5.55267 6.79607 5.87874 6.92809 6.17903C7.11138 6.59547 7.10344 6.92324 6.82723 7.33769C6.47284 7.86943 6.26575 8.49947 5.99521 9.08674C5.96319 9.15614 5.92948 9.2247 5.89662 9.29382C5.86716 9.29609 5.83741 9.29836 5.80795 9.30091C5.71815 8.94962 5.5867 8.60316 5.54647 8.24621C5.42862 7.19633 5.34363 6.14277 5.25411 5.09005C5.23655 4.88325 5.25298 4.67333 5.2578 4.46483C5.2612 4.32715 5.21162 4.24414 5.07026 4.20051C4.44956 4.00986 3.81499 3.94442 3.17135 4.00221C2.64046 4.05009 2.11184 4.12459 1.58236 4.1872C1.57103 4.17133 1.55998 4.15547 1.54893 4.13989Z" fill="white"/>
<path d="M39.396 9.66007C39.4059 9.50624 39.4317 9.35156 39.422 9.19887C39.4031 8.89801 39.3742 8.59687 39.3257 8.29998C39.3167 8.24445 39.1773 8.15323 39.1322 8.17023C38.8393 8.28015 38.5506 8.26117 38.3084 8.09148C38.1685 7.99346 38.0515 7.80478 38.0166 7.63764C37.9962 7.54047 38.1368 7.37928 38.2421 7.29174C38.5036 7.07389 38.7804 6.87275 39.0617 6.68068C39.4844 6.39201 39.9359 6.37218 40.4054 6.56651C40.5294 6.61807 40.6612 6.65405 40.792 6.68578C41.0694 6.75235 41.2467 7.2212 41.1176 7.50818C40.885 8.02575 40.7252 8.55098 40.6991 9.13824C40.6833 9.49547 40.7198 9.90143 40.4923 10.2502C40.4357 10.3371 40.5433 10.5301 40.5725 10.6751C40.5986 10.8051 40.6198 10.9363 40.6445 11.0669C40.6765 11.2374 40.7161 11.4066 40.7385 11.5782C40.7481 11.6522 40.7467 11.7814 40.7093 11.7992C40.4518 11.9213 40.1915 12.0516 39.917 12.119C39.5733 12.2035 39.3569 12.0547 39.198 11.7221C39.1441 11.61 39.0592 11.5125 38.9883 11.4085C38.9631 11.4063 38.9376 11.4043 38.9124 11.402C38.8472 11.5831 38.7404 11.7604 38.7246 11.9454C38.6691 12.5978 38.6625 13.2545 38.6002 13.9063C38.5739 14.1828 38.8178 14.3188 38.8433 14.5537C38.9155 14.5369 39.0215 14.5443 39.0543 14.499C39.1937 14.3066 39.3113 14.0984 39.4759 13.8327C39.4484 14.0876 39.4246 14.278 39.4085 14.4692C39.3889 14.7001 39.377 14.9313 39.3597 15.1624C39.3368 15.469 39.2781 15.7463 38.9203 15.848C38.7931 15.8843 38.6844 15.9814 38.5634 16.0432C38.3334 16.1608 38.1801 16.1319 38.0549 15.9092C37.8886 15.6129 37.7614 15.2998 37.9223 14.9522C37.9387 14.9166 37.9543 14.8758 37.954 14.8375C37.9396 13.3678 37.9161 11.8984 37.9141 10.4286C37.9138 10.1859 38.0047 9.94222 38.0586 9.70029C38.0843 9.58499 38.1317 9.47423 38.1523 9.35836C38.1957 9.11359 38.3713 9.01501 38.5818 8.95863C38.7682 8.90877 38.8489 9.04617 38.941 9.17337C39.0648 9.34448 39.2039 9.50454 39.3365 9.66913C39.356 9.66573 39.3762 9.6629 39.396 9.66007Z" fill="white"/>
<path d="M11.8179 10.8782C11.904 11.1263 11.7847 11.2612 11.5773 11.3796C11.2719 11.5538 10.9892 11.7674 10.683 11.9397C10.5918 11.9909 10.4357 12.0008 10.3413 11.9584C9.99204 11.8014 9.65095 11.6238 9.31865 11.4331C9.23111 11.383 9.14103 11.2615 9.13111 11.1649C9.09032 10.7589 9.06822 10.3501 9.06539 9.94216C9.06482 9.84471 9.14103 9.71298 9.2229 9.65462C9.52234 9.44102 9.84246 9.25688 10.1476 9.05064C10.296 8.95008 10.4212 8.93109 10.5869 9.02458C10.921 9.21325 11.2739 9.36906 11.6068 9.55972C11.6841 9.60391 11.7482 9.73026 11.7572 9.8246C11.7912 10.175 11.8 10.5277 11.8179 10.8782Z" fill="white"/>
</svg>
