<svg width="93" height="20" viewBox="0 0 93 20" fill="none" xmlns="http://www.w3.org/2000/svg">
<path d="M16.9843 11.811C16.8313 10.9728 16.2957 10.2109 15.5307 9.67756C16.2957 9.14422 16.8313 8.38229 16.9843 7.46798C17.0608 6.40129 17.2903 4.2679 16.9843 3.20121C16.6783 2.13451 15.4542 0.610666 14.0771 0.382088C10.8638 0.0773186 7.57407 0.0773186 4.36083 0.382088C2.90722 0.610666 1.22409 0.839243 0 3.88694V16.0015C0 16.0015 1.3006 19.1254 4.36083 19.354C6.88552 19.5826 14.6126 19.354 14.6126 19.354C15.8367 19.1254 16.7548 18.2111 16.9843 16.992C17.1373 15.3158 17.2138 13.5634 16.9843 11.811ZM2.90722 5.18221C2.98373 4.11552 3.74878 3.20121 4.81986 3.12501C6.80902 2.89644 12.0879 3.12501 13.0825 3.12501C13.618 3.12501 14.0771 3.50598 14.0771 4.03932C14.0771 4.03932 14.0771 4.03932 14.0771 4.11552C14.0771 4.11552 14.1536 5.63937 14.1536 7.16321C14.2301 7.77275 13.771 8.38229 13.159 8.53468H2.90722V5.18221ZM14.5361 15.6206C14.5361 16.1539 14.1536 16.6111 13.618 16.6111C12.6235 16.6111 7.03853 16.9158 4.89637 16.6111C3.82529 16.6111 2.98373 15.773 2.90722 14.7063V11.3538H13.618C14.2301 11.5824 14.6126 12.1919 14.5361 12.8015V15.6206Z" fill="#707D9B"/>
<path d="M32.4379 11.8107H20.809V15.2394C20.7325 15.6965 21.0386 16.1537 21.4976 16.2299C21.5741 16.2299 21.6506 16.2299 21.7271 16.2299H32.4379V19.5823H20.809C19.1259 19.3537 17.8253 17.9061 17.9018 16.1537V3.20096C18.1313 1.52472 19.585 0.229454 21.2681 0.229454H32.5144V3.12476H22.2627C21.4211 3.12476 20.809 3.8105 20.809 4.57242V8.45823H32.4379" fill="#707D9B"/>
<path d="M33.1277 0.229454V3.04857H39.0186V19.5061H41.9259V3.12476H47.2047V0.229454H33.1277Z" fill="#707D9B"/>
<path d="M53.7842 0.230255H48.8113V19.5069H53.7842V0.230255Z" fill="#707D9B"/>
<path d="M67.631 7.84925H61.5105C61.5105 7.84925 60.0569 8.00163 60.0569 6.02063C60.0569 4.03963 61.5105 4.19201 61.5105 4.19201H71.2267V0.306198H59.5214C54.625 0.306198 54.7015 5.79205 54.7015 6.02063C54.7015 6.24921 54.625 11.7351 59.5214 11.7351H65.6418C65.6418 11.7351 67.0954 11.5827 67.0954 13.5637C67.0954 15.5447 65.7183 15.4685 65.7183 15.4685H55.9256V19.3543H67.631C72.6038 19.3543 72.4508 13.7923 72.4508 13.6399C72.4508 13.4875 72.6038 7.84925 67.631 7.84925Z" fill="#707D9B"/>
<path d="M78.4959 5.56372V19.5069H73.7525V3.12557C73.5995 1.67791 74.6706 0.38264 76.1242 0.230255C76.2772 0.230255 76.4302 0.230255 76.5832 0.230255H80.9441C82.2447 0.611217 83.2393 1.7541 83.3923 3.12557C84.0043 5.86849 86.529 12.7258 86.7585 13.7163C86.835 13.9449 86.988 14.1735 87.2176 14.1735C87.8296 14.1735 87.7531 13.7163 87.7531 13.7163V0.230255H92.1139V17.145C92.1139 17.145 92.4199 19.5069 90.2013 19.5069C90.2013 19.5069 86.1465 19.8879 84.9224 19.0498C84.3103 18.6688 83.9278 17.6021 83.3923 16.6116C81.3266 12.5734 80.8676 8.45904 79.4905 5.56372C79.414 5.41134 79.1844 5.10657 78.9549 5.10657C78.4959 5.03038 78.4959 5.41134 78.4959 5.56372Z" fill="#707D9B"/>
<path d="M53.7834 0.229454H48.8105V19.5061H53.7834V0.229454Z" fill="#707D9B"/>
<path d="M67.6302 7.84826H61.5098C61.5098 7.84826 60.0562 8.00065 60.0562 6.01965C60.0562 4.03864 61.5098 4.19103 61.5098 4.19103H71.226V0.305214H59.5206C54.6243 0.305214 54.7008 5.79107 54.7008 6.01965C54.7008 6.24822 54.6243 11.7341 59.5206 11.7341H65.6411C65.6411 11.7341 67.0947 11.5817 67.0947 13.5627C67.0947 15.5437 65.7176 15.4675 65.7176 15.4675H55.9248V19.3533H67.6302C72.6031 19.3533 72.4501 13.7913 72.4501 13.6389C72.4501 13.4865 72.6031 7.84826 67.6302 7.84826Z" fill="#707D9B"/>
<path d="M78.4954 5.56274V19.506H73.752V3.12458C73.599 1.67693 74.6701 0.381656 76.1237 0.229271C76.2767 0.229271 76.4297 0.229271 76.5827 0.229271H80.9436C82.2442 0.610233 83.2387 1.75312 83.3917 3.12458C84.0038 5.86751 86.5285 12.7248 86.758 13.7153C86.8345 13.9439 86.9875 14.1725 87.217 14.1725C87.8291 14.1725 87.7526 13.7153 87.7526 13.7153V0.229271H92.1134V17.144C92.1134 17.144 92.4194 19.506 90.2008 19.506C90.2008 19.506 86.146 19.8869 84.9219 19.0488C84.3098 18.6678 83.9273 17.6011 83.3917 16.6106C81.3261 12.5724 80.8671 8.45805 79.4899 5.56274C79.4134 5.41036 79.1839 5.10559 78.9544 5.10559C78.4954 5.02939 78.4954 5.41036 78.4954 5.56274Z" fill="#707D9B"/>
</svg>
