<svg width="78" height="9" viewBox="0 0 78 9" fill="none" xmlns="http://www.w3.org/2000/svg">
<path d="M68.8379 8.99292C67.762 8.99292 66.686 8.99442 65.6101 8.99201C65.2862 9.00036 64.9642 8.93994 64.6674 8.81505C64.3173 8.65893 64.0309 8.39574 63.8521 8.06639C63.6732 7.73703 63.6124 7.35997 63.6788 6.99381C63.792 6.30907 64.1678 5.77712 64.6916 5.3283C65.0061 5.04449 65.3626 4.80686 65.7489 4.62306C65.8449 4.5801 65.834 4.53111 65.7652 4.4716C65.571 4.31491 65.4162 4.11781 65.3125 3.89516C65.0823 3.36037 65.1681 2.84093 65.4045 2.33283C65.7867 1.51214 66.44 0.947521 67.2492 0.52855C67.8713 0.205561 68.568 0.0399138 69.2745 0.0470992C71.3103 0.0525833 73.3464 0.0487993 75.3825 0.0512945C75.7987 0.0367528 76.2108 0.136101 76.571 0.337859C77.3296 0.790637 77.6091 1.66056 77.2673 2.49446C76.9382 3.29704 76.3475 3.88225 75.6042 4.33917C75.524 4.38846 75.4428 4.43617 75.361 4.48315C75.2723 4.53406 75.2639 4.59099 75.3347 4.66552C75.4111 4.74388 75.4829 4.82632 75.5495 4.91248C75.9175 5.40175 75.9208 5.93397 75.7378 6.48418C75.5575 6.98785 75.2468 7.43889 74.8354 7.7947C74.3835 8.2194 73.8436 8.54723 73.2511 8.75675C72.8326 8.90989 72.3893 8.99043 71.9417 8.99469C70.9071 8.9892 69.8726 8.99294 68.8379 8.99292ZM71.4023 2.20493V2.20639C70.5834 2.20639 69.7645 2.20117 68.9457 2.20834C68.7032 2.21356 68.4707 2.3014 68.2893 2.45625C68.1076 2.61112 67.9891 2.82298 67.9541 3.05422C67.9385 3.14157 67.9551 3.23147 68.0011 3.30818C68.0471 3.38491 68.1197 3.44358 68.206 3.47395C68.2913 3.50565 68.382 3.5211 68.4733 3.51937C70.1028 3.51878 71.7324 3.52119 73.362 3.51622C73.5835 3.51425 73.7979 3.44011 73.9701 3.30584C74.1423 3.17157 74.2623 2.98508 74.3106 2.77669C74.3398 2.67612 74.3362 2.56939 74.3007 2.47079C74.2309 2.2932 74.0825 2.20549 73.8469 2.20525C73.0321 2.20442 72.2171 2.20432 71.4023 2.20493ZM70.1253 5.54863V5.55136C69.3103 5.55136 68.495 5.54858 67.6797 5.55245C67.4602 5.55045 67.2464 5.62031 67.0734 5.75061C66.9004 5.88089 66.7785 6.06388 66.7272 6.26971C66.6413 6.58945 66.8245 6.83417 67.1687 6.83494C68.8034 6.83846 70.438 6.83836 72.0727 6.83457C72.2945 6.84008 72.5119 6.77419 72.6908 6.64731C72.8694 6.52043 72.9992 6.33978 73.0595 6.13388C73.1622 5.81441 72.991 5.57314 72.6455 5.5523C72.5796 5.54833 72.5132 5.54878 72.447 5.54875C71.6731 5.54853 70.8992 5.54851 70.1253 5.54863Z" fill="#707D9B"/>
<path d="M43.9303 8.9922C42.8955 8.9922 41.8608 8.99224 40.826 8.99234C40.4315 9.00702 40.0393 8.9264 39.6852 8.7578C39.3845 8.59111 39.1405 8.34388 38.9826 8.04613C38.8249 7.74838 38.76 7.41287 38.7961 7.08026C38.897 6.32879 39.3129 5.75644 39.8873 5.27513C40.1783 5.01965 40.5043 4.80404 40.8564 4.6344C40.9696 4.58277 40.9732 4.52915 40.8633 4.43567C40.7021 4.30076 40.57 4.13625 40.4752 3.9517C40.3804 3.76718 40.3247 3.56629 40.3112 3.36078C40.2941 3.02505 40.3641 2.6905 40.5148 2.3874C40.8807 1.56434 41.5141 0.985812 42.3173 0.561058C42.9857 0.210545 43.7369 0.0329398 44.4975 0.0455494C46.5172 0.0536021 48.5372 0.0448184 50.5572 0.0524321C51.1343 0.0546167 51.666 0.209222 52.0695 0.633804C52.5327 1.12102 52.6579 1.69401 52.4583 2.32207C52.2189 3.07493 51.7164 3.64486 51.07 4.10821C50.8903 4.23689 50.7005 4.3502 50.5099 4.46259C50.3724 4.54378 50.3645 4.57536 50.4803 4.68741C50.7026 4.8923 50.862 5.15227 50.9414 5.43879C51.0546 5.87258 50.9741 6.28455 50.7899 6.68307C50.42 7.48363 49.7948 8.05069 49.0112 8.4715C48.3481 8.83184 47.5967 9.0136 46.8358 8.99774C45.8675 8.98276 44.8989 8.99417 43.9303 8.99417V8.9922ZM46.0614 3.51981V3.51774C46.8721 3.51774 47.6828 3.5236 48.4933 3.51542C48.9396 3.51089 49.2495 3.29147 49.4245 2.89822C49.6123 2.47635 49.3436 2.19579 48.9452 2.19949C47.6838 2.21119 46.4224 2.20212 45.161 2.20187C44.8054 2.2018 44.4495 2.19906 44.0941 2.20717C43.8641 2.20826 43.6416 2.28612 43.4648 2.4275C43.2877 2.56889 43.1669 2.76503 43.1229 2.98258C43.0578 3.27435 43.2208 3.48855 43.5305 3.51426C43.6045 3.52042 43.6792 3.51956 43.7538 3.51958C44.5231 3.51993 45.2924 3.52 46.0614 3.51981ZM45.2806 5.54793V5.55054C44.461 5.55054 43.6413 5.54542 42.822 5.55251C42.6063 5.5465 42.3953 5.61259 42.2243 5.73957C42.0534 5.86654 41.9336 6.0466 41.8848 6.24918C41.8035 6.56247 41.9359 6.76443 42.2645 6.8215C42.3421 6.8333 42.4206 6.8385 42.499 6.83704C43.4676 6.83803 44.4362 6.83823 45.4045 6.83764C46.0088 6.83749 46.6133 6.842 47.2176 6.83468C47.4516 6.83562 47.6792 6.76009 47.8632 6.62043C48.0469 6.48079 48.1764 6.28521 48.2304 6.06557C48.2457 6.01663 48.251 5.96522 48.2457 5.91433C48.2403 5.86344 48.2245 5.81408 48.1992 5.7691C48.1739 5.72412 48.1396 5.68444 48.0985 5.65232C48.0571 5.6202 48.0096 5.59628 47.9588 5.58197C47.8512 5.55165 47.739 5.54022 47.6274 5.5483C46.845 5.54756 46.0627 5.54744 45.2806 5.54793Z" fill="#707D9B"/>
<path d="M17.7143 8.99591C16.3277 8.99591 14.9411 8.99589 13.5545 8.99584C13.2283 8.99584 13.2012 8.96093 13.3091 8.66727C13.5051 8.13428 13.7157 7.60635 13.8988 7.06885C13.9685 6.86441 14.0815 6.79228 14.3228 6.79174C14.8567 6.79061 15.3906 6.79393 15.9245 6.79403C17.9527 6.79438 19.9808 6.79477 22.009 6.79521C22.2773 6.79549 22.5456 6.83174 22.8137 6.78957C23.2825 6.71585 23.5903 6.44726 23.761 6.03561C23.8623 5.79136 23.7204 5.58034 23.4545 5.52612C23.3689 5.51157 23.282 5.5057 23.1951 5.50864C21.3161 5.50772 19.4368 5.51201 17.5577 5.5027C17.0943 5.50041 16.6302 5.4539 16.2027 5.25466C15.4923 4.92353 15.1698 4.32467 15.3109 3.57635C15.4537 2.8189 15.7066 2.09874 16.2275 1.49868C16.8822 0.721856 17.8172 0.212196 18.8451 0.071779C19.28 0.0170652 19.7185 -0.0064258 20.157 0.00150003C22.8019 0.000360559 25.4467 0.000820427 28.0916 0.00288015C28.3987 0.00297154 28.4309 0.0445412 28.3294 0.322266C28.1329 0.859382 27.9352 1.39602 27.7359 1.93218C27.6636 2.12739 27.5642 2.19491 27.3463 2.20369C27.2967 2.20568 27.2469 2.20455 27.1973 2.2046C24.482 2.2046 21.7668 2.20478 19.0515 2.20512C18.9522 2.20188 18.8528 2.2062 18.7543 2.21805C18.5359 2.25225 18.3351 2.35436 18.1825 2.50883C18.0299 2.66327 17.9338 2.86161 17.909 3.07357C17.8825 3.29158 17.9813 3.42686 18.2038 3.47123C18.3745 3.50278 18.548 3.51736 18.7218 3.51475C20.6299 3.51384 22.5381 3.5111 24.4461 3.5167C24.8497 3.51835 25.247 3.61291 25.605 3.79248C26.2258 4.10038 26.4679 4.6976 26.4111 5.29862C26.3416 6.11973 26.0023 6.89808 25.4422 7.52031C24.6957 8.35691 23.7547 8.85051 22.6043 8.95268C22.2292 8.98601 21.8532 8.9964 21.4766 8.99623C20.2226 8.99557 18.9684 8.99547 17.7143 8.99591Z" fill="#707D9B"/>
<path d="M33.6772 0.0523757C35.1381 0.0523757 36.5993 0.0481803 38.0603 0.0547521C38.5424 0.0569183 39.0061 0.143019 39.4075 0.431374C39.9619 0.829833 40.2695 1.63606 40.0074 2.29907C39.7159 3.03772 39.2044 3.67677 38.537 4.13574C38.3766 4.24907 38.2079 4.34989 38.0378 4.44871C37.8957 4.53131 37.8924 4.55798 38.0107 4.66954C38.3763 5.01451 38.5725 5.42835 38.5324 5.92434C38.4892 6.44541 38.2784 6.94049 37.9294 7.34049C37.1673 8.23588 36.2007 8.79836 34.9996 8.9628C34.8645 8.98088 34.728 8.98979 34.5916 8.98947C31.7068 8.99095 28.8219 8.99132 25.937 8.99056C25.598 8.99056 25.5819 8.96836 25.6982 8.65941C25.8983 8.12777 26.1009 7.59695 26.2986 7.06451C26.3196 6.99293 26.3628 6.92935 26.4228 6.88258C26.4826 6.8358 26.5562 6.80811 26.6331 6.80336C26.6987 6.79698 26.7652 6.7955 26.8313 6.7955C29.4553 6.79513 32.0795 6.79518 34.7038 6.7957C34.8612 6.80299 35.0183 6.78026 35.1667 6.72882C35.3277 6.66862 35.4687 6.56721 35.5748 6.43546C35.6805 6.3037 35.747 6.14662 35.7672 5.98114C35.783 5.89158 35.7651 5.79951 35.7168 5.72145C35.6685 5.64342 35.5932 5.5845 35.504 5.55528C35.3898 5.51863 35.27 5.50208 35.1496 5.50639C33.2707 5.5072 31.3915 5.50735 29.5125 5.5069C29.2238 5.5069 29.2088 5.48328 29.3094 5.2208C29.4847 4.76516 29.66 4.30954 29.8296 3.85203C29.9334 3.5726 30.0054 3.51809 30.3192 3.51829C31.2175 3.51886 32.1156 3.51962 33.0136 3.52056C33.9741 3.52097 34.9342 3.52095 35.8944 3.52048C36.0226 3.52482 36.1512 3.51516 36.2771 3.49169C36.4708 3.44501 36.6463 3.34478 36.7817 3.20332C36.9174 3.06188 37.0071 2.88535 37.04 2.69543C37.0505 2.63617 37.0475 2.57548 37.0314 2.51742C37.0153 2.45938 36.9864 2.40534 36.9468 2.35894C36.9072 2.31255 36.8579 2.27489 36.8019 2.24851C36.7457 2.22212 36.6846 2.20763 36.6223 2.20601C36.552 2.20171 36.4815 2.20264 36.4113 2.20264C33.7873 2.20249 31.1631 2.20244 28.5388 2.20249C28.1965 2.20249 28.1799 2.17864 28.2956 1.87453C28.4946 1.35098 28.6929 0.827106 28.8902 0.302908C28.9663 0.101312 29.0414 0.0491491 29.2691 0.0491035C30.7384 0.0487988 32.2078 0.0487469 33.6772 0.0489481V0.0523757Z" fill="#707D9B"/>
<path d="M58.5737 0.0504874C60.0262 0.0504874 61.479 0.0505573 62.9318 0.0506975C63.3183 0.0408757 63.7016 0.124185 64.0465 0.293086C64.6206 0.588882 64.9132 1.06107 64.9425 1.68416C64.9727 2.3258 64.6612 2.84406 64.2777 3.3294C63.8996 3.78554 63.4331 4.1661 62.9037 4.44967C62.7619 4.53036 62.7565 4.55684 62.8745 4.66926C63.1788 4.93918 63.3707 5.30681 63.4141 5.70329C63.4313 5.97451 63.3853 6.24603 63.2792 6.49784C62.9939 7.25405 62.4624 7.81772 61.7751 8.25541C61.2 8.62987 60.5429 8.87084 59.8548 8.95944C59.563 8.99026 59.2689 9.00127 58.9754 8.99235C58.3055 8.98459 57.635 8.96452 56.9651 8.9754C54.9127 9.00875 52.8603 8.97962 50.8079 8.99031C50.4698 8.99208 50.4535 8.97112 50.5654 8.67132C50.7667 8.13168 50.9714 7.59318 51.1742 7.05403C51.1944 6.98637 51.2356 6.92624 51.292 6.88163C51.3485 6.83703 51.4177 6.81003 51.4905 6.80426C51.5565 6.79796 51.6224 6.79503 51.6886 6.7955C54.3332 6.79508 56.9779 6.79577 59.6226 6.79756C59.8241 6.80885 60.0244 6.75852 60.1949 6.65376C60.365 6.54898 60.4969 6.3951 60.5712 6.21401C60.7506 5.84253 60.6049 5.57461 60.1857 5.51483C60.1241 5.50793 60.062 5.50537 59.9999 5.50719C58.121 5.50682 56.242 5.5067 54.3631 5.50685C54.1158 5.50685 54.0872 5.4635 54.1735 5.23789C54.3524 4.77087 54.5307 4.30365 54.7047 3.83498C54.8021 3.57336 54.8749 3.51828 55.169 3.51836C56.8369 3.51877 58.5047 3.51949 60.1726 3.5205C60.421 3.52057 60.6693 3.52341 60.9177 3.51742C61.1412 3.51643 61.3582 3.44392 61.5344 3.31125C61.7105 3.17858 61.8362 2.99328 61.8914 2.78437C61.9836 2.46223 61.7974 2.21639 61.4506 2.20385C61.3929 2.20176 61.3346 2.20254 61.2769 2.20254C58.6611 2.20249 56.0456 2.20234 53.4298 2.2021C53.3595 2.20353 53.2893 2.20017 53.2195 2.19205C53.0933 2.17468 53.0675 2.13836 53.1081 2.02295C53.1715 1.84198 53.2428 1.66342 53.311 1.48394C53.4645 1.08008 53.6183 0.676259 53.7721 0.272477C53.8404 0.0927517 53.904 0.0491346 54.1038 0.0490981C55.5936 0.0488055 57.0837 0.0487508 58.5735 0.0489336L58.5737 0.0504874Z" fill="#707D9B"/>
<path d="M10.7055 6.60345C9.76072 6.57079 8.88753 6.58113 8.01485 6.58988C7.26608 6.59734 6.5174 6.60332 5.76866 6.60217C5.44205 6.60167 5.11547 6.58985 4.78885 6.58697C4.55915 6.58492 4.49262 6.63384 4.41306 6.84216C4.17184 7.47367 3.93019 8.10501 3.68813 8.73623C3.60078 8.96369 3.54623 8.99866 3.29474 8.99869C2.56223 8.99876 1.82972 8.99876 1.0972 8.99869C1.0641 8.99869 1.03095 8.99923 0.997891 8.99795C0.821547 8.99115 0.779461 8.93967 0.838328 8.7805C1.01307 8.30793 1.19281 7.83702 1.37047 7.36544C1.97675 5.75598 2.58296 4.14651 3.1891 2.537C3.46097 1.81451 3.73003 1.09101 4.00201 0.368604C4.10973 0.0824509 4.18896 0.0306624 4.5067 0.030626C6.70424 0.0303791 8.90184 0.0207727 11.0993 0.0356258C11.8976 0.0410184 12.6962 0.0340353 13.4945 0.0495827C13.9057 0.0561821 14.3027 0.195103 14.6226 0.444261C14.9425 0.693418 15.1668 1.03851 15.2599 1.42469C15.327 1.74683 15.301 2.08056 15.1846 2.38941C14.9781 3.00728 14.7454 3.6166 14.5045 4.22274C14.2649 4.82583 13.8226 5.27911 13.3103 5.67662C12.6964 6.17064 11.9472 6.4826 11.1532 6.57478C10.981 6.59367 10.8069 6.59724 10.7055 6.60345ZM8.11797 4.35341C8.94941 4.35341 9.78083 4.35368 10.6123 4.3542C10.8031 4.35477 10.9917 4.31413 11.164 4.23521C11.7353 3.97758 12.0057 3.51162 12.1011 2.94052C12.1575 2.60238 12.0201 2.37739 11.7393 2.27034C11.6109 2.22498 11.4746 2.20379 11.3379 2.20793C10.7877 2.20903 10.2376 2.20914 9.68742 2.20826C8.59539 2.20744 7.50339 2.2065 6.41136 2.20543C6.19994 2.20533 6.14779 2.23559 6.08624 2.39665C5.86209 2.98296 5.63894 3.56965 5.41673 4.15665C5.35396 4.32257 5.37767 4.35317 5.5616 4.35327C6.41374 4.35364 7.26585 4.35369 8.11797 4.35341Z" fill="#707D9B"/>
</svg>
