<svg width="121" height="15" viewBox="0 0 121 15" fill="none" xmlns="http://www.w3.org/2000/svg">
<path d="M5.36878 0.0378418H19.7188C21.2059 0.0378418 22.2096 0.715442 22.7301 2.033C22.8788 2.74824 22.8416 3.38819 22.6186 4.02815L21.652 6.77619C21.1687 8.09374 20.0906 9.22308 18.4548 10.1642C17.5626 10.5783 16.7075 10.8041 16.0012 10.8041H5.81489L4.36502 14.7568C4.36502 14.7944 4.32784 14.8321 4.29067 14.8321H0.0525751C0.0153989 14.8321 -0.0217773 14.7944 0.0153989 14.7568L5.25725 0.113131C5.29443 0.0754865 5.3316 0.0378418 5.36878 0.0378418ZM8.41723 3.53877L7.07889 7.22792H15.3692C16.2614 7.22792 16.9678 6.81384 17.4882 5.98566C17.5998 5.79744 17.6741 5.60921 17.7485 5.42099C18.0831 4.51753 17.9344 3.95286 17.3395 3.6517C17.1537 3.57642 16.9306 3.53877 16.7075 3.53877H8.41723Z" fill="white"/>
<path d="M68.6429 0.0378418H78.4203C80.2419 0.0378418 81.3572 0.828374 81.6918 2.44708C81.729 2.97411 81.6918 3.50113 81.5059 3.9905L81.4315 4.14108C80.9482 5.45864 79.8701 6.58797 78.1972 7.49143C79.2381 8.35726 79.4984 9.44894 79.0151 10.8041L78.9407 11.03C78.6805 11.7453 78.0485 12.5358 77.0447 13.4016C75.7064 14.3427 74.4424 14.8321 73.1784 14.8321H63.3267C61.4679 14.8321 60.3526 14.0039 60.0552 12.3476C60.018 11.7829 60.0924 11.2935 60.2783 10.8041C60.65 9.71245 61.5422 8.7337 62.9549 7.83023C63.2895 7.64201 63.4754 7.56672 63.5126 7.56672L63.5498 7.49143C62.5088 6.62561 62.2114 5.53393 62.6575 4.21637V4.17873C63.2152 2.67295 64.3305 1.46833 66.0778 0.640152C66.9328 0.226064 67.7879 0.0378418 68.6429 0.0378418ZM66.8584 4.70575C66.6726 5.19513 66.8213 5.53393 67.2302 5.75979C67.3046 5.79744 67.4161 5.83508 67.5648 5.83508H75.409C76.1525 5.72215 76.673 5.3457 76.896 4.6681C77.0819 4.14108 76.9332 3.80228 76.4871 3.57642C76.4128 3.57642 76.3384 3.53877 76.2269 3.53877H68.3827C67.602 3.65171 67.0815 4.02815 66.8584 4.70575ZM64.8881 10.2018C64.7022 10.6912 64.8509 11.0677 65.2599 11.2559C65.3342 11.2935 65.4458 11.3312 65.5945 11.3312H73.2899C73.8848 11.3312 74.3681 11.0677 74.7398 10.5783C74.8513 10.3524 74.9257 10.2395 74.9257 10.2018C75.1116 9.71245 74.9629 9.33601 74.5539 9.14779C74.4796 9.11014 74.4052 9.0725 74.2565 9.0725H66.4495C65.6316 9.14779 65.1112 9.52423 64.8881 10.2018Z" fill="white"/>
<path d="M62.0264 2.44708C61.6918 0.828374 60.6137 0.0378418 58.7549 0.0378418H44.5536L43.2896 3.53877H56.5615C56.6359 3.53877 56.7102 3.53877 56.8217 3.57642C57.305 3.80228 57.4166 4.14108 57.2307 4.6681C57.0076 5.3457 56.4872 5.72215 55.7436 5.83508H46.0778L44.9253 9.03485H54.554C54.7027 9.03485 54.8142 9.0725 54.8514 9.11014C55.2975 9.29837 55.409 9.67481 55.2232 10.1642C55.2232 10.2018 55.1488 10.3148 55.0373 10.5406C54.6655 11.0677 54.1822 11.2935 53.5874 11.2935H40.4642L39.2002 14.7944H53.5131C54.777 14.7944 56.041 14.3051 57.3794 13.364C58.3831 12.4981 59.0151 11.7076 59.2754 10.9924L59.3497 10.7665C59.833 9.4113 59.5356 8.31961 58.4947 7.45379C60.1676 6.55032 61.2457 5.42099 61.729 4.10344L61.8034 3.95286C62.0264 3.50113 62.1008 2.97411 62.0264 2.44708Z" fill="white"/>
<path d="M107.938 0.0378418H117.715C119.537 0.0378418 120.652 0.828374 120.987 2.44708C121.024 2.97411 120.987 3.50113 120.801 3.9905L120.726 4.14108C120.243 5.45864 119.165 6.58797 117.492 7.49143C118.533 8.35726 118.793 9.44894 118.31 10.8041L118.236 11.03C117.975 11.7453 117.343 12.5358 116.34 13.4016C115.001 14.3427 113.737 14.8321 112.473 14.8321H102.622C100.763 14.8321 99.6475 14.0039 99.3501 12.3476C99.3129 11.7829 99.3873 11.2935 99.5732 10.8041C99.9449 9.71245 100.837 8.7337 102.25 7.83023C102.584 7.64201 102.77 7.56672 102.808 7.56672L102.845 7.49143C101.804 6.62561 101.506 5.53393 101.952 4.21637V4.17873C102.51 2.67295 103.625 1.46833 105.373 0.640152C106.191 0.226064 107.046 0.0378418 107.938 0.0378418ZM106.116 4.70575C105.93 5.19513 106.079 5.53393 106.488 5.75979C106.562 5.79744 106.674 5.83508 106.823 5.83508H114.667C115.41 5.72215 115.931 5.3457 116.154 4.6681C116.34 4.14108 116.191 3.80228 115.745 3.57642C115.67 3.57642 115.596 3.53877 115.485 3.53877H107.64C106.86 3.65171 106.376 4.02815 106.116 4.70575ZM104.146 10.2018C103.96 10.6912 104.109 11.0677 104.518 11.2559C104.592 11.2935 104.703 11.3312 104.852 11.3312H112.548C113.143 11.3312 113.626 11.0677 113.998 10.5783C114.109 10.3524 114.183 10.2395 114.183 10.2018C114.369 9.71245 114.221 9.33601 113.812 9.14779C113.737 9.11014 113.663 9.0725 113.514 9.0725H105.707C104.889 9.14779 104.406 9.52423 104.146 10.2018Z" fill="white"/>
<path d="M101.32 2.44708C100.986 0.828374 99.9077 0.0378418 98.0489 0.0378418H83.8475L82.5835 3.53877H95.8555C95.9298 3.53877 96.0042 3.53877 96.1157 3.57642C96.599 3.80228 96.7105 4.14108 96.5246 4.6681C96.3016 5.3457 95.7811 5.72215 95.0376 5.83508H85.3717L84.2193 9.03485H93.8479C93.9966 9.03485 94.1082 9.0725 94.1453 9.11014C94.5915 9.29837 94.703 9.67481 94.5171 10.1642C94.5171 10.2018 94.4428 10.3148 94.3312 10.5406C93.9595 11.0677 93.4762 11.2935 92.8814 11.2935H79.7581L78.4941 14.7944H92.807C94.071 14.7944 95.335 14.3051 96.6733 13.364C97.6771 12.4981 98.3091 11.7076 98.5693 10.9924L98.6437 10.7665C99.127 9.4113 98.8295 8.31961 97.7886 7.45379C99.4615 6.55032 100.54 5.42099 101.023 4.10344L101.097 3.95286C101.283 3.50113 101.358 2.97411 101.32 2.44708Z" fill="white"/>
<path d="M39.9431 6.92657C39.3854 6.17368 38.3445 5.79724 36.8203 5.79724H27.898C27.5262 5.79724 27.1916 5.72195 27.0429 5.49608C26.9314 5.30786 26.9314 5.04435 27.0429 4.66791C27.1916 4.29146 27.4147 3.99031 27.6749 3.80208C27.9351 3.61386 28.2697 3.50093 28.6787 3.50093H42.2852C42.3223 3.50093 42.3595 3.46329 42.3595 3.46329L43.5492 0.112933C43.5863 0.0752889 43.512 0 43.4748 0H29.5709C28.8274 0 28.1582 0.112933 27.489 0.3388C26.8198 0.564666 26.225 0.865821 25.6674 1.24227C25.1097 1.61871 24.6264 2.10809 24.2547 2.63511C23.8829 3.16213 23.5483 3.76444 23.3625 4.36675C23.1394 5.00671 22.9535 5.72195 22.9163 6.28662C22.8792 6.7007 22.9907 7.26537 23.2881 7.7171C23.5483 8.09355 23.9573 8.43235 24.4406 8.65821C24.9239 8.88408 25.7046 8.99701 26.4109 8.99701H35.4447C35.705 8.99701 36.1139 9.10995 36.2626 9.29817C36.4113 9.48639 36.4113 9.71226 36.2626 10.1263C36.1139 10.5028 35.7422 10.8416 35.5191 10.9922C35.296 11.1804 34.9614 11.2933 34.6269 11.2933H20.946C20.9088 11.2933 20.8716 11.331 20.8716 11.331L19.682 14.6813C19.6448 14.719 19.7192 14.7943 19.7564 14.7943H33.7346C34.5153 14.7943 35.2217 14.6813 35.8909 14.4555C36.56 14.2296 37.192 13.8908 37.7497 13.4767C38.3073 13.0626 38.7534 12.5732 39.1624 12.0086C39.5341 11.4815 39.8687 10.8792 40.0918 10.2393C40.5379 8.77115 40.5007 7.67946 39.9431 6.92657Z" fill="white"/>
</svg>
