<svg width="143" height="35" viewBox="0 0 143 35" fill="none" xmlns="http://www.w3.org/2000/svg">
<path d="M48.7861 23.297C47.8063 23.297 46.9581 23.0005 46.2415 22.4075C45.5249 21.8 45.1666 21.019 45.1666 20.0644V19.9777C45.1666 18.5747 45.8978 17.6202 47.3603 17.114C48.1353 16.8247 49.0055 16.6801 49.9707 16.6801H51.0236C51.594 16.6801 51.8791 16.4342 51.8791 15.9424C51.8791 15.5519 51.7256 15.2337 51.4185 14.9879C51.1114 14.7275 50.6946 14.5974 50.1681 14.5974C49.6855 14.5974 49.2687 14.7275 48.9177 14.9879C48.5667 15.2482 48.3328 15.6098 48.2158 16.0726L45.4079 15.4435C45.5395 14.6914 45.854 14.0622 46.3512 13.556C46.8484 13.0209 47.4407 12.6376 48.128 12.4062C48.8325 12.1599 49.5745 12.0352 50.3217 12.0374C51.711 12.0229 52.837 12.399 53.6998 13.1655C54.5773 13.9321 55.016 15.0096 55.016 16.398V21.3444C55.016 21.8362 55.0453 22.4147 55.1038 23.08H52.1424C52.0985 22.7907 52.0766 22.3424 52.0766 21.7349H52.0327C51.2722 22.7763 50.19 23.297 48.7861 23.297ZM49.7074 20.9973C50.3655 20.9973 50.892 20.7876 51.2868 20.3682C51.6817 19.9777 51.8791 19.4931 51.8791 18.9146V18.6543H49.9707C49.5758 18.6543 49.2175 18.7628 48.8958 18.9797C48.5448 19.1967 48.3693 19.5004 48.3693 19.8909C48.3693 20.238 48.4936 20.5128 48.7422 20.7153C48.9909 20.9033 49.3126 20.9973 49.7074 20.9973ZM57.8414 23.08V6.6137H61.0441V23.08H57.8414ZM63.9894 12.2977H67.1482V13.6428H67.1921C67.9818 12.6014 69.0933 12.0808 70.5264 12.0808C72.0912 12.0808 73.3635 12.6738 74.3433 13.8597C75.25 14.9879 75.7034 16.2606 75.7034 17.678C75.7034 19.1388 75.2281 20.4188 74.2775 21.518C73.2685 22.704 71.9888 23.297 70.4387 23.297C69.064 23.297 67.9891 22.8269 67.214 21.8868H67.1702V28.3952H63.9894V12.2977ZM67.8721 15.7038C67.3603 16.21 67.1044 16.8681 67.1044 17.678C67.1044 18.488 67.3603 19.146 67.8721 19.6522C68.3986 20.1729 69.0348 20.4333 69.7806 20.4333C70.541 20.4333 71.1845 20.1729 71.711 19.6522C72.2228 19.146 72.4788 18.488 72.4788 17.678C72.4788 16.897 72.2228 16.2389 71.711 15.7038C71.1991 15.1976 70.5557 14.9445 69.7806 14.9445C69.0055 14.9445 68.3694 15.1976 67.8721 15.7038ZM78.1756 9.9113C77.7954 9.53526 77.6053 9.07967 77.6053 8.54453C77.6053 7.98047 77.7954 7.51042 78.1756 7.13438C78.5851 6.75833 79.0457 6.57031 79.5576 6.57031C80.0987 6.57031 80.574 6.75833 80.9834 7.13438C81.3637 7.53934 81.5538 8.0094 81.5538 8.54453C81.5538 9.05074 81.3637 9.50633 80.9834 9.9113C80.5886 10.3018 80.1133 10.4971 79.5576 10.4971C79.0311 10.4971 78.5705 10.3018 78.1756 9.9113ZM77.9782 12.2977H81.1809V23.08H77.9782V12.2977ZM94.3485 23.08H91.1677V17.0923C91.1677 16.4414 91.0069 15.9352 90.6851 15.5736C90.3634 15.1976 89.8881 15.0096 89.2593 15.0096C88.6304 15.0096 88.1478 15.2048 87.8115 15.5953C87.4751 16.0148 87.3069 16.5137 87.3069 17.0923V23.08H84.1262V12.2977H87.285V13.7079H87.3069C87.7018 13.0281 88.2721 12.5725 89.018 12.3411C89.6029 12.1676 90.0636 12.0808 90.4 12.0808C91.7015 12.0808 92.6813 12.493 93.3394 13.3174C94.0121 14.1418 94.3485 15.1614 94.3485 16.3763V23.08ZM97.1724 6.6354H100.353V13.5777H100.397C100.909 12.9269 101.523 12.5074 102.24 12.3194C102.714 12.1663 103.21 12.0858 103.709 12.0808C105.274 12.0808 106.547 12.6738 107.526 13.8597C108.433 14.9879 108.886 16.2606 108.886 17.678C108.886 19.1388 108.411 20.4188 107.461 21.518C106.451 22.704 105.172 23.297 103.622 23.297C103.198 23.297 102.693 23.2174 102.108 23.0583C101.406 22.8414 100.807 22.4147 100.309 21.7783H100.287V23.08H97.1724V6.6354ZM101.055 15.7038C100.543 16.21 100.287 16.8681 100.287 17.678C100.287 18.488 100.543 19.146 101.055 19.6522C101.582 20.1729 102.218 20.4333 102.964 20.4333C103.724 20.4333 104.368 20.1729 104.894 19.6522C105.406 19.146 105.662 18.488 105.662 17.678C105.662 16.897 105.406 16.2389 104.894 15.7038C104.382 15.1976 103.739 14.9445 102.964 14.9445C102.189 14.9445 101.552 15.1976 101.055 15.7038ZM113.815 16.4631H118.51C118.466 16.0292 118.276 15.6242 117.939 15.2482C117.545 14.8143 116.96 14.5974 116.185 14.5974C115.527 14.5974 114.985 14.7998 114.561 15.2048C114.123 15.6242 113.874 16.0437 113.815 16.4631ZM121.647 18.5675H113.75C113.837 19.1894 114.137 19.7029 114.649 20.1078C115.146 20.4983 115.739 20.6936 116.426 20.6936C116.879 20.6936 117.34 20.5562 117.808 20.2814C118.276 20.0066 118.583 19.6595 118.729 19.24L121.362 20.1295C121.029 21.1046 120.361 21.9336 119.475 22.4726C118.568 23.0366 117.567 23.3187 116.47 23.3187C115.388 23.3187 114.386 23.08 113.465 22.6027C112.572 22.1544 111.849 21.4891 111.293 20.6068C110.755 19.7229 110.474 18.7095 110.481 17.678C110.481 16.6511 110.744 15.7038 111.271 14.836C111.783 13.9827 112.492 13.2957 113.399 12.775C114.262 12.2833 115.219 12.0374 116.272 12.0374C117.881 12.0374 119.19 12.5364 120.199 13.5343C121.208 14.5323 121.713 15.834 121.713 17.4394C121.713 17.9311 121.691 18.3072 121.647 18.5675ZM130.39 15.0313H127.692V19.1099C127.692 20.0355 128.211 20.4983 129.249 20.4983C129.542 20.4983 129.915 20.4694 130.368 20.4116V22.9715C129.841 23.1451 129.205 23.2319 128.459 23.2319C125.827 23.2319 124.511 21.9157 124.511 19.2834V15.0313H122.405V12.2977H124.577V8.91334H127.692V12.2977H130.39V15.0313Z" fill="#707D9B"/>
<path fill-rule="evenodd" clip-rule="evenodd" d="M35.5361 17.2937C35.5361 22.486 31.2805 26.6947 26.0304 26.6947C20.7803 26.6947 16.5247 22.486 16.5247 17.2937C16.5247 12.1014 20.7803 7.89263 26.0304 7.89263C31.2805 7.89263 35.5361 12.1014 35.5361 17.2937ZM38.461 17.2937C38.461 24.0834 32.8957 29.5874 26.0304 29.5874C19.1651 29.5874 13.5999 24.0834 13.5999 17.2937C13.5999 10.504 19.1651 5 26.0304 5C32.8957 5 38.461 10.504 38.461 17.2937ZM30.4177 17.2937C30.4177 17.8635 30.3042 18.4277 30.0837 18.9541C29.8632 19.4806 29.5401 19.9589 29.1327 20.3618C28.7253 20.7647 28.2416 21.0843 27.7093 21.3023C27.1771 21.5204 26.6066 21.6326 26.0304 21.6326C25.4543 21.6326 24.8838 21.5204 24.3515 21.3023C23.8192 21.0843 23.3355 20.7647 22.9282 20.3618C22.5208 19.9589 22.1976 19.4806 21.9771 18.9541C21.7566 18.4277 21.6432 17.8635 21.6432 17.2937C21.6432 16.1429 22.1054 15.0393 22.9282 14.2256C23.7509 13.4119 24.8668 12.9547 26.0304 12.9547C27.194 12.9547 28.3099 13.4119 29.1327 14.2256C29.9554 15.0393 30.4177 16.1429 30.4177 17.2937ZM33.3425 17.2937C33.3425 21.2877 30.0689 24.5253 26.0304 24.5253C21.9919 24.5253 18.7183 21.2877 18.7183 17.2937C18.7183 13.2997 21.9919 10.0621 26.0304 10.0621C30.0689 10.0621 33.3425 13.2997 33.3425 17.2937Z" fill="#707D9B"/>
</svg>
