<svg width="65" height="35" viewBox="0 0 65 35" fill="none" xmlns="http://www.w3.org/2000/svg">
<path d="M43.4926 32.7652C43.0156 32.7652 42.558 32.5776 42.2207 32.2437C41.8833 31.9098 41.6938 31.457 41.6938 30.9848V29.5071H20.3414V30.9848C20.3414 31.457 20.1519 31.9098 19.8146 32.2437C19.4772 32.5776 19.0197 32.7652 18.5426 32.7652C18.0655 32.7652 17.6079 32.5776 17.2706 32.2437C16.9332 31.9098 16.7437 31.457 16.7437 30.9848V24.5665H6.18447C5.70739 24.5665 5.24984 24.3789 4.91249 24.045C4.57514 23.7111 4.38562 23.2583 4.38562 22.7861V3.78039C4.38562 3.3082 4.57514 2.85535 4.91249 2.52146C5.24984 2.18758 5.70739 2 6.18447 2H59.4305C59.9076 2 60.3651 2.18758 60.7024 2.52146C61.0398 2.85535 61.2293 3.3082 61.2293 3.78039V22.7861C61.2293 23.2583 61.0398 23.7111 60.7024 24.045C60.3651 24.3789 59.9076 24.5665 59.4305 24.5665H45.2915V30.9848C45.2915 31.457 45.102 31.9098 44.7646 32.2437C44.4273 32.5776 43.9697 32.7652 43.4926 32.7652ZM20.3414 25.9463H41.6938V22.7861C41.6938 22.3139 41.8833 21.861 42.2207 21.5272C42.558 21.1933 43.0156 21.0057 43.4926 21.0057H57.6316V5.56079H7.98332V21.0057H37.4755C37.9526 21.0057 38.4101 21.1933 38.7475 21.5272C39.0848 21.861 39.2743 22.3139 39.2743 22.7861C39.2743 23.2583 39.0848 23.7111 38.7475 24.045C38.4101 24.3789 37.9526 24.5665 37.4755 24.5665H20.3864L20.3414 25.9463Z" fill="#707D9B"/>
<path d="M45.5254 34.9725H41.9277C41.5262 34.9702 41.1418 34.8107 40.8587 34.5288C40.5756 34.2469 40.4167 33.8656 40.4167 33.4681V32.2575C40.4204 32.1158 40.395 31.9748 40.3422 31.8431C40.2894 31.7113 40.2101 31.5915 40.1093 31.4909C40.0085 31.3903 39.8881 31.3109 39.7554 31.2575C39.6228 31.2041 39.4806 31.1779 39.3374 31.1803H23.1477C23.0076 31.1791 22.8686 31.2054 22.7388 31.2577C22.609 31.31 22.4909 31.3872 22.3914 31.4848C22.2919 31.5825 22.213 31.6987 22.1591 31.8267C22.1052 31.9547 22.0774 32.092 22.0774 32.2307V33.4414C22.0774 33.8389 21.9185 34.2202 21.6354 34.5021C21.3523 34.784 20.968 34.9435 20.5664 34.9458H16.1502C15.9506 34.9494 15.7522 34.914 15.5664 34.8416C15.3806 34.7693 15.2111 34.6614 15.0674 34.5242C14.9237 34.3869 14.8088 34.223 14.7292 34.0418C14.6495 33.8606 14.6067 33.6657 14.6032 33.4681V27.6818C14.6008 27.4024 14.487 27.1353 14.2865 26.9385C14.0861 26.7418 13.8152 26.6314 13.5329 26.6314H3.52227C3.12069 26.6291 2.73637 26.4695 2.45325 26.1876C2.17013 25.9058 2.01122 25.5244 2.01123 25.127V1.52787C2.01122 1.13041 2.17013 0.749092 2.45325 0.46721C2.73637 0.185329 3.12069 0.0257893 3.52227 0.0234375L61.6971 0.0234375C62.0924 0.0350175 62.4676 0.198617 62.743 0.479508C63.0184 0.760398 63.1723 1.13646 63.1722 1.52787V25.127C63.1722 25.5244 63.0133 25.9058 62.7301 26.1876C62.447 26.4695 62.0627 26.6291 61.6611 26.6314H48.1068C47.9667 26.6302 47.8277 26.6565 47.6979 26.7088C47.5681 26.7611 47.45 26.8382 47.3505 26.9359C47.251 27.0336 47.172 27.1498 47.1181 27.2778C47.0642 27.4058 47.0365 27.5431 47.0365 27.6818V33.4681C47.0365 33.8656 46.8776 34.2469 46.5945 34.5288C46.3113 34.8107 45.927 34.9702 45.5254 34.9725ZM23.1207 30.7619H39.3104C39.712 30.7619 40.0973 30.9192 40.3821 31.1994C40.6669 31.4796 40.8281 31.86 40.8304 32.2575V33.4681C40.8304 33.7475 40.942 34.0156 41.1407 34.2141C41.3395 34.4125 41.6095 34.5251 41.8918 34.5275H45.4895C45.7718 34.5251 46.0417 34.4125 46.2405 34.2141C46.4393 34.0156 46.5508 33.7475 46.5508 33.4681V27.6818C46.5532 27.2844 46.7144 26.904 46.9992 26.6238C47.284 26.3436 47.6692 26.1863 48.0708 26.1863H61.6971C61.9794 26.184 62.2493 26.0713 62.4481 25.8729C62.6469 25.6745 62.7584 25.4064 62.7584 25.127V1.52787C62.7596 1.38918 62.733 1.25163 62.6802 1.12315C62.6274 0.994679 62.5494 0.877827 62.4508 0.779341C62.3521 0.680854 62.2347 0.602683 62.1054 0.549338C61.976 0.495993 61.8372 0.468531 61.6971 0.468536H3.52227C3.38213 0.468531 3.24338 0.495993 3.11403 0.549338C2.98467 0.602683 2.86727 0.680854 2.7686 0.779341C2.66993 0.877827 2.59194 0.994679 2.53914 1.12315C2.48633 1.25163 2.45976 1.38918 2.46094 1.52787V25.127C2.46093 25.4064 2.57246 25.6745 2.77125 25.8729C2.97003 26.0713 3.23996 26.184 3.52227 26.1863H13.5688C13.9704 26.1863 14.3557 26.3436 14.6405 26.6238C14.9253 26.904 15.0865 27.2844 15.0889 27.6818V33.4681C15.0889 33.7475 15.2004 34.0156 15.3992 34.2141C15.598 34.4125 15.8679 34.5251 16.1502 34.5275H20.5394C20.8217 34.5251 21.0916 34.4125 21.2904 34.2141C21.4892 34.0156 21.6007 33.7475 21.6007 33.4681V32.2575C21.6031 31.86 21.7643 31.4796 22.0491 31.1994C22.3339 30.9192 22.7192 30.7619 23.1207 30.7619Z" fill="#707D9B"/>
<path d="M34.1656 20.0074C34.1014 20.007 34.0399 19.9813 33.9947 19.9362L30.7927 16.2063C30.7713 16.1714 30.76 16.1313 30.76 16.0905C30.76 16.0497 30.7713 16.0097 30.7927 15.9748C30.8103 15.935 30.8392 15.9011 30.876 15.8774C30.9128 15.8537 30.9557 15.8411 30.9996 15.8413H32.3488V14.5416H30.0732C30.0136 14.5416 29.9564 14.5181 29.9142 14.4764C29.872 14.4347 29.8484 14.3781 29.8484 14.319V10.8651H28.4542C28.4111 10.8672 28.3684 10.8564 28.3315 10.8342C28.2946 10.812 28.2653 10.7793 28.2474 10.7404C28.2251 10.7042 28.2134 10.6627 28.2134 10.6203C28.2134 10.5779 28.2251 10.5363 28.2474 10.5001L31.2784 6.88589C31.3224 6.83637 31.3832 6.80467 31.4493 6.79688C31.5134 6.79824 31.5745 6.82371 31.6202 6.86809L35.02 10.4912C35.0423 10.5274 35.054 10.569 35.054 10.6114C35.054 10.6538 35.0423 10.6953 35.02 10.7315C35.0025 10.7714 34.9736 10.8052 34.9368 10.8289C34.9 10.8527 34.8571 10.8652 34.8132 10.8651H33.3831C33.3235 10.8651 33.2663 10.8416 33.2241 10.7999C33.1819 10.7582 33.1582 10.7015 33.1582 10.6425C33.1582 10.5835 33.1819 10.5269 33.2241 10.4852C33.2663 10.4434 33.3235 10.42 33.3831 10.42H34.3904L31.4943 7.3577L28.9309 10.42H30.0732C30.1328 10.42 30.19 10.4434 30.2322 10.4852C30.2744 10.5269 30.2981 10.5835 30.2981 10.6425V14.0965H32.5017C32.5613 14.0965 32.6185 14.1199 32.6607 14.1617C32.7028 14.2034 32.7265 14.26 32.7265 14.319V16.0994C32.7265 16.1585 32.7028 16.2151 32.6607 16.2568C32.6185 16.2985 32.5613 16.322 32.5017 16.322H31.4133L34.1566 19.4733L36.702 16.2775H35.8835C35.8239 16.2775 35.7667 16.254 35.7245 16.2123C35.6823 16.1705 35.6586 16.1139 35.6586 16.0549C35.6586 15.9959 35.6823 15.9393 35.7245 15.8976C35.7667 15.8558 35.8239 15.8324 35.8835 15.8324H37.1607C37.2024 15.8324 37.2434 15.8439 37.2789 15.8656C37.3144 15.8873 37.3431 15.9184 37.3618 15.9554C37.3805 15.9924 37.3884 16.0337 37.3846 16.0749C37.3809 16.1161 37.3656 16.1554 37.3406 16.1884L34.3904 19.9273C34.3686 19.9533 34.341 19.974 34.3099 19.9879C34.2787 20.0018 34.2447 20.0084 34.2106 20.0074H34.1656Z" fill="#707D9B"/>
<path d="M32.5016 14.5409C32.442 14.5409 32.3848 14.5174 32.3426 14.4757C32.3004 14.434 32.2767 14.3774 32.2767 14.3183V12.3866C32.2767 12.3276 32.3004 12.271 32.3426 12.2292C32.3848 12.1875 32.442 12.1641 32.5016 12.1641H35.1999C35.2595 12.1641 35.3167 12.1875 35.3589 12.2292C35.401 12.271 35.4247 12.3276 35.4247 12.3866C35.4247 12.4456 35.401 12.5022 35.3589 12.544C35.3167 12.5857 35.2595 12.6092 35.1999 12.6092H32.7264V14.3183C32.7264 14.3774 32.7028 14.434 32.6606 14.4757C32.6184 14.5174 32.5612 14.5409 32.5016 14.5409Z" fill="#707D9B"/>
<path d="M10.3849 10.9978V12.4221L9.98911 12.8761L9.86319 12.7247V10.7752L10.3849 10.9978ZM12.1837 15.6535H10.187C10.1018 15.6296 10.0257 15.5814 9.96809 15.5149C9.91049 15.4484 9.874 15.3665 9.86319 15.2796L10.3849 15.0571H11.9589L12.1837 15.6535ZM10.4298 10.8464L9.90816 10.6239C9.91657 10.5361 9.9522 10.4531 10.0102 10.3861C10.0681 10.3192 10.1456 10.2716 10.232 10.25H12.3186C12.4038 10.2739 12.4799 10.3221 12.5375 10.3886C12.5951 10.4551 12.6316 10.5369 12.6424 10.6239L12.1207 10.8464H10.4298ZM12.1207 12.6268L12.3816 12.9295L12.1207 13.2233H10.3849L10.106 12.9562L10.3669 12.6535L12.1207 12.6268ZM12.5165 13.0007L12.6424 13.152V15.2529C12.6316 15.3398 12.5951 15.4217 12.5375 15.4882C12.4799 15.5547 12.4038 15.6029 12.3186 15.6268L12.1207 15.0304V13.4814L12.5165 13.0007Z" fill="#707D9B"/>
<path d="M13.7039 11.0023V12.4266L13.3082 12.8806L13.1822 12.7293V10.7798L13.7039 11.0023ZM13.1373 15.1595V13.1833L13.2632 13.032L13.6589 13.486V14.9103L13.1373 15.1595ZM15.6197 15.6847H13.4611C13.3747 15.6631 13.2972 15.6155 13.2393 15.5486C13.1813 15.4817 13.1457 15.3986 13.1373 15.3109L13.6589 15.0883H15.4578L15.6197 15.6847ZM15.4218 10.8777H13.7039L13.1822 10.6551C13.1925 10.5666 13.2299 10.4834 13.2894 10.4165C13.3489 10.3497 13.4276 10.3025 13.515 10.2812H15.6647L15.4218 10.8777Z" fill="#707D9B"/>
<path d="M16.5369 12.8804L16.402 12.7291V11.0021L16.7258 10.6282L16.9237 10.8508V12.4264L16.5369 12.8804ZM16.9237 13.4858V15.0614L16.7258 15.284L16.402 14.9101V13.1831L16.5369 13.0318L16.9237 13.4858ZM18.4977 10.8152H17.0586L16.7978 10.5125L17.0586 10.2188H18.4977L18.7585 10.5125L18.4977 10.8152ZM18.7585 15.3285L18.4977 15.6222H17.0586L16.7978 15.3285L17.0586 15.0258H18.4977L18.7585 15.3285ZM18.6236 12.3908V10.8508L18.8215 10.6282L19.1542 11.0021V12.7291L19.0193 12.8804L18.6236 12.3908ZM19.0193 12.9962L19.1542 13.1475V14.8745L18.8215 15.2484L18.6236 15.0258V13.4858L19.0193 12.9962Z" fill="#707D9B"/>
<path d="M20.1975 11.0021V12.4264L19.8018 12.8804L19.6758 12.7291V10.7796L20.1975 11.0021ZM20.1975 13.4858V15.0614L19.9996 15.6578C19.9145 15.634 19.8383 15.5858 19.7807 15.5193C19.7231 15.4528 19.6867 15.3709 19.6758 15.284V13.1831L19.8018 13.0318L20.1975 13.4858ZM21.7625 10.8152H20.2065L19.6758 10.5926C19.6861 10.5041 19.7235 10.4209 19.783 10.354C19.8425 10.2872 19.9212 10.24 20.0086 10.2188H21.9604L21.7625 10.8152ZM21.8974 12.5956L22.1583 12.8982L21.8974 13.192H20.1975L19.9367 12.8982L20.1975 12.5956H21.8974ZM20.3324 13.3789H20.7192L22.4191 15.3374C22.3744 15.4344 22.2999 15.515 22.2062 15.5677C22.1126 15.6204 22.0045 15.6426 21.8974 15.6311L20.3324 13.8508V13.3789ZM21.8974 12.3997V10.8508L22.0953 10.2544C22.1805 10.2782 22.2566 10.3264 22.3142 10.3929C22.3718 10.4595 22.4083 10.5413 22.4191 10.6282V12.7291L22.2932 12.8804L21.8974 12.3997Z" fill="#707D9B"/>
<path d="M23.4716 11.0023V12.4266L23.0758 12.8806L22.9409 12.7293V10.7798L23.4716 11.0023ZM22.9409 15.1595V13.1833L23.0758 13.032L23.4716 13.486V14.9103L22.9409 15.1595ZM25.4323 15.6847H23.2737C23.1863 15.6635 23.1076 15.6163 23.0481 15.5495C22.9886 15.4826 22.9512 15.3994 22.9409 15.3109L23.4716 15.0883H25.2704L25.4323 15.6847ZM25.2345 10.8777H23.4356L22.9139 10.6551C22.9242 10.5666 22.9616 10.4834 23.0211 10.4165C23.0806 10.3497 23.1593 10.3025 23.2467 10.2812H25.3964L25.2345 10.8777ZM25.1715 12.6581L25.4323 12.9607L25.1715 13.2545H23.4716L23.2108 12.9607L23.4716 12.6581H25.1715Z" fill="#707D9B"/>
<path d="M40.4168 10.8464L39.8861 10.6239C39.8964 10.5354 39.9338 10.4521 39.9933 10.3853C40.0527 10.3184 40.1315 10.2712 40.2189 10.25H42.3056C42.3907 10.2739 42.4669 10.3221 42.5245 10.3886C42.5821 10.4551 42.6185 10.5369 42.6294 10.6239L42.1077 10.8464H40.4168ZM40.9924 12.5734V10.9978H41.5141V12.5734L41.2532 12.8761L40.9924 12.5734ZM41.2532 13.0274L41.5141 13.3301V15.2796C41.5057 15.3674 41.47 15.4504 41.4121 15.5174C41.3541 15.5843 41.2766 15.6318 41.1903 15.6535L40.9924 15.0571V13.3746L41.2532 13.0274Z" fill="#707D9B"/>
<path d="M43.6815 11.0021V12.4264L43.2858 12.8804L43.1509 12.7291V10.7796L43.6815 11.0021ZM43.6815 13.4858V15.0614L43.4837 15.6578C43.3963 15.6366 43.3175 15.5894 43.258 15.5226C43.1985 15.4557 43.1611 15.3725 43.1509 15.284V13.1831L43.2858 13.0318L43.6815 13.4858ZM45.2465 10.8152H43.6815L43.1599 10.5926C43.1707 10.5057 43.2072 10.4238 43.2648 10.3573C43.3224 10.2908 43.3985 10.2426 43.4837 10.2188H45.4444L45.2465 10.8152ZM45.3815 12.5956L45.6423 12.8982L45.3815 13.192H43.6815L43.4117 12.8982L43.6815 12.5956H45.3815ZM43.8075 13.3789H44.2032L45.9031 15.3374C45.8584 15.4344 45.7839 15.515 45.6903 15.5677C45.5966 15.6204 45.4886 15.6426 45.3815 15.6311L43.8075 13.8508V13.3789ZM45.3815 12.3997V10.8508L45.5703 10.2544C45.6577 10.2756 45.7365 10.3228 45.796 10.3896C45.8555 10.4565 45.8929 10.5397 45.9031 10.6282V12.7291L45.7682 12.8804L45.3815 12.3997Z" fill="#707D9B"/>
<path d="M46.9823 11.0023V12.4266L46.5866 12.8806L46.4607 12.7293V10.7798L46.9823 11.0023ZM46.4247 15.1595V13.1833L46.5506 13.032L46.9463 13.486V14.9103L46.4247 15.1595ZM48.9071 15.6847H46.7485C46.6633 15.6609 46.5872 15.6127 46.5296 15.5462C46.472 15.4796 46.4355 15.3978 46.4247 15.3109L46.9463 15.0883H48.7452L48.9071 15.6847ZM48.7092 10.8777H46.9823L46.4607 10.6551C46.4691 10.5674 46.5047 10.4843 46.5627 10.4174C46.6206 10.3504 46.6981 10.3029 46.7845 10.2812H48.9341L48.7092 10.8777ZM48.6463 12.6581L48.9071 12.9607L48.6463 13.2545H46.9823L46.7215 12.9607L46.9823 12.6581H48.6463Z" fill="#707D9B"/>
<path d="M49.8245 12.9553L49.6806 12.804V10.7031C49.6925 10.6166 49.7294 10.5352 49.7869 10.4689C49.8443 10.4026 49.9198 10.3541 50.0044 10.3292L50.2023 10.9345V12.4835L49.8245 12.9553ZM50.2203 13.4805V15.0562L50.0224 15.6526C49.9361 15.6309 49.8586 15.5834 49.8006 15.5165C49.7427 15.4495 49.707 15.3665 49.6986 15.2787V13.1778L49.8245 13.0265L50.2203 13.4805ZM51.7853 12.4835H51.3266L50.3462 11.3529V10.9078H50.742L51.7853 12.1096V12.4835ZM51.9202 12.4835V10.9256L52.1181 10.3203C52.2021 10.3462 52.2771 10.395 52.3344 10.4611C52.3916 10.5272 52.4289 10.608 52.4419 10.6942V12.804L52.307 12.9553L51.9202 12.4835ZM52.307 13.0087L52.4419 13.16V15.2609C52.4311 15.3478 52.3946 15.4297 52.337 15.4962C52.2794 15.5627 52.2032 15.6109 52.1181 15.6348L51.9202 15.0384V13.4805L52.307 13.0087Z" fill="#707D9B"/>
<path d="M55.0771 10.8464H53.4852L52.9635 10.6239V10.25H55.0771L55.338 10.5438L55.0771 10.8464ZM53.5032 10.9978V12.4221L53.1164 12.8761L52.9815 12.7247V10.7752L53.5032 10.9978ZM52.9635 15.155V13.1787L53.0984 13.0274L53.4852 13.4814V14.9057L52.9635 15.155ZM55.311 15.3864L55.0502 15.6802H52.9635V15.3063L53.4852 15.0838H55.0771L55.311 15.3864ZM55.1851 12.4488V10.8464L55.383 10.6239L55.7157 10.9978V12.7247L55.5808 12.8761L55.1851 12.4488ZM55.5808 13.0541L55.7157 13.2055V14.9324L55.383 15.3063L55.1851 15.0838V13.4814L55.5808 13.0541Z" fill="#707D9B"/>
</svg>
