<svg width="110" height="35" viewBox="0 0 110 35" fill="none" xmlns="http://www.w3.org/2000/svg">
<path d="M24.5086 34.9491H10.041C8.59873 34.9468 7.21618 34.3751 6.19632 33.3593C5.17645 32.3435 4.60246 30.9665 4.6001 29.53L4.6001 5.41916C4.6001 3.98191 5.17334 2.60352 6.19371 1.58723C7.21409 0.570945 8.59801 0 10.041 0L24.5086 0C25.2231 0 25.9306 0.140171 26.5907 0.412509C27.2509 0.684847 27.8507 1.08402 28.3559 1.58723C28.8611 2.09045 29.2619 2.68785 29.5354 3.34533C29.8088 4.00282 29.9495 4.7075 29.9495 5.41916V29.53C29.9472 30.9665 29.3732 32.3435 28.3533 33.3593C27.3334 34.3751 25.9509 34.9468 24.5086 34.9491ZM10.041 1.77677C9.07186 1.77912 8.14305 2.16362 7.45773 2.84619C6.77242 3.52876 6.38637 4.45386 6.38401 5.41916V29.53C6.38637 30.4953 6.77242 31.4203 7.45773 32.1029C8.14305 32.7855 9.07186 33.17 10.041 33.1723H24.5086C25.4778 33.17 26.4066 32.7855 27.0919 32.1029C27.7772 31.4203 28.1633 30.4953 28.1656 29.53V5.41916C28.1633 4.45386 27.7772 3.52876 27.0919 2.84619C26.4066 2.16362 25.4778 1.77912 24.5086 1.77677H10.041Z" fill="#707D9B"/>
<path d="M32.8126 15.1671V7.22489H34.2219V8.23765C34.4426 7.89036 34.7483 7.60462 35.1102 7.40727C35.4722 7.20991 35.8786 7.10742 36.2913 7.1094C36.6693 7.11097 37.0429 7.19075 37.3884 7.34368C37.7339 7.49661 38.0437 7.71935 38.2982 7.99779C38.5893 8.30905 38.8144 8.67562 38.96 9.07556C39.1056 9.47549 39.1687 9.90057 39.1455 10.3254C39.1678 10.7474 39.1043 11.1695 38.9586 11.5664C38.813 11.9634 38.5884 12.3269 38.2982 12.6352C38.0458 12.9162 37.7364 13.1407 37.3904 13.2939C37.0445 13.447 36.6698 13.5253 36.2913 13.5236C35.8852 13.5275 35.4843 13.4324 35.1236 13.2466C34.7629 13.0608 34.4533 12.7899 34.2219 12.4575V15.247L32.8126 15.1671ZM35.9702 12.2354C36.2052 12.24 36.4385 12.1939 36.654 12.1004C36.8695 12.0068 37.0622 11.868 37.2189 11.6935C37.5656 11.2994 37.7448 10.7865 37.7184 10.2632C37.7303 9.75658 37.5486 9.2644 37.21 8.88618C37.055 8.71183 36.8639 8.57308 36.6499 8.47951C36.4358 8.38595 36.2039 8.3398 35.9702 8.34426C35.7334 8.34242 35.4989 8.39055 35.2821 8.48549C35.0653 8.58042 34.8712 8.72001 34.7125 8.89506C34.5346 9.08546 34.3965 9.30917 34.3062 9.55318C34.2158 9.79719 34.1751 10.0566 34.1862 10.3165C34.1755 10.5736 34.2165 10.8302 34.3068 11.0713C34.3972 11.3124 34.5352 11.533 34.7125 11.7201C34.8744 11.8887 35.0699 12.0217 35.2865 12.1104C35.5031 12.1992 35.736 12.2418 35.9702 12.2354Z" fill="#707D9B"/>
<path d="M43.4985 13.459C43.0717 13.4748 42.6461 13.4042 42.2475 13.2515C41.8489 13.0988 41.4855 12.8672 41.1794 12.5706C40.884 12.275 40.6525 11.9223 40.4991 11.5342C40.3457 11.1462 40.2737 10.7309 40.2874 10.3141C40.2654 9.88777 40.3325 9.46155 40.4845 9.06241C40.6366 8.66328 40.8701 8.29994 41.1705 7.99541C41.7977 7.39911 42.6314 7.06641 43.4985 7.06641C44.3656 7.06641 45.1993 7.39911 45.8265 7.99541C46.1217 8.29297 46.3531 8.64727 46.5064 9.03673C46.6597 9.4262 46.7319 9.84267 46.7185 10.2608C46.7257 10.6802 46.6454 11.0966 46.4826 11.4835C46.3199 11.8704 46.0782 12.2194 45.773 12.5084C45.477 12.8104 45.1232 13.0501 44.7325 13.2134C44.3418 13.3766 43.9222 13.4602 43.4985 13.459ZM43.4985 12.2419C43.7513 12.2527 44.0033 12.2073 44.2363 12.1089C44.4693 12.0106 44.6773 11.8618 44.8453 11.6733C45.1882 11.2906 45.3702 10.7912 45.3538 10.2786C45.3663 9.7643 45.1739 9.266 44.8186 8.89268C44.649 8.708 44.4421 8.56109 44.2116 8.46158C43.981 8.36207 43.7319 8.31219 43.4807 8.31523C43.2293 8.30513 42.9787 8.35092 42.7473 8.44927C42.5159 8.54761 42.3094 8.69604 42.1427 8.88379C41.8006 9.267 41.6187 9.76603 41.6343 10.2786C41.6237 10.7925 41.8158 11.2901 42.1695 11.6644C42.3366 11.8545 42.5443 12.005 42.7773 12.1049C43.0104 12.2048 43.2628 12.2516 43.5163 12.2419H43.4985Z" fill="#707D9B"/>
<path d="M48.2079 13.3258V7.22258H49.6083V8.5907C49.7468 8.13505 50.0369 7.73991 50.4308 7.47027C50.8247 7.20063 51.299 7.07255 51.7758 7.10709V8.58181H51.6955C51.4124 8.5686 51.1299 8.61745 50.8679 8.7249C50.6059 8.83236 50.3708 8.9958 50.1792 9.20368C49.7688 9.70199 49.5646 10.3374 49.6083 10.9805V13.3258H48.2079Z" fill="#707D9B"/>
<path d="M55.0493 13.423C54.8071 13.457 54.5602 13.4345 54.3281 13.3573C54.0961 13.28 53.8853 13.1501 53.7123 12.9778C53.5393 12.8055 53.4089 12.5955 53.3313 12.3644C53.2538 12.1333 53.2312 11.8875 53.2654 11.6462V8.42134H52.4894V7.22202H53.2654V5.54297H54.6658V7.22202H56.3337V8.42134H54.6836V11.4152C54.6686 11.5178 54.6779 11.6225 54.7107 11.7209C54.7435 11.8193 54.799 11.9088 54.8726 11.9821C54.9462 12.0554 55.036 12.1106 55.1348 12.1433C55.2336 12.176 55.3387 12.1852 55.4418 12.1703C55.7516 12.1779 56.0583 12.1076 56.3337 11.966V13.112C55.9404 13.3263 55.4974 13.4335 55.0493 13.423Z" fill="#707D9B"/>
<path d="M59.848 13.4347C58.9051 13.45 57.9866 13.1357 57.2524 12.5463L57.8768 11.6046C58.4441 12.0681 59.1501 12.3306 59.8837 12.3509C60.1288 12.3684 60.373 12.306 60.5794 12.1732C60.6603 12.1185 60.7258 12.044 60.7695 11.9569C60.8132 11.8698 60.8338 11.773 60.8291 11.6757C60.8325 11.5749 60.8044 11.4756 60.7489 11.3914C60.6646 11.2909 60.5576 11.2117 60.4367 11.1604L60.062 11.0094L59.5715 10.8673H59.4644L58.9114 10.6896C58.7568 10.6244 58.5873 10.5445 58.403 10.4497C58.2397 10.3613 58.0896 10.2507 57.957 10.121C57.8327 9.98522 57.7331 9.8289 57.6627 9.65905C57.5343 9.31804 57.5142 8.94597 57.6051 8.5932C57.696 8.24044 57.8936 7.92404 58.1711 7.68683C58.6047 7.31355 59.1589 7.10852 59.732 7.10938C60.5339 7.11153 61.3168 7.35288 61.9798 7.80232L61.4267 8.79731C60.9142 8.45005 60.3155 8.25025 59.6963 8.21986C59.4723 8.20427 59.2494 8.26367 59.0631 8.38865C58.9916 8.4424 58.9341 8.51236 58.8953 8.59271C58.8566 8.67307 58.8376 8.76149 58.8401 8.85061C58.8428 8.92219 58.8619 8.99221 58.8959 9.05533C58.9299 9.11845 58.9779 9.17301 59.0363 9.21485C59.1599 9.31305 59.2984 9.39101 59.4466 9.44583L60.0977 9.67681H60.1602H60.2137C60.4902 9.76565 60.7132 9.84561 60.9005 9.92556C61.1057 10.0217 61.3027 10.1346 61.4892 10.2631C61.6857 10.3885 61.8457 10.5631 61.953 10.7695C62.0663 10.9893 62.1245 11.2332 62.1225 11.4802C62.1388 11.7512 62.0889 12.0221 61.977 12.2697C61.8651 12.5172 61.6947 12.7341 61.4803 12.9017C61.0127 13.2587 60.437 13.4467 59.848 13.4347Z" fill="#707D9B"/>
<path d="M32.8126 27.5381V21.4349H34.2219V22.3233C34.4264 22.0167 34.7033 21.7649 35.0283 21.5898C35.3534 21.4148 35.7166 21.3219 36.0861 21.3194C36.4563 21.3058 36.8224 21.4004 37.1393 21.5914C37.4563 21.7823 37.7103 22.0614 37.87 22.3943C38.1074 22.0568 38.4243 21.7824 38.7928 21.595C39.1613 21.4076 39.5703 21.313 39.984 21.3194C40.2758 21.3037 40.5676 21.3502 40.8399 21.4559C41.1121 21.5617 41.3586 21.7241 41.5627 21.9324C41.9625 22.4152 42.1634 23.0312 42.1247 23.6558V27.5381H40.7243V24.0734C40.7502 23.6773 40.6367 23.2846 40.4032 22.9629C40.2907 22.8393 40.1528 22.7412 39.9989 22.6753C39.845 22.6093 39.6787 22.5772 39.5112 22.5809C39.3325 22.5739 39.1543 22.6061 38.9894 22.6751C38.8245 22.7442 38.6768 22.8485 38.5568 22.9807C38.3012 23.2961 38.1739 23.6956 38.2 24.1V27.5381H36.7729V24.0556C36.7991 23.6636 36.6818 23.2755 36.4429 22.9629C36.3336 22.8347 36.1966 22.733 36.0421 22.6653C35.8875 22.5975 35.7196 22.5657 35.5509 22.572C35.3705 22.5653 35.1909 22.5994 35.0256 22.6717C34.8603 22.744 34.7136 22.8527 34.5965 22.9896C34.3423 23.3022 34.215 23.6985 34.2398 24.1V27.5381H32.8126Z" fill="#707D9B"/>
<path d="M48.9662 27.54H47.5747V26.7937C47.3349 27.0828 47.0316 27.3132 46.6883 27.4672C46.3451 27.6212 45.9709 27.6947 45.5946 27.6821C45.035 27.7003 44.4865 27.5245 44.0426 27.1846C43.8356 27.0155 43.6713 26.8005 43.5629 26.5567C43.4544 26.313 43.4049 26.0473 43.4182 25.781C43.4027 25.4963 43.4562 25.2121 43.5742 24.9523C43.6922 24.6925 43.8712 24.4648 44.0961 24.2885C44.6207 23.9332 45.2462 23.7556 45.88 23.7821C46.4549 23.7803 47.0266 23.8672 47.5747 24.0397V23.8976C47.5856 23.716 47.5561 23.5342 47.4883 23.3653C47.4204 23.1963 47.3159 23.0444 47.1823 22.9204C46.8622 22.6812 46.4665 22.5645 46.0673 22.5917C45.4528 22.5965 44.8457 22.7265 44.2834 22.9737L43.8999 21.8454C44.6461 21.5005 45.4588 21.3217 46.2814 21.3213C46.6444 21.2919 47.0097 21.3366 47.3548 21.4527C47.6999 21.5688 48.0175 21.7538 48.2883 21.9965C48.5261 22.2502 48.709 22.5498 48.8256 22.8769C48.9422 23.2039 48.9901 23.5514 48.9662 23.8976V27.54ZM47.6104 25.3368V24.9903C47.163 24.8222 46.6882 24.7378 46.21 24.7416C45.8471 24.7231 45.4869 24.8128 45.1754 24.9992C45.0565 25.0768 44.9602 25.1841 44.896 25.3103C44.8318 25.4366 44.802 25.5775 44.8097 25.7188C44.8047 25.8472 44.8324 25.9747 44.8901 26.0896C44.9478 26.2045 45.0336 26.3031 45.1397 26.3762C45.3894 26.5437 45.6862 26.6277 45.9871 26.6161C46.4064 26.6383 46.8202 26.5124 47.1555 26.2607C47.3007 26.1528 47.4178 26.0118 47.4969 25.8494C47.5761 25.6871 47.615 25.5083 47.6104 25.3279V25.3368Z" fill="#707D9B"/>
<path d="M50.6341 27.5406V21.4374H52.0434V22.8055C52.1818 22.3499 52.4719 21.9548 52.8658 21.6851C53.2598 21.4155 53.7341 21.2874 54.2108 21.3219V22.7967H54.1305C53.8462 22.784 53.5626 22.833 53.2992 22.9404C53.0358 23.0478 52.799 23.2109 52.6053 23.4185C52.2013 23.9198 52.0007 24.5539 52.0434 25.1953V27.5406H50.6341Z" fill="#707D9B"/>
<path d="M57.4754 27.6378C57.2328 27.6738 56.9852 27.6526 56.7522 27.5761C56.5193 27.4995 56.3076 27.3696 56.1342 27.1969C55.9608 27.0241 55.8304 26.8133 55.7535 26.5813C55.6766 26.3494 55.6554 26.1027 55.6915 25.861V22.6362H54.9155V21.4369H55.6915V19.7578H57.0919V21.4369H58.742V22.6362H57.1187V25.63C57.1037 25.7327 57.113 25.8374 57.1458 25.9358C57.1786 26.0342 57.234 26.1236 57.3077 26.1969C57.3813 26.2703 57.4711 26.3255 57.5699 26.3581C57.6687 26.3908 57.7738 26.4001 57.8768 26.3852C58.1867 26.3927 58.4934 26.3224 58.7688 26.1808V27.3269C58.3727 27.5422 57.9265 27.6495 57.4754 27.6378Z" fill="#707D9B"/>
<path d="M63.8261 27.5372V19.4529H67.4653C67.8495 19.4249 68.2355 19.4742 68.6002 19.5979C68.9648 19.7215 69.3008 19.9169 69.5882 20.1725C69.7661 20.3509 69.9061 20.5632 69.9996 20.7968C70.0931 21.0304 70.1382 21.2804 70.1322 21.5318C70.1332 21.9081 70.024 22.2766 69.8181 22.5921C69.6122 22.9077 69.3184 23.1566 68.9727 23.3085C69.4362 23.3997 69.853 23.6494 70.1511 24.0145C70.4492 24.3795 70.6098 24.8369 70.605 25.3074C70.6204 25.6274 70.5541 25.946 70.4121 26.2335C70.2701 26.5209 70.0572 26.7678 69.7933 26.9509C69.1434 27.3662 68.3791 27.5682 67.608 27.5284L63.8261 27.5372ZM65.2532 22.8555H67.1977C67.5924 22.8745 67.9838 22.7755 68.3216 22.5712C68.4548 22.4774 68.5622 22.3518 68.6339 22.2059C68.7056 22.0599 68.7393 21.8984 68.7319 21.7361C68.7385 21.5877 68.7077 21.44 68.6423 21.3065C68.5768 21.1731 68.4788 21.0581 68.3573 20.9721C68.0428 20.7764 67.6749 20.6833 67.3047 20.7056H65.2532V22.8555ZM65.2532 26.2669H67.6169C68.0208 26.2937 68.4231 26.1943 68.7676 25.9826C68.9038 25.889 69.0137 25.7624 69.0871 25.6148C69.1605 25.4671 69.1948 25.3032 69.1868 25.1386C69.1868 24.419 68.6248 24.0548 67.5099 24.0548H65.2532V26.2669Z" fill="#707D9B"/>
<path d="M74.833 27.673C74.419 27.6826 74.0073 27.6088 73.6226 27.4562C73.2379 27.3035 72.8881 27.0751 72.5941 26.7846C72.2958 26.482 72.0627 26.1217 71.9093 25.726C71.7559 25.3303 71.6854 24.9075 71.7022 24.4837C71.6962 23.6451 72.0158 22.8366 72.5941 22.2272C72.8672 21.9338 73.2006 21.7026 73.5716 21.5493C73.9426 21.3959 74.3424 21.3242 74.7438 21.3388C75.1373 21.3206 75.5301 21.3892 75.894 21.5397C76.2579 21.6902 76.5839 21.9189 76.8488 22.2094C77.3774 22.8749 77.6495 23.7068 77.6159 24.5548C77.6266 24.6848 77.6266 24.8156 77.6159 24.9456H73.1561C73.2117 25.3839 73.4238 25.7875 73.7537 26.0828C74.0779 26.3602 74.495 26.506 74.9221 26.4914C75.5297 26.4665 76.103 26.2049 76.5188 25.763L77.3394 26.4914C77.0431 26.8695 76.6621 27.1732 76.2269 27.3784C75.7917 27.5835 75.3143 27.6844 74.833 27.673ZM73.049 24.0573H76.1976C76.1628 23.6315 75.9943 23.2274 75.716 22.9024C75.5811 22.7518 75.4143 22.633 75.2276 22.5546C75.041 22.4763 74.8391 22.4403 74.6367 22.4493C74.4385 22.4458 74.2418 22.4836 74.059 22.56C73.8763 22.6365 73.7115 22.7501 73.5753 22.8935C73.291 23.2191 73.119 23.627 73.0847 24.0573H73.049Z" fill="#707D9B"/>
<path d="M81.0854 27.6378C80.8428 27.6738 80.5951 27.6526 80.3622 27.5761C80.1293 27.4995 79.9176 27.3696 79.7442 27.1969C79.5707 27.0241 79.4403 26.8133 79.3635 26.5813C79.2866 26.3494 79.2654 26.1027 79.3015 25.861V22.6362H78.5255V21.4369H79.3015V19.7578H80.7019V21.4369H82.3787V22.6362H80.7286V25.63C80.7137 25.7327 80.7229 25.8374 80.7558 25.9358C80.7886 26.0342 80.844 26.1236 80.9176 26.1969C80.9912 26.2703 81.081 26.3255 81.1798 26.3581C81.2786 26.3908 81.3837 26.4001 81.4868 26.3852C81.7965 26.3916 82.103 26.3214 82.3787 26.1808V27.3269C81.9822 27.5411 81.5364 27.6482 81.0854 27.6378Z" fill="#707D9B"/>
<path d="M85.8396 27.6378C85.597 27.6738 85.3493 27.6526 85.1164 27.5761C84.8835 27.4995 84.6718 27.3696 84.4984 27.1969C84.3249 27.0241 84.1945 26.8133 84.1177 26.5813C84.0408 26.3494 84.0196 26.1027 84.0557 25.861V22.6362H83.2797V21.4369H84.0557V19.7578H85.456V21.4369H87.1062V22.6362H85.4828V25.63C85.4682 25.7318 85.4774 25.8356 85.5097 25.9332C85.542 26.0309 85.5966 26.1198 85.6692 26.1929C85.7418 26.266 85.8303 26.3214 85.928 26.3548C86.0256 26.3882 86.1297 26.3986 86.232 26.3852C86.5417 26.3912 86.8481 26.321 87.124 26.1808V27.3269C86.7301 27.5396 86.2875 27.6467 85.8396 27.6378Z" fill="#707D9B"/>
<path d="M88.569 20.4956V19.1719H90.0764V20.4956H88.569ZM88.6225 27.5405V21.4373H90.0318V27.5405H88.6225Z" fill="#707D9B"/>
<path d="M91.8605 27.5381V21.4349H93.2608V22.3766C93.4627 22.0514 93.7451 21.7834 94.0809 21.5983C94.4167 21.4131 94.7947 21.3171 95.1785 21.3194C95.4754 21.3033 95.7723 21.3522 96.0481 21.4627C96.324 21.5732 96.5721 21.7427 96.7751 21.959C97.1778 22.4342 97.385 23.0436 97.3549 23.6647V27.5381H95.9545V24.0734C95.9813 23.6758 95.8571 23.2826 95.6067 22.9718C95.4856 22.8391 95.3363 22.7351 95.1696 22.6674C95.0029 22.5998 94.823 22.5702 94.6434 22.5809C94.4574 22.5756 94.2724 22.6092 94.1003 22.6796C93.9282 22.75 93.7729 22.8556 93.6444 22.9896C93.374 23.2946 93.236 23.6939 93.2608 24.1001V27.5381H91.8605Z" fill="#707D9B"/>
<path d="M101.77 29.4047C100.81 29.417 99.8656 29.1649 99.0405 28.6762L99.5579 27.619C100.209 28.0392 100.967 28.2643 101.743 28.2676C102.267 28.3016 102.782 28.1293 103.179 27.7878C103.353 27.6033 103.488 27.385 103.574 27.1466C103.659 26.9082 103.695 26.6547 103.679 26.402V25.9222C103.434 26.2671 103.111 26.5492 102.736 26.7454C102.361 26.9415 101.944 27.0461 101.52 27.0505C101.157 27.0545 100.796 26.9867 100.46 26.8509C100.123 26.7152 99.8162 26.5143 99.5579 26.2598C99.2827 25.9879 99.0675 25.6618 98.9262 25.3023C98.7849 24.9428 98.7205 24.5578 98.7373 24.1721C98.7253 23.8011 98.7885 23.4315 98.9231 23.0854C99.0577 22.7393 99.2609 22.4237 99.5206 22.1576C99.7804 21.8914 100.091 21.6801 100.435 21.5363C100.778 21.3924 101.148 21.319 101.52 21.3204C101.933 21.3173 102.342 21.4095 102.713 21.5898C103.084 21.7702 103.409 22.0337 103.661 22.3598V21.4714H105.07V26.322C105.101 26.7363 105.048 27.1526 104.915 27.5463C104.782 27.9399 104.571 28.303 104.294 28.614C103.947 28.906 103.545 29.1262 103.112 29.262C102.678 29.3977 102.222 29.4462 101.77 29.4047ZM101.886 25.8512C102.357 25.861 102.814 25.6891 103.161 25.3714C103.327 25.2146 103.459 25.0258 103.549 24.8166C103.639 24.6073 103.686 24.382 103.686 24.1543C103.686 23.9267 103.639 23.7013 103.549 23.4921C103.459 23.2829 103.327 23.0941 103.161 22.9373C102.811 22.6259 102.355 22.4577 101.886 22.4664C101.427 22.4587 100.983 22.6274 100.646 22.9373C100.481 23.095 100.351 23.2857 100.265 23.497C100.179 23.7083 100.138 23.9353 100.147 24.1632C100.14 24.3904 100.181 24.6165 100.269 24.8264C100.357 25.0362 100.488 25.2251 100.655 25.3803C100.987 25.6945 101.428 25.8695 101.886 25.8689V25.8512Z" fill="#707D9B"/>
<path d="M14.0015 21.5808C14.3493 23.3575 15.6248 24.1482 17.5693 24.1482C19.4157 24.1482 20.2452 23.5086 20.2452 22.3003C20.2452 20.9322 19.3532 20.417 16.0173 19.6352C9.95199 18.1427 8.69433 15.904 8.69433 13.1056C8.69433 9.6142 11.2721 6.69141 17.0787 6.69141C23.1262 6.69141 25.588 9.73857 25.8824 13.0256H19.9687C19.8081 11.9062 19.2373 10.7691 17.0698 10.7691C15.6605 10.7691 14.8042 11.2932 14.8042 12.4215C14.8042 13.5497 15.5713 13.9851 18.7913 14.7757C25.2223 16.3748 26.5067 18.6846 26.5067 21.6429C26.5067 25.5518 23.4741 28.2614 17.3463 28.2614C11.5664 28.2614 8.50702 25.5963 8.05212 21.5808H14.0015Z" fill="#707D9B"/>
<path fill-rule="evenodd" clip-rule="evenodd" d="M10.7669 8.65573C9.41866 9.80405 8.78338 11.3817 8.78338 13.1045C8.78338 14.4889 9.09371 15.7227 10.1451 16.7971C11.2005 17.8756 13.012 18.8031 16.0381 19.5478C17.7038 19.9382 18.775 20.2651 19.4293 20.6715C19.759 20.8763 19.9873 21.1039 20.1322 21.3738C20.2769 21.6434 20.3342 21.9478 20.3342 22.2993C20.3342 22.9262 20.1174 23.4179 19.6512 23.7487C19.1909 24.0753 18.4998 24.236 17.5692 24.236C16.5858 24.236 15.7609 24.0362 15.1356 23.6027C14.5249 23.1792 14.1137 22.5392 13.9285 21.6686H8.15237C8.39469 23.6109 9.2589 25.2224 10.7562 26.3552C12.2803 27.5082 14.4692 28.1716 17.3462 28.1716C20.3983 28.1716 22.6667 27.4966 24.1699 26.3466C25.6703 25.1988 26.4174 23.5712 26.4174 21.6419C26.4174 20.1772 26.1001 18.8858 24.9967 17.7607C23.8889 16.6311 21.9792 15.659 18.7696 14.8609C17.162 14.4662 16.1522 14.1571 15.5449 13.8007C15.2389 13.6212 15.0291 13.4264 14.8969 13.1974C14.7646 12.9681 14.7149 12.7127 14.7149 12.4205C14.7149 11.8307 14.9406 11.3889 15.3572 11.0984C15.7687 10.8115 16.3563 10.6793 17.0697 10.6793C18.1691 10.6793 18.879 10.968 19.3342 11.4132C19.7676 11.8371 19.958 12.3913 20.0453 12.9358H25.7841C25.6207 11.347 24.9404 9.82543 23.5806 8.69302C22.1927 7.5372 20.0876 6.77924 17.0786 6.77924C14.1895 6.77924 12.1164 7.50631 10.7669 8.65573ZM10.6509 8.5207C12.042 7.33589 14.161 6.60156 17.0786 6.60156C20.117 6.60156 22.2666 7.36719 23.695 8.55671C25.124 9.74667 25.8221 11.3533 25.9711 13.0167L25.9797 13.1134H19.8912L19.8802 13.0372C19.8012 12.4865 19.623 11.9447 19.2092 11.54C18.7969 11.1367 18.1377 10.8569 17.0697 10.8569C16.3738 10.8569 15.8285 10.9867 15.4595 11.244C15.0957 11.4976 14.8933 11.8821 14.8933 12.4205C14.8933 12.6924 14.9395 12.9145 15.0516 13.1089C15.1639 13.3035 15.3471 13.4785 15.6354 13.6477C16.2165 13.9886 17.2002 14.2926 18.8125 14.6885C22.0338 15.4895 23.9821 16.4719 25.1243 17.6365C26.2708 18.8057 26.5958 20.1484 26.5958 21.6419C26.5958 23.6216 25.8266 25.3032 24.2786 26.4875C22.7336 27.6694 20.4218 28.3493 17.3462 28.3493C14.4433 28.3493 12.2125 27.68 10.6483 26.4966C9.08241 25.312 8.19319 23.6187 7.96334 21.5897L7.95215 21.4909H14.0748L14.0889 21.5627C14.2591 22.4322 14.654 23.0523 15.2375 23.4569C15.823 23.8628 16.608 24.0583 17.5692 24.0583C18.4849 24.0583 19.1317 23.8992 19.5477 23.604C19.9579 23.3129 20.1558 22.8807 20.1558 22.2993C20.1558 21.9669 20.1017 21.6938 19.9749 21.4576C19.8482 21.2216 19.6452 21.015 19.3349 20.8223C18.7093 20.4337 17.6667 20.112 15.9967 19.7207L15.9958 19.7204C12.9569 18.9727 11.107 18.0346 10.0173 16.9211C8.92349 15.8033 8.60499 14.5186 8.60499 13.1045C8.60499 11.336 9.25858 9.70661 10.6509 8.5207Z" fill="#707D9B"/>
</svg>
