<svg width="298" height="35" viewBox="0 0 298 35" fill="none" xmlns="http://www.w3.org/2000/svg">
<path d="M264.574 34.6328C260.389 34.6328 256.204 34.6385 252.02 34.6293C250.76 34.6612 249.508 34.4307 248.353 33.9542C246.991 33.3586 245.877 32.3546 245.182 31.0981C244.486 29.8416 244.25 28.4031 244.508 27.0063C244.948 24.394 246.41 22.3646 248.447 20.6524C249.671 19.5696 251.057 18.6631 252.559 17.9619C252.933 17.798 252.89 17.6111 252.623 17.3841C251.868 16.7863 251.265 16.0344 250.862 15.185C249.967 13.1448 250.301 11.1631 251.22 9.22475C252.706 6.09384 255.247 3.93984 258.395 2.34148C260.814 1.10929 263.524 0.477349 266.272 0.504762C274.19 0.525683 282.109 0.511247 290.028 0.520767C291.647 0.46529 293.25 0.844302 294.651 1.614C297.602 3.34134 298.689 6.66006 297.359 9.84136C296.079 12.9032 293.782 15.1357 290.891 16.8789C290.579 17.0669 290.263 17.2489 289.945 17.4282C289.6 17.6224 289.567 17.8396 289.842 18.1239C290.14 18.4228 290.419 18.7373 290.678 19.0661C292.109 20.9326 292.122 22.963 291.411 25.062C290.709 26.9835 289.501 28.7042 287.901 30.0616C286.143 31.6818 284.043 32.9325 281.738 33.7318C280.111 34.316 278.387 34.6233 276.646 34.6396C272.622 34.6186 268.598 34.6329 264.574 34.6328ZM274.548 8.73682V8.7424C271.363 8.7424 268.178 8.72246 264.993 8.74983C264.05 8.76975 263.146 9.10484 262.44 9.69562C261.734 10.2864 261.272 11.0946 261.136 11.9768C261.076 12.3101 261.14 12.653 261.319 12.9457C261.498 13.2384 261.78 13.4622 262.116 13.5781C262.448 13.699 262.801 13.758 263.156 13.7514C269.494 13.7491 275.832 13.7583 282.17 13.7393C283.031 13.7318 283.865 13.449 284.535 12.9367C285.205 12.4245 285.672 11.7131 285.859 10.9181C285.973 10.5344 285.959 10.1272 285.821 9.75106C285.549 9.07356 284.972 8.73895 284.056 8.73804C280.887 8.73488 277.717 8.73448 274.548 8.73682ZM269.581 21.4929V21.5034C266.411 21.5034 263.24 21.4927 260.069 21.5075C259.215 21.4999 258.384 21.7664 257.711 22.2635C257.038 22.7605 256.564 23.4586 256.364 24.2438C256.03 25.4636 256.743 26.3972 258.082 26.4001C264.439 26.4136 270.797 26.4132 277.155 26.3987C278.018 26.4198 278.864 26.1684 279.559 25.6844C280.254 25.2003 280.759 24.5112 280.993 23.7257C281.393 22.5069 280.727 21.5864 279.383 21.5069C279.127 21.4918 278.869 21.4935 278.611 21.4934C275.601 21.4926 272.591 21.4925 269.581 21.4929Z" fill="white"/>
<path d="M167.698 34.6297C163.674 34.6297 159.649 34.6299 155.624 34.6302C154.09 34.6862 152.565 34.3787 151.187 33.7354C150.018 33.0995 149.069 32.1564 148.455 31.0205C147.841 29.8845 147.589 28.6046 147.729 27.3357C148.122 24.4688 149.739 22.2854 151.973 20.4492C153.105 19.4745 154.373 18.652 155.743 18.0048C156.183 17.8079 156.197 17.6033 155.769 17.2467C155.142 16.732 154.629 16.1044 154.26 15.4003C153.891 14.6964 153.675 13.93 153.622 13.146C153.555 11.8652 153.828 10.5889 154.414 9.43257C155.837 6.29263 158.3 4.08556 161.425 2.46514C164.024 1.12794 166.946 0.450383 169.904 0.498488C177.76 0.529209 185.616 0.495699 193.473 0.524745C195.718 0.533079 197.786 1.12289 199.355 2.74266C201.156 4.60139 201.643 6.78733 200.867 9.18332C199.936 12.0555 197.981 14.2298 195.467 15.9974C194.769 16.4883 194.03 16.9206 193.289 17.3494C192.754 17.6591 192.724 17.7796 193.174 18.207C194.038 18.9887 194.658 19.9805 194.967 21.0735C195.408 22.7284 195.095 24.3001 194.378 25.8204C192.939 28.8745 190.508 31.0378 187.46 32.6432C184.881 34.0179 181.958 34.7113 178.999 34.6508C175.233 34.5937 171.466 34.6372 167.698 34.6372V34.6297ZM175.987 13.7527V13.7448C179.14 13.7448 182.293 13.7671 185.445 13.7359C187.181 13.7186 188.387 12.8816 189.068 11.3813C189.798 9.7719 188.753 8.70161 187.203 8.71569C182.297 8.76033 177.391 8.72573 172.485 8.72479C171.102 8.72451 169.718 8.71405 168.335 8.74502C167.441 8.74914 166.575 9.04618 165.888 9.58556C165.199 10.1249 164.729 10.8732 164.558 11.7032C164.305 12.8163 164.939 13.6334 166.143 13.7315C166.431 13.755 166.721 13.7517 167.012 13.7518C170.004 13.7531 172.996 13.7534 175.987 13.7527ZM172.95 21.4899V21.4999C169.762 21.4999 166.574 21.4803 163.387 21.5074C162.549 21.4844 161.728 21.7366 161.063 22.221C160.398 22.7054 159.932 23.3923 159.742 24.1651C159.426 25.3603 159.941 26.1308 161.219 26.3485C161.521 26.3935 161.826 26.4134 162.131 26.4078C165.899 26.4116 169.666 26.4123 173.432 26.4101C175.782 26.4095 178.133 26.4267 180.484 26.3988C181.394 26.4024 182.279 26.1143 182.995 25.5815C183.709 25.0487 184.213 24.3026 184.423 23.4647C184.482 23.278 184.503 23.0818 184.482 22.8877C184.462 22.6936 184.4 22.5052 184.302 22.3337C184.203 22.1621 184.07 22.0107 183.91 21.8881C183.749 21.7656 183.564 21.6744 183.367 21.6198C182.948 21.5041 182.512 21.4605 182.078 21.4913C179.035 21.4885 175.992 21.488 172.95 21.4899Z" fill="white"/>
<path d="M65.7327 34.6453C60.3396 34.6453 54.9466 34.6452 49.5535 34.645C48.2846 34.645 48.1792 34.5118 48.5991 33.3915C49.3613 31.3582 50.1806 29.3441 50.8927 27.2936C51.1636 26.5137 51.6033 26.2385 52.5415 26.2365C54.6182 26.2321 56.6949 26.2448 58.7715 26.2452C66.6598 26.2465 74.5482 26.248 82.4365 26.2497C83.4801 26.2507 84.5236 26.3891 85.5664 26.2282C87.3894 25.9469 88.5868 24.9223 89.2507 23.3518C89.6447 22.42 89.0926 21.615 88.0585 21.4082C87.7257 21.3526 87.3877 21.3303 87.0499 21.3414C79.7413 21.338 72.4323 21.3543 65.1236 21.3188C63.3212 21.3101 61.516 21.1326 59.8535 20.3725C57.0902 19.1093 55.8359 16.8247 56.3847 13.9699C56.9401 11.0802 57.9238 8.3328 59.9499 6.04357C62.4962 3.08003 66.1327 1.13569 70.1308 0.600007C71.8222 0.391275 73.5278 0.301658 75.2332 0.331894C85.5202 0.327547 95.8072 0.329302 106.094 0.33716C107.288 0.337508 107.414 0.496095 107.019 1.55561C106.255 3.60469 105.486 5.65194 104.711 7.69737C104.429 8.44212 104.043 8.69967 103.195 8.73318C103.002 8.74077 102.809 8.73645 102.616 8.73667C92.055 8.73667 81.4943 8.73732 70.9335 8.73865C70.5475 8.72626 70.1609 8.74275 69.7775 8.78796C68.9281 8.91844 68.1471 9.30799 67.5535 9.89727C66.96 10.4865 66.5864 11.2431 66.4898 12.0517C66.3868 12.8835 66.771 13.3995 67.6364 13.5688C68.3002 13.6892 68.9754 13.7448 69.6512 13.7348C77.0727 13.7314 84.4942 13.7209 91.9155 13.7423C93.485 13.7486 95.0303 14.1093 96.4226 14.7943C98.8375 15.969 99.7788 18.2474 99.5582 20.5403C99.2879 23.6728 97.968 26.6421 95.7897 29.0159C92.8862 32.2075 89.2261 34.0906 84.7517 34.4804C83.293 34.6075 81.8304 34.6472 80.3659 34.6465C75.4882 34.644 70.6105 34.6436 65.7327 34.6453Z" fill="white"/>
<path d="M127.82 0.525252C133.502 0.525252 139.185 0.509247 144.867 0.534319C146.743 0.542582 148.546 0.871055 150.107 1.97112C152.264 3.49123 153.46 6.56694 152.441 9.09632C151.307 11.9142 149.317 14.3522 146.722 16.1032C146.098 16.5355 145.442 16.9201 144.78 17.2971C144.227 17.6122 144.214 17.714 144.675 18.1396C146.097 19.4556 146.86 21.0344 146.704 22.9266C146.536 24.9145 145.716 26.8032 144.359 28.3292C141.394 31.7451 137.635 33.8909 132.963 34.5182C132.438 34.5872 131.907 34.6212 131.376 34.62C120.156 34.6256 108.936 34.6271 97.7152 34.6241C96.3965 34.6241 96.3338 34.5395 96.7861 33.3608C97.5646 31.3326 98.3527 29.3076 99.1216 27.2763C99.2031 27.0032 99.3711 26.7607 99.6046 26.5823C99.8371 26.4038 100.123 26.2982 100.422 26.28C100.678 26.2557 100.936 26.2501 101.194 26.2501C111.399 26.2487 121.606 26.2488 131.813 26.2508C132.425 26.2786 133.036 26.1919 133.613 25.9957C134.239 25.766 134.788 25.3792 135.2 24.8765C135.612 24.3739 135.87 23.7746 135.949 23.1433C136.01 22.8016 135.941 22.4504 135.753 22.1526C135.565 21.8549 135.272 21.6301 134.925 21.5187C134.481 21.3788 134.015 21.3157 133.547 21.3321C126.239 21.3352 118.93 21.3358 111.622 21.3341C110.499 21.3341 110.44 21.244 110.832 20.2426C111.514 18.5044 112.195 16.7662 112.855 15.0208C113.259 13.9548 113.539 13.7469 114.759 13.7476C118.253 13.7498 121.746 13.7527 125.239 13.7563C128.975 13.7578 132.709 13.7578 136.443 13.756C136.942 13.7725 137.442 13.7357 137.932 13.6461C138.685 13.468 139.368 13.0857 139.895 12.546C140.422 12.0064 140.771 11.3329 140.899 10.6084C140.94 10.3823 140.928 10.1508 140.866 9.92931C140.803 9.70792 140.691 9.50175 140.537 9.32471C140.383 9.14774 140.191 9.00407 139.973 8.90342C139.755 8.80278 139.517 8.74749 139.275 8.74131C139.001 8.72488 138.727 8.72845 138.454 8.72845C128.248 8.72788 118.041 8.72769 107.835 8.72788C106.503 8.72788 106.439 8.63687 106.889 7.4767C107.663 5.47939 108.434 3.48083 109.201 1.48103C109.497 0.711944 109.789 0.512943 110.675 0.512769C116.39 0.511607 122.105 0.511409 127.82 0.512176V0.525252Z" fill="white"/>
<path d="M224.656 0.518049C230.305 0.518049 235.956 0.518316 241.606 0.51885C243.11 0.481381 244.6 0.799201 245.942 1.44356C248.175 2.57201 249.312 4.37337 249.427 6.75044C249.544 9.19829 248.333 11.1754 246.841 13.027C245.37 14.7672 243.556 16.219 241.497 17.3008C240.945 17.6086 240.924 17.7096 241.383 18.1385C242.567 19.1683 243.313 20.5708 243.482 22.0833C243.549 23.118 243.37 24.1539 242.957 25.1145C241.847 27.9994 239.78 30.1498 237.107 31.8196C234.87 33.2481 232.315 34.1674 229.638 34.5054C228.504 34.623 227.36 34.665 226.218 34.631C223.612 34.6014 221.005 34.5248 218.399 34.5663C210.417 34.6936 202.434 34.5824 194.451 34.6232C193.136 34.6299 193.073 34.55 193.508 33.4063C194.291 31.3476 195.087 29.2932 195.876 27.2364C195.955 26.9782 196.115 26.7488 196.334 26.5787C196.554 26.4085 196.823 26.3055 197.106 26.2835C197.363 26.2594 197.619 26.2483 197.877 26.25C208.163 26.2484 218.449 26.2511 228.735 26.2579C229.519 26.301 230.298 26.109 230.961 25.7093C231.623 25.3096 232.136 24.7226 232.425 24.0317C233.122 22.6145 232.556 21.5924 230.925 21.3643C230.686 21.338 230.444 21.3283 230.203 21.3352C222.895 21.3338 215.587 21.3333 208.279 21.3339C207.317 21.3339 207.206 21.1685 207.542 20.3078C208.237 18.5262 208.931 16.7437 209.608 14.9558C209.986 13.9577 210.269 13.7476 211.413 13.7479C217.9 13.7495 224.387 13.7522 230.875 13.756C231.841 13.7563 232.806 13.7671 233.772 13.7443C234.642 13.7405 235.486 13.4639 236.171 12.9578C236.856 12.4516 237.345 11.7447 237.559 10.9477C237.918 9.71879 237.194 8.7809 235.845 8.73306C235.621 8.72507 235.394 8.72807 235.17 8.72807C224.996 8.72786 214.823 8.72731 204.649 8.7264C204.376 8.73184 204.102 8.71902 203.831 8.68805C203.34 8.62179 203.24 8.48322 203.398 8.04295C203.644 7.35253 203.921 6.67132 204.187 5.98662C204.784 4.44592 205.382 2.90535 205.98 1.36493C206.246 0.679286 206.493 0.512888 207.27 0.512749C213.065 0.511633 218.86 0.511424 224.655 0.512121L224.656 0.518049Z" fill="white"/>
<path d="M38.4746 25.5173C34.8 25.3927 31.4038 25.4322 28.0095 25.4655C25.0973 25.494 22.1853 25.5168 19.2732 25.5124C18.0029 25.5106 16.7327 25.4655 15.4623 25.4545C14.5689 25.4467 14.3102 25.6333 14.0007 26.428C13.0625 28.8372 12.1226 31.2457 11.1812 33.6538C10.8414 34.5216 10.6293 34.655 9.65112 34.6551C6.8021 34.6554 3.95306 34.6554 1.10399 34.6551C0.975233 34.6551 0.846316 34.6572 0.717736 34.6523C0.0318634 34.6263 -0.131824 34.4299 0.0971312 33.8227C0.776774 32.0199 1.47584 30.2234 2.16684 28.4243C4.52493 22.2843 6.88272 16.1442 9.24023 10.004C10.2976 7.24769 11.3442 4.48754 12.402 1.73158C12.8209 0.63992 13.1291 0.442348 14.3649 0.442209C22.9121 0.441267 31.4594 0.404619 40.0062 0.461283C43.1113 0.481856 46.2171 0.455215 49.3221 0.514529C50.9213 0.539705 52.4658 1.06969 53.7099 2.02021C54.9541 2.97074 55.8266 4.28727 56.1886 5.76052C56.4497 6.98949 56.3483 8.26265 55.8957 9.44089C55.0925 11.798 54.1873 14.1226 53.2506 16.435C52.3186 18.7358 50.5982 20.465 48.6058 21.9815C46.218 23.8662 43.304 25.0563 40.216 25.4079C39.5462 25.48 38.8691 25.4936 38.4746 25.5173ZM28.4106 16.9335C31.6444 16.9335 34.8782 16.9345 38.112 16.9365C38.8542 16.9387 39.5876 16.7836 40.2581 16.4825C42.48 15.4997 43.5314 13.7221 43.9025 11.5434C44.1221 10.2534 43.5875 9.39503 42.4955 8.98663C41.9959 8.81359 41.466 8.73276 40.9341 8.74854C38.7944 8.75275 36.6546 8.75317 34.5149 8.74983C30.2675 8.74669 26.0203 8.74309 21.7729 8.73902C20.9506 8.73864 20.7478 8.85409 20.5084 9.46851C19.6366 11.7053 18.7687 13.9435 17.9044 16.1829C17.6603 16.8159 17.7525 16.9326 18.4679 16.9329C21.7822 16.9344 25.0964 16.9345 28.4106 16.9335Z" fill="white"/>
</svg>
