<svg width="117" height="25" viewBox="0 0 117 25" fill="none" xmlns="http://www.w3.org/2000/svg">
<g clip-path="url(#clip0_4788_111729)">
<path d="M20.5914 0.27773C9.71626 0.32653 0.944989 4.95897 0.977139 10.6607C0.990766 13.0759 2.59473 15.2862 5.30182 17.0558C3.99216 15.7159 3.24768 14.011 3.1966 12.2345C3.16322 6.33497 11.7566 1.50551 22.3664 1.45758C29.2185 1.42682 35.242 3.37962 38.6629 6.37351C35.592 2.74449 28.6371 0.241585 20.5914 0.27773Z" fill="#707D9B"/>
<path d="M18.9361 13.4911C19.6166 13.5172 20.2898 13.3569 20.8651 13.0319C21.1363 12.8777 21.3569 12.6623 21.5045 12.4075C21.6521 12.1528 21.7215 11.8678 21.7056 11.5815C21.6943 10.3999 21.2339 9.25664 20.3995 8.33842C19.64 7.46223 18.6603 6.75727 17.5392 6.28037C16.4181 5.80346 15.187 5.56793 13.9451 5.59275C12.887 5.56531 11.8339 5.73241 10.8515 6.08362C9.86901 6.43483 8.97825 6.96263 8.2347 7.63413C7.51464 8.26998 6.94726 9.02976 6.56711 9.86724C6.18695 10.7047 6.00196 11.6024 6.0234 12.5056C6.00962 13.4124 6.21387 14.3114 6.62242 15.142C7.03097 15.9726 7.63433 16.7156 8.39194 17.321C9.98563 18.6271 12.0928 19.3206 14.2564 19.2511C15.4763 19.2493 16.689 19.084 17.8537 18.7606C19.0053 18.5084 20.0435 17.9495 20.83 17.1584C21.1491 16.8449 21.3334 16.4408 21.3503 16.0178C21.3449 15.0218 20.7177 14.5266 19.4687 14.5322C18.7393 14.6622 18.0321 14.8766 17.3651 15.1701C16.4556 15.5475 15.4731 15.7652 14.4712 15.8114C13.6132 15.8399 12.7654 15.6371 12.0386 15.2296C11.7143 15.0424 11.442 14.7919 11.2426 14.4969C11.0432 14.2019 10.9218 13.8703 10.8876 13.5273L18.9361 13.4911ZM11.8884 9.36111C12.4811 8.93052 13.2277 8.70416 13.9921 8.72329C14.7532 8.70191 15.4975 8.92589 16.0883 9.35413C16.3669 9.55171 16.5962 9.79889 16.7615 10.0799C16.9269 10.3609 17.0247 10.6695 17.0487 10.9861L10.8147 11.0141C10.9444 10.3681 11.3244 9.78309 11.8884 9.36111V9.36111Z" fill="#707D9B"/>
<path d="M24.3711 17.2123C25.127 17.8718 26.0278 18.3848 27.0169 18.7191C28.006 19.0534 29.062 19.2018 30.1186 19.1548C31.3404 19.183 32.5555 18.9837 33.686 18.5696C35.0095 18.0266 35.6692 17.3675 35.665 16.5924C35.6721 16.1562 35.4856 15.7352 35.1462 15.4209C34.9749 15.2609 34.7672 15.1354 34.5371 15.0526C34.307 14.9698 34.0598 14.9317 33.8118 14.9409C33.3286 14.9647 32.8537 15.0631 32.4084 15.2318C31.8192 15.4279 31.195 15.5271 30.5661 15.5246C30.0758 15.5521 29.5848 15.4824 29.1284 15.3204C28.672 15.1584 28.2616 14.9082 27.9267 14.5879C27.348 13.9459 27.0521 13.1377 27.0944 12.315C27.057 11.5059 27.3313 10.7096 27.8718 10.0587C28.1658 9.72681 28.5443 9.4623 28.976 9.28711C29.4078 9.11193 29.8802 9.03114 30.354 9.05146C30.9981 9.04561 31.6381 9.14316 32.2434 9.33946C32.7048 9.50901 33.1953 9.60706 33.6938 9.62935C33.9515 9.63584 34.2082 9.59672 34.4489 9.51422C34.6895 9.43173 34.9095 9.30752 35.0959 9.14877C35.2743 9.00006 35.4155 8.81947 35.5102 8.61879C35.6048 8.41812 35.6509 8.2019 35.6454 7.98426C35.6405 7.09912 34.9928 6.438 33.7025 6.00091C32.6191 5.67131 31.4786 5.51586 30.3341 5.54178C29.2558 5.50074 28.179 5.65066 27.1661 5.98288C26.1532 6.3151 25.2242 6.82303 24.4329 7.47727C23.7 8.11639 23.1258 8.88553 22.7474 9.73492C22.3691 10.5843 22.195 11.495 22.2365 12.4082C22.2087 13.2961 22.3836 14.1797 22.7505 15.0055C23.1174 15.8313 23.6688 16.5821 24.3711 17.2123V17.2123Z" fill="#707D9B"/>
<path d="M38.0097 17.1751C38.7804 17.8418 39.6951 18.3619 40.6983 18.704C41.7014 19.046 42.772 19.2027 43.8452 19.1647C44.917 19.1967 45.9849 19.0343 46.9841 18.6874C47.9833 18.3405 48.8931 17.8163 49.6582 17.1465C50.367 16.5066 50.9221 15.7446 51.2897 14.9071C51.6573 14.0697 51.8296 13.1743 51.7962 12.2755C51.8188 11.3671 51.6333 10.4642 51.2511 9.62188C50.869 8.77956 50.2981 8.01554 49.5735 7.37649C48.8058 6.71649 47.8946 6.20364 46.8961 5.8696C45.8975 5.53555 44.8328 5.38739 43.7675 5.43424C42.7036 5.40281 41.6436 5.56442 40.6519 5.90927C39.6602 6.25411 38.7575 6.77499 37.9985 7.44028C37.2717 8.07907 36.7003 8.84443 36.3198 9.68866C35.9394 10.5329 35.7581 11.4379 35.7872 12.3473C35.7664 13.2449 35.9529 14.1366 36.3353 14.9672C36.7176 15.7977 37.2875 16.5493 38.0096 17.1751H38.0097ZM41.394 10.0929C41.6668 9.75854 42.0282 9.48946 42.4459 9.30967C42.8636 9.12988 43.3247 9.04496 43.7882 9.06246C44.2496 9.04378 44.7089 9.12852 45.1241 9.30894C45.5393 9.48935 45.8971 9.75968 46.1647 10.0952C46.6866 10.7246 46.9587 11.491 46.9379 12.2734C46.9759 13.06 46.7233 13.8359 46.2187 14.4822C45.9505 14.8223 45.5907 15.0971 45.1725 15.2813C44.7543 15.4656 44.2909 15.5534 43.8247 15.5367C43.3633 15.5556 42.9039 15.4709 42.4887 15.2905C42.0735 15.11 41.7158 14.8396 41.4482 14.504C40.9233 13.8669 40.6512 13.0921 40.6748 12.3019C40.6422 11.516 40.8943 10.7415 41.394 10.0932V10.0929Z" fill="#707D9B"/>
<path d="M58.3992 5.03755L60.5064 5.0281C62.7307 5.01811 63.8471 5.76407 63.8556 7.26599C63.8643 8.79961 62.7564 9.57137 60.5321 9.58126L58.425 9.59072L58.3992 5.03755ZM58.4618 16.1236L58.4455 13.1715L61.7234 13.157C63.6893 13.2473 65.6237 12.69 67.1584 11.5912C67.8289 11.0427 68.3535 10.3676 68.6936 9.61517C69.0337 8.86276 69.1808 8.0521 69.1241 7.2425C69.1669 6.40857 68.9881 5.57742 68.6023 4.81673C68.2165 4.05604 67.6345 3.38733 66.9039 2.86504C65.2753 1.80955 63.2863 1.29045 61.2762 1.39632L56.8862 1.41603C55.9528 1.33257 55.0174 1.55576 54.2556 2.04366C53.9799 2.34225 53.7741 2.68711 53.6505 3.05784C53.5269 3.42857 53.488 3.81763 53.5361 4.20199L53.6036 16.1376C53.6142 18.0007 54.4291 18.9286 56.0486 18.9213C57.668 18.9139 58.4725 17.9814 58.462 16.1236H58.4618Z" fill="#707D9B"/>
<path d="M75.0536 10.0122C75.3192 9.69577 75.6667 9.44121 76.0663 9.27014C76.466 9.09907 76.9061 9.01653 77.3493 9.02955C77.7927 9.00889 78.2351 9.08584 78.6373 9.2536C79.0395 9.42137 79.3892 9.67479 79.6555 9.99152C80.1417 10.6071 80.3911 11.3464 80.3666 12.0989C80.3971 12.8583 80.1565 13.6066 79.6794 14.2363C79.4212 14.5612 79.076 14.8234 78.6752 14.9992C78.2744 15.175 77.8307 15.2588 77.3843 15.2429C76.9343 15.2611 76.4861 15.1808 76.0788 15.0091C75.6716 14.8373 75.3178 14.5792 75.0483 14.2574C74.5465 13.6385 74.2865 12.8899 74.3083 12.1265C74.2814 11.367 74.5441 10.6218 75.0536 10.0125V10.0122ZM82.8625 18.799C84.4233 18.792 85.1985 17.8542 85.188 15.9854L85.1451 8.26424C85.1346 6.41159 84.3488 5.48863 82.788 5.49537C82.3238 5.49453 81.8683 5.60796 81.4718 5.82316C81.0753 6.03835 80.7532 6.34695 80.541 6.71493C80.0516 6.2585 79.458 5.90103 78.8002 5.66668C78.1425 5.43233 77.436 5.32657 76.7285 5.35653C75.7137 5.33927 74.7074 5.52406 73.7829 5.89745C72.8584 6.27084 72.0391 6.82341 71.3846 7.51486C70.0873 8.79647 69.3854 10.4698 69.4212 12.1957C69.4007 13.894 70.0879 15.5387 71.3497 16.8114C71.9956 17.4939 72.8056 18.0381 73.7197 18.4035C74.6338 18.7689 75.6285 18.9461 76.6299 18.922C77.3717 18.9509 78.1117 18.8348 78.7979 18.5818C79.4841 18.3288 80.0998 17.9451 80.602 17.4576C80.7761 17.8627 81.0873 18.2095 81.4925 18.4499C81.8977 18.6903 82.3767 18.8123 82.8632 18.7991L82.8625 18.799Z" fill="#707D9B"/>
<path d="M96.1129 6.95319L93.25 13.0845L90.5246 7.31028C90.341 6.84052 90.0715 6.40102 89.7271 6.00955C89.5154 5.82442 89.2624 5.68088 88.9847 5.58819C88.7069 5.49549 88.4104 5.4557 88.1143 5.47137C87.5042 5.45632 86.9118 5.65472 86.4638 6.02409C86.2525 6.19486 86.0851 6.40418 85.9727 6.63781C85.8604 6.87144 85.8059 7.12389 85.8128 7.37799C85.8122 7.74676 85.9042 8.11099 86.0821 8.44395L90.9019 17.4549L88.9722 20.8991C88.7387 21.3017 88.6077 21.7453 88.5887 22.1981C88.5772 22.451 88.6298 22.703 88.7426 22.9353C88.8554 23.1676 89.0255 23.3743 89.2402 23.5399C89.7207 23.8828 90.3258 24.0562 90.9404 24.0272C91.7792 24.0234 92.4689 23.5065 93.0098 22.4765L100.16 8.571C100.39 8.15676 100.517 7.70327 100.533 7.24133C100.526 6.02407 99.7426 5.41891 98.1816 5.42584C97.284 5.42982 96.5942 5.93891 96.1122 6.95311L96.1129 6.95319Z" fill="#707D9B"/>
<path d="M112.206 14.9191L107.532 14.9401L113.777 8.37015C114.3 7.91915 114.635 7.32331 114.728 6.68026C114.753 6.46856 114.692 6.25595 114.557 6.08041C114.422 5.90487 114.222 5.77784 113.991 5.722C113.253 5.5658 112.494 5.50124 111.736 5.53015L104.156 5.56419C102.146 5.5732 101.145 6.15478 101.151 7.30891C101.158 8.479 102.156 9.05946 104.146 9.0503L108.215 9.03204L101.756 15.8672C101.332 16.2675 101.086 16.7909 101.062 17.3406C101.066 18.1314 101.898 18.5229 103.556 18.5152L112.19 18.4764C114.18 18.4675 115.172 17.8781 115.165 16.7082C115.159 15.5069 114.172 14.9105 112.206 14.9191V14.9191Z" fill="#707D9B"/>
</g>
<defs>
<clipPath id="clip0_4788_111729">
<rect width="115.053" height="24" fill="white" transform="translate(0.977051 0.152344)"/>
</clipPath>
</defs>
</svg>
