<svg width="113" height="24" viewBox="0 0 113 24" fill="none" xmlns="http://www.w3.org/2000/svg">
<g clip-path="url(#clip0_4788_111690)">
<path d="M11.3925 12.2969L10.6979 15.0641C11.5753 15.2797 14.244 16.1062 14.6462 14.5609C15.0483 12.9078 12.2699 12.5125 11.3925 12.2969Z" fill="white"/>
<path d="M12.343 8.48828L11.7216 11.0039C12.4527 11.1836 14.6828 11.9023 15.0484 10.4648C15.414 8.99141 13.0742 8.66797 12.343 8.48828Z" fill="white"/>
<path d="M15.2312 1.01254C8.97974 -0.532776 2.61858 3.20472 1.08313 9.38598C-0.488878 15.5313 3.31319 21.7844 9.60123 23.2938C15.8527 24.8391 22.2139 21.0657 23.7859 14.9204C25.3213 8.77504 21.5193 2.52191 15.2312 1.01254ZM17.571 10.5C17.3882 11.6141 16.7667 12.1532 15.9258 12.3688C17.0957 12.9438 17.6806 13.8782 17.0957 15.4235C16.4011 17.3641 14.756 17.5438 12.5625 17.1125L12.0506 19.2329L10.7711 18.9094L11.2829 16.861C10.9539 16.7891 10.6249 16.6813 10.2593 16.6094L9.74747 18.6938L8.46793 18.3704L9.0163 16.286C8.72383 16.2141 8.39481 16.1422 8.10234 16.0704L6.42066 15.675L7.04215 14.2375C7.04215 14.2375 7.99267 14.4891 7.99267 14.4532C8.35825 14.525 8.50448 14.3094 8.5776 14.1657L9.41844 10.8594C9.455 10.8594 9.52812 10.8954 9.56468 10.8954C9.52812 10.8594 9.455 10.8594 9.41844 10.8594L10.0034 8.48754C10.0034 8.23598 9.93026 7.8766 9.41844 7.76879C9.455 7.76879 8.50448 7.55316 8.50448 7.55316L8.83351 6.18754L10.5883 6.61879C10.8442 6.69066 11.1367 6.76254 11.3926 6.79848L11.9044 4.7141L13.184 5.03754L12.6721 7.08598C13.0012 7.15785 13.3667 7.22973 13.6958 7.33754L14.2076 5.32504L15.4871 5.64847L14.9753 7.73285C16.6204 8.1641 17.7903 8.99066 17.571 10.5Z" fill="white"/>
<path d="M35.009 7.62422C35.9596 7.62422 36.7638 7.80391 37.4585 8.12734C38.1531 8.45078 38.738 8.91797 39.1767 9.45703C39.6154 10.032 39.981 10.6789 40.2003 11.4336C40.4197 12.1883 40.5294 13.0148 40.5294 13.8773C40.5294 15.207 40.2735 16.4648 39.7616 17.6867C39.2498 18.8727 38.5918 19.9148 37.7144 20.8133C36.837 21.7117 35.8133 22.3945 34.6435 22.8977C33.437 23.4008 32.1575 23.6523 30.7683 23.6523C30.5855 23.6523 30.293 23.6523 29.8178 23.6523C29.3425 23.6523 28.8672 23.6164 28.2823 23.5086C27.6974 23.4367 27.1124 23.3289 26.4544 23.1492C25.7963 23.0055 25.2114 22.7898 24.6265 22.5023L29.7812 1.37109L34.3876 0.652344L32.5596 8.16328C32.9618 7.98359 33.3639 7.83984 33.7295 7.76797C34.1316 7.66016 34.5338 7.62422 35.009 7.62422ZM31.1339 20.0586C31.8285 20.0586 32.4865 19.8789 33.0714 19.5555C33.6929 19.232 34.2048 18.8008 34.6435 18.2258C35.0822 17.6867 35.4477 17.0398 35.7037 16.357C35.9596 15.6742 36.1058 14.9195 36.1058 14.1648C36.1058 13.2305 35.9596 12.5117 35.6305 11.9727C35.3015 11.4336 34.7166 11.182 33.8757 11.182C33.5833 11.182 33.2542 11.218 32.779 11.3258C32.3403 11.4336 31.9381 11.6133 31.5726 11.9367L29.635 19.9148C29.7446 19.9508 29.8543 19.9508 29.964 19.9867C30.0371 20.0227 30.1468 20.0227 30.2565 20.0227C30.3661 20.0227 30.4758 20.0227 30.622 20.0227C30.7683 20.0227 30.9511 20.0586 31.1339 20.0586Z" fill="white"/>
<path d="M45.2819 23.2578H40.8949L44.5873 7.94844H49.0109L45.2819 23.2578ZM47.4023 6.07969C46.7808 6.07969 46.2324 5.9 45.7572 5.54062C45.2453 5.18125 45.026 4.64219 45.026 3.8875C45.026 3.49219 45.0991 3.09687 45.2819 2.7375C45.4647 2.37812 45.684 2.05469 45.94 1.80312C46.2324 1.55156 46.5249 1.33594 46.8905 1.19219C47.2561 1.04844 47.6582 0.976562 48.0603 0.976562C48.6818 0.976562 49.2302 1.15625 49.7055 1.51562C50.1807 1.875 50.4366 2.41406 50.4366 3.16875C50.4366 3.56406 50.3635 3.95937 50.1807 4.31875C49.9979 4.67812 49.7786 5.00156 49.5227 5.25312C49.2302 5.50469 48.9377 5.72031 48.5722 5.86406C48.2066 6.00781 47.8044 6.07969 47.4023 6.07969Z" fill="white"/>
<path d="M52.8496 4.13984L57.4559 3.45703L56.2861 7.94922H61.1849L60.3075 11.507H55.4087L54.1291 16.8258C54.0195 17.257 53.9463 17.6883 53.9098 18.0836C53.8732 18.4789 53.9463 18.8023 54.056 19.0898C54.1657 19.3773 54.385 19.593 54.6775 19.7367C54.97 19.8805 55.4087 19.9883 55.9936 19.9883C56.4689 19.9883 56.9441 19.9524 57.3828 19.8445C57.8215 19.7727 58.2602 19.6289 58.7355 19.4852L59.0645 22.7914C58.4796 23.007 57.8215 23.1867 57.1269 23.3305C56.4323 23.4742 55.628 23.5461 54.6775 23.5461C53.3248 23.5461 52.2646 23.3305 51.4969 22.9352C50.7292 22.5399 50.2174 22.0008 49.8884 21.318C49.5593 20.6352 49.4497 19.8445 49.4862 18.9461C49.5228 18.0477 49.669 17.1133 49.8884 16.107L52.8496 4.13984Z" fill="white"/>
<path d="M61.0386 17.1461C61.0386 15.8164 61.2579 14.5945 61.6966 13.4086C62.1353 12.2586 62.7568 11.2164 63.5611 10.3539C64.3654 9.49141 65.3525 8.80859 66.5223 8.30547C67.6556 7.80234 68.9717 7.55078 70.3975 7.55078C71.2749 7.55078 72.0792 7.62266 72.7738 7.80234C73.4684 7.98203 74.1265 8.19766 74.6749 8.44922L73.176 11.8273C72.7738 11.6836 72.3717 11.5398 71.933 11.3961C71.4943 11.2523 70.9825 11.2164 70.361 11.2164C68.8986 11.2164 67.7288 11.7195 66.8879 12.6898C66.0471 13.6961 65.6084 15.0258 65.6084 16.6789C65.6084 17.6852 65.8277 18.4758 66.2664 19.0867C66.7051 19.6977 67.5094 19.9852 68.6793 19.9852C69.2642 19.9852 69.8126 19.9133 70.3244 19.8055C70.8728 19.6977 71.348 19.5539 71.7502 19.3742L72.0792 22.8242C71.5308 23.0398 70.9093 23.2195 70.2513 23.3992C69.5932 23.543 68.789 23.6508 67.8384 23.6508C66.632 23.6508 65.5718 23.4711 64.731 23.1117C63.8901 22.7523 63.1955 22.2852 62.6471 21.7102C62.0988 21.0992 61.6966 20.4164 61.4407 19.6258C61.1483 18.8352 61.0386 18.0086 61.0386 17.1461Z" fill="white"/>
<path d="M80.4876 23.6508C79.4274 23.6508 78.55 23.507 77.7458 23.1836C76.978 22.8602 76.3565 22.4289 75.8447 21.8898C75.3329 21.3148 74.9673 20.668 74.7114 19.9133C74.4555 19.1586 74.3458 18.2961 74.3458 17.3617C74.3458 16.2117 74.5286 15.0258 74.9308 13.8758C75.2963 12.7258 75.8813 11.6477 76.649 10.7492C77.3802 9.81484 78.3307 9.06016 79.3909 8.44922C80.4876 7.87422 81.7306 7.55078 83.1198 7.55078C84.1435 7.55078 85.0574 7.69453 85.8252 8.01797C86.5929 8.34141 87.2509 8.77266 87.7628 9.31172C88.2746 9.88672 88.6402 10.5336 88.8961 11.2883C89.152 12.043 89.2982 12.9055 89.2982 13.8398C89.2982 14.9898 89.1154 16.1758 88.7498 17.3258C88.3843 18.4758 87.8359 19.518 87.1047 20.4523C86.3735 21.3867 85.4596 22.1414 84.3628 22.7523C83.193 23.3633 81.9134 23.6508 80.4876 23.6508ZM82.6811 11.1805C82.0231 11.1805 81.4747 11.3602 80.9629 11.7195C80.4511 12.0789 80.0489 12.5461 79.7199 13.1211C79.3909 13.6961 79.135 14.307 78.9522 14.9539C78.7694 15.6367 78.6963 16.2477 78.6963 16.8586C78.6963 17.8289 78.8425 18.5836 79.1715 19.1227C79.5006 19.6617 80.0489 19.9492 80.8898 19.9492C81.5478 19.9492 82.0962 19.7695 82.608 19.4102C83.0833 19.0508 83.522 18.5836 83.851 18.0086C84.18 17.4336 84.4359 16.8227 84.6187 16.1758C84.8015 15.493 84.8746 14.882 84.8746 14.2711C84.8746 13.3008 84.7284 12.5461 84.3994 12.007C84.0704 11.468 83.522 11.1805 82.6811 11.1805Z" fill="white"/>
<path d="M94.0142 23.2578H89.6272L93.3196 7.94844H97.7432L94.0142 23.2578ZM96.1712 6.07969C95.5497 6.07969 95.0013 5.9 94.526 5.54062C94.0508 5.18125 93.7949 4.64219 93.7949 3.8875C93.7949 3.49219 93.868 3.09687 94.0508 2.7375C94.2336 2.37812 94.4529 2.05469 94.7088 1.80312C95.0013 1.55156 95.2938 1.33594 95.6593 1.19219C96.0249 1.04844 96.4271 0.976562 96.8292 0.976562C97.4507 0.976562 97.9991 1.15625 98.4743 1.51562C98.9496 1.875 99.2055 2.41406 99.2055 3.16875C99.2055 3.56406 99.1324 3.95937 98.9496 4.31875C98.7668 4.67812 98.5474 5.00156 98.2915 5.25312C97.9991 5.50469 97.7066 5.72031 97.341 5.86406C96.9754 6.00781 96.5733 6.07969 96.1712 6.07969Z" fill="white"/>
<path d="M100.924 8.63203C101.253 8.52422 101.618 8.41641 102.021 8.30859C102.423 8.20078 102.861 8.05703 103.373 7.94922C103.885 7.84141 104.433 7.76953 105.055 7.69766C105.676 7.62578 106.371 7.58984 107.175 7.58984C109.479 7.58984 111.087 8.23672 111.964 9.56641C112.842 10.8961 112.988 12.693 112.44 14.993L110.429 23.2586H106.005L107.943 15.1727C108.053 14.6695 108.162 14.1664 108.236 13.6992C108.309 13.232 108.309 12.8008 108.236 12.4414C108.162 12.082 107.98 11.7945 107.687 11.5789C107.395 11.3633 106.956 11.2555 106.371 11.2555C105.786 11.2555 105.201 11.3273 104.616 11.4352L101.728 23.2945H97.3046L100.924 8.63203Z" fill="white"/>
</g>
<defs>
<clipPath id="clip0_4788_111690">
<rect width="112.051" height="23" fill="white" transform="translate(0.717285 0.652344)"/>
</clipPath>
</defs>
</svg>
