<svg width="116" height="31" viewBox="0 0 116 31" fill="none" xmlns="http://www.w3.org/2000/svg">
<path d="M29.1915 30.3054L29.0877 0.00530531L30.621 0L30.7248 30.3001L29.1915 30.3054ZM45.2034 3.88962L45.2028 3.73783L51.3367 3.71671L51.3886 18.8665C51.3726 20.8841 50.5612 22.8141 49.1306 24.2376C47.7 25.6611 45.7655 26.4633 43.7469 26.4702C41.7283 26.4771 39.7883 25.6881 38.348 24.2745C36.9077 22.8608 36.0831 20.9364 36.0533 18.9189L42.1874 18.8979C42.1888 19.3044 42.3517 19.6937 42.6403 19.9801C42.9288 20.2666 43.3194 20.4267 43.7261 20.4253C44.1327 20.4239 44.5222 20.2611 44.8088 19.9727C45.0954 19.6843 45.2556 19.2939 45.2542 18.8874L45.2034 3.88962ZM67.3803 11.7951C68.0794 12.5486 68.6126 13.4403 68.9453 14.4126C69.3102 15.4956 69.4913 16.632 69.481 17.7748C69.4819 18.0702 69.4711 18.339 69.4503 18.5736C69.4468 18.7767 69.4059 18.9774 69.3296 19.1657L69.1615 19.5029L58.5522 19.5393C58.603 19.7733 58.6815 20.0003 58.7861 20.2157C59.1618 20.9986 59.8212 21.6094 60.6307 21.9243C61.0513 22.0877 61.4994 22.169 61.9507 22.1638C62.6991 22.2158 63.4419 22.0022 64.0483 21.5606L64.2963 21.3485L68.7972 22.5704L68.32 23.2698C67.8892 23.8983 67.3567 24.4508 66.7445 24.9046C66.0967 25.3818 65.3766 25.7522 64.6115 26.0017C63.7565 26.276 62.8631 26.4123 61.9651 26.4056C60.8936 26.4131 59.8298 26.2229 58.8273 25.8446C57.8433 25.474 56.9457 24.9058 56.19 24.175C55.4137 23.4127 54.7967 22.5038 54.3749 21.5011C53.905 20.3662 53.6706 19.1477 53.6858 17.9195C53.6672 16.75 53.8824 15.5886 54.3188 14.5034C54.7195 13.5204 55.3072 12.6244 56.0495 11.8653C56.7706 11.136 57.6263 10.5534 58.5693 10.1498C59.5071 9.74445 60.5175 9.53352 61.5392 9.52972C62.6708 9.50978 63.7957 9.70606 64.8536 10.108C65.8101 10.4769 66.673 11.0531 67.3802 11.7951H67.3803ZM58.6814 15.7512L64.5662 15.7311C64.5319 15.5942 64.4888 15.4597 64.4373 15.3283C64.3136 15.0146 64.1246 14.7308 63.8829 14.4956C63.6134 14.2384 63.2955 14.0372 62.9475 13.9038C62.5113 13.7437 62.0486 13.6682 61.5841 13.6812C61.1591 13.6752 60.7375 13.757 60.3456 13.9215C60 14.0695 59.6862 14.2827 59.4212 14.5494C59.1664 14.8107 58.9578 15.1134 58.8044 15.4445C58.7577 15.5444 58.7167 15.6468 58.6813 15.7512H58.6814ZM96.6729 11.8173C97.4328 12.5785 98.0333 13.4833 98.4396 14.4789C98.8682 15.5421 99.0852 16.6787 99.0785 17.825C99.0922 18.9751 98.8834 20.1171 98.4634 21.188C98.0671 22.1932 97.4724 23.1083 96.7146 23.8789C95.9579 24.639 95.0592 25.2432 94.0695 25.6572C91.9353 26.5161 89.5529 26.5246 87.4127 25.6808C86.4152 25.2784 85.5094 24.6784 84.7499 23.917C83.9962 23.149 83.4018 22.2396 83.0011 21.2411C82.5736 20.1732 82.3569 19.0326 82.363 17.8823C82.3482 16.7361 82.5574 15.5981 82.9791 14.5321C83.3758 13.5375 83.9635 12.6303 84.7091 11.8615C85.4632 11.0949 86.3648 10.4888 87.3594 10.0795C89.4938 9.22151 91.8759 9.21371 94.0158 10.0577C95.0082 10.4646 95.911 11.0625 96.6728 11.8173H96.6729ZM93.9717 19.6575C94.1788 19.075 94.2776 18.4595 94.2632 17.8415C94.2742 17.2293 94.1715 16.6204 93.9605 16.0457C93.7842 15.5803 93.5149 15.1558 93.1689 14.7979C92.8528 14.4763 92.4712 14.2264 92.0499 14.0652C91.1735 13.7394 90.2086 13.7427 89.3344 14.0745C88.9201 14.2354 88.5468 14.4863 88.2413 14.8091C87.8996 15.1774 87.6309 15.6072 87.4495 16.0757C87.2344 16.6472 87.132 17.2549 87.1477 17.8653C87.137 18.4817 87.244 19.0944 87.463 19.6707C87.645 20.1425 87.9164 20.5747 88.2623 20.9436C88.574 21.2687 88.9519 21.5231 89.3703 21.6898C90.2372 22.0314 91.202 22.0282 92.0666 21.6809C92.4893 21.5077 92.8717 21.2491 93.1899 20.9213C93.5348 20.5584 93.8009 20.1281 93.9716 19.6575H93.9717ZM115.413 13.3757C115.663 14.1693 115.789 14.9966 115.787 15.8285L115.821 25.767L111.036 25.7833L111.005 16.4509C111.025 15.7509 110.821 15.0628 110.422 14.487C109.91 14.0247 109.241 13.7762 108.552 13.7926C107.862 13.8091 107.205 14.0893 106.716 14.5754C106.266 15.1825 106.037 15.9251 106.067 16.6802L106.098 25.8005L101.314 25.8169L101.259 9.84873L105.951 9.83262L105.954 10.7135C106.278 10.4358 106.639 10.2034 107.026 10.0226C107.864 9.63158 108.775 9.41835 109.7 9.39636C110.625 9.37438 111.545 9.54413 112.401 9.89491C113.136 10.2146 113.786 10.701 114.3 11.3156C114.798 11.9254 115.176 12.6245 115.412 13.3755L115.413 13.3757ZM79.4167 21.6995C79.7251 21.6602 79.8137 21.6413 79.8336 21.636L80.5961 21.4434L80.6101 25.5397L80.2257 25.6934C79.4566 25.9761 78.6399 26.107 77.8209 26.0789C77.1459 26.1151 76.4705 26.0179 75.8331 25.7929C75.1957 25.5679 74.609 25.2196 74.1064 24.7678C73.6325 24.2857 73.2639 23.7104 73.024 23.0785C72.784 22.4466 72.6779 21.7717 72.7124 21.0967L72.6891 14.2792L70.8489 14.2855L70.8341 9.95277L72.6736 9.94648L72.6588 5.43142L77.4125 5.41501L77.428 9.93008L80.5257 9.91947L80.5406 14.2522L77.4429 14.2628L77.4642 20.5044C77.428 20.852 77.5269 21.2002 77.7402 21.477C78.0359 21.6852 78.3968 21.7797 78.7566 21.743C78.9773 21.7419 79.1978 21.7274 79.4167 21.6995V21.6995ZM2.32827 10.0331C2.29937 10.0411 2.26876 10.0404 2.24027 10.0311C2.21177 10.0218 2.18665 10.0043 2.16804 9.98077C2.14944 9.95727 2.13818 9.92881 2.13566 9.89895C2.13315 9.86909 2.13949 9.83915 2.1539 9.81287C2.89874 8.453 3.91236 7.25867 5.1332 6.30242C6.35405 5.34616 7.75663 4.64795 9.25575 4.25019C10.7588 3.84493 12.3281 3.74665 13.87 3.96124C15.4119 4.17582 16.8947 4.69886 18.2299 5.49911C18.2558 5.51415 18.2766 5.53655 18.2898 5.56346C18.303 5.59038 18.3078 5.62059 18.3038 5.65027C18.2998 5.67995 18.287 5.70777 18.2671 5.73018C18.2472 5.7526 18.2211 5.7686 18.1921 5.77617L2.32827 10.0331ZM21.7919 8.84032C23.2227 10.9244 23.9113 13.4286 23.7469 15.9509C23.7446 15.9827 23.7323 16.013 23.7119 16.0375C23.6915 16.062 23.6639 16.0795 23.633 16.0876L2.91646 21.6469C2.88554 21.6552 2.85282 21.6538 2.82272 21.6429C2.79261 21.632 2.76659 21.6121 2.74818 21.586C1.31702 19.5018 0.628295 16.9973 0.792646 14.4748C0.795097 14.443 0.80738 14.4128 0.827794 14.3883C0.848207 14.3638 0.875737 14.3463 0.906567 14.3382L21.6235 8.77911C21.6545 8.77072 21.6873 8.7721 21.7174 8.78306C21.7475 8.79401 21.7736 8.81401 21.7919 8.84032V8.84032ZM22.2113 20.393C22.2402 20.3851 22.2708 20.3858 22.2993 20.3952C22.3277 20.4045 22.3528 20.422 22.3714 20.4455C22.39 20.469 22.4012 20.4975 22.4037 20.5273C22.4062 20.5572 22.3998 20.5871 22.3854 20.6133C21.6407 21.9732 20.6271 23.1675 19.4064 24.1238C18.1856 25.0801 16.7831 25.7783 15.284 26.1761C13.781 26.5814 12.2116 26.6796 10.6698 26.4651C9.12786 26.2505 7.64505 25.7275 6.30991 24.9273C6.28403 24.9122 6.2632 24.8898 6.25005 24.863C6.2369 24.8361 6.23202 24.8059 6.23603 24.7762C6.24004 24.7466 6.25275 24.7188 6.27257 24.6963C6.29239 24.6739 6.31842 24.6579 6.34736 24.6502L22.2113 20.393Z" fill="#707D9B"/>
</svg>
