<svg width="116" height="23" viewBox="0 0 116 23" fill="none" xmlns="http://www.w3.org/2000/svg">
<path d="M113.615 1.82461C112.149 0.713157 109.93 0.152611 107.021 0.152611H99.4042L96.5723 17.1642H86.5933L87.2347 13.3046H93.2459L93.9582 8.96971L87.9504 8.97928L88.5936 5.13694H94.7854L95.6092 0.153604H83.035L80.3466 16.2901H75.7322L78.4388 0.152755H71.8658L69.1774 16.2893H64.6823L67.3914 0.152755H60.8218L57.9865 17.1643H47.9358L48.5712 13.3048H54.6065L55.3197 8.99447L49.2901 8.98778L49.9298 5.1378H56.191L57.0096 0.152344H17.8262L15.596 13.6328L11.1546 0.152344H4.33495L0.664551 22.1523H7.17734L9.39895 8.30018L13.7089 22.1523H37.0501L39.8881 5.13568H43.5386L40.7007 22.1523H102.116L103.897 11.4108L106.777 22.1523H113.293L110.309 13.3752L110.992 13.2126C112.496 12.8558 113.669 12.0896 114.486 10.9408C115.302 9.78156 115.717 8.29318 115.717 6.50537C115.717 4.42398 115.029 2.89261 113.613 1.82334L113.615 1.82461ZM31.3826 17.1642H21.4133L22.0573 13.3046H28.3104L29.0192 8.95741H22.8263L23.4228 5.13802H33.3776L31.3808 17.1641L31.3826 17.1642ZM108.246 9.7539C107.591 10.2608 106.641 10.5076 105.342 10.5076H104.054L105.042 4.60383H105.989C107.068 4.60383 107.854 4.79514 108.397 5.18538C108.821 5.49147 109.325 6.09697 109.325 7.24191C109.323 8.62695 108.737 9.37112 108.244 9.75373L108.246 9.7539Z" fill="white"/>
</svg>
