<svg width="149" height="17" viewBox="0 0 149 17" fill="none" xmlns="http://www.w3.org/2000/svg">
<path fill-rule="evenodd" clip-rule="evenodd" d="M5.42619 0.0743533C5.42619 0.11153 5.27748 0.148707 5.12878 0.148707C4.90572 0.148707 4.79419 0.185883 4.79419 0.22306C4.75701 0.260236 4.68266 0.297413 4.57113 0.297413C4.42242 0.297413 4.38524 0.33459 4.34807 0.408943C4.31089 0.483296 4.27371 0.520473 4.16218 0.520473C4.01348 0.520473 3.71606 0.743533 3.71606 0.892239C3.71606 0.929416 3.64171 0.966592 3.60453 0.966592C3.56736 0.966592 3.45583 1.04095 3.45583 1.07812C3.45583 1.1153 3.41865 1.18965 3.3443 1.18965C3.30712 1.22683 3.26994 1.33836 3.26994 1.41271C3.26994 1.56142 3.23277 1.5986 3.15841 1.5986C3.12124 1.5986 3.04688 1.63577 3.00971 1.71012C3.00971 1.82165 2.97253 1.85883 2.89818 1.85883C2.861 1.85883 2.82382 1.93318 2.82382 2.08189C2.82382 2.2306 2.78665 2.30495 2.71229 2.30495C2.60076 2.34213 2.56359 2.41648 2.56359 2.67672C2.56359 2.89978 2.56359 2.97413 2.48923 2.97413C2.41488 2.97413 2.37771 3.08566 2.37771 3.4946C2.37771 3.9779 2.37771 4.01508 2.26618 4.05225C2.08029 4.08943 2.08029 6.61744 2.26618 6.69179C2.37771 6.72897 2.37771 6.76615 2.37771 7.10074C2.37771 7.39815 2.41488 7.50968 2.45206 7.50968C2.48924 7.54686 2.52641 7.58403 2.52641 7.65839C2.52641 7.69556 2.56359 7.76992 2.63794 7.76992C2.78665 7.76992 2.82382 7.80709 2.82382 7.9558C2.82382 8.10451 2.861 8.17886 2.89818 8.17886C2.93535 8.17886 3.00971 8.21603 3.00971 8.29039C3.00971 8.36474 3.08406 8.40192 3.15841 8.40192C3.23277 8.40192 3.26994 8.43909 3.26994 8.47627C3.26994 8.55062 3.3443 8.55062 3.493 8.55062C3.67889 8.55062 3.71606 8.5878 3.71606 8.66215C3.71606 8.73651 3.75324 8.77368 3.93912 8.77368C4.08783 8.77368 4.16218 8.81086 4.16218 8.84804C4.16218 8.92239 4.23654 8.92239 4.4596 8.92239C4.71983 8.92239 4.75701 8.95957 4.79419 9.03392C4.83136 9.10827 4.90572 9.14545 5.12878 9.14545C5.35184 9.14545 5.42619 9.18263 5.42619 9.2198C5.42619 9.29416 5.50054 9.29416 5.76078 9.29416C6.05819 9.29416 6.09537 9.29416 6.09537 9.40569C6.09537 9.51722 6.13254 9.51722 6.39278 9.51722C6.61584 9.51722 6.69019 9.55439 6.69019 9.59157C6.69019 9.66592 6.76455 9.66592 7.02478 9.66592C7.3222 9.66592 7.35937 9.66592 7.35937 9.77745C7.35937 9.88898 7.39655 9.88898 7.65679 9.88898C7.87985 9.88898 7.9542 9.92616 7.9542 9.96334C7.9542 10.0377 8.02855 10.0377 8.28879 10.0377C8.5862 10.0377 8.62338 10.0377 8.62338 10.1492C8.62338 10.2607 8.66056 10.2607 8.95797 10.2607C9.25538 10.2607 9.29256 10.2979 9.32974 10.3723C9.36691 10.4838 9.40409 10.4838 9.66432 10.4838C9.88738 10.4838 9.96174 10.521 9.96174 10.5582C9.96174 10.6325 10.0361 10.6325 10.2963 10.6325C10.5937 10.6325 10.6309 10.6325 10.6309 10.744C10.6309 10.8184 10.6681 10.8556 10.7053 10.8556C10.7424 10.8556 10.7796 10.8928 10.7796 10.9299C10.7796 10.9671 10.8168 11.0043 10.8912 11.0043C11.0027 11.0043 11.0027 11.0415 11.0027 11.4132C11.0027 11.785 11.0027 11.8593 10.8912 11.8593C10.8168 11.8593 10.7796 11.9337 10.7796 12.0081C10.7796 12.0452 10.7424 12.1196 10.7053 12.1196C10.6681 12.1196 10.6309 12.1568 10.6309 12.1939C10.6309 12.2311 10.5937 12.3055 10.5194 12.3055C10.445 12.3055 10.4079 12.3798 10.4079 12.4542C10.4079 12.5285 9.96174 12.5657 5.50054 12.5657H0.593227V12.7888C0.593227 12.9375 0.55605 13.0118 0.518873 13.0118C0.44452 13.0118 0.44452 13.0862 0.44452 13.4579C0.44452 13.7925 0.407344 13.9041 0.370167 13.9041C0.258637 13.9041 0.22146 14.0528 0.22146 14.5732C0.22146 14.945 0.184284 15.0194 0.147107 15.0194C0.0727539 15.0194 0.0727539 15.1309 0.0727539 15.6142V16.209H6.39278C10.5566 16.209 12.7128 16.1718 12.7128 16.1347C12.7128 16.0975 12.8615 16.0603 13.0474 16.0603C13.3076 16.0603 13.382 16.0231 13.382 15.986C13.382 15.9116 13.4563 15.9116 13.605 15.9116C13.7909 15.9116 13.8281 15.8744 13.8281 15.8001C13.8281 15.6885 13.8653 15.6885 14.0512 15.6885C14.1999 15.6885 14.2742 15.6514 14.2742 15.6142C14.2742 15.577 14.3486 15.5027 14.3858 15.5027C14.4601 15.5027 14.4973 15.4283 14.4973 15.3539C14.4973 15.3168 14.5345 15.2424 14.5716 15.2424C14.6088 15.2424 14.646 15.2052 14.646 15.1681C14.646 15.1309 14.7203 15.0565 14.7575 15.0565C14.8319 15.0565 14.8691 14.9822 14.8691 14.9078C14.8691 14.8707 14.9062 14.7963 14.9434 14.7963C15.0178 14.7963 15.0178 14.7219 15.0178 14.5732C15.0178 14.3874 15.0549 14.3502 15.1293 14.3502C15.2036 14.3502 15.2408 14.313 15.2408 14.1271C15.2408 13.9784 15.278 13.9041 15.3152 13.9041C15.3895 13.9041 15.3895 13.8297 15.3895 13.5695C15.3895 13.2721 15.3895 13.2349 15.5011 13.2349C15.6126 13.2349 15.6126 13.1977 15.6126 12.7888C15.6126 12.4542 15.6498 12.3426 15.6869 12.3426C15.7613 12.3426 15.7613 12.1196 15.7613 10.7069C15.7613 9.29416 15.7613 9.0711 15.6869 9.0711C15.6126 9.0711 15.6126 8.99674 15.6126 8.77368C15.6126 8.55062 15.5754 8.47627 15.5011 8.4391C15.4267 8.4391 15.3895 8.36474 15.3895 8.29039C15.3895 8.21603 15.3524 8.17886 15.3152 8.17886C15.278 8.17886 15.2408 8.14168 15.2408 8.1045C15.2408 8.06733 15.2036 8.03015 15.1293 8.03015C15.0549 8.03015 15.0178 7.99298 15.0178 7.91862C15.0178 7.84427 14.9806 7.80709 14.9434 7.80709C14.9062 7.80709 14.8691 7.76992 14.8691 7.73274C14.8691 7.69556 14.8319 7.65839 14.7575 7.65839C14.6832 7.65839 14.6088 7.62121 14.6088 7.54686C14.5716 7.4725 14.5345 7.43533 14.3858 7.43533C14.2742 7.43533 14.1999 7.39815 14.1999 7.36097C14.1999 7.28662 14.1255 7.28662 13.9768 7.28662C13.8281 7.28662 13.7538 7.24944 13.7166 7.17509C13.6794 7.06356 13.6422 7.06356 13.382 7.06356C13.1589 7.06356 13.0846 7.02638 13.0846 6.98921C13.0846 6.91485 13.0102 6.91485 12.7872 6.91485C12.5269 6.91485 12.4898 6.87768 12.4526 6.80332C12.4154 6.69179 12.3782 6.69179 12.0065 6.69179C11.6719 6.69179 11.5975 6.65462 11.5975 6.61744C11.5975 6.54309 11.5232 6.54309 11.2629 6.54309C10.9655 6.54309 10.9283 6.54309 10.9283 6.43156C10.9283 6.32003 10.8912 6.32003 10.6309 6.32003C10.4079 6.32003 10.3335 6.28285 10.3335 6.24567C10.3335 6.17132 10.2592 6.17132 9.99891 6.17132C9.7015 6.17132 9.66432 6.17132 9.66432 6.05979C9.66432 5.94826 9.62715 5.94826 9.32974 5.94826C9.0695 5.94826 8.99515 5.91108 8.99515 5.87391C8.99515 5.76238 8.84644 5.7252 8.5862 5.7252C8.4375 5.7252 8.36314 5.68802 8.36314 5.65085C8.36314 5.57649 8.28879 5.57649 8.02855 5.57649C7.73114 5.57649 7.69396 5.57649 7.69396 5.46496C7.69396 5.39061 7.65679 5.35343 7.61961 5.35343C7.58243 5.35343 7.50808 5.31626 7.50808 5.27908C7.4709 5.2419 7.43373 5.20473 7.35937 5.20473C7.3222 5.20473 7.24784 5.16755 7.24784 5.0932C7.24784 5.01885 7.21067 4.98167 7.17349 4.98167C7.09914 4.98167 7.09914 4.90732 7.09914 4.75861C7.09914 4.6099 7.13631 4.53555 7.17349 4.53555C7.24784 4.53555 7.24784 4.4612 7.24784 4.31249C7.24784 4.12661 7.28502 4.08943 7.35937 4.08943C7.43373 4.08943 7.4709 4.05225 7.4709 4.01508C7.4709 3.9779 7.50808 3.94072 7.54526 3.94072C7.58243 3.94072 7.61961 3.90355 7.61961 3.82919C7.61961 3.71766 7.65679 3.71766 12.341 3.71766H17.0625V3.08566C17.0625 2.60236 17.0625 2.56519 17.174 2.52801C17.2855 2.49083 17.2855 2.45366 17.2855 2.04471C17.2855 1.71012 17.3227 1.5986 17.3599 1.5986C17.4342 1.5986 17.4342 1.48707 17.4342 1.07812C17.4342 0.594826 17.4342 0.557649 17.5458 0.520473C17.6573 0.520473 17.6945 0.44612 17.6945 0.260236V0H11.5603C7.50808 0 5.42619 0.0371766 5.42619 0.0743533ZM20.5571 0.520473C20.5571 0.966592 20.5571 1.00377 20.4455 1.00377C20.2968 1.00377 20.2968 1.04095 20.2968 1.44989C20.2968 1.7473 20.2597 1.85883 20.2225 1.85883C20.1481 1.85883 20.0738 2.26777 20.0738 2.75107C20.0738 2.89978 20.0366 2.97413 19.9623 2.97413C19.8879 2.97413 19.8879 3.08566 19.8879 3.4946C19.8879 3.90355 19.8507 4.01508 19.8135 4.01508C19.702 4.01508 19.6648 4.16378 19.6648 4.68426C19.6648 5.05602 19.6277 5.13037 19.5905 5.13037C19.5533 5.13037 19.5161 5.20473 19.5161 5.57649C19.5161 5.91108 19.479 6.02261 19.4418 6.02261C19.3302 6.02261 19.2931 6.2085 19.2931 6.72897C19.2931 7.06356 19.2559 7.13791 19.1815 7.13791C19.1072 7.13791 19.1072 7.24944 19.1072 7.65839C19.1072 8.14168 19.1072 8.17886 18.9957 8.21603C18.8841 8.25321 18.8841 8.29039 18.8841 8.66215C18.8841 8.95957 18.847 9.0711 18.8098 9.10827C18.7354 9.14545 18.7354 9.25698 18.7354 9.66592C18.7354 10.112 18.7354 10.1864 18.6239 10.2236C18.5124 10.2607 18.5124 10.2979 18.5124 10.7812C18.5124 11.2273 18.5124 11.3017 18.438 11.3017C18.3637 11.3017 18.3637 11.376 18.3637 11.7106C18.3637 12.0824 18.3637 12.1568 18.2521 12.1568C18.1406 12.1939 18.1406 12.2311 18.1406 12.6772C18.1406 13.049 18.1034 13.1977 18.0662 13.1977C17.7317 13.2721 17.6945 13.3836 17.6945 13.7925C17.6945 14.2758 17.6945 14.313 17.5829 14.313C17.4714 14.313 17.4714 14.3502 17.4714 14.8707C17.4714 15.3168 17.4714 15.4283 17.3971 15.4283C17.3227 15.4283 17.3227 15.5398 17.3227 16.0231V16.618H19.5533H21.8583V16.3205C21.8583 16.0975 21.8954 16.0231 21.9326 16.0231C22.007 16.0231 22.007 15.9488 22.007 15.6142C22.007 15.2424 22.007 15.1681 22.1185 15.1681C22.23 15.1309 22.23 15.0937 22.23 14.6104C22.23 14.1643 22.23 14.0899 22.3044 14.0899C22.3787 14.0899 22.3787 13.9784 22.3787 13.5695C22.3787 13.0862 22.3787 13.049 22.4903 13.0118C22.6018 12.9746 22.6018 12.9375 22.6018 12.5657C22.6018 12.2683 22.639 12.1568 22.6761 12.1196C22.7505 12.0824 22.7505 11.9709 22.7505 11.5619C22.7505 11.0786 22.7505 11.0415 22.862 11.0415C22.9736 11.0415 22.9736 11.0043 22.9736 10.4838V9.92616H26.3566H29.7397V10.2607C29.7397 10.521 29.7025 10.5953 29.6654 10.5953C29.591 10.5953 29.591 10.7069 29.591 11.153C29.591 11.6735 29.591 11.7106 29.4795 11.7106C29.3679 11.7106 29.3679 11.7478 29.3679 12.2311C29.3679 12.6401 29.3679 12.7516 29.2936 12.7516C29.2192 12.7516 29.2192 12.8259 29.2192 13.1977C29.2192 13.5695 29.2192 13.6438 29.1077 13.681C28.9962 13.7182 28.9962 13.7925 28.9962 14.2386C28.9962 14.6476 28.9962 14.7591 28.9218 14.7591C28.8475 14.7591 28.8475 14.8707 28.8475 15.3168C28.8475 15.8372 28.8475 15.8744 28.7359 15.8744C28.6244 15.8744 28.6244 15.9116 28.6244 16.2462V16.618H30.9294C32.4164 16.618 33.2343 16.5808 33.2343 16.5436C33.2343 16.5064 33.3087 16.4692 33.3458 16.4692C33.4574 16.4692 33.4574 16.4321 33.4574 16.0231C33.4574 15.6885 33.4945 15.577 33.5317 15.577C33.6061 15.577 33.6061 15.4655 33.6061 15.0194C33.6061 14.4989 33.6061 14.4617 33.7176 14.4617C33.8291 14.4617 33.8291 14.4245 33.8291 13.9412C33.8291 13.5323 33.8291 13.4208 33.9035 13.4208C33.9778 13.4208 33.9778 13.3464 33.9778 12.9746C33.9778 12.6029 33.9778 12.5285 34.0894 12.4913C34.2009 12.4542 34.2009 12.3798 34.2009 11.9337C34.2009 11.5248 34.2009 11.4132 34.2753 11.4132C34.3496 11.4132 34.3496 11.3017 34.3496 10.8556C34.3496 10.3351 34.3496 10.2979 34.4611 10.2979C34.5727 10.2979 34.5727 10.2607 34.5727 9.85181C34.5727 9.51722 34.6098 9.40569 34.647 9.40569C34.7214 9.40569 34.7214 9.29416 34.7214 8.88521C34.7214 8.40192 34.7214 8.36474 34.8329 8.32757C34.9444 8.29039 34.9444 8.25321 34.9444 7.76992C34.9444 7.28662 34.9444 7.24944 35.056 7.21227C35.1675 7.17509 35.1675 7.13791 35.1675 6.65462C35.1675 6.2085 35.1675 6.13414 35.2418 6.13414C35.3162 6.13414 35.3162 6.05979 35.3162 5.7252C35.3162 5.35343 35.3162 5.27908 35.4277 5.27908C35.5393 5.2419 35.5393 5.20473 35.5393 4.75861C35.5393 4.34967 35.5393 4.27531 35.6136 4.27531C35.688 4.27531 35.688 4.16378 35.688 3.71766C35.688 3.23437 35.688 3.16001 35.7995 3.12284C36.2828 3.12284 36.2828 3.04848 36.2828 2.71389C36.2828 2.41648 36.32 2.30495 36.3571 2.26777C36.4315 2.2306 36.4315 2.11907 36.4315 1.71012C36.4315 1.22683 36.4315 1.18965 36.543 1.18965C36.6546 1.18965 36.6546 1.15248 36.6546 0.594826V0H34.424H32.119V0.148707C32.119 0.260236 32.0818 0.297413 32.0075 0.33459C31.896 0.371766 31.896 0.408943 31.896 0.892239C31.896 1.33836 31.896 1.41271 31.8216 1.41271C31.7472 1.41271 31.7472 1.52424 31.7472 1.97036C31.7472 2.49083 31.7472 2.52801 31.6357 2.52801C31.4498 2.56519 31.4498 2.60236 31.4498 2.97413C31.4498 3.30872 31.4127 3.42025 31.3755 3.42025C31.3011 3.42025 31.2268 3.79202 31.2268 4.23814C31.2268 4.38684 31.1896 4.49837 31.1524 4.49837C31.0781 4.53555 31.0781 4.64708 31.0781 5.05602C31.0781 5.53932 31.0781 5.57649 30.9665 5.61367C30.855 5.65085 30.855 5.68802 30.855 5.94826V6.24567H27.4719H24.0145V5.98544C24.0145 5.76238 24.0517 5.7252 24.126 5.7252C24.2376 5.7252 24.2376 5.68802 24.2376 5.27908C24.2376 4.94449 24.2747 4.83296 24.3119 4.83296C24.3863 4.83296 24.3863 4.72143 24.3863 4.31249C24.3863 3.90355 24.4234 3.79202 24.4606 3.79202C24.5722 3.79202 24.6093 3.64331 24.6093 3.12284C24.6093 2.75107 24.6465 2.67672 24.6837 2.67672C24.7209 2.67672 24.758 2.60236 24.758 2.2306C24.758 1.89601 24.7952 1.78448 24.8324 1.78448C25.0926 1.85883 25.1298 1.67295 25.1298 1.15248C25.1298 0.855062 25.167 0.743533 25.2042 0.743533C25.2785 0.743533 25.2785 0.669179 25.2785 0.371766V0H22.8992H20.5199V0.520473M45.2052 0.0743533C45.2052 0.11153 45.0937 0.148707 44.9821 0.148707C44.8334 0.148707 44.7591 0.185883 44.7591 0.22306C44.7591 0.260236 44.7219 0.297413 44.6847 0.297413C44.6475 0.297413 44.6104 0.33459 44.6104 0.408943C44.6104 0.483296 44.5732 0.520473 44.4988 0.520473C44.4245 0.520473 44.3873 0.557649 44.3873 0.594826C44.3873 0.632003 44.3501 0.669179 44.3129 0.669179C44.2758 0.669179 44.2386 0.706356 44.2386 0.780709C44.2386 0.855062 44.2014 0.892239 44.1271 0.892239C44.0527 0.892239 44.0155 0.929416 44.0155 0.966592C44.0155 1.00377 43.9784 1.07812 43.9412 1.07812C43.904 1.07812 43.7181 1.26401 43.7181 1.33836C43.7181 1.37554 43.6438 1.44989 43.6066 1.44989C43.5322 1.48707 43.4951 1.52424 43.4951 1.67295C43.4951 1.78448 43.4579 1.85883 43.4207 1.85883C43.3464 1.85883 43.3464 1.93318 43.3464 2.08189C43.3464 2.26777 43.3092 2.30495 43.2348 2.30495C43.1605 2.30495 43.1233 2.34213 43.1233 2.41648C43.1233 2.49083 43.0861 2.52801 43.0489 2.52801C42.9746 2.52801 42.9746 2.60236 42.9746 2.75107C42.9746 2.93695 42.9374 2.97413 42.8631 2.97413C42.7887 2.97413 42.7515 3.01131 42.7515 3.04848C42.7515 3.08566 42.7144 3.16001 42.6772 3.16001C42.64 3.16001 42.5656 3.27154 42.5656 3.38307C42.5285 3.4946 42.4913 3.56896 42.4169 3.56896C42.3426 3.56896 42.3054 3.64331 42.3054 3.79202C42.3054 3.94072 42.2682 4.01508 42.1939 4.01508C42.1567 4.01508 42.0823 4.05225 42.0452 4.12661C42.0452 4.20096 41.9708 4.23814 41.9336 4.23814C41.8593 4.23814 41.8593 4.31249 41.8593 4.4612C41.8593 4.64708 41.8221 4.68426 41.7478 4.68426C41.6734 4.68426 41.6362 4.72143 41.6362 4.79578C41.6362 4.83296 41.5991 4.90732 41.5619 4.94449C41.5247 4.98167 41.4875 5.05602 41.4875 5.16755C41.4875 5.27908 41.4503 5.35343 41.376 5.39061C41.3016 5.42779 41.2645 5.46496 41.2645 5.61367C41.2645 5.7252 41.2273 5.79955 41.1901 5.83673C41.1529 5.87391 41.1158 5.91108 41.1158 5.94826C41.1158 5.98544 41.0414 6.05979 41.0042 6.05979C40.9299 6.09697 40.8927 6.13414 40.8927 6.28285C40.8927 6.39438 40.8555 6.46873 40.8183 6.46873C40.7812 6.46873 40.744 6.50591 40.744 6.58026C40.744 6.65462 40.7068 6.72897 40.6325 6.72897C40.5581 6.76615 40.5209 6.80332 40.5209 6.95203C40.5209 7.06356 40.4838 7.13791 40.4466 7.13791C40.3722 7.13791 40.3722 7.21227 40.3722 7.36097C40.3722 7.54686 40.335 7.58403 40.2607 7.58403C40.1863 7.58403 40.1492 7.62121 40.1492 7.65839C40.1492 7.69556 40.112 7.73274 40.0748 7.73274C40.0005 7.73274 40.0005 7.80709 40.0005 7.9558C40.0005 8.14168 39.9633 8.17886 39.8889 8.17886C39.8146 8.17886 39.7774 8.21603 39.7774 8.29039C39.7774 8.36474 39.7402 8.40192 39.703 8.40192C39.6287 8.40192 39.6287 8.47627 39.6287 8.62498C39.6287 8.81086 39.5915 8.84804 39.5172 8.84804C39.4428 8.84804 39.4056 8.88521 39.4056 8.95957C39.4056 8.99674 39.3685 9.0711 39.3313 9.10827C39.2941 9.14545 39.2569 9.18263 39.2569 9.25698C39.2569 9.33133 39.1826 9.40569 39.1454 9.48004C39.071 9.55439 39.0339 9.66592 39.0339 9.74028C39.0339 9.85181 38.9967 9.92616 38.9223 9.92616C38.8852 9.92616 38.8108 9.96334 38.7736 10.0377C38.7736 10.112 38.6993 10.1492 38.6621 10.1492C38.5877 10.1492 38.5877 10.2236 38.5877 10.3723C38.5877 10.521 38.5506 10.5953 38.4762 10.5953C38.439 10.5953 38.3647 10.6325 38.3275 10.7069C38.3275 10.7812 38.2532 10.8184 38.216 10.8184C38.1416 10.8184 38.1416 10.8928 38.1416 11.0415C38.1416 11.2273 38.1045 11.2645 38.0301 11.2645C37.9557 11.2645 37.9186 11.3017 37.9186 11.4876C37.9186 11.6363 37.8814 11.7106 37.8442 11.7106C37.807 11.7106 37.7699 11.7478 37.7699 11.785C37.7699 11.8222 37.6955 11.8965 37.6583 11.8965C37.584 11.9337 37.5468 11.9709 37.5468 12.1196C37.5468 12.2311 37.5096 12.3055 37.4724 12.3055C37.4353 12.3055 37.3981 12.3426 37.3981 12.417C37.3981 12.4913 37.3609 12.5657 37.2866 12.5657C37.2122 12.6029 37.175 12.6401 37.175 12.7888C37.175 12.9003 37.1379 12.9746 37.1007 12.9746C37.0263 12.9746 37.0263 13.049 37.0263 13.1977C37.0263 13.3836 36.9892 13.4208 36.9148 13.4208C36.8404 13.4208 36.8033 13.4579 36.8033 13.4951C36.8033 13.5323 36.7661 13.6066 36.7289 13.6066C36.6917 13.6438 36.6546 13.7182 36.6546 13.8297C36.6546 13.9412 36.6174 14.0156 36.543 14.0528C36.4687 14.0528 36.4315 14.1271 36.4315 14.2015C36.4315 14.2386 36.3943 14.313 36.3571 14.313C36.2828 14.313 36.2828 14.3874 36.2828 14.5361C36.2828 14.7219 36.2456 14.7591 36.1713 14.7591C36.0969 14.7591 35.1675 14.7963 35.1675 14.9822C35.1675 15.1309 35.1303 15.2052 35.0931 15.2052C35.056 15.2052 34.9816 15.2796 34.9816 15.3168C34.9444 15.3911 34.9073 15.4283 34.8701 15.4283C34.7957 15.4283 34.7957 15.5027 34.7957 15.6514C34.7957 15.8372 34.7586 15.8744 34.6842 15.8744C34.6098 15.8744 34.5727 15.9116 34.5727 15.9488C34.5727 15.986 34.5355 16.0603 34.4983 16.0603C34.424 16.0975 34.424 16.1718 34.424 16.3577V16.618H34.7214C34.9073 16.618 35.0188 16.5808 35.0188 16.5436C35.0188 16.5064 35.0931 16.4692 35.1303 16.4692C35.2047 16.4692 35.2418 16.4321 35.2418 16.3949C35.2418 16.3577 35.279 16.3205 35.3534 16.3205C35.3906 16.3205 35.4649 16.2462 35.5021 16.209C35.5021 16.1347 35.5764 16.0975 35.6136 16.0975C35.6508 16.0975 35.688 16.0603 35.688 16.0231C35.688 15.986 35.7623 15.9116 35.7995 15.9116C35.8739 15.9116 35.911 15.8372 35.911 15.7629C35.911 15.7257 35.9482 15.6514 35.9854 15.6514C36.0226 15.6514 36.0597 15.6142 36.0597 15.577C36.0597 15.5398 36.1341 15.4655 36.2828 15.4655C36.3943 15.4283 36.5059 15.3911 36.5059 15.3168C36.5059 15.2796 36.543 15.2424 36.5802 15.2424C36.6917 15.2424 36.952 14.9822 36.952 14.8707C36.952 14.8335 37.0263 14.7963 37.0635 14.7963C37.1379 14.7963 37.175 14.7591 37.175 14.6848C37.175 14.6104 37.2122 14.5732 37.2494 14.5732C37.2866 14.5732 37.3237 14.5361 37.3237 14.4989C37.3237 14.4617 37.3609 14.4245 37.4353 14.4245C37.5096 14.4245 37.5468 14.3874 37.5468 14.313C37.5468 14.2386 37.584 14.2015 37.6955 14.2015C37.8814 14.2015 38.1416 13.9784 38.1416 13.8297C38.1416 13.7925 38.216 13.7554 38.2532 13.7554C38.3275 13.7554 38.3647 13.7182 38.3647 13.681C38.3647 13.6438 38.4019 13.6066 38.439 13.6066C38.4762 13.6066 38.5134 13.5695 38.5134 13.4951C38.5134 13.4208 38.5506 13.3836 38.6249 13.3836C38.6993 13.3836 38.7365 13.3464 38.7365 13.3092C38.7365 13.2721 38.8108 13.1977 38.848 13.1977C38.9223 13.1977 38.9595 13.1234 38.9595 13.049C38.9595 13.0118 38.9967 12.9375 39.0339 12.9375C39.071 12.9375 39.1082 12.9003 39.1082 12.8631C39.1082 12.7888 39.1826 12.7888 39.2941 12.7888C39.4428 12.7888 39.48 12.7516 39.5172 12.6772C39.5172 12.6029 39.5915 12.5657 39.6287 12.5657C39.6659 12.5657 39.7402 12.5285 39.7402 12.4913C39.7774 12.4542 39.8146 12.417 39.8889 12.417C39.9261 12.417 40.0005 12.3798 40.0005 12.3055C40.0005 12.2311 40.0376 12.1939 40.112 12.1939C40.1863 12.1939 40.2235 12.1568 40.2235 12.1196C40.2235 12.0824 40.2607 12.0452 40.2979 12.0452C40.335 12.0452 40.3722 12.0081 40.3722 11.9337C40.3722 11.8593 40.4094 11.8222 40.4838 11.8222C40.5581 11.8222 40.5953 11.785 40.5953 11.7478C40.5953 11.7106 40.6325 11.6735 40.6696 11.6735C40.7068 11.6735 40.744 11.6363 40.744 11.5619C40.744 11.4504 40.7812 11.4504 40.967 11.4504C41.1158 11.4504 41.1901 11.4132 41.1901 11.376C41.1901 11.3389 41.2273 11.3017 41.3016 11.3017C41.3388 11.3017 41.4132 11.2645 41.4503 11.1902C41.4503 11.1158 41.5247 11.0786 41.5619 11.0786C41.5991 11.0786 41.6362 11.0415 41.6362 10.9671C41.6362 10.8928 41.6734 10.8556 41.7478 10.8556C41.8221 10.8556 41.8593 10.8184 41.8593 10.7812C41.8593 10.744 41.8965 10.7069 41.9336 10.7069C41.9708 10.7069 42.008 10.6697 42.008 10.5953C42.008 10.521 42.0452 10.4838 42.1195 10.4838C42.1939 10.4838 42.2311 10.4466 42.2311 10.4095C42.2311 10.3351 42.3054 10.3351 42.4169 10.3351C42.5656 10.3351 42.6028 10.2979 42.64 10.2236C42.64 10.1492 42.7144 10.112 42.7515 10.112C42.7887 10.112 42.8259 10.0749 42.8259 10.0377C42.8259 10.0005 42.8631 9.96334 42.9374 9.96334C43.0118 9.96334 43.0489 9.92616 43.0489 9.85181C43.0489 9.77745 43.0861 9.74028 43.1605 9.74028C43.2348 9.74028 43.272 9.7031 43.272 9.66592C43.272 9.62875 43.3092 9.59157 43.3464 9.59157C43.3835 9.59157 43.4207 9.55439 43.4207 9.48004C43.4207 9.40569 43.4579 9.36851 43.5322 9.36851C43.6066 9.36851 43.6438 9.33133 43.6438 9.29416C43.6438 9.25698 43.6809 9.2198 43.7181 9.2198C43.7925 9.2198 43.7925 9.14545 43.7925 8.99675C43.7925 8.84804 43.8297 8.77368 43.904 8.73651C43.9784 8.69933 44.0155 8.66215 44.0155 8.51345C44.0155 8.40192 44.0527 8.32757 44.0899 8.32757C44.1271 8.32757 44.1642 8.29039 44.1642 8.21603C44.1642 8.14168 44.2014 8.1045 44.2758 8.1045C44.3873 8.1045 44.3873 8.06733 44.3873 7.88145C44.3873 7.73274 44.4245 7.65839 44.4617 7.65839C44.4988 7.65839 44.536 7.62121 44.536 7.54686C44.536 7.4725 44.6104 7.43533 44.6475 7.39815C44.7591 7.36097 44.7591 7.3238 44.7591 7.13791C44.7591 6.98921 44.7962 6.91485 44.8334 6.91485C44.9078 6.91485 44.9078 6.8405 44.9078 6.69179C44.9078 6.50591 44.945 6.46873 45.0193 6.46873C45.0937 6.46873 45.1308 6.43156 45.1308 6.39438C45.1308 6.3572 45.168 6.32003 45.2052 6.32003C45.2795 6.32003 45.2795 6.24567 45.2795 6.09697C45.2795 5.91108 45.3167 5.87391 45.3911 5.87391C45.4654 5.87391 45.5026 5.83673 45.5026 5.65085C45.5026 5.46496 45.5398 5.42779 45.6141 5.42779C45.6885 5.42779 45.7257 5.39061 45.7257 5.31626C45.7257 5.2419 45.7628 5.20473 45.8 5.20473C45.8372 5.20473 45.8744 5.2419 45.8744 5.31626C45.8744 5.39061 45.9115 5.42779 45.9859 5.42779C46.0974 5.42779 46.0974 5.46496 46.0974 6.09697C46.0974 6.61744 46.0974 6.76615 46.1718 6.76615C46.2461 6.76615 46.2461 6.87768 46.2461 7.28662C46.2461 7.76992 46.2461 7.80709 46.3577 7.84427C46.432 7.88145 46.4692 7.91862 46.4692 7.9558C46.4692 8.03015 46.5435 8.03015 46.7666 8.03015C46.9897 8.03015 47.064 7.99298 47.064 7.9558C47.064 7.88145 47.1755 7.88145 47.5845 7.88145C48.0678 7.88145 48.105 7.88145 48.1421 7.76992C48.1793 7.65839 48.2165 7.65839 48.6998 7.65839C49.0716 7.65839 49.2203 7.62121 49.2574 7.58403C49.2946 7.50968 49.4433 7.4725 49.8151 7.4725H50.2984V6.8405C50.2984 6.32003 50.2984 6.2085 50.224 6.17132C50.1497 6.13414 50.1125 6.02261 50.1125 5.65085C50.1125 5.20473 50.1125 5.16755 50.001 5.13037C49.8894 5.0932 49.8894 5.05602 49.8894 4.57273C49.8894 4.16378 49.8523 4.05225 49.8151 4.01508C49.7407 3.9779 49.7407 3.86637 49.7036 3.60613C49.7036 3.12284 49.6664 2.93695 49.5548 2.93695C49.4805 2.93695 49.4805 2.82542 49.4805 2.52801C49.4805 2.19342 49.4433 2.08189 49.4061 2.08189C49.369 2.04471 49.3318 1.97036 49.3318 1.85883C49.3318 1.71012 49.2946 1.67295 49.2203 1.63577C50.0753 0.743533 50.0381 0.669179 50.0381 0.557649C50.0381 0.44612 50.001 0.371766 49.9266 0.33459C49.8523 0.33459 49.8151 0.260236 49.8151 0.22306C49.8151 0.148707 49.7407 0.148707 49.592 0.148707C49.4805 0.148707 49.369 0.11153 49.369 0.0743533C49.369 0.0371766 48.6254 0 47.2871 0C45.9487 0 45.2052 0.0371766 45.2052 0.0743533ZM59.2208 0.0743533C59.2208 0.11153 59.1092 0.148707 58.9977 0.148707C58.849 0.148707 58.7747 0.185883 58.7747 0.22306C58.7747 0.260236 58.7375 0.297413 58.6631 0.297413C58.4772 0.297413 58.3657 0.371766 58.3657 0.44612C58.3657 0.483296 58.3285 0.520473 58.2914 0.520473C58.217 0.520473 58.217 0.594826 58.217 0.743533C58.217 0.929416 58.1798 0.966592 58.1055 0.966592C58.0311 0.966592 57.9939 1.00377 57.9939 1.18965C57.9939 1.33836 57.9568 1.41271 57.9196 1.41271C57.8452 1.41271 57.8452 1.48707 57.8452 1.63577C57.8452 1.82165 57.8081 1.85883 57.7337 1.85883C57.4735 1.85883 57.4735 1.89601 57.4735 2.30495C57.4735 2.63954 57.4363 2.75107 57.3991 2.75107C57.3248 2.75107 57.2504 3.16001 57.2504 3.64331C57.2504 3.79202 57.2132 3.86637 57.1389 3.86637C57.0645 3.86637 57.0645 3.9779 57.0645 4.38684C57.0645 4.79579 57.0274 4.90732 56.9902 4.90732C56.8786 4.90732 56.8415 5.05602 56.8415 5.57649C56.8415 5.94826 56.8043 6.02261 56.7671 6.02261C56.6928 6.02261 56.6928 6.09697 56.6928 6.43156C56.6928 6.80332 56.6928 6.87768 56.5812 6.87768C56.4697 6.91485 56.4697 6.95203 56.4697 7.43533C56.4697 7.88145 56.4697 7.9558 56.3954 7.9558C56.321 7.9558 56.321 8.06733 56.321 8.47627C56.321 8.95957 56.321 8.99674 56.2095 9.03392C56.0979 9.0711 56.0979 9.10827 56.0979 9.51722C56.0979 9.85181 56.0608 9.96334 56.0236 9.96334C55.9492 9.96334 55.9492 10.0749 55.9492 10.4838C55.9492 10.9671 55.9492 11.0043 55.8377 11.0415C55.7262 11.0786 55.7262 11.1158 55.7262 11.5991C55.7262 12.0452 55.7262 12.1196 55.6518 12.1196C55.5775 12.1196 55.5775 12.1939 55.5775 12.5285C55.5775 12.9003 55.5775 12.9746 55.4659 12.9746C55.3544 13.0118 55.3544 13.049 55.3544 13.5323C55.3544 13.9784 55.3544 14.0528 55.2801 14.0528C55.2057 14.0528 55.2057 14.1643 55.2057 14.5732C55.2057 15.0565 55.2057 15.0937 55.0942 15.0937C54.9826 15.0937 54.9826 15.1309 54.9826 15.6514C54.9826 16.0975 54.9826 16.209 54.9083 16.209C54.8339 16.209 54.8339 16.2834 54.8339 16.3577V16.5064H57.2132H59.5925V16.3577C59.5925 16.1347 59.6297 16.0975 59.7041 16.0603C59.8156 16.0231 59.8156 15.986 59.8156 15.5398C59.8156 15.1681 59.8528 15.0194 59.89 15.0194C59.9643 14.9822 59.9643 14.8707 59.9643 14.4617C59.9643 13.9784 59.9643 13.9412 60.0758 13.9412C60.1874 13.9412 60.1874 13.9041 60.1874 13.5323C60.1874 13.1977 60.2245 13.0862 60.2617 13.0862C60.3361 13.049 60.3361 12.9375 60.3361 12.5285C60.3361 12.0452 60.3361 12.0081 60.4476 12.0081C60.5591 12.0081 60.5591 11.9709 60.5591 11.4876C60.5591 11.0786 60.5963 10.9671 60.6335 10.9299C60.7078 10.8928 60.7078 10.7812 60.7078 10.3723C60.7078 9.88898 60.7078 9.85181 60.8194 9.85181C60.9309 9.85181 60.9309 9.81463 60.9309 9.44286C60.9309 9.10827 60.9681 8.99675 61.0053 8.99675C61.0796 8.95957 61.0796 8.84804 61.0796 8.4391C61.0796 7.9558 61.0796 7.91862 61.1911 7.91862C61.3027 7.91862 61.3027 7.88145 61.3027 7.39815C61.3027 6.91485 61.3027 6.87768 61.4142 6.8405C61.5257 6.80332 61.5257 6.76615 61.5257 6.3572C61.5257 6.02261 61.5629 5.91108 61.6001 5.91108C61.6744 5.91108 61.6744 5.79955 61.6744 5.39061C61.6744 4.98167 61.7116 4.87014 61.7488 4.87014C61.8603 4.87014 61.8975 4.72143 61.8975 4.42402C61.8975 4.23814 61.9347 4.16378 61.9718 4.16378C62.009 4.16378 62.0462 4.12661 62.0462 4.08943C62.0462 4.05225 62.1206 3.9779 62.1577 3.9779C62.2321 3.9779 62.2693 3.90355 62.2693 3.82919C62.2693 3.75484 62.5295 3.71766 64.9832 3.71766C67.6599 3.71766 67.697 3.71766 67.697 3.82919C67.697 3.90355 67.7342 3.94072 67.7714 3.94072C67.8086 3.94072 67.8829 3.9779 67.8829 4.01508C67.9201 4.05225 67.9573 4.08943 68.0316 4.08943C68.106 4.08943 68.1432 4.16378 68.1432 4.31249C68.1432 4.4612 68.1803 4.53555 68.2175 4.53555C68.2547 4.53555 68.2919 4.57273 68.2919 4.64708C68.2919 4.72143 68.2547 4.75861 68.2175 4.75861C68.1432 4.75861 68.1432 4.87014 68.1432 5.31626C68.1432 5.76238 68.106 5.87391 68.0688 5.87391C67.9573 5.87391 67.9201 6.05979 67.9201 6.32003C67.9201 6.39438 67.8829 6.50591 67.8086 6.50591C67.7714 6.54309 67.7342 6.61744 67.7342 6.72897C67.7342 6.8405 67.697 6.91485 67.6599 6.91485C67.6227 6.91485 67.5483 6.98921 67.5112 7.13791C67.474 7.24944 67.4368 7.36097 67.3996 7.36097C67.3625 7.36097 67.3253 7.39815 67.3253 7.4725C67.3253 7.58403 67.2881 7.58403 67.1022 7.58403C66.9535 7.58403 66.8792 7.62121 66.8792 7.65839C66.8792 7.73274 66.6561 7.73274 65.2434 7.73274C63.6448 7.73274 63.6076 7.73274 63.6076 7.84427C63.6076 7.9558 63.5704 7.9558 63.05 7.9558C62.6038 7.9558 62.4923 7.9558 62.4923 8.03015C62.4923 8.06733 62.4551 8.1045 62.3808 8.1045C62.1949 8.1045 62.0834 8.17886 62.0834 8.25321C62.0834 8.29039 62.0462 8.32757 62.009 8.32757C61.9347 8.32757 61.9347 8.40192 61.9347 8.55062C61.9347 8.73651 61.8975 8.77368 61.8231 8.77368C61.7116 8.77368 61.7116 8.81086 61.7116 9.2198C61.7116 9.55439 61.6744 9.66592 61.6373 9.66592C61.5629 9.66592 61.5629 9.74028 61.5629 10.112C61.5629 10.4838 61.6001 10.5582 61.6373 10.5582C61.7116 10.5582 61.7116 10.6325 61.7116 10.8556C61.7116 11.1158 61.7488 11.153 61.8231 11.1902C61.8975 11.2273 61.9347 11.3017 61.9347 11.4132C61.9347 11.5248 61.9718 11.5991 62.009 11.6363C62.0462 11.6735 62.0834 11.7106 62.0834 11.785C62.0834 11.8222 62.1206 11.8965 62.1949 11.8965C62.3064 11.8965 62.3064 11.9337 62.3064 12.1196C62.3064 12.2683 62.3436 12.3426 62.3808 12.3426C62.418 12.3426 62.4551 12.3798 62.4551 12.4542C62.4551 12.4913 62.4923 12.5657 62.5667 12.6029C62.641 12.6401 62.6782 12.6772 62.6782 12.8259C62.6782 12.9375 62.7154 13.0118 62.7526 13.049C62.7897 13.0862 62.8269 13.1234 62.8269 13.1605C62.8269 13.1977 62.8641 13.2349 62.9384 13.2349C63.0128 13.2349 63.05 13.2721 63.05 13.3464C63.05 13.4208 63.0871 13.4579 63.1243 13.4579C63.1615 13.4579 63.1987 13.4951 63.1987 13.5695C63.1987 13.7554 63.273 13.8669 63.3474 13.8669C63.3846 13.8669 63.4217 13.9041 63.4217 13.9412C63.4217 13.9784 63.4589 14.0156 63.4961 14.0156C63.5333 14.0156 63.5704 14.0528 63.5704 14.1271C63.5704 14.313 63.6448 14.4245 63.7191 14.4245C63.7563 14.4245 63.7935 14.4989 63.7935 14.5361C63.7935 14.6104 63.8307 14.6476 63.8679 14.6476C63.905 14.6476 63.9422 14.6848 63.9422 14.7591C63.9422 14.7963 63.9794 14.8707 64.0537 14.9078C64.1281 14.945 64.1653 14.9822 64.1653 15.1309C64.1653 15.2424 64.2024 15.3168 64.2768 15.3539C64.3512 15.3911 64.3883 15.4283 64.3883 15.4655C64.3883 15.5027 64.4255 15.5398 64.4627 15.5398C64.537 15.5398 64.537 15.6142 64.537 15.7257C64.537 15.8744 64.5742 15.9116 64.6486 15.9488C64.7229 15.9488 64.7601 16.0231 64.7601 16.0975C64.7601 16.1718 64.7973 16.209 64.8344 16.209C64.8716 16.209 64.9088 16.2462 64.9088 16.2834C64.9088 16.3205 64.946 16.3577 65.0203 16.3577C65.0947 16.3577 65.1319 16.3949 65.1319 16.4321C65.1319 16.4692 66.0984 16.5064 67.8457 16.5064H70.5596V16.3577C70.5596 16.2462 70.5225 16.209 70.4481 16.209C70.3738 16.209 70.3366 16.1718 70.3366 16.0975C70.3366 16.0231 70.2994 15.986 70.2622 15.986C70.2251 15.986 70.1879 15.9488 70.1879 15.8744C70.1879 15.6885 70.1135 15.577 70.0392 15.577C70.002 15.577 69.9648 15.5398 69.9648 15.5027C69.9648 15.4655 69.9276 15.4283 69.8905 15.4283C69.8533 15.4283 69.8161 15.3911 69.8161 15.3168C69.8161 15.2424 69.7789 15.2052 69.7046 15.2052C69.5931 15.2052 69.5931 15.1681 69.5931 15.0194C69.5931 14.9078 69.5559 14.8335 69.5187 14.7963C69.4815 14.7591 69.4444 14.7219 69.4444 14.6848C69.4444 14.6476 69.4072 14.6104 69.3328 14.6104C69.2585 14.6104 69.2213 14.5732 69.2213 14.4989C69.2213 14.4245 69.1841 14.3874 69.1469 14.3874C69.1098 14.3874 69.0726 14.3502 69.0726 14.2758C69.0726 14.2386 69.0354 14.1643 68.9611 14.1271C68.8867 14.0899 68.8495 14.0528 68.8495 13.9041C68.8495 13.7925 68.8123 13.7182 68.7752 13.7182C68.738 13.7182 68.7008 13.681 68.7008 13.6066C68.7008 13.5695 68.6265 13.4951 68.5893 13.4579C68.5149 13.4579 68.4778 13.3836 68.4778 13.3092C68.4778 13.2349 68.4406 13.1977 68.3662 13.1977C68.2547 13.1977 68.2547 13.1605 68.2547 13.0118C68.2547 12.9003 68.2175 12.8259 68.1803 12.7888C68.1432 12.7516 68.106 12.7144 68.106 12.6772C68.106 12.6401 68.0688 12.6029 67.9945 12.6029C67.9201 12.6029 67.8829 12.5657 67.8829 12.4913C67.8829 12.417 67.8458 12.3798 67.8086 12.3798C67.7714 12.3798 67.7342 12.3426 67.7342 12.3055C67.7342 12.2683 67.697 12.2311 67.6227 12.2311C67.5112 12.2311 67.5112 12.1939 67.5112 12.0081C67.5112 11.8593 67.474 11.785 67.4368 11.785C67.3996 11.785 67.3625 11.7478 67.3625 11.6735C67.3625 11.5991 67.3253 11.5619 67.2509 11.5248C67.1766 11.5248 67.1394 11.4504 67.1394 11.4132C67.1394 11.3389 67.3625 11.3389 68.329 11.3389C69.4444 11.3389 69.5187 11.3389 69.5559 11.2273C69.5931 11.1158 69.6302 11.1158 69.9276 11.1158C70.1879 11.1158 70.2622 11.0786 70.2622 11.0415C70.2622 11.0043 70.2994 10.9671 70.3738 10.9671C70.5596 10.9671 70.6712 10.8928 70.6712 10.8184C70.6712 10.7812 70.7084 10.744 70.7455 10.744C70.7827 10.744 70.8199 10.7069 70.8199 10.6325C70.8199 10.5582 70.8571 10.521 70.9314 10.521C71.0058 10.521 71.0429 10.4838 71.0429 10.4466C71.0429 10.4095 71.1173 10.3351 71.2288 10.3351C71.4147 10.3351 71.4147 10.2979 71.4519 10.112C71.4519 10.0005 71.4891 9.92616 71.5634 9.92616C71.6006 9.92616 71.6378 9.88898 71.6378 9.81463C71.6378 9.74028 71.6749 9.7031 71.7493 9.7031C71.8608 9.7031 71.8608 9.66592 71.8608 9.48004C71.8608 9.33133 71.898 9.25698 71.9352 9.25698C72.0095 9.25698 72.0095 9.18263 72.0095 9.03392C72.0095 8.84804 72.0467 8.81086 72.1211 8.81086C72.2326 8.81086 72.2326 8.77368 72.2326 8.5878C72.2326 8.4391 72.2698 8.36474 72.3441 8.32757C72.4557 8.29039 72.4557 8.25321 72.4557 8.03015C72.4557 7.84427 72.4928 7.73274 72.53 7.73274C72.6044 7.69556 72.6044 7.58403 72.6044 7.17509C72.6044 6.69179 72.6044 6.65462 72.7159 6.61744C72.9389 6.54309 72.9018 2.49083 72.6787 2.49083C72.6044 2.49083 72.6044 2.41648 72.6044 2.19342C72.6044 1.97036 72.5672 1.89601 72.53 1.89601C72.4928 1.89601 72.4185 1.82165 72.4185 1.67295C72.3813 1.52424 72.3441 1.44989 72.2698 1.44989C72.2326 1.44989 72.1954 1.41271 72.1954 1.33836C72.1954 1.26401 72.1582 1.22683 72.0839 1.22683C72.0095 1.22683 71.9724 1.18965 71.9724 1.1153C71.9724 1.04095 71.9352 1.00377 71.898 1.00377C71.8608 1.00377 71.8237 0.966592 71.8237 0.929416C71.8237 0.892239 71.7865 0.855062 71.7121 0.855062C71.6378 0.855062 71.6006 0.817886 71.6006 0.743533C71.6006 0.632003 71.5634 0.632003 71.3775 0.632003C71.2288 0.632003 71.1545 0.594826 71.1545 0.557649C71.1545 0.483296 71.0801 0.483296 70.8571 0.483296C70.6712 0.483296 70.5596 0.44612 70.5596 0.408943C70.5596 0.371766 68.6265 0.33459 64.8716 0.33459C61.1168 0.33459 59.2208 0.0371766 59.2208 0.0743533ZM77.8091 0.0743533C77.8091 0.11153 77.6976 0.148707 77.586 0.148707C77.4373 0.148707 77.363 0.185883 77.363 0.22306C77.363 0.260236 77.3258 0.297413 77.2886 0.297413C77.2514 0.297413 77.2143 0.33459 77.2143 0.408943C77.2143 0.483296 77.1771 0.520473 77.1027 0.520473C77.0284 0.520473 76.9912 0.557649 76.9912 0.594826C76.9912 0.632003 76.954 0.669179 76.9169 0.669179C76.8797 0.669179 76.8425 0.706356 76.8425 0.780709C76.8425 0.855062 76.8053 0.892239 76.731 0.892239C76.6194 0.892239 76.6194 0.929416 76.6194 1.1153C76.6194 1.26401 76.5823 1.33836 76.5451 1.33836C76.4707 1.33836 76.4707 1.41271 76.4707 1.67295C76.4707 1.97036 76.4707 2.00754 76.3592 2.00754C76.2477 2.00754 76.2477 2.04471 76.2477 2.52801C76.2477 2.93695 76.2105 3.04848 76.1733 3.04848C76.0618 3.04848 76.0246 3.30872 76.0246 3.68049C76.0246 3.82919 75.9874 3.94072 75.9503 3.94072C75.8759 3.9779 75.8759 4.08943 75.8759 4.49837C75.8759 4.90732 75.8387 5.01885 75.8016 5.01885C75.69 5.01885 75.6528 5.16755 75.6528 5.68802C75.6528 6.05979 75.6157 6.13414 75.5785 6.13414C75.5041 6.13414 75.5041 6.2085 75.5041 6.58026C75.5041 6.91485 75.467 7.02638 75.4298 7.02638C75.3183 7.02638 75.2811 7.17509 75.2811 7.65839C75.2811 7.99298 75.2439 8.1045 75.2067 8.1045C75.1324 8.14168 75.1324 8.25321 75.1324 8.66215C75.1324 9.14545 75.1324 9.18263 75.0208 9.18263C74.9093 9.18263 74.9093 9.2198 74.9093 9.74028C74.9093 10.1864 74.9093 10.2979 74.835 10.2979C74.7606 10.2979 74.7606 10.3723 74.7606 10.744C74.7606 11.153 74.7606 11.1902 74.6491 11.1902C74.5375 11.1902 74.5375 11.2273 74.5375 11.7106C74.5375 12.1196 74.5375 12.2311 74.4632 12.2311C74.3888 12.2311 74.3888 12.3426 74.3888 12.7888C74.3888 13.3092 74.3888 13.3464 74.2773 13.3464C74.1658 13.3464 74.1658 13.3836 74.1658 13.7925C74.1658 14.1271 74.1286 14.2386 74.0914 14.2386C74.0171 14.2386 74.0171 14.3502 74.0171 14.7963C74.0171 15.3168 74.0171 15.3539 73.9055 15.3539C73.794 15.3539 73.794 15.3911 73.794 15.9488V16.5436H76.099H78.4039V16.3949C78.4039 16.2834 78.4411 16.2462 78.5154 16.209C78.627 16.1718 78.627 16.1347 78.627 15.6514C78.627 15.2052 78.627 15.1309 78.7013 15.1309C78.7757 15.1309 78.7757 15.0565 78.7757 14.7219C78.7757 14.3502 78.7757 14.2758 78.8872 14.2758C78.9987 14.2386 78.9987 14.2015 78.9987 13.7182C78.9987 13.2721 78.9987 13.1977 79.0731 13.1977C79.1475 13.1977 79.1475 13.0862 79.1475 12.6772C79.1475 12.1939 79.1475 12.1568 79.259 12.1196C79.3705 12.0824 79.3705 12.0452 79.3705 11.785V11.4876H83.6087C87.3263 11.4876 87.8468 11.4876 87.884 11.4132C87.9211 11.3389 88.0327 11.3389 88.3301 11.3389C88.6647 11.3389 88.739 11.3389 88.7762 11.2273C88.8134 11.1158 88.8506 11.1158 89.1108 11.1158C89.3338 11.1158 89.4082 11.0786 89.4082 11.0415C89.4082 11.0043 89.4826 10.9299 89.6313 10.9299C89.7428 10.8928 89.8543 10.8556 89.8543 10.7812C89.8543 10.744 89.9287 10.7069 89.9659 10.7069C90.0402 10.7069 90.0774 10.6697 90.0774 10.5953C90.0774 10.521 90.1146 10.4838 90.1517 10.4838C90.1889 10.4838 90.2261 10.4466 90.2261 10.4095C90.2261 10.3723 90.2633 10.3351 90.3376 10.3351C90.412 10.3351 90.4491 10.2979 90.4491 10.2236C90.4491 10.1492 90.4863 10.112 90.5235 10.112C90.5607 10.112 90.5979 10.0749 90.5979 10.0377C90.5979 10.0005 90.635 9.96334 90.7094 9.96334C90.8209 9.96334 90.8209 9.92616 90.8209 9.74028C90.8209 9.59157 90.8581 9.51722 90.8953 9.51722C90.9324 9.51722 90.9696 9.48004 90.9696 9.40569C90.9696 9.33133 91.0068 9.29416 91.0811 9.29416C91.1927 9.29416 91.1927 9.25698 91.1927 8.99675C91.1927 8.73651 91.2299 8.69933 91.3042 8.66215C91.4157 8.62498 91.4157 8.5878 91.4157 8.32757C91.4157 8.10451 91.4529 8.03015 91.4901 8.03015C91.5644 8.03015 91.5644 7.9558 91.5644 7.62121C91.5644 7.24944 91.5644 7.17509 91.676 7.17509C91.7875 7.13791 91.7875 7.10074 91.7875 6.50591C91.7875 5.98544 91.7875 5.87391 91.8619 5.87391C91.9362 5.87391 91.9362 5.68802 91.9362 4.68426C91.9362 3.68049 91.9362 3.4946 91.8619 3.4946C91.7875 3.4946 91.7875 3.42025 91.7503 3.12284C91.7503 2.63954 91.7132 2.45366 91.6016 2.45366C91.5273 2.45366 91.5273 2.3793 91.5273 2.2306C91.5273 2.08189 91.4901 2.00754 91.4529 2.00754C91.4157 2.00754 91.3414 1.93318 91.3414 1.78448C91.3042 1.63577 91.267 1.56142 91.1927 1.56142C91.1555 1.56142 91.1183 1.52424 91.1183 1.44989C91.1183 1.37554 91.0811 1.33836 91.0068 1.33836C90.9324 1.33836 90.8953 1.30118 90.8953 1.22683C90.8953 1.15248 90.8581 1.1153 90.8209 1.1153C90.7837 1.1153 90.7466 1.07812 90.7466 1.04095C90.7466 0.966592 90.6722 0.966592 90.5235 0.966592C90.3376 0.966592 90.3004 0.929416 90.3004 0.855062C90.3004 0.780709 90.2633 0.743533 90.1889 0.743533C90.1146 0.743533 90.0774 0.706356 90.0774 0.669179C90.0774 0.594826 90.003 0.594826 89.78 0.594826C89.5941 0.594826 89.4826 0.557649 89.4826 0.520473C89.4826 0.483296 87.5494 0.44612 83.7945 0.44612C80.0397 0.44612 77.8091 0.0371766 77.8091 0.0743533ZM86.1738 3.71766C86.211 3.79202 86.2854 3.82919 86.3969 3.82919C86.4712 3.82919 86.5456 3.86637 86.5828 3.90355C86.62 3.94072 86.6571 3.9779 86.7315 3.9779C86.8058 3.9779 86.843 4.05225 86.843 4.20096C86.843 4.34967 86.8802 4.42402 86.9174 4.42402C86.9917 4.42402 86.9917 4.49837 86.9917 4.83296C86.9917 5.16755 86.9545 5.27908 86.9174 5.27908C86.843 5.31626 86.843 5.42779 86.843 5.7252C86.843 6.09697 86.843 6.17132 86.7315 6.17132C86.6571 6.2085 86.6199 6.24567 86.6199 6.39438C86.6199 6.50591 86.5828 6.58026 86.5456 6.58026C86.4712 6.58026 86.4712 6.65462 86.4712 6.80332C86.4712 6.98921 86.4341 7.02638 86.3597 7.02638C86.2854 7.02638 86.2482 7.06356 86.2482 7.10074C86.2482 7.17509 86.1738 7.17509 86.0623 7.17509C85.9508 7.17509 85.8764 7.21227 85.8392 7.28662C85.8021 7.36097 85.7277 7.39815 85.579 7.39815C85.4303 7.39815 85.3559 7.43533 85.3559 7.4725C85.3559 7.54686 85.0214 7.54686 82.6421 7.54686H79.7794V7.21227C79.7794 6.95203 79.8166 6.87768 79.8538 6.87768C79.9653 6.87768 80.0025 6.69179 80.0025 6.2085C80.0025 5.91108 80.0397 5.83673 80.114 5.83673C80.1884 5.83673 80.1884 5.7252 80.1884 5.27908C80.1884 4.79579 80.1884 4.72143 80.2999 4.68426C80.4115 4.64708 80.4115 4.6099 80.4115 4.38684C80.4115 4.20096 80.4486 4.08943 80.4858 4.08943C80.523 4.05225 80.5602 3.9779 80.5602 3.86637C80.5602 3.75484 80.5973 3.68049 80.6717 3.64331C80.746 3.64331 80.7832 3.56896 80.7832 3.4946C80.8948 3.53178 86.0623 3.56896 86.1738 3.71766ZM51.5996 9.81463C51.5996 9.85181 51.5252 9.92616 51.3765 9.96334C51.265 10.0005 51.1534 10.0377 51.1534 10.0749C51.1534 10.112 51.1163 10.1492 51.0419 10.1492C50.9676 10.1492 50.9304 10.1864 50.9304 10.2607C50.9304 10.3723 50.8932 10.3723 50.7073 10.3723C50.5586 10.3723 50.4843 10.4095 50.4843 10.4466C50.4843 10.4838 50.4099 10.521 50.2612 10.521C50.0753 10.521 50.0381 10.5582 50.0381 10.6325C50.0381 10.7069 50.001 10.744 49.8151 10.744C49.6664 10.744 49.592 10.7812 49.592 10.8184C49.592 10.8928 49.5177 10.8928 49.369 10.8928C49.1831 10.8928 49.1459 10.9299 49.1459 11.0043C49.1459 11.0786 49.1087 11.1158 48.9228 11.1158C48.7741 11.1158 48.6998 11.153 48.6998 11.1902C48.6998 11.2645 48.6254 11.2645 48.4767 11.2645C48.2908 11.2645 48.2537 11.3017 48.2537 11.376C48.2537 11.4504 48.2165 11.4876 48.0306 11.4876C47.8819 11.4876 47.8075 11.5248 47.8075 11.5619C47.8075 11.5991 47.8076 11.8965 47.6588 11.8965C47.473 11.8965 47.4358 11.9337 47.4358 12.0081C47.4358 12.1196 47.3986 12.1196 47.2127 12.1196C47.064 12.1196 46.9897 12.1568 46.9897 12.1939C46.9897 12.2683 46.9153 12.2683 46.7666 12.2683C46.5807 12.2683 46.5435 12.3055 46.5435 12.3798C46.5435 12.4542 46.5064 12.4913 46.432 12.4913C46.3205 12.4913 46.3205 12.5285 46.3205 12.7144V13.0118H47.3243H48.328V13.681C48.328 14.2015 48.328 14.3502 48.4024 14.3502C48.4767 14.3502 48.4767 14.4617 48.4767 14.8707C48.4767 15.3539 48.4767 15.3911 48.5883 15.4283C48.6998 15.4655 48.6998 15.5027 48.6998 16.0603V16.6551H51.0791H53.4584V16.2834C53.4584 15.986 53.4212 15.9116 53.384 15.9116C53.3097 15.9116 53.3097 15.8372 53.3097 15.4655C53.3097 15.0565 53.3097 15.0194 53.1982 15.0194C53.0866 15.0194 53.0866 14.9822 53.0866 14.4617C53.0866 14.0156 53.0866 13.9041 53.0123 13.9041C52.9379 13.9041 52.9379 13.7925 52.9379 13.3836C52.9379 12.9003 52.9379 12.8631 52.8264 12.8259C52.7149 12.7888 52.7149 12.7516 52.7149 12.2683C52.7149 11.8593 52.7149 11.7478 52.6405 11.7478C52.5662 11.7478 52.5662 11.6363 52.5662 11.2273C52.5662 10.744 52.5662 10.7069 52.4546 10.6697C52.3431 10.6325 52.3431 10.5953 52.3431 10.2236V9.81463H51.897C51.6739 9.74028 51.5996 9.74028 51.5996 9.81463Z" fill="white"/>
<path fill-rule="evenodd" clip-rule="evenodd" d="M99.2219 0.0743533C99.2219 0.11153 99.0732 0.148707 98.9245 0.148707C98.7014 0.148707 98.6271 0.185883 98.6271 0.22306C98.6271 0.260236 98.5899 0.297413 98.5156 0.297413C98.4412 0.297413 98.404 0.33459 98.404 0.408943C98.404 0.483296 98.3669 0.520473 98.3297 0.520473C98.2181 0.520473 97.9579 0.817886 97.9579 0.966592C97.9579 1.07812 97.9207 1.1153 97.8464 1.15248C97.772 1.18965 97.7348 1.22683 97.7348 1.37554C97.7348 1.48707 97.6977 1.56142 97.6605 1.5986C97.5861 1.63577 97.5861 1.71012 97.5861 1.93318C97.5861 2.19342 97.549 2.2306 97.4746 2.26777C97.2516 2.34213 97.2516 2.41648 97.2516 2.89978C97.2516 3.3459 97.2515 3.42025 97.1772 3.42025C97.1028 3.42025 97.1029 3.53178 97.1029 3.94072C97.1029 4.42402 97.1028 4.4612 96.9913 4.49837C96.8798 4.53555 96.8798 4.57273 96.8798 4.94449C96.8798 5.2419 96.8426 5.35343 96.8054 5.39061C96.7311 5.42779 96.7311 5.53932 96.7311 5.94826C96.7311 6.39438 96.7311 6.46873 96.6195 6.50591C96.508 6.54309 96.508 6.58026 96.508 7.06356C96.508 7.50968 96.508 7.58403 96.4337 7.58403C96.3593 7.58403 96.3593 7.65839 96.3593 7.99297C96.3593 8.36474 96.3593 8.43909 96.2478 8.43909C96.1362 8.47627 96.1363 8.51345 96.1363 8.95957C96.1363 9.33133 96.0991 9.48004 96.0619 9.48004C95.9875 9.51722 95.9876 9.62875 95.9876 10.0377C95.9876 10.521 95.9875 10.5582 95.876 10.5582C95.7645 10.5582 95.7645 10.5953 95.7645 10.8184C95.7645 10.9671 95.7273 11.1158 95.6901 11.153C95.653 11.1902 95.6158 11.4504 95.5786 11.7106C95.5786 11.9709 95.5414 12.1939 95.5042 12.1939C95.4671 12.1939 95.4671 12.2683 95.4671 12.3426C95.4671 12.417 95.4299 12.4913 95.3927 12.4913C95.3555 12.4913 95.3184 12.6401 95.3184 12.8259C95.3184 13.0118 95.2812 13.2721 95.244 13.3836C95.1697 13.5323 95.1697 13.8669 95.1697 14.5361C95.1697 15.2796 95.1697 15.5027 95.244 15.577C95.2812 15.6142 95.3184 15.7257 95.3184 15.8372C95.3184 15.9488 95.3555 15.9859 95.4299 15.9859C95.5043 15.9859 95.5414 16.0231 95.5414 16.0975C95.5414 16.1718 95.5786 16.209 95.6158 16.209C95.653 16.209 95.6901 16.2462 95.6901 16.2834C95.6901 16.3577 95.7645 16.3577 95.9132 16.3577C96.0247 16.3577 96.1363 16.3949 96.1363 16.4321C96.1363 16.4692 98.1438 16.5064 102.047 16.5064C105.951 16.5064 107.958 16.4692 107.958 16.4321C107.958 16.3949 108.144 16.3577 108.405 16.3577C108.739 16.3577 108.851 16.3205 108.851 16.2834C108.851 16.209 108.925 16.209 109.037 16.209C109.185 16.209 109.222 16.1718 109.26 16.0975C109.297 16.0231 109.334 15.9859 109.52 15.9859C109.669 15.9859 109.743 15.9488 109.743 15.9116C109.743 15.8744 109.78 15.8001 109.854 15.8001C109.929 15.8001 109.966 15.7257 109.966 15.6514C109.966 15.6142 110.003 15.5398 110.04 15.5398C110.077 15.5398 110.115 15.5027 110.115 15.4655C110.115 15.4283 110.152 15.3539 110.226 15.3539C110.301 15.3539 110.338 15.2796 110.338 15.2052C110.338 15.1681 110.375 15.0937 110.412 15.0937C110.486 15.0937 110.486 15.0194 110.486 14.8707C110.486 14.6848 110.524 14.6476 110.598 14.6476C110.709 14.6476 110.71 14.6104 110.71 14.4245C110.71 14.2758 110.747 14.2015 110.784 14.2015C110.858 14.2015 110.858 14.1271 110.858 13.9784C110.858 13.8297 110.895 13.7554 110.97 13.7182C111.081 13.681 111.081 13.6438 111.081 13.3836C111.081 13.1605 111.118 13.0862 111.156 13.0862C111.23 13.0862 111.23 13.0118 111.23 12.6772C111.23 12.3055 111.23 12.2311 111.341 12.2311C111.453 12.1939 111.453 12.1568 111.453 10.9299C111.453 9.7031 111.453 9.66592 111.341 9.66592C111.23 9.66592 111.23 9.62875 111.23 9.36851C111.23 9.14545 111.193 9.0711 111.156 9.03392C111.118 8.99674 111.081 8.95957 111.081 8.88521C111.081 8.84804 111.044 8.77368 110.97 8.77368C110.895 8.77368 110.858 8.73651 110.858 8.66215C110.858 8.5878 110.821 8.55062 110.784 8.55062C110.747 8.55062 110.71 8.51345 110.71 8.47627C110.71 8.43909 110.672 8.40192 110.598 8.40192C110.486 8.40192 110.486 8.36474 110.486 8.17886C110.486 7.99297 110.486 7.9558 110.672 7.9558C110.821 7.9558 110.858 7.91862 110.895 7.84427C110.933 7.73274 110.97 7.73274 111.156 7.73274C111.304 7.73274 111.379 7.69556 111.379 7.65839C111.379 7.62121 111.416 7.58403 111.49 7.58403C111.565 7.58403 111.602 7.54686 111.639 7.4725C111.676 7.39815 111.713 7.36097 111.75 7.36097C111.788 7.36097 111.825 7.3238 111.825 7.28662C111.825 7.24944 111.862 7.17509 111.936 7.17509C112.011 7.13791 112.048 7.06356 112.048 6.95203C112.048 6.8405 112.085 6.76615 112.122 6.76615C112.197 6.76615 112.197 6.69179 112.197 6.50591C112.197 6.28285 112.234 6.24567 112.308 6.24567C112.42 6.24567 112.42 6.2085 112.42 5.94826C112.42 5.7252 112.457 5.65085 112.494 5.61367C112.568 5.57649 112.568 5.31626 112.568 3.86637C112.568 2.3793 112.568 2.15624 112.494 2.15624C112.42 2.15624 112.42 2.08189 112.42 1.93318C112.42 1.7473 112.382 1.71012 112.308 1.67295C112.234 1.63577 112.197 1.59859 112.197 1.41271C112.197 1.26401 112.159 1.18965 112.122 1.18965C112.085 1.18965 112.048 1.15248 112.048 1.1153C112.048 1.07812 112.011 1.04095 111.936 1.04095C111.862 1.04095 111.825 1.00377 111.825 0.929416C111.825 0.855062 111.788 0.817886 111.75 0.817886C111.713 0.817886 111.676 0.780709 111.676 0.743533C111.676 0.706356 111.639 0.669179 111.565 0.669179C111.49 0.669179 111.453 0.632003 111.453 0.557649C111.453 0.44612 111.416 0.44612 111.23 0.44612C111.081 0.44612 111.007 0.408943 111.007 0.371766C111.007 0.297413 110.933 0.297413 110.784 0.297413C110.672 0.297413 110.561 0.260236 110.561 0.22306C110.561 0.185883 108.665 0.148707 104.984 0.148707C101.118 0 99.2219 0.0371766 99.2219 0.0743533ZM117.624 0.0743533C117.624 0.11153 117.476 0.148707 117.29 0.148707C117.03 0.148707 116.955 0.185883 116.955 0.22306C116.955 0.260236 116.918 0.297413 116.881 0.297413C116.844 0.297413 116.769 0.371766 116.769 0.408943C116.769 0.483296 116.695 0.520473 116.621 0.520473C116.546 0.520473 116.509 0.557649 116.509 0.594826C116.509 0.632003 116.472 0.743533 116.435 0.743533C116.398 0.743533 116.323 0.817886 116.286 0.855062C116.286 0.929416 116.212 0.966592 116.174 0.966592C116.1 0.966592 116.1 1.04095 116.1 1.18965C116.1 1.33836 116.063 1.41271 116.026 1.41271C115.914 1.41271 115.877 1.56142 115.877 1.93318C115.877 2.19342 115.84 2.26777 115.803 2.26777C115.728 2.26777 115.728 2.34213 115.728 2.67672C115.728 3.04848 115.728 3.12284 115.617 3.12284C115.505 3.16001 115.505 3.19719 115.505 3.68049C115.505 4.12661 115.505 4.20096 115.431 4.20096C115.357 4.20096 115.357 4.31249 115.357 4.72143C115.357 5.20473 115.357 5.2419 115.245 5.27908C115.134 5.31626 115.134 5.35343 115.134 5.76238C115.134 6.09697 115.096 6.2085 115.059 6.2085C114.985 6.2085 114.985 6.32003 114.985 6.72897C114.985 7.21227 114.985 7.24944 114.873 7.28662C114.762 7.3238 114.762 7.36097 114.762 7.84427C114.762 8.29039 114.762 8.36474 114.687 8.36474C114.613 8.36474 114.613 8.43909 114.613 8.77368C114.613 9.14545 114.613 9.2198 114.502 9.2198C114.39 9.25698 114.39 9.29416 114.39 9.77745C114.39 10.2236 114.39 10.2979 114.316 10.2979C114.241 10.2979 114.241 10.4095 114.241 10.8184C114.241 11.3017 114.241 11.3389 114.13 11.3389C114.018 11.3389 114.018 11.376 114.018 11.8965C114.018 12.3426 114.018 12.4542 113.944 12.4542C113.87 12.4542 113.87 12.5285 113.87 12.9003C113.87 13.3092 113.87 13.3464 113.758 13.3464C113.646 13.3464 113.646 13.3836 113.646 14.4245C113.646 15.4655 113.646 15.5027 113.758 15.5027C113.87 15.5027 113.87 15.5398 113.87 15.7257C113.87 15.8744 113.907 15.9488 113.944 15.9488C113.981 15.9488 114.018 15.9859 114.018 16.0603C114.018 16.1347 114.055 16.1718 114.13 16.1718C114.204 16.1718 114.241 16.209 114.241 16.2462C114.241 16.3205 114.316 16.3205 114.464 16.3205C114.576 16.3205 114.687 16.3577 114.687 16.3949C114.687 16.4321 116.881 16.4692 121.119 16.4692H127.551V15.9859C127.551 15.577 127.551 15.5027 127.625 15.5027C127.699 15.5027 127.699 15.3911 127.699 14.945C127.699 14.4245 127.699 14.3874 127.811 14.3874C127.922 14.3874 127.922 14.3502 127.922 13.9412C127.922 13.6066 127.959 13.4951 127.997 13.4951C128.071 13.4951 128.071 13.4208 128.071 13.1977V13.0118H123.387C119.149 13.0118 118.702 13.0118 118.702 12.9003C118.702 12.8631 118.665 12.7888 118.591 12.7516C118.442 12.7144 118.405 12.3055 118.554 12.3055C118.665 12.3055 118.702 12.1568 118.702 11.6735C118.702 11.3389 118.74 11.2273 118.777 11.2273C118.851 11.1902 118.851 11.0786 118.851 10.6697C118.851 10.1864 118.851 10.1492 118.963 10.1492C119.037 10.1492 119.074 10.112 119.074 10.0377C119.074 9.92616 119.111 9.92616 123.758 9.88898H128.443V9.48004C128.443 9.14545 128.48 9.0711 128.554 9.0711C128.629 9.0711 128.629 8.95957 128.629 8.55062C128.629 8.06733 128.629 8.03015 128.74 7.99297C128.852 7.9558 128.852 7.91862 128.852 7.50968C128.852 7.17509 128.889 7.06356 128.926 7.06356C129 7.06356 129 6.98921 129 6.76615V6.46873H124.279C119.706 6.46873 119.558 6.46873 119.558 6.3572C119.558 6.28285 119.595 6.2085 119.669 6.2085C119.781 6.17132 119.781 6.13414 119.781 5.68802C119.781 5.31626 119.818 5.16755 119.855 5.16755C119.929 5.13037 119.929 5.01884 119.929 4.72143C119.929 4.38684 119.929 4.31249 120.041 4.27531C120.115 4.23814 120.152 4.16378 120.152 4.05225C120.152 3.94072 120.19 3.86637 120.227 3.86637C120.264 3.86637 120.301 3.82919 120.301 3.75484C120.301 3.64331 120.338 3.64331 120.561 3.64331C120.747 3.64331 120.822 3.60613 120.822 3.56896C120.822 3.4946 121.342 3.4946 125.283 3.4946H129.744V3.08566C129.744 2.78825 129.744 2.75107 129.855 2.75107C129.967 2.75107 129.967 2.71389 129.967 2.30495C129.967 1.97036 130.004 1.85883 130.041 1.85883C130.116 1.85883 130.116 1.7473 130.116 1.30118C130.116 0.780709 130.116 0.743533 130.227 0.743533C130.339 0.743533 130.339 0.706356 130.339 0.371766V0H123.907C119.818 0 117.624 0.0371766 117.624 0.0743533ZM131.603 0.706356C131.528 1.1153 131.454 1.41271 131.454 1.41271C131.417 1.41271 131.417 1.52424 131.417 1.67295C131.417 1.82165 131.38 1.97036 131.343 1.97036C131.305 2.00754 131.268 2.11907 131.268 2.2306C131.268 2.34213 131.231 2.49083 131.194 2.52801C131.119 2.60236 131.082 3.3459 131.157 3.45743C131.194 3.4946 132.012 3.53178 134.131 3.53178H137.068V3.79202C137.068 3.94072 137.031 4.08943 136.993 4.16378C136.956 4.23814 136.919 4.34967 136.882 4.42402C136.845 4.49837 136.807 4.64708 136.807 4.79578C136.807 4.94449 136.77 5.05602 136.77 5.0932C136.733 5.13037 136.696 5.31626 136.659 5.57649C136.622 5.98544 136.584 6.17132 136.436 6.43156C136.399 6.50591 136.399 6.69179 136.399 6.87768C136.399 7.06356 136.361 7.24944 136.324 7.28662C136.287 7.3238 136.25 7.50968 136.213 7.73274C136.213 7.9558 136.138 8.1045 136.138 8.1045C136.101 8.1045 136.101 8.21603 136.101 8.32756C136.101 8.43909 136.064 8.5878 136.064 8.62498C135.99 8.69933 135.99 8.77368 135.878 9.74028C135.841 10.0377 135.767 10.2979 135.767 10.2979C135.729 10.2979 135.729 10.3723 135.729 10.4466C135.729 10.521 135.692 10.5953 135.655 10.5953C135.618 10.5953 135.581 10.7812 135.581 10.9671C135.581 11.1902 135.543 11.376 135.543 11.4132C135.469 11.4876 135.283 12.3055 135.283 12.5657C135.283 12.6772 135.246 12.7516 135.209 12.7516C135.172 12.7516 135.135 12.8631 135.135 13.0118C135.135 13.1605 135.097 13.3092 135.097 13.3464C135.023 13.4208 134.911 13.9412 134.874 14.3874C134.837 14.5732 134.8 14.7591 134.763 14.7591C134.726 14.7591 134.688 14.8707 134.688 15.0194C134.688 15.1681 134.651 15.3168 134.614 15.3168C134.577 15.3168 134.54 15.4655 134.54 15.6142C134.54 15.7629 134.503 15.8744 134.465 15.8744C134.428 15.8744 134.391 16.0231 134.391 16.2462V16.618H136.807H139.224V16.1347C139.224 15.6885 139.224 15.6514 139.336 15.6142C139.447 15.577 139.447 15.5398 139.447 15.0565C139.447 14.6104 139.447 14.5361 139.521 14.5361C139.596 14.5361 139.596 14.4245 139.596 14.0156C139.596 13.5323 139.596 13.4951 139.707 13.4579C139.819 13.4208 139.819 13.3836 139.819 13.0118C139.819 12.7144 139.856 12.6029 139.893 12.5657C139.968 12.5285 139.968 12.417 139.968 12.008C139.968 11.5248 139.968 11.4876 140.079 11.4504C140.191 11.4132 140.191 11.376 140.191 10.8928C140.191 10.4466 140.191 10.3723 140.265 10.3723C140.339 10.3723 140.339 10.2979 140.339 9.96334C140.339 9.59157 140.339 9.51722 140.451 9.51722C140.562 9.48004 140.562 9.44286 140.562 8.99674C140.562 8.5878 140.562 8.51345 140.637 8.51345C140.711 8.51345 140.711 8.40192 140.711 7.9558C140.711 7.43533 140.711 7.39815 140.823 7.39815C140.934 7.39815 140.934 7.36097 140.934 6.8405C140.934 6.39438 140.934 6.28285 141.008 6.28285C141.083 6.28285 141.083 6.2085 141.083 5.83673C141.083 5.42779 141.083 5.39061 141.194 5.39061C141.306 5.39061 141.306 5.35343 141.306 4.87014C141.306 4.4612 141.306 4.34967 141.38 4.34967C141.455 4.34967 141.455 4.27531 141.455 4.01508V3.60613H144.503H147.552V3.38307C147.552 3.19719 147.589 3.16001 147.663 3.16001C147.775 3.16001 147.775 3.12284 147.775 2.75107C147.775 2.41648 147.812 2.30495 147.849 2.30495C147.923 2.26777 147.923 2.15624 147.923 1.7473C147.923 1.44989 147.96 1.22683 147.998 1.22683C148.035 1.22683 148.072 1.00377 148.072 0.632003V0H139.67H131.268L131.603 0.706356ZM106.917 3.4946C106.917 3.56896 106.992 3.56896 107.215 3.56896C107.475 3.56896 107.512 3.60613 107.549 3.68049C107.549 3.75484 107.624 3.79202 107.698 3.79202C107.773 3.79202 107.81 3.86637 107.81 4.01508C107.81 4.16378 107.847 4.23814 107.884 4.23814C107.921 4.23814 107.958 4.27531 107.958 4.31249C107.958 4.34967 107.921 4.38684 107.884 4.38684C107.81 4.38684 107.81 4.46119 107.81 4.79578C107.81 5.16755 107.81 5.2419 107.698 5.2419C107.624 5.27908 107.587 5.31626 107.587 5.46496C107.587 5.57649 107.549 5.65085 107.512 5.68802C107.475 5.7252 107.438 5.76238 107.438 5.83673C107.438 5.87391 107.401 5.94826 107.326 5.94826C107.252 5.94826 107.215 5.98544 107.215 6.05979C107.215 6.17132 107.178 6.17132 106.992 6.17132C106.843 6.17132 106.769 6.2085 106.769 6.24567C106.769 6.32003 106.434 6.32003 104.055 6.32003C101.378 6.32003 101.341 6.32003 101.341 6.2085C101.341 6.13414 101.378 6.09697 101.415 6.09697C101.49 6.09697 101.49 6.02261 101.49 5.65085C101.49 5.2419 101.49 5.20473 101.601 5.20473C101.713 5.20473 101.713 5.16755 101.713 4.68426C101.713 4.27531 101.713 4.16378 101.787 4.16378C101.861 4.16378 101.861 4.08943 101.861 3.94072C101.861 3.79202 101.899 3.71766 101.973 3.68049C102.047 3.68049 102.085 3.60613 102.085 3.53178C102.085 3.45743 102.159 3.42025 102.308 3.42025C102.456 3.42025 102.531 3.38307 102.531 3.3459C102.531 3.27154 102.828 3.27154 104.724 3.27154C106.62 3.42025 106.917 3.42025 106.917 3.4946ZM55.0561 6.58026C55.0561 6.69179 55.0189 6.69179 54.5356 6.69179C54.1267 6.69179 54.0151 6.69179 54.0151 6.76615C54.0151 6.8405 53.9036 6.8405 53.4575 6.8405C52.937 6.8405 52.8998 6.8405 52.8998 6.95203C52.8998 7.06356 52.8627 7.06356 52.3422 7.06356C51.8961 7.06356 51.7845 7.06356 51.7845 7.13791C51.7845 7.21227 51.673 7.21227 51.2641 7.21227C50.7808 7.21227 50.7436 7.21227 50.7436 7.3238C50.7436 7.43533 50.7064 7.43533 50.1859 7.43533C49.7398 7.43533 49.6283 7.43533 49.6283 7.50968C49.6283 7.58403 49.5168 7.58403 49.1078 7.58403C48.6245 7.58403 48.5873 7.58403 48.5502 7.69556C48.513 7.80709 48.4758 7.80709 47.9925 7.80709C47.5836 7.80709 47.472 7.80709 47.472 7.88145C47.472 7.9558 47.3605 7.9558 46.9516 7.9558C46.4683 7.9558 46.4311 7.9558 46.3939 8.06733C46.3567 8.17886 46.3196 8.17886 45.8363 8.17886C45.4273 8.17886 45.3158 8.21603 45.2786 8.25321C45.2414 8.32756 45.1299 8.32756 44.7582 8.32756C44.312 8.32756 44.2749 8.32756 44.2377 8.43909C44.2005 8.51345 44.1633 8.55062 43.9774 8.55062H43.7172V9.10827C43.7172 9.62875 43.7172 9.66592 43.6057 9.66592C43.4941 9.66592 43.4941 9.7031 43.4941 9.96334C43.4941 10.1864 43.457 10.2607 43.4198 10.2607C43.3826 10.2607 43.3454 10.2979 43.3454 10.3723C43.3454 10.4466 43.3083 10.4838 43.2339 10.4838C43.1596 10.4838 43.1224 10.521 43.1224 10.5582C43.1224 10.5953 43.0852 10.6325 43.048 10.6325C43.0108 10.6325 42.9737 10.6697 42.9737 10.744C42.9737 10.8184 42.9365 10.8556 42.8621 10.8556C42.7878 10.8556 42.7506 10.8928 42.7506 10.9299C42.7506 10.9671 42.7134 11.0043 42.6763 11.0043C42.6391 11.0043 42.5647 11.0415 42.5647 11.1158C42.5276 11.1902 42.4904 11.2273 42.4532 11.2273C42.416 11.2273 42.3788 11.2645 42.3788 11.3017C42.3788 11.376 42.3045 11.376 42.193 11.376C42.0443 11.376 42.0071 11.4132 41.9699 11.4876C41.9699 11.5619 41.8955 11.5991 41.8584 11.5991C41.8212 11.5991 41.7468 11.6363 41.7468 11.6735C41.7097 11.7106 41.6725 11.7478 41.6353 11.7478C41.5981 11.7478 41.561 11.8222 41.561 11.8593C41.561 11.9337 41.5238 11.9709 41.4494 11.9709C41.3751 11.9709 41.3379 12.0081 41.3379 12.0452C41.3379 12.0824 41.3007 12.1196 41.2635 12.1196C41.2264 12.1196 41.1892 12.1568 41.1892 12.2311C41.1892 12.3055 41.152 12.3426 41.0777 12.3426C41.0033 12.3426 40.9661 12.3798 40.9661 12.417C40.9661 12.4542 40.929 12.4913 40.8546 12.4913C40.7803 12.4913 40.6687 12.5657 40.5944 12.6029C40.52 12.6772 40.4457 12.7144 40.4085 12.7144C40.3713 12.7144 40.3341 12.7516 40.3341 12.7888C40.3341 12.8259 40.297 12.8631 40.2226 12.8631C40.1854 12.8631 40.1111 12.9375 40.0739 12.9746C40.0739 13.049 39.9995 13.0862 39.9624 13.0862C39.9252 13.0862 39.888 13.1234 39.888 13.1605C39.888 13.1977 39.8508 13.2349 39.7765 13.2349C39.7393 13.2349 39.665 13.3092 39.6278 13.3464C39.6278 13.4208 39.5534 13.4579 39.5162 13.4579C39.4791 13.4579 39.4419 13.5323 39.4419 13.5695C39.4419 13.6438 39.4047 13.681 39.3304 13.681C39.256 13.681 39.2188 13.7182 39.2188 13.7554C39.2188 13.8297 39.1445 13.8297 39.0329 13.8297C38.8842 13.8297 38.8471 13.8669 38.8099 13.9412C38.8099 14.0156 38.7355 14.0528 38.6984 14.0528C38.6612 14.0528 38.5868 14.0899 38.5868 14.1271C38.5497 14.1643 38.5125 14.2015 38.4381 14.2015C38.4009 14.2015 38.3266 14.2386 38.3266 14.313C38.3266 14.3874 38.2894 14.4245 38.2151 14.4245C38.1407 14.4245 38.1035 14.4617 38.1035 14.4989C38.1035 14.5361 38.0664 14.5732 38.0292 14.5732C37.992 14.5732 37.9548 14.6104 37.9548 14.6848C37.9548 14.7591 37.9176 14.7963 37.8433 14.7963C37.7689 14.7963 37.7318 14.8335 37.7318 14.8707C37.7318 14.945 37.6574 14.945 37.5459 14.945C37.36 14.945 37.2856 15.0194 37.2856 15.3168C37.2856 15.5027 37.2856 15.5027 37.6202 15.5027C37.8061 15.5027 37.9548 15.4655 37.9548 15.4283C37.9548 15.3911 38.0292 15.3539 38.1407 15.3539C38.2522 15.3539 38.3266 15.3168 38.3638 15.2796C38.4009 15.2424 38.4381 15.2052 38.4753 15.2052C38.5125 15.2052 38.5497 15.1309 38.5497 15.0937C38.5497 14.9822 38.5868 14.9822 38.7727 14.9822C38.9214 14.9822 38.9958 14.945 38.9958 14.9078C38.9958 14.8335 39.0701 14.8335 39.1817 14.8335C39.2932 14.8335 39.4047 14.7963 39.4419 14.7219C39.4791 14.6476 39.5906 14.6104 39.7021 14.6104C39.8137 14.6104 39.888 14.5732 39.888 14.5361C39.888 14.4989 39.9252 14.4617 39.9995 14.4617C40.0739 14.4617 40.1111 14.4245 40.1111 14.3502C40.1111 14.2386 40.1482 14.2386 40.3341 14.2386C40.4828 14.2386 40.5572 14.2015 40.5572 14.1643C40.5572 14.0899 40.6315 14.0899 40.7431 14.0899C40.8918 14.0899 40.929 14.0528 40.9661 13.9784C41.0033 13.9041 41.0405 13.8669 41.2264 13.8669C41.4123 13.8669 41.4494 13.8297 41.4494 13.7554C41.4494 13.681 41.4866 13.6438 41.561 13.6438C41.6353 13.6438 41.6725 13.6066 41.6725 13.5695C41.6725 13.4951 41.7468 13.4951 41.8955 13.4951C42.0814 13.4951 42.1186 13.4579 42.1186 13.3836C42.1186 13.2721 42.1558 13.2721 42.3417 13.2721C42.4904 13.2721 42.5647 13.2349 42.5647 13.1977C42.5647 13.1233 42.6391 13.1233 42.7506 13.1233C42.8993 13.1233 42.9365 13.0862 42.9737 13.0118C43.0108 12.9375 43.048 12.9003 43.2339 12.9003C43.3826 12.9003 43.457 12.8631 43.457 12.8259C43.457 12.7516 43.5313 12.7516 43.6429 12.7516C43.7916 12.7516 43.8287 12.7144 43.8659 12.6401C43.9031 12.5657 43.9403 12.5285 44.1261 12.5285C44.2749 12.5285 44.3492 12.4913 44.3492 12.4542C44.3492 12.3798 44.4236 12.3798 44.5351 12.3798C44.6838 12.3798 44.721 12.3426 44.7582 12.2683C44.7953 12.1568 44.8325 12.1568 45.0184 12.1568C45.1671 12.1568 45.2414 12.1196 45.2414 12.0824C45.2414 12.0452 45.2786 12.008 45.353 12.008C45.4273 12.008 45.4645 11.9709 45.4645 11.8965C45.4645 11.785 45.5017 11.785 45.6876 11.785C45.8363 11.785 45.9106 11.7478 45.9106 11.7106C45.9106 11.6363 45.985 11.6363 46.1337 11.6363C46.3196 11.6363 46.3567 11.5991 46.3567 11.5248C46.3567 11.4132 46.3939 11.4132 46.5798 11.4132C46.7285 11.4132 46.8029 11.376 46.8029 11.3389C46.8029 11.3017 46.8772 11.2645 47.0259 11.2645C47.2118 11.2645 47.249 11.2273 47.249 11.153C47.249 11.0786 47.2862 11.0415 47.472 11.0415C47.6208 11.0415 47.6951 11.0043 47.6951 10.9671C47.6951 10.8928 47.7695 10.8928 47.9182 10.8928C48.104 10.8928 48.1412 10.8556 48.1412 10.7812C48.1412 10.7069 48.1784 10.6697 48.3643 10.6697C48.513 10.6697 48.5873 10.6325 48.5873 10.5953C48.5873 10.521 48.6617 10.521 48.8104 10.521C48.9963 10.521 49.0335 10.4838 49.0335 10.4095C49.0335 10.3351 49.0706 10.2979 49.2565 10.2979C49.4424 10.2979 49.4796 10.2607 49.4796 10.1864C49.4796 10.112 49.5168 10.0749 49.7026 10.0749C49.8513 10.0749 49.9257 10.0377 49.9257 10.0005C49.9257 9.92616 50.0001 9.92616 50.1488 9.92616C50.3346 9.92616 50.3718 9.88898 50.3718 9.81463C50.3718 9.7031 50.409 9.7031 50.6321 9.7031C50.8179 9.7031 50.8923 9.66592 50.8923 9.62875C50.8923 9.55439 50.9666 9.55439 51.0782 9.55439C51.2269 9.55439 51.2641 9.51722 51.3012 9.44286C51.3384 9.36851 51.3756 9.33133 51.5243 9.33133C51.6358 9.33133 51.7102 9.29416 51.7474 9.25698C51.7845 9.2198 51.8589 9.18263 51.9704 9.18263C52.1191 9.18263 52.1563 9.14545 52.1935 9.0711C52.2307 8.95957 52.2678 8.95957 52.4537 8.95957C52.6024 8.95957 52.6768 8.92239 52.6768 8.88521C52.6768 8.81086 52.7511 8.81086 52.8627 8.81086C53.0114 8.81086 53.0485 8.77368 53.0857 8.69933C53.1229 8.62498 53.1601 8.5878 53.3459 8.5878C53.4947 8.5878 53.569 8.55062 53.569 8.51345C53.569 8.43909 53.6434 8.43909 53.7549 8.43909C53.9036 8.43909 53.9408 8.40192 53.978 8.32756C54.0151 8.25321 54.0523 8.21603 54.201 8.21603C54.3125 8.21603 54.3869 8.17886 54.4241 8.14168C54.4613 8.1045 54.4984 8.06733 54.5728 8.06733C54.7587 8.06733 54.8702 7.99297 54.8702 7.91862C54.8702 7.84427 54.9445 7.84427 55.0933 7.84427C55.242 7.84427 55.3163 7.80709 55.3163 7.76992C55.3163 7.73274 55.3535 7.69556 55.4278 7.69556C55.6137 7.69556 55.7253 7.62121 55.7253 7.54685C55.7253 7.4725 55.7996 7.4725 55.9483 7.4725C56.097 7.4725 56.1714 7.43533 56.1714 7.39815C56.1714 7.36097 56.2457 7.28662 56.3944 7.28662C56.506 7.24944 56.6175 7.21227 56.6175 7.17509C56.6175 7.13791 56.6918 7.06356 56.729 7.06356C56.8406 7.02638 56.8406 6.98921 56.8406 6.8405L56.8034 6.65462H56.2457C55.0933 6.43156 55.0561 6.46873 55.0561 6.58026ZM106.062 10.0377C106.062 10.1492 106.1 10.1492 106.285 10.1492C106.434 10.1492 106.509 10.1864 106.509 10.2236C106.509 10.2607 106.546 10.2979 106.583 10.2979C106.657 10.2979 106.657 10.4095 106.657 10.8556C106.657 11.3017 106.62 11.4132 106.583 11.4504C106.509 11.4876 106.509 11.5619 106.509 11.785C106.509 12.0452 106.509 12.0824 106.397 12.0824C106.285 12.0824 106.285 12.1196 106.285 12.3055C106.285 12.4542 106.248 12.5285 106.211 12.5285C106.174 12.5285 106.137 12.5657 106.137 12.6029C106.137 12.6772 106.062 12.6772 105.914 12.6772C105.728 12.6772 105.691 12.7144 105.691 12.7888C105.691 12.9003 105.653 12.9003 102.94 12.9003C100.226 12.9003 100.189 12.9003 100.189 12.7888C100.189 12.7144 100.151 12.6772 100.114 12.6772C100.04 12.6772 100.04 12.6029 100.04 12.4542C100.04 12.3055 100.077 12.2311 100.114 12.2311C100.189 12.2311 100.189 12.1568 100.189 11.8222C100.189 11.4504 100.189 11.376 100.3 11.376C100.412 11.3389 100.412 11.3017 100.412 10.8184C100.412 10.3723 100.412 10.2979 100.486 10.2979C100.56 10.2979 100.56 10.2236 100.56 10.0749V9.85181H103.311C106.025 9.92616 106.062 9.92616 106.062 10.0377Z" fill="white"/>
</svg>
