<svg width="109" height="19" viewBox="0 0 109 19" fill="none" xmlns="http://www.w3.org/2000/svg">
<path d="M33.3129 15.4459C33.6643 15.3578 34.0158 15.2697 34.2794 15.1817C34.6308 15.0936 34.8944 14.9175 35.158 14.7414C35.4216 14.5653 35.5973 14.3892 35.8609 14.125C36.0366 13.8609 36.2123 13.5967 36.3002 13.3325C36.388 12.9803 36.4759 12.6281 36.4759 12.2759C36.4759 11.9237 36.388 11.5714 36.3002 11.3073C36.2123 11.0431 36.0366 10.7789 35.8609 10.5148C35.5973 10.2506 35.4216 10.0745 35.158 9.98644C34.8944 9.81033 34.6308 9.72227 34.2794 9.72227C34.543 9.63422 34.7187 9.54616 34.8944 9.37005C35.158 9.19394 35.2458 9.01783 35.4216 8.84172C35.5094 8.66561 35.6852 8.40144 35.6852 8.22533C35.773 7.96117 35.773 7.78506 35.773 7.52089C35.773 7.08062 35.6852 6.64034 35.5094 6.28812C35.3337 5.9359 35.0701 5.67173 34.8065 5.40757C34.543 5.1434 34.1037 4.96729 33.6643 4.87924C33.225 4.79118 32.61 4.70312 31.995 4.70312H29.2713C29.0956 4.70312 28.9198 4.79118 28.832 4.87924C28.7441 4.96729 28.6562 5.1434 28.6562 5.40757V14.8295C28.6562 15.0936 28.7441 15.2697 28.832 15.3578C28.9198 15.4459 29.0956 15.5339 29.2713 15.5339H32.1707C32.61 15.5339 32.9615 15.5339 33.3129 15.4459ZM30.7649 6.37617H31.9071C32.2586 6.37617 32.5221 6.37617 32.6979 6.46423C32.8736 6.55228 33.0493 6.64034 33.225 6.72839C33.4008 6.81645 33.4886 6.99256 33.4886 7.16867C33.5765 7.34478 33.5765 7.52089 33.5765 7.78506C33.5765 7.96117 33.5765 8.13728 33.4886 8.31339C33.4008 8.4895 33.3129 8.66561 33.225 8.75366C33.1372 8.84172 32.9615 9.01783 32.7857 9.10588C32.5221 9.10588 32.3464 9.19394 31.995 9.19394H30.7649V6.37617ZM30.7649 10.7789H32.0828C32.5221 10.7789 32.7857 10.7789 33.0493 10.867C33.3129 10.955 33.4886 11.0431 33.6643 11.2192C33.8401 11.3953 33.9279 11.4834 34.0158 11.7475C34.1037 11.9237 34.1037 12.1878 34.1037 12.452C34.1037 12.7161 34.1037 12.8923 34.0158 13.0684C33.9279 13.2445 33.8401 13.4206 33.6643 13.5086C33.4886 13.5967 33.3129 13.7728 33.1372 13.7728C32.9615 13.8609 32.6979 13.8609 32.3464 13.8609H30.7649V10.7789Z" fill="white"/>
<path d="M46.931 15.4441C47.0189 15.356 47.0189 15.268 47.0189 15.1799C47.0189 15.0919 46.931 14.9157 46.931 14.7396L43.5923 5.14161C43.5923 5.05356 43.5044 4.9655 43.5044 4.87745C43.4166 4.78939 43.3287 4.70134 43.2409 4.70134C43.153 4.70134 42.9773 4.61328 42.8016 4.61328C42.6258 4.61328 42.3623 4.61328 42.0108 4.61328C41.7472 4.61328 41.4836 4.61328 41.3079 4.61328C41.1322 4.61328 40.9565 4.61328 40.8686 4.70134C40.7807 4.70134 40.6929 4.78939 40.6929 4.87745C40.605 4.9655 40.605 5.05356 40.605 5.14161L37.1784 14.7396C37.0906 14.9157 37.0906 15.0919 37.0906 15.1799C37.0906 15.268 37.0906 15.356 37.1784 15.4441C37.2663 15.5321 37.3542 15.5321 37.442 15.5321C37.6177 15.5321 37.7935 15.5321 38.057 15.5321C38.3206 15.5321 38.4964 15.5321 38.6721 15.5321C38.8478 15.5321 38.9357 15.5321 39.0235 15.4441C39.1114 15.4441 39.1992 15.356 39.1992 15.356C39.1992 15.268 39.2871 15.268 39.2871 15.1799L39.99 13.0666H44.0316L44.7345 15.268C44.7345 15.356 44.8224 15.356 44.8224 15.4441C44.8224 15.5321 44.9102 15.5321 44.9981 15.5321C45.086 15.5321 45.1738 15.5321 45.3495 15.6202C45.5253 15.6202 45.701 15.6202 46.0524 15.6202C46.316 15.6202 46.5796 15.6202 46.6675 15.6202C46.7553 15.5321 46.931 15.5321 46.931 15.4441ZM40.4293 11.3935L41.9229 6.81466L43.4166 11.3935H40.4293Z" fill="white"/>
<path d="M50.7973 8.13549C50.973 8.48771 51.1487 8.83993 51.2366 9.1041L53.9603 14.2113C54.136 14.4755 54.2239 14.7396 54.3118 14.9157C54.3996 15.0919 54.5753 15.268 54.6632 15.356C54.7511 15.4441 54.9268 15.5321 55.0146 15.5321C55.1904 15.5321 55.3661 15.6202 55.5418 15.6202H56.5083C56.5961 15.6202 56.684 15.6202 56.8597 15.5321C56.9476 15.5321 57.0355 15.4441 57.1233 15.356C57.2112 15.268 57.299 15.1799 57.299 15.0919C57.3869 15.0038 57.3869 14.9157 57.3869 14.7396V5.05356C57.3869 4.9655 57.3869 4.9655 57.3869 4.87745C57.299 4.78939 57.2112 4.78939 57.1233 4.78939C57.0355 4.78939 56.9476 4.70134 56.8597 4.70134C56.7719 4.70134 56.5961 4.70134 56.4204 4.70134C56.2447 4.70134 56.069 4.70134 55.8933 4.70134C55.8054 4.70134 55.6297 4.70134 55.5418 4.78939C55.454 4.78939 55.3661 4.87745 55.3661 4.87745C55.3661 4.9655 55.2782 4.9655 55.2782 5.05356V10.0727C55.2782 10.4249 55.2782 10.8652 55.2782 11.3055C55.2782 11.7458 55.2782 12.098 55.2782 12.5382C55.1904 12.2741 55.1025 12.098 54.9268 11.8338C54.8389 11.5696 54.7511 11.3935 54.5753 11.1294C54.4875 10.8652 54.3118 10.6891 54.2239 10.4249C54.136 10.1608 53.9603 9.98465 53.8724 9.72048L51.7638 5.758C51.6759 5.58189 51.5881 5.31772 51.4123 5.22967C51.3245 5.05356 51.2366 4.9655 51.0609 4.87745C51.2366 4.87745 51.0609 4.78939 50.8852 4.70134C50.7094 4.70134 50.5337 4.61328 50.358 4.61328H49.2158C48.9522 4.61328 48.7765 4.70134 48.6886 4.78939C48.5129 4.87745 48.425 5.14161 48.425 5.40578V15.1799C48.425 15.268 48.425 15.268 48.425 15.356C48.425 15.4441 48.5129 15.4441 48.6008 15.4441C48.6886 15.4441 48.7765 15.5321 48.8644 15.5321C48.9522 15.5321 49.1279 15.5321 49.3915 15.5321C49.5672 15.5321 49.743 15.5321 49.9187 15.5321C50.0065 15.5321 50.1823 15.5321 50.1823 15.4441C50.2701 15.4441 50.2701 15.356 50.358 15.356C50.358 15.268 50.4459 15.268 50.4459 15.1799V9.54437C50.4459 9.1041 50.4459 8.75188 50.4459 8.3116C50.4459 7.87132 50.4459 7.5191 50.358 7.07883C50.4459 7.43105 50.6216 7.78327 50.7973 8.13549Z" fill="white"/>
<path d="M67.5794 15.0038C67.5794 14.9157 67.4915 14.7396 67.3158 14.5635L64.0649 9.63243L67.0522 5.758C67.2279 5.58189 67.3158 5.40578 67.3158 5.31772C67.4037 5.22967 67.4037 5.14161 67.4037 5.05356C67.4037 4.9655 67.4037 4.9655 67.3158 4.87745C67.3158 4.78939 67.2279 4.78939 67.1401 4.78939C67.0522 4.78939 66.9644 4.70134 66.7886 4.70134C66.6129 4.70134 66.4372 4.70134 66.2615 4.70134C66.0858 4.70134 65.8222 4.70134 65.7343 4.70134C65.5586 4.70134 65.4707 4.70134 65.3829 4.78939C65.295 4.70134 65.295 4.78939 65.2071 4.78939C65.1193 4.87745 65.1193 4.87745 65.0314 4.9655L61.8684 9.54437V4.9655C61.8684 4.87745 61.8684 4.87745 61.7805 4.78939C61.7805 4.78939 61.7805 4.78939 61.6927 4.70134C61.6048 4.70134 61.517 4.61328 61.3412 4.61328C61.1655 4.61328 60.9898 4.61328 60.8141 4.61328C60.6384 4.61328 60.4626 4.61328 60.2869 4.61328C60.1112 4.61328 60.0233 4.61328 59.9355 4.70134C59.8476 4.70134 59.7597 4.78939 59.7597 4.78939C59.7597 4.87745 59.6719 4.87745 59.6719 4.9655V15.1799C59.6719 15.268 59.6719 15.268 59.7597 15.356C59.7597 15.4441 59.8476 15.4441 59.9355 15.4441C60.0233 15.4441 60.1112 15.5321 60.2869 15.5321C60.4626 15.5321 60.6384 15.5321 60.8141 15.5321C60.9898 15.5321 61.2534 15.5321 61.3412 15.5321C61.517 15.5321 61.6048 15.5321 61.6927 15.4441C61.7805 15.4441 61.8684 15.356 61.8684 15.356C61.8684 15.356 61.9563 15.268 61.9563 15.1799V10.0727L65.2071 15.1799C65.2071 15.268 65.295 15.356 65.3829 15.356C65.4707 15.4441 65.5586 15.4441 65.7343 15.4441C65.91 15.4441 66.1736 15.4441 66.5251 15.4441C66.7886 15.4441 66.9644 15.4441 67.0522 15.4441C67.1401 15.4441 67.3158 15.4441 67.4037 15.356C67.4915 15.268 67.5794 15.268 67.5794 15.268C67.5794 15.1799 67.6673 15.1799 67.6673 15.0919C67.5794 15.1799 67.5794 15.0919 67.5794 15.0038Z" fill="white"/>
<path d="M83.9914 4.61328C83.8138 4.61328 83.6362 4.61328 83.3697 4.61328C83.1033 4.61328 82.9256 4.61328 82.748 4.61328C82.5704 4.61328 82.4816 4.61328 82.3928 4.70205C82.3039 4.70205 82.3039 4.79083 82.2151 4.8796C82.2151 4.96838 82.1263 5.05715 82.1263 5.14592L80.1724 13.4907L78.1296 5.14592C78.1296 5.05715 78.0408 4.96838 78.0408 4.8796C78.0408 4.79083 77.952 4.79083 77.8632 4.70205C77.7744 4.70205 77.6856 4.61328 77.5079 4.61328C77.3303 4.61328 77.1527 4.61328 76.8862 4.61328C76.6198 4.61328 76.4422 4.61328 76.2645 4.61328C76.0869 4.61328 75.9981 4.61328 75.9093 4.70205C75.8205 4.70205 75.7316 4.79083 75.7316 4.8796C75.7316 4.96838 75.6428 5.05715 75.6428 5.14592L73.6889 13.4907L71.735 5.14592C71.735 5.05715 71.735 4.96838 71.6462 4.8796C71.6462 4.79083 71.5573 4.79083 71.4685 4.70205C71.3797 4.70205 71.2909 4.61328 71.1133 4.61328C70.9356 4.61328 70.758 4.61328 70.4916 4.61328C70.2251 4.61328 69.9587 4.61328 69.781 4.61328C69.6034 4.61328 69.5146 4.70205 69.4258 4.70205C69.5146 4.79083 69.4258 4.8796 69.4258 4.96838C69.4258 5.05715 69.4258 5.2347 69.5146 5.41225L72.0014 14.9111C72.0014 15.0886 72.0902 15.1774 72.0902 15.2662C72.179 15.3549 72.179 15.4437 72.3567 15.4437C72.4455 15.4437 72.6231 15.5325 72.8007 15.5325C72.9784 15.5325 73.2448 15.5325 73.6001 15.5325C73.8665 15.5325 74.133 15.5325 74.3106 15.5325C74.4882 15.5325 74.6659 15.5325 74.7547 15.4437C74.8435 15.3549 74.9323 15.3549 75.0211 15.2662C75.1099 15.1774 75.1099 15.0886 75.1099 14.9111L76.7974 7.9867L78.5737 14.9111C78.5737 15.0886 78.6625 15.1774 78.6625 15.2662C78.7513 15.3549 78.7513 15.4437 78.929 15.4437C79.0178 15.4437 79.1954 15.5325 79.373 15.5325C79.5507 15.5325 79.8171 15.5325 80.1724 15.5325C80.4388 15.5325 80.7053 15.5325 80.8829 15.5325C81.0605 15.5325 81.2382 15.5325 81.327 15.4437C81.4158 15.4437 81.5046 15.3549 81.5934 15.2662C81.6822 15.1774 81.6822 15.0886 81.771 14.9111L84.2579 5.41225C84.3467 5.2347 84.3467 5.05715 84.3467 4.8796C84.3467 4.70205 84.3467 4.70206 84.2579 4.61328C84.2579 4.70206 84.1691 4.61328 83.9914 4.61328Z" fill="white"/>
<path d="M88.9815 4.70205C88.8927 4.70205 88.8038 4.61328 88.6262 4.61328C88.4486 4.61328 88.2709 4.61328 88.0933 4.61328C87.9157 4.61328 87.7381 4.61328 87.5604 4.61328C87.3828 4.61328 87.294 4.61328 87.2052 4.70205C87.1164 4.70205 87.0275 4.79083 87.0275 4.79083C87.0275 4.8796 86.9387 4.8796 86.9387 4.96838V15.2662C86.9387 15.3549 86.9387 15.3549 87.0275 15.4437C87.0275 15.5325 87.1164 15.5325 87.2052 15.5325C87.294 15.5325 87.3828 15.6213 87.5604 15.6213C87.7381 15.6213 87.9157 15.6213 88.0933 15.6213C88.2709 15.6213 88.5374 15.6213 88.6262 15.6213C88.8038 15.6213 88.8927 15.6213 88.9815 15.5325C89.0703 15.5325 89.1591 15.4437 89.1591 15.4437C89.1591 15.4437 89.2479 15.3549 89.2479 15.2662V4.96838C89.2479 4.8796 89.2479 4.8796 89.1591 4.79083C89.0703 4.70205 88.9815 4.70205 88.9815 4.70205Z" fill="white"/>
<path d="M99.8057 14.556L98.9176 12.4254C98.8288 12.1591 98.74 11.8928 98.5623 11.7152C98.4735 11.5377 98.2959 11.3601 98.2071 11.1826C98.1183 11.005 97.9406 10.9162 97.763 10.7387C97.5854 10.5611 97.4966 10.5611 97.3189 10.4724C97.6742 10.3836 97.9406 10.206 98.2071 10.0285C98.4735 9.85095 98.6512 9.6734 98.9176 9.40708C99.0952 9.14076 99.2729 8.87444 99.3617 8.60811C99.4505 8.34179 99.5393 7.9867 99.5393 7.6316C99.5393 7.18773 99.4505 6.83263 99.3617 6.47754C99.2729 6.12244 99.0064 5.85612 98.8288 5.5898C98.5623 5.32347 98.2959 5.14593 97.9406 4.96838C97.5854 4.79083 97.2301 4.70206 96.786 4.61328C96.6084 4.61328 96.4308 4.61328 96.2532 4.61328C96.0755 4.61328 95.8091 4.61328 95.5426 4.61328H92.7006C92.5229 4.61328 92.3453 4.70206 92.2565 4.79083C92.1677 4.8796 92.0789 5.05715 92.0789 5.32347V15.2662C92.0789 15.3549 92.0789 15.3549 92.1677 15.4437C92.1677 15.5325 92.2565 15.5325 92.3453 15.5325C92.4341 15.5325 92.5229 15.6213 92.7006 15.6213C92.8782 15.6213 93.0558 15.6213 93.2335 15.6213C93.4111 15.6213 93.6775 15.6213 93.7663 15.6213C93.944 15.6213 94.0328 15.6213 94.1216 15.5325C94.2104 15.5325 94.2992 15.4437 94.2992 15.4437C94.2992 15.4437 94.388 15.3549 94.388 15.2662V11.005H95.0986C95.365 11.005 95.5426 11.005 95.7203 11.0938C95.8979 11.1826 96.0755 11.2713 96.1643 11.4489C96.342 11.6264 96.4308 11.804 96.5196 11.9815C96.6084 12.1591 96.786 12.4254 96.8749 12.6917L97.8518 15.1774C97.8518 15.2662 97.9406 15.2662 97.9406 15.3549C97.9406 15.4437 98.0295 15.4437 98.1183 15.4437C98.2071 15.4437 98.2959 15.5325 98.4735 15.5325C98.6512 15.5325 98.8288 15.5325 99.0064 15.5325C99.2729 15.5325 99.5393 15.5325 99.7169 15.5325C99.8946 15.5325 99.9834 15.5325 100.072 15.4437C100.161 15.4437 100.25 15.3549 100.25 15.3549C100.25 15.3549 100.25 15.2662 100.25 15.1774C100.25 15.0886 100.25 14.9998 100.25 14.9111C100.25 14.8223 99.8946 14.7335 99.8057 14.556ZM97.0525 8.43057C96.9637 8.60812 96.8749 8.78566 96.6972 8.96321C96.5196 9.14076 96.342 9.22953 96.0755 9.31831C95.8091 9.40708 95.5426 9.40708 95.2762 9.40708H94.1216V6.29999H95.0986C95.365 6.29999 95.5426 6.29999 95.7203 6.29999C95.8979 6.29999 95.9867 6.29999 96.0755 6.38876C96.4308 6.47754 96.6972 6.65509 96.8749 6.92141C97.0525 7.18773 97.1413 7.45405 97.1413 7.80915C97.1413 8.07547 97.1413 8.25302 97.0525 8.43057Z" fill="white"/>
<path d="M108.786 14.3876C108.786 14.2987 108.691 14.2987 108.691 14.2099C108.691 14.2099 108.596 14.121 108.501 14.121H104.306V11.011H107.833C107.929 11.011 107.929 11.011 108.024 11.011C108.024 11.011 108.119 10.9222 108.119 10.8333C108.119 10.7444 108.215 10.6556 108.215 10.5667C108.215 10.4779 108.215 10.3002 108.215 10.1224C108.215 9.94472 108.215 9.85587 108.215 9.67815C108.215 9.58929 108.215 9.50044 108.119 9.41158C108.119 9.32272 108.024 9.32272 108.024 9.23386C108.024 9.23386 107.929 9.14501 107.833 9.14501H104.306V6.47929H108.501C108.596 6.47929 108.596 6.47929 108.691 6.39043C108.691 6.39043 108.786 6.30157 108.786 6.21271C108.786 6.12386 108.882 6.035 108.882 5.94614C108.882 5.85728 108.882 5.67957 108.882 5.50185C108.882 5.32414 108.882 5.23528 108.882 5.05757C108.882 4.96871 108.882 4.87985 108.786 4.791C108.786 4.70214 108.691 4.70214 108.691 4.61328C108.691 4.61328 108.596 4.61328 108.501 4.61328H102.686C102.495 4.61328 102.305 4.70214 102.209 4.791C102.114 4.87985 102.019 5.05757 102.019 5.32414V14.8319C102.019 15.0984 102.114 15.2762 102.209 15.365C102.305 15.4539 102.495 15.5427 102.686 15.5427H108.596C108.691 15.5427 108.691 15.5427 108.786 15.4539C108.786 15.4539 108.882 15.365 108.882 15.2762C108.882 15.1873 108.977 15.0984 108.977 15.0096C108.977 14.9207 108.977 14.743 108.977 14.5653C108.977 14.3876 108.977 14.2987 108.977 14.121C108.786 14.5653 108.786 14.4764 108.786 14.3876Z" fill="white"/>
<path d="M4.18538 10.9141L1.59231 8.32225L4.18538 5.73036V4.80469L0.913166 8.0754C0.789687 8.19882 0.789687 8.38396 0.913166 8.50738L4.18538 11.7781V10.9141Z" fill="white"/>
<path d="M25.9175 11.2238L22.6453 7.95312V8.8788L25.2383 11.4707L22.6453 14.0626V14.9882L25.9175 11.7175C26.1027 11.5324 26.1027 11.3473 25.9175 11.2238Z" fill="white"/>
<path d="M11.4097 4.56053C11.2239 4.56053 11.1001 4.43671 11.1001 4.25097C11.1001 4.06523 11.2239 3.94141 11.4097 3.94141C11.5954 3.94141 11.7192 4.06523 11.7192 4.25097C11.7192 4.43671 11.5954 4.56053 11.4097 4.56053Z" fill="white"/>
<path d="M13.6318 4.55845C13.2615 4.55845 13.0146 4.24989 13.0146 3.94133C13.0146 3.63278 13.3232 3.32422 13.6318 3.32422C13.9403 3.32422 14.2489 3.63278 14.2489 3.94133C14.2489 4.24989 13.9403 4.55845 13.6318 4.55845Z" fill="white"/>
<path d="M15.8552 4.56053C15.6695 4.56053 15.5457 4.43671 15.5457 4.25097C15.5457 4.06523 15.6695 3.94141 15.8552 3.94141C16.041 3.94141 16.1648 4.06523 16.1648 4.25097C16.1648 4.43671 16.041 4.56053 15.8552 4.56053Z" fill="white"/>
<path d="M10.4211 6.46868H12.9525H14.249H17.4595H18.6943H19.003V5.85156H8.19849V6.46868H10.4211Z" fill="white"/>
<path d="M4.37104 4.61901C4.43278 4.5573 4.49452 4.49559 4.55626 4.49559C4.74148 4.49559 4.86496 4.61901 4.86496 4.80415V6.40865H7.58151V5.79153H6.96411C6.77889 5.79153 6.65541 5.66811 6.65541 5.48298V4.24874C6.65541 4.12532 6.77889 4.0019 6.90237 3.94019L13.5703 2.02713H13.7555L20.4234 3.94019C20.5469 4.0019 20.6086 4.12532 20.6086 4.24874V5.54469C20.6086 5.72982 20.4852 5.85325 20.2999 5.85325H19.6825V6.77892C19.6825 6.96405 19.5591 7.08748 19.3738 7.08748H19.0651V9.06225H18.4477V7.08748H17.8303V9.06225H17.2129V7.08748H14.6816V9.06225H14.0642V7.08748H13.4468V9.06225H12.8294V7.08748H10.6068H10.2981V9.06225H9.68067V7.08748H9.06327V9.06225H8.44587V7.08748H4.55626C4.43278 7.08748 4.3093 7.02576 4.24756 6.90234V9.80279C4.3093 9.67936 4.43278 9.61765 4.55626 9.61765H20.7321H21.9669V8.01315C21.9669 7.95144 22.0287 7.82802 22.0904 7.7663C22.2139 7.64288 22.3991 7.64288 22.5226 7.7663L22.5843 7.82802V1.3483C22.5843 0.731185 22.0904 0.175781 21.4113 0.175781H5.48236C4.86496 0.175781 4.3093 0.669474 4.3093 1.3483L4.37104 4.61901Z" fill="white"/>
<path d="M18.6943 13.4453H17.4595H14.249H12.9525H9.80372H8.50719H8.19849V14.1241H19.003V13.4453H18.6943Z" fill="white"/>
<path d="M22.4609 15.2947C22.3991 15.3564 22.3374 15.4181 22.2139 15.4181C22.0287 15.4181 21.9052 15.2947 21.9052 15.1096V13.5051H19.6208V14.1222H20.2382C20.4234 14.1222 20.5469 14.2456 20.5469 14.4308V15.7267C20.5469 15.9118 20.4234 16.0353 20.2382 16.0353H6.96414C6.77892 16.0353 6.65544 15.9118 6.65544 15.7267V14.4308C6.65544 14.2456 6.77892 14.1222 6.96414 14.1222H7.58154V13.1965C7.58154 13.0114 7.70502 12.888 7.89024 12.888H8.19894V10.9749H8.81634V12.888H9.43374V10.9749H10.0511V12.888H12.5825V10.9749H13.1999V12.888H13.8173V10.9749H14.4347V12.888H16.1634H16.2251H16.9043V10.9749H17.5217V12.888H18.1391V10.9749H18.7565V12.888H21.9669C22.0904 12.888 22.2139 12.9497 22.2756 13.0731V10.2344C22.2139 10.3578 22.0904 10.4195 21.9669 10.4195H20.4234H4.92673V12.024C4.92673 12.0857 4.86499 12.2091 4.80325 12.2709C4.67977 12.2709 4.49455 12.2709 4.37107 12.1474L4.30933 12.0857V16.9609C4.30933 17.578 4.80325 18.1335 5.48238 18.1335H21.4113C22.0287 18.1335 22.5843 17.6398 22.5843 16.9609L22.4609 15.2947Z" fill="white"/>
</svg>
