<svg width="159" height="159" viewBox="0 0 159 159" fill="none" xmlns="http://www.w3.org/2000/svg">
<path d="M0 22.3627C0 18.769 0 15.1584 0 11.5647C0.016697 4.88346 4.82543 0.0074986 11.4207 0.0074986C18.6338 0.0074986 25.8302 -0.00937325 33.0433 0.0074986C39.5384 0.0243705 44.3973 4.88346 44.4139 11.4466C44.4306 18.7859 44.4306 26.1251 44.4139 33.4475C44.3973 39.9938 39.5384 44.8698 33.0433 44.8866C25.8302 44.9035 18.6338 44.8866 11.4207 44.8866C4.84213 44.8866 0.016697 39.9938 0 33.3294C0 29.6682 0 26.007 0 22.3627ZM22.1402 38.4753C24.7783 38.4753 27.4331 38.4753 30.0712 38.4753C34.4792 38.4753 38.0357 35.0166 38.0691 30.5793C38.1192 25.1466 38.1192 19.7307 38.0691 14.298C38.0357 10.0462 34.6629 6.52003 30.472 6.45255C24.962 6.36819 19.452 6.36819 13.942 6.45255C9.918 6.52003 6.44503 9.96189 6.37825 13.9774C6.29476 19.5957 6.29476 25.214 6.37825 30.8492C6.44503 35.0335 10.0683 38.4753 14.2091 38.4753C16.8472 38.4753 19.4854 38.4753 22.1402 38.4753Z" fill="white"/>
<path d="M136.587 0.0168725C140.214 0.0168725 143.84 0.0168725 147.467 0.0168725C154.079 0.0337452 158.971 4.89309 158.988 11.5072C159.005 18.8131 159.005 26.119 158.988 33.4249C158.971 39.9884 154.079 44.8815 147.518 44.8815C140.214 44.8983 132.91 44.8983 125.589 44.8815C119.028 44.8646 114.136 39.9884 114.119 33.4249C114.102 26.0852 114.102 18.7456 114.119 11.4228C114.136 4.90997 119.028 0.0337455 125.539 0C129.233 0 132.91 0.0168725 136.587 0.0168725ZM136.554 38.4867C139.202 38.4867 141.833 38.4867 144.481 38.4867C148.935 38.4867 152.527 35.0278 152.578 30.5903C152.629 25.1404 152.629 19.6905 152.578 14.2237C152.544 10.0224 149.12 6.51287 144.92 6.44538C139.354 6.36102 133.787 6.36102 128.221 6.44538C124.105 6.51287 120.613 9.98866 120.563 14.055C120.495 19.6399 120.478 25.2416 120.563 30.8433C120.63 35.0278 124.29 38.4867 128.457 38.4867C131.156 38.4867 133.855 38.4867 136.554 38.4867Z" fill="white"/>
<path d="M22.1715 158.997C18.5813 158.997 14.9911 158.997 11.4009 158.997C4.8551 158.98 0.0125239 154.155 0.0125239 147.61C-0.00417463 140.381 -0.00417463 133.152 0.0125239 125.923C0.0292224 119.428 4.8718 114.603 11.3675 114.587C18.598 114.57 25.8285 114.57 33.0589 114.587C39.5547 114.603 44.3972 119.428 44.4139 125.923C44.4306 133.185 44.4306 140.448 44.4139 147.694C44.3972 154.138 39.538 158.963 33.0923 158.98C29.4687 159.013 25.8118 158.997 22.1715 158.997ZM22.2216 152.652C24.8433 152.652 27.4482 152.652 30.0699 152.652C34.4783 152.652 38.0351 149.23 38.0685 144.839C38.1186 139.446 38.1186 134.054 38.0685 128.644C38.0351 124.487 34.6453 121.014 30.4874 120.948C24.9768 120.864 19.4663 120.864 13.9558 120.948C9.88136 121.014 6.42476 124.454 6.37466 128.477C6.30787 134.003 6.29117 139.546 6.37466 145.089C6.44146 149.23 10.065 152.652 14.1896 152.652C16.8781 152.652 19.5498 152.652 22.2216 152.652Z" fill="white"/>
<path d="M117.326 133.749C114.687 133.749 112.031 133.749 109.392 133.749C105.25 133.749 101.609 130.357 101.543 126.213C101.459 120.649 101.459 115.085 101.543 109.504C101.593 105.527 105.067 102.085 109.092 102.018C114.62 101.935 120.165 101.918 125.71 102.018C129.819 102.085 133.209 105.577 133.242 109.688C133.293 115.118 133.293 120.549 133.242 125.979C133.192 130.324 129.618 133.733 125.276 133.749C122.603 133.749 119.965 133.749 117.326 133.749ZM117.292 127.4C118.879 127.4 120.466 127.416 122.052 127.4C124.825 127.35 126.846 125.378 126.879 122.604C126.912 119.463 126.912 116.305 126.879 113.163C126.846 110.39 124.825 108.401 122.036 108.368C118.912 108.334 115.806 108.334 112.683 108.368C109.86 108.401 107.873 110.423 107.839 113.247C107.822 116.338 107.806 119.429 107.839 122.521C107.873 125.395 109.877 127.366 112.766 127.4C114.286 127.416 115.789 127.4 117.292 127.4Z" fill="white"/>
<path d="M60.3505 7.01579C61.9229 7.03229 63.1642 8.30301 63.1311 9.87078C63.1146 11.422 61.8236 12.6598 60.2512 12.6267C58.7284 12.5937 57.5036 11.3395 57.5202 9.80476C57.5036 8.237 58.7781 6.99929 60.3505 7.01579Z" fill="white"/>
<path d="M66.8573 12.6272C65.2894 12.6107 64.0515 11.3528 64.068 9.78038C64.0845 8.20799 65.3554 6.98318 66.9399 7.01628C68.4583 7.04938 69.6796 8.29074 69.6796 9.83003C69.6796 11.3859 68.4253 12.6438 66.8573 12.6272Z" fill="white"/>
<path d="M104.72 7.01579C106.288 6.99928 107.543 8.2535 107.559 9.82127C107.559 11.356 106.338 12.6102 104.819 12.6267C103.252 12.6597 101.964 11.422 101.948 9.87077C101.931 8.2865 103.153 7.03229 104.72 7.01579Z" fill="white"/>
<path d="M69.6796 15.8832C69.6796 17.4512 68.4253 18.7055 66.8738 18.7055C65.3389 18.7055 64.101 17.4842 64.068 15.9492C64.0515 14.3813 65.2729 13.1104 66.8408 13.0939C68.4088 13.0774 69.6796 14.3153 69.6796 15.8832Z" fill="white"/>
<path d="M72.9194 13.0939C74.4874 13.0774 75.7417 14.3316 75.7582 15.8994C75.7582 17.4342 74.5369 18.6884 73.0185 18.7049C71.4505 18.7379 70.1632 17.5002 70.1466 15.9489C70.1301 14.3646 71.3515 13.1104 72.9194 13.0939Z" fill="white"/>
<path d="M88.385 15.8832C88.385 17.4512 87.1269 18.7055 85.5709 18.7055C84.0314 18.7055 82.7899 17.4842 82.7734 15.9492C82.7568 14.3813 83.9818 13.1104 85.5543 13.0939C87.1104 13.0774 88.385 14.3153 88.385 15.8832Z" fill="white"/>
<path d="M92.1433 18.7055C90.5754 18.7055 89.321 17.4475 89.321 15.8914C89.321 14.3189 90.5754 13.0774 92.1598 13.0939C93.6948 13.1105 94.9161 14.3354 94.9326 15.8749C94.9492 17.4309 93.7113 18.7055 92.1433 18.7055Z" fill="white"/>
<path d="M88.385 22.4301C88.385 23.998 87.1269 25.2524 85.5709 25.2524C84.0314 25.2524 82.7899 24.031 82.7734 22.4961C82.7568 20.9282 83.9818 19.6573 85.5543 19.6408C87.1104 19.6243 88.385 20.8621 88.385 22.4301Z" fill="white"/>
<path d="M92.1269 25.2524C90.559 25.2524 89.3047 23.998 89.3212 22.4301C89.3212 20.8621 90.5755 19.6243 92.1599 19.6408C93.6948 19.6573 94.9161 20.8951 94.9326 22.4136C94.9492 23.9815 93.6948 25.2524 92.1269 25.2524Z" fill="white"/>
<path d="M104.77 19.6406C106.338 19.6571 107.576 20.9115 107.559 22.4794C107.543 23.9979 106.305 25.2357 104.77 25.2522C103.202 25.2687 101.948 24.0144 101.948 22.4464C101.948 20.8785 103.202 19.6406 104.77 19.6406Z" fill="white"/>
<path d="M63.1318 28.7762C63.1318 30.4749 61.8609 31.8159 60.293 31.798C58.758 31.7801 57.5367 30.4391 57.5202 28.7941C57.5037 27.0955 58.7415 25.7366 60.3095 25.7188C61.8774 25.7188 63.1318 27.0776 63.1318 28.7762Z" fill="white"/>
<path d="M75.7581 28.7942C75.7416 30.4928 74.4707 31.8159 72.9028 31.798C71.3843 31.7801 70.163 30.4213 70.1465 28.7585C70.1465 27.0599 71.4008 25.701 72.9688 25.7189C74.5367 25.7189 75.7746 27.0957 75.7581 28.7942Z" fill="white"/>
<path d="M104.72 31.7991C103.152 31.7826 101.931 30.5083 101.948 28.9361C101.981 27.3639 103.252 26.1393 104.836 26.189C106.354 26.2221 107.576 27.4798 107.559 29.0189C107.559 30.5745 106.288 31.8157 104.72 31.7991Z" fill="white"/>
<path d="M69.6796 35.0425C69.6975 36.6104 68.3387 37.8648 66.6403 37.8813C64.9777 37.8813 63.6189 36.6599 63.601 35.1415C63.5653 33.5736 64.8883 32.2862 66.5867 32.2697C68.2851 32.2532 69.6617 33.491 69.6796 35.0425Z" fill="white"/>
<path d="M72.9854 32.2697C74.5533 32.2862 75.7746 33.5571 75.7581 35.1415C75.7251 36.6599 74.4873 37.8813 72.9524 37.8813C71.3845 37.8813 70.1301 36.6269 70.1466 35.059C70.1631 33.491 71.4175 32.2532 72.9854 32.2697Z" fill="white"/>
<path d="M88.385 35.0918C88.385 36.6598 87.1141 37.8976 85.5461 37.8811C84.0112 37.8646 82.7899 36.6268 82.7734 35.1083C82.7569 33.5404 83.9947 32.286 85.5627 32.2695C87.1306 32.2695 88.385 33.5239 88.385 35.0918Z" fill="white"/>
<path d="M56.5856 41.6223C56.5856 43.1902 55.3313 44.4445 53.7633 44.428C52.2284 44.4115 50.9905 43.1902 50.974 41.6553C50.9575 40.0874 52.1954 38.8166 53.7633 38.8166C55.3313 38.8001 56.5856 40.0544 56.5856 41.6223Z" fill="white"/>
<path d="M66.8573 38.8164C68.4253 38.8164 69.6796 40.0708 69.6796 41.6222C69.6796 43.1571 68.4583 44.395 66.9233 44.428C65.3554 44.4445 64.0845 43.2232 64.068 41.6552C64.0515 40.0873 65.2894 38.8164 66.8573 38.8164Z" fill="white"/>
<path d="M82.3062 41.6059C82.3062 43.1738 80.9433 44.4282 79.2576 44.4282C77.5899 44.4282 76.2449 43.2068 76.227 41.6719C76.2091 40.1039 77.5361 38.8331 79.2397 38.8166C80.9254 38.8001 82.3062 40.0379 82.3062 41.6059Z" fill="white"/>
<path d="M92.1268 38.8164C93.6948 38.8164 94.9492 40.0708 94.9326 41.6387C94.9161 43.1737 93.6948 44.4115 92.1598 44.428C90.5919 44.4445 89.321 43.2067 89.321 41.6387C89.321 40.0708 90.5589 38.8164 92.1268 38.8164Z" fill="white"/>
<path d="M107.559 41.6223C107.559 43.1902 106.305 44.4445 104.737 44.428C103.202 44.4115 101.964 43.1902 101.948 41.6553C101.931 40.0874 103.169 38.8166 104.737 38.8166C106.305 38.8001 107.559 40.0544 107.559 41.6223Z" fill="white"/>
<path d="M56.5856 47.9164C56.5856 49.6151 55.3276 50.9739 53.7716 50.9739C52.2321 50.9739 50.9906 49.6508 50.974 47.988C50.9575 46.2894 52.1824 44.9126 53.755 44.8947C55.311 44.8768 56.5856 46.2178 56.5856 47.9164Z" fill="white"/>
<path d="M69.679 48.0055C69.6459 49.686 68.3549 51.009 66.7825 50.9732C65.2597 50.9375 64.0515 49.5609 64.068 47.8982C64.0846 46.1998 65.3425 44.8768 66.9315 44.8947C68.4707 44.9126 69.7121 46.3071 69.679 48.0055Z" fill="white"/>
<path d="M79.2487 50.9738C77.5501 50.9558 76.2091 49.5931 76.227 47.8897C76.2449 46.1863 77.6216 44.8594 79.3381 44.8952C80.9831 44.9311 82.3062 46.2759 82.3062 47.9435C82.3062 49.629 80.9473 50.9917 79.2487 50.9738Z" fill="white"/>
<path d="M88.3848 47.97C88.3683 49.6686 87.0974 50.9916 85.5295 50.9738C84.011 50.938 82.7897 49.597 82.7732 47.9342C82.7732 46.2357 84.0275 44.8768 85.5955 44.8947C87.1634 44.8947 88.4013 46.2714 88.3848 47.97Z" fill="white"/>
<path d="M94.9328 47.952C94.9328 49.6506 93.662 50.9916 92.094 50.9738C90.5591 50.9559 89.3377 49.6149 89.3212 47.9699C89.3047 46.2713 90.5426 44.9124 92.1105 44.8945C93.6785 44.8945 94.9328 46.2534 94.9328 47.952Z" fill="white"/>
<path d="M101.479 47.9164C101.479 49.6151 100.12 50.9739 98.4216 50.9739C96.7587 50.9739 95.4177 49.6508 95.3998 47.988C95.382 46.2894 96.7051 44.9126 98.4037 44.8947C100.102 44.8768 101.479 46.2357 101.479 47.9164Z" fill="white"/>
<path d="M107.559 47.97C107.543 49.6686 106.272 50.9916 104.687 50.9738C103.169 50.938 101.948 49.597 101.948 47.9342C101.948 46.2357 103.202 44.8768 104.77 44.8947C106.338 44.8947 107.576 46.2714 107.559 47.97Z" fill="white"/>
<path d="M3.25699 57.0532C1.68904 57.0532 0.451188 55.7823 0.467692 54.2144C0.484197 52.6464 1.75506 51.4251 3.32301 51.4416C4.84144 51.4746 6.06279 52.7124 6.07929 54.2474C6.07929 55.8153 4.82493 57.0532 3.25699 57.0532Z" fill="white"/>
<path d="M12.1579 54.2473C12.1579 55.8152 10.9036 57.0695 9.33561 57.053C7.80067 57.053 6.56281 55.8152 6.54631 54.2968C6.5298 52.7289 7.75115 51.4581 9.3191 51.4416C10.887 51.4251 12.1579 52.6794 12.1579 54.2473Z" fill="white"/>
<path d="M24.7846 54.2473C24.7846 55.8153 23.5138 57.0532 21.9458 57.0532C20.4109 57.0367 19.1895 55.8153 19.173 54.2803C19.1565 52.7123 20.3944 51.4414 21.9623 51.4414C23.5303 51.4414 24.7846 52.6958 24.7846 54.2473Z" fill="white"/>
<path d="M28.5266 51.4414C30.0946 51.4414 31.3325 52.7122 31.3325 54.28C31.316 55.8478 30.0451 57.0855 28.4771 57.0525C26.9586 57.036 25.7207 55.7818 25.7207 54.2635C25.7207 52.6792 26.9586 51.4414 28.5266 51.4414Z" fill="white"/>
<path d="M43.9589 54.2309C43.9589 55.7988 42.7046 57.0532 41.1366 57.0532C39.6017 57.0532 38.3638 55.8153 38.3473 54.2969C38.3308 52.7289 39.5522 51.4581 41.1201 51.4416C42.6881 51.4251 43.9589 52.6794 43.9589 54.2309Z" fill="white"/>
<path d="M63.1316 54.2965C63.1151 55.8478 61.8277 57.0855 60.2598 57.0525C58.7414 57.0195 57.52 55.7818 57.52 54.247C57.52 52.6792 58.7744 51.4414 60.3423 51.4414C61.9103 51.4579 63.1481 52.7122 63.1316 54.2965Z" fill="white"/>
<path d="M69.6796 54.2473C69.6796 55.8153 68.4088 57.0532 66.8408 57.0532C65.3059 57.0367 64.0845 55.8153 64.068 54.2803C64.0515 52.7123 65.2894 51.4414 66.8573 51.4414C68.4253 51.4414 69.6796 52.6958 69.6796 54.2473Z" fill="white"/>
<path d="M82.3062 54.2309C82.3062 55.7988 80.9653 57.0532 79.2669 57.0532C77.6042 57.0532 76.2633 55.8318 76.2275 54.2969C76.1917 52.7289 77.5326 51.4581 79.2311 51.4416C80.9296 51.4251 82.2883 52.6629 82.3062 54.2309Z" fill="white"/>
<path d="M94.9328 54.2309C94.9328 55.7988 93.6785 57.0532 92.1105 57.0532C90.5756 57.0532 89.3377 55.8153 89.3212 54.2969C89.3047 52.7289 90.5261 51.4581 92.094 51.4416C93.662 51.4251 94.9328 52.6794 94.9328 54.2309Z" fill="white"/>
<path d="M107.559 54.2309C107.559 55.7988 106.305 57.0532 104.737 57.0532C103.202 57.0532 101.964 55.8153 101.948 54.2969C101.931 52.7289 103.153 51.4581 104.72 51.4416C106.288 51.4251 107.559 52.6794 107.559 54.2309Z" fill="white"/>
<path d="M120.186 54.2637C120.186 55.8317 118.915 57.0695 117.347 57.053C115.812 57.0365 114.591 55.7987 114.574 54.2802C114.558 52.7123 115.796 51.4579 117.364 51.4414C118.932 51.4414 120.186 52.6958 120.186 54.2637Z" fill="white"/>
<path d="M155.793 51.4421C157.344 51.4752 158.566 52.7662 158.532 54.3386C158.499 55.8613 157.229 57.0696 155.694 57.053C154.127 57.0365 152.889 55.762 152.922 54.1896C152.939 52.6338 154.226 51.409 155.793 51.4421Z" fill="white"/>
<path d="M9.35203 57.5234C10.92 57.5234 12.1579 58.8823 12.1579 60.5809C12.1414 62.2438 10.92 63.5848 9.38504 63.6027C7.81704 63.6206 6.54614 62.2795 6.54614 60.5809C6.54614 58.8823 7.78403 57.5234 9.35203 57.5234Z" fill="white"/>
<path d="M18.2382 60.5809C18.2382 62.2795 16.9674 63.6206 15.3994 63.6027C13.8645 63.5848 12.6431 62.2438 12.6266 60.5809C12.6101 58.8823 13.8645 57.5234 15.4324 57.5234C16.9839 57.5234 18.2382 58.8823 18.2382 60.5809Z" fill="white"/>
<path d="M35.0563 63.6028C33.4884 63.6028 32.2505 62.2261 32.267 60.5275C32.2835 58.8289 33.5544 57.5057 35.1223 57.5236C36.6408 57.5415 37.8786 58.9004 37.8786 60.5454C37.8786 62.244 36.6243 63.6028 35.0563 63.6028Z" fill="white"/>
<path d="M63.1318 60.5631C63.1318 62.2617 61.8774 63.6206 60.3095 63.6027C58.7745 63.5848 57.5367 62.2617 57.5202 60.5989C57.5037 58.9003 58.7415 57.5236 60.3095 57.5236C61.8774 57.5057 63.1318 58.8646 63.1318 60.5631Z" fill="white"/>
<path d="M92.1433 57.5236C93.7113 57.5415 94.9492 58.9183 94.9326 60.6169C94.9161 62.2618 93.6783 63.6028 92.1433 63.6028C90.5754 63.6028 89.321 62.2618 89.321 60.5632C89.321 58.8646 90.5754 57.5057 92.1433 57.5236Z" fill="white"/>
<path d="M101.479 60.5631C101.479 62.2618 100.102 63.6028 98.4037 63.6028C96.7409 63.585 95.4177 62.2618 95.3998 60.5989C95.382 58.9002 96.723 57.5234 98.4216 57.5234C100.12 57.5234 101.479 58.8824 101.479 60.5631Z" fill="white"/>
<path d="M104.737 63.6028C103.169 63.6028 101.931 62.2261 101.948 60.5275C101.964 58.8289 103.235 57.5057 104.803 57.5236C106.321 57.5415 107.559 58.9004 107.559 60.5454C107.559 62.244 106.305 63.6028 104.737 63.6028Z" fill="white"/>
<path d="M114.105 60.5454C114.123 62.244 112.765 63.6028 111.066 63.6028C109.403 63.6028 108.063 62.2797 108.027 60.6348C107.991 58.9361 109.332 57.5594 111.012 57.5236C112.711 57.5057 114.087 58.8467 114.105 60.5454Z" fill="white"/>
<path d="M123.893 57.5236C125.461 57.5057 126.732 58.8645 126.732 60.5629C126.732 62.2255 125.511 63.5843 123.992 63.6021C122.424 63.6379 121.137 62.297 121.121 60.6165C121.104 58.9002 122.325 57.5415 123.893 57.5236Z" fill="white"/>
<path d="M133.28 60.5631C133.28 62.2617 131.921 63.6206 130.223 63.6027C128.56 63.6027 127.219 62.2617 127.201 60.6168C127.183 58.9182 128.506 57.5415 130.205 57.5236C131.903 57.5057 133.28 58.8646 133.28 60.5631Z" fill="white"/>
<path d="M139.358 60.5275C139.375 62.2261 138.121 63.585 136.553 63.6028C135.018 63.6028 133.764 62.2797 133.747 60.6348C133.714 58.9361 134.936 57.5415 136.503 57.5236C138.071 57.5057 139.342 58.8467 139.358 60.5275Z" fill="white"/>
<path d="M145.907 60.5631C145.907 62.2617 144.652 63.6206 143.084 63.6027C141.549 63.6027 140.312 62.2617 140.295 60.6168C140.279 58.9182 141.5 57.5415 143.068 57.5236C144.636 57.5057 145.907 58.8646 145.907 60.5631Z" fill="white"/>
<path d="M151.985 60.5275C152.002 62.2261 150.747 63.585 149.18 63.6028C147.645 63.6028 146.391 62.2797 146.374 60.6348C146.341 58.9361 147.562 57.5415 149.13 57.5236C150.698 57.5057 151.969 58.8467 151.985 60.5275Z" fill="white"/>
<path d="M3.23236 64.0666C4.80479 64.0501 6.07929 65.2878 6.07929 66.8555C6.07929 68.3903 4.871 69.6445 3.34822 69.6775C1.77579 69.7105 0.484737 68.4893 0.468185 66.9216C0.435081 65.3538 1.65992 64.0831 3.23236 64.0666Z" fill="white"/>
<path d="M18.2381 66.8394C18.2546 68.4073 17.0004 69.6782 15.4491 69.6782C13.9143 69.6782 12.6601 68.4733 12.6271 66.9384C12.5941 65.3704 13.8153 64.0831 15.3831 64.0666C16.9509 64.0501 18.2216 65.2714 18.2381 66.8394Z" fill="white"/>
<path d="M24.7845 66.8887C24.768 68.4567 23.5136 69.6945 21.9292 69.678C20.4108 69.6615 19.173 68.4237 19.173 66.8887C19.1565 65.3208 20.4108 64.0664 21.9787 64.0664C23.5466 64.0664 24.801 65.3208 24.7845 66.8887Z" fill="white"/>
<path d="M31.3325 66.8559C31.3325 68.4238 30.0781 69.6782 28.5102 69.6782C26.9752 69.6782 25.7374 68.4403 25.7209 66.9219C25.7044 65.3539 26.9257 64.0831 28.4937 64.0666C30.0616 64.0501 31.3325 65.3044 31.3325 66.8559Z" fill="white"/>
<path d="M43.9589 66.8723C43.9589 68.4402 42.7046 69.6945 41.1366 69.678C39.6017 69.6615 38.3638 68.4402 38.3473 66.9053C38.3308 65.3374 39.5687 64.0666 41.1366 64.0666C42.7046 64.0501 43.9589 65.3044 43.9589 66.8723Z" fill="white"/>
<path d="M50.0375 66.8559C50.0375 68.4238 48.7832 69.6782 47.2152 69.6782C45.6803 69.6782 44.4425 68.4568 44.4259 66.9219C44.4094 65.3539 45.6308 64.0831 47.1987 64.0666C48.7667 64.0501 50.0375 65.3044 50.0375 66.8559Z" fill="white"/>
<path d="M66.8738 69.6782C65.3059 69.6782 64.0515 68.4238 64.068 66.8559C64.068 65.2879 65.3224 64.0501 66.9068 64.0666C68.4417 64.0831 69.663 65.3209 69.6795 66.8394C69.696 68.4073 68.4417 69.6782 66.8738 69.6782Z" fill="white"/>
<path d="M75.7582 66.8723C75.7582 68.4402 74.5039 69.6945 72.9359 69.678C71.401 69.678 70.1632 68.4402 70.1466 66.9218C70.1301 65.3539 71.3515 64.0831 72.9194 64.0666C74.4874 64.0501 75.7582 65.3044 75.7582 66.8723Z" fill="white"/>
<path d="M101.479 66.8887C101.461 68.4567 100.084 69.6945 98.3856 69.678C96.7407 69.6615 95.3997 68.4237 95.3997 66.8887C95.3997 65.3208 96.7407 64.0664 98.4393 64.0664C100.138 64.0664 101.497 65.3208 101.479 66.8887Z" fill="white"/>
<path d="M104.729 69.678C103.156 69.6615 101.931 68.3908 101.948 66.823C101.981 65.2553 103.255 64.0341 104.828 64.0671C106.351 64.1001 107.576 65.3543 107.559 66.889C107.576 68.4568 106.301 69.6945 104.729 69.678Z" fill="white"/>
<path d="M111.066 64.0664C112.764 64.0664 114.106 65.3208 114.106 66.8887C114.088 68.4237 112.764 69.6615 111.102 69.678C109.403 69.6945 108.026 68.4567 108.026 66.8887C108.026 65.3208 109.367 64.0664 111.066 64.0664Z" fill="white"/>
<path d="M117.364 69.678C115.796 69.6615 114.558 68.4035 114.574 66.8312C114.591 65.2588 115.862 64.034 117.446 64.0671C118.965 64.1002 120.186 65.3415 120.186 66.8808C120.186 68.4367 118.932 69.6946 117.364 69.678Z" fill="white"/>
<path d="M126.732 66.9052C126.715 68.4732 125.428 69.6945 123.86 69.678C122.342 69.645 121.12 68.4071 121.12 66.8722C121.12 65.3043 122.375 64.0664 123.943 64.0664C125.511 64.0664 126.748 65.3373 126.732 66.9052Z" fill="white"/>
<path d="M133.28 66.8394C133.298 68.4073 131.939 69.6617 130.241 69.6782C128.578 69.6782 127.219 68.4568 127.201 66.9384C127.166 65.3704 128.489 64.0831 130.187 64.0666C131.885 64.0501 133.262 65.2879 133.28 66.8394Z" fill="white"/>
<path d="M136.512 64.0666C138.084 64.0501 139.359 65.2878 139.359 66.8555C139.359 68.3903 138.15 69.6445 136.628 69.6775C135.055 69.7105 133.764 68.4893 133.747 66.9216C133.714 65.3538 134.939 64.0831 136.512 64.0666Z" fill="white"/>
<path d="M158.533 66.8887C158.533 68.4567 157.262 69.6945 155.694 69.678C154.159 69.6615 152.938 68.4237 152.922 66.9052C152.905 65.3373 154.143 64.0829 155.711 64.0664C157.279 64.0664 158.533 65.3208 158.533 66.8887Z" fill="white"/>
<path d="M6.54631 73.3699C6.56281 71.8021 7.83335 70.5809 9.4174 70.6139C10.9684 70.6469 12.206 71.9342 12.1565 73.5019C12.1235 75.0202 10.8694 76.2414 9.33489 76.2249C7.76735 76.2084 6.52981 74.9377 6.54631 73.3699Z" fill="white"/>
<path d="M24.7846 73.4192C24.7846 74.9871 23.5303 76.2414 21.9623 76.2249C20.4274 76.2249 19.1895 74.9871 19.173 73.4687C19.1565 71.9008 20.3779 70.6299 21.9458 70.6134C23.5138 70.5969 24.7846 71.8513 24.7846 73.4192Z" fill="white"/>
<path d="M50.0375 73.4027C50.0375 74.9707 48.7832 76.225 47.2317 76.225C45.6968 76.225 44.459 75.0037 44.4259 73.4688C44.4094 71.9008 45.6308 70.6299 47.1987 70.6134C48.7667 70.5969 50.0375 71.8348 50.0375 73.4027Z" fill="white"/>
<path d="M56.5856 73.4027C56.5856 74.9707 55.3313 76.225 53.7633 76.225C52.2284 76.225 50.9905 74.9872 50.974 73.4688C50.9575 71.9008 52.1789 70.6299 53.7468 70.6134C55.3148 70.5969 56.5856 71.8513 56.5856 73.4027Z" fill="white"/>
<path d="M60.293 70.6134C61.8609 70.5969 63.1318 71.8548 63.1318 73.4106C63.1318 74.9499 61.9269 76.2078 60.392 76.2244C58.8241 76.2575 57.5367 75.0161 57.5202 73.4603C57.5037 71.8879 58.725 70.63 60.293 70.6134Z" fill="white"/>
<path d="M64.068 73.3699C64.0845 71.8021 65.3551 70.5809 66.9391 70.6139C68.4902 70.6469 69.7277 71.9342 69.6782 73.5019C69.6452 75.0202 68.3912 76.2414 66.8566 76.2249C65.2891 76.2084 64.0515 74.9377 64.068 73.3699Z" fill="white"/>
<path d="M72.9359 76.225C71.368 76.225 70.1301 74.9542 70.1466 73.3862C70.1632 71.8183 71.434 70.5969 73.002 70.6134C74.5204 70.63 75.7582 71.8843 75.7582 73.4027C75.7582 74.9707 74.5039 76.225 72.9359 76.225Z" fill="white"/>
<path d="M94.9328 73.4192C94.9328 74.9872 93.662 76.225 92.094 76.225C90.5591 76.2085 89.3377 74.9872 89.3212 73.4522C89.3047 71.8842 90.5426 70.6133 92.1105 70.6133C93.6785 70.6133 94.9328 71.8512 94.9328 73.4192Z" fill="white"/>
<path d="M108.027 73.3532C108.063 71.7855 109.457 70.5809 111.155 70.6139C112.835 70.6469 114.158 71.9506 114.104 73.5347C114.05 75.0528 112.674 76.2574 111.012 76.2244C109.332 76.2079 107.991 74.9208 108.027 73.3532Z" fill="white"/>
<path d="M133.747 73.3532C133.78 71.7855 135.067 70.5809 136.635 70.6139C138.186 70.6469 139.407 71.9506 139.357 73.5347C139.308 75.0528 138.037 76.2574 136.503 76.2244C134.952 76.2079 133.714 74.9208 133.747 73.3532Z" fill="white"/>
<path d="M143.134 70.6134C144.702 70.6299 145.923 71.9007 145.907 73.4684C145.874 75.0197 144.603 76.2574 143.018 76.2244C141.5 76.1914 140.279 74.9372 140.295 73.4024C140.312 71.8347 141.566 70.5969 143.134 70.6134Z" fill="white"/>
<path d="M151.985 73.4192C151.985 74.9872 150.714 76.225 149.146 76.225C147.612 76.2085 146.39 74.9872 146.374 73.4522C146.357 71.8842 147.595 70.6133 149.163 70.6133C150.731 70.6133 151.985 71.8512 151.985 73.4192Z" fill="white"/>
<path d="M155.727 76.225C154.159 76.225 152.905 74.9707 152.922 73.4027C152.922 71.8348 154.192 70.5969 155.76 70.6134C157.295 70.6299 158.516 71.8678 158.533 73.3862C158.549 74.9542 157.295 76.225 155.727 76.225Z" fill="white"/>
<path d="M3.24048 76.6955C4.80843 76.6776 6.06279 78.0363 6.07929 79.7348C6.07929 81.3974 4.85794 82.7561 3.33951 82.774C1.77157 82.8098 0.484199 81.4689 0.467695 79.7884C0.45119 78.0721 1.67254 76.7134 3.24048 76.6955Z" fill="white"/>
<path d="M12.1579 79.735C12.1579 81.4336 10.9036 82.7924 9.33561 82.7745C7.80067 82.7745 6.56281 81.4336 6.54631 79.7887C6.5298 78.0901 7.75115 76.7134 9.3191 76.6955C10.887 76.6776 12.1579 78.0365 12.1579 79.735Z" fill="white"/>
<path d="M43.9588 79.6996C43.9753 81.3981 42.7376 82.7747 41.1698 82.7747C39.635 82.7747 38.3808 81.4696 38.3478 79.8069C38.3148 78.1084 39.536 76.7139 41.1038 76.696C42.6716 76.6603 43.9423 78.0011 43.9588 79.6996Z" fill="white"/>
<path d="M47.2481 76.6953C48.816 76.6953 50.0539 78.0721 50.0374 79.7707C50.0209 81.4335 48.783 82.7567 47.2646 82.7745C45.6966 82.7924 44.4258 81.4335 44.4258 79.7528C44.4258 78.0363 45.6636 76.6953 47.2481 76.6953Z" fill="white"/>
<path d="M53.8124 76.6955C55.3803 76.7134 56.618 78.0901 56.585 79.7887C56.5685 81.4337 55.3142 82.7747 53.7959 82.7747C52.2281 82.7747 50.9739 81.4158 50.9739 79.7172C50.9739 78.0186 52.2281 76.6776 53.8124 76.6955Z" fill="white"/>
<path d="M60.3259 76.6953C61.8939 76.6953 63.1318 78.072 63.1318 79.7704C63.1153 81.4689 61.8444 82.8098 60.2764 82.774C58.7579 82.7561 57.52 81.3974 57.52 79.7525C57.52 78.0362 58.7579 76.6953 60.3259 76.6953Z" fill="white"/>
<path d="M72.9197 82.7745C71.3519 82.7567 70.1141 81.3801 70.1471 79.6817C70.1636 77.9832 71.4509 76.6603 73.0187 76.696C74.537 76.7318 75.7582 78.0905 75.7582 79.7353C75.7582 81.4337 74.4875 82.7924 72.9197 82.7745Z" fill="white"/>
<path d="M98.4037 76.6955C100.102 76.6776 101.461 78.0363 101.479 79.7348C101.479 81.3974 100.156 82.7561 98.511 82.774C96.8124 82.8098 95.4177 81.4689 95.3998 79.7884C95.382 78.0721 96.7051 76.7134 98.4037 76.6955Z" fill="white"/>
<path d="M107.559 79.7172C107.559 81.4158 106.305 82.7747 104.737 82.7747C103.202 82.7747 101.964 81.4337 101.948 79.7887C101.931 78.0901 103.153 76.7134 104.72 76.6955C106.288 76.6776 107.559 78.0365 107.559 79.7172Z" fill="white"/>
<path d="M114.106 79.735C114.106 81.4337 112.729 82.7747 111.03 82.7747C109.367 82.7568 108.044 81.4337 108.026 79.7708C108.008 78.0721 109.349 76.6953 111.048 76.6953C112.747 76.6953 114.106 78.0542 114.106 79.735Z" fill="white"/>
<path d="M120.186 79.7707C120.169 81.4693 118.882 82.7924 117.314 82.7745C115.796 82.7388 114.574 81.3978 114.574 79.7349C114.574 78.0363 115.829 76.6953 117.397 76.6953C118.964 76.6953 120.202 78.0721 120.186 79.7707Z" fill="white"/>
<path d="M155.727 76.6953C157.295 76.6953 158.533 78.072 158.533 79.7704C158.517 81.4689 157.246 82.8098 155.678 82.774C154.159 82.7561 152.921 81.3974 152.921 79.7525C152.921 78.0541 154.159 76.6953 155.727 76.6953Z" fill="white"/>
<path d="M6.07929 86.0481C6.07929 87.616 4.82493 88.8703 3.25699 88.8538C1.72205 88.8373 0.484197 87.616 0.467692 86.0811C0.451188 84.5132 1.68904 83.2423 3.25699 83.2423C4.82493 83.2258 6.07929 84.4802 6.07929 86.0481Z" fill="white"/>
<path d="M9.36844 83.2422C10.9364 83.2422 12.1742 84.5131 12.1577 86.081C12.1412 87.6159 10.9034 88.8373 9.38495 88.8538C7.81701 88.8703 6.54614 87.6159 6.54614 86.0645C6.54614 84.48 7.78399 83.2422 9.36844 83.2422Z" fill="white"/>
<path d="M21.9952 88.854C20.4272 88.854 19.1729 87.5996 19.1729 86.0481C19.1729 84.4801 20.4272 83.2422 21.9952 83.2422C23.5301 83.2587 24.7679 84.4801 24.7845 86.0151C24.801 87.5831 23.5631 88.854 21.9952 88.854Z" fill="white"/>
<path d="M35.0891 88.854C33.5212 88.854 32.2668 87.5996 32.2668 86.0481C32.2668 84.4801 33.5212 83.2422 35.0891 83.2422C36.6241 83.2587 37.8619 84.4801 37.8784 86.0151C37.895 87.5831 36.6571 88.854 35.0891 88.854Z" fill="white"/>
<path d="M75.7581 86.0151C75.7746 87.5831 74.5204 88.854 72.9691 88.854C71.4344 88.854 70.1801 87.6491 70.1471 86.1142C70.1141 84.5462 71.3353 83.2589 72.9031 83.2424C74.4709 83.2258 75.7416 84.4472 75.7581 86.0151Z" fill="white"/>
<path d="M88.3848 86.0811C88.3683 87.649 87.0974 88.8703 85.5295 88.8538C84.011 88.8208 82.7897 87.583 82.7732 86.0481C82.7732 84.4802 84.0275 83.2258 85.5955 83.2423C87.1634 83.2423 88.4013 84.5132 88.3848 86.0811Z" fill="white"/>
<path d="M94.9326 86.0811C94.9161 87.649 93.6453 88.8703 92.0773 88.8538C90.5589 88.8373 89.321 87.583 89.321 86.0481C89.321 84.4802 90.5589 83.2258 92.1433 83.2423C93.6948 83.2423 94.9492 84.5132 94.9326 86.0811Z" fill="white"/>
<path d="M101.479 86.0151C101.497 87.5831 100.138 88.8374 98.4396 88.854C96.777 88.854 95.4182 87.6326 95.4004 86.1142C95.3646 84.5462 96.6876 83.2589 98.386 83.2424C100.084 83.2258 101.461 84.4637 101.479 86.0151Z" fill="white"/>
<path d="M104.786 83.2424C106.354 83.2589 107.576 84.5297 107.559 86.1142C107.526 87.6326 106.288 88.854 104.753 88.854C103.185 88.854 101.931 87.5996 101.948 86.0317C101.964 84.4637 103.218 83.2258 104.786 83.2424Z" fill="white"/>
<path d="M133.28 86.0151C133.298 87.5831 131.939 88.8374 130.241 88.854C128.578 88.854 127.219 87.6326 127.201 86.1142C127.166 84.5462 128.489 83.2589 130.187 83.2424C131.885 83.2258 133.262 84.4637 133.28 86.0151Z" fill="white"/>
<path d="M151.985 86.0645C151.969 87.6324 150.698 88.8703 149.13 88.8538C147.611 88.8373 146.374 87.5994 146.374 86.0645C146.374 84.4965 147.611 83.2422 149.179 83.2422C150.747 83.2422 152.002 84.4965 151.985 86.0645Z" fill="white"/>
<path d="M3.28984 94.9321C1.72189 94.9321 0.467529 93.6942 0.467529 92.1262C0.467529 90.5582 1.72189 89.3203 3.28984 89.3203C4.82477 89.3368 6.06263 90.5582 6.07913 92.0932C6.09564 93.6612 4.85778 94.9156 3.28984 94.9321Z" fill="white"/>
<path d="M9.36844 94.9321C7.8005 94.9321 6.54614 93.6942 6.54614 92.1262C6.54614 90.5582 7.8005 89.3203 9.36844 89.3203C10.9034 89.3368 12.1412 90.5582 12.1577 92.0932C12.1742 93.6612 10.9364 94.9156 9.36844 94.9321Z" fill="white"/>
<path d="M15.4488 94.9321C13.8808 94.9321 12.6265 93.6942 12.6265 92.1262C12.6265 90.5582 13.8808 89.3203 15.4488 89.3203C16.9837 89.3368 18.2216 90.5582 18.2381 92.0932C18.2546 93.6612 17.0167 94.9156 15.4488 94.9321Z" fill="white"/>
<path d="M21.9952 94.9321C20.4272 94.9321 19.1729 93.6942 19.1729 92.1262C19.1729 90.5582 20.4272 89.3203 21.9952 89.3203C23.5301 89.3368 24.7679 90.5582 24.7845 92.0932C24.801 93.6612 23.5631 94.9156 21.9952 94.9321Z" fill="white"/>
<path d="M35.0398 89.3205C36.6077 89.3026 37.8786 90.6613 37.8786 92.3419C37.8786 94.0045 36.6738 95.3633 35.1388 95.399C33.5709 95.4348 32.2835 94.1118 32.267 92.4134C32.2505 90.715 33.4719 89.3384 35.0398 89.3205Z" fill="white"/>
<path d="M43.9589 92.1426C43.9589 93.7106 42.6881 94.9484 41.1201 94.9319C39.5852 94.9154 38.3638 93.6776 38.3473 92.1426C38.3308 90.5747 39.5852 89.3203 41.1531 89.3203C42.7046 89.3203 43.9589 90.5747 43.9589 92.1426Z" fill="white"/>
<path d="M47.2647 89.3205C48.8326 89.337 50.0539 90.6078 50.0374 92.1923C50.0044 93.7107 48.7666 94.9321 47.2317 94.9321C45.6638 94.9321 44.4094 93.6777 44.4259 92.1098C44.4424 90.5418 45.6968 89.304 47.2647 89.3205Z" fill="white"/>
<path d="M56.585 92.4313C56.5519 94.1118 55.2609 95.4348 53.6885 95.399C52.1658 95.3633 50.9575 93.9867 50.974 92.324C50.9906 90.6256 52.2485 89.3026 53.8375 89.3205C55.3767 89.3384 56.6181 90.7329 56.585 92.4313Z" fill="white"/>
<path d="M60.3423 89.3205C61.9103 89.337 63.1481 90.6078 63.1316 92.1758C63.1151 93.6942 61.8773 94.9321 60.3423 94.9321C58.7744 94.9321 57.52 93.6942 57.52 92.1263C57.52 90.5583 58.7744 89.304 60.3423 89.3205Z" fill="white"/>
<path d="M88.385 92.1098C88.385 93.6777 87.1269 94.9321 85.5709 94.9321C84.0314 94.9321 82.7899 93.7107 82.7734 92.1758C82.7568 90.6078 83.9818 89.337 85.5543 89.3205C87.1104 89.304 88.385 90.5418 88.385 92.1098Z" fill="white"/>
<path d="M101.479 92.1592C101.461 93.7271 100.084 94.9484 98.3856 94.9319C96.7407 94.9154 95.4175 93.6611 95.3997 92.1262C95.3997 90.5583 96.7585 89.304 98.4572 89.3205C100.156 89.3205 101.497 90.5913 101.479 92.1592Z" fill="white"/>
<path d="M114.105 92.1591C114.087 93.7271 112.693 94.9484 110.994 94.9319C109.349 94.8989 108.026 93.661 108.026 92.1261C108.026 90.5582 109.385 89.3203 111.084 89.3203C112.782 89.3203 114.123 90.5912 114.105 92.1591Z" fill="white"/>
<path d="M133.28 92.1098C133.28 93.6777 131.939 94.9321 130.241 94.9321C128.578 94.9321 127.237 93.7107 127.201 92.1758C127.166 90.6078 128.507 89.337 130.205 89.3205C131.903 89.304 133.262 90.5418 133.28 92.1098Z" fill="white"/>
<path d="M136.553 89.3203C138.121 89.3203 139.359 90.697 139.359 92.3954C139.342 94.0939 138.071 95.4348 136.503 95.399C134.985 95.3811 133.747 94.0224 133.747 92.3775C133.747 90.6612 134.985 89.3203 136.553 89.3203Z" fill="white"/>
<path d="M145.907 92.1591C145.89 93.7106 144.603 94.9484 143.035 94.9319C141.516 94.8989 140.295 93.6611 140.295 92.1261C140.295 90.5582 141.549 89.3203 143.117 89.3203C144.685 89.3368 145.923 90.5912 145.907 92.1591Z" fill="white"/>
<path d="M149.179 89.3203C150.747 89.3203 151.985 90.5747 151.985 92.1426C151.969 93.7106 150.698 94.9484 149.13 94.9319C147.611 94.9154 146.374 93.6776 146.374 92.1426C146.374 90.5747 147.611 89.3203 149.179 89.3203Z" fill="white"/>
<path d="M158.533 92.3954C158.516 94.0939 157.246 95.4348 155.678 95.399C154.159 95.3811 152.921 94.0224 152.921 92.3775C152.921 90.6791 154.159 89.3203 155.727 89.3203C157.295 89.3203 158.549 90.697 158.533 92.3954Z" fill="white"/>
<path d="M3.24858 101.479C1.67605 101.462 0.451142 100.192 0.467695 98.6238C0.500801 97.056 1.77537 95.8348 3.3479 95.8678C4.87076 95.9008 6.09568 97.1551 6.07913 98.6898C6.09568 100.258 4.8211 101.495 3.24858 101.479Z" fill="white"/>
<path d="M15.4075 101.479C13.835 101.462 12.6101 100.192 12.6266 98.6238C12.6597 97.056 13.9343 95.8348 15.5068 95.8678C17.0297 95.9008 18.2546 97.1551 18.2381 98.6898C18.2546 100.258 16.98 101.495 15.4075 101.479Z" fill="white"/>
<path d="M21.9539 101.479C20.3814 101.462 19.1565 100.192 19.173 98.6238C19.2061 97.056 20.4807 95.8348 22.0532 95.8678C23.5761 95.9008 24.801 97.1551 24.7845 98.6898C24.801 100.258 23.5264 101.495 21.9539 101.479Z" fill="white"/>
<path d="M35.1054 95.8674C36.6732 95.8839 37.911 97.1547 37.878 98.7227C37.8615 100.241 36.6072 101.479 35.0889 101.479C33.5211 101.479 32.2668 100.225 32.2668 98.6567C32.2668 97.0887 33.5211 95.8508 35.1054 95.8674Z" fill="white"/>
<path d="M50.0375 98.6731C50.0375 100.241 48.7667 101.479 47.1987 101.479C45.6638 101.462 44.4424 100.241 44.4259 98.7061C44.4094 97.1381 45.6473 95.8672 47.2152 95.8672C48.7832 95.8672 50.0375 97.1216 50.0375 98.6731Z" fill="white"/>
<path d="M53.7468 95.8674C55.3148 95.8508 56.5856 97.0886 56.5856 98.6563C56.5856 100.191 55.3808 101.445 53.8459 101.478C52.2779 101.511 50.9905 100.29 50.974 98.7223C50.9575 97.1546 52.1789 95.8839 53.7468 95.8674Z" fill="white"/>
<path d="M63.1316 98.6401C63.1481 100.208 61.8939 101.462 60.3261 101.479C58.7914 101.479 57.5372 100.258 57.5207 98.7392C57.4877 97.1712 58.7089 95.8839 60.2766 95.8674C61.8444 95.8508 63.1151 97.0887 63.1316 98.6401Z" fill="white"/>
<path d="M66.8738 95.8672C68.4417 95.8672 69.6796 97.1214 69.6796 98.7058C69.6631 100.274 68.3922 101.511 66.8242 101.478C65.3058 101.462 64.0679 100.224 64.0679 98.6892C64.0679 97.1214 65.3058 95.8672 66.8738 95.8672Z" fill="white"/>
<path d="M72.9524 95.8672C74.5204 95.8672 75.7582 97.1214 75.7582 98.7058C75.7417 100.274 74.4708 101.511 72.9029 101.478C71.3844 101.462 70.1465 100.224 70.1465 98.6892C70.1465 97.1214 71.3844 95.8672 72.9524 95.8672Z" fill="white"/>
<path d="M82.3062 98.6731C82.3062 100.241 80.9294 101.479 79.2308 101.479C77.568 101.462 76.2449 100.241 76.227 98.7061C76.2091 97.1381 77.5501 95.8672 79.2487 95.8672C80.9473 95.8672 82.3062 97.1051 82.3062 98.6731Z" fill="white"/>
<path d="M98.3678 101.478C96.6875 101.445 95.3646 100.155 95.4004 98.5831C95.454 97.0113 96.8483 95.8036 98.5645 95.8698C100.209 95.9194 101.514 97.1933 101.478 98.732C101.46 100.271 100.066 101.511 98.3678 101.478Z" fill="white"/>
<path d="M123.926 95.8672C125.494 95.8672 126.732 97.1379 126.732 98.7058C126.716 100.274 125.445 101.511 123.877 101.478C122.358 101.462 121.12 100.208 121.12 98.6892C121.12 97.1214 122.358 95.8672 123.926 95.8672Z" fill="white"/>
<path d="M139.358 98.706C139.342 100.257 138.055 101.495 136.487 101.479C134.968 101.446 133.747 100.208 133.747 98.673C133.747 97.105 135.001 95.8672 136.569 95.8672C138.137 95.8837 139.375 97.1381 139.358 98.706Z" fill="white"/>
<path d="M145.907 98.6567C145.907 100.225 144.652 101.479 143.101 101.479C141.566 101.479 140.328 100.258 140.295 98.7227C140.279 97.1547 141.5 95.8839 143.068 95.8674C144.636 95.8508 145.907 97.0887 145.907 98.6567Z" fill="white"/>
<path d="M155.702 101.479C154.13 101.462 152.905 100.192 152.922 98.6238C152.955 97.056 154.229 95.8348 155.802 95.8678C157.325 95.9008 158.55 97.1551 158.533 98.6898C158.55 100.258 157.275 101.495 155.702 101.479Z" fill="white"/>
<path d="M56.5856 3.25821C56.5856 4.82616 55.3479 6.08051 53.7801 6.08051C52.2453 6.08051 51.0075 4.85917 50.9745 3.32423C50.9415 1.75628 52.1793 0.485418 53.7471 0.468913C55.3149 0.452408 56.5856 1.69026 56.5856 3.25821Z" fill="white"/>
<path d="M6.07929 105.22C6.07929 106.788 4.80843 108.026 3.24048 108.026C1.70554 108.009 0.484197 106.788 0.467692 105.253C0.451188 103.685 1.68904 102.414 3.25699 102.414C4.82493 102.414 6.07929 103.668 6.07929 105.22Z" fill="white"/>
<path d="M15.4488 102.414C17.0167 102.431 18.2546 103.702 18.2381 105.27C18.2216 106.788 16.9837 108.026 15.4488 108.026C13.8808 108.026 12.6265 106.788 12.6265 105.22C12.6265 103.652 13.8808 102.398 15.4488 102.414Z" fill="white"/>
<path d="M21.9787 102.414C23.5467 102.414 24.7846 103.685 24.7846 105.253C24.7681 106.788 23.5467 108.009 22.0117 108.026C20.4438 108.042 19.1729 106.804 19.1729 105.236C19.1729 103.668 20.4107 102.414 21.9787 102.414Z" fill="white"/>
<path d="M31.3323 105.236C31.3158 106.804 30.0615 108.042 28.4771 108.026C26.9587 108.009 25.7209 106.771 25.7209 105.236C25.7044 103.668 26.9587 102.414 28.5266 102.414C30.0945 102.414 31.3488 103.668 31.3323 105.236Z" fill="white"/>
<path d="M35.0479 108.026C33.4754 108.009 32.2505 106.738 32.267 105.171C32.3001 103.603 33.5747 102.382 35.1472 102.415C36.6701 102.448 37.895 103.702 37.8784 105.237C37.895 106.804 36.6204 108.042 35.0479 108.026Z" fill="white"/>
<path d="M41.1282 108.026C39.5557 108.009 38.3308 106.738 38.3473 105.171C38.3804 103.603 39.655 102.382 41.2275 102.415C42.7504 102.448 43.9753 103.702 43.9588 105.237C43.9753 106.804 42.7007 108.042 41.1282 108.026Z" fill="white"/>
<path d="M53.7962 102.414C55.3641 102.414 56.602 103.685 56.5855 105.253C56.569 106.788 55.3311 108.009 53.8127 108.026C52.2447 108.042 50.9739 106.788 50.9739 105.236C50.9739 103.652 52.2117 102.414 53.7962 102.414Z" fill="white"/>
<path d="M69.6796 105.22C69.6796 106.788 68.4088 108.026 66.8408 108.026C65.3059 108.009 64.0845 106.788 64.068 105.253C64.0515 103.685 65.2894 102.414 66.8573 102.414C68.4253 102.414 69.6796 103.668 69.6796 105.22Z" fill="white"/>
<path d="M75.7582 105.236C75.7582 106.804 74.4874 108.042 72.9194 108.026C71.3845 108.009 70.1632 106.771 70.1466 105.253C70.1301 103.685 71.368 102.431 72.9359 102.414C74.5039 102.414 75.7582 103.668 75.7582 105.236Z" fill="white"/>
<path d="M98.4216 108.026C96.723 108.009 95.382 106.751 95.3998 105.179C95.4177 103.606 96.7945 102.382 98.511 102.415C100.156 102.448 101.479 103.689 101.479 105.228C101.479 106.784 100.12 108.042 98.4216 108.026Z" fill="white"/>
<path d="M145.907 105.253C145.89 106.82 144.619 108.058 143.051 108.025C141.533 108.009 140.295 106.754 140.295 105.236C140.295 103.668 141.533 102.414 143.101 102.414C144.669 102.414 145.923 103.685 145.907 105.253Z" fill="white"/>
<path d="M151.985 105.22C151.985 106.788 150.731 108.042 149.163 108.026C147.628 108.026 146.39 106.788 146.374 105.269C146.357 103.702 147.579 102.431 149.146 102.414C150.714 102.398 151.985 103.652 151.985 105.22Z" fill="white"/>
<path d="M64.068 3.2498C64.0845 1.67728 65.3553 0.452363 66.923 0.468916C68.4743 0.485469 69.712 1.77659 69.679 3.34912C69.646 4.87199 68.3918 6.0969 66.857 6.08035C65.2892 6.0969 64.0515 4.82233 64.068 3.2498Z" fill="white"/>
<path d="M56.5856 111.787C56.5856 113.355 55.3148 114.593 53.7468 114.576C52.2119 114.56 50.9905 113.322 50.974 111.804C50.9575 110.236 52.1954 108.981 53.7633 108.965C55.3313 108.965 56.5856 110.219 56.5856 111.787Z" fill="white"/>
<path d="M63.1316 111.804C63.1151 113.355 61.8277 114.593 60.2598 114.576C58.7414 114.543 57.52 113.306 57.52 111.771C57.52 110.203 58.7744 108.965 60.3423 108.965C61.9103 108.981 63.1481 110.236 63.1316 111.804Z" fill="white"/>
<path d="M72.9197 114.576C71.3519 114.56 70.1141 113.289 70.1471 111.721C70.1636 110.154 71.4509 108.932 73.0187 108.965C74.537 108.999 75.7582 110.253 75.7582 111.787C75.7582 113.339 74.4875 114.593 72.9197 114.576Z" fill="white"/>
<path d="M145.907 111.803C145.89 113.371 144.619 114.609 143.051 114.576C141.533 114.559 140.295 113.305 140.295 111.787C140.295 110.219 141.533 108.965 143.101 108.965C144.669 108.965 145.923 110.236 145.907 111.803Z" fill="white"/>
<path d="M149.179 108.965C150.747 108.965 152.002 110.219 151.985 111.787C151.969 113.322 150.747 114.56 149.212 114.576C147.644 114.593 146.374 113.355 146.374 111.787C146.374 110.219 147.611 108.965 149.179 108.965Z" fill="white"/>
<path d="M75.7582 3.25821C75.7582 4.82616 74.5039 6.08051 72.9524 6.08051C71.4175 6.08051 70.1797 4.85917 70.1466 3.32423C70.1301 1.75628 71.3515 0.485418 72.9194 0.468913C74.4874 0.452408 75.7582 1.69026 75.7582 3.25821Z" fill="white"/>
<path d="M79.2843 6.08051C77.5857 6.08051 76.2268 4.82612 76.2268 3.27463C76.2268 1.70664 77.5857 0.46875 79.2843 0.46875C80.9471 0.485255 82.2882 1.70664 82.306 3.24162C82.3239 4.80962 80.9829 6.08051 79.2843 6.08051Z" fill="white"/>
<path d="M75.7581 117.812C75.7746 119.38 74.5204 120.634 72.9526 120.651C71.4179 120.651 70.1801 119.429 70.1471 117.911C70.1141 116.343 71.3353 115.056 72.9031 115.039C74.4709 115.023 75.7416 116.261 75.7581 117.812Z" fill="white"/>
<path d="M92.1433 120.651C90.5754 120.651 89.321 119.396 89.321 117.845C89.321 116.277 90.5754 115.039 92.1433 115.039C93.6783 115.056 94.9161 116.277 94.9326 117.812C94.9492 119.38 93.7113 120.651 92.1433 120.651Z" fill="white"/>
<path d="M158.533 117.845C158.533 119.413 157.262 120.651 155.694 120.651C154.159 120.634 152.938 119.413 152.922 117.878C152.905 116.31 154.143 115.039 155.711 115.039C157.279 115.039 158.533 116.293 158.533 117.845Z" fill="white"/>
<path d="M92.0939 6.08035C90.526 6.06385 89.3047 4.79332 89.3212 3.20928C89.3542 1.64173 90.625 0.420702 92.2094 0.470203C93.7278 0.503204 94.9491 1.75724 94.9326 3.29178C94.9326 4.85932 93.6618 6.09685 92.0939 6.08035Z" fill="white"/>
<path d="M72.9688 126.733C71.4008 126.733 70.1465 125.475 70.1465 123.919C70.1465 122.346 71.4008 121.105 72.9853 121.121C74.5202 121.138 75.7416 122.363 75.7581 123.902C75.7746 125.458 74.5367 126.733 72.9688 126.733Z" fill="white"/>
<path d="M79.2843 126.733C77.5857 126.733 76.2268 125.478 76.2268 123.927C76.2268 122.359 77.5857 121.121 79.2843 121.121C80.9471 121.138 82.2882 122.359 82.306 123.894C82.3239 125.462 80.9829 126.733 79.2843 126.733Z" fill="white"/>
<path d="M88.385 123.943C88.385 125.511 87.1141 126.749 85.5461 126.733C84.0112 126.716 82.7899 125.478 82.7734 123.96C82.7569 122.392 83.9947 121.138 85.5627 121.121C87.1306 121.121 88.385 122.375 88.385 123.943Z" fill="white"/>
<path d="M94.9326 123.96C94.9161 125.528 93.6453 126.749 92.0773 126.733C90.5589 126.7 89.3375 125.462 89.321 123.927C89.321 122.359 90.5754 121.105 92.1433 121.121C93.7113 121.121 94.9492 122.392 94.9326 123.96Z" fill="white"/>
<path d="M98.4037 121.121C100.102 121.105 101.461 122.359 101.479 123.927C101.479 125.461 100.156 126.716 98.511 126.732C96.8124 126.765 95.4177 125.528 95.3998 123.976C95.382 122.392 96.7051 121.138 98.4037 121.121Z" fill="white"/>
<path d="M151.985 123.894C152.002 125.462 150.747 126.716 149.18 126.733C147.645 126.733 146.391 125.512 146.374 123.993C146.341 122.425 147.562 121.138 149.13 121.121C150.698 121.105 151.969 122.343 151.985 123.894Z" fill="white"/>
<path d="M155.744 126.733C154.176 126.733 152.921 125.495 152.921 123.927C152.921 122.359 154.176 121.121 155.744 121.121C157.279 121.138 158.516 122.359 158.533 123.894C158.549 125.462 157.312 126.716 155.744 126.733Z" fill="white"/>
<path d="M107.559 3.25821C107.559 4.82616 106.305 6.08051 104.737 6.08051C103.202 6.08051 101.964 4.85917 101.948 3.32423C101.931 1.75628 103.153 0.485416 104.72 0.468911C106.288 0.452406 107.559 1.70677 107.559 3.25821Z" fill="white"/>
<path d="M53.7633 127.668C55.3313 127.668 56.5856 128.922 56.5856 130.474C56.5856 132.009 55.3643 133.247 53.8294 133.28C52.2614 133.296 50.9905 132.075 50.974 130.507C50.9575 128.939 52.1954 127.668 53.7633 127.668Z" fill="white"/>
<path d="M66.8408 127.668C68.4088 127.652 69.6796 128.906 69.6796 130.474C69.6796 132.008 68.4583 133.263 66.9399 133.279C65.3719 133.312 64.0845 132.074 64.068 130.523C64.0515 128.939 65.2729 127.685 66.8408 127.668Z" fill="white"/>
<path d="M92.094 133.28C90.5261 133.263 89.3047 131.992 89.3212 130.425C89.3542 128.857 90.6251 127.636 92.193 127.669C93.7115 127.702 94.9328 128.956 94.9328 130.491C94.9328 132.058 93.662 133.296 92.094 133.28Z" fill="white"/>
<path d="M98.4748 127.668C100.173 127.685 101.514 128.955 101.478 130.523C101.46 132.074 100.066 133.312 98.3675 133.279C96.7227 133.246 95.3997 131.992 95.3997 130.457C95.3997 128.889 96.7584 127.652 98.4748 127.668Z" fill="white"/>
<path d="M151.985 130.474C151.985 132.042 150.731 133.296 149.163 133.28C147.628 133.263 146.39 132.042 146.374 130.507C146.357 128.939 147.595 127.668 149.163 127.668C150.731 127.652 151.985 128.906 151.985 130.474Z" fill="white"/>
<path d="M56.5856 137.037C56.5856 138.605 55.3148 139.843 53.7468 139.826C52.2119 139.81 50.9905 138.572 50.974 137.054C50.9575 135.486 52.1954 134.231 53.7633 134.215C55.3313 134.215 56.5856 135.469 56.5856 137.037Z" fill="white"/>
<path d="M75.7582 137.004C75.7582 138.572 74.5205 139.827 72.9527 139.827C71.4179 139.827 70.1801 138.605 70.1471 137.07C70.1141 135.502 71.3519 134.232 72.9197 134.215C74.4875 134.199 75.7417 135.436 75.7582 137.004Z" fill="white"/>
<path d="M82.3062 137.037C82.3062 138.605 80.9294 139.843 79.2308 139.826C77.568 139.81 76.2449 138.572 76.227 137.054C76.2091 135.486 77.5501 134.231 79.2487 134.215C80.9473 134.215 82.3062 135.469 82.3062 137.037Z" fill="white"/>
<path d="M98.4036 139.826C96.7051 139.81 95.382 138.536 95.3998 136.963C95.4356 135.391 96.8123 134.167 98.5288 134.216C100.174 134.249 101.497 135.507 101.479 137.046C101.479 138.602 100.102 139.843 98.4036 139.826Z" fill="white"/>
<path d="M104.737 139.826C103.169 139.81 101.931 138.552 101.948 136.98C101.964 135.407 103.235 134.182 104.819 134.215C106.338 134.249 107.559 135.49 107.559 137.029C107.559 138.585 106.305 139.843 104.737 139.826Z" fill="white"/>
<path d="M111.048 139.827C109.349 139.827 108.008 138.556 108.026 136.988C108.044 135.42 109.421 134.199 111.12 134.215C112.765 134.232 114.106 135.486 114.106 137.004C114.106 138.572 112.747 139.827 111.048 139.827Z" fill="white"/>
<path d="M120.186 137.021C120.186 138.589 118.915 139.827 117.347 139.827C115.812 139.81 114.591 138.589 114.574 137.054C114.558 135.486 115.796 134.215 117.364 134.215C118.932 134.215 120.186 135.453 120.186 137.021Z" fill="white"/>
<path d="M149.212 139.826C147.644 139.843 146.374 138.589 146.374 137.037C146.374 135.469 147.611 134.215 149.179 134.215C150.714 134.215 151.952 135.436 151.985 136.971C152.002 138.539 150.78 139.81 149.212 139.826Z" fill="white"/>
<path d="M155.76 139.826C154.192 139.843 152.921 138.589 152.921 137.021C152.921 135.453 154.159 134.199 155.744 134.215C157.279 134.215 158.516 135.453 158.533 136.971C158.549 138.539 157.312 139.81 155.76 139.826Z" fill="white"/>
<path d="M69.6796 143.551C69.6796 145.119 68.4253 146.373 66.8573 146.373C65.3224 146.373 64.0845 145.136 64.068 143.617C64.0515 142.049 65.2729 140.778 66.8408 140.762C68.4088 140.745 69.6796 142 69.6796 143.551Z" fill="white"/>
<path d="M72.9688 146.373C71.4008 146.373 70.1465 145.119 70.1465 143.551C70.1465 141.983 71.4008 140.745 72.9853 140.762C74.5202 140.778 75.7416 142 75.7581 143.535C75.7746 145.103 74.5202 146.373 72.9688 146.373Z" fill="white"/>
<path d="M92.1599 140.762C93.7278 140.778 94.9491 142.049 94.9326 143.634C94.8996 145.152 93.6618 146.373 92.1269 146.373C90.559 146.373 89.3047 145.119 89.3212 143.551C89.3377 141.983 90.592 140.745 92.1599 140.762Z" fill="white"/>
<path d="M101.479 143.551C101.497 145.119 100.138 146.373 98.4396 146.373C96.777 146.373 95.4361 145.152 95.4004 143.634C95.3646 142.066 96.7054 140.795 98.386 140.762C100.084 140.745 101.461 141.983 101.479 143.551Z" fill="white"/>
<path d="M133.28 143.551C133.28 145.119 131.917 146.373 130.232 146.373C128.564 146.373 127.219 145.152 127.201 143.617C127.183 142.049 128.51 140.778 130.214 140.762C131.899 140.745 133.28 141.983 133.28 143.551Z" fill="white"/>
<path d="M136.52 146.373C134.952 146.357 133.73 145.082 133.747 143.51C133.78 141.938 135.051 140.714 136.635 140.763C138.154 140.796 139.375 142.054 139.358 143.593C139.358 145.149 138.088 146.39 136.52 146.373Z" fill="white"/>
<path d="M145.907 143.584C145.89 145.152 144.636 146.39 143.051 146.373C141.533 146.357 140.295 145.119 140.295 143.584C140.279 142.016 141.533 140.762 143.101 140.762C144.669 140.762 145.923 142.016 145.907 143.584Z" fill="white"/>
<path d="M151.985 143.584C151.985 145.152 150.714 146.39 149.146 146.373C147.612 146.357 146.39 145.119 146.374 143.601C146.357 142.033 147.595 140.778 149.163 140.762C150.731 140.762 151.985 142.016 151.985 143.584Z" fill="white"/>
<path d="M155.744 146.373C154.176 146.373 152.921 145.136 152.921 143.568C152.921 142 154.176 140.762 155.744 140.762C157.279 140.778 158.516 142 158.533 143.535C158.549 145.103 157.312 146.357 155.744 146.373Z" fill="white"/>
<path d="M56.5856 149.65C56.5856 151.218 55.3313 152.472 53.7633 152.455C52.2284 152.455 50.9905 151.218 50.974 149.699C50.9575 148.131 52.1789 146.86 53.7468 146.844C55.3148 146.827 56.5856 148.082 56.5856 149.65Z" fill="white"/>
<path d="M114.106 149.65C114.106 151.218 112.747 152.472 111.048 152.455C109.385 152.455 108.044 151.218 108.026 149.699C108.008 148.131 109.332 146.86 111.03 146.844C112.729 146.827 114.106 148.082 114.106 149.65Z" fill="white"/>
<path d="M120.186 149.65C120.186 151.218 118.932 152.472 117.364 152.455C115.829 152.455 114.591 151.218 114.574 149.699C114.558 148.131 115.779 146.86 117.347 146.844C118.915 146.827 120.186 148.082 120.186 149.65Z" fill="white"/>
<path d="M126.732 149.65C126.732 151.218 125.478 152.472 123.91 152.455C122.375 152.455 121.137 151.218 121.121 149.699C121.104 148.131 122.325 146.86 123.893 146.844C125.461 146.827 126.732 148.082 126.732 149.65Z" fill="white"/>
<path d="M133.28 149.65C133.28 151.218 131.921 152.472 130.223 152.455C128.56 152.455 127.219 151.218 127.201 149.699C127.183 148.131 128.506 146.86 130.205 146.844C131.903 146.827 133.28 148.082 133.28 149.65Z" fill="white"/>
<path d="M145.907 149.617C145.923 151.185 144.685 152.456 143.118 152.456C141.583 152.456 140.329 151.251 140.296 149.716C140.263 148.148 141.484 146.861 143.052 146.844C144.619 146.811 145.89 148.049 145.907 149.617Z" fill="white"/>
<path d="M151.985 149.65C151.985 151.218 150.714 152.456 149.146 152.456C147.612 152.439 146.39 151.218 146.374 149.683C146.357 148.115 147.595 146.844 149.163 146.844C150.731 146.844 151.985 148.098 151.985 149.65Z" fill="white"/>
<path d="M158.533 149.65C158.533 151.218 157.279 152.472 155.711 152.455C154.176 152.455 152.938 151.218 152.922 149.699C152.905 148.131 154.126 146.86 155.694 146.844C157.262 146.827 158.533 148.082 158.533 149.65Z" fill="white"/>
<path d="M53.7387 152.918C55.3111 152.902 56.5856 154.139 56.5856 155.707C56.5856 157.242 55.3774 158.496 53.8546 158.529C52.2821 158.562 50.9911 157.341 50.9745 155.773C50.9414 154.205 52.1663 152.935 53.7387 152.918Z" fill="white"/>
<path d="M60.3259 158.53C58.758 158.53 57.5037 157.275 57.5202 155.707C57.5202 154.139 58.791 152.902 60.3589 152.918C61.8938 152.935 63.1151 154.172 63.1316 155.691C63.1481 157.259 61.8938 158.53 60.3259 158.53Z" fill="white"/>
<path d="M69.6796 155.724C69.6796 157.292 68.4088 158.53 66.8408 158.53C65.3059 158.513 64.0845 157.292 64.068 155.757C64.0515 154.189 65.2894 152.918 66.8573 152.918C68.4253 152.918 69.6796 154.172 69.6796 155.724Z" fill="white"/>
<path d="M75.7582 155.724C75.7582 157.292 74.5039 158.546 72.9359 158.53C71.401 158.53 70.1632 157.292 70.1466 155.773C70.1301 154.205 71.3515 152.935 72.9194 152.918C74.4874 152.902 75.7582 154.156 75.7582 155.724Z" fill="white"/>
<path d="M82.306 155.691C82.3239 157.259 80.9652 158.513 79.2668 158.53C77.6041 158.53 76.2454 157.308 76.2275 155.79C76.1918 154.222 77.5147 152.935 79.2131 152.918C80.9116 152.902 82.2882 154.139 82.306 155.691Z" fill="white"/>
<path d="M88.3848 155.691C88.4013 157.259 87.1471 158.53 85.5958 158.53C84.0611 158.53 82.8069 157.325 82.7738 155.79C82.7408 154.222 83.9621 152.935 85.5298 152.918C87.0976 152.902 88.3683 154.123 88.3848 155.691Z" fill="white"/>
<path d="M107.559 155.757C107.543 157.325 106.272 158.546 104.704 158.53C103.185 158.513 101.964 157.259 101.948 155.724C101.948 154.156 103.202 152.902 104.77 152.918C106.338 152.918 107.576 154.189 107.559 155.757Z" fill="white"/>
<path d="M111.03 152.918C112.729 152.902 114.106 154.156 114.106 155.707C114.106 157.242 112.8 158.496 111.137 158.529C109.439 158.562 108.044 157.341 108.026 155.773C108.008 154.205 109.332 152.935 111.03 152.918Z" fill="white"/>
<path d="M120.186 155.757C120.169 157.324 118.898 158.562 117.33 158.529C115.812 158.513 114.574 157.258 114.574 155.74C114.574 154.172 115.812 152.918 117.38 152.918C118.948 152.918 120.202 154.189 120.186 155.757Z" fill="white"/>
<path d="M139.359 155.724C139.359 157.292 138.104 158.546 136.536 158.53C135.001 158.513 133.763 157.292 133.747 155.757C133.73 154.189 134.968 152.918 136.536 152.918C138.104 152.902 139.359 154.156 139.359 155.724Z" fill="white"/>
<path d="M158.533 155.707C158.533 157.275 157.279 158.53 155.727 158.53C154.192 158.53 152.955 157.308 152.922 155.773C152.905 154.205 154.126 152.935 155.694 152.918C157.262 152.902 158.533 154.139 158.533 155.707Z" fill="white"/>
<path d="M22.0569 13.1101C23.6048 13.1101 25.1527 13.0938 26.7006 13.1101C29.6588 13.1429 31.7399 15.0943 31.7743 17.8983C31.8087 20.9319 31.8087 23.9655 31.7743 26.9992C31.7399 29.8032 29.6588 31.7709 26.7006 31.7873C23.5532 31.8037 20.3886 31.8037 17.2412 31.7873C14.283 31.7709 12.2019 29.8032 12.1847 26.9828C12.1503 23.9491 12.1503 20.9155 12.1847 17.8819C12.2019 15.0779 14.3002 13.1265 17.2584 13.0938C18.8407 13.0938 20.4574 13.1101 22.0569 13.1101Z" fill="white"/>
<path d="M136.404 13.101C137.914 13.101 139.423 13.0846 140.933 13.101C143.818 13.1339 145.848 15.0862 145.882 17.8916C145.915 20.9266 145.915 23.9617 145.882 26.9968C145.848 29.8022 143.818 31.7709 140.933 31.7873C137.863 31.8037 134.777 31.8037 131.707 31.7873C128.822 31.7709 126.792 29.8022 126.758 26.9968C126.725 23.9617 126.725 20.9266 126.758 17.8916C126.775 15.0862 128.805 13.1339 131.707 13.101C133.267 13.0846 134.844 13.101 136.404 13.101Z" fill="white"/>
<path d="M12.1666 136.891C12.1666 135.375 12.1494 133.842 12.1666 132.327C12.201 129.313 14.2478 127.229 17.2405 127.212C20.3881 127.195 23.5528 127.195 26.7004 127.212C29.6587 127.229 31.7399 129.296 31.7743 132.241C31.8087 135.427 31.8087 138.613 31.7743 141.799C31.7399 144.744 29.6587 146.81 26.7004 146.827C23.5528 146.845 20.3881 146.845 17.2405 146.827C14.2822 146.81 12.2182 144.744 12.1666 141.782C12.1494 140.163 12.1666 138.527 12.1666 136.891Z" fill="white"/>
<path d="M120.649 117.855C120.649 118.198 120.649 118.541 120.649 118.884C120.649 120.548 120.099 121.114 118.45 121.114C117.625 121.114 116.783 121.131 115.958 121.114C114.721 121.079 114.137 120.462 114.119 119.227C114.102 118.283 114.102 117.34 114.119 116.397C114.137 115.316 114.738 114.664 115.786 114.613C116.852 114.561 117.9 114.561 118.965 114.613C119.996 114.647 120.598 115.299 120.632 116.311C120.666 116.826 120.649 117.34 120.649 117.855Z" fill="white"/>
</svg>
