<svg width="159" height="159" viewBox="0 0 159 159" fill="none" xmlns="http://www.w3.org/2000/svg">
<path d="M79.4599 99.4321C68.5158 99.4157 59.4391 90.247 59.569 79.1722C59.6989 67.9988 68.3372 59.0766 79.5411 59.1095C90.8424 59.1423 99.3833 68.1796 99.432 79.3365C99.4807 90.3455 90.3715 99.4486 79.4599 99.4321ZM89.8681 72.9118C89.9006 70.9894 89.1374 70.3157 87.8709 70.5786C87.1402 70.7429 86.4095 70.9894 85.7113 71.2687C81.4409 72.994 77.1866 74.7522 72.9324 76.5103C70.8865 77.3648 68.8244 78.2192 66.8109 79.1393C66.4375 79.3201 66.1939 79.7966 65.8854 80.1417C66.2264 80.421 66.5024 80.8318 66.8921 80.9797C67.8826 81.3576 68.9055 81.6205 69.9123 81.9327C71.5523 82.4421 73.0299 82.1463 74.4588 81.1768C76.2286 79.9609 78.0472 78.8107 79.8496 77.6605C80.8563 77.0197 81.863 76.3789 82.886 75.7709C83.0646 75.6559 83.3731 75.7709 83.6329 75.7873C83.6167 76.0667 83.6492 76.346 83.5842 76.6089C83.5517 76.7568 83.4056 76.8718 83.2757 76.9868C82.3502 77.907 81.4084 78.8107 80.4829 79.7309C79.3625 80.8318 78.2096 81.9162 77.1055 83.05C76.4235 83.7401 76.4722 84.2002 77.2029 84.841C77.3653 84.9889 77.5439 85.1039 77.7225 85.219C79.6872 86.517 81.6682 87.8151 83.6492 89.0968C84.1038 89.3925 84.5909 89.639 85.0943 89.8033C86.0361 90.1155 86.6856 89.8526 87.0915 88.9325C87.3188 88.4231 87.465 87.848 87.5786 87.2893C87.9683 85.1861 88.3418 83.0993 88.6665 80.9797C89.1212 78.1042 89.5271 75.2122 89.8681 72.9118Z" fill="white"/>
<path d="M0 16.6478C0 13.9724 0 11.2971 0 8.62182C0.0164421 3.69275 3.73236 0.0283746 8.74721 0.0121605C14.206 -0.00405351 19.6483 -0.00405351 25.1071 0.0121605C30.0891 0.0283746 33.8215 3.64411 33.8708 8.54075C33.9201 14.0049 33.9201 19.4528 33.8708 24.9169C33.8215 29.7325 30.1384 33.3807 25.2387 33.4131C19.6977 33.4617 14.1731 33.4617 8.63212 33.4131C3.65016 33.3644 0.0164421 29.6839 0 24.7548C0 22.0633 0 19.3555 0 16.6478ZM16.9025 28.5489C18.8756 28.5489 20.8486 28.5489 22.8217 28.5489C26.2416 28.5327 28.8724 26.0681 28.9217 22.728C28.9875 18.7232 28.9875 14.7345 28.9217 10.7296C28.8724 7.43819 26.4061 4.98987 23.0683 4.94123C18.9907 4.87637 14.8966 4.87637 10.8189 4.94123C7.48117 4.98987 5.01485 7.4544 4.98197 10.7459C4.93264 14.7507 4.93264 18.7394 4.98197 22.7442C5.01485 26.0519 7.64559 28.5489 10.9833 28.5651C12.9564 28.5489 14.9295 28.5489 16.9025 28.5489Z" fill="white"/>
<path d="M158.984 16.6761C158.984 19.3534 158.984 22.0306 158.984 24.7079C158.967 29.7704 155.3 33.4212 150.169 33.4374C144.741 33.4536 139.314 33.4536 133.887 33.4374C128.821 33.4212 125.121 29.7541 125.105 24.7566C125.088 19.3696 125.088 13.9988 125.105 8.61186C125.121 3.67921 128.871 0.0283952 133.887 0.0121694C139.347 -0.00405646 144.791 -0.00405646 150.251 0.0121694C155.267 0.0283952 158.967 3.69543 159 8.64431C158.984 11.3216 158.984 13.9988 158.984 16.6761ZM142.011 28.5696C144.018 28.5696 146.008 28.5859 148.014 28.5696C151.353 28.5534 153.968 26.0384 154.017 22.7283C154.066 18.7206 154.066 14.729 154.017 10.7212C153.984 7.50851 151.566 5.00973 148.327 4.94482C144.166 4.8637 139.988 4.8637 135.828 4.94482C132.555 5.00973 130.137 7.4436 130.071 10.6563C130.006 14.7128 129.989 18.7692 130.071 22.8257C130.137 26.1033 132.769 28.5372 136.091 28.5534C138.064 28.5696 140.038 28.5696 142.011 28.5696Z" fill="white"/>
<path d="M16.9703 158.999C14.2564 158.999 11.5425 158.999 8.82852 158.999C3.71316 158.982 0.0287842 155.232 0.0123361 150.031C-0.00411203 144.564 -0.00411203 139.08 0.0123361 133.613C0.0287842 128.429 3.71316 124.662 8.82852 124.645C14.2235 124.629 19.6349 124.629 25.0299 124.645C30.1946 124.662 33.879 128.429 33.8954 133.663C33.9119 139.113 33.9119 144.547 33.8954 149.998C33.879 155.248 30.1946 158.982 25.0135 158.982C22.3489 158.999 19.6514 158.999 16.9703 158.999ZM16.921 153.965C18.8948 153.965 20.8685 153.965 22.8423 153.965C26.3622 153.948 28.9281 151.398 28.9446 147.831C28.9775 143.831 28.9775 139.83 28.9446 135.83C28.9117 132.246 26.3787 129.712 22.8259 129.679C18.9112 129.646 14.9801 129.646 11.0655 129.679C7.51267 129.712 4.99612 132.229 4.97967 135.83C4.94677 139.83 4.94677 143.831 4.97967 147.831C5.01256 151.415 7.54557 153.948 11.0819 153.965C13.0228 153.965 14.9637 153.965 16.921 153.965Z" fill="white"/>
<path d="M115.486 127.388C115.486 125.499 115.47 123.625 115.486 121.736C115.518 118.006 117.991 115.535 121.74 115.503C125.409 115.487 129.061 115.568 132.729 115.471C136.123 115.39 139.258 117.651 139.274 121.881C139.29 125.547 139.323 129.196 139.258 132.862C139.194 136.85 136.64 139.289 132.632 139.289C129.028 139.289 125.425 139.305 121.805 139.289C118.67 139.273 116.326 137.512 115.631 134.622C115.454 133.879 115.486 133.072 115.47 132.297C115.47 130.666 115.486 129.019 115.486 127.388ZM127.332 134.428C128.544 134.428 129.756 134.444 130.968 134.412C132.875 134.364 134.361 132.926 134.41 131.037C134.458 128.599 134.458 126.144 134.41 123.69C134.378 121.898 133.133 120.509 131.356 120.428C128.802 120.299 126.249 120.267 123.695 120.396C121.546 120.509 120.399 121.752 120.318 123.868C120.237 126.209 120.221 128.55 120.318 130.892C120.415 133.12 121.869 134.412 124.099 134.428C125.166 134.428 126.249 134.428 127.332 134.428Z" fill="white"/>
<path d="M43.072 40.9962C43.087 42.0949 42.1238 43.0581 41.0252 43.0731C39.9265 43.0731 38.9633 42.125 38.9482 41.0263C38.9482 39.9277 39.8964 38.9644 40.9951 38.9494C42.0937 38.9343 43.0569 39.8976 43.072 40.9962Z" fill="white"/>
<path d="M76.9797 117.969C76.9797 116.822 78.0527 115.9 79.313 115.93C80.5903 115.946 81.5951 116.897 81.561 118.045C81.544 119.163 80.5221 120.054 79.2619 120.054C78.0016 120.054 76.9797 119.117 76.9797 117.969Z" fill="white"/>
<path d="M62.7751 117.977C62.7751 116.833 63.8103 115.915 65.0831 115.93C66.3049 115.945 67.3401 116.863 67.3571 117.962C67.374 119.09 66.3389 120.039 65.0661 120.054C63.7934 120.039 62.7751 119.12 62.7751 117.977Z" fill="white"/>
<path d="M14.2046 89.1583C14.1895 90.2761 13.2414 91.1974 12.1127 91.1823C10.999 91.1521 10.0659 90.2005 10.081 89.0979C10.096 87.9953 11.0893 87.0437 12.1729 87.0588C13.2865 87.0739 14.2196 88.0406 14.2046 89.1583Z" fill="white"/>
<path d="M117.99 62.7736C119.149 62.7736 120.067 63.8086 120.052 65.0812C120.037 66.3537 119.089 67.3887 117.945 67.3548C116.846 67.3378 115.943 66.3028 115.928 65.0812C115.928 63.7917 116.846 62.7567 117.99 62.7736Z" fill="white"/>
<path d="M151.432 153.503C150.299 153.503 149.348 152.521 149.378 151.418C149.408 150.331 150.36 149.394 151.432 149.379C152.55 149.364 153.501 150.316 153.501 151.449C153.501 152.597 152.58 153.503 151.432 153.503Z" fill="white"/>
<path d="M26.5849 120.054C25.3597 120.054 24.2856 119.105 24.2856 118.007C24.2688 116.908 25.3429 115.945 26.5681 115.93C27.7932 115.915 28.8673 116.878 28.8673 117.977C28.8841 119.075 27.81 120.039 26.5849 120.054Z" fill="white"/>
<path d="M96.2247 117.992C96.2247 119.15 95.1858 120.068 93.9255 120.053C92.6652 120.038 91.6093 119.075 91.6434 117.946C91.6774 116.848 92.6993 115.945 93.9426 115.93C95.2028 115.93 96.2247 116.833 96.2247 117.992Z" fill="white"/>
<path d="M91.1844 146.602C91.1844 147.844 90.1644 148.901 88.9269 148.918C87.7229 148.935 86.6359 147.861 86.6025 146.652C86.5858 145.444 87.6393 144.353 88.8767 144.336C90.1309 144.319 91.1844 145.36 91.1844 146.602Z" fill="white"/>
<path d="M69.8851 144.336C71.0029 144.353 71.9545 145.41 71.9394 146.635C71.9394 147.844 70.9425 148.935 69.8549 148.918C68.7371 148.901 67.8157 147.844 67.8157 146.602C67.8157 145.36 68.7673 144.319 69.8851 144.336Z" fill="white"/>
<path d="M146.85 91.1837C145.732 91.1837 144.795 90.1301 144.795 88.8926C144.811 87.6551 145.762 86.6016 146.865 86.6016C147.968 86.6016 148.934 87.6886 148.919 88.9093C148.934 90.1469 147.968 91.1837 146.85 91.1837Z" fill="white"/>
<path d="M146.827 67.8166C147.941 67.8015 148.904 68.7228 148.919 69.8404C148.949 70.9277 147.986 71.9245 146.887 71.9396C145.804 71.9698 144.826 71.0184 144.796 69.9008C144.781 68.7832 145.713 67.8317 146.827 67.8166Z" fill="white"/>
<path d="M26.6016 38.9494C27.8268 38.9645 28.8841 39.9312 28.8673 41.0338C28.8506 42.1516 27.7764 43.0881 26.5513 43.073C25.3261 43.0579 24.2688 42.0761 24.2856 40.9885C24.3024 39.8859 25.3765 38.9343 26.6016 38.9494Z" fill="white"/>
<path d="M91.1842 12.1216C91.2009 13.2392 90.1642 14.1907 88.9268 14.2058C87.7061 14.2209 86.6192 13.2694 86.6025 12.1669C86.5858 11.0795 87.656 10.0978 88.8766 10.0827C90.1141 10.0525 91.1675 10.9889 91.1842 12.1216Z" fill="white"/>
<path d="M57.7348 137.006C57.7515 138.27 56.7111 139.297 55.4358 139.297C54.2108 139.297 53.1872 138.303 53.1536 137.074C53.12 135.827 54.1772 134.732 55.4022 134.716C56.6272 134.682 57.718 135.777 57.7348 137.006Z" fill="white"/>
<path d="M53.153 146.594C53.1698 145.356 54.2271 144.319 55.4691 144.336C56.711 144.353 57.7515 145.406 57.7348 146.644C57.718 147.865 56.6271 148.918 55.4187 148.918C54.1936 148.885 53.1362 147.798 53.153 146.594Z" fill="white"/>
<path d="M50.4286 110.43C51.6798 110.449 52.6773 111.546 52.6942 112.903C52.7111 114.298 51.646 115.47 50.3948 115.47C49.1098 115.451 48.1123 114.354 48.1123 112.922C48.1292 111.471 49.1098 110.411 50.4286 110.43Z" fill="white"/>
<path d="M60.1011 144.337C61.3597 144.353 62.3497 145.428 62.3162 146.686C62.2826 147.911 61.259 148.918 60.034 148.918C58.809 148.918 57.7183 147.81 57.7351 146.602C57.7854 145.36 58.8594 144.303 60.1011 144.337Z" fill="white"/>
<path d="M33.9075 41.0336C33.8889 42.1663 32.7173 43.1026 31.341 43.0724C30.0019 43.0422 28.8674 42.1059 28.8674 41.0185C28.8674 39.9009 30.0391 38.9494 31.4154 38.9494C32.8103 38.9343 33.9261 39.8858 33.9075 41.0336Z" fill="white"/>
<path d="M74.4751 144.336C75.6119 144.336 76.5366 145.376 76.5214 146.652C76.5063 147.894 75.5362 148.951 74.4296 148.917C73.3534 148.884 72.4135 147.843 72.3984 146.635C72.3681 145.427 73.3685 144.336 74.4751 144.336Z" fill="white"/>
<path d="M117.99 5.04035C116.846 5.04035 115.913 3.91616 115.928 2.51092C115.928 1.10568 116.861 -0.0185056 118.02 0.000230843C119.134 0.0189673 120.037 1.12442 120.052 2.49218C120.052 3.89742 119.134 5.04035 117.99 5.04035Z" fill="white"/>
<path d="M12.1352 82.0195C13.2681 82.0195 14.2197 83.06 14.2046 84.3018C14.1894 85.5101 13.2681 86.5673 12.1956 86.6009C11.093 86.6345 10.0961 85.5604 10.081 84.3354C10.0659 83.0935 11.0175 82.0363 12.1352 82.0195Z" fill="white"/>
<path d="M101.265 146.627C101.265 145.39 102.202 144.353 103.32 144.336C104.437 144.319 105.389 145.356 105.389 146.61C105.389 147.831 104.437 148.901 103.335 148.918C102.247 148.901 101.265 147.831 101.265 146.627Z" fill="white"/>
<path d="M55.4439 5.03906C56.6981 5.03906 57.735 6.08335 57.735 7.32975C57.735 8.55931 56.6312 9.65412 55.4105 9.62044C54.2064 9.58675 53.1863 8.54247 53.1528 7.34659C53.1528 6.10019 54.1729 5.05591 55.4439 5.03906Z" fill="white"/>
<path d="M60.0263 5.03906C61.3064 5.03906 62.317 6.04608 62.317 7.32164C62.317 8.58041 61.239 9.63778 60.0095 9.621C58.7631 9.58743 57.702 8.49649 57.7356 7.27129C57.7693 6.06287 58.8136 5.05585 60.0263 5.03906Z" fill="white"/>
<path d="M28.8668 69.8255C28.9003 70.9279 27.8431 71.9094 26.6181 71.9396C25.4099 71.9698 24.3024 71.0034 24.2856 69.9161C24.2688 68.8138 25.3092 67.8473 26.5342 67.8171C27.776 67.7869 28.8332 68.7081 28.8668 69.8255Z" fill="white"/>
<path d="M60.0009 153.503C58.7924 153.488 57.7518 152.566 57.7351 151.479C57.7183 150.376 58.8092 149.394 60.0344 149.379C61.2596 149.364 62.317 150.331 62.317 151.464C62.3002 152.612 61.2764 153.503 60.0009 153.503Z" fill="white"/>
<path d="M84.2862 153.503C83.0107 153.488 82.0037 152.566 82.0205 151.418C82.0373 150.331 83.061 149.394 84.2694 149.379C85.4777 149.364 86.5854 150.346 86.6022 151.449C86.619 152.551 85.5449 153.503 84.2862 153.503Z" fill="white"/>
<path d="M117.975 158.543C116.831 158.543 115.913 157.491 115.928 156.218C115.943 154.945 116.876 153.944 118.035 153.961C119.149 153.978 120.037 154.996 120.052 156.235C120.052 157.525 119.119 158.543 117.975 158.543Z" fill="white"/>
<path d="M55.4522 14.206C54.1934 14.206 53.1528 13.2845 53.1528 12.1515C53.1528 11.0337 54.1934 10.082 55.4354 10.082C56.6606 10.082 57.7348 11.0337 57.7348 12.1364C57.7516 13.2543 56.6774 14.206 55.4522 14.206Z" fill="white"/>
<path d="M84.2694 14.2058C83.0274 14.2058 82.0037 13.2391 82.0205 12.1062C82.0373 11.0187 83.0778 10.0973 84.2862 10.0822C85.5113 10.0671 86.6022 11.0489 86.6022 12.1515C86.619 13.2542 85.5113 14.2209 84.2694 14.2058Z" fill="white"/>
<path d="M98.7525 14.2058C97.6347 14.2208 96.6831 13.3028 96.6831 12.159C96.6831 11.0302 97.6196 10.082 98.7374 10.082C99.8099 10.082 100.762 11.0151 100.807 12.0837C100.822 13.1974 99.8552 14.1907 98.7525 14.2058Z" fill="white"/>
<path d="M158.542 41.0409C158.525 42.1695 157.473 43.1025 156.2 43.0724C154.961 43.0423 153.96 42.1394 153.96 41.0259C153.96 39.8822 154.995 38.9492 156.251 38.9492C157.523 38.9492 158.559 39.8973 158.542 41.0409Z" fill="white"/>
<path d="M33.9079 112.95C33.891 111.523 34.8886 110.43 36.1904 110.43C37.4585 110.43 38.4898 111.56 38.4898 112.968C38.4898 114.303 37.4585 115.452 36.2243 115.47C34.9562 115.47 33.9248 114.358 33.9079 112.95Z" fill="white"/>
<path d="M57.735 45.6011C57.735 46.7421 56.6944 47.6702 55.4188 47.655C54.1768 47.6398 53.1698 46.7421 53.153 45.6467C53.1362 44.5209 54.1768 43.5472 55.4188 43.5319C56.644 43.5015 57.735 44.4752 57.735 45.6011Z" fill="white"/>
<path d="M5.04035 118.006C5.04035 119.15 3.87868 120.083 2.49218 120.053C1.08695 120.038 -0.0185018 119.105 0.000234686 117.946C0.0189712 116.833 1.14316 115.93 2.51092 115.93C3.89742 115.945 5.04035 116.878 5.04035 118.006Z" fill="white"/>
<path d="M98.7374 110.43C97.5743 110.43 96.6831 109.446 96.6831 108.139C96.6831 106.9 97.5894 105.865 98.6921 105.848C99.8099 105.831 100.777 106.883 100.807 108.139C100.822 109.378 99.8854 110.43 98.7374 110.43Z" fill="white"/>
<path d="M105.389 45.6387C105.374 46.7757 104.422 47.6701 103.274 47.655C102.171 47.6398 101.265 46.7302 101.265 45.6084C101.265 44.4865 102.232 43.5163 103.335 43.5314C104.467 43.5466 105.404 44.5168 105.389 45.6387Z" fill="white"/>
<path d="M110.889 55.3676C110.922 54.1426 111.954 53.1358 113.171 53.1526C114.422 53.1693 115.487 54.2265 115.47 55.4683C115.453 56.7101 114.354 57.7673 113.103 57.7337C111.835 57.7001 110.855 56.6597 110.889 55.3676Z" fill="white"/>
<path d="M151.425 82.0197C152.577 82.003 153.501 83.01 153.501 84.2855C153.501 85.5443 152.562 86.6017 151.44 86.6017C150.348 86.6017 149.348 85.4772 149.378 84.2687C149.393 83.0603 150.333 82.0197 151.425 82.0197Z" fill="white"/>
<path d="M45.8214 48.1133C47.1354 48.1133 48.1124 49.077 48.1124 50.3958C48.1124 51.6808 47.068 52.7121 45.8046 52.6952C44.5749 52.6783 43.5473 51.6469 43.5305 50.4296C43.5136 49.1446 44.5412 48.1133 45.8214 48.1133Z" fill="white"/>
<path d="M60.0428 110.43C58.7626 110.43 57.7182 109.361 57.7351 108.122C57.7688 106.867 58.8468 105.815 60.0933 105.848C61.323 105.882 62.3168 106.9 62.3168 108.139C62.3336 109.446 61.3398 110.43 60.0428 110.43Z" fill="white"/>
<path d="M153.501 103.35C153.486 104.483 152.535 105.419 151.402 105.389C150.314 105.359 149.393 104.407 149.378 103.335C149.363 102.232 150.359 101.251 151.462 101.266C152.595 101.266 153.501 102.202 153.501 103.35Z" fill="white"/>
<path d="M55.4523 19.2461C56.711 19.2461 57.7515 20.2905 57.7348 21.5539C57.718 22.7499 56.6774 23.8112 55.4691 23.828C54.2439 23.8449 53.153 22.7668 53.153 21.5202C53.1362 20.2737 54.1768 19.2461 55.4523 19.2461Z" fill="white"/>
<path d="M144.796 84.2598C144.811 83.0134 145.763 82.0029 146.895 82.0197C148.013 82.0366 148.949 83.1145 148.919 84.344C148.888 85.5735 147.907 86.6346 146.805 86.6009C145.717 86.6009 144.766 85.4893 144.796 84.2598Z" fill="white"/>
<path d="M113.187 101.266C114.438 101.281 115.503 102.263 115.469 103.365C115.435 104.498 114.353 105.419 113.102 105.389C111.868 105.359 110.888 104.437 110.888 103.32C110.871 102.172 111.919 101.251 113.187 101.266Z" fill="white"/>
<path d="M48.1122 103.365C48.0953 104.497 47.0341 105.433 45.7707 105.388C44.5578 105.358 43.5303 104.406 43.5303 103.319C43.5303 102.217 44.6252 101.251 45.8549 101.266C47.1352 101.281 48.129 102.217 48.1122 103.365Z" fill="white"/>
<path d="M153.501 50.3535C153.516 51.6263 152.595 52.6954 151.462 52.6954C150.344 52.6954 149.377 51.6263 149.377 50.3875C149.377 49.1656 150.284 48.1305 151.402 48.1135C152.565 48.0965 153.471 49.0638 153.501 50.3535Z" fill="white"/>
<path d="M103.335 19.2461C104.467 19.2461 105.404 20.3072 105.389 21.5536C105.359 22.8 104.377 23.8611 103.274 23.8274C102.202 23.7938 101.265 22.7326 101.265 21.5368C101.265 20.2735 102.202 19.2461 103.335 19.2461Z" fill="white"/>
<path d="M33.9085 103.275C33.9424 102.143 35.0073 101.222 36.2752 101.267C37.4923 101.313 38.5065 102.264 38.4896 103.351C38.4727 104.483 37.3909 105.419 36.1399 105.389C34.8721 105.374 33.8747 104.438 33.9085 103.275Z" fill="white"/>
<path d="M7.56771 57.7345C6.43495 57.7345 5.49854 56.6939 5.49854 55.4351C5.49854 54.1763 6.43495 53.1358 7.56771 53.1525C8.65516 53.1693 9.59157 54.1931 9.62178 55.4016C9.65198 56.61 8.67026 57.7345 7.56771 57.7345Z" fill="white"/>
<path d="M14.2045 55.4769C14.1894 56.7143 13.2227 57.751 12.1201 57.7343C11.0175 57.7176 10.0659 56.6306 10.081 55.41C10.0961 54.1893 11.0628 53.1358 12.1805 53.1525C13.2983 53.186 14.2197 54.2394 14.2045 55.4769Z" fill="white"/>
<path d="M19.7033 55.4014C19.7185 54.1761 20.6433 53.1691 21.7349 53.1523C22.8567 53.1523 23.827 54.2265 23.827 55.4517C23.827 56.6769 22.8264 57.7511 21.7197 57.7343C20.5826 57.7343 19.6882 56.6937 19.7033 55.4014Z" fill="white"/>
<path d="M33.9079 55.4601C33.891 54.1892 34.9223 53.1523 36.1903 53.1523C37.4583 53.1523 38.5066 54.2059 38.4896 55.4601C38.4896 56.6642 37.4414 57.701 36.2241 57.7345C34.9561 57.7345 33.9248 56.7144 33.9079 55.4601Z" fill="white"/>
<path d="M69.8396 28.8671C68.722 28.8504 67.8008 27.7969 67.8159 26.5428C67.831 25.3221 68.7975 24.2686 69.9 24.2854C70.9874 24.3021 71.9691 25.4057 71.9389 26.6097C71.9087 27.8471 70.927 28.8838 69.8396 28.8671Z" fill="white"/>
<path d="M48.1124 55.4682C48.1124 56.7268 47.0511 57.7672 45.7877 57.7337C44.5747 57.7169 43.5303 56.6597 43.5303 55.4682C43.5303 54.2264 44.5916 53.1523 45.8382 53.1523C47.1016 53.1523 48.1124 54.1928 48.1124 55.4682Z" fill="white"/>
<path d="M130.133 98.4593C130.15 97.2007 131.207 96.1938 132.482 96.2274C133.74 96.2442 134.763 97.3349 134.713 98.5768C134.663 99.7683 133.589 100.809 132.414 100.809C131.19 100.775 130.116 99.6843 130.133 98.4593Z" fill="white"/>
<path d="M41.0102 33.4493C39.8664 33.4493 38.9334 32.4012 38.9484 31.1502C38.9635 29.8992 39.9266 28.8342 41.0403 28.868C42.1239 28.8849 43.0569 29.933 43.072 31.1502C43.087 32.4012 42.154 33.4493 41.0102 33.4493Z" fill="white"/>
<path d="M125.092 55.4351C125.092 56.7107 124.061 57.7345 122.793 57.7345C121.542 57.7345 120.493 56.6435 120.51 55.4016C120.527 54.1764 121.558 53.1693 122.793 53.1525C124.061 53.1358 125.092 54.1596 125.092 55.4351Z" fill="white"/>
<path d="M7.54534 62.3165C6.39317 62.3165 5.48356 61.3095 5.49872 60.0171C5.49872 58.8087 6.43865 57.7514 7.51502 57.7346C8.62171 57.7178 9.60712 58.7919 9.62228 60.0171C9.63744 61.2591 8.66719 62.3165 7.54534 62.3165Z" fill="white"/>
<path d="M110.887 60.0838C110.869 61.3591 109.753 62.3492 108.321 62.3157C106.963 62.2989 105.847 61.2752 105.847 60.0502C105.847 58.8084 107.037 57.7344 108.395 57.7344C109.79 57.7679 110.906 58.8084 110.887 60.0838Z" fill="white"/>
<path d="M103.38 110.43C104.483 110.448 105.389 111.579 105.389 112.931C105.389 114.303 104.422 115.47 103.305 115.47C102.187 115.47 101.236 114.266 101.266 112.894C101.296 111.486 102.232 110.411 103.38 110.43Z" fill="white"/>
<path d="M125.092 60.0258C125.092 58.7626 126.161 57.7015 127.4 57.7352C128.656 57.7688 129.708 58.8468 129.674 60.0932C129.64 61.3228 128.622 62.3165 127.383 62.3165C126.094 62.3165 125.076 61.3059 125.092 60.0258Z" fill="white"/>
<path d="M125.091 103.381C125.074 104.498 124.043 105.39 122.809 105.39C121.558 105.39 120.493 104.438 120.51 103.305C120.527 102.188 121.609 101.236 122.86 101.266C124.128 101.297 125.125 102.233 125.091 103.381Z" fill="white"/>
<path d="M48.1132 98.4167C48.147 97.1374 49.178 96.178 50.4964 96.2285C51.7133 96.279 52.7274 97.3394 52.6936 98.5514C52.6598 99.8138 51.5443 100.857 50.3273 100.807C49.0428 100.773 48.0794 99.7296 48.1132 98.4167Z" fill="white"/>
<path d="M158.542 117.955C158.559 119.102 157.54 120.038 156.268 120.053C155.012 120.069 153.96 119.132 153.96 117.985C153.96 116.867 154.944 115.961 156.183 115.931C157.456 115.886 158.525 116.807 158.542 117.955Z" fill="white"/>
<path d="M60.0511 33.9062C61.3266 33.9062 62.3336 34.9376 62.3168 36.2226C62.3 37.4568 61.293 38.4713 60.0679 38.4882C58.826 38.5051 57.7518 37.4399 57.7351 36.1888C57.7183 34.9545 58.7924 33.9062 60.0511 33.9062Z" fill="white"/>
<path d="M103.335 125.094C104.483 125.094 105.404 126.142 105.389 127.41C105.374 128.644 104.452 129.659 103.35 129.676C102.232 129.693 101.265 128.627 101.265 127.376C101.25 126.091 102.172 125.094 103.335 125.094Z" fill="white"/>
<path d="M67.8159 132.21C67.8008 131.081 68.722 130.148 69.8396 130.133C70.927 130.118 71.9087 131.066 71.9389 132.165C71.9691 133.248 70.9874 134.242 69.9 134.257C68.7824 134.257 67.8159 133.324 67.8159 132.21Z" fill="white"/>
<path d="M103.335 33.9062C104.483 33.9062 105.404 34.9544 105.389 36.2223C105.374 37.4733 104.407 38.5214 103.274 38.4876C102.187 38.4538 101.265 37.4057 101.265 36.1885C101.265 34.9206 102.187 33.9062 103.335 33.9062Z" fill="white"/>
<path d="M41.0325 5.04035C39.8846 5.04035 38.9482 3.91616 38.9482 2.51092C38.9482 1.10568 39.8846 -0.0185056 41.0325 0.000230843C42.1501 0.0189673 43.0563 1.12442 43.0714 2.47345C43.1016 3.87868 42.1803 5.04035 41.0325 5.04035Z" fill="white"/>
<path d="M21.7196 91.1835C20.5826 91.1667 19.6882 90.1094 19.7033 88.8339C19.7336 87.6087 20.6736 86.585 21.7499 86.6018C22.8718 86.6185 23.842 87.6927 23.8269 88.9178C23.8117 90.1765 22.8415 91.2003 21.7196 91.1835Z" fill="white"/>
<path d="M125.092 88.9342C125.075 90.2096 124.044 91.2164 122.759 91.1829C121.524 91.1493 120.51 90.1256 120.51 88.9006C120.51 87.6588 121.575 86.6016 122.826 86.6016C124.094 86.6016 125.109 87.6588 125.092 88.9342Z" fill="white"/>
<path d="M48.1122 88.951C48.0953 90.2264 47.0301 91.2164 45.7621 91.1829C44.5447 91.1325 43.5303 90.0921 43.5303 88.8839C43.5303 87.6589 44.6293 86.585 45.8804 86.6018C47.1147 86.6185 48.1291 87.6925 48.1122 88.951Z" fill="white"/>
<path d="M59.9499 120.052C58.7014 120.007 57.6553 118.98 57.7396 117.893C57.824 116.791 58.887 115.9 60.0849 115.93C61.3841 115.961 62.3964 116.942 62.3121 118.135C62.2615 119.207 61.1648 120.097 59.9499 120.052Z" fill="white"/>
<path d="M33.9078 117.984C33.9078 119.132 32.7733 120.054 31.3784 120.054C30.0021 120.054 28.8491 119.072 28.8677 117.954C28.8863 116.866 30.0393 115.93 31.3784 115.93C32.7547 115.915 33.9078 116.836 33.9078 117.984Z" fill="white"/>
<path d="M48.1122 7.33014C48.0954 8.54295 47.0846 9.58731 45.8718 9.621C44.6421 9.63784 43.5471 8.55979 43.5303 7.33014C43.5303 6.06679 44.5747 5.02243 45.8381 5.03927C47.1183 5.02243 48.129 6.0331 48.1122 7.33014Z" fill="white"/>
<path d="M48.1123 7.30506C48.1123 6.01272 49.1268 5.02249 50.4117 5.03927C51.646 5.05606 52.6773 6.06307 52.6942 7.27149C52.7111 8.51348 51.6629 9.58763 50.4117 9.62119C49.1606 9.62119 48.1123 8.56383 48.1123 7.30506Z" fill="white"/>
<path d="M105.389 7.31329C105.374 8.54295 104.396 9.63785 103.297 9.621C102.213 9.60416 101.28 8.54295 101.265 7.34698C101.25 6.08363 102.183 5.03926 103.312 5.03926C104.471 5.02242 105.404 6.06679 105.389 7.31329Z" fill="white"/>
<path d="M110.888 7.32136C110.888 8.57997 109.716 9.65399 108.358 9.62043C106.982 9.58687 105.829 8.52963 105.847 7.27101C105.866 6.04596 107 5.05584 108.358 5.03906C109.79 5.03906 110.888 6.04596 110.888 7.32136Z" fill="white"/>
<path d="M113.187 5.03906C114.455 5.03906 115.487 6.09643 115.47 7.35521C115.453 8.56363 114.405 9.58743 113.187 9.621C111.953 9.63778 110.871 8.56363 110.888 7.32164C110.888 6.0293 111.902 5.03906 113.187 5.03906Z" fill="white"/>
<path d="M110.888 12.0908C110.905 10.9882 111.932 10.082 113.162 10.082C114.409 10.082 115.47 11.0486 115.47 12.1663C115.453 13.2839 114.375 14.2355 113.128 14.2053C111.848 14.1901 110.871 13.2537 110.888 12.0908Z" fill="white"/>
<path d="M21.7947 120.053C20.6581 120.068 19.7185 119.15 19.7033 118.007C19.6882 116.863 20.6126 115.93 21.7493 115.93C22.8404 115.93 23.78 116.848 23.8255 117.931C23.871 119.03 22.901 120.038 21.7947 120.053Z" fill="white"/>
<path d="M33.9078 69.8561C33.9078 71.0039 32.7733 71.9403 31.397 71.9403C30.0207 71.9252 28.8491 70.9586 28.8677 69.8561C28.8862 68.7535 30.0021 67.8473 31.3598 67.8171C32.7733 67.7869 33.9078 68.6931 33.9078 69.8561Z" fill="white"/>
<path d="M33.9079 69.8409C33.9248 68.6931 34.9561 67.7869 36.2411 67.8171C37.4753 67.8473 38.4897 68.7686 38.4897 69.8711C38.5066 70.9887 37.4076 71.9553 36.1734 71.9402C34.9054 71.925 33.891 70.9887 33.9079 69.8409Z" fill="white"/>
<path d="M74.5126 19.246C73.3495 19.263 72.413 18.2581 72.3979 16.9977C72.3828 15.7373 73.3495 14.6472 74.4673 14.6643C75.6153 14.6643 76.5216 15.7032 76.5216 16.9977C76.5065 18.2411 75.6304 19.2289 74.5126 19.246Z" fill="white"/>
<path d="M48.1122 69.9313C48.0953 71.034 47.051 71.9403 45.8382 71.9403C44.5917 71.9403 43.5136 70.9585 43.5305 69.8558C43.5473 68.7229 44.6085 67.8015 45.8719 67.8166C47.1521 67.8468 48.129 68.7833 48.1122 69.9313Z" fill="white"/>
<path d="M98.7374 19.2462C97.5743 19.2462 96.6831 18.2619 96.6831 16.9552C96.6831 15.6825 97.6347 14.6473 98.7676 14.6643C99.8552 14.6812 100.792 15.7334 100.807 16.9383C100.822 18.194 99.8854 19.2462 98.7374 19.2462Z" fill="white"/>
<path d="M132.432 67.8166C133.691 67.8317 134.731 68.7833 134.715 69.901C134.698 70.9735 133.64 71.925 132.449 71.9402C131.223 71.9553 130.133 70.9735 130.133 69.8708C130.133 68.738 131.19 67.8015 132.432 67.8166Z" fill="white"/>
<path d="M48.1125 21.5536C48.0956 20.2567 49.0798 19.2629 50.3864 19.2461C51.6591 19.2461 52.7112 20.2904 52.6942 21.5368C52.6773 22.7495 51.6421 23.7937 50.4203 23.8274C49.1816 23.8611 48.1125 22.8168 48.1125 21.5536Z" fill="white"/>
<path d="M91.1843 21.5288C91.1843 22.7708 90.2177 23.8282 89.1001 23.8282C87.9976 23.8114 87.031 22.7205 87.0612 21.4784C87.0763 20.2699 88.0127 19.2629 89.1152 19.2461C90.263 19.2629 91.1994 20.2699 91.1843 21.5288Z" fill="white"/>
<path d="M69.8553 47.6552C68.7075 47.6552 67.7862 46.7119 67.8164 45.5708C67.8315 44.4296 68.7981 43.5015 69.9158 43.532C71.0032 43.5624 71.9245 44.5057 71.9396 45.6012C71.9396 46.7119 70.9881 47.6552 69.8553 47.6552Z" fill="white"/>
<path d="M96.6831 21.5036C96.6982 20.2233 97.6046 19.2295 98.7677 19.2463C99.8705 19.2632 100.792 20.2907 100.807 21.5036C100.807 22.7333 99.8403 23.8282 98.7375 23.8282C97.6046 23.8282 96.6831 22.767 96.6831 21.5036Z" fill="white"/>
<path d="M110.887 21.5371C110.887 22.8173 109.734 23.8449 108.34 23.828C106.964 23.8112 105.811 22.7162 105.848 21.4697C105.885 20.24 107.001 19.2461 108.377 19.2461C109.809 19.2461 110.906 20.24 110.887 21.5371Z" fill="white"/>
<path d="M153.501 69.841C153.516 70.9586 152.565 71.9403 151.462 71.9403C150.344 71.9403 149.377 70.9737 149.377 69.8712C149.377 68.814 150.314 67.8473 151.402 67.8171C152.519 67.7869 153.486 68.6931 153.501 69.841Z" fill="white"/>
<path d="M153.96 112.977C153.943 111.527 154.927 110.43 156.234 110.43C157.541 110.43 158.542 111.527 158.542 112.94C158.542 114.297 157.541 115.431 156.302 115.468C155.046 115.524 153.96 114.371 153.96 112.977Z" fill="white"/>
<path d="M62.317 26.5679C62.317 27.8267 61.2765 28.8673 60.0179 28.8673C58.8264 28.8673 57.7692 27.8099 57.7356 26.6183C57.7021 25.4099 58.7929 24.2854 60.0179 24.2854C61.2765 24.2686 62.317 25.3092 62.317 26.5679Z" fill="white"/>
<path d="M65.1163 24.286C66.3716 24.3027 67.4064 25.3895 67.3555 26.6435C67.3216 27.8641 66.2698 28.8673 65.0485 28.8673C63.7762 28.8673 62.7584 27.8306 62.7754 26.5599C62.7923 25.2724 63.8441 24.2525 65.1163 24.286Z" fill="white"/>
<path d="M96.6833 26.3245C96.6984 25.1916 97.65 24.2702 98.7828 24.2853C99.8553 24.3155 100.792 25.2671 100.807 26.3396C100.822 27.4422 99.825 28.424 98.7224 28.4089C97.5896 28.4089 96.6682 27.4724 96.6833 26.3245Z" fill="white"/>
<path d="M125.092 84.3357C125.075 85.5609 124.061 86.6015 122.843 86.6015C121.592 86.6183 120.51 85.5609 120.51 84.3189C120.51 83.0601 121.541 82.0195 122.826 82.0195C124.111 82.0363 125.109 83.0433 125.092 84.3357Z" fill="white"/>
<path d="M137.073 110.43C138.353 110.448 139.33 111.597 139.296 113.024C139.262 114.358 138.235 115.47 137.005 115.47C135.776 115.47 134.698 114.266 134.715 112.913C134.732 111.523 135.793 110.411 137.073 110.43Z" fill="white"/>
<path d="M60.076 33.4493C58.796 33.4493 57.7349 32.4179 57.7349 31.1667C57.7349 29.9155 58.8128 28.8672 60.0592 28.8672C61.2887 28.8672 62.2993 29.8817 62.3162 31.116C62.3498 32.4179 61.3561 33.4493 60.076 33.4493Z" fill="white"/>
<path d="M69.8701 33.4493C68.707 33.4493 67.8008 32.4349 67.8159 31.1499C67.831 29.8818 68.7977 28.8505 69.9154 28.8674C71.0029 28.9012 71.9243 29.9326 71.9394 31.1499C71.9545 32.418 71.018 33.4493 69.8701 33.4493Z" fill="white"/>
<path d="M89.1448 33.4493C87.9969 33.4493 87.0605 32.4349 87.0605 31.1668C87.0605 29.9157 88.0272 28.8505 89.1448 28.8674C90.2473 28.8843 91.1535 29.8987 91.1837 31.133C91.2139 32.418 90.3078 33.4493 89.1448 33.4493Z" fill="white"/>
<path d="M98.7374 33.4493C97.5743 33.4493 96.6831 32.4518 96.6831 31.1499C96.6831 29.9157 97.5894 28.9012 98.6921 28.8674C99.8099 28.8505 100.792 29.8987 100.807 31.133C100.822 32.4011 99.8703 33.4493 98.7374 33.4493Z" fill="white"/>
<path d="M84.3361 115.47C83.0943 115.488 82.037 114.34 82.0203 112.95C82.0203 111.579 82.9768 110.468 84.2186 110.431C85.494 110.394 86.5681 111.505 86.6016 112.876C86.6352 114.247 85.5779 115.451 84.3361 115.47Z" fill="white"/>
<path d="M117.997 33.4493C116.849 33.4493 115.913 32.418 115.928 31.1499C115.943 29.8987 116.91 28.8505 118.027 28.8674C119.115 28.8843 120.051 29.9326 120.051 31.1499C120.081 32.418 119.145 33.4493 117.997 33.4493Z" fill="white"/>
<path d="M69.8996 115.47C68.7822 115.488 67.831 114.335 67.8159 112.941C67.8008 111.546 68.7218 110.411 69.8845 110.43C70.9868 110.43 71.9079 111.546 71.9381 112.885C71.9834 114.242 71.017 115.47 69.8996 115.47Z" fill="white"/>
<path d="M84.3534 33.9065C85.5786 33.9234 86.6024 34.9716 86.6024 36.1889C86.6024 37.44 85.5282 38.5051 84.2863 38.4882C83.0275 38.4713 82.0037 37.4231 82.0205 36.1551C82.0373 34.8701 83.0611 33.8896 84.3534 33.9065Z" fill="white"/>
<path d="M110.887 36.1382C110.906 37.44 109.823 38.4544 108.405 38.4882C107.023 38.5051 105.847 37.44 105.847 36.1889C105.847 34.9547 106.949 33.9403 108.33 33.9065C109.786 33.8896 110.869 34.8363 110.887 36.1382Z" fill="white"/>
<path d="M117.99 33.9062C119.119 33.9062 120.052 34.9545 120.052 36.2057C120.037 37.4568 119.059 38.5051 117.945 38.4882C116.861 38.4544 115.943 37.423 115.928 36.2057C115.928 34.9376 116.861 33.9062 117.99 33.9062Z" fill="white"/>
<path d="M21.7726 43.073C20.6397 43.088 19.7031 42.1549 19.7031 41.0261C19.7031 39.8823 20.6094 38.9492 21.7575 38.9492C22.8299 38.9492 23.7816 39.8673 23.8269 40.9509C23.842 42.0495 22.8601 43.0579 21.7726 43.073Z" fill="white"/>
<path d="M62.317 41.0263C62.3002 42.1551 61.2726 43.0731 60.026 43.0731C58.7963 43.0731 57.7182 42.0949 57.7351 40.9962C57.7519 39.8976 58.8469 38.9343 60.0597 38.9494C61.3063 38.9644 62.317 39.8976 62.317 41.0263Z" fill="white"/>
<path d="M41.0252 110.43C42.169 110.43 43.087 111.579 43.072 112.968C43.0569 114.302 42.1389 115.451 41.0402 115.47C39.9415 115.488 38.9482 114.321 38.9482 112.95C38.9633 111.56 39.8813 110.43 41.0252 110.43Z" fill="white"/>
<path d="M96.2247 40.9889C96.2247 42.1669 95.2404 43.058 93.9506 43.0731C92.6948 43.0731 91.6426 42.1216 91.6426 40.9889C91.6426 39.8712 92.7287 38.9197 93.9845 38.9499C95.2404 38.9499 96.2247 39.8561 96.2247 40.9889Z" fill="white"/>
<path d="M110.888 40.9588C110.922 39.8265 111.983 38.9055 113.246 38.9508C114.459 38.9961 115.47 39.9473 115.47 41.0343C115.453 42.1515 114.358 43.1026 113.128 43.0724C111.865 43.0573 110.871 42.1062 110.888 40.9588Z" fill="white"/>
<path d="M125.092 41.0556C125.075 42.1839 124.01 43.1167 122.759 43.0716C121.541 43.0415 120.527 42.0937 120.51 41.0105C120.51 39.8972 121.592 38.9343 122.826 38.9494C124.094 38.9795 125.109 39.9273 125.092 41.0556Z" fill="white"/>
<path d="M33.9078 60.0673C33.9078 61.3428 32.769 62.3331 31.3503 62.3163C29.9875 62.2995 28.8674 61.2757 28.8674 60.0505C28.8674 58.8085 30.0435 57.7344 31.4063 57.7344C32.7877 57.7344 33.9078 58.7917 33.9078 60.0673Z" fill="white"/>
<path d="M36.1904 110.43C34.8717 110.43 33.891 109.463 33.9079 108.139C33.9079 106.85 34.9393 105.815 36.2243 105.848C37.4585 105.865 38.4898 106.9 38.4898 108.122C38.4898 109.412 37.4923 110.43 36.1904 110.43Z" fill="white"/>
<path d="M110.888 59.9746C110.905 58.7451 111.949 57.7177 113.162 57.7346C114.408 57.7346 115.486 58.8293 115.47 60.0588C115.453 61.322 114.392 62.3494 113.128 62.3157C111.848 62.2989 110.871 61.2715 110.888 59.9746Z" fill="white"/>
<path d="M120.052 60.009C120.067 61.2554 119.134 62.3165 118.005 62.3165C116.876 62.3165 115.928 61.2891 115.928 60.0258C115.928 58.83 116.861 57.7688 117.93 57.7351C119.028 57.7015 120.037 58.7794 120.052 60.009Z" fill="white"/>
<path d="M125.092 60.0258C125.092 61.3228 124.095 62.3165 122.793 62.3165C121.525 62.3165 120.493 61.2722 120.51 60.009C120.51 58.7794 121.626 57.7015 122.86 57.7351C124.078 57.752 125.092 58.7963 125.092 60.0258Z" fill="white"/>
<path d="M125.092 74.4607C125.092 73.3238 126.179 72.3688 127.4 72.3991C128.656 72.4295 129.691 73.3996 129.674 74.5213C129.657 75.6127 128.605 76.5222 127.383 76.5222C126.094 76.5373 125.076 75.6278 125.092 74.4607Z" fill="white"/>
<path d="M139.297 60.0003C139.313 61.2925 138.319 62.2995 137.039 62.3163C135.776 62.3331 134.715 61.2926 134.715 60.0338C134.715 58.8087 135.81 57.7178 137.039 57.7346C138.252 57.7513 139.28 58.7751 139.297 60.0003Z" fill="white"/>
<path d="M26.5848 91.1835C25.3429 91.1835 24.2688 90.1094 24.2856 88.8842C24.2856 87.6591 25.41 86.585 26.6184 86.6018C27.81 86.6185 28.8673 87.6926 28.8673 88.8842C28.8841 90.143 27.8268 91.2003 26.5848 91.1835Z" fill="white"/>
<path d="M146.805 47.655C145.658 47.6398 144.752 46.6811 144.797 45.5399C144.827 44.4443 145.763 43.5312 146.866 43.5312C147.968 43.5312 148.934 44.5051 148.919 45.6312C148.904 46.7572 147.953 47.6702 146.805 47.655Z" fill="white"/>
<path d="M36.2071 82.0197C37.4752 82.0366 38.5065 83.0974 38.4896 84.3435C38.4558 85.5896 37.3568 86.6504 36.1226 86.5999C34.8883 86.5663 33.9077 85.5222 33.9077 84.293C33.9077 82.9964 34.9222 82.0029 36.2071 82.0197Z" fill="white"/>
<path d="M12.1502 62.7734C13.3133 62.7734 14.2196 63.7916 14.2045 65.0814C14.1894 66.3202 13.2831 67.3384 12.1804 67.3554C11.0475 67.3723 10.0959 66.3372 10.0808 65.0644C10.0808 63.7916 11.0022 62.7734 12.1502 62.7734Z" fill="white"/>
<path d="M33.9077 98.5005C33.9077 97.2205 34.922 96.2099 36.2237 96.2268C37.4916 96.2436 38.5228 97.3047 38.489 98.551C38.4552 99.7637 37.424 100.791 36.2068 100.808C34.9558 100.842 33.9077 99.7637 33.9077 98.5005Z" fill="white"/>
<path d="M26.5681 62.7734C27.8604 62.7734 28.8841 63.7747 28.8673 65.0644C28.8673 66.3202 27.7932 67.3723 26.5513 67.3554C25.3261 67.3384 24.3024 66.3202 24.2856 65.0983C24.2688 63.8086 25.2926 62.7734 26.5681 62.7734Z" fill="white"/>
<path d="M33.9076 98.4758C33.9261 99.7513 32.7917 100.809 31.4154 100.809C30.0577 100.809 28.8674 99.7513 28.8674 98.4926C28.8674 97.2674 29.9833 96.2436 31.341 96.2268C32.7731 96.21 33.889 97.2002 33.9076 98.4758Z" fill="white"/>
<path d="M19.7033 98.5428C19.6882 97.2504 20.5826 96.2433 21.7349 96.2266C22.8719 96.2266 23.827 97.2504 23.827 98.5092C23.827 99.7345 22.8416 100.809 21.7349 100.809C20.6433 100.792 19.7185 99.7681 19.7033 98.5428Z" fill="white"/>
<path d="M41.0178 96.2267C39.8547 96.2267 38.9333 95.2218 38.9484 93.9445C38.9635 92.7013 39.8698 91.6624 40.9573 91.6453C42.0902 91.6113 43.0569 92.6672 43.072 93.9275C43.0871 95.2048 42.1959 96.2267 41.0178 96.2267Z" fill="white"/>
<path d="M151.432 91.1835C150.315 91.1667 149.348 90.0594 149.378 88.8514C149.423 87.6099 150.405 86.553 151.508 86.6033C152.595 86.6536 153.501 87.6938 153.501 88.9018C153.501 90.1768 152.565 91.2003 151.432 91.1835Z" fill="white"/>
<path d="M117.975 76.5222C116.846 76.5222 115.913 75.5672 115.928 74.4455C115.943 73.3692 116.891 72.4143 117.96 72.3991C119.044 72.3688 120.052 73.3692 120.052 74.4758C120.052 75.5975 119.119 76.5373 117.975 76.5222Z" fill="white"/>
<path d="M84.3193 110.43C83.0272 110.43 82.0203 109.446 82.0203 108.156C82.0203 106.917 83.0272 105.882 84.2354 105.848C85.4773 105.815 86.568 106.867 86.6016 108.122C86.6352 109.344 85.5947 110.43 84.3193 110.43Z" fill="white"/>
<path d="M132.432 91.1835C131.173 91.2003 130.133 90.1431 130.133 88.9013C130.133 87.7099 131.173 86.6527 132.365 86.6023C133.573 86.5688 134.697 87.6427 134.714 88.8677C134.747 90.1095 133.69 91.1835 132.432 91.1835Z" fill="white"/>
<path d="M89.0696 47.655C87.9821 47.6398 87.0456 46.6964 87.0607 45.6008C87.0607 44.4748 88.0274 43.5162 89.1452 43.5314C90.278 43.5466 91.1994 44.5053 91.1843 45.6465C91.1541 46.7877 90.2176 47.6702 89.0696 47.655Z" fill="white"/>
<path d="M151.41 120.053C150.303 120.023 149.334 119.015 149.379 117.931C149.424 116.848 150.394 115.93 151.455 115.93C152.592 115.945 153.516 116.878 153.501 118.007C153.501 119.15 152.546 120.068 151.41 120.053Z" fill="white"/>
<path d="M7.52282 105.389C6.38993 105.374 5.48362 104.423 5.49872 103.29C5.51383 102.172 6.48056 101.236 7.61346 101.266C8.70104 101.297 9.62245 102.263 9.62245 103.335C9.62245 104.438 8.6255 105.404 7.52282 105.389Z" fill="white"/>
<path d="M110.887 74.4532C110.906 75.6162 109.805 76.5224 108.386 76.5224C107.024 76.5224 105.885 75.6313 105.848 74.5287C105.811 73.4111 106.949 72.4293 108.33 72.3991C109.693 72.3689 110.887 73.3204 110.887 74.4532Z" fill="white"/>
<path d="M41.0027 124.636C39.8698 124.636 38.9333 123.677 38.9484 122.551C38.9635 121.455 39.9 120.527 40.9875 120.512C42.1053 120.497 43.072 121.455 43.072 122.581C43.0871 123.723 42.1506 124.636 41.0027 124.636Z" fill="white"/>
<path d="M60.0009 124.635C58.7756 124.62 57.7518 123.692 57.7351 122.612C57.7183 121.501 58.8092 120.512 60.0344 120.512C61.31 120.527 62.317 121.44 62.317 122.596C62.3002 123.753 61.2932 124.651 60.0009 124.635Z" fill="white"/>
<path d="M98.6922 124.635C97.5443 124.62 96.6682 123.692 96.6833 122.52C96.7135 121.41 97.6198 120.512 98.7375 120.512C99.8553 120.512 100.822 121.486 100.807 122.596C100.792 123.722 99.8251 124.651 98.6922 124.635Z" fill="white"/>
<path d="M110.887 122.612C110.887 123.799 109.786 124.651 108.33 124.635C106.949 124.62 105.847 123.722 105.847 122.596C105.829 121.471 107.005 120.497 108.386 120.512C109.805 120.527 110.906 121.44 110.887 122.612Z" fill="white"/>
<path d="M74.4219 47.655C73.3192 47.6398 72.3977 46.715 72.3977 45.6234C72.3977 44.5167 73.3645 43.5312 74.4672 43.5312C75.5851 43.5312 76.5216 44.4864 76.5216 45.6234C76.5065 46.7757 75.5851 47.6701 74.4219 47.655Z" fill="white"/>
<path d="M5.49872 112.987C5.48362 111.56 6.37482 110.448 7.52282 110.43C8.65572 110.411 9.62245 111.579 9.62245 112.931C9.62245 114.246 8.68593 115.414 7.61346 115.469C6.49567 115.506 5.51383 114.358 5.49872 112.987Z" fill="white"/>
<path d="M69.84 110.43C68.7222 110.413 67.831 109.432 67.8159 108.181C67.8007 106.913 68.7524 105.848 69.8702 105.848C71.0031 105.848 71.9396 106.913 71.9396 108.164C71.9396 109.432 71.0031 110.446 69.84 110.43Z" fill="white"/>
<path d="M113.145 125.094C114.425 125.094 115.453 126.112 115.47 127.385C115.47 128.624 114.375 129.693 113.128 129.676C111.882 129.659 110.888 128.641 110.888 127.402C110.871 126.078 111.848 125.094 113.145 125.094Z" fill="white"/>
<path d="M151.417 125.094C152.58 125.077 153.486 126.074 153.501 127.359C153.501 128.593 152.61 129.641 151.523 129.675C150.375 129.709 149.363 128.61 149.378 127.342C149.393 126.108 150.314 125.111 151.417 125.094Z" fill="white"/>
<path d="M14.2047 112.922C14.2047 114.298 13.2531 115.47 12.1353 115.47C11.0175 115.47 10.0659 114.28 10.081 112.903C10.0961 111.546 11.0024 110.449 12.1202 110.43C13.2682 110.411 14.2047 111.527 14.2047 112.922Z" fill="white"/>
<path d="M41.0102 134.257C39.8965 134.257 38.9334 133.29 38.9484 132.187C38.9635 131.07 39.9266 130.118 41.0403 130.133C42.1239 130.148 43.0569 131.085 43.072 132.172C43.087 133.275 42.1088 134.257 41.0102 134.257Z" fill="white"/>
<path d="M139.297 50.3874C139.297 51.6601 138.239 52.7122 136.998 52.6952C135.789 52.6782 134.749 51.6431 134.715 50.4213C134.682 49.1656 135.739 48.1135 136.998 48.1135C138.307 48.0965 139.297 49.0808 139.297 50.3874Z" fill="white"/>
<path d="M96.2245 132.165C96.2415 133.339 95.2572 134.242 93.9675 134.257C92.7117 134.272 91.6426 133.323 91.6426 132.195C91.6426 131.066 92.7117 130.133 93.9675 130.133C95.2233 130.163 96.2245 131.051 96.2245 132.165Z" fill="white"/>
<path d="M158.542 132.202C158.542 133.35 157.49 134.272 156.217 134.257C154.978 134.241 153.977 133.335 153.96 132.217C153.943 131.069 154.961 130.133 156.234 130.133C157.507 130.118 158.542 131.054 158.542 132.202Z" fill="white"/>
<path d="M33.9077 45.6312C33.9077 44.4748 34.8884 43.5466 36.1902 43.5314C37.4245 43.5162 38.5066 44.49 38.4897 45.616C38.4727 46.742 37.4752 47.655 36.241 47.655C34.9391 47.6702 33.9077 46.7877 33.9077 45.6312Z" fill="white"/>
<path d="M40.9805 139.297C39.8518 139.28 38.9189 138.236 38.949 136.972C38.964 135.776 39.912 134.732 40.9955 134.715C42.094 134.698 43.0722 135.793 43.0722 137.023C43.0571 138.286 42.1241 139.314 40.9805 139.297Z" fill="white"/>
<path d="M48.1123 137.056C48.1123 135.776 49.1305 134.732 50.3863 134.715C51.6421 134.715 52.7112 135.793 52.6942 137.039C52.6942 138.269 51.6591 139.279 50.4372 139.296C49.1135 139.33 48.1123 138.353 48.1123 137.056Z" fill="white"/>
<path d="M139.755 98.4839C139.755 97.1869 140.756 96.2099 142.08 96.2268C143.319 96.2436 144.32 97.2374 144.337 98.4839C144.354 99.7304 143.285 100.808 142.029 100.808C140.756 100.825 139.755 99.781 139.755 98.4839Z" fill="white"/>
<path d="M62.3168 137.056C62.3 138.336 61.2762 139.33 59.9839 139.296C58.7587 139.279 57.7349 138.235 57.7349 137.022C57.7349 135.793 58.8258 134.698 60.051 134.715C61.3098 134.749 62.3336 135.793 62.3168 137.056Z" fill="white"/>
<path d="M84.278 139.297C82.9979 139.28 81.9874 138.253 82.0211 136.973C82.0379 135.709 83.1327 134.682 84.3622 134.716C85.558 134.749 86.6022 135.81 86.6022 137.023C86.619 138.253 85.5411 139.314 84.278 139.297Z" fill="white"/>
<path d="M96.2247 137.006C96.2247 138.32 95.2574 139.297 93.9506 139.297C92.6608 139.297 91.6426 138.27 91.6426 136.989C91.6595 135.777 92.6778 134.732 93.9167 134.716C95.1895 134.682 96.2247 135.709 96.2247 137.006Z" fill="white"/>
<path d="M146.865 139.297C145.717 139.314 144.78 138.286 144.796 137.023C144.796 135.776 145.762 134.698 146.88 134.715C147.952 134.732 148.888 135.759 148.919 136.989C148.949 138.202 147.997 139.28 146.865 139.297Z" fill="white"/>
<path d="M153.501 137.006C153.501 138.286 152.595 139.297 151.447 139.297C150.314 139.297 149.363 138.219 149.378 136.989C149.408 135.793 150.344 134.732 151.432 134.715C152.535 134.698 153.501 135.759 153.501 137.006Z" fill="white"/>
<path d="M76.5214 142.062C76.5063 143.334 75.5667 144.369 74.43 144.335C73.3086 144.318 72.3538 143.199 72.3993 141.96C72.4447 140.688 73.3843 139.721 74.5513 139.755C75.6727 139.789 76.5366 140.807 76.5214 142.062Z" fill="white"/>
<path d="M98.7298 139.754C99.882 139.754 100.822 140.789 100.807 142.045C100.792 143.267 99.8669 144.302 98.7753 144.336C97.6231 144.353 96.6831 143.335 96.6831 142.062C96.6831 140.738 97.5624 139.754 98.7298 139.754Z" fill="white"/>
<path d="M137.056 139.754C138.353 139.771 139.33 140.776 139.296 142.088C139.279 143.331 138.252 144.336 137.022 144.336C135.759 144.336 134.698 143.263 134.715 142.003C134.715 140.742 135.759 139.737 137.056 139.754Z" fill="white"/>
<path d="M7.50063 48.1135C8.65238 48.0965 9.60712 49.1147 9.62228 50.3705C9.63743 51.6093 8.66754 52.6954 7.5461 52.6954C6.45497 52.6954 5.51538 51.6772 5.50022 50.4384C5.45476 49.1487 6.33372 48.1305 7.50063 48.1135Z" fill="white"/>
<path d="M153.96 45.6386C153.943 44.4712 154.948 43.5464 156.225 43.5312C157.486 43.5312 158.542 44.4712 158.542 45.6083C158.542 46.7453 157.554 47.6247 156.293 47.655C154.982 47.6701 153.977 46.806 153.96 45.6386Z" fill="white"/>
<path d="M62.7751 146.619C62.7751 145.326 63.7933 144.319 65.0831 144.336C66.3219 144.353 67.3401 145.36 67.3571 146.585C67.374 147.844 66.3389 148.901 65.0661 148.918C63.7934 148.918 62.7751 147.894 62.7751 146.619Z" fill="white"/>
<path d="M12.1202 43.5314C13.238 43.5162 14.2047 44.4748 14.2047 45.6008C14.2047 46.742 13.2833 47.6702 12.1353 47.655C11.0175 47.655 10.1112 46.742 10.081 45.6465C10.0659 44.5205 11.0175 43.5314 12.1202 43.5314Z" fill="white"/>
<path d="M74.5122 110.43C73.3493 110.447 72.413 109.445 72.3979 108.173C72.3828 106.934 73.3342 105.865 74.4669 105.848C75.5543 105.831 76.4907 106.866 76.5209 108.088C76.5511 109.377 75.66 110.413 74.5122 110.43Z" fill="white"/>
<path d="M45.8301 82.0195C47.1148 82.0195 48.1291 83.0266 48.1122 84.3189C48.1122 85.5441 47.081 86.5847 45.8808 86.6015C44.6468 86.6183 43.5311 85.5609 43.5311 84.3189C43.4972 83.0769 44.5622 82.0195 45.8301 82.0195Z" fill="white"/>
<path d="M33.9075 88.8675C33.9261 90.1598 32.8289 91.1837 31.4155 91.1837C30.0207 91.1837 28.8491 90.1431 28.8677 88.901C28.8677 87.659 30.0579 86.6016 31.4341 86.6016C32.7917 86.6183 33.8889 87.6254 33.9075 88.8675Z" fill="white"/>
<path d="M110.888 146.619C110.888 145.343 111.919 144.319 113.187 144.336C114.438 144.353 115.503 145.427 115.469 146.669C115.435 147.877 114.404 148.901 113.187 148.918C111.936 148.935 110.888 147.894 110.888 146.619Z" fill="white"/>
<path d="M125.092 146.669C125.075 147.911 124.061 148.918 122.843 148.918C121.592 148.918 120.51 147.861 120.51 146.619C120.51 145.377 121.575 144.319 122.826 144.336C124.111 144.353 125.109 145.393 125.092 146.669Z" fill="white"/>
<path d="M136.989 144.336C138.252 144.319 139.297 145.36 139.297 146.618C139.297 147.843 138.303 148.884 137.09 148.917C135.861 148.951 134.749 147.91 134.715 146.669C134.682 145.444 135.76 144.353 136.989 144.336Z" fill="white"/>
<path d="M45.8549 153.503C44.5915 153.518 43.5471 152.596 43.5303 151.448C43.5303 150.346 44.6084 149.364 45.8549 149.379C47.0678 149.394 48.0953 150.316 48.1122 151.418C48.129 152.566 47.1352 153.488 45.8549 153.503Z" fill="white"/>
<path d="M125.092 98.5091C125.092 99.7679 124.031 100.825 122.784 100.808C121.571 100.775 120.527 99.7511 120.51 98.5427C120.493 97.2839 121.521 96.2433 122.784 96.2266C124.098 96.2266 125.092 97.2168 125.092 98.5091Z" fill="white"/>
<path d="M76.5214 151.441C76.5365 152.593 75.6153 153.503 74.4675 153.503C73.365 153.503 72.4437 152.593 72.3984 151.502C72.3682 150.41 73.3348 149.41 74.4373 149.38C75.5398 149.349 76.5214 150.319 76.5214 151.441Z" fill="white"/>
<path d="M84.3029 48.1133C85.5784 48.1133 86.619 49.1653 86.6022 50.4209C86.5854 51.6765 85.4945 52.7286 84.2526 52.6946C83.0442 52.6776 82.0373 51.6426 82.0205 50.4039C82.0037 49.1144 83.0107 48.1133 84.3029 48.1133Z" fill="white"/>
<path d="M91.1843 151.479C91.1692 152.611 90.2327 153.518 89.0847 153.503C87.9971 153.488 87.0605 152.551 87.0605 151.463C87.0605 150.361 88.0273 149.379 89.1451 149.379C90.2327 149.379 91.1994 150.361 91.1843 151.479Z" fill="white"/>
<path d="M118.005 153.503C116.876 153.503 115.943 152.581 115.928 151.449C115.928 150.346 116.921 149.364 118.02 149.379C119.089 149.394 120.037 150.361 120.052 151.418C120.067 152.551 119.134 153.488 118.005 153.503Z" fill="white"/>
<path d="M125.092 151.456C125.092 152.623 124.078 153.518 122.793 153.503C121.525 153.487 120.493 152.548 120.51 151.411C120.527 150.319 121.575 149.394 122.793 149.379C124.044 149.364 125.092 150.319 125.092 151.456Z" fill="white"/>
<path d="M48.1122 74.4529C48.129 75.616 47.1183 76.5224 45.8381 76.5224C44.5747 76.5224 43.5303 75.5858 43.5303 74.4529C43.5303 73.3502 44.6252 72.3835 45.8718 72.3986C47.0846 72.4288 48.0954 73.3502 48.1122 74.4529Z" fill="white"/>
<path d="M113.145 153.961C114.442 153.944 115.453 154.966 115.47 156.243C115.47 157.521 114.425 158.56 113.145 158.543C111.882 158.526 110.905 157.555 110.888 156.278C110.871 154.966 111.831 153.961 113.145 153.961Z" fill="white"/>
<path d="M21.7499 62.3165C20.5978 62.3165 19.6882 61.3095 19.7033 60.0171C19.7033 58.7919 20.6281 57.7681 21.7196 57.7346C22.8263 57.7178 23.8269 58.7919 23.8269 60.0171C23.842 61.2591 22.8869 62.3165 21.7499 62.3165Z" fill="white"/>
<path d="M132.432 158.543C131.157 158.543 130.116 157.487 130.133 156.227C130.15 154.949 131.173 153.944 132.466 153.961C133.708 153.978 134.698 154.983 134.715 156.227C134.731 157.504 133.691 158.543 132.432 158.543Z" fill="white"/>
<path d="M81.5617 112.913C81.5786 114.321 80.5435 115.47 79.2707 115.47C78.0149 115.47 76.9797 114.321 76.9797 112.913C76.9797 111.523 77.947 110.448 79.2198 110.43C80.5435 110.411 81.5447 111.486 81.5617 112.913Z" fill="white"/>
<path d="M110.887 112.884C110.906 114.316 109.823 115.432 108.405 115.469C107.042 115.506 105.847 114.316 105.847 112.94C105.847 111.583 106.949 110.449 108.311 110.43C109.767 110.411 110.869 111.471 110.887 112.884Z" fill="white"/>
<path d="M125.092 112.959C125.075 114.344 124.01 115.488 122.759 115.47C121.575 115.451 120.527 114.251 120.51 112.941C120.51 111.556 121.541 110.43 122.826 110.43C124.111 110.448 125.109 111.537 125.092 112.959Z" fill="white"/>
<path d="M142.046 110.43C143.319 110.43 144.354 111.583 144.337 112.977C144.32 114.372 143.234 115.506 141.978 115.469C140.739 115.432 139.755 114.316 139.755 112.94C139.772 111.49 140.739 110.43 142.046 110.43Z" fill="white"/>
<path d="M48.1125 118.022C48.0955 116.878 49.0968 115.945 50.3695 115.93C51.6084 115.915 52.6944 116.878 52.6944 117.992C52.6944 119.12 51.6253 120.054 50.3695 120.054C49.1307 120.039 48.1295 119.136 48.1125 118.022Z" fill="white"/>
<path d="M45.8549 5.04035C44.5578 5.04035 43.5303 3.93489 43.5303 2.52965C43.5303 1.12442 44.5747 -0.0185094 45.8549 0.000227125C47.1015 0.000227125 48.0953 1.08694 48.1122 2.47344C48.129 3.93489 47.1689 5.02161 45.8549 5.04035Z" fill="white"/>
<path d="M74.4822 5.04035C73.3342 5.04035 72.3977 3.89742 72.3977 2.51092C72.4128 1.12442 73.3644 -0.0185094 74.4973 0.000227135C75.6151 0.0189636 76.5063 1.12442 76.5214 2.49218C76.5365 3.91616 75.6453 5.04035 74.4822 5.04035Z" fill="white"/>
<path d="M89.1301 5.04035C87.9821 5.04035 87.0456 3.90165 87.0607 2.50162C87.0758 1.12025 88.0274 -0.0184408 89.1603 0.000226294C90.278 0.0188934 91.1692 1.12025 91.1843 2.50162C91.1994 3.90165 90.2931 5.04035 89.1301 5.04035Z" fill="white"/>
<path d="M91.1843 7.32164C91.1843 8.56363 90.2026 9.63778 89.1001 9.621C87.9976 9.60422 87.031 8.4965 87.0612 7.27129C87.0914 6.06287 88.0278 5.05585 89.1152 5.03906C90.263 5.03906 91.1994 6.07965 91.1843 7.32164Z" fill="white"/>
<path d="M40.9804 19.246C39.8368 19.246 38.9189 18.1939 38.949 16.9212C38.964 15.6994 39.897 14.6812 40.9954 14.6643C42.1089 14.6473 43.087 15.7164 43.072 16.9721C43.0419 18.2448 42.124 19.263 40.9804 19.246Z" fill="white"/>
<path d="M55.4356 19.2462C54.1433 19.2462 53.1363 18.228 53.153 16.9383C53.1698 15.6994 54.1768 14.6812 55.4188 14.6643C56.6776 14.6473 57.735 15.6994 57.735 16.9552C57.735 18.228 56.7112 19.2462 55.4356 19.2462Z" fill="white"/>
<path d="M69.8399 19.246C68.7221 19.229 67.831 18.2448 67.8159 16.989C67.8007 15.7162 68.7372 14.6641 69.8701 14.6641C71.0029 14.6641 71.9394 15.7162 71.9394 16.989C71.9545 18.2448 71.0029 19.263 69.8399 19.246Z" fill="white"/>
<path d="M84.3029 19.2462C83.0107 19.2462 82.0037 18.245 82.0205 16.9552C82.0205 15.6825 83.061 14.6473 84.3365 14.6643C85.5449 14.6812 86.5854 15.7164 86.6022 16.9383C86.619 18.194 85.5784 19.2462 84.3029 19.2462Z" fill="white"/>
<path d="M142.021 124.636C140.692 124.636 139.738 123.753 139.755 122.551C139.772 121.394 140.794 120.497 142.089 120.512C143.315 120.527 144.337 121.471 144.337 122.581C144.354 123.738 143.332 124.636 142.021 124.636Z" fill="white"/>
<path d="M89.1002 19.246C87.9524 19.229 87.0311 18.1939 87.0613 16.9212C87.0915 15.6994 88.0128 14.6643 89.1153 14.6643C90.2481 14.6473 91.1845 15.6994 91.1845 16.9721C91.1694 18.2618 90.2632 19.263 89.1002 19.246Z" fill="white"/>
<path d="M48.1122 21.5536C48.0953 22.8168 47.0341 23.8611 45.7708 23.8274C44.558 23.7937 43.5136 22.7326 43.5305 21.5368C43.5305 20.2735 44.5748 19.2461 45.8382 19.2461C47.1352 19.2461 48.129 20.2567 48.1122 21.5536Z" fill="white"/>
<path d="M69.825 129.675C68.7074 129.658 67.7862 128.56 67.8164 127.292C67.8466 126.007 68.783 125.061 69.961 125.095C71.0635 125.128 71.9545 126.176 71.9394 127.41C71.9243 128.678 70.9577 129.709 69.825 129.675Z" fill="white"/>
<path d="M84.3034 129.676C83.0951 129.693 82.0547 128.678 82.0211 127.444C81.9875 126.159 82.9776 125.111 84.253 125.094C85.5284 125.077 86.5856 126.091 86.6024 127.343C86.6024 128.577 85.562 129.642 84.3034 129.676Z" fill="white"/>
<path d="M81.5617 21.5536C81.5446 22.8168 80.4717 23.8611 79.2115 23.8274C77.9343 23.7937 76.9465 22.7326 76.9806 21.4525C77.0147 20.1893 78.0024 19.2461 79.2796 19.2461C80.5739 19.2461 81.5787 20.2567 81.5617 21.5536Z" fill="white"/>
<path d="M82.0205 21.5536C82.0036 20.2735 83.0142 19.2461 84.2942 19.2461C85.5237 19.2461 86.5679 20.2398 86.6016 21.4526C86.6353 22.6821 85.5742 23.7938 84.3447 23.8274C83.1152 23.8611 82.0205 22.8 82.0205 21.5536Z" fill="white"/>
<path d="M48.1123 26.5846C48.1123 25.3091 49.1475 24.2686 50.4033 24.2854C51.6251 24.3021 52.6603 25.3091 52.6942 26.5343C52.7112 27.793 51.676 28.8503 50.4202 28.8671C49.1475 28.8839 48.1123 27.8601 48.1123 26.5846Z" fill="white"/>
<path d="M103.282 28.8671C102.169 28.8335 101.236 27.7594 101.266 26.5174C101.296 25.3257 102.259 24.2852 103.327 24.2852C104.441 24.2852 105.389 25.3593 105.389 26.6013C105.359 27.8265 104.396 28.8839 103.282 28.8671Z" fill="white"/>
<path d="M50.3864 33.9062C51.6761 33.9062 52.7112 34.9376 52.6942 36.2057C52.6773 37.4399 51.6421 38.4713 50.4373 38.4882C49.1477 38.5051 48.1295 37.4906 48.1125 36.2057C48.0956 34.8869 49.0628 33.9062 50.3864 33.9062Z" fill="white"/>
<path d="M67.8159 41.0482C67.8007 39.9309 68.7373 38.9645 69.8551 38.9494C70.9578 38.9343 71.9396 39.9309 71.9396 41.018C71.9396 42.0901 70.988 43.0414 69.9155 43.0716C68.8128 43.1169 67.831 42.1656 67.8159 41.0482Z" fill="white"/>
<path d="M84.3356 134.257C83.0941 134.272 82.037 133.338 82.0203 132.21C82.0203 131.066 83.0437 130.133 84.3021 130.133C85.4933 130.133 86.5504 131.051 86.6007 132.134C86.651 133.233 85.5772 134.242 84.3356 134.257Z" fill="white"/>
<path d="M141.995 38.9494C143.251 38.9343 144.32 39.8707 144.337 41.0034C144.337 42.1058 143.336 43.0422 142.114 43.0724C140.858 43.1026 139.772 42.1965 139.755 41.0487C139.738 39.9009 140.723 38.9645 141.995 38.9494Z" fill="white"/>
<path d="M5.04035 45.6386C5.02168 46.806 3.92027 47.6701 2.46417 47.655C1.08274 47.6398 0 46.7302 0 45.6083C0 44.4712 1.15741 43.5312 2.53884 43.5312C3.95761 43.5464 5.04035 44.4712 5.04035 45.6386Z" fill="white"/>
<path d="M81.5619 45.6234C81.5448 46.7908 80.5398 47.6701 79.2282 47.655C77.9677 47.6398 76.9797 46.7605 76.9797 45.6234C76.9797 44.4712 78.0018 43.5312 79.2793 43.5312C80.5228 43.5313 81.5619 44.4712 81.5619 45.6234Z" fill="white"/>
<path d="M127.383 43.5312C128.639 43.5312 129.691 44.4899 129.674 45.6312C129.657 46.742 128.639 47.655 127.4 47.655C126.094 47.6702 125.092 46.7876 125.092 45.6159C125.092 44.4442 126.094 43.5312 127.383 43.5312Z" fill="white"/>
<path d="M26.5349 48.1135C27.8271 48.0965 28.8508 49.1147 28.8675 50.3874C28.8675 51.6431 27.8271 52.7122 26.5685 52.6952C25.3434 52.6952 24.3198 51.6771 24.2862 50.4383C24.2526 49.1826 25.2763 48.1305 26.5349 48.1135Z" fill="white"/>
<path d="M118.02 48.1135C119.148 48.1305 120.081 49.1826 120.051 50.4383C120.021 51.6771 119.103 52.6782 118.005 52.6952C116.891 52.7122 115.928 51.6261 115.928 50.3874C115.943 49.0977 116.861 48.0965 118.02 48.1135Z" fill="white"/>
<path d="M19.245 55.4183C19.245 56.7107 18.2437 57.7345 16.971 57.7345C15.7152 57.7345 14.6461 56.6771 14.663 55.4351C14.68 54.1763 15.7322 53.1358 17.0049 53.1525C18.2607 53.1861 19.245 54.1763 19.245 55.4183Z" fill="white"/>
<path d="M76.5214 136.989C76.5365 138.27 75.6304 139.297 74.4675 139.297C73.365 139.297 72.4286 138.286 72.3984 137.091C72.3682 135.861 73.3197 134.749 74.4373 134.716C75.5549 134.682 76.5214 135.743 76.5214 136.989Z" fill="white"/>
<path d="M142.046 53.1526C143.319 53.1693 144.354 54.2265 144.337 55.4851C144.32 56.7436 143.234 57.7672 141.978 57.7337C140.706 57.7001 139.738 56.6597 139.755 55.3676C139.772 54.1258 140.79 53.1358 142.046 53.1526Z" fill="white"/>
<path d="M139.755 60.0174C139.755 58.7421 140.828 57.7016 142.072 57.7352C143.298 57.7687 144.337 58.8092 144.337 60.0174C144.354 61.2928 143.315 62.3165 142.038 62.3165C140.726 62.3165 139.738 61.3264 139.755 60.0174Z" fill="white"/>
<path d="M132.449 62.7737C133.691 62.7907 134.698 63.7786 134.715 65.022C134.731 66.2825 133.691 67.3556 132.432 67.3556C131.173 67.3556 130.116 66.2995 130.133 65.0391C130.133 63.7616 131.157 62.7566 132.449 62.7737Z" fill="white"/>
<path d="M38.9482 69.8707C38.9482 68.7529 39.9149 67.8164 41.0325 67.8164C42.1502 67.8315 43.1017 68.7983 43.0715 69.916C43.0413 70.9885 42.0897 71.9402 41.0174 71.9402C39.93 71.9553 38.9482 70.9734 38.9482 69.8707Z" fill="white"/>
<path d="M69.8851 139.754C71.0029 139.771 71.9092 140.755 71.9394 141.994C71.9545 143.25 71.018 144.336 69.8851 144.336C68.7522 144.353 67.8157 143.301 67.8157 142.028C67.8157 140.738 68.722 139.737 69.8851 139.754Z" fill="white"/>
<path d="M127.333 67.8166C128.605 67.8015 129.674 68.738 129.674 69.8558C129.674 70.9887 128.622 71.9403 127.366 71.9403C126.145 71.9403 125.109 71.034 125.093 69.9313C125.076 68.7531 126.043 67.8317 127.333 67.8166Z" fill="white"/>
<path d="M89.1604 139.754C90.2781 139.771 91.1694 140.755 91.1845 142.011C91.1845 143.284 90.263 144.336 89.1301 144.336C88.0124 144.336 87.0456 143.267 87.0607 142.011C87.0607 140.738 87.9821 139.737 89.1604 139.754Z" fill="white"/>
<path d="M139.755 69.9009C139.738 68.7378 140.726 67.8164 142.021 67.8164C143.298 67.8164 144.354 68.7529 144.337 69.8858C144.337 71.0187 143.264 71.9553 141.987 71.9401C140.76 71.925 139.772 71.0187 139.755 69.9009Z" fill="white"/>
<path d="M113.12 139.754C114.422 139.737 115.453 140.738 115.47 142.011C115.487 143.267 114.422 144.336 113.171 144.336C111.92 144.336 110.905 143.335 110.889 142.096C110.855 140.755 111.801 139.771 113.12 139.754Z" fill="white"/>
<path d="M153.96 69.8557C153.977 68.7078 155.016 67.8015 156.293 67.8166C157.554 67.8468 158.542 68.738 158.542 69.8557C158.542 71.0037 157.503 71.9401 156.242 71.9401C154.982 71.9553 153.943 71.0037 153.96 69.8557Z" fill="white"/>
<path d="M19.7033 74.4225C19.7185 73.335 20.6736 72.3984 21.7499 72.3984C22.8566 72.3984 23.842 73.3803 23.8269 74.483C23.8117 75.6008 22.8415 76.5373 21.7196 76.5222C20.5674 76.5071 19.6882 75.5856 19.7033 74.4225Z" fill="white"/>
<path d="M48.1123 74.468C48.1123 73.32 49.1644 72.3835 50.4202 72.3986C51.6421 72.4137 52.6773 73.3503 52.6942 74.4378C52.7112 75.5858 51.693 76.5073 50.4033 76.5224C49.1135 76.5224 48.1123 75.616 48.1123 74.468Z" fill="white"/>
<path d="M139.755 74.4532C139.772 73.3053 140.828 72.3689 142.072 72.3991C143.315 72.4294 144.337 73.3658 144.337 74.4532C144.337 75.586 143.298 76.5224 142.021 76.5224C140.743 76.5073 139.738 75.6162 139.755 74.4532Z" fill="white"/>
<path d="M132.449 76.9805C133.707 76.9975 134.747 78.0706 134.714 79.3311C134.68 80.5746 133.657 81.5626 132.432 81.5626C131.156 81.5626 130.116 80.5235 130.133 79.246C130.116 77.9855 131.156 76.9805 132.449 76.9805Z" fill="white"/>
<path d="M19.2448 84.3186C19.2448 85.594 18.1757 86.6344 16.9369 86.6009C15.7151 86.5673 14.68 85.5436 14.663 84.3186C14.6461 83.06 15.6812 82.0195 16.9709 82.0195C18.2605 82.0195 19.2617 83.0264 19.2448 84.3186Z" fill="white"/>
<path d="M153.96 60.0673C153.943 58.7917 154.978 57.7344 156.234 57.7344C157.49 57.7344 158.542 58.775 158.542 60.0505C158.542 61.2925 157.558 62.2827 156.302 62.3163C154.978 62.3331 153.977 61.3596 153.96 60.0673Z" fill="white"/>
<path d="M26.5765 82.0195C27.8307 82.0195 28.8675 83.047 28.8675 84.3102C28.8675 85.5398 27.7471 86.6346 26.543 86.6009C25.339 86.5672 24.3021 85.5061 24.2854 84.3102C24.2854 83.0807 25.339 82.0195 26.5765 82.0195Z" fill="white"/>
<path d="M110.888 146.627C110.888 147.915 109.772 148.935 108.377 148.918C107 148.901 105.847 147.848 105.847 146.593C105.866 145.389 107 144.369 108.339 144.336C109.753 144.336 110.888 145.356 110.888 146.627Z" fill="white"/>
<path d="M50.3528 82.0197C51.6423 82.003 52.6773 83.01 52.6942 84.2855C52.7112 85.5275 51.6423 86.6017 50.3867 86.6017C49.1651 86.6017 48.1301 85.5946 48.1132 84.3694C48.0792 83.0435 49.0633 82.0365 50.3528 82.0197Z" fill="white"/>
<path d="M125.092 84.3186C125.076 83.0264 126.077 82.0195 127.366 82.0195C128.605 82.0195 129.64 83.0097 129.674 84.2347C129.708 85.5101 128.605 86.6345 127.332 86.6009C126.111 86.5674 125.092 85.5437 125.092 84.3186Z" fill="white"/>
<path d="M132.415 144.336C133.657 144.336 134.715 145.41 134.715 146.635C134.715 147.861 133.59 148.935 132.382 148.918C131.19 148.901 130.15 147.844 130.133 146.635C130.116 145.393 131.173 144.336 132.415 144.336Z" fill="white"/>
<path d="M139.755 84.3022C139.755 83.0099 140.756 82.003 142.046 82.0197C143.319 82.0197 144.354 83.0603 144.337 84.3358C144.32 85.5441 143.285 86.5847 142.063 86.6015C140.807 86.6182 139.755 85.5777 139.755 84.3022Z" fill="white"/>
<path d="M139.755 146.635C139.755 145.343 140.773 144.336 142.046 144.336C143.284 144.353 144.303 145.343 144.336 146.585C144.37 147.843 143.318 148.9 142.063 148.917C140.79 148.951 139.755 147.927 139.755 146.635Z" fill="white"/>
<path d="M19.245 88.8843C19.245 90.1767 18.2437 91.1837 16.954 91.1837C15.6813 91.1837 14.6461 90.1263 14.663 88.8676C14.68 87.6424 15.6982 86.6185 16.937 86.6018C18.2098 86.585 19.245 87.6088 19.245 88.8843Z" fill="white"/>
<path d="M52.6944 89.1133C52.6944 90.2461 51.6593 91.1825 50.3695 91.1825C49.1137 91.1825 48.1125 90.2914 48.1125 89.1738C48.0955 88.0108 49.0968 87.0744 50.3695 87.0593C51.6253 87.0291 52.6944 87.9806 52.6944 89.1133Z" fill="white"/>
<path d="M153.96 88.9177C153.96 87.6421 154.999 86.6016 156.259 86.6016C157.52 86.6016 158.559 87.6589 158.542 88.9345C158.525 90.1765 157.52 91.1667 156.276 91.1835C154.999 91.2003 153.96 90.1933 153.96 88.9177Z" fill="white"/>
<path d="M7.50754 96.2264C6.37464 96.2095 5.51364 95.2422 5.49854 93.9694C5.49854 92.6797 6.40485 91.6615 7.55285 91.6445C8.67064 91.6445 9.63739 92.7306 9.62228 93.9694C9.60717 95.2592 8.67065 96.2434 7.50754 96.2264Z" fill="white"/>
<path d="M151.417 96.2264C150.299 96.2094 149.393 95.2045 149.378 93.9782C149.363 92.7348 150.329 91.6277 151.447 91.6447C152.595 91.6447 153.501 92.6837 153.501 93.9611C153.486 95.2726 152.595 96.2435 151.417 96.2264Z" fill="white"/>
<path d="M110.888 151.403C110.905 150.315 111.966 149.379 113.162 149.379C114.392 149.379 115.486 150.361 115.47 151.464C115.453 152.596 114.392 153.503 113.128 153.503C111.848 153.503 110.871 152.566 110.888 151.403Z" fill="white"/>
<path d="M19.7031 84.3018C19.7031 83.0264 20.6127 82.0195 21.7647 82.0195C22.8865 82.0363 23.8567 83.1103 23.8264 84.3354C23.796 85.5269 22.8562 86.5841 21.7647 86.6009C20.6733 86.6345 19.7031 85.5604 19.7031 84.3018Z" fill="white"/>
<path d="M139.755 103.305C139.772 102.157 140.824 101.236 142.08 101.266C143.319 101.297 144.32 102.218 144.337 103.32C144.337 104.453 143.285 105.39 142.029 105.39C140.74 105.39 139.738 104.468 139.755 103.305Z" fill="white"/>
<path d="M132.448 153.503C131.19 153.503 130.133 152.581 130.133 151.449C130.133 150.346 131.24 149.364 132.448 149.379C133.64 149.394 134.697 150.331 134.714 151.418C134.747 152.521 133.69 153.488 132.448 153.503Z" fill="white"/>
<path d="M158.542 103.35C158.525 104.498 157.469 105.419 156.208 105.389C154.931 105.359 153.943 104.437 153.96 103.274C153.977 102.172 155.016 101.266 156.259 101.266C157.52 101.266 158.559 102.202 158.542 103.35Z" fill="white"/>
<path d="M62.317 156.252C62.317 157.542 61.3101 158.56 60.0179 158.543C58.7593 158.526 57.7021 157.457 57.7356 156.201C57.7692 154.979 58.7929 153.961 60.0179 153.961C61.3101 153.961 62.317 154.962 62.317 156.252Z" fill="white"/>
<path d="M69.9002 153.961C71.0029 153.978 71.9243 154.979 71.9394 156.218C71.9545 157.474 71.018 158.543 69.8851 158.543C68.7371 158.543 67.8157 157.525 67.8157 156.235C67.8157 154.962 68.7371 153.944 69.9002 153.961Z" fill="white"/>
<path d="M89.1002 153.961C90.2632 153.944 91.1845 154.962 91.1845 156.235C91.1845 157.508 90.2632 158.543 89.1153 158.543C88.0128 158.543 87.0915 157.542 87.0613 156.303C87.0311 155.047 87.9675 153.978 89.1002 153.961Z" fill="white"/>
<path d="M41.0472 110.43C39.8996 110.446 38.9633 109.432 38.9482 108.164C38.9482 106.913 39.8996 105.848 41.017 105.848C42.1042 105.848 43.0555 106.879 43.0706 108.079C43.1159 109.364 42.1797 110.413 41.0472 110.43Z" fill="white"/>
<path d="M89.1451 110.43C87.9971 110.447 87.0605 109.411 87.0605 108.156C87.0605 106.9 88.0122 105.848 89.1451 105.848C90.2326 105.848 91.1692 106.883 91.1843 108.105C91.1994 109.394 90.2931 110.43 89.1451 110.43Z" fill="white"/>
<path d="M21.7575 110.43C22.8905 110.43 23.827 111.56 23.827 112.949C23.827 114.265 22.8754 115.451 21.8028 115.469C20.6699 115.506 19.7182 114.358 19.7031 112.968C19.7031 111.56 20.5944 110.43 21.7575 110.43Z" fill="white"/>
<path d="M139.297 156.294C139.28 157.589 138.235 158.576 136.955 158.542C135.725 158.508 134.715 157.469 134.715 156.243C134.715 154.966 135.759 153.944 137.056 153.961C138.336 153.961 139.313 154.983 139.297 156.294Z" fill="white"/>
<path d="M26.5848 53.1523C27.8268 53.1523 28.8841 54.2265 28.8673 55.4685C28.8506 56.6769 27.81 57.7175 26.6184 57.7343C25.3933 57.7511 24.2856 56.6769 24.2856 55.4517C24.2688 54.2265 25.3429 53.1523 26.5848 53.1523Z" fill="white"/>
<path d="M62.7751 7.30506C62.7751 6.01272 63.7972 5.02249 65.0918 5.03927C66.3523 5.05606 67.3402 6.04629 67.3573 7.28827C67.3573 8.54704 66.3182 9.62119 65.0577 9.62119C63.8142 9.62119 62.7751 8.58061 62.7751 7.30506Z" fill="white"/>
<path d="M113.17 5.04035C111.851 5.04035 110.871 3.95363 110.888 2.51092C110.888 1.12442 111.885 0.0189673 113.119 0.000230843C114.387 -0.0185056 115.452 1.10568 115.469 2.51092C115.503 3.89742 114.472 5.04035 113.17 5.04035Z" fill="white"/>
<path d="M26.6262 101.266C27.8635 101.281 28.9002 102.278 28.8667 103.381C28.8333 104.468 27.7799 105.39 26.5761 105.39C25.3388 105.39 24.2854 104.423 24.2854 103.305C24.3021 102.217 25.4057 101.251 26.6262 101.266Z" fill="white"/>
<path d="M153.96 146.602C153.977 145.326 155.016 144.319 156.293 144.336C157.571 144.37 158.559 145.41 158.542 146.686C158.508 147.911 157.469 148.918 156.242 148.918C154.965 148.918 153.943 147.894 153.96 146.602Z" fill="white"/>
<path d="M84.3028 5.04035C83.0105 5.04035 82.0203 3.93489 82.0203 2.51092C82.0203 1.08695 83.0608 -0.0185018 84.3364 0.000234674C85.5616 0.0189711 86.5854 1.1619 86.6022 2.51092C86.619 3.87868 85.5784 5.04035 84.3028 5.04035Z" fill="white"/>
<path d="M96.2245 45.6234C96.2245 46.806 95.2366 47.6701 93.908 47.655C92.6475 47.6398 91.6426 46.7453 91.6426 45.6234C91.6426 44.4712 92.6646 43.5312 93.9421 43.5312C95.2195 43.5313 96.2415 44.4561 96.2245 45.6234Z" fill="white"/>
<path d="M19.2448 112.885C19.2617 114.316 18.2945 115.432 16.9878 115.469C15.7491 115.506 14.6461 114.316 14.663 112.941C14.663 111.565 15.6642 110.449 16.903 110.431C18.2436 110.393 19.2278 111.453 19.2448 112.885Z" fill="white"/>
<path d="M48.1125 103.35C48.0955 102.187 49.1137 101.266 50.3864 101.266C51.6591 101.266 52.7112 102.202 52.6942 103.335C52.6942 104.438 51.6761 105.359 50.4543 105.389C49.1646 105.404 48.1295 104.498 48.1125 103.35Z" fill="white"/>
<path d="M105.389 117.999C105.374 119.117 104.392 120.069 103.29 120.053C102.172 120.023 101.236 119.041 101.266 117.939C101.296 116.851 102.248 115.93 103.335 115.93C104.437 115.915 105.404 116.897 105.389 117.999Z" fill="white"/>
<path d="M151.432 153.961C152.595 153.944 153.501 154.945 153.501 156.235C153.501 157.49 152.625 158.508 151.523 158.542C150.375 158.576 149.423 157.575 149.378 156.303C149.348 155.047 150.299 153.961 151.432 153.961Z" fill="white"/>
<path d="M33.9078 108.139C33.9078 109.463 32.8477 110.43 31.397 110.43C29.9835 110.43 28.8491 109.395 28.8677 108.122C28.8863 106.884 30.0021 105.865 31.3598 105.848C32.7547 105.815 33.9078 106.85 33.9078 108.139Z" fill="white"/>
<path d="M50.3781 33.4493C49.0593 33.4493 48.0956 32.4856 48.1125 31.1499C48.1125 29.8649 49.1439 28.8505 50.4288 28.8674C51.6631 28.8843 52.6775 29.9157 52.6944 31.1499C52.6944 32.418 51.6631 33.4493 50.3781 33.4493Z" fill="white"/>
<path d="M48.1124 45.586C48.1124 46.7575 47.1149 47.6552 45.8299 47.6552C44.5618 47.6552 43.5136 46.7119 43.5305 45.586C43.5305 44.5057 44.5956 43.5472 45.7961 43.532C47.0472 43.5015 48.1124 44.4449 48.1124 45.586Z" fill="white"/>
<path d="M146.82 158.543C145.672 158.526 144.766 157.47 144.796 156.193C144.826 154.915 145.763 153.928 146.926 153.962C148.028 153.996 148.934 155.018 148.919 156.261C148.904 157.538 147.968 158.56 146.82 158.543Z" fill="white"/>
<path d="M62.7751 45.6234C62.7751 44.4561 63.7801 43.5312 65.0576 43.5312C66.3351 43.5312 67.3741 44.4712 67.3571 45.6234C67.3571 46.7453 66.3521 47.6398 65.0917 47.655C63.7631 47.6701 62.7751 46.806 62.7751 45.6234Z" fill="white"/>
<path d="M103.32 110.43C102.172 110.43 101.25 109.378 101.265 108.122C101.296 106.883 102.202 105.865 103.305 105.848C104.437 105.831 105.389 106.883 105.389 108.139C105.389 109.429 104.483 110.43 103.32 110.43Z" fill="white"/>
<path d="M57.7348 26.5514C57.7516 27.7765 56.6776 28.8673 55.4358 28.8673C54.2276 28.8673 53.1872 27.8268 53.1536 26.6353C53.1201 25.3935 54.1605 24.3027 55.4022 24.2859C56.6272 24.2524 57.718 25.3264 57.7348 26.5514Z" fill="white"/>
<path d="M113.179 110.43C114.442 110.43 115.47 111.564 115.47 112.959C115.47 114.28 114.425 115.451 113.212 115.47C111.949 115.488 110.905 114.354 110.888 112.959C110.905 111.527 111.882 110.43 113.179 110.43Z" fill="white"/>
<path d="M96.2247 21.4867C96.2247 22.7838 95.2197 23.8282 93.9592 23.8282C92.6987 23.8282 91.6426 22.7838 91.6426 21.5204C91.6426 20.2739 92.6305 19.28 93.891 19.2463C95.2027 19.2295 96.2247 20.1896 96.2247 21.4867Z" fill="white"/>
<path d="M156.217 124.635C154.91 124.62 153.943 123.723 153.96 122.536C153.977 121.395 155.029 120.482 156.319 120.512C157.541 120.528 158.542 121.471 158.542 122.582C158.525 123.753 157.524 124.651 156.217 124.635Z" fill="white"/>
<path d="M151.462 62.7736C152.625 62.7736 153.516 63.7786 153.501 65.0901C153.486 66.3505 152.595 67.3383 151.477 67.3554C150.344 67.3724 149.393 66.3164 149.378 65.056C149.363 63.7956 150.314 62.7566 151.462 62.7736Z" fill="white"/>
<path d="M136.989 96.2264C135.709 96.2094 134.682 95.1706 134.715 93.8933C134.749 92.6331 135.827 91.6113 137.09 91.6454C138.337 91.6794 139.297 92.6842 139.297 93.9614C139.28 95.2728 138.303 96.2435 136.989 96.2264Z" fill="white"/>
<path d="M31.397 48.1133C32.8477 48.1133 33.9078 49.077 33.9078 50.4127C33.9078 51.6639 32.8105 52.6614 31.4528 52.6952C30.0765 52.7121 28.8863 51.6808 28.8677 50.4127C28.8491 49.1277 29.965 48.1133 31.397 48.1133Z" fill="white"/>
<path d="M108.395 33.4493C106.982 33.4493 105.829 32.4349 105.847 31.1668C105.866 29.8987 107.019 28.8505 108.414 28.8674C109.79 28.8843 110.869 29.8818 110.888 31.133C110.888 32.4687 109.827 33.4493 108.395 33.4493Z" fill="white"/>
<path d="M48.1124 65.056C48.1124 66.3505 47.0981 67.3724 45.8133 67.3554C44.5454 67.3383 43.4973 66.2653 43.5311 65.0049C43.5649 63.7615 44.5623 62.7737 45.8302 62.7737C47.1319 62.7566 48.1124 63.7275 48.1124 65.056Z" fill="white"/>
<path d="M62.7754 112.894C62.7924 111.449 63.7803 110.411 65.1089 110.43C66.3694 110.448 67.3573 111.542 67.3573 112.931C67.3573 114.321 66.3183 115.47 65.0408 115.47C63.7463 115.452 62.7583 114.321 62.7754 112.894Z" fill="white"/>
<path d="M12.1051 110.43C10.9873 110.413 10.081 109.411 10.081 108.173C10.0659 106.917 11.0175 105.848 12.1353 105.848C13.2682 105.848 14.2047 106.9 14.2047 108.173C14.1896 109.445 13.2682 110.447 12.1051 110.43Z" fill="white"/>
<path d="M48.1124 112.941C48.1124 114.335 47.068 115.47 45.8046 115.47C44.6086 115.47 43.5473 114.298 43.5305 112.978C43.5136 111.583 44.558 110.43 45.8214 110.43C47.1185 110.43 48.1124 111.527 48.1124 112.941Z" fill="white"/>
<path d="M67.3571 151.426C67.3741 152.578 66.3522 153.503 65.0577 153.503C63.7803 153.503 62.7924 152.639 62.7754 151.517C62.7583 150.35 63.7292 149.41 65.0066 149.38C66.25 149.349 67.34 150.289 67.3571 151.426Z" fill="white"/>
<path d="M89.1599 38.9494C90.2776 38.9644 91.214 39.9425 91.1838 41.0561C91.1535 42.1696 90.1718 43.1025 89.0693 43.0724C87.997 43.0273 87.0605 42.0642 87.0605 41.0109C87.0605 39.9124 88.0574 38.9343 89.1599 38.9494Z" fill="white"/>
<path d="M19.245 45.6085C19.245 46.791 18.2607 47.6552 16.954 47.6552C15.6813 47.6552 14.6461 46.7152 14.663 45.563C14.68 44.4714 15.7152 43.5466 16.954 43.5314C18.2098 43.5163 19.245 44.4411 19.245 45.6085Z" fill="white"/>
<path d="M55.4858 110.43C54.1934 110.447 53.1696 109.445 53.1528 108.173C53.1528 106.9 54.1766 105.865 55.4522 105.848C56.711 105.848 57.7515 106.917 57.7348 108.173C57.7348 109.411 56.7277 110.413 55.4858 110.43Z" fill="white"/>
<path d="M110.888 55.4186C110.888 56.7108 109.786 57.7345 108.386 57.7345C106.986 57.7345 105.829 56.6772 105.847 55.4186C105.866 54.1768 106.967 53.1699 108.33 53.1531C109.73 53.1196 110.888 54.1432 110.888 55.4186Z" fill="white"/>
<path d="M48.1123 55.46C48.1123 54.1724 49.1135 53.1523 50.3863 53.1523C51.6421 53.1523 52.7112 54.2059 52.6942 55.46C52.6773 56.6808 51.676 57.7008 50.4372 57.7343C49.1645 57.751 48.1123 56.7309 48.1123 55.46Z" fill="white"/>
<path d="M120.052 12.1815C120.037 13.2991 119.058 14.2354 117.945 14.2052C116.861 14.175 115.943 13.2387 115.928 12.1513C115.928 11.0488 116.906 10.0671 118.005 10.0822C119.104 10.0822 120.067 11.079 120.052 12.1815Z" fill="white"/>
<path d="M43.0722 103.35C43.0571 104.468 42.0753 105.404 40.9728 105.389C39.8551 105.374 38.9187 104.377 38.949 103.275C38.9792 102.202 39.9307 101.266 41.0181 101.266C42.1055 101.266 43.0722 102.247 43.0722 103.35Z" fill="white"/>
<path d="M122.826 62.7737C124.145 62.7737 125.109 63.7579 125.092 65.0815C125.075 66.3372 124.094 67.3384 122.843 67.3554C121.558 67.3723 120.493 66.3202 120.51 65.0645C120.527 63.7579 121.525 62.7567 122.826 62.7737Z" fill="white"/>
<path d="M125.092 156.243C125.092 157.555 124.095 158.56 122.793 158.543C121.542 158.543 120.527 157.521 120.51 156.294C120.493 155 121.491 153.978 122.793 153.961C124.111 153.961 125.092 154.915 125.092 156.243Z" fill="white"/>
<path d="M91.1842 117.969C91.201 119.087 90.1309 120.054 88.8937 120.054C87.7066 120.054 86.6365 119.102 86.6031 118.045C86.5696 116.957 87.6397 115.945 88.8602 115.93C90.1142 115.9 91.1675 116.852 91.1842 117.969Z" fill="white"/>
<path d="M151.492 81.5624C150.344 81.5794 149.393 80.5574 149.378 79.297C149.363 78.0536 150.314 76.9805 151.447 76.9805C152.565 76.9805 153.471 77.9514 153.501 79.2118C153.516 80.4893 152.625 81.5454 151.492 81.5624Z" fill="white"/>
<path d="M122.843 76.9805C124.145 76.9974 125.109 77.9985 125.092 79.322C125.075 80.6116 124.061 81.5957 122.742 81.5617C121.508 81.5278 120.493 80.5098 120.51 79.2711C120.51 77.9816 121.558 76.9805 122.843 76.9805Z" fill="white"/>
<path d="M36.2071 96.2267C34.8714 96.2267 33.9077 95.2763 33.9077 93.9526C33.9077 92.6458 34.9053 91.6445 36.2071 91.6445C37.4921 91.6615 38.5065 92.6967 38.4896 93.9695C38.4558 95.2424 37.4752 96.2267 36.2071 96.2267Z" fill="white"/>
<path d="M65.0746 124.635C63.746 124.651 62.7751 123.768 62.7751 122.581C62.7751 121.41 63.7631 120.512 65.0746 120.512C66.301 120.512 67.34 121.425 67.3571 122.551C67.3741 123.707 66.3691 124.635 65.0746 124.635Z" fill="white"/>
<path d="M96.2247 122.581C96.2247 123.768 95.2538 124.636 93.9252 124.636C92.6648 124.636 91.6598 123.753 91.6428 122.627C91.6258 121.47 92.6648 120.512 93.9252 120.512C95.2198 120.512 96.2247 121.41 96.2247 122.581Z" fill="white"/>
<path d="M125.092 93.9781C125.075 95.2896 124.095 96.2435 122.759 96.2264C121.474 96.2094 120.477 95.1704 120.511 93.8759C120.545 92.6495 121.576 91.6445 122.81 91.6445C124.095 91.6445 125.109 92.6665 125.092 93.9781Z" fill="white"/>
<path d="M48.1123 127.351C48.1123 126.027 49.0929 125.077 50.4286 125.094C51.6798 125.111 52.6773 126.112 52.6942 127.351C52.7111 128.624 51.6629 129.676 50.3948 129.676C49.1268 129.693 48.1123 128.658 48.1123 127.351Z" fill="white"/>
<path d="M36.2237 62.7737C37.5085 62.7737 38.5228 63.8088 38.489 65.0984C38.4552 66.3542 37.4578 67.3384 36.2068 67.3554C34.922 67.3723 33.9077 66.3542 33.9077 65.0645C33.9246 63.7239 34.9051 62.7567 36.2237 62.7737Z" fill="white"/>
<path d="M5.04035 60.0591C5.04035 61.3562 3.91611 62.3331 2.47333 62.3163C1.08677 62.2994 0 61.3056 0 60.0591C0 58.7789 1.14298 57.7346 2.52954 57.7346C3.91611 57.7177 5.04035 58.7621 5.04035 60.0591Z" fill="white"/>
<path d="M125.092 50.3958C125.092 49.077 126.056 48.1133 127.375 48.1133C128.66 48.1133 129.691 49.1446 129.674 50.4127C129.657 51.6469 128.643 52.6614 127.409 52.6952C126.141 52.7121 125.092 51.6808 125.092 50.3958Z" fill="white"/>
<path d="M110.887 79.3138C110.869 80.6251 109.771 81.5958 108.321 81.5617C106.944 81.5447 105.847 80.5229 105.847 79.2797C105.847 78.0025 106.982 76.9636 108.395 76.9807C109.846 76.9807 110.906 77.9854 110.887 79.3138Z" fill="white"/>
<path d="M81.5619 142.02C81.5619 143.331 80.5606 144.336 79.2539 144.336C77.9472 144.319 76.963 143.297 76.98 142.003C76.9969 140.725 77.9642 139.771 79.237 139.754C80.5776 139.737 81.5619 140.708 81.5619 142.02Z" fill="white"/>
<path d="M7.50792 81.5624C6.36012 81.5454 5.46908 80.5063 5.49928 79.2118C5.52949 77.9514 6.42053 76.9805 7.55322 76.9805C8.70102 76.9805 9.63738 78.0365 9.62227 79.297C9.60717 80.5574 8.65571 81.5794 7.50792 81.5624Z" fill="white"/>
<path d="M38.9484 146.651C38.9334 145.427 39.8964 144.353 41.0099 144.336C42.0934 144.336 43.0263 145.359 43.0715 146.551C43.1016 147.759 42.1536 148.883 41.0551 148.916C39.9566 148.967 38.9635 147.893 38.9484 146.651Z" fill="white"/>
<path d="M127.409 110.43C126.09 110.447 125.109 109.479 125.092 108.173C125.092 106.883 126.107 105.831 127.375 105.848C128.643 105.848 129.691 106.917 129.674 108.19C129.657 109.411 128.643 110.413 127.409 110.43Z" fill="white"/>
<path d="M76.9797 151.449C76.9797 150.316 78.0528 149.364 79.2962 149.379C80.5567 149.394 81.5787 150.346 81.5617 151.494C81.5446 152.612 80.5397 153.488 79.2792 153.503C78.0017 153.503 76.9797 152.597 76.9797 151.449Z" fill="white"/>
<path d="M12.1503 38.9492C13.2681 38.9492 14.2197 39.916 14.2046 41.0338C14.1894 42.1213 13.253 43.0579 12.1805 43.073C11.0779 43.0881 10.081 42.1213 10.081 41.0186C10.0659 39.9311 11.0477 38.9492 12.1503 38.9492Z" fill="white"/>
<path d="M142.004 76.9805C143.315 76.9805 144.337 77.9684 144.337 79.263C144.337 80.5746 143.332 81.5626 142.021 81.5626C140.743 81.5626 139.772 80.5917 139.755 79.3141C139.738 77.9855 140.692 76.9975 142.004 76.9805Z" fill="white"/>
<path d="M127.333 81.5624C126.026 81.5454 125.059 80.5404 125.093 79.2119C125.11 77.9515 126.111 76.9637 127.367 76.9807C128.656 76.9807 129.691 78.0197 129.674 79.2971C129.674 80.5915 128.639 81.5794 127.333 81.5624Z" fill="white"/>
<path d="M110.887 2.57605C110.869 4.03208 109.79 5.05876 108.321 5.0401C106.944 5.02143 105.847 3.90141 105.847 2.53871C105.847 1.13869 106.982 0 108.395 0C109.827 0.018667 110.906 1.12002 110.887 2.57605Z" fill="white"/>
<path d="M50.3526 153.961C51.6593 153.944 52.6944 154.949 52.6944 156.227C52.6944 157.504 51.6593 158.543 50.3865 158.543C49.1307 158.543 48.1295 157.555 48.1125 156.295C48.0956 154.966 49.0289 153.978 50.3526 153.961Z" fill="white"/>
<path d="M96.2245 127.393C96.2245 128.678 95.1855 129.709 93.9081 129.675C92.6477 129.641 91.6598 128.644 91.6428 127.393C91.6258 126.108 92.6307 125.094 93.9422 125.094C95.2707 125.111 96.2415 126.074 96.2245 127.393Z" fill="white"/>
<path d="M139.755 127.343C139.755 126.041 140.756 125.077 142.08 125.094C143.336 125.111 144.32 126.092 144.337 127.36C144.354 128.628 143.302 129.676 142.029 129.676C140.739 129.676 139.755 128.645 139.755 127.343Z" fill="white"/>
<path d="M127.4 96.2264C126.06 96.2434 125.092 95.2761 125.092 93.9525C125.092 92.6458 126.094 91.6445 127.383 91.6445C128.673 91.6615 129.691 92.6967 129.674 93.9694C129.657 95.2422 128.656 96.2264 127.4 96.2264Z" fill="white"/>
<path d="M31.3693 81.5624C29.9508 81.5454 28.831 80.4935 28.8683 79.2209C28.9057 77.9315 30.0628 76.9474 31.4813 76.9813C32.8624 77.0153 33.9075 78.0163 33.9075 79.2888C33.9262 80.6122 32.825 81.5793 31.3693 81.5624Z" fill="white"/>
<path d="M110.888 50.3958C110.888 51.6808 109.753 52.7121 108.358 52.6952C106.963 52.6783 105.829 51.5962 105.847 50.3451C105.885 49.1108 106.982 48.1302 108.358 48.1133C109.827 48.1302 110.888 49.0939 110.888 50.3958Z" fill="white"/>
<path d="M50.3695 110.43C49.0628 110.43 48.0956 109.432 48.1125 108.113C48.1295 106.862 49.1307 105.865 50.3695 105.848C51.6253 105.831 52.6944 106.896 52.6944 108.147C52.6944 109.432 51.6593 110.43 50.3695 110.43Z" fill="white"/>
<path d="M156.276 110.43C154.931 110.446 153.96 109.5 153.96 108.164C153.96 106.862 154.982 105.848 156.259 105.848C157.537 105.865 158.559 106.896 158.542 108.181C158.542 109.449 157.554 110.413 156.276 110.43Z" fill="white"/>
<path d="M127.316 62.7737C128.623 62.7567 129.657 63.7409 129.674 65.0307C129.691 66.3034 128.639 67.3386 127.367 67.3556C126.112 67.3556 125.111 66.3883 125.094 65.1155C125.043 63.7749 126.01 62.7737 127.316 62.7737Z" fill="white"/>
<path d="M62.7751 36.2139C62.7751 34.8904 63.729 33.9062 65.0576 33.9062C66.3521 33.9062 67.3741 34.9243 67.3571 36.2139C67.34 37.4695 66.3351 38.4706 65.0917 38.4876C63.7971 38.5215 62.7751 37.5034 62.7751 36.2139Z" fill="white"/>
<path d="M48.1123 50.3873C48.1123 49.0636 49.0966 48.1133 50.4202 48.1133C51.676 48.1303 52.6773 49.1145 52.6942 50.3533C52.7112 51.6091 51.6591 52.6782 50.4033 52.6952C49.1305 52.7122 48.1123 51.677 48.1123 50.3873Z" fill="white"/>
<path d="M79.2878 33.4493C77.981 33.4493 76.9797 32.4687 76.9797 31.1668C76.9797 29.8818 78.0319 28.8505 79.3047 28.8674C80.5606 28.8843 81.5449 29.8818 81.5619 31.133C81.5619 32.4518 80.5945 33.4493 79.2878 33.4493Z" fill="white"/>
<path d="M153.96 50.3958C153.96 49.0601 154.91 48.1133 156.251 48.1133C157.523 48.1133 158.508 49.077 158.542 50.3282C158.559 51.6131 157.557 52.6614 156.285 52.6952C155.012 52.7121 153.977 51.6808 153.96 50.3958Z" fill="white"/>
<path d="M153.96 127.41C153.943 126.091 154.914 125.094 156.225 125.094C157.554 125.094 158.542 126.074 158.542 127.376C158.542 128.661 157.503 129.693 156.208 129.676C154.965 129.659 153.977 128.661 153.96 127.41Z" fill="white"/>
<path d="M5.04035 108.147C5.04035 109.466 3.97237 110.43 2.51092 110.43C1.10569 110.43 0.0189712 109.466 0.000234675 108.198C-0.0185018 106.913 1.08695 105.865 2.51092 105.848C3.89742 105.831 5.04035 106.862 5.04035 108.147Z" fill="white"/>
<path d="M127.408 153.961C128.693 153.978 129.707 155.017 129.674 156.295C129.64 157.555 128.625 158.543 127.374 158.543C126.09 158.543 125.092 157.538 125.092 156.227C125.109 154.915 126.09 153.944 127.408 153.961Z" fill="white"/>
<path d="M36.2237 81.5624C34.922 81.5794 33.9077 80.5951 33.9077 79.2884C33.9077 77.9817 34.8882 76.9805 36.1899 76.9805C37.4578 76.9805 38.4552 77.9478 38.489 79.2035C38.5228 80.4763 37.5085 81.5454 36.2237 81.5624Z" fill="white"/>
<path d="M141.995 48.1135C143.319 48.0966 144.32 49.0772 144.337 50.3791C144.354 51.6302 143.285 52.6954 142.029 52.6954C140.79 52.6954 139.772 51.6979 139.755 50.4467C139.738 49.0941 140.672 48.1135 141.995 48.1135Z" fill="white"/>
<path d="M48.1123 142.028C48.1123 140.704 49.0795 139.737 50.403 139.754C51.6925 139.754 52.7276 140.789 52.6936 142.062C52.6767 143.301 51.6416 144.319 50.4199 144.336C49.1304 144.336 48.1123 143.335 48.1123 142.028Z" fill="white"/>
<path d="M108.386 62.7734C109.842 62.7734 110.906 63.7443 110.887 65.0729C110.887 66.3504 109.805 67.3383 108.423 67.3554C107.005 67.3724 105.866 66.3504 105.847 65.0729C105.829 63.7954 106.949 62.7734 108.386 62.7734Z" fill="white"/>
<path d="M108.138 96.2264C106.882 96.2264 105.864 95.2215 105.847 93.9782C105.83 92.7007 106.866 91.6447 108.138 91.6447C109.445 91.6277 110.429 92.6326 110.429 93.9441C110.446 95.2897 109.479 96.2435 108.138 96.2264Z" fill="white"/>
<path d="M65.0408 110.43C63.7122 110.43 62.7583 109.462 62.7754 108.122C62.7924 106.866 63.7803 105.865 65.0237 105.848C66.3012 105.831 67.3573 106.866 67.3573 108.156C67.3573 109.446 66.3523 110.43 65.0408 110.43Z" fill="white"/>
<path d="M50.4199 19.246C49.0964 19.2629 48.1123 18.2957 48.1123 16.972C48.1123 15.6653 49.1134 14.6641 50.403 14.6641C51.6416 14.6641 52.6597 15.6823 52.6936 16.9211C52.7276 18.1938 51.6925 19.246 50.4199 19.246Z" fill="white"/>
<path d="M48.1125 65.0052C48.1295 63.6769 49.0968 62.7403 50.4544 62.7743C51.7102 62.7914 52.6944 63.7961 52.6944 65.0563C52.6944 66.3336 51.6423 67.3724 50.3695 67.3554C49.0628 67.3383 48.0956 66.3336 48.1125 65.0052Z" fill="white"/>
<path d="M50.3446 96.2264C49.0261 96.2094 48.0794 95.2385 48.1132 93.8929C48.1301 92.6154 49.1106 91.6445 50.3784 91.6445C51.6632 91.6445 52.6944 92.6836 52.6944 93.961C52.6775 95.2556 51.6463 96.2435 50.3446 96.2264Z" fill="white"/>
<path d="M17.0048 48.1135C18.3114 48.1305 19.2617 49.1147 19.2448 50.4384C19.2278 51.6942 18.2096 52.6954 16.9709 52.6954C15.6982 52.6954 14.6461 51.6433 14.663 50.3705C14.68 49.0808 15.6982 48.0965 17.0048 48.1135Z" fill="white"/>
<path d="M93.9929 48.1135C95.3042 48.1305 96.2579 49.1147 96.2238 50.4553C96.2068 51.711 95.185 52.7122 93.9418 52.6952C92.6646 52.6952 91.6258 51.6431 91.6428 50.3534C91.6598 49.0638 92.6646 48.0965 93.9929 48.1135Z" fill="white"/>
<path d="M139.755 142.011C139.755 140.687 140.726 139.737 142.071 139.754C143.366 139.771 144.37 140.806 144.336 142.096C144.302 143.335 143.263 144.336 142.02 144.336C140.743 144.319 139.755 143.318 139.755 142.011Z" fill="white"/>
<path d="M65.0066 19.246C63.6781 19.229 62.7583 18.2618 62.7754 16.9042C62.7924 15.6655 63.8314 14.6473 65.0577 14.6643C66.3351 14.6643 67.3741 15.7164 67.3571 17.006C67.34 18.2957 66.3351 19.2629 65.0066 19.246Z" fill="white"/>
<path d="M17.0047 96.2265C15.715 96.2435 14.6628 95.2215 14.6628 93.9441C14.6628 92.6667 15.698 91.6277 16.9877 91.6447C18.2605 91.6447 19.2278 92.6326 19.2447 93.893C19.2617 95.2556 18.3284 96.2265 17.0047 96.2265Z" fill="white"/>
<path d="M16.954 62.7734C18.2946 62.7734 19.245 63.7103 19.245 65.0559C19.245 66.3674 18.2437 67.3724 16.954 67.3554C15.6813 67.3383 14.6461 66.2823 14.663 65.0048C14.68 63.7614 15.6982 62.7734 16.954 62.7734Z" fill="white"/>
<path d="M139.755 156.21C139.755 154.881 140.743 153.944 142.089 153.961C143.366 153.978 144.337 154.949 144.337 156.227C144.337 157.521 143.332 158.543 142.021 158.543C140.726 158.543 139.738 157.521 139.755 156.21Z" fill="white"/>
<path d="M93.9252 139.754C95.2709 139.754 96.2247 140.687 96.2247 142.028C96.2247 143.318 95.2198 144.336 93.9252 144.336C92.6818 144.336 91.6598 143.318 91.6428 142.079C91.6258 140.772 92.6137 139.754 93.9252 139.754Z" fill="white"/>
<path d="M65.0576 5.04035C63.729 5.04035 62.7751 3.9911 62.7751 2.51092C62.7751 1.06822 63.7971 -0.0184978 65.0917 0.000238633C66.3521 0.0189751 67.34 1.12443 67.3571 2.51092C67.3741 3.93489 66.3691 5.04035 65.0576 5.04035Z" fill="white"/>
<path d="M153.96 65.022C153.977 63.6935 154.948 62.7566 156.293 62.7737C157.554 62.7907 158.542 63.7786 158.542 65.0391C158.542 66.3336 157.537 67.3556 156.225 67.3556C154.931 67.3556 153.96 66.3336 153.96 65.022Z" fill="white"/>
<path d="M5.04035 93.9781C5.02161 95.3066 3.95358 96.2435 2.47333 96.2264C1.06803 96.2094 0 95.2215 0 93.961C0 92.6665 1.12424 91.6445 2.54828 91.6445C3.97232 91.6445 5.04035 92.6495 5.04035 93.9781Z" fill="white"/>
<path d="M2.49219 62.7737C3.97237 62.7566 5.04035 63.7104 5.04035 65.039C5.04035 66.3675 3.95363 67.3724 2.52966 67.3554C1.14316 67.3554 0.0377116 66.3675 0.000238644 65.1071C-0.0184978 63.7956 1.06822 62.7737 2.49219 62.7737Z" fill="white"/>
<path d="M93.9762 153.961C95.3047 153.978 96.2415 154.949 96.2245 156.295C96.2074 157.555 95.2196 158.543 93.9592 158.543C92.6647 158.543 91.6428 157.521 91.6428 156.226C91.6258 154.932 92.6477 153.961 93.9762 153.961Z" fill="white"/>
<path d="M5.04035 79.297C5.02161 80.6085 3.91611 81.5794 2.47333 81.5624C1.08677 81.5283 0 80.5404 0 79.2799C0 77.9854 1.1055 76.9805 2.54828 76.9805C3.97232 76.9805 5.04035 77.9684 5.04035 79.297Z" fill="white"/>
<path d="M153.96 156.243C153.96 154.915 154.944 153.961 156.268 153.961C157.54 153.978 158.525 154.949 158.542 156.209C158.559 157.504 157.54 158.543 156.268 158.543C154.961 158.56 153.96 157.555 153.96 156.243Z" fill="white"/>
<path d="M9.62992 16.9484C9.62992 15.7079 9.61335 14.4674 9.62992 13.2268C9.66307 11.2586 11.0884 9.72033 13.0442 9.67071C15.6297 9.60455 18.2318 9.60455 20.8339 9.67071C22.7233 9.72033 24.2149 11.2751 24.2481 13.1607C24.2978 15.6748 24.2978 18.1723 24.2481 20.6864C24.2149 22.6713 22.6073 24.226 20.6184 24.2591C18.1655 24.2922 15.696 24.2922 13.243 24.2591C11.2044 24.226 9.66307 22.6547 9.62992 20.6037C9.61335 19.3632 9.62992 18.1558 9.62992 16.9484Z" fill="white"/>
<path d="M149.37 16.9442C149.37 18.1523 149.387 19.377 149.37 20.5851C149.32 22.6703 147.779 24.226 145.675 24.2591C143.273 24.2922 140.87 24.2922 138.468 24.2591C136.33 24.226 134.773 22.6538 134.739 20.5189C134.706 18.1192 134.706 15.7196 134.739 13.3199C134.756 11.2181 136.297 9.67902 138.401 9.64592C140.837 9.61282 143.256 9.61282 145.692 9.64592C147.895 9.67902 149.337 11.1685 149.37 13.3861C149.387 14.5611 149.37 15.7527 149.37 16.9442Z" fill="white"/>
<path d="M16.9345 148.912C15.6955 148.912 14.4566 148.928 13.2177 148.912C11.318 148.88 9.7157 147.438 9.66614 145.579C9.60006 143.096 9.61658 140.612 9.66614 138.128C9.69918 136.317 11.2189 134.811 13.1021 134.763C15.6625 134.699 18.2229 134.699 20.7834 134.763C22.6665 134.811 24.1863 136.301 24.2358 138.128C24.3019 140.58 24.3019 143.047 24.2358 145.499C24.1863 147.422 22.5509 148.88 20.5851 148.912C19.3627 148.928 18.1403 148.912 16.9345 148.912Z" fill="white"/>
<path d="M130.133 127.412C130.133 127.54 130.133 127.649 130.133 127.776C130.133 129.759 129.815 130.123 128.01 130.123C127.558 130.123 127.123 130.141 126.672 130.123C125.652 130.087 125.184 129.614 125.117 128.522C125.084 127.794 125.084 127.066 125.117 126.339C125.168 125.211 125.669 124.701 126.706 124.646C127.24 124.628 127.759 124.628 128.294 124.646C129.681 124.665 130.133 125.156 130.133 126.684C130.133 126.921 130.133 127.157 130.133 127.412Z" fill="white"/>
</svg>
