<svg width="18" height="18" viewBox="0 0 18 18" fill="none" xmlns="http://www.w3.org/2000/svg">
<path d="M15.4882 5.25H2.51135C3.80885 3.0105 6.22573 1.5 8.99998 1.5C11.7742 1.5 14.1911 3.0105 15.4882 5.25ZM8.99998 16.5C11.7742 16.5 14.1911 14.9895 15.4882 12.75H2.51173C3.80923 14.9895 6.22573 16.5 8.99998 16.5Z" fill="url(#paint0_linear_5467_34520)"/>
<path d="M16.5 9C16.5 7.63238 16.128 6.354 15.4886 5.25H2.51138C1.872 6.354 1.5 7.63238 1.5 9C1.5 10.3676 1.872 11.646 2.51175 12.75H15.4886C16.128 11.646 16.5 10.3676 16.5 9Z" fill="url(#paint1_linear_5467_34520)"/>
<defs>
<linearGradient id="paint0_linear_5467_34520" x1="3.65773" y1="3.65775" x2="14.2282" y2="14.2282" gradientUnits="userSpaceOnUse">
<stop stop-color="#F44F5A"/>
<stop offset="0.443" stop-color="#EE3D4A"/>
<stop offset="1" stop-color="#E52030"/>
</linearGradient>
<linearGradient id="paint1_linear_5467_34520" x1="3.77513" y1="3.77512" x2="14.1581" y2="14.1578" gradientUnits="userSpaceOnUse">
<stop stop-color="#FEDE00"/>
<stop offset="1" stop-color="#FFD000"/>
</linearGradient>
</defs>
</svg>
